<svg xmlns="http://www.w3.org/2000/svg" width="100mm" height="100mm" viewBox="0 0 377.95 377.95" fill="#fff"><path d="m185.27 0 3.7109 188.98 3.7109-188.98h-7.4219zm3.7109 188.98 18.525-188.1-7.3984-0.58203-11.127 188.69zm0 0 33.229-186.07-7.332-1.1602-25.896 187.23zm0 0 47.725-182.89-7.2168-1.7324-40.508 184.62zm0 0 61.926-178.58-7.0586-2.2949-54.867 180.87zm0 0 75.746-173.17-6.8574-2.8398-68.889 176.01zm0 0 89.1-166.7-6.6133-3.3691-82.486 170.06zm0 0 101.9-159.19-6.3281-3.8789-95.576 163.07zm0 0 114.08-150.7-6.0059-4.3633-108.07 155.07zm0 0 125.55-141.29-5.6445-4.8203-119.91 146.11zm0 0 136.25-131-5.248-5.248-131 136.25zm0 0 146.11-119.91-4.8203-5.6445-141.29 125.55zm0 0 155.07-108.08-4.3633-6.0039-150.7 114.08zm0 0 163.07-95.576-3.8789-6.3281-159.19 101.9zm0 0 170.06-82.486-3.3711-6.6133-166.69 89.1zm0 0 176.01-68.891-2.8398-6.8555-173.17 75.746zm0 0 180.87-54.867-2.293-7.0586-178.58 61.926zm0 0 184.62-40.508-1.7324-7.2168-182.89 47.725zm0 0 187.23-25.896-1.1621-7.332-186.07 33.229zm0 0 188.69-11.127-0.58398-7.4004-188.1 18.527zm0 0 188.98 3.7109v-7.4219l-188.98 3.7109zm0 0 188.1 18.525 0.58398-7.3984-188.69-11.127zm0 0 186.07 33.229 1.1621-7.332-187.23-25.896zm0 0 182.89 47.725 1.7324-7.2168-184.62-40.508zm0 0 178.58 61.926 2.293-7.0586-180.87-54.867zm0 0 173.17 75.746 2.8398-6.8574-176.01-68.889zm0 0 166.69 89.1 3.3711-6.6133-170.06-82.486zm0 0 159.19 101.9 3.8789-6.3281-163.07-95.576zm0 0 150.7 114.08 4.3633-6.0059-155.07-108.07zm0 0 141.29 125.55 4.8203-5.6445-146.11-119.91zm0 0 131 136.25 5.248-5.248-136.25-131zm0 0 119.91 146.11 5.6445-4.8203-125.55-141.29zm0 0 108.07 155.07 6.0059-4.3633-114.08-150.7zm0 0 95.576 163.07 6.3281-3.8789-101.9-159.19zm0 0 82.486 170.06 6.6133-3.3711-89.1-166.69zm0 0 68.889 176.01 6.8574-2.8398-75.746-173.17zm0 0 54.867 180.87 7.0586-2.293-61.926-178.58zm0 0 40.508 184.62 7.2168-1.7324-47.725-182.89zm0 0 25.896 187.23 7.332-1.1621-33.229-186.07zm0 0 11.127 188.69 7.3984-0.58398-18.525-188.1zm0 0-3.7109 188.98h7.4219l-3.7109-188.98zm0 0-18.527 188.1 7.4004 0.58398 11.127-188.69zm0 0-33.229 186.07 7.332 1.1621 25.896-187.23zm0 0-47.725 182.89 7.2168 1.7324 40.508-184.62zm0 0-61.926 178.58 7.0586 2.293 54.867-180.87zm0 0-75.746 173.17 6.8555 2.8398 68.891-176.01zm0 0-89.1 166.69 6.6133 3.3711 82.486-170.06zm0 0-101.9 159.19 6.3281 3.8789 95.576-163.07zm0 0-114.08 150.7 6.0039 4.3633 108.08-155.07zm0 0-125.55 141.29 5.6445 4.8203 119.91-146.11zm0 0-136.25 131 5.248 5.248 131-136.25zm0 0-146.11 119.91 4.8203 5.6445 141.29-125.55zm0 0-155.07 108.07 4.3633 6.0059 150.7-114.08zm0 0-163.07 95.576 3.8789 6.3281 159.19-101.9zm0 0-170.06 82.486 3.3691 6.6133 166.7-89.1zm0 0-176.01 68.889 2.8398 6.8574 173.17-75.746zm0 0-180.87 54.867 2.2949 7.0586 178.58-61.926zm0 0-184.62 40.508 1.7324 7.2168 182.89-47.725zm0 0-187.23 25.896 1.1602 7.332 186.07-33.229zm0 0-188.69 11.127 0.58203 7.3984 188.1-18.525zm0 0-188.98-3.7109v7.4219l188.98-3.7109zm0 0-188.1-18.527-0.58203 7.4004 188.69 11.127zm0 0-186.07-33.229-1.1602 7.332 187.23 25.896zm0 0-182.89-47.725-1.7324 7.2168 184.62 40.508zm0 0-178.58-61.926-2.2949 7.0586 180.87 54.867zm0 0-173.17-75.746-2.8398 6.8555 176.01 68.891zm0 0-166.7-89.1-3.3691 6.6133 170.06 82.486zm0 0-159.19-101.9-3.8789 6.3281 163.07 95.576zm0 0-150.7-114.08-4.3633 6.0039 155.07 108.08zm0 0-141.29-125.55-4.8203 5.6445 146.11 119.91zm0 0-131-136.25-5.248 5.248 136.25 131zm0 0-119.91-146.11-5.6445 4.8203 125.55 141.29zm0 0-108.08-155.07-6.0039 4.3633 114.08 150.7zm0 0-95.576-163.07-6.3281 3.8789 101.9 159.19zm0 0-82.486-170.06-6.6133 3.3691 89.1 166.7zm0 0-68.891-176.01-6.8555 2.8398 75.746 173.17zm0 0-54.867-180.87-7.0586 2.2949 61.926 178.58zm0 0-40.508-184.62-7.2168 1.7324 47.725 182.89zm0 0-25.896-187.23-7.332 1.1602 33.229 186.07zm0 0-11.127-188.69-7.4004 0.58203 18.527 188.1z"/></svg>