<svg xmlns="http://www.w3.org/2000/svg" width="20.5mm" height="20.5mm" viewBox="0 0 77.481 77.481" fill="#fff"><path d="m0.0013517 70.151v-7.329h14.658v14.658h-14.658zm12.564 0v-5.235h-10.47v10.47h10.47zm-8.3756 0v-3.1411h6.2819v6.2821h-6.2819zm16.751 6.2821v-1.047h2.094v2.094h-2.094zm4.188 0v-1.047h2.094v-2.094h-2.094v-2.094h-2.094v2.094h-2.094v-2.094h-2.094v4.1882h-2.094v-16.752h-2.094v2.094h-8.3756v-2.094h-2.094v-6.2821h-2.094v8.3759h-2.094v-8.3759h2.094v-2.094h2.094v2.094h4.188v2.094h-2.094v2.094h2.094v2.094h2.094v-2.094h2.094v-2.094h2.094v-2.094h-4.188v-2.094h6.2819v-2.094h2.094v2.094h4.188v-2.094h-2.094v-6.2821h-4.188v2.094h2.094v2.094h-4.188v2.094h-6.2819v2.094h-2.094v-2.094h-4.188v-2.094h6.2819v-4.1882h6.2819v-2.094h-2.094v-2.094h4.188v-2.094h2.094v-2.094h-2.094v-4.1882h2.094v-2.094h-2.094v-2.094h2.094v-2.094h-2.094v-2.094h-2.094v2.094h-4.188v2.094h-4.188v2.094h2.094v2.094h2.094v-2.094h2.094v-2.094h2.094v2.094h-2.094v2.094h2.094v2.094h-4.188v6.2821h-2.094v2.094h-2.094v-4.1882h-4.188v2.094h-2.094v-2.094h2.094v-2.094h-2.094v-4.1882h2.094v-6.2821h2.094v-2.094h2.094v-2.094h-4.188v-2.094h14.658v4.1882h2.094v2.094h2.094v-2.094h4.188v-2.094h-2.094v-2.094h2.094v-4.1882h2.094v-2.094h4.188v-2.094h2.094v4.1882h2.094v2.094h-2.094v-2.094h-2.094v4.1882h2.094v2.094h2.094v-2.094h4.188v-2.094h-2.094v-2.094h2.094v-2.094h-2.094v-2.094h2.094v-2.094h2.094v-2.094h2.094v-2.094h-2.094v-2.094h2.094v2.094h2.094v-2.094h2.094v2.094h-2.094v4.1882h2.094v8.3759h-2.094v2.094h10.47v2.094h-2.094v2.094h4.188v-8.3759h-2.094v2.094h-2.094v-4.1882h6.2819v10.47h-2.094v2.094h2.094v2.094h2.094v-4.1882h2.094v-4.1882h4.188v2.094h-2.094v2.094h2.094v2.094h-4.188v4.1882h2.094v-2.094h2.094v2.094h2.094v-2.094h2.094v4.1882h4.188v2.094h-4.188v-2.094h-2.094v2.094h-6.2819v-4.1882h-2.094v6.2821h2.094v2.094h-4.188v4.1882h4.188v-2.094h2.094v2.094h2.094v2.094h4.188v-2.094h-2.094v-2.094h-2.094v-2.094h-2.094v-2.094h2.094v2.094h2.094v-2.094h4.188v2.094h-4.188v2.094h6.2819v2.094h-2.094v2.094h2.094v2.094h-10.47v2.094h-2.094v-2.094h-4.188v-2.094h-2.094v2.094h-4.188v-4.1882h-4.188v2.094h2.094v6.2821h-2.094v-2.094h-2.094v-2.094h-2.094v-2.094h-4.188v2.094h2.094v2.094h2.094v2.094h2.094v4.1882h2.094v-2.094h4.188v-4.1882h4.188v2.094h-2.094v6.2821h2.094v-2.094h2.094v-6.2821h2.094v4.1882h2.094v-2.094h2.094v2.094h-2.094v2.094h2.094v4.1882h2.094v-4.1882h2.094v-2.094h2.094v-4.1882h4.188v2.094h-2.094v2.094h2.094v2.094h-2.094v2.094h2.094v2.094h-2.094v2.094h2.094v2.094h-2.094v-2.094h-2.094v2.094h-4.188v2.094h2.094v2.094h-2.094v6.2821h-2.094v2.094h2.094v2.094h6.2819v-4.1882h-2.094v2.094h-2.094v-6.2821h2.094v2.094h2.094v-2.094h2.094v2.094h-2.094v2.094h2.094v6.2821h-8.3756v-2.094h-2.094v-2.094h-2.094v-2.094h-2.094v4.1882h2.094v2.094h-4.188v-2.094h-4.188v2.094h-2.094v-6.2821h-2.094v4.1882h-4.188v2.094h-2.094v-2.094h-4.188v2.094h-4.188v-6.2821h-4.188v-2.094h4.188v-2.094h-2.094v-4.1882h2.094v2.094h2.094v2.094h2.094v-4.1882h-2.094v-6.2821h-2.094v4.1882h-4.188v6.2821h-2.094v6.2821h-2.094v2.094h2.094v2.094h-6.2817zm4.188-4.1882v-1.047h-2.094v2.094h2.094zm14.658 0v-1.047h2.094v2.094h4.188v-4.1882h-2.094v-2.094h2.094v-2.094h2.094v2.094h2.094v-2.094h2.094v2.094h2.094v-4.1882h-2.094v-2.094h-4.188v-2.094h2.094v-2.094h-4.188v-2.094h-2.094v2.094h2.094v6.2821h-2.094v-2.094h-2.094v-2.094h-4.188v4.1882h2.094v-2.094h2.094v4.1882h2.094v2.094h-2.094v2.094h-2.094v-2.094h-2.094v2.094h-4.188v2.094h4.188v2.094h2.094zm-2.094-2.094v-1.047h2.094v2.094h-2.094zm4.188 0v-1.047h2.094v2.094h-2.094zm12.564 1.047v-2.094h-4.188v2.094h2.094v2.094h2.094zm-35.596-1.047v-1.047h-2.094v2.094h2.094zm39.785 0v-1.047h-2.094v2.094h2.094zm-33.503-2.094v-1.047h-2.094v-2.094h4.188v-4.1882h2.094v-4.1882h4.188v-4.1882h2.094v2.094h2.094v2.094h2.094v-2.094h-2.094v-2.094h4.188v-2.094h-2.094v-4.1882h-2.094v4.1882h-2.094v-6.2821h-2.094v2.094h-2.094v2.094h-4.188v-2.094h2.094v-4.1882h2.094v-2.094h-2.094v2.094h-4.188v6.2821h-2.094v-4.1882h-2.094v-2.094h-2.094v-2.094h8.3756v-4.1882h-2.094v-2.094h-2.094v4.1882h-4.188v-4.1882h-2.094v-2.094h6.2819v-2.094h-2.094v-2.094h-4.188v2.094h-2.094v4.1882h2.094v4.1882h-4.188v2.094h4.188v2.094h2.094v4.1882h2.094v4.1882h-2.094v4.1882h-2.094v-2.094h-2.094v-2.094h-2.094v2.094h2.094v2.094h2.094v2.094h-4.188v2.094h2.094v4.1882h2.094v2.094h2.094v2.094h2.094v2.094h4.188zm-6.2819-5.235v-2.094h-2.094v-4.1882h4.188v-4.1882h2.094v-2.094h2.094v-2.094h2.094v2.094h6.2819v2.094h-2.094v2.094h-2.094v2.094h-4.188v-2.094h4.188v-2.094h-2.094v-2.094h-2.094v2.094h-2.094v6.2821h2.094v2.094h-2.094v4.1882h-4.188zm4.188-3.1411v-1.047h-2.094v2.094h2.094zm-6.2819-20.94v-1.047h2.094v2.094h-2.094zm46.067 25.129v-3.1411h-6.2819v6.2821h6.2819zm-4.188 0v-1.047h2.094v2.094h-2.094zm-48.16-6.2821v-1.047h-2.094v2.094h2.094zm50.256 0v-1.047h-2.094v-2.094h2.094v-2.094h-2.094v2.094h-2.094v2.094h2.094v2.094h2.094zm8.3756 0v-1.047h-2.094v2.094h2.094zm-18.845-4.1882v-1.047h-2.094v2.094h2.094zm18.845 0v-1.047h-2.094v2.094h2.094zm-58.631-8.3759v-1.047h-4.188v2.094h4.188zm27.221-4.1882v-1.047h2.094v-2.094h-2.094v-2.094h-2.094v2.094h2.094v2.094h-4.188v2.094h4.188zm16.751-4.1882v-1.047h2.094v-2.094h-2.094v-2.094h2.094v-6.2819h-2.094v-2.094h-2.094v4.1882h-2.094v2.094h-2.094v-2.094h-2.094v2.094h-2.094v-2.094h-2.094v-2.094h-2.094v-2.094h2.094v-2.094h2.094v4.1882h6.2819v-2.094h-2.094v-4.1882h-2.094v2.094h-2.094v-2.094h-2.094v-2.094h-2.094v-2.094h2.094v-2.094h-2.094v2.094h-2.094v-2.094h-2.094v2.094h2.094v4.1882h-2.094v2.094h-4.188v2.094h-2.094v-4.1882h-2.094v-2.094h-4.188v6.2821h2.094v-2.094h2.094v2.094h2.094v2.094h2.094v-2.094h4.188v-2.094h2.094v4.1882h-4.188v2.094h2.094v2.094h4.188v4.1882h4.188v2.094h-2.094v2.094h12.564zm-8.3756-2.094v-1.047h4.188v-2.094h2.094v-2.094h2.094v2.094h-2.094v4.1882h-6.2819zm-4.188-4.1882v-1.047h2.094v2.094h-2.094zm4.188 0v-1.047h2.094v2.094h-2.094zm-8.3756-4.1882v-1.047h2.094v2.094h-2.094zm2.094-6.2821v-1.047h2.094v2.094h-2.094zm-6.2819 13.611v-2.094h-6.2819v2.094h4.188v2.094h2.094zm-33.503-1.047v-1.047h4.188v-2.094h-6.2819v4.1882h2.094zm29.314-4.1882v-1.047h-2.094v-2.094h-4.188v2.094h4.188v2.094h2.094zm35.596 0v-1.047h-2.094v2.094h2.094zm-62.819-4.1882v-1.047h-2.094v2.094h2.094zm4.188-2.094v-1.047h4.188v-2.094h-4.188v2.094h-2.094v2.094h2.094zm18.845-8.3759v-1.047h-2.094v2.094h2.094zm14.658-4.1882v-1.047h2.094v-2.094h-2.094v2.094h-2.094v2.094h2.094zm31.41 54.444v-1.047h2.094v2.094h-2.094zm-73.288-20.94v-1.047h-2.094v-2.094h4.188v2.094h2.094v2.094h-4.188zm10.47-8.3759v-1.047h2.094v2.094h-2.094zm62.819-9.423v-2.094h-2.094v-2.094h4.188v6.2821h-2.094zm-56.535-8.3759v-2.094h-2.094v-6.2821h2.094v-6.2821h-2.094v-2.094h2.094v2.094h4.188v-2.094h2.094v2.094h2.094v-2.094h4.188v2.094h4.188v-2.094h2.094v2.094h2.094v2.094h-2.094v2.094h-8.3756v2.094h-4.188v2.094h-2.094v-4.1882h2.094v-2.094h-4.188v4.1882h-2.094v6.2821h2.094v-2.094h2.094v2.094h-2.094v4.1882h-2.094zm12.564-13.611v-1.047h-2.094v2.094h2.094zm6.2819 0v-1.047h-2.094v2.094h2.094zm37.692 14.658v-1.047h2.094v2.094h-2.094zm-75.381-10.47v-7.329h14.658v14.658h-14.658zm12.564 0v-5.235h-10.47v10.47h10.47zm-8.3756 0v-3.1411h6.2819v6.2821h-6.2819zm46.067 6.2821v-1.047h2.094v2.094h-2.094zm12.564-6.2821v-7.329h14.658v14.658h-14.658zm12.564 0v-5.235h-10.47v10.47h10.47zm-8.3756 0v-3.1411h6.2819v6.2821h-6.2819zm-16.751-1.047v-2.094h2.094v-2.094h-2.094v-2.094h4.188v2.094h4.188v-2.094h2.094v2.094h-2.094v2.094h2.094v2.094h-2.094v2.094h-4.188v-4.1882h-2.094v4.1882h-2.094z"/></svg>