<svg  xmlns="http://www.w3.org/2000/svg" width="70mm" height="70mm" viewBox="0 0 264.57 264.57" fill="#fff"><path d="m132.28 0c-73.024 2.8206e-7 -132.28 59.259-132.28 132.28 0 73.024 59.259 132.28 132.28 132.28s132.28-59.259 132.28-132.28-59.259-132.28-132.28-132.28zm0 5.6699c69.961 0 126.62 56.653 126.62 126.61 0 69.961-56.655 126.62-126.62 126.62-69.961 0-126.61-56.655-126.61-126.62 2e-7 -69.961 56.653-126.61 126.61-126.61zm56.678 28.445-37.785 65.445a37.795 37.795 0 0 1 18.902 32.723h75.592a113.39 113.39 0 0 0-56.709-98.168zm-113.24 0.19531a113.39 113.39 0 0 0-56.82 97.973h75.59a37.795 37.795 0 0 1 18.941-32.656l-37.711-65.316zm56.564 73.406a24.567 24.567 0 0 0-24.566 24.566 24.567 24.567 0 0 0 24.566 24.566 24.567 24.567 0 0 0 24.566-24.566 24.567 24.567 0 0 0-24.566-24.566zm-18.855 57.225-37.709 65.314a113.39 113.39 0 0 0 56.564 15.414 113.39 113.39 0 0 0 56.564-15.414l-37.709-65.314a37.795 37.795 0 0 1-18.855 5.1367 37.795 37.795 0 0 1-18.855-5.1367z"/></svg>
