<svg xmlns="http://www.w3.org/2000/svg" width="92.5mm" height="58mm" viewBox="0 0 349.61 219.21" fill="#fff"><path d="m197.52-0.0024626-15.334 18.688c-1.3416-1.1017-2.6998-2.171-4.0722-3.211l11.713-15.474h-7.2558l-8.6561 12.42c-1.427-0.99554-2.8668-1.9604-4.3221-2.8926l6.0976-9.5271h-6.539l-3.992 6.8125c-1.4969-0.87756-3.0073-1.7217-4.5292-2.5351l2.2831-4.2773h-5.9862l-0.93162 1.9199c-1.3668-0.6628-2.7394-1.3068-4.1229-1.9199h-16.127v0.0039039c16.734 5.1789 32.668 13.899 46.623 26.299 52.299 46.471 57.024 126.46 10.557 178.75-4.6191 5.1983-9.5813 9.9071-14.802 14.162h5.8123l-2e-3 2e-3h1.664l-2e-3 -2e-3h1.2109c1.0545-0.95209 2.0724-1.962 3.1034-2.9511l2.8398 2.953h7.7187l-6.8808-6.6152c1.2003-1.2442 2.4054-2.4809 3.5644-3.7852l11.705 10.4h9.1601l-17.512-14.373c1.1024-1.3418 2.1639-2.7034 3.205-4.076l24.371 18.449h11.174l-32.484-22.638c0.99607-1.4258 1.9812-2.8564 2.914-4.3104l42.1 26.945h14.158l-53.539-31.378c0.8784-1.496 1.7054-3.0122 2.5195-4.5332l67.189 35.914h18.753l-83.585-40.543c0.7579-1.5617 1.4932-3.1297 2.1856-4.7128l103.46 45.255h26.417l-10.508-4.1132c-2.0374 1.0822-4.3082 1.6508-6.6152 1.6563-5.9501-0.0523-11.234-3.8156-13.228-9.4217l-97.521-38.172c0.63156-1.6155 1.218-3.2434 1.7832-4.8768l95.801 33.22c1.3034-3.2689 3.7762-5.936 6.9374-7.4824l-101.15-30.682c0.50198-1.6603 0.96543-3.3276 1.4004-5.0018l123.36 32.191v-10.441l-6.6894-1.4668v4.2988h-13.832v-7.3339l-101.63-22.299c0.36927-1.6924 0.72146-3.3876 1.0234-5.0898l100.6 17.964v-9.2929l-99.796-13.803c0.23572-1.7179 0.41985-3.4404 0.58789-5.164l99.207 9.7694v-9.119l-98.81-5.828c0.10064-1.7289 0.17012-3.4572 0.20313-5.1874l98.609 1.9376v-9.0663l-98.597 1.9376c-0.0346-1.7312-0.0797-3.4631-0.18164-5.1914l98.78-5.8242v-9.123l-99.212 9.7713c-0.16918-1.7225-0.38481-3.439-0.62109-5.1543l99.833-13.808v-9.2948l-100.64 17.974c-0.30295-1.7041-0.63225-3.4028-1.0019-5.0955l101.64-22.302v-9.5858l-102.83 26.836c-0.43495-1.6744-0.90519-3.3412-1.4062-4.9999l104.24-31.623v-10.021l-105.85 36.711c-0.56508-1.6358-1.1683-3.259-1.7988-4.8749l107.09-41.917c-3.67-1.0271-6.7718-3.4889-8.6054-6.8299l-100.46 43.944c-0.69154-1.5849-1.4002-3.1633-2.1563-4.7245l101.42-49.192c1.527-6.2494 7.0734-10.686 13.506-10.806 2.0684 0.0096 4.1096 0.47264 5.9803 1.3555l7.4921-3.6327c-1.0599-0.58491-2.2751-0.92236-3.5682-0.93553h-17.592l-109.59 58.578c-0.8137-1.5238-1.6796-3.025-2.5566-4.5215l92.226-54.056h-17.416l-77.534 49.631c-0.93162-1.4546-1.8913-2.8945-2.8847-4.3183l65.011-45.312h-13.756l-54.296 41.103c-1.0434-1.376-2.1112-2.738-3.2148-4.0801l45.111-37.025h-11.271l-37.236 33.087c-1.1457-1.2865-2.3273-2.5508-3.5311-3.8007l30.46-29.287h-9.5018l-24.625 25.612c-1.2467-1.1974-2.4954-2.3945-3.7988-3.5527l19.603-22.06h-8.2206zm-99.681 7.787c-32.106 0.064494-62.808 13.759-84.332 37.855l56.507 50.208c8.9842-10.057 22.647-14.565 35.853-11.83l15.195-73.878c-5.5328-1.1457-11.143-1.8763-16.785-2.1855-2.1507-0.1178-4.297-0.17422-6.4374-0.16992zm251.77 3.2246-4.0058 1.752c0.52055 1.488 0.78921 3.0524 0.79491 4.6288-0.0939 2.6313-0.9191 5.1843-2.3828 7.3729l5.5936-2.1894v-11.564zm0 22.783-18.75 6.5019h12.06v6.4413l6.6894-2.0292v-10.914zm0 21.571-6.6894 1.746v10.162l6.6894-1.4687v-10.439zm0 20.705-6.6894 1.1953v9.8514l6.6894-0.92577v-10.121zm-143.76 9.1482-71.718 23.827c4.2583 12.812 1.3592 26.922-7.6054 37.017l56.509 50.21c26.894-30.287 35.589-72.617 22.814-111.05zm143.76 10.98-6.6894 0.65819v9.6698l6.6894-0.39453v-9.9335zm-251.85 0.19726c-6.7917 0.14329-13.275 3.101-17.846 8.2439-9.0114 10.142-8.0959 25.667 2.0449 34.679 10.143 9.0122 25.673 8.0959 34.685-2.0468 9.011-10.142 8.0947-25.668-2.0468-34.679-3.8786-3.4461-8.7486-5.5757-13.912-6.0838-0.97816-0.09621-1.9555-0.13376-2.9257-0.11328zm251.85 19.623-6.6894 0.13084v9.6092l6.6894 0.13086v-9.8709zm-287.13 16.828-62.48 20.758v23.105c2.758 4.9837 5.8992 9.7309 9.3612 14.23a14.173 14.173 0 0 1 8.0252-2.5194 14.173 14.173 0 0 1 14.174 14.172 14.173 14.173 0 0 1-2.4999 7.9979c4.2354 3.174 8.6695 6.0779 13.312 8.6327h35.682l12.615-61.326c-6.4965-1.3102-12.533-4.3053-17.507-8.6854-4.9341-4.4236-8.6182-10.067-10.683-16.363zm280.44 2.5351v9.6658l6.6894 0.65819v-9.9295zm0 19.412v9.8495l6.6894 1.1953v-10.119l-6.6894-0.92576zm1.332 40.778c1.3195 2.1107 2.0598 4.5317 2.1465 7.0195-5e-3 1.4184-0.22296 2.8278-0.64648 4.1816l3.8573 1.3379v-10.914l-5.3573-1.6249z"/></svg>