G04 #@! TF.GenerationSoftware,KiCad,Pcbnew,8.0.5-8.0.5-0~ubuntu22.04.1*
G04 #@! TF.CreationDate,2024-09-10T12:41:45+02:00*
G04 #@! TF.ProjectId,Motherboard,4d6f7468-6572-4626-9f61-72642e6b6963,1.0*
G04 #@! TF.SameCoordinates,Original*
G04 #@! TF.FileFunction,Copper,L2,Bot*
G04 #@! TF.FilePolarity,Positive*
%FSLAX46Y46*%
G04 Gerber Fmt 4.6, Leading zero omitted, Abs format (unit mm)*
G04 Created by KiCad (PCBNEW 8.0.5-8.0.5-0~ubuntu22.04.1) date 2024-09-10 12:41:45*
%MOMM*%
%LPD*%
G01*
G04 APERTURE LIST*
G04 #@! TA.AperFunction,ComponentPad*
%ADD10R,1.700000X1.700000*%
G04 #@! TD*
G04 #@! TA.AperFunction,ComponentPad*
%ADD11C,1.700000*%
G04 #@! TD*
G04 #@! TA.AperFunction,ComponentPad*
%ADD12C,0.800000*%
G04 #@! TD*
G04 #@! TA.AperFunction,ComponentPad*
%ADD13C,6.400000*%
G04 #@! TD*
G04 #@! TA.AperFunction,ComponentPad*
%ADD14O,1.700000X1.700000*%
G04 #@! TD*
G04 #@! TA.AperFunction,ViaPad*
%ADD15C,0.500000*%
G04 #@! TD*
G04 #@! TA.AperFunction,Conductor*
%ADD16C,1.700000*%
G04 #@! TD*
G04 #@! TA.AperFunction,Conductor*
%ADD17C,0.800000*%
G04 #@! TD*
G04 APERTURE END LIST*
D10*
X158770000Y-95350000D03*
D11*
X156230000Y-95350000D03*
X153690000Y-95350000D03*
X151150000Y-95350000D03*
X148610000Y-95350000D03*
X146070000Y-95350000D03*
X143530000Y-95350000D03*
X140990000Y-95350000D03*
X138450000Y-95350000D03*
X135910000Y-95350000D03*
X133370000Y-95350000D03*
X130830000Y-95350000D03*
X128290000Y-95350000D03*
X125750000Y-95350000D03*
X123210000Y-95350000D03*
X120670000Y-95350000D03*
X118130000Y-95350000D03*
X115590000Y-95350000D03*
X113050000Y-95350000D03*
X110510000Y-95350000D03*
X107970000Y-95350000D03*
X105430000Y-95350000D03*
X105430000Y-120850000D03*
X107970000Y-120850000D03*
X110510000Y-120850000D03*
X113050000Y-120850000D03*
X115590000Y-120850000D03*
X118130000Y-120850000D03*
X120670000Y-120850000D03*
X123210000Y-120850000D03*
X125750000Y-120850000D03*
X128290000Y-120850000D03*
X130830000Y-120850000D03*
X133370000Y-120850000D03*
X135910000Y-120850000D03*
X138450000Y-120850000D03*
X140990000Y-120850000D03*
X143530000Y-120850000D03*
X146070000Y-120850000D03*
X148610000Y-120850000D03*
X151150000Y-120850000D03*
X153690000Y-120850000D03*
X156230000Y-120850000D03*
X158770000Y-120850000D03*
D10*
X105600000Y-48590000D03*
D12*
X104200000Y-40600000D03*
X104200000Y-89600000D03*
X104902944Y-38902944D03*
X104902944Y-42297056D03*
X104902944Y-87902944D03*
X104902944Y-91297056D03*
D11*
X105600000Y-51130000D03*
D12*
X106600000Y-38200000D03*
D13*
X106600000Y-40600000D03*
D12*
X106600000Y-43000000D03*
X106600000Y-87200000D03*
D13*
X106600000Y-89600000D03*
D12*
X106600000Y-92000000D03*
X108297056Y-38902944D03*
X108297056Y-42297056D03*
X108297056Y-87902944D03*
X108297056Y-91297056D03*
X109000000Y-40600000D03*
X109000000Y-89600000D03*
X187500000Y-40600000D03*
X187500000Y-89600000D03*
X188202944Y-38902944D03*
X188202944Y-42297056D03*
X188202944Y-87902944D03*
X188202944Y-91297056D03*
X189900000Y-38200000D03*
D13*
X189900000Y-40600000D03*
D12*
X189900000Y-43000000D03*
X189900000Y-87200000D03*
D13*
X189900000Y-89600000D03*
D12*
X189900000Y-92000000D03*
X191597056Y-38902944D03*
X191597056Y-42297056D03*
X191597056Y-87902944D03*
X191597056Y-91297056D03*
X192300000Y-40600000D03*
X192300000Y-89600000D03*
D11*
X105600000Y-53670000D03*
X105600000Y-56210000D03*
X105600000Y-58750000D03*
X105600000Y-61290000D03*
X105600000Y-63830000D03*
X105600000Y-66370000D03*
X105600000Y-68910000D03*
X105600000Y-71450000D03*
X105600000Y-73990000D03*
X105600000Y-76530000D03*
X105600000Y-79070000D03*
X105600000Y-81610000D03*
D10*
X189900000Y-61290000D03*
D11*
X189900000Y-63830000D03*
X189900000Y-66370000D03*
X189900000Y-68910000D03*
D12*
X187500000Y-129400000D03*
X188202944Y-127702944D03*
X188202944Y-131097056D03*
X189900000Y-127000000D03*
D13*
X189900000Y-129400000D03*
D12*
X189900000Y-131800000D03*
X191597056Y-127702944D03*
X191597056Y-131097056D03*
X192300000Y-129400000D03*
X104200000Y-129400000D03*
X104902944Y-127702944D03*
X104902944Y-131097056D03*
X106600000Y-127000000D03*
D13*
X106600000Y-129400000D03*
D12*
X106600000Y-131800000D03*
X108297056Y-127702944D03*
X108297056Y-131097056D03*
X109000000Y-129400000D03*
D10*
X133000000Y-128000000D03*
D14*
X130460000Y-128000000D03*
D11*
X152050000Y-131500000D03*
X144430000Y-131500000D03*
X146970000Y-131500000D03*
X149510000Y-131500000D03*
D10*
X182500000Y-131500000D03*
D14*
X179960000Y-131500000D03*
X177420000Y-131500000D03*
D10*
X172000000Y-131500000D03*
D14*
X169460000Y-131500000D03*
X166920000Y-131500000D03*
D15*
X117000000Y-93500000D03*
X108500000Y-75500000D03*
X181000000Y-116000000D03*
X184000000Y-121450000D03*
X122000000Y-93500000D03*
X185000000Y-98000000D03*
X138500000Y-99000000D03*
X108500000Y-70500000D03*
X166500000Y-108500000D03*
X108500000Y-55000000D03*
X127000000Y-93500000D03*
X185000000Y-112500000D03*
X172000000Y-108500000D03*
X108500000Y-57500000D03*
X108500000Y-62500000D03*
X143500000Y-93500000D03*
X157500000Y-106500000D03*
X108500000Y-83000000D03*
X119500000Y-93500000D03*
X108500000Y-52500000D03*
X108500000Y-80500000D03*
X112000000Y-93500000D03*
X108500000Y-67500000D03*
X138500000Y-83500000D03*
X157500000Y-62500000D03*
X108500000Y-73000000D03*
X182000000Y-104600000D03*
X157500000Y-108500000D03*
X185000000Y-100500000D03*
X146500000Y-119000000D03*
X114500000Y-93500000D03*
X117000000Y-97500000D03*
X138500000Y-93500000D03*
X141000000Y-83500000D03*
X108500000Y-65000000D03*
X168000000Y-102000000D03*
X175000000Y-121500000D03*
X188000000Y-62500000D03*
X144000000Y-119000000D03*
X108500000Y-77500000D03*
X170000000Y-102000000D03*
X112000000Y-97500000D03*
X132000000Y-93500000D03*
X179000000Y-107500000D03*
X108500000Y-60000000D03*
X188000000Y-67500000D03*
X173000000Y-116000000D03*
X134500000Y-93500000D03*
X174000000Y-104600000D03*
X185000000Y-104500000D03*
X129500000Y-93500000D03*
X141000000Y-93500000D03*
X172000000Y-102000000D03*
X137000000Y-97500000D03*
X178500000Y-102000000D03*
X115500000Y-99000000D03*
X166500000Y-106500000D03*
X187000000Y-115500000D03*
X187000000Y-106000000D03*
X187000000Y-112500000D03*
X187000000Y-104500000D03*
X180500000Y-102000000D03*
X183000000Y-102000000D03*
X187000000Y-114000000D03*
X187000000Y-111000000D03*
X170000000Y-118000000D03*
X175900000Y-118000000D03*
X183900000Y-118000000D03*
X179000000Y-118000000D03*
D16*
X152050000Y-131500000D02*
X160000000Y-131500000D01*
X164500000Y-108000000D02*
X160000000Y-103500000D01*
X168500000Y-127000000D02*
X181000000Y-127000000D01*
X169500000Y-127000000D02*
X172000000Y-129500000D01*
X182500000Y-128500000D02*
X182500000Y-131000000D01*
X107970000Y-99470000D02*
X107970000Y-95350000D01*
X160000000Y-103500000D02*
X112000000Y-103500000D01*
X164500000Y-108000000D02*
X164500000Y-53500000D01*
X159590000Y-48590000D02*
X105600000Y-48590000D01*
X160000000Y-131500000D02*
X164500000Y-127000000D01*
X112000000Y-103500000D02*
X107970000Y-99470000D01*
X172000000Y-129500000D02*
X172000000Y-131500000D01*
X164500000Y-127000000D02*
X164500000Y-108000000D01*
X164500000Y-127000000D02*
X168500000Y-127000000D01*
X181000000Y-127000000D02*
X182500000Y-128500000D01*
X164500000Y-53500000D02*
X159590000Y-48590000D01*
X168500000Y-127000000D02*
X169500000Y-127000000D01*
D17*
X184000000Y-118000000D02*
X185500000Y-118000000D01*
X179000000Y-118000000D02*
X184000000Y-118000000D01*
X187000000Y-103500000D02*
X187000000Y-104500000D01*
X187000000Y-114000000D02*
X187000000Y-112500000D01*
X180500000Y-102000000D02*
X183000000Y-102000000D01*
X187000000Y-116500000D02*
X187000000Y-115500000D01*
X176000000Y-118000000D02*
X179000000Y-118000000D01*
X170000000Y-118000000D02*
X176000000Y-118000000D01*
X183000000Y-102000000D02*
X185500000Y-102000000D01*
X187000000Y-115500000D02*
X187000000Y-114000000D01*
X187000000Y-111000000D02*
X187000000Y-112500000D01*
X185500000Y-118000000D02*
X187000000Y-116500000D01*
X185500000Y-102000000D02*
X187000000Y-103500000D01*
X187000000Y-104500000D02*
X187000000Y-106000000D01*
G04 #@! TA.AperFunction,Conductor*
G36*
X192503736Y-35500726D02*
G01*
X192793796Y-35518271D01*
X192808659Y-35520076D01*
X193090798Y-35571780D01*
X193105335Y-35575363D01*
X193379172Y-35660695D01*
X193393163Y-35666000D01*
X193654743Y-35783727D01*
X193667989Y-35790680D01*
X193913465Y-35939075D01*
X193925776Y-35947573D01*
X194151573Y-36124473D01*
X194162781Y-36134403D01*
X194365596Y-36337218D01*
X194375526Y-36348426D01*
X194495481Y-36501538D01*
X194552422Y-36574217D01*
X194560928Y-36586540D01*
X194709316Y-36832004D01*
X194716275Y-36845263D01*
X194833997Y-37106831D01*
X194839306Y-37120832D01*
X194924635Y-37394663D01*
X194928219Y-37409201D01*
X194979923Y-37691340D01*
X194981728Y-37706205D01*
X194999274Y-37996263D01*
X194999500Y-38003750D01*
X194999500Y-131996249D01*
X194999274Y-132003736D01*
X194981728Y-132293794D01*
X194979923Y-132308659D01*
X194928219Y-132590798D01*
X194924635Y-132605336D01*
X194839306Y-132879167D01*
X194833997Y-132893168D01*
X194716275Y-133154736D01*
X194709316Y-133167995D01*
X194560928Y-133413459D01*
X194552422Y-133425782D01*
X194375526Y-133651573D01*
X194365596Y-133662781D01*
X194162781Y-133865596D01*
X194151573Y-133875526D01*
X193925782Y-134052422D01*
X193913459Y-134060928D01*
X193667995Y-134209316D01*
X193654736Y-134216275D01*
X193393168Y-134333997D01*
X193379167Y-134339306D01*
X193105336Y-134424635D01*
X193090798Y-134428219D01*
X192808659Y-134479923D01*
X192793794Y-134481728D01*
X192503736Y-134499274D01*
X192496249Y-134499500D01*
X104003751Y-134499500D01*
X103996264Y-134499274D01*
X103706205Y-134481728D01*
X103691340Y-134479923D01*
X103409201Y-134428219D01*
X103394663Y-134424635D01*
X103120832Y-134339306D01*
X103106831Y-134333997D01*
X102845263Y-134216275D01*
X102832004Y-134209316D01*
X102586540Y-134060928D01*
X102574217Y-134052422D01*
X102348426Y-133875526D01*
X102337218Y-133865596D01*
X102134403Y-133662781D01*
X102124473Y-133651573D01*
X101947573Y-133425776D01*
X101939075Y-133413465D01*
X101790680Y-133167989D01*
X101783727Y-133154743D01*
X101666000Y-132893163D01*
X101660693Y-132879167D01*
X101577078Y-132610838D01*
X101575363Y-132605335D01*
X101571780Y-132590798D01*
X101520075Y-132308657D01*
X101518271Y-132293794D01*
X101514741Y-132235442D01*
X101500726Y-132003736D01*
X101500500Y-131996249D01*
X101500500Y-129399999D01*
X103095197Y-129399999D01*
X103095197Y-129400000D01*
X103114397Y-129766353D01*
X103171784Y-130128684D01*
X103171784Y-130128686D01*
X103266736Y-130483051D01*
X103398204Y-130825535D01*
X103564754Y-131152406D01*
X103764549Y-131460064D01*
X103921658Y-131654076D01*
X105275992Y-130299742D01*
X105379588Y-130442330D01*
X105557670Y-130620412D01*
X105700256Y-130724007D01*
X104345922Y-132078341D01*
X104539924Y-132235442D01*
X104539937Y-132235451D01*
X104847593Y-132435245D01*
X105174464Y-132601795D01*
X105516948Y-132733263D01*
X105871314Y-132828215D01*
X106233646Y-132885602D01*
X106599999Y-132904803D01*
X106600001Y-132904803D01*
X106966353Y-132885602D01*
X107328684Y-132828215D01*
X107328686Y-132828215D01*
X107683051Y-132733263D01*
X108025535Y-132601795D01*
X108352406Y-132435245D01*
X108660065Y-132235450D01*
X108854077Y-132078341D01*
X107499743Y-130724007D01*
X107642330Y-130620412D01*
X107820412Y-130442330D01*
X107924007Y-130299743D01*
X109278341Y-131654077D01*
X109403111Y-131500000D01*
X143274571Y-131500000D01*
X143294244Y-131712310D01*
X143352594Y-131917387D01*
X143352596Y-131917392D01*
X143352596Y-131917394D01*
X143447632Y-132108253D01*
X143560011Y-132257065D01*
X143576128Y-132278407D01*
X143733698Y-132422052D01*
X143914981Y-132534298D01*
X144113802Y-132611321D01*
X144323390Y-132650500D01*
X144323392Y-132650500D01*
X144536608Y-132650500D01*
X144536610Y-132650500D01*
X144746198Y-132611321D01*
X144945019Y-132534298D01*
X145126302Y-132422052D01*
X145283872Y-132278407D01*
X145412366Y-132108255D01*
X145457246Y-132018123D01*
X145507403Y-131917394D01*
X145507403Y-131917393D01*
X145507405Y-131917389D01*
X145565756Y-131712310D01*
X145576529Y-131596047D01*
X145602315Y-131531111D01*
X145644622Y-131500804D01*
X145753130Y-131500804D01*
X145789503Y-131521668D01*
X145821693Y-131583681D01*
X145823470Y-131596047D01*
X145834244Y-131712310D01*
X145892594Y-131917387D01*
X145892596Y-131917392D01*
X145892596Y-131917394D01*
X145987632Y-132108253D01*
X146100011Y-132257065D01*
X146116128Y-132278407D01*
X146273698Y-132422052D01*
X146454981Y-132534298D01*
X146653802Y-132611321D01*
X146863390Y-132650500D01*
X146863392Y-132650500D01*
X147076608Y-132650500D01*
X147076610Y-132650500D01*
X147286198Y-132611321D01*
X147485019Y-132534298D01*
X147666302Y-132422052D01*
X147823872Y-132278407D01*
X147952366Y-132108255D01*
X147997246Y-132018123D01*
X148047403Y-131917394D01*
X148047403Y-131917393D01*
X148047405Y-131917389D01*
X148105756Y-131712310D01*
X148125429Y-131500000D01*
X148105756Y-131287690D01*
X148080805Y-131199999D01*
X148399713Y-131199999D01*
X148399714Y-131200000D01*
X149105856Y-131200000D01*
X149044075Y-131307007D01*
X149010000Y-131434174D01*
X149010000Y-131565826D01*
X149044075Y-131692993D01*
X149105856Y-131800000D01*
X148399714Y-131800000D01*
X148433062Y-131917205D01*
X148433067Y-131917218D01*
X148528061Y-132107991D01*
X148656500Y-132278071D01*
X148814000Y-132421651D01*
X148814002Y-132421653D01*
X148995201Y-132533846D01*
X148995207Y-132533849D01*
X149193941Y-132610838D01*
X149210000Y-132613840D01*
X149210000Y-131904144D01*
X149317007Y-131965925D01*
X149444174Y-132000000D01*
X149575826Y-132000000D01*
X149702993Y-131965925D01*
X149810000Y-131904144D01*
X149810000Y-132613839D01*
X149826058Y-132610838D01*
X150024792Y-132533849D01*
X150024798Y-132533846D01*
X150205997Y-132421653D01*
X150205999Y-132421651D01*
X150363499Y-132278071D01*
X150491938Y-132107991D01*
X150586932Y-131917218D01*
X150586937Y-131917205D01*
X150620286Y-131800000D01*
X149914144Y-131800000D01*
X149975925Y-131692993D01*
X150010000Y-131565826D01*
X150010000Y-131434174D01*
X149975925Y-131307007D01*
X149914144Y-131200000D01*
X150620286Y-131200000D01*
X150620286Y-131199999D01*
X150586937Y-131082794D01*
X150586931Y-131082778D01*
X150491938Y-130892008D01*
X150363499Y-130721928D01*
X150205999Y-130578348D01*
X150205997Y-130578346D01*
X150024798Y-130466153D01*
X150024792Y-130466151D01*
X149826060Y-130389162D01*
X149810000Y-130386159D01*
X149810000Y-131095855D01*
X149702993Y-131034075D01*
X149575826Y-131000000D01*
X149444174Y-131000000D01*
X149317007Y-131034075D01*
X149210000Y-131095855D01*
X149210000Y-130386159D01*
X149193939Y-130389162D01*
X148995207Y-130466151D01*
X148995201Y-130466153D01*
X148814002Y-130578346D01*
X148814000Y-130578348D01*
X148656500Y-130721928D01*
X148528061Y-130892008D01*
X148433069Y-131082778D01*
X148433062Y-131082794D01*
X148399713Y-131199999D01*
X148080805Y-131199999D01*
X148047405Y-131082611D01*
X148047403Y-131082606D01*
X148047403Y-131082605D01*
X147952367Y-130891746D01*
X147823872Y-130721593D01*
X147666302Y-130577948D01*
X147485019Y-130465702D01*
X147485017Y-130465701D01*
X147355852Y-130415663D01*
X147286198Y-130388679D01*
X147076610Y-130349500D01*
X146863390Y-130349500D01*
X146653802Y-130388679D01*
X146653799Y-130388679D01*
X146653799Y-130388680D01*
X146454982Y-130465701D01*
X146454980Y-130465702D01*
X146273699Y-130577947D01*
X146116127Y-130721593D01*
X145987632Y-130891746D01*
X145892596Y-131082605D01*
X145892596Y-131082607D01*
X145834244Y-131287689D01*
X145823471Y-131403951D01*
X145797685Y-131468888D01*
X145753130Y-131500804D01*
X145644622Y-131500804D01*
X145646869Y-131499194D01*
X145610497Y-131478331D01*
X145578307Y-131416318D01*
X145576529Y-131403951D01*
X145570969Y-131343950D01*
X145565756Y-131287690D01*
X145507405Y-131082611D01*
X145507403Y-131082606D01*
X145507403Y-131082605D01*
X145412367Y-130891746D01*
X145283872Y-130721593D01*
X145126302Y-130577948D01*
X144945019Y-130465702D01*
X144945017Y-130465701D01*
X144815852Y-130415663D01*
X144746198Y-130388679D01*
X144536610Y-130349500D01*
X144323390Y-130349500D01*
X144113802Y-130388679D01*
X144113799Y-130388679D01*
X144113799Y-130388680D01*
X143914982Y-130465701D01*
X143914980Y-130465702D01*
X143733699Y-130577947D01*
X143576127Y-130721593D01*
X143447632Y-130891746D01*
X143352596Y-131082605D01*
X143352596Y-131082607D01*
X143294244Y-131287689D01*
X143278272Y-131460064D01*
X143274571Y-131500000D01*
X109403111Y-131500000D01*
X109435450Y-131460065D01*
X109635245Y-131152406D01*
X109801795Y-130825535D01*
X109933263Y-130483051D01*
X110028215Y-130128686D01*
X110028215Y-130128684D01*
X110085602Y-129766353D01*
X110104803Y-129400000D01*
X110104803Y-129399999D01*
X110085602Y-129033646D01*
X110028215Y-128671315D01*
X110028215Y-128671313D01*
X109933263Y-128316948D01*
X109811597Y-128000000D01*
X129304571Y-128000000D01*
X129311078Y-128070225D01*
X129324244Y-128212310D01*
X129382596Y-128417392D01*
X129382596Y-128417394D01*
X129477632Y-128608253D01*
X129585055Y-128750502D01*
X129606128Y-128778407D01*
X129763698Y-128922052D01*
X129944981Y-129034298D01*
X130143802Y-129111321D01*
X130353390Y-129150500D01*
X130353392Y-129150500D01*
X130566608Y-129150500D01*
X130566610Y-129150500D01*
X130776198Y-129111321D01*
X130975019Y-129034298D01*
X131156302Y-128922052D01*
X131313872Y-128778407D01*
X131442366Y-128608255D01*
X131448627Y-128595681D01*
X131537403Y-128417394D01*
X131537403Y-128417393D01*
X131537405Y-128417389D01*
X131595756Y-128212310D01*
X131602029Y-128144605D01*
X131627814Y-128079669D01*
X131684614Y-128038981D01*
X131754395Y-128035461D01*
X131815002Y-128070225D01*
X131847193Y-128132238D01*
X131849500Y-128156047D01*
X131849500Y-128894856D01*
X131849502Y-128894882D01*
X131852413Y-128919987D01*
X131852415Y-128919991D01*
X131897793Y-129022764D01*
X131897794Y-129022765D01*
X131977235Y-129102206D01*
X132080009Y-129147585D01*
X132105135Y-129150500D01*
X133894864Y-129150499D01*
X133894879Y-129150497D01*
X133894882Y-129150497D01*
X133919987Y-129147586D01*
X133919988Y-129147585D01*
X133919991Y-129147585D01*
X134022765Y-129102206D01*
X134102206Y-129022765D01*
X134147585Y-128919991D01*
X134150500Y-128894865D01*
X134150499Y-127105136D01*
X134150497Y-127105117D01*
X134147586Y-127080012D01*
X134147585Y-127080010D01*
X134147585Y-127080009D01*
X134102206Y-126977235D01*
X134022765Y-126897794D01*
X134002124Y-126888680D01*
X133919992Y-126852415D01*
X133894865Y-126849500D01*
X132105143Y-126849500D01*
X132105117Y-126849502D01*
X132080012Y-126852413D01*
X132080008Y-126852415D01*
X131977235Y-126897793D01*
X131897794Y-126977234D01*
X131852415Y-127080006D01*
X131852415Y-127080008D01*
X131849500Y-127105131D01*
X131849500Y-127843951D01*
X131829815Y-127910990D01*
X131777011Y-127956745D01*
X131707853Y-127966689D01*
X131644297Y-127937664D01*
X131606523Y-127878886D01*
X131602029Y-127855391D01*
X131595756Y-127787689D01*
X131581273Y-127736789D01*
X131537405Y-127582611D01*
X131537403Y-127582606D01*
X131537403Y-127582605D01*
X131442367Y-127391746D01*
X131313872Y-127221593D01*
X131186133Y-127105143D01*
X131156302Y-127077948D01*
X130975019Y-126965702D01*
X130975017Y-126965701D01*
X130875608Y-126927190D01*
X130776198Y-126888679D01*
X130566610Y-126849500D01*
X130353390Y-126849500D01*
X130143802Y-126888679D01*
X130143799Y-126888679D01*
X130143799Y-126888680D01*
X129944982Y-126965701D01*
X129944980Y-126965702D01*
X129763699Y-127077947D01*
X129606127Y-127221593D01*
X129477632Y-127391746D01*
X129382596Y-127582605D01*
X129382596Y-127582607D01*
X129324244Y-127787689D01*
X129307658Y-127966689D01*
X129304571Y-128000000D01*
X109811597Y-128000000D01*
X109801795Y-127974464D01*
X109635245Y-127647594D01*
X109435450Y-127339935D01*
X109278340Y-127145922D01*
X107924006Y-128500255D01*
X107820412Y-128357670D01*
X107642330Y-128179588D01*
X107499743Y-128075992D01*
X108854077Y-126721658D01*
X108660064Y-126564549D01*
X108352406Y-126364754D01*
X108025535Y-126198204D01*
X107683051Y-126066736D01*
X107328685Y-125971784D01*
X106966353Y-125914397D01*
X106600001Y-125895197D01*
X106599999Y-125895197D01*
X106233646Y-125914397D01*
X105871315Y-125971784D01*
X105871313Y-125971784D01*
X105516948Y-126066736D01*
X105174464Y-126198204D01*
X104847594Y-126364754D01*
X104539929Y-126564553D01*
X104345922Y-126721658D01*
X105700256Y-128075992D01*
X105557670Y-128179588D01*
X105379588Y-128357670D01*
X105275992Y-128500256D01*
X103921658Y-127145922D01*
X103764553Y-127339929D01*
X103564754Y-127647594D01*
X103398204Y-127974464D01*
X103266736Y-128316948D01*
X103171784Y-128671313D01*
X103171784Y-128671315D01*
X103114397Y-129033646D01*
X103095197Y-129399999D01*
X101500500Y-129399999D01*
X101500500Y-120849999D01*
X104275073Y-120849999D01*
X104275073Y-120850000D01*
X104294737Y-121062216D01*
X104294738Y-121062219D01*
X104353060Y-121267203D01*
X104353063Y-121267209D01*
X104431335Y-121424400D01*
X104932094Y-120923641D01*
X104964075Y-121042993D01*
X105029901Y-121157007D01*
X105122993Y-121250099D01*
X105237007Y-121315925D01*
X105356357Y-121347905D01*
X104856662Y-121847599D01*
X104915204Y-121883847D01*
X104915208Y-121883849D01*
X105113936Y-121960836D01*
X105113941Y-121960837D01*
X105323439Y-122000000D01*
X105536561Y-122000000D01*
X105746058Y-121960837D01*
X105746059Y-121960837D01*
X105944794Y-121883847D01*
X105944798Y-121883845D01*
X106003335Y-121847599D01*
X105503642Y-121347905D01*
X105622993Y-121315925D01*
X105737007Y-121250099D01*
X105830099Y-121157007D01*
X105895925Y-121042993D01*
X105927905Y-120923641D01*
X106428663Y-121424399D01*
X106428664Y-121424399D01*
X106506935Y-121267209D01*
X106506938Y-121267203D01*
X106565261Y-121062218D01*
X106565262Y-121062216D01*
X106576529Y-120940628D01*
X106602315Y-120875690D01*
X106637894Y-120850204D01*
X106761533Y-120850204D01*
X106789503Y-120866248D01*
X106821693Y-120928261D01*
X106823471Y-120940628D01*
X106834737Y-121062216D01*
X106834738Y-121062219D01*
X106893060Y-121267203D01*
X106893063Y-121267209D01*
X106971335Y-121424400D01*
X107472094Y-120923641D01*
X107504075Y-121042993D01*
X107569901Y-121157007D01*
X107662993Y-121250099D01*
X107777007Y-121315925D01*
X107896357Y-121347905D01*
X107396662Y-121847599D01*
X107455204Y-121883847D01*
X107455208Y-121883849D01*
X107653936Y-121960836D01*
X107653941Y-121960837D01*
X107863439Y-122000000D01*
X108076561Y-122000000D01*
X108286058Y-121960837D01*
X108286059Y-121960837D01*
X108484794Y-121883847D01*
X108484798Y-121883845D01*
X108543335Y-121847599D01*
X108043642Y-121347905D01*
X108162993Y-121315925D01*
X108277007Y-121250099D01*
X108370099Y-121157007D01*
X108435925Y-121042993D01*
X108467905Y-120923641D01*
X108968663Y-121424399D01*
X108968664Y-121424399D01*
X109046935Y-121267209D01*
X109046938Y-121267203D01*
X109105261Y-121062218D01*
X109105262Y-121062216D01*
X109116277Y-120943338D01*
X109142063Y-120878401D01*
X109181005Y-120850504D01*
X109297079Y-120850504D01*
X109329251Y-120868958D01*
X109361441Y-120930970D01*
X109363219Y-120943337D01*
X109372454Y-121042993D01*
X109374244Y-121062310D01*
X109427675Y-121250099D01*
X109432596Y-121267392D01*
X109432596Y-121267394D01*
X109527632Y-121458253D01*
X109527634Y-121458255D01*
X109656128Y-121628407D01*
X109813698Y-121772052D01*
X109994981Y-121884298D01*
X110193802Y-121961321D01*
X110403390Y-122000500D01*
X110403392Y-122000500D01*
X110616608Y-122000500D01*
X110616610Y-122000500D01*
X110826198Y-121961321D01*
X111025019Y-121884298D01*
X111206302Y-121772052D01*
X111363872Y-121628407D01*
X111492366Y-121458255D01*
X111546270Y-121350000D01*
X111587403Y-121267394D01*
X111587403Y-121267393D01*
X111587405Y-121267389D01*
X111645756Y-121062310D01*
X111656529Y-120946047D01*
X111682315Y-120881111D01*
X111724622Y-120850804D01*
X111833130Y-120850804D01*
X111869503Y-120871668D01*
X111901693Y-120933681D01*
X111903470Y-120946047D01*
X111914244Y-121062310D01*
X111967675Y-121250099D01*
X111972596Y-121267392D01*
X111972596Y-121267394D01*
X112067632Y-121458253D01*
X112067634Y-121458255D01*
X112196128Y-121628407D01*
X112353698Y-121772052D01*
X112534981Y-121884298D01*
X112733802Y-121961321D01*
X112943390Y-122000500D01*
X112943392Y-122000500D01*
X113156608Y-122000500D01*
X113156610Y-122000500D01*
X113366198Y-121961321D01*
X113565019Y-121884298D01*
X113746302Y-121772052D01*
X113903872Y-121628407D01*
X114032366Y-121458255D01*
X114086270Y-121350000D01*
X114127403Y-121267394D01*
X114127403Y-121267393D01*
X114127405Y-121267389D01*
X114185756Y-121062310D01*
X114196529Y-120946047D01*
X114222315Y-120881111D01*
X114264622Y-120850804D01*
X114373130Y-120850804D01*
X114409503Y-120871668D01*
X114441693Y-120933681D01*
X114443470Y-120946047D01*
X114454244Y-121062310D01*
X114507675Y-121250099D01*
X114512596Y-121267392D01*
X114512596Y-121267394D01*
X114607632Y-121458253D01*
X114607634Y-121458255D01*
X114736128Y-121628407D01*
X114893698Y-121772052D01*
X115074981Y-121884298D01*
X115273802Y-121961321D01*
X115483390Y-122000500D01*
X115483392Y-122000500D01*
X115696608Y-122000500D01*
X115696610Y-122000500D01*
X115906198Y-121961321D01*
X116105019Y-121884298D01*
X116286302Y-121772052D01*
X116443872Y-121628407D01*
X116572366Y-121458255D01*
X116626270Y-121350000D01*
X116667403Y-121267394D01*
X116667403Y-121267393D01*
X116667405Y-121267389D01*
X116725756Y-121062310D01*
X116736529Y-120946047D01*
X116762315Y-120881111D01*
X116804622Y-120850804D01*
X116913130Y-120850804D01*
X116949503Y-120871668D01*
X116981693Y-120933681D01*
X116983470Y-120946047D01*
X116994244Y-121062310D01*
X117047675Y-121250099D01*
X117052596Y-121267392D01*
X117052596Y-121267394D01*
X117147632Y-121458253D01*
X117147634Y-121458255D01*
X117276128Y-121628407D01*
X117433698Y-121772052D01*
X117614981Y-121884298D01*
X117813802Y-121961321D01*
X118023390Y-122000500D01*
X118023392Y-122000500D01*
X118236608Y-122000500D01*
X118236610Y-122000500D01*
X118446198Y-121961321D01*
X118645019Y-121884298D01*
X118826302Y-121772052D01*
X118983872Y-121628407D01*
X119112366Y-121458255D01*
X119166270Y-121350000D01*
X119207403Y-121267394D01*
X119207403Y-121267393D01*
X119207405Y-121267389D01*
X119265756Y-121062310D01*
X119276529Y-120946047D01*
X119302315Y-120881111D01*
X119344622Y-120850804D01*
X119453130Y-120850804D01*
X119489503Y-120871668D01*
X119521693Y-120933681D01*
X119523470Y-120946047D01*
X119534244Y-121062310D01*
X119587675Y-121250099D01*
X119592596Y-121267392D01*
X119592596Y-121267394D01*
X119687632Y-121458253D01*
X119687634Y-121458255D01*
X119816128Y-121628407D01*
X119973698Y-121772052D01*
X120154981Y-121884298D01*
X120353802Y-121961321D01*
X120563390Y-122000500D01*
X120563392Y-122000500D01*
X120776608Y-122000500D01*
X120776610Y-122000500D01*
X120986198Y-121961321D01*
X121185019Y-121884298D01*
X121366302Y-121772052D01*
X121523872Y-121628407D01*
X121652366Y-121458255D01*
X121706270Y-121350000D01*
X121747403Y-121267394D01*
X121747403Y-121267393D01*
X121747405Y-121267389D01*
X121805756Y-121062310D01*
X121816529Y-120946047D01*
X121842315Y-120881111D01*
X121884622Y-120850804D01*
X121993130Y-120850804D01*
X122029503Y-120871668D01*
X122061693Y-120933681D01*
X122063470Y-120946047D01*
X122074244Y-121062310D01*
X122127675Y-121250099D01*
X122132596Y-121267392D01*
X122132596Y-121267394D01*
X122227632Y-121458253D01*
X122227634Y-121458255D01*
X122356128Y-121628407D01*
X122513698Y-121772052D01*
X122694981Y-121884298D01*
X122893802Y-121961321D01*
X123103390Y-122000500D01*
X123103392Y-122000500D01*
X123316608Y-122000500D01*
X123316610Y-122000500D01*
X123526198Y-121961321D01*
X123725019Y-121884298D01*
X123906302Y-121772052D01*
X124063872Y-121628407D01*
X124192366Y-121458255D01*
X124246270Y-121350000D01*
X124287403Y-121267394D01*
X124287403Y-121267393D01*
X124287405Y-121267389D01*
X124345756Y-121062310D01*
X124356529Y-120946047D01*
X124382315Y-120881111D01*
X124424622Y-120850804D01*
X124533130Y-120850804D01*
X124569503Y-120871668D01*
X124601693Y-120933681D01*
X124603470Y-120946047D01*
X124614244Y-121062310D01*
X124667675Y-121250099D01*
X124672596Y-121267392D01*
X124672596Y-121267394D01*
X124767632Y-121458253D01*
X124767634Y-121458255D01*
X124896128Y-121628407D01*
X125053698Y-121772052D01*
X125234981Y-121884298D01*
X125433802Y-121961321D01*
X125643390Y-122000500D01*
X125643392Y-122000500D01*
X125856608Y-122000500D01*
X125856610Y-122000500D01*
X126066198Y-121961321D01*
X126265019Y-121884298D01*
X126446302Y-121772052D01*
X126603872Y-121628407D01*
X126732366Y-121458255D01*
X126786270Y-121350000D01*
X126827403Y-121267394D01*
X126827403Y-121267393D01*
X126827405Y-121267389D01*
X126885756Y-121062310D01*
X126896529Y-120946047D01*
X126922315Y-120881111D01*
X126964622Y-120850804D01*
X127073130Y-120850804D01*
X127109503Y-120871668D01*
X127141693Y-120933681D01*
X127143470Y-120946047D01*
X127154244Y-121062310D01*
X127207675Y-121250099D01*
X127212596Y-121267392D01*
X127212596Y-121267394D01*
X127307632Y-121458253D01*
X127307634Y-121458255D01*
X127436128Y-121628407D01*
X127593698Y-121772052D01*
X127774981Y-121884298D01*
X127973802Y-121961321D01*
X128183390Y-122000500D01*
X128183392Y-122000500D01*
X128396608Y-122000500D01*
X128396610Y-122000500D01*
X128606198Y-121961321D01*
X128805019Y-121884298D01*
X128986302Y-121772052D01*
X129143872Y-121628407D01*
X129272366Y-121458255D01*
X129326270Y-121350000D01*
X129367403Y-121267394D01*
X129367403Y-121267393D01*
X129367405Y-121267389D01*
X129425756Y-121062310D01*
X129436529Y-120946047D01*
X129462315Y-120881111D01*
X129504622Y-120850804D01*
X129613130Y-120850804D01*
X129649503Y-120871668D01*
X129681693Y-120933681D01*
X129683470Y-120946047D01*
X129694244Y-121062310D01*
X129747675Y-121250099D01*
X129752596Y-121267392D01*
X129752596Y-121267394D01*
X129847632Y-121458253D01*
X129847634Y-121458255D01*
X129976128Y-121628407D01*
X130133698Y-121772052D01*
X130314981Y-121884298D01*
X130513802Y-121961321D01*
X130723390Y-122000500D01*
X130723392Y-122000500D01*
X130936608Y-122000500D01*
X130936610Y-122000500D01*
X131146198Y-121961321D01*
X131345019Y-121884298D01*
X131526302Y-121772052D01*
X131683872Y-121628407D01*
X131812366Y-121458255D01*
X131866270Y-121350000D01*
X131907403Y-121267394D01*
X131907403Y-121267393D01*
X131907405Y-121267389D01*
X131965756Y-121062310D01*
X131976529Y-120946047D01*
X132002315Y-120881111D01*
X132044622Y-120850804D01*
X132153130Y-120850804D01*
X132189503Y-120871668D01*
X132221693Y-120933681D01*
X132223470Y-120946047D01*
X132234244Y-121062310D01*
X132287675Y-121250099D01*
X132292596Y-121267392D01*
X132292596Y-121267394D01*
X132387632Y-121458253D01*
X132387634Y-121458255D01*
X132516128Y-121628407D01*
X132673698Y-121772052D01*
X132854981Y-121884298D01*
X133053802Y-121961321D01*
X133263390Y-122000500D01*
X133263392Y-122000500D01*
X133476608Y-122000500D01*
X133476610Y-122000500D01*
X133686198Y-121961321D01*
X133885019Y-121884298D01*
X134066302Y-121772052D01*
X134223872Y-121628407D01*
X134352366Y-121458255D01*
X134406270Y-121350000D01*
X134447403Y-121267394D01*
X134447403Y-121267393D01*
X134447405Y-121267389D01*
X134505756Y-121062310D01*
X134516529Y-120946047D01*
X134542315Y-120881111D01*
X134584622Y-120850804D01*
X134693130Y-120850804D01*
X134729503Y-120871668D01*
X134761693Y-120933681D01*
X134763470Y-120946047D01*
X134774244Y-121062310D01*
X134827675Y-121250099D01*
X134832596Y-121267392D01*
X134832596Y-121267394D01*
X134927632Y-121458253D01*
X134927634Y-121458255D01*
X135056128Y-121628407D01*
X135213698Y-121772052D01*
X135394981Y-121884298D01*
X135593802Y-121961321D01*
X135803390Y-122000500D01*
X135803392Y-122000500D01*
X136016608Y-122000500D01*
X136016610Y-122000500D01*
X136226198Y-121961321D01*
X136425019Y-121884298D01*
X136606302Y-121772052D01*
X136763872Y-121628407D01*
X136892366Y-121458255D01*
X136946270Y-121350000D01*
X136987403Y-121267394D01*
X136987403Y-121267393D01*
X136987405Y-121267389D01*
X137045756Y-121062310D01*
X137056529Y-120946047D01*
X137082315Y-120881111D01*
X137124622Y-120850804D01*
X137233130Y-120850804D01*
X137269503Y-120871668D01*
X137301693Y-120933681D01*
X137303470Y-120946047D01*
X137314244Y-121062310D01*
X137367675Y-121250099D01*
X137372596Y-121267392D01*
X137372596Y-121267394D01*
X137467632Y-121458253D01*
X137467634Y-121458255D01*
X137596128Y-121628407D01*
X137753698Y-121772052D01*
X137934981Y-121884298D01*
X138133802Y-121961321D01*
X138343390Y-122000500D01*
X138343392Y-122000500D01*
X138556608Y-122000500D01*
X138556610Y-122000500D01*
X138766198Y-121961321D01*
X138965019Y-121884298D01*
X139146302Y-121772052D01*
X139303872Y-121628407D01*
X139432366Y-121458255D01*
X139486270Y-121350000D01*
X139527403Y-121267394D01*
X139527403Y-121267393D01*
X139527405Y-121267389D01*
X139585756Y-121062310D01*
X139596529Y-120946047D01*
X139622315Y-120881111D01*
X139664622Y-120850804D01*
X139773130Y-120850804D01*
X139809503Y-120871668D01*
X139841693Y-120933681D01*
X139843470Y-120946047D01*
X139854244Y-121062310D01*
X139907675Y-121250099D01*
X139912596Y-121267392D01*
X139912596Y-121267394D01*
X140007632Y-121458253D01*
X140007634Y-121458255D01*
X140136128Y-121628407D01*
X140293698Y-121772052D01*
X140474981Y-121884298D01*
X140673802Y-121961321D01*
X140883390Y-122000500D01*
X140883392Y-122000500D01*
X141096608Y-122000500D01*
X141096610Y-122000500D01*
X141306198Y-121961321D01*
X141505019Y-121884298D01*
X141686302Y-121772052D01*
X141843872Y-121628407D01*
X141972366Y-121458255D01*
X142026270Y-121350000D01*
X142067403Y-121267394D01*
X142067403Y-121267393D01*
X142067405Y-121267389D01*
X142125756Y-121062310D01*
X142136529Y-120946047D01*
X142162315Y-120881111D01*
X142204622Y-120850804D01*
X142313130Y-120850804D01*
X142349503Y-120871668D01*
X142381693Y-120933681D01*
X142383470Y-120946047D01*
X142394244Y-121062310D01*
X142447675Y-121250099D01*
X142452596Y-121267392D01*
X142452596Y-121267394D01*
X142547632Y-121458253D01*
X142547634Y-121458255D01*
X142676128Y-121628407D01*
X142833698Y-121772052D01*
X143014981Y-121884298D01*
X143213802Y-121961321D01*
X143423390Y-122000500D01*
X143423392Y-122000500D01*
X143636608Y-122000500D01*
X143636610Y-122000500D01*
X143846198Y-121961321D01*
X144045019Y-121884298D01*
X144226302Y-121772052D01*
X144383872Y-121628407D01*
X144512366Y-121458255D01*
X144566270Y-121350000D01*
X144607403Y-121267394D01*
X144607403Y-121267393D01*
X144607405Y-121267389D01*
X144665756Y-121062310D01*
X144676529Y-120946047D01*
X144702315Y-120881111D01*
X144744622Y-120850804D01*
X144853130Y-120850804D01*
X144889503Y-120871668D01*
X144921693Y-120933681D01*
X144923470Y-120946047D01*
X144934244Y-121062310D01*
X144987675Y-121250099D01*
X144992596Y-121267392D01*
X144992596Y-121267394D01*
X145087632Y-121458253D01*
X145087634Y-121458255D01*
X145216128Y-121628407D01*
X145373698Y-121772052D01*
X145554981Y-121884298D01*
X145753802Y-121961321D01*
X145963390Y-122000500D01*
X145963392Y-122000500D01*
X146176608Y-122000500D01*
X146176610Y-122000500D01*
X146386198Y-121961321D01*
X146585019Y-121884298D01*
X146766302Y-121772052D01*
X146923872Y-121628407D01*
X147052366Y-121458255D01*
X147106270Y-121350000D01*
X147147403Y-121267394D01*
X147147403Y-121267393D01*
X147147405Y-121267389D01*
X147205756Y-121062310D01*
X147216529Y-120946047D01*
X147242315Y-120881111D01*
X147284622Y-120850804D01*
X147393130Y-120850804D01*
X147429503Y-120871668D01*
X147461693Y-120933681D01*
X147463470Y-120946047D01*
X147474244Y-121062310D01*
X147527675Y-121250099D01*
X147532596Y-121267392D01*
X147532596Y-121267394D01*
X147627632Y-121458253D01*
X147627634Y-121458255D01*
X147756128Y-121628407D01*
X147913698Y-121772052D01*
X148094981Y-121884298D01*
X148293802Y-121961321D01*
X148503390Y-122000500D01*
X148503392Y-122000500D01*
X148716608Y-122000500D01*
X148716610Y-122000500D01*
X148926198Y-121961321D01*
X149125019Y-121884298D01*
X149306302Y-121772052D01*
X149463872Y-121628407D01*
X149592366Y-121458255D01*
X149646270Y-121350000D01*
X149687403Y-121267394D01*
X149687403Y-121267393D01*
X149687405Y-121267389D01*
X149745756Y-121062310D01*
X149756529Y-120946047D01*
X149782315Y-120881111D01*
X149824622Y-120850804D01*
X149933130Y-120850804D01*
X149969503Y-120871668D01*
X150001693Y-120933681D01*
X150003470Y-120946047D01*
X150014244Y-121062310D01*
X150067675Y-121250099D01*
X150072596Y-121267392D01*
X150072596Y-121267394D01*
X150167632Y-121458253D01*
X150167634Y-121458255D01*
X150296128Y-121628407D01*
X150453698Y-121772052D01*
X150634981Y-121884298D01*
X150833802Y-121961321D01*
X151043390Y-122000500D01*
X151043392Y-122000500D01*
X151256608Y-122000500D01*
X151256610Y-122000500D01*
X151466198Y-121961321D01*
X151665019Y-121884298D01*
X151846302Y-121772052D01*
X152003872Y-121628407D01*
X152132366Y-121458255D01*
X152186270Y-121350000D01*
X152227403Y-121267394D01*
X152227403Y-121267393D01*
X152227405Y-121267389D01*
X152285756Y-121062310D01*
X152296529Y-120946047D01*
X152322315Y-120881111D01*
X152364622Y-120850804D01*
X152473130Y-120850804D01*
X152509503Y-120871668D01*
X152541693Y-120933681D01*
X152543470Y-120946047D01*
X152554244Y-121062310D01*
X152607675Y-121250099D01*
X152612596Y-121267392D01*
X152612596Y-121267394D01*
X152707632Y-121458253D01*
X152707634Y-121458255D01*
X152836128Y-121628407D01*
X152993698Y-121772052D01*
X153174981Y-121884298D01*
X153373802Y-121961321D01*
X153583390Y-122000500D01*
X153583392Y-122000500D01*
X153796608Y-122000500D01*
X153796610Y-122000500D01*
X154006198Y-121961321D01*
X154205019Y-121884298D01*
X154386302Y-121772052D01*
X154543872Y-121628407D01*
X154672366Y-121458255D01*
X154726270Y-121350000D01*
X154767403Y-121267394D01*
X154767403Y-121267393D01*
X154767405Y-121267389D01*
X154825756Y-121062310D01*
X154836529Y-120946047D01*
X154862315Y-120881111D01*
X154904622Y-120850804D01*
X155013130Y-120850804D01*
X155049503Y-120871668D01*
X155081693Y-120933681D01*
X155083470Y-120946047D01*
X155094244Y-121062310D01*
X155147675Y-121250099D01*
X155152596Y-121267392D01*
X155152596Y-121267394D01*
X155247632Y-121458253D01*
X155247634Y-121458255D01*
X155376128Y-121628407D01*
X155533698Y-121772052D01*
X155714981Y-121884298D01*
X155913802Y-121961321D01*
X156123390Y-122000500D01*
X156123392Y-122000500D01*
X156336608Y-122000500D01*
X156336610Y-122000500D01*
X156546198Y-121961321D01*
X156745019Y-121884298D01*
X156926302Y-121772052D01*
X157083872Y-121628407D01*
X157212366Y-121458255D01*
X157266270Y-121350000D01*
X157307403Y-121267394D01*
X157307403Y-121267393D01*
X157307405Y-121267389D01*
X157365756Y-121062310D01*
X157376780Y-120943337D01*
X157402566Y-120878401D01*
X157441508Y-120850504D01*
X157557582Y-120850504D01*
X157589754Y-120868958D01*
X157621944Y-120930971D01*
X157623722Y-120943338D01*
X157634737Y-121062216D01*
X157634738Y-121062219D01*
X157693060Y-121267203D01*
X157693063Y-121267209D01*
X157771335Y-121424400D01*
X158272094Y-120923641D01*
X158304075Y-121042993D01*
X158369901Y-121157007D01*
X158462993Y-121250099D01*
X158577007Y-121315925D01*
X158696357Y-121347905D01*
X158196662Y-121847599D01*
X158255204Y-121883847D01*
X158255208Y-121883849D01*
X158453936Y-121960836D01*
X158453941Y-121960837D01*
X158663439Y-122000000D01*
X158876561Y-122000000D01*
X159086058Y-121960837D01*
X159086059Y-121960837D01*
X159284794Y-121883847D01*
X159284798Y-121883845D01*
X159343335Y-121847599D01*
X158843642Y-121347905D01*
X158962993Y-121315925D01*
X159077007Y-121250099D01*
X159170099Y-121157007D01*
X159235925Y-121042993D01*
X159267905Y-120923641D01*
X159768663Y-121424399D01*
X159768664Y-121424399D01*
X159846935Y-121267209D01*
X159846938Y-121267203D01*
X159905261Y-121062218D01*
X159905262Y-121062216D01*
X159924927Y-120850000D01*
X159924927Y-120849999D01*
X159905262Y-120637783D01*
X159905261Y-120637781D01*
X159846938Y-120432796D01*
X159846932Y-120432781D01*
X159768664Y-120275598D01*
X159267905Y-120776357D01*
X159235925Y-120657007D01*
X159170099Y-120542993D01*
X159077007Y-120449901D01*
X158962993Y-120384075D01*
X158843642Y-120352094D01*
X159343336Y-119852399D01*
X159284793Y-119816151D01*
X159284789Y-119816149D01*
X159086063Y-119739163D01*
X159086058Y-119739162D01*
X158876561Y-119700000D01*
X158663439Y-119700000D01*
X158453941Y-119739162D01*
X158453940Y-119739162D01*
X158255206Y-119816151D01*
X158255202Y-119816153D01*
X158196662Y-119852398D01*
X158196662Y-119852399D01*
X158696358Y-120352094D01*
X158577007Y-120384075D01*
X158462993Y-120449901D01*
X158369901Y-120542993D01*
X158304075Y-120657007D01*
X158272094Y-120776357D01*
X157771335Y-120275598D01*
X157771334Y-120275598D01*
X157693066Y-120432783D01*
X157693058Y-120432803D01*
X157634738Y-120637780D01*
X157634738Y-120637782D01*
X157623722Y-120756662D01*
X157597936Y-120821599D01*
X157557582Y-120850504D01*
X157441508Y-120850504D01*
X157442918Y-120849494D01*
X157410748Y-120831041D01*
X157378558Y-120769028D01*
X157376780Y-120756661D01*
X157376529Y-120753951D01*
X157365756Y-120637690D01*
X157307405Y-120432611D01*
X157307403Y-120432606D01*
X157307403Y-120432605D01*
X157212367Y-120241746D01*
X157083872Y-120071593D01*
X156926302Y-119927948D01*
X156745019Y-119815702D01*
X156745017Y-119815701D01*
X156547447Y-119739163D01*
X156546198Y-119738679D01*
X156336610Y-119699500D01*
X156123390Y-119699500D01*
X155913802Y-119738679D01*
X155913799Y-119738679D01*
X155913799Y-119738680D01*
X155714982Y-119815701D01*
X155714980Y-119815702D01*
X155533699Y-119927947D01*
X155376127Y-120071593D01*
X155247632Y-120241746D01*
X155152596Y-120432605D01*
X155152596Y-120432607D01*
X155094244Y-120637689D01*
X155083471Y-120753951D01*
X155057685Y-120818888D01*
X155013130Y-120850804D01*
X154904622Y-120850804D01*
X154906869Y-120849194D01*
X154870497Y-120828331D01*
X154838307Y-120766318D01*
X154836529Y-120753951D01*
X154835849Y-120746613D01*
X154825756Y-120637690D01*
X154767405Y-120432611D01*
X154767403Y-120432606D01*
X154767403Y-120432605D01*
X154672367Y-120241746D01*
X154543872Y-120071593D01*
X154386302Y-119927948D01*
X154205019Y-119815702D01*
X154205017Y-119815701D01*
X154007447Y-119739163D01*
X154006198Y-119738679D01*
X153796610Y-119699500D01*
X153583390Y-119699500D01*
X153373802Y-119738679D01*
X153373799Y-119738679D01*
X153373799Y-119738680D01*
X153174982Y-119815701D01*
X153174980Y-119815702D01*
X152993699Y-119927947D01*
X152836127Y-120071593D01*
X152707632Y-120241746D01*
X152612596Y-120432605D01*
X152612596Y-120432607D01*
X152554244Y-120637689D01*
X152543471Y-120753951D01*
X152517685Y-120818888D01*
X152473130Y-120850804D01*
X152364622Y-120850804D01*
X152366869Y-120849194D01*
X152330497Y-120828331D01*
X152298307Y-120766318D01*
X152296529Y-120753951D01*
X152295849Y-120746613D01*
X152285756Y-120637690D01*
X152227405Y-120432611D01*
X152227403Y-120432606D01*
X152227403Y-120432605D01*
X152132367Y-120241746D01*
X152003872Y-120071593D01*
X151846302Y-119927948D01*
X151665019Y-119815702D01*
X151665017Y-119815701D01*
X151467447Y-119739163D01*
X151466198Y-119738679D01*
X151256610Y-119699500D01*
X151043390Y-119699500D01*
X150833802Y-119738679D01*
X150833799Y-119738679D01*
X150833799Y-119738680D01*
X150634982Y-119815701D01*
X150634980Y-119815702D01*
X150453699Y-119927947D01*
X150296127Y-120071593D01*
X150167632Y-120241746D01*
X150072596Y-120432605D01*
X150072596Y-120432607D01*
X150014244Y-120637689D01*
X150003471Y-120753951D01*
X149977685Y-120818888D01*
X149933130Y-120850804D01*
X149824622Y-120850804D01*
X149826869Y-120849194D01*
X149790497Y-120828331D01*
X149758307Y-120766318D01*
X149756529Y-120753951D01*
X149755849Y-120746613D01*
X149745756Y-120637690D01*
X149687405Y-120432611D01*
X149687403Y-120432606D01*
X149687403Y-120432605D01*
X149592367Y-120241746D01*
X149463872Y-120071593D01*
X149306302Y-119927948D01*
X149125019Y-119815702D01*
X149125017Y-119815701D01*
X148927447Y-119739163D01*
X148926198Y-119738679D01*
X148716610Y-119699500D01*
X148503390Y-119699500D01*
X148293802Y-119738679D01*
X148293799Y-119738679D01*
X148293799Y-119738680D01*
X148094982Y-119815701D01*
X148094980Y-119815702D01*
X147913699Y-119927947D01*
X147756127Y-120071593D01*
X147627632Y-120241746D01*
X147532596Y-120432605D01*
X147532596Y-120432607D01*
X147474244Y-120637689D01*
X147463471Y-120753951D01*
X147437685Y-120818888D01*
X147393130Y-120850804D01*
X147284622Y-120850804D01*
X147286869Y-120849194D01*
X147250497Y-120828331D01*
X147218307Y-120766318D01*
X147216529Y-120753951D01*
X147215849Y-120746613D01*
X147205756Y-120637690D01*
X147147405Y-120432611D01*
X147147403Y-120432606D01*
X147147403Y-120432605D01*
X147052367Y-120241746D01*
X146923872Y-120071593D01*
X146766302Y-119927948D01*
X146585019Y-119815702D01*
X146585017Y-119815701D01*
X146387447Y-119739163D01*
X146386198Y-119738679D01*
X146176610Y-119699500D01*
X145963390Y-119699500D01*
X145753802Y-119738679D01*
X145753799Y-119738679D01*
X145753799Y-119738680D01*
X145554982Y-119815701D01*
X145554980Y-119815702D01*
X145373699Y-119927947D01*
X145216127Y-120071593D01*
X145087632Y-120241746D01*
X144992596Y-120432605D01*
X144992596Y-120432607D01*
X144934244Y-120637689D01*
X144923471Y-120753951D01*
X144897685Y-120818888D01*
X144853130Y-120850804D01*
X144744622Y-120850804D01*
X144746869Y-120849194D01*
X144710497Y-120828331D01*
X144678307Y-120766318D01*
X144676529Y-120753951D01*
X144675849Y-120746613D01*
X144665756Y-120637690D01*
X144607405Y-120432611D01*
X144607403Y-120432606D01*
X144607403Y-120432605D01*
X144512367Y-120241746D01*
X144383872Y-120071593D01*
X144226302Y-119927948D01*
X144045019Y-119815702D01*
X144045017Y-119815701D01*
X143847447Y-119739163D01*
X143846198Y-119738679D01*
X143636610Y-119699500D01*
X143423390Y-119699500D01*
X143213802Y-119738679D01*
X143213799Y-119738679D01*
X143213799Y-119738680D01*
X143014982Y-119815701D01*
X143014980Y-119815702D01*
X142833699Y-119927947D01*
X142676127Y-120071593D01*
X142547632Y-120241746D01*
X142452596Y-120432605D01*
X142452596Y-120432607D01*
X142394244Y-120637689D01*
X142383471Y-120753951D01*
X142357685Y-120818888D01*
X142313130Y-120850804D01*
X142204622Y-120850804D01*
X142206869Y-120849194D01*
X142170497Y-120828331D01*
X142138307Y-120766318D01*
X142136529Y-120753951D01*
X142135849Y-120746613D01*
X142125756Y-120637690D01*
X142067405Y-120432611D01*
X142067403Y-120432606D01*
X142067403Y-120432605D01*
X141972367Y-120241746D01*
X141843872Y-120071593D01*
X141686302Y-119927948D01*
X141505019Y-119815702D01*
X141505017Y-119815701D01*
X141307447Y-119739163D01*
X141306198Y-119738679D01*
X141096610Y-119699500D01*
X140883390Y-119699500D01*
X140673802Y-119738679D01*
X140673799Y-119738679D01*
X140673799Y-119738680D01*
X140474982Y-119815701D01*
X140474980Y-119815702D01*
X140293699Y-119927947D01*
X140136127Y-120071593D01*
X140007632Y-120241746D01*
X139912596Y-120432605D01*
X139912596Y-120432607D01*
X139854244Y-120637689D01*
X139843471Y-120753951D01*
X139817685Y-120818888D01*
X139773130Y-120850804D01*
X139664622Y-120850804D01*
X139666869Y-120849194D01*
X139630497Y-120828331D01*
X139598307Y-120766318D01*
X139596529Y-120753951D01*
X139595849Y-120746613D01*
X139585756Y-120637690D01*
X139527405Y-120432611D01*
X139527403Y-120432606D01*
X139527403Y-120432605D01*
X139432367Y-120241746D01*
X139303872Y-120071593D01*
X139146302Y-119927948D01*
X138965019Y-119815702D01*
X138965017Y-119815701D01*
X138767447Y-119739163D01*
X138766198Y-119738679D01*
X138556610Y-119699500D01*
X138343390Y-119699500D01*
X138133802Y-119738679D01*
X138133799Y-119738679D01*
X138133799Y-119738680D01*
X137934982Y-119815701D01*
X137934980Y-119815702D01*
X137753699Y-119927947D01*
X137596127Y-120071593D01*
X137467632Y-120241746D01*
X137372596Y-120432605D01*
X137372596Y-120432607D01*
X137314244Y-120637689D01*
X137303471Y-120753951D01*
X137277685Y-120818888D01*
X137233130Y-120850804D01*
X137124622Y-120850804D01*
X137126869Y-120849194D01*
X137090497Y-120828331D01*
X137058307Y-120766318D01*
X137056529Y-120753951D01*
X137055849Y-120746613D01*
X137045756Y-120637690D01*
X136987405Y-120432611D01*
X136987403Y-120432606D01*
X136987403Y-120432605D01*
X136892367Y-120241746D01*
X136763872Y-120071593D01*
X136606302Y-119927948D01*
X136425019Y-119815702D01*
X136425017Y-119815701D01*
X136227447Y-119739163D01*
X136226198Y-119738679D01*
X136016610Y-119699500D01*
X135803390Y-119699500D01*
X135593802Y-119738679D01*
X135593799Y-119738679D01*
X135593799Y-119738680D01*
X135394982Y-119815701D01*
X135394980Y-119815702D01*
X135213699Y-119927947D01*
X135056127Y-120071593D01*
X134927632Y-120241746D01*
X134832596Y-120432605D01*
X134832596Y-120432607D01*
X134774244Y-120637689D01*
X134763471Y-120753951D01*
X134737685Y-120818888D01*
X134693130Y-120850804D01*
X134584622Y-120850804D01*
X134586869Y-120849194D01*
X134550497Y-120828331D01*
X134518307Y-120766318D01*
X134516529Y-120753951D01*
X134515849Y-120746613D01*
X134505756Y-120637690D01*
X134447405Y-120432611D01*
X134447403Y-120432606D01*
X134447403Y-120432605D01*
X134352367Y-120241746D01*
X134223872Y-120071593D01*
X134066302Y-119927948D01*
X133885019Y-119815702D01*
X133885017Y-119815701D01*
X133687447Y-119739163D01*
X133686198Y-119738679D01*
X133476610Y-119699500D01*
X133263390Y-119699500D01*
X133053802Y-119738679D01*
X133053799Y-119738679D01*
X133053799Y-119738680D01*
X132854982Y-119815701D01*
X132854980Y-119815702D01*
X132673699Y-119927947D01*
X132516127Y-120071593D01*
X132387632Y-120241746D01*
X132292596Y-120432605D01*
X132292596Y-120432607D01*
X132234244Y-120637689D01*
X132223471Y-120753951D01*
X132197685Y-120818888D01*
X132153130Y-120850804D01*
X132044622Y-120850804D01*
X132046869Y-120849194D01*
X132010497Y-120828331D01*
X131978307Y-120766318D01*
X131976529Y-120753951D01*
X131975849Y-120746613D01*
X131965756Y-120637690D01*
X131907405Y-120432611D01*
X131907403Y-120432606D01*
X131907403Y-120432605D01*
X131812367Y-120241746D01*
X131683872Y-120071593D01*
X131526302Y-119927948D01*
X131345019Y-119815702D01*
X131345017Y-119815701D01*
X131147447Y-119739163D01*
X131146198Y-119738679D01*
X130936610Y-119699500D01*
X130723390Y-119699500D01*
X130513802Y-119738679D01*
X130513799Y-119738679D01*
X130513799Y-119738680D01*
X130314982Y-119815701D01*
X130314980Y-119815702D01*
X130133699Y-119927947D01*
X129976127Y-120071593D01*
X129847632Y-120241746D01*
X129752596Y-120432605D01*
X129752596Y-120432607D01*
X129694244Y-120637689D01*
X129683471Y-120753951D01*
X129657685Y-120818888D01*
X129613130Y-120850804D01*
X129504622Y-120850804D01*
X129506869Y-120849194D01*
X129470497Y-120828331D01*
X129438307Y-120766318D01*
X129436529Y-120753951D01*
X129435849Y-120746613D01*
X129425756Y-120637690D01*
X129367405Y-120432611D01*
X129367403Y-120432606D01*
X129367403Y-120432605D01*
X129272367Y-120241746D01*
X129143872Y-120071593D01*
X128986302Y-119927948D01*
X128805019Y-119815702D01*
X128805017Y-119815701D01*
X128607447Y-119739163D01*
X128606198Y-119738679D01*
X128396610Y-119699500D01*
X128183390Y-119699500D01*
X127973802Y-119738679D01*
X127973799Y-119738679D01*
X127973799Y-119738680D01*
X127774982Y-119815701D01*
X127774980Y-119815702D01*
X127593699Y-119927947D01*
X127436127Y-120071593D01*
X127307632Y-120241746D01*
X127212596Y-120432605D01*
X127212596Y-120432607D01*
X127154244Y-120637689D01*
X127143471Y-120753951D01*
X127117685Y-120818888D01*
X127073130Y-120850804D01*
X126964622Y-120850804D01*
X126966869Y-120849194D01*
X126930497Y-120828331D01*
X126898307Y-120766318D01*
X126896529Y-120753951D01*
X126895849Y-120746613D01*
X126885756Y-120637690D01*
X126827405Y-120432611D01*
X126827403Y-120432606D01*
X126827403Y-120432605D01*
X126732367Y-120241746D01*
X126603872Y-120071593D01*
X126446302Y-119927948D01*
X126265019Y-119815702D01*
X126265017Y-119815701D01*
X126067447Y-119739163D01*
X126066198Y-119738679D01*
X125856610Y-119699500D01*
X125643390Y-119699500D01*
X125433802Y-119738679D01*
X125433799Y-119738679D01*
X125433799Y-119738680D01*
X125234982Y-119815701D01*
X125234980Y-119815702D01*
X125053699Y-119927947D01*
X124896127Y-120071593D01*
X124767632Y-120241746D01*
X124672596Y-120432605D01*
X124672596Y-120432607D01*
X124614244Y-120637689D01*
X124603471Y-120753951D01*
X124577685Y-120818888D01*
X124533130Y-120850804D01*
X124424622Y-120850804D01*
X124426869Y-120849194D01*
X124390497Y-120828331D01*
X124358307Y-120766318D01*
X124356529Y-120753951D01*
X124355849Y-120746613D01*
X124345756Y-120637690D01*
X124287405Y-120432611D01*
X124287403Y-120432606D01*
X124287403Y-120432605D01*
X124192367Y-120241746D01*
X124063872Y-120071593D01*
X123906302Y-119927948D01*
X123725019Y-119815702D01*
X123725017Y-119815701D01*
X123527447Y-119739163D01*
X123526198Y-119738679D01*
X123316610Y-119699500D01*
X123103390Y-119699500D01*
X122893802Y-119738679D01*
X122893799Y-119738679D01*
X122893799Y-119738680D01*
X122694982Y-119815701D01*
X122694980Y-119815702D01*
X122513699Y-119927947D01*
X122356127Y-120071593D01*
X122227632Y-120241746D01*
X122132596Y-120432605D01*
X122132596Y-120432607D01*
X122074244Y-120637689D01*
X122063471Y-120753951D01*
X122037685Y-120818888D01*
X121993130Y-120850804D01*
X121884622Y-120850804D01*
X121886869Y-120849194D01*
X121850497Y-120828331D01*
X121818307Y-120766318D01*
X121816529Y-120753951D01*
X121815849Y-120746613D01*
X121805756Y-120637690D01*
X121747405Y-120432611D01*
X121747403Y-120432606D01*
X121747403Y-120432605D01*
X121652367Y-120241746D01*
X121523872Y-120071593D01*
X121366302Y-119927948D01*
X121185019Y-119815702D01*
X121185017Y-119815701D01*
X120987447Y-119739163D01*
X120986198Y-119738679D01*
X120776610Y-119699500D01*
X120563390Y-119699500D01*
X120353802Y-119738679D01*
X120353799Y-119738679D01*
X120353799Y-119738680D01*
X120154982Y-119815701D01*
X120154980Y-119815702D01*
X119973699Y-119927947D01*
X119816127Y-120071593D01*
X119687632Y-120241746D01*
X119592596Y-120432605D01*
X119592596Y-120432607D01*
X119534244Y-120637689D01*
X119523471Y-120753951D01*
X119497685Y-120818888D01*
X119453130Y-120850804D01*
X119344622Y-120850804D01*
X119346869Y-120849194D01*
X119310497Y-120828331D01*
X119278307Y-120766318D01*
X119276529Y-120753951D01*
X119275849Y-120746613D01*
X119265756Y-120637690D01*
X119207405Y-120432611D01*
X119207403Y-120432606D01*
X119207403Y-120432605D01*
X119112367Y-120241746D01*
X118983872Y-120071593D01*
X118826302Y-119927948D01*
X118645019Y-119815702D01*
X118645017Y-119815701D01*
X118447447Y-119739163D01*
X118446198Y-119738679D01*
X118236610Y-119699500D01*
X118023390Y-119699500D01*
X117813802Y-119738679D01*
X117813799Y-119738679D01*
X117813799Y-119738680D01*
X117614982Y-119815701D01*
X117614980Y-119815702D01*
X117433699Y-119927947D01*
X117276127Y-120071593D01*
X117147632Y-120241746D01*
X117052596Y-120432605D01*
X117052596Y-120432607D01*
X116994244Y-120637689D01*
X116983471Y-120753951D01*
X116957685Y-120818888D01*
X116913130Y-120850804D01*
X116804622Y-120850804D01*
X116806869Y-120849194D01*
X116770497Y-120828331D01*
X116738307Y-120766318D01*
X116736529Y-120753951D01*
X116735849Y-120746613D01*
X116725756Y-120637690D01*
X116667405Y-120432611D01*
X116667403Y-120432606D01*
X116667403Y-120432605D01*
X116572367Y-120241746D01*
X116443872Y-120071593D01*
X116286302Y-119927948D01*
X116105019Y-119815702D01*
X116105017Y-119815701D01*
X115907447Y-119739163D01*
X115906198Y-119738679D01*
X115696610Y-119699500D01*
X115483390Y-119699500D01*
X115273802Y-119738679D01*
X115273799Y-119738679D01*
X115273799Y-119738680D01*
X115074982Y-119815701D01*
X115074980Y-119815702D01*
X114893699Y-119927947D01*
X114736127Y-120071593D01*
X114607632Y-120241746D01*
X114512596Y-120432605D01*
X114512596Y-120432607D01*
X114454244Y-120637689D01*
X114443471Y-120753951D01*
X114417685Y-120818888D01*
X114373130Y-120850804D01*
X114264622Y-120850804D01*
X114266869Y-120849194D01*
X114230497Y-120828331D01*
X114198307Y-120766318D01*
X114196529Y-120753951D01*
X114195849Y-120746613D01*
X114185756Y-120637690D01*
X114127405Y-120432611D01*
X114127403Y-120432606D01*
X114127403Y-120432605D01*
X114032367Y-120241746D01*
X113903872Y-120071593D01*
X113746302Y-119927948D01*
X113565019Y-119815702D01*
X113565017Y-119815701D01*
X113367447Y-119739163D01*
X113366198Y-119738679D01*
X113156610Y-119699500D01*
X112943390Y-119699500D01*
X112733802Y-119738679D01*
X112733799Y-119738679D01*
X112733799Y-119738680D01*
X112534982Y-119815701D01*
X112534980Y-119815702D01*
X112353699Y-119927947D01*
X112196127Y-120071593D01*
X112067632Y-120241746D01*
X111972596Y-120432605D01*
X111972596Y-120432607D01*
X111914244Y-120637689D01*
X111903471Y-120753951D01*
X111877685Y-120818888D01*
X111833130Y-120850804D01*
X111724622Y-120850804D01*
X111726869Y-120849194D01*
X111690497Y-120828331D01*
X111658307Y-120766318D01*
X111656529Y-120753951D01*
X111655849Y-120746613D01*
X111645756Y-120637690D01*
X111587405Y-120432611D01*
X111587403Y-120432606D01*
X111587403Y-120432605D01*
X111492367Y-120241746D01*
X111363872Y-120071593D01*
X111206302Y-119927948D01*
X111025019Y-119815702D01*
X111025017Y-119815701D01*
X110827447Y-119739163D01*
X110826198Y-119738679D01*
X110616610Y-119699500D01*
X110403390Y-119699500D01*
X110193802Y-119738679D01*
X110193799Y-119738679D01*
X110193799Y-119738680D01*
X109994982Y-119815701D01*
X109994980Y-119815702D01*
X109813699Y-119927947D01*
X109656127Y-120071593D01*
X109527632Y-120241746D01*
X109432596Y-120432605D01*
X109432596Y-120432607D01*
X109374244Y-120637689D01*
X109363219Y-120756662D01*
X109337432Y-120821599D01*
X109297079Y-120850504D01*
X109181005Y-120850504D01*
X109182415Y-120849494D01*
X109150244Y-120831040D01*
X109118055Y-120769027D01*
X109116277Y-120756661D01*
X109105262Y-120637783D01*
X109105261Y-120637781D01*
X109046938Y-120432796D01*
X109046932Y-120432781D01*
X108968664Y-120275598D01*
X108467905Y-120776357D01*
X108435925Y-120657007D01*
X108370099Y-120542993D01*
X108277007Y-120449901D01*
X108162993Y-120384075D01*
X108043642Y-120352094D01*
X108543336Y-119852399D01*
X108484793Y-119816151D01*
X108484789Y-119816149D01*
X108286063Y-119739163D01*
X108286058Y-119739162D01*
X108076561Y-119700000D01*
X107863439Y-119700000D01*
X107653941Y-119739162D01*
X107653940Y-119739162D01*
X107455206Y-119816151D01*
X107455202Y-119816153D01*
X107396662Y-119852398D01*
X107396662Y-119852399D01*
X107896358Y-120352094D01*
X107777007Y-120384075D01*
X107662993Y-120449901D01*
X107569901Y-120542993D01*
X107504075Y-120657007D01*
X107472094Y-120776357D01*
X106971335Y-120275598D01*
X106971334Y-120275598D01*
X106893066Y-120432783D01*
X106893058Y-120432803D01*
X106834738Y-120637780D01*
X106834737Y-120637783D01*
X106823471Y-120759371D01*
X106797685Y-120824309D01*
X106761533Y-120850204D01*
X106637894Y-120850204D01*
X106638466Y-120849794D01*
X106610497Y-120833751D01*
X106578307Y-120771738D01*
X106576529Y-120759371D01*
X106565262Y-120637783D01*
X106565261Y-120637781D01*
X106506938Y-120432796D01*
X106506932Y-120432781D01*
X106428664Y-120275598D01*
X105927905Y-120776357D01*
X105895925Y-120657007D01*
X105830099Y-120542993D01*
X105737007Y-120449901D01*
X105622993Y-120384075D01*
X105503642Y-120352094D01*
X106003336Y-119852399D01*
X105944793Y-119816151D01*
X105944789Y-119816149D01*
X105746063Y-119739163D01*
X105746058Y-119739162D01*
X105536561Y-119700000D01*
X105323439Y-119700000D01*
X105113941Y-119739162D01*
X105113940Y-119739162D01*
X104915206Y-119816151D01*
X104915202Y-119816153D01*
X104856662Y-119852398D01*
X104856662Y-119852399D01*
X105356358Y-120352094D01*
X105237007Y-120384075D01*
X105122993Y-120449901D01*
X105029901Y-120542993D01*
X104964075Y-120657007D01*
X104932094Y-120776357D01*
X104431335Y-120275598D01*
X104431334Y-120275598D01*
X104353066Y-120432783D01*
X104353058Y-120432803D01*
X104294738Y-120637780D01*
X104294737Y-120637783D01*
X104275073Y-120849999D01*
X101500500Y-120849999D01*
X101500500Y-95349999D01*
X104275073Y-95349999D01*
X104275073Y-95350000D01*
X104294737Y-95562216D01*
X104294738Y-95562219D01*
X104353060Y-95767203D01*
X104353063Y-95767209D01*
X104431335Y-95924400D01*
X104932094Y-95423641D01*
X104964075Y-95542993D01*
X105029901Y-95657007D01*
X105122993Y-95750099D01*
X105237007Y-95815925D01*
X105356357Y-95847905D01*
X104856662Y-96347599D01*
X104915204Y-96383847D01*
X104915208Y-96383849D01*
X105113936Y-96460836D01*
X105113941Y-96460837D01*
X105323439Y-96500000D01*
X105536561Y-96500000D01*
X105746058Y-96460837D01*
X105746059Y-96460837D01*
X105944794Y-96383847D01*
X105944798Y-96383845D01*
X106003335Y-96347599D01*
X105503642Y-95847905D01*
X105622993Y-95815925D01*
X105737007Y-95750099D01*
X105830099Y-95657007D01*
X105895925Y-95542993D01*
X105927905Y-95423641D01*
X106428663Y-95924399D01*
X106428664Y-95924399D01*
X106506935Y-95767209D01*
X106506938Y-95767203D01*
X106565261Y-95562218D01*
X106565262Y-95562216D01*
X106572029Y-95489190D01*
X106597815Y-95424252D01*
X106654616Y-95383565D01*
X106724397Y-95380045D01*
X106785003Y-95414810D01*
X106817193Y-95476823D01*
X106819500Y-95500631D01*
X106819500Y-99375038D01*
X106819499Y-99375053D01*
X106819499Y-99560544D01*
X106847829Y-99739410D01*
X106903787Y-99911636D01*
X106903788Y-99911639D01*
X106986006Y-100072997D01*
X107092440Y-100219493D01*
X107092444Y-100219497D01*
X107092447Y-100219501D01*
X107220499Y-100347553D01*
X107224829Y-100351883D01*
X107224840Y-100351893D01*
X111119315Y-104246367D01*
X111119342Y-104246396D01*
X111122446Y-104249500D01*
X111122447Y-104249501D01*
X111250499Y-104377553D01*
X111250502Y-104377555D01*
X111250506Y-104377559D01*
X111383364Y-104474084D01*
X111397006Y-104483996D01*
X111499818Y-104536381D01*
X111558356Y-104566209D01*
X111558358Y-104566209D01*
X111558361Y-104566211D01*
X111650680Y-104596207D01*
X111730590Y-104622172D01*
X111909449Y-104650501D01*
X111909454Y-104650501D01*
X112095658Y-104650501D01*
X112095682Y-104650500D01*
X159472085Y-104650500D01*
X159539124Y-104670185D01*
X159559766Y-104686819D01*
X163313181Y-108440234D01*
X163346666Y-108501557D01*
X163349500Y-108527915D01*
X163349500Y-126472085D01*
X163329815Y-126539124D01*
X163313181Y-126559766D01*
X159559766Y-130313181D01*
X159498443Y-130346666D01*
X159472085Y-130349500D01*
X151943390Y-130349500D01*
X151855935Y-130365847D01*
X151852551Y-130366431D01*
X151780590Y-130377829D01*
X151780587Y-130377829D01*
X151772975Y-130380303D01*
X151757449Y-130384258D01*
X151733806Y-130388677D01*
X151733795Y-130388680D01*
X151667358Y-130414418D01*
X151660887Y-130416721D01*
X151608365Y-130433787D01*
X151608356Y-130433791D01*
X151585436Y-130445469D01*
X151573942Y-130450607D01*
X151534984Y-130465700D01*
X151534982Y-130465701D01*
X151489415Y-130493914D01*
X151480439Y-130498968D01*
X151447007Y-130516003D01*
X151447004Y-130516005D01*
X151411874Y-130541528D01*
X151404270Y-130546634D01*
X151353697Y-130577948D01*
X151327186Y-130602115D01*
X151316542Y-130610789D01*
X151300506Y-130622441D01*
X151300495Y-130622450D01*
X151257276Y-130665668D01*
X151253137Y-130669621D01*
X151196126Y-130721594D01*
X151185188Y-130736077D01*
X151173939Y-130749005D01*
X151172450Y-130750494D01*
X151172449Y-130750494D01*
X151126119Y-130814262D01*
X151124757Y-130816101D01*
X151067634Y-130891743D01*
X151067630Y-130891750D01*
X151022753Y-130981876D01*
X151022238Y-130982898D01*
X150983790Y-131058358D01*
X150981925Y-131062860D01*
X150981688Y-131062762D01*
X150978050Y-131071652D01*
X150972599Y-131082600D01*
X150972595Y-131082610D01*
X150949868Y-131162484D01*
X150948534Y-131166863D01*
X150927829Y-131230589D01*
X150925653Y-131244327D01*
X150922448Y-131258853D01*
X150914245Y-131287689D01*
X150914244Y-131287691D01*
X150908210Y-131352800D01*
X150907212Y-131360754D01*
X150899500Y-131409447D01*
X150899500Y-131441073D01*
X150898971Y-131452514D01*
X150894571Y-131499999D01*
X150894571Y-131500000D01*
X150898971Y-131547484D01*
X150899500Y-131558925D01*
X150899500Y-131590546D01*
X150906103Y-131632238D01*
X150907213Y-131639244D01*
X150908210Y-131647198D01*
X150914244Y-131712309D01*
X150922448Y-131741148D01*
X150925652Y-131755672D01*
X150927827Y-131769401D01*
X150927831Y-131769418D01*
X150948530Y-131833124D01*
X150949865Y-131837505D01*
X150972595Y-131917389D01*
X150972597Y-131917394D01*
X150972600Y-131917401D01*
X150978046Y-131928340D01*
X150981684Y-131937228D01*
X150981921Y-131937131D01*
X150983787Y-131941635D01*
X151022238Y-132017100D01*
X151022753Y-132018123D01*
X151067628Y-132108245D01*
X151067635Y-132108257D01*
X151124775Y-132183921D01*
X151126140Y-132185764D01*
X151172443Y-132249497D01*
X151173923Y-132250977D01*
X151185195Y-132263930D01*
X151196128Y-132278407D01*
X151229313Y-132308659D01*
X151253146Y-132330386D01*
X151257289Y-132334343D01*
X151300495Y-132377550D01*
X151300498Y-132377553D01*
X151316537Y-132389206D01*
X151327187Y-132397885D01*
X151353695Y-132422050D01*
X151404261Y-132453359D01*
X151411867Y-132458466D01*
X151447006Y-132483996D01*
X151480434Y-132501028D01*
X151489416Y-132506086D01*
X151524767Y-132527974D01*
X151534981Y-132534298D01*
X151573942Y-132549391D01*
X151585436Y-132554530D01*
X151608355Y-132566208D01*
X151608361Y-132566211D01*
X151660871Y-132583272D01*
X151667337Y-132585573D01*
X151733799Y-132611320D01*
X151733802Y-132611321D01*
X151757457Y-132615742D01*
X151772984Y-132619699D01*
X151780591Y-132622171D01*
X151780601Y-132622172D01*
X151780603Y-132622173D01*
X151852601Y-132633576D01*
X151855966Y-132634156D01*
X151943388Y-132650499D01*
X151943389Y-132650500D01*
X151943390Y-132650500D01*
X151959454Y-132650500D01*
X159904319Y-132650500D01*
X159904343Y-132650501D01*
X159909454Y-132650501D01*
X160090545Y-132650501D01*
X160090546Y-132650501D01*
X160269409Y-132622171D01*
X160441639Y-132566211D01*
X160602994Y-132483996D01*
X160627224Y-132466392D01*
X160749501Y-132377553D01*
X160877553Y-132249501D01*
X160877554Y-132249499D01*
X160884614Y-132242439D01*
X160884619Y-132242432D01*
X161927053Y-131199999D01*
X165809713Y-131199999D01*
X165809714Y-131200000D01*
X166515856Y-131200000D01*
X166454075Y-131307007D01*
X166420000Y-131434174D01*
X166420000Y-131565826D01*
X166454075Y-131692993D01*
X166515856Y-131800000D01*
X165809714Y-131800000D01*
X165843062Y-131917205D01*
X165843067Y-131917218D01*
X165938061Y-132107991D01*
X166066500Y-132278071D01*
X166224000Y-132421651D01*
X166224002Y-132421653D01*
X166405201Y-132533846D01*
X166405207Y-132533849D01*
X166603941Y-132610838D01*
X166620000Y-132613840D01*
X166620000Y-131904144D01*
X166727007Y-131965925D01*
X166854174Y-132000000D01*
X166985826Y-132000000D01*
X167112993Y-131965925D01*
X167220000Y-131904144D01*
X167220000Y-132613839D01*
X167236058Y-132610838D01*
X167434792Y-132533849D01*
X167434798Y-132533846D01*
X167615997Y-132421653D01*
X167615999Y-132421651D01*
X167773499Y-132278071D01*
X167901938Y-132107991D01*
X167996932Y-131917218D01*
X167996937Y-131917205D01*
X168030286Y-131800000D01*
X167324144Y-131800000D01*
X167385925Y-131692993D01*
X167420000Y-131565826D01*
X167420000Y-131434174D01*
X167385925Y-131307007D01*
X167324144Y-131200000D01*
X168030286Y-131200000D01*
X168030286Y-131199999D01*
X167996937Y-131082794D01*
X167996931Y-131082778D01*
X167901938Y-130892008D01*
X167773499Y-130721928D01*
X167615999Y-130578348D01*
X167615997Y-130578346D01*
X167434798Y-130466153D01*
X167434792Y-130466151D01*
X167236060Y-130389162D01*
X167220000Y-130386159D01*
X167220000Y-131095855D01*
X167112993Y-131034075D01*
X166985826Y-131000000D01*
X166854174Y-131000000D01*
X166727007Y-131034075D01*
X166620000Y-131095855D01*
X166620000Y-130386159D01*
X166603939Y-130389162D01*
X166405207Y-130466151D01*
X166405201Y-130466153D01*
X166224002Y-130578346D01*
X166224000Y-130578348D01*
X166066500Y-130721928D01*
X165938061Y-130892008D01*
X165843069Y-131082778D01*
X165843062Y-131082794D01*
X165809713Y-131199999D01*
X161927053Y-131199999D01*
X164940234Y-128186819D01*
X165001557Y-128153334D01*
X165027915Y-128150500D01*
X168409454Y-128150500D01*
X168972085Y-128150500D01*
X169039124Y-128170185D01*
X169059766Y-128186819D01*
X170813181Y-129940234D01*
X170846666Y-130001557D01*
X170849500Y-130027915D01*
X170849500Y-131343946D01*
X170829815Y-131410985D01*
X170777011Y-131456740D01*
X170707853Y-131466684D01*
X170644297Y-131437659D01*
X170606523Y-131378881D01*
X170602029Y-131355387D01*
X170600969Y-131343946D01*
X170595756Y-131287690D01*
X170537405Y-131082611D01*
X170537403Y-131082606D01*
X170537403Y-131082605D01*
X170442367Y-130891746D01*
X170313872Y-130721593D01*
X170156302Y-130577948D01*
X169975019Y-130465702D01*
X169975017Y-130465701D01*
X169845852Y-130415663D01*
X169776198Y-130388679D01*
X169566610Y-130349500D01*
X169353390Y-130349500D01*
X169143802Y-130388679D01*
X169143799Y-130388679D01*
X169143799Y-130388680D01*
X168944982Y-130465701D01*
X168944980Y-130465702D01*
X168763699Y-130577947D01*
X168606127Y-130721593D01*
X168477632Y-130891746D01*
X168382596Y-131082605D01*
X168382596Y-131082607D01*
X168324244Y-131287689D01*
X168308272Y-131460064D01*
X168304571Y-131500000D01*
X168324244Y-131712310D01*
X168382594Y-131917387D01*
X168382596Y-131917392D01*
X168382596Y-131917394D01*
X168477632Y-132108253D01*
X168590011Y-132257065D01*
X168606128Y-132278407D01*
X168763698Y-132422052D01*
X168944981Y-132534298D01*
X169143802Y-132611321D01*
X169353390Y-132650500D01*
X169353392Y-132650500D01*
X169566608Y-132650500D01*
X169566610Y-132650500D01*
X169776198Y-132611321D01*
X169975019Y-132534298D01*
X170156302Y-132422052D01*
X170313872Y-132278407D01*
X170442366Y-132108255D01*
X170487246Y-132018123D01*
X170537403Y-131917394D01*
X170537403Y-131917393D01*
X170537405Y-131917389D01*
X170595756Y-131712310D01*
X170602029Y-131644610D01*
X170627815Y-131579674D01*
X170684615Y-131538986D01*
X170754396Y-131535466D01*
X170815003Y-131570231D01*
X170847193Y-131632244D01*
X170849500Y-131656052D01*
X170849500Y-132394856D01*
X170849502Y-132394882D01*
X170852413Y-132419987D01*
X170852415Y-132419991D01*
X170897793Y-132522764D01*
X170897794Y-132522765D01*
X170977235Y-132602206D01*
X171080009Y-132647585D01*
X171105135Y-132650500D01*
X171899451Y-132650499D01*
X171899465Y-132650500D01*
X171909454Y-132650500D01*
X172100536Y-132650500D01*
X172100548Y-132650499D01*
X172894856Y-132650499D01*
X172894864Y-132650499D01*
X172894879Y-132650497D01*
X172894882Y-132650497D01*
X172919987Y-132647586D01*
X172919988Y-132647585D01*
X172919991Y-132647585D01*
X173022765Y-132602206D01*
X173102206Y-132522765D01*
X173147585Y-132419991D01*
X173150500Y-132394865D01*
X173150500Y-131533608D01*
X173150500Y-131199999D01*
X176309713Y-131199999D01*
X176309714Y-131200000D01*
X177015856Y-131200000D01*
X176954075Y-131307007D01*
X176920000Y-131434174D01*
X176920000Y-131565826D01*
X176954075Y-131692993D01*
X177015856Y-131800000D01*
X176309714Y-131800000D01*
X176343062Y-131917205D01*
X176343067Y-131917218D01*
X176438061Y-132107991D01*
X176566500Y-132278071D01*
X176724000Y-132421651D01*
X176724002Y-132421653D01*
X176905201Y-132533846D01*
X176905207Y-132533849D01*
X177103941Y-132610838D01*
X177120000Y-132613840D01*
X177120000Y-131904144D01*
X177227007Y-131965925D01*
X177354174Y-132000000D01*
X177485826Y-132000000D01*
X177612993Y-131965925D01*
X177720000Y-131904144D01*
X177720000Y-132613839D01*
X177736058Y-132610838D01*
X177934792Y-132533849D01*
X177934798Y-132533846D01*
X178115997Y-132421653D01*
X178115999Y-132421651D01*
X178273499Y-132278071D01*
X178401938Y-132107991D01*
X178496932Y-131917218D01*
X178496937Y-131917205D01*
X178530286Y-131800000D01*
X177824144Y-131800000D01*
X177885925Y-131692993D01*
X177920000Y-131565826D01*
X177920000Y-131434174D01*
X177885925Y-131307007D01*
X177824144Y-131200000D01*
X178530286Y-131200000D01*
X178530286Y-131199999D01*
X178496937Y-131082794D01*
X178496931Y-131082778D01*
X178401938Y-130892008D01*
X178273499Y-130721928D01*
X178115999Y-130578348D01*
X178115997Y-130578346D01*
X177934798Y-130466153D01*
X177934792Y-130466151D01*
X177736060Y-130389162D01*
X177720000Y-130386159D01*
X177720000Y-131095855D01*
X177612993Y-131034075D01*
X177485826Y-131000000D01*
X177354174Y-131000000D01*
X177227007Y-131034075D01*
X177120000Y-131095855D01*
X177120000Y-130386159D01*
X177103939Y-130389162D01*
X176905207Y-130466151D01*
X176905201Y-130466153D01*
X176724002Y-130578346D01*
X176724000Y-130578348D01*
X176566500Y-130721928D01*
X176438061Y-130892008D01*
X176343069Y-131082778D01*
X176343062Y-131082794D01*
X176309713Y-131199999D01*
X173150500Y-131199999D01*
X173150500Y-129595682D01*
X173150501Y-129595657D01*
X173150501Y-129409455D01*
X173150501Y-129409454D01*
X173122171Y-129230591D01*
X173094191Y-129144476D01*
X173066212Y-129058363D01*
X173066211Y-129058360D01*
X173006022Y-128940234D01*
X172983996Y-128897006D01*
X172982440Y-128894864D01*
X172877553Y-128750499D01*
X172749501Y-128622447D01*
X172749500Y-128622446D01*
X172746389Y-128619335D01*
X172746374Y-128619321D01*
X172489234Y-128362181D01*
X172455749Y-128300858D01*
X172460733Y-128231166D01*
X172502605Y-128175233D01*
X172568069Y-128150816D01*
X172576915Y-128150500D01*
X180472085Y-128150500D01*
X180539124Y-128170185D01*
X180559766Y-128186819D01*
X181313181Y-128940234D01*
X181346666Y-129001557D01*
X181349500Y-129027915D01*
X181349500Y-131343950D01*
X181329815Y-131410989D01*
X181277011Y-131456744D01*
X181207853Y-131466688D01*
X181144297Y-131437663D01*
X181106523Y-131378885D01*
X181102029Y-131355391D01*
X181100969Y-131343950D01*
X181095756Y-131287690D01*
X181037405Y-131082611D01*
X181037403Y-131082606D01*
X181037403Y-131082605D01*
X180942367Y-130891746D01*
X180813872Y-130721593D01*
X180656302Y-130577948D01*
X180475019Y-130465702D01*
X180475017Y-130465701D01*
X180345852Y-130415663D01*
X180276198Y-130388679D01*
X180066610Y-130349500D01*
X179853390Y-130349500D01*
X179643802Y-130388679D01*
X179643799Y-130388679D01*
X179643799Y-130388680D01*
X179444982Y-130465701D01*
X179444980Y-130465702D01*
X179263699Y-130577947D01*
X179106127Y-130721593D01*
X178977632Y-130891746D01*
X178882596Y-131082605D01*
X178882596Y-131082607D01*
X178824244Y-131287689D01*
X178808272Y-131460064D01*
X178804571Y-131500000D01*
X178824244Y-131712310D01*
X178882594Y-131917387D01*
X178882596Y-131917392D01*
X178882596Y-131917394D01*
X178977632Y-132108253D01*
X179090011Y-132257065D01*
X179106128Y-132278407D01*
X179263698Y-132422052D01*
X179444981Y-132534298D01*
X179643802Y-132611321D01*
X179853390Y-132650500D01*
X179853392Y-132650500D01*
X180066608Y-132650500D01*
X180066610Y-132650500D01*
X180276198Y-132611321D01*
X180475019Y-132534298D01*
X180656302Y-132422052D01*
X180813872Y-132278407D01*
X180942366Y-132108255D01*
X180987246Y-132018123D01*
X181037403Y-131917394D01*
X181037403Y-131917393D01*
X181037405Y-131917389D01*
X181095756Y-131712310D01*
X181102029Y-131644605D01*
X181127814Y-131579669D01*
X181184614Y-131538981D01*
X181254395Y-131535461D01*
X181315002Y-131570225D01*
X181347193Y-131632238D01*
X181349500Y-131656047D01*
X181349500Y-132394856D01*
X181349502Y-132394882D01*
X181352413Y-132419987D01*
X181352415Y-132419991D01*
X181397793Y-132522764D01*
X181397794Y-132522765D01*
X181477235Y-132602206D01*
X181580009Y-132647585D01*
X181605135Y-132650500D01*
X183394864Y-132650499D01*
X183394879Y-132650497D01*
X183394882Y-132650497D01*
X183419987Y-132647586D01*
X183419988Y-132647585D01*
X183419991Y-132647585D01*
X183522765Y-132602206D01*
X183602206Y-132522765D01*
X183647585Y-132419991D01*
X183650500Y-132394865D01*
X183650499Y-131098157D01*
X183650500Y-131098141D01*
X183650500Y-129399999D01*
X186395197Y-129399999D01*
X186395197Y-129400000D01*
X186414397Y-129766353D01*
X186471784Y-130128684D01*
X186471784Y-130128686D01*
X186566736Y-130483051D01*
X186698204Y-130825535D01*
X186864754Y-131152406D01*
X187064549Y-131460064D01*
X187221658Y-131654076D01*
X188575992Y-130299742D01*
X188679588Y-130442330D01*
X188857670Y-130620412D01*
X189000256Y-130724007D01*
X187645922Y-132078341D01*
X187839924Y-132235442D01*
X187839937Y-132235451D01*
X188147593Y-132435245D01*
X188474464Y-132601795D01*
X188816948Y-132733263D01*
X189171314Y-132828215D01*
X189533646Y-132885602D01*
X189899999Y-132904803D01*
X189900001Y-132904803D01*
X190266353Y-132885602D01*
X190628684Y-132828215D01*
X190628686Y-132828215D01*
X190983051Y-132733263D01*
X191325535Y-132601795D01*
X191652406Y-132435245D01*
X191960065Y-132235450D01*
X192154077Y-132078341D01*
X190799743Y-130724007D01*
X190942330Y-130620412D01*
X191120412Y-130442330D01*
X191224007Y-130299743D01*
X192578341Y-131654077D01*
X192735450Y-131460065D01*
X192935245Y-131152406D01*
X193101795Y-130825535D01*
X193233263Y-130483051D01*
X193328215Y-130128686D01*
X193328215Y-130128684D01*
X193385602Y-129766353D01*
X193404803Y-129400000D01*
X193404803Y-129399999D01*
X193385602Y-129033646D01*
X193328215Y-128671315D01*
X193328215Y-128671313D01*
X193233263Y-128316948D01*
X193101795Y-127974464D01*
X192935245Y-127647594D01*
X192735450Y-127339935D01*
X192578340Y-127145922D01*
X191224006Y-128500255D01*
X191120412Y-128357670D01*
X190942330Y-128179588D01*
X190799743Y-128075992D01*
X192154077Y-126721658D01*
X191960064Y-126564549D01*
X191652406Y-126364754D01*
X191325535Y-126198204D01*
X190983051Y-126066736D01*
X190628685Y-125971784D01*
X190266353Y-125914397D01*
X189900001Y-125895197D01*
X189899999Y-125895197D01*
X189533646Y-125914397D01*
X189171315Y-125971784D01*
X189171313Y-125971784D01*
X188816948Y-126066736D01*
X188474464Y-126198204D01*
X188147594Y-126364754D01*
X187839929Y-126564553D01*
X187645922Y-126721658D01*
X189000256Y-128075992D01*
X188857670Y-128179588D01*
X188679588Y-128357670D01*
X188575992Y-128500256D01*
X187221658Y-127145922D01*
X187064553Y-127339929D01*
X186864754Y-127647594D01*
X186698204Y-127974464D01*
X186566736Y-128316948D01*
X186471784Y-128671313D01*
X186471784Y-128671315D01*
X186414397Y-129033646D01*
X186395197Y-129399999D01*
X183650500Y-129399999D01*
X183650500Y-128595681D01*
X183650501Y-128595656D01*
X183650501Y-128409454D01*
X183650501Y-128409453D01*
X183622171Y-128230591D01*
X183566211Y-128058361D01*
X183536474Y-128000000D01*
X183483996Y-127897006D01*
X183483995Y-127897004D01*
X183377559Y-127750506D01*
X183377555Y-127750502D01*
X183377553Y-127750499D01*
X183249501Y-127622447D01*
X183249500Y-127622446D01*
X183246389Y-127619335D01*
X183246374Y-127619321D01*
X181881893Y-126254840D01*
X181881884Y-126254830D01*
X181825258Y-126198204D01*
X181749501Y-126122447D01*
X181749497Y-126122444D01*
X181749493Y-126122440D01*
X181602997Y-126016006D01*
X181602996Y-126016005D01*
X181602994Y-126016004D01*
X181551300Y-125989664D01*
X181441639Y-125933788D01*
X181441636Y-125933787D01*
X181269410Y-125877829D01*
X181179977Y-125863664D01*
X181090546Y-125849499D01*
X180909454Y-125849499D01*
X180904343Y-125849499D01*
X180904319Y-125849500D01*
X169595681Y-125849500D01*
X169595657Y-125849499D01*
X169590546Y-125849499D01*
X169409454Y-125849499D01*
X169404343Y-125849499D01*
X169404319Y-125849500D01*
X165774500Y-125849500D01*
X165707461Y-125829815D01*
X165661706Y-125777011D01*
X165650500Y-125725500D01*
X165650500Y-118068995D01*
X169299499Y-118068995D01*
X169326418Y-118204322D01*
X169326421Y-118204332D01*
X169379221Y-118331804D01*
X169379228Y-118331817D01*
X169455885Y-118446541D01*
X169455888Y-118446545D01*
X169553454Y-118544111D01*
X169553458Y-118544114D01*
X169668182Y-118620771D01*
X169668195Y-118620778D01*
X169795667Y-118673578D01*
X169795672Y-118673580D01*
X169795676Y-118673580D01*
X169795677Y-118673581D01*
X169931004Y-118700500D01*
X169931007Y-118700500D01*
X185568996Y-118700500D01*
X185660040Y-118682389D01*
X185704328Y-118673580D01*
X185768069Y-118647177D01*
X185831807Y-118620777D01*
X185831808Y-118620776D01*
X185831811Y-118620775D01*
X185946543Y-118544114D01*
X187544113Y-116946543D01*
X187620774Y-116831812D01*
X187620775Y-116831811D01*
X187673580Y-116704328D01*
X187700500Y-116568993D01*
X187700500Y-115431007D01*
X187700500Y-113931007D01*
X187700500Y-112431007D01*
X187700500Y-110931007D01*
X187700500Y-110931004D01*
X187673581Y-110795677D01*
X187673580Y-110795676D01*
X187673580Y-110795672D01*
X187673578Y-110795667D01*
X187620778Y-110668195D01*
X187620771Y-110668182D01*
X187544114Y-110553458D01*
X187544111Y-110553454D01*
X187446545Y-110455888D01*
X187446541Y-110455885D01*
X187331817Y-110379228D01*
X187331804Y-110379221D01*
X187204332Y-110326421D01*
X187204322Y-110326418D01*
X187068995Y-110299500D01*
X187068993Y-110299500D01*
X186931007Y-110299500D01*
X186931005Y-110299500D01*
X186795677Y-110326418D01*
X186795667Y-110326421D01*
X186668195Y-110379221D01*
X186668182Y-110379228D01*
X186553458Y-110455885D01*
X186553454Y-110455888D01*
X186455888Y-110553454D01*
X186455885Y-110553458D01*
X186379228Y-110668182D01*
X186379221Y-110668195D01*
X186326421Y-110795667D01*
X186326418Y-110795677D01*
X186299500Y-110931004D01*
X186299500Y-116158481D01*
X186279815Y-116225520D01*
X186263181Y-116246162D01*
X185246162Y-117263181D01*
X185184839Y-117296666D01*
X185158481Y-117299500D01*
X169931005Y-117299500D01*
X169795677Y-117326418D01*
X169795667Y-117326421D01*
X169668195Y-117379221D01*
X169668182Y-117379228D01*
X169553458Y-117455885D01*
X169553454Y-117455888D01*
X169455888Y-117553454D01*
X169455885Y-117553458D01*
X169379228Y-117668182D01*
X169379221Y-117668195D01*
X169326421Y-117795667D01*
X169326418Y-117795677D01*
X169299500Y-117931004D01*
X169299500Y-117931007D01*
X169299500Y-118068993D01*
X169299500Y-118068995D01*
X169299499Y-118068995D01*
X165650500Y-118068995D01*
X165650500Y-108095681D01*
X165650501Y-108095656D01*
X165650501Y-107905053D01*
X165650500Y-107905038D01*
X165650500Y-102068995D01*
X179799499Y-102068995D01*
X179826418Y-102204322D01*
X179826421Y-102204332D01*
X179879221Y-102331804D01*
X179879228Y-102331817D01*
X179955885Y-102446541D01*
X179955888Y-102446545D01*
X180053454Y-102544111D01*
X180053458Y-102544114D01*
X180168182Y-102620771D01*
X180168195Y-102620778D01*
X180295667Y-102673578D01*
X180295672Y-102673580D01*
X180295676Y-102673580D01*
X180295677Y-102673581D01*
X180431004Y-102700500D01*
X180431007Y-102700500D01*
X182931007Y-102700500D01*
X185158481Y-102700500D01*
X185225520Y-102720185D01*
X185246162Y-102736819D01*
X186263181Y-103753837D01*
X186296666Y-103815160D01*
X186299500Y-103841518D01*
X186299500Y-104431007D01*
X186299500Y-106068993D01*
X186299500Y-106068995D01*
X186299499Y-106068995D01*
X186326418Y-106204322D01*
X186326421Y-106204332D01*
X186379221Y-106331804D01*
X186379228Y-106331817D01*
X186455885Y-106446541D01*
X186455888Y-106446545D01*
X186553454Y-106544111D01*
X186553458Y-106544114D01*
X186668182Y-106620771D01*
X186668195Y-106620778D01*
X186795667Y-106673578D01*
X186795672Y-106673580D01*
X186795676Y-106673580D01*
X186795677Y-106673581D01*
X186931004Y-106700500D01*
X186931007Y-106700500D01*
X187068995Y-106700500D01*
X187160041Y-106682389D01*
X187204328Y-106673580D01*
X187331811Y-106620775D01*
X187446542Y-106544114D01*
X187544114Y-106446542D01*
X187620775Y-106331811D01*
X187673580Y-106204328D01*
X187700500Y-106068993D01*
X187700500Y-104431007D01*
X187700500Y-103431007D01*
X187700500Y-103431004D01*
X187673581Y-103295677D01*
X187673580Y-103295676D01*
X187673580Y-103295672D01*
X187673578Y-103295667D01*
X187620778Y-103168195D01*
X187620771Y-103168182D01*
X187544115Y-103053459D01*
X187544114Y-103053458D01*
X187446542Y-102955886D01*
X187111427Y-102620771D01*
X185946546Y-101455888D01*
X185946545Y-101455887D01*
X185831807Y-101379222D01*
X185704332Y-101326421D01*
X185704322Y-101326418D01*
X185568996Y-101299500D01*
X185568994Y-101299500D01*
X185568993Y-101299500D01*
X183068993Y-101299500D01*
X180431007Y-101299500D01*
X180431005Y-101299500D01*
X180295677Y-101326418D01*
X180295667Y-101326421D01*
X180168195Y-101379221D01*
X180168182Y-101379228D01*
X180053458Y-101455885D01*
X180053454Y-101455888D01*
X179955888Y-101553454D01*
X179955885Y-101553458D01*
X179879228Y-101668182D01*
X179879221Y-101668195D01*
X179826421Y-101795667D01*
X179826418Y-101795677D01*
X179799500Y-101931004D01*
X179799500Y-101931007D01*
X179799500Y-102068993D01*
X179799500Y-102068995D01*
X179799499Y-102068995D01*
X165650500Y-102068995D01*
X165650500Y-89599999D01*
X186395197Y-89599999D01*
X186395197Y-89600000D01*
X186414397Y-89966353D01*
X186471784Y-90328684D01*
X186471784Y-90328686D01*
X186566736Y-90683051D01*
X186698204Y-91025535D01*
X186864754Y-91352406D01*
X187064549Y-91660064D01*
X187221658Y-91854076D01*
X188575992Y-90499742D01*
X188679588Y-90642330D01*
X188857670Y-90820412D01*
X189000256Y-90924007D01*
X187645922Y-92278341D01*
X187839924Y-92435442D01*
X187839937Y-92435451D01*
X188147593Y-92635245D01*
X188474464Y-92801795D01*
X188816948Y-92933263D01*
X189171314Y-93028215D01*
X189533646Y-93085602D01*
X189899999Y-93104803D01*
X189900001Y-93104803D01*
X190266353Y-93085602D01*
X190628684Y-93028215D01*
X190628686Y-93028215D01*
X190983051Y-92933263D01*
X191325535Y-92801795D01*
X191652406Y-92635245D01*
X191960065Y-92435450D01*
X192154077Y-92278341D01*
X190799743Y-90924007D01*
X190942330Y-90820412D01*
X191120412Y-90642330D01*
X191224007Y-90499743D01*
X192578341Y-91854077D01*
X192735450Y-91660065D01*
X192935245Y-91352406D01*
X193101795Y-91025535D01*
X193233263Y-90683051D01*
X193328215Y-90328686D01*
X193328215Y-90328684D01*
X193385602Y-89966353D01*
X193404803Y-89600000D01*
X193404803Y-89599999D01*
X193385602Y-89233646D01*
X193328215Y-88871315D01*
X193328215Y-88871313D01*
X193233263Y-88516948D01*
X193101795Y-88174464D01*
X192935245Y-87847594D01*
X192735450Y-87539935D01*
X192578340Y-87345922D01*
X191224006Y-88700255D01*
X191120412Y-88557670D01*
X190942330Y-88379588D01*
X190799743Y-88275992D01*
X192154077Y-86921658D01*
X191960064Y-86764549D01*
X191652406Y-86564754D01*
X191325535Y-86398204D01*
X190983051Y-86266736D01*
X190628685Y-86171784D01*
X190266353Y-86114397D01*
X189900001Y-86095197D01*
X189899999Y-86095197D01*
X189533646Y-86114397D01*
X189171315Y-86171784D01*
X189171313Y-86171784D01*
X188816948Y-86266736D01*
X188474464Y-86398204D01*
X188147594Y-86564754D01*
X187839929Y-86764553D01*
X187645922Y-86921658D01*
X189000256Y-88275992D01*
X188857670Y-88379588D01*
X188679588Y-88557670D01*
X188575992Y-88700256D01*
X187221658Y-87345922D01*
X187064553Y-87539929D01*
X186864754Y-87847594D01*
X186698204Y-88174464D01*
X186566736Y-88516948D01*
X186471784Y-88871313D01*
X186471784Y-88871315D01*
X186414397Y-89233646D01*
X186395197Y-89599999D01*
X165650500Y-89599999D01*
X165650500Y-63829999D01*
X188744571Y-63829999D01*
X188744571Y-63830000D01*
X188764244Y-64042310D01*
X188822596Y-64247392D01*
X188822596Y-64247394D01*
X188917632Y-64438253D01*
X188917634Y-64438255D01*
X189046128Y-64608407D01*
X189203698Y-64752052D01*
X189384981Y-64864298D01*
X189583802Y-64941321D01*
X189780613Y-64978111D01*
X189842893Y-65009779D01*
X189878166Y-65070092D01*
X189875232Y-65139900D01*
X189835023Y-65197040D01*
X189780613Y-65221888D01*
X189583802Y-65258679D01*
X189583799Y-65258679D01*
X189583799Y-65258680D01*
X189384982Y-65335701D01*
X189384980Y-65335702D01*
X189203699Y-65447947D01*
X189046127Y-65591593D01*
X188917632Y-65761746D01*
X188822596Y-65952605D01*
X188822596Y-65952607D01*
X188764244Y-66157689D01*
X188744571Y-66369999D01*
X188744571Y-66370000D01*
X188764244Y-66582310D01*
X188822596Y-66787392D01*
X188822596Y-66787394D01*
X188917632Y-66978253D01*
X188917634Y-66978255D01*
X189046128Y-67148407D01*
X189203698Y-67292052D01*
X189384981Y-67404298D01*
X189583802Y-67481321D01*
X189780613Y-67518111D01*
X189842893Y-67549779D01*
X189878166Y-67610092D01*
X189875232Y-67679900D01*
X189835023Y-67737040D01*
X189780613Y-67761888D01*
X189583802Y-67798679D01*
X189583799Y-67798679D01*
X189583799Y-67798680D01*
X189384982Y-67875701D01*
X189384980Y-67875702D01*
X189203699Y-67987947D01*
X189046127Y-68131593D01*
X188917632Y-68301746D01*
X188822596Y-68492605D01*
X188822596Y-68492607D01*
X188764244Y-68697689D01*
X188744571Y-68909999D01*
X188744571Y-68910000D01*
X188764244Y-69122310D01*
X188822596Y-69327392D01*
X188822596Y-69327394D01*
X188917632Y-69518253D01*
X188917634Y-69518255D01*
X189046128Y-69688407D01*
X189203698Y-69832052D01*
X189384981Y-69944298D01*
X189583802Y-70021321D01*
X189793390Y-70060500D01*
X189793392Y-70060500D01*
X190006608Y-70060500D01*
X190006610Y-70060500D01*
X190216198Y-70021321D01*
X190415019Y-69944298D01*
X190596302Y-69832052D01*
X190753872Y-69688407D01*
X190882366Y-69518255D01*
X190977405Y-69327389D01*
X191035756Y-69122310D01*
X191055429Y-68910000D01*
X191035756Y-68697690D01*
X190977405Y-68492611D01*
X190977403Y-68492606D01*
X190977403Y-68492605D01*
X190882367Y-68301746D01*
X190753872Y-68131593D01*
X190596302Y-67987948D01*
X190415019Y-67875702D01*
X190415017Y-67875701D01*
X190315608Y-67837190D01*
X190216198Y-67798679D01*
X190019385Y-67761888D01*
X189957106Y-67730221D01*
X189921833Y-67669908D01*
X189924767Y-67600100D01*
X189964976Y-67542960D01*
X190019384Y-67518111D01*
X190216198Y-67481321D01*
X190415019Y-67404298D01*
X190596302Y-67292052D01*
X190753872Y-67148407D01*
X190882366Y-66978255D01*
X190977405Y-66787389D01*
X191035756Y-66582310D01*
X191055429Y-66370000D01*
X191035756Y-66157690D01*
X190977405Y-65952611D01*
X190977403Y-65952606D01*
X190977403Y-65952605D01*
X190882367Y-65761746D01*
X190753872Y-65591593D01*
X190596302Y-65447948D01*
X190415019Y-65335702D01*
X190415017Y-65335701D01*
X190315608Y-65297190D01*
X190216198Y-65258679D01*
X190019385Y-65221888D01*
X189957106Y-65190221D01*
X189921833Y-65129908D01*
X189924767Y-65060100D01*
X189964976Y-65002960D01*
X190019384Y-64978111D01*
X190216198Y-64941321D01*
X190415019Y-64864298D01*
X190596302Y-64752052D01*
X190753872Y-64608407D01*
X190882366Y-64438255D01*
X190977405Y-64247389D01*
X191035756Y-64042310D01*
X191055429Y-63830000D01*
X191035756Y-63617690D01*
X190977405Y-63412611D01*
X190977403Y-63412606D01*
X190977403Y-63412605D01*
X190882367Y-63221746D01*
X190753872Y-63051593D01*
X190596302Y-62907948D01*
X190415019Y-62795702D01*
X190415017Y-62795701D01*
X190315608Y-62757190D01*
X190216198Y-62718679D01*
X190043456Y-62686387D01*
X189981176Y-62654719D01*
X189945903Y-62594407D01*
X189948837Y-62524599D01*
X189989046Y-62467459D01*
X190053764Y-62441128D01*
X190066233Y-62440499D01*
X190794864Y-62440499D01*
X190794879Y-62440497D01*
X190794882Y-62440497D01*
X190819987Y-62437586D01*
X190819988Y-62437585D01*
X190819991Y-62437585D01*
X190922765Y-62392206D01*
X191002206Y-62312765D01*
X191047585Y-62209991D01*
X191050500Y-62184865D01*
X191050499Y-60395136D01*
X191050497Y-60395117D01*
X191047586Y-60370012D01*
X191047585Y-60370010D01*
X191047585Y-60370009D01*
X191002206Y-60267235D01*
X190922765Y-60187794D01*
X190902124Y-60178680D01*
X190819992Y-60142415D01*
X190794865Y-60139500D01*
X189005143Y-60139500D01*
X189005117Y-60139502D01*
X188980012Y-60142413D01*
X188980008Y-60142415D01*
X188877235Y-60187793D01*
X188797794Y-60267234D01*
X188752415Y-60370006D01*
X188752415Y-60370008D01*
X188749500Y-60395131D01*
X188749500Y-62184856D01*
X188749502Y-62184882D01*
X188752413Y-62209987D01*
X188752415Y-62209991D01*
X188797793Y-62312764D01*
X188797794Y-62312765D01*
X188877235Y-62392206D01*
X188980009Y-62437585D01*
X189005135Y-62440500D01*
X189733758Y-62440499D01*
X189800795Y-62460183D01*
X189846550Y-62512987D01*
X189856494Y-62582146D01*
X189827469Y-62645702D01*
X189768691Y-62683476D01*
X189756542Y-62686388D01*
X189700116Y-62696935D01*
X189583802Y-62718679D01*
X189583800Y-62718679D01*
X189583798Y-62718680D01*
X189384982Y-62795701D01*
X189384980Y-62795702D01*
X189203699Y-62907947D01*
X189046127Y-63051593D01*
X188917632Y-63221746D01*
X188822596Y-63412605D01*
X188822596Y-63412607D01*
X188764244Y-63617689D01*
X188744571Y-63829999D01*
X165650500Y-63829999D01*
X165650500Y-53595682D01*
X165650501Y-53595657D01*
X165650501Y-53409448D01*
X165622172Y-53230590D01*
X165596207Y-53150680D01*
X165566211Y-53058361D01*
X165566209Y-53058358D01*
X165566209Y-53058356D01*
X165524375Y-52976253D01*
X165483996Y-52897006D01*
X165464012Y-52869500D01*
X165377553Y-52750499D01*
X165249501Y-52622447D01*
X165249500Y-52622446D01*
X165246396Y-52619342D01*
X165246367Y-52619315D01*
X160471893Y-47844840D01*
X160471884Y-47844830D01*
X160467553Y-47840499D01*
X160339501Y-47712447D01*
X160339497Y-47712444D01*
X160339493Y-47712440D01*
X160192997Y-47606006D01*
X160192996Y-47606005D01*
X160192994Y-47606004D01*
X160116906Y-47567235D01*
X160031639Y-47523788D01*
X160031636Y-47523787D01*
X159859410Y-47467829D01*
X159698956Y-47442415D01*
X159680546Y-47439499D01*
X159499454Y-47439499D01*
X159494343Y-47439499D01*
X159494319Y-47439500D01*
X104705143Y-47439500D01*
X104705117Y-47439502D01*
X104680012Y-47442413D01*
X104680008Y-47442415D01*
X104577235Y-47487793D01*
X104497794Y-47567234D01*
X104452415Y-47670006D01*
X104452415Y-47670008D01*
X104449500Y-47695131D01*
X104449500Y-49484856D01*
X104449502Y-49484882D01*
X104452413Y-49509987D01*
X104452415Y-49509991D01*
X104497793Y-49612764D01*
X104497794Y-49612765D01*
X104577235Y-49692206D01*
X104680009Y-49737585D01*
X104705135Y-49740500D01*
X105436480Y-49740499D01*
X105503519Y-49760183D01*
X105549274Y-49812987D01*
X105559218Y-49882146D01*
X105530193Y-49945702D01*
X105471415Y-49983476D01*
X105459265Y-49986388D01*
X105283941Y-50019162D01*
X105283936Y-50019163D01*
X105085210Y-50096149D01*
X105085201Y-50096153D01*
X104904002Y-50208346D01*
X104904000Y-50208348D01*
X104746500Y-50351928D01*
X104618061Y-50522008D01*
X104523067Y-50712781D01*
X104523062Y-50712794D01*
X104489713Y-50829999D01*
X104489714Y-50830000D01*
X105195856Y-50830000D01*
X105134075Y-50937007D01*
X105100000Y-51064174D01*
X105100000Y-51195826D01*
X105134075Y-51322993D01*
X105195856Y-51430000D01*
X104489714Y-51430000D01*
X104523062Y-51547205D01*
X104523067Y-51547218D01*
X104618061Y-51737991D01*
X104746500Y-51908071D01*
X104904000Y-52051651D01*
X104904002Y-52051653D01*
X105085201Y-52163846D01*
X105085210Y-52163850D01*
X105283936Y-52240836D01*
X105283941Y-52240837D01*
X105481972Y-52277856D01*
X105544253Y-52309524D01*
X105579526Y-52369836D01*
X105576592Y-52439645D01*
X105536383Y-52496785D01*
X105481973Y-52521634D01*
X105389932Y-52538839D01*
X105283802Y-52558679D01*
X105283800Y-52558679D01*
X105283798Y-52558680D01*
X105084982Y-52635701D01*
X105084980Y-52635702D01*
X104903699Y-52747947D01*
X104746127Y-52891593D01*
X104617632Y-53061746D01*
X104522596Y-53252605D01*
X104522596Y-53252607D01*
X104464244Y-53457689D01*
X104444571Y-53669999D01*
X104444571Y-53670000D01*
X104464244Y-53882310D01*
X104522596Y-54087392D01*
X104522596Y-54087394D01*
X104617632Y-54278253D01*
X104617634Y-54278255D01*
X104746128Y-54448407D01*
X104903698Y-54592052D01*
X105084981Y-54704298D01*
X105283802Y-54781321D01*
X105480613Y-54818111D01*
X105542893Y-54849779D01*
X105578166Y-54910092D01*
X105575232Y-54979900D01*
X105535023Y-55037040D01*
X105480613Y-55061888D01*
X105283802Y-55098679D01*
X105283799Y-55098679D01*
X105283799Y-55098680D01*
X105084982Y-55175701D01*
X105084980Y-55175702D01*
X104903699Y-55287947D01*
X104746127Y-55431593D01*
X104617632Y-55601746D01*
X104522596Y-55792605D01*
X104522596Y-55792607D01*
X104464244Y-55997689D01*
X104444571Y-56209999D01*
X104444571Y-56210000D01*
X104464244Y-56422310D01*
X104522596Y-56627392D01*
X104522596Y-56627394D01*
X104617632Y-56818253D01*
X104617634Y-56818255D01*
X104746128Y-56988407D01*
X104903698Y-57132052D01*
X105084981Y-57244298D01*
X105283802Y-57321321D01*
X105480613Y-57358111D01*
X105542893Y-57389779D01*
X105578166Y-57450092D01*
X105575232Y-57519900D01*
X105535023Y-57577040D01*
X105480613Y-57601888D01*
X105283802Y-57638679D01*
X105283799Y-57638679D01*
X105283799Y-57638680D01*
X105084982Y-57715701D01*
X105084980Y-57715702D01*
X104903699Y-57827947D01*
X104746127Y-57971593D01*
X104617632Y-58141746D01*
X104522596Y-58332605D01*
X104522596Y-58332607D01*
X104464244Y-58537689D01*
X104444571Y-58749999D01*
X104444571Y-58750000D01*
X104464244Y-58962310D01*
X104522596Y-59167392D01*
X104522596Y-59167394D01*
X104617632Y-59358253D01*
X104617634Y-59358255D01*
X104746128Y-59528407D01*
X104903698Y-59672052D01*
X105084981Y-59784298D01*
X105283802Y-59861321D01*
X105480613Y-59898111D01*
X105542893Y-59929779D01*
X105578166Y-59990092D01*
X105575232Y-60059900D01*
X105535023Y-60117040D01*
X105480613Y-60141888D01*
X105283802Y-60178679D01*
X105283799Y-60178679D01*
X105283799Y-60178680D01*
X105084982Y-60255701D01*
X105084980Y-60255702D01*
X104903699Y-60367947D01*
X104746127Y-60511593D01*
X104617632Y-60681746D01*
X104522596Y-60872605D01*
X104522596Y-60872607D01*
X104464244Y-61077689D01*
X104444571Y-61289999D01*
X104444571Y-61290000D01*
X104464244Y-61502310D01*
X104522596Y-61707392D01*
X104522596Y-61707394D01*
X104617632Y-61898253D01*
X104617634Y-61898255D01*
X104746128Y-62068407D01*
X104903698Y-62212052D01*
X105084981Y-62324298D01*
X105283802Y-62401321D01*
X105480613Y-62438111D01*
X105542893Y-62469779D01*
X105578166Y-62530092D01*
X105575232Y-62599900D01*
X105535023Y-62657040D01*
X105480613Y-62681888D01*
X105283802Y-62718679D01*
X105283799Y-62718679D01*
X105283799Y-62718680D01*
X105084982Y-62795701D01*
X105084980Y-62795702D01*
X104903699Y-62907947D01*
X104746127Y-63051593D01*
X104617632Y-63221746D01*
X104522596Y-63412605D01*
X104522596Y-63412607D01*
X104464244Y-63617689D01*
X104444571Y-63829999D01*
X104444571Y-63830000D01*
X104464244Y-64042310D01*
X104522596Y-64247392D01*
X104522596Y-64247394D01*
X104617632Y-64438253D01*
X104617634Y-64438255D01*
X104746128Y-64608407D01*
X104903698Y-64752052D01*
X105084981Y-64864298D01*
X105283802Y-64941321D01*
X105480613Y-64978111D01*
X105542893Y-65009779D01*
X105578166Y-65070092D01*
X105575232Y-65139900D01*
X105535023Y-65197040D01*
X105480613Y-65221888D01*
X105283802Y-65258679D01*
X105283799Y-65258679D01*
X105283799Y-65258680D01*
X105084982Y-65335701D01*
X105084980Y-65335702D01*
X104903699Y-65447947D01*
X104746127Y-65591593D01*
X104617632Y-65761746D01*
X104522596Y-65952605D01*
X104522596Y-65952607D01*
X104464244Y-66157689D01*
X104444571Y-66369999D01*
X104444571Y-66370000D01*
X104464244Y-66582310D01*
X104522596Y-66787392D01*
X104522596Y-66787394D01*
X104617632Y-66978253D01*
X104617634Y-66978255D01*
X104746128Y-67148407D01*
X104903698Y-67292052D01*
X105084981Y-67404298D01*
X105283802Y-67481321D01*
X105480613Y-67518111D01*
X105542893Y-67549779D01*
X105578166Y-67610092D01*
X105575232Y-67679900D01*
X105535023Y-67737040D01*
X105480613Y-67761888D01*
X105283802Y-67798679D01*
X105283799Y-67798679D01*
X105283799Y-67798680D01*
X105084982Y-67875701D01*
X105084980Y-67875702D01*
X104903699Y-67987947D01*
X104746127Y-68131593D01*
X104617632Y-68301746D01*
X104522596Y-68492605D01*
X104522596Y-68492607D01*
X104464244Y-68697689D01*
X104444571Y-68909999D01*
X104444571Y-68910000D01*
X104464244Y-69122310D01*
X104522596Y-69327392D01*
X104522596Y-69327394D01*
X104617632Y-69518253D01*
X104617634Y-69518255D01*
X104746128Y-69688407D01*
X104903698Y-69832052D01*
X105084981Y-69944298D01*
X105283802Y-70021321D01*
X105480613Y-70058111D01*
X105542893Y-70089779D01*
X105578166Y-70150092D01*
X105575232Y-70219900D01*
X105535023Y-70277040D01*
X105480613Y-70301888D01*
X105283802Y-70338679D01*
X105283799Y-70338679D01*
X105283799Y-70338680D01*
X105084982Y-70415701D01*
X105084980Y-70415702D01*
X104903699Y-70527947D01*
X104746127Y-70671593D01*
X104617632Y-70841746D01*
X104522596Y-71032605D01*
X104522596Y-71032607D01*
X104464244Y-71237689D01*
X104444571Y-71449999D01*
X104444571Y-71450000D01*
X104464244Y-71662310D01*
X104522596Y-71867392D01*
X104522596Y-71867394D01*
X104617632Y-72058253D01*
X104617634Y-72058255D01*
X104746128Y-72228407D01*
X104903698Y-72372052D01*
X105084981Y-72484298D01*
X105283802Y-72561321D01*
X105480613Y-72598111D01*
X105542893Y-72629779D01*
X105578166Y-72690092D01*
X105575232Y-72759900D01*
X105535023Y-72817040D01*
X105480613Y-72841888D01*
X105283802Y-72878679D01*
X105283799Y-72878679D01*
X105283799Y-72878680D01*
X105084982Y-72955701D01*
X105084980Y-72955702D01*
X104903699Y-73067947D01*
X104746127Y-73211593D01*
X104617632Y-73381746D01*
X104522596Y-73572605D01*
X104522596Y-73572607D01*
X104464244Y-73777689D01*
X104444571Y-73989999D01*
X104444571Y-73990000D01*
X104464244Y-74202310D01*
X104522596Y-74407392D01*
X104522596Y-74407394D01*
X104617632Y-74598253D01*
X104617634Y-74598255D01*
X104746128Y-74768407D01*
X104903698Y-74912052D01*
X105084981Y-75024298D01*
X105283802Y-75101321D01*
X105480613Y-75138111D01*
X105542893Y-75169779D01*
X105578166Y-75230092D01*
X105575232Y-75299900D01*
X105535023Y-75357040D01*
X105480613Y-75381888D01*
X105283802Y-75418679D01*
X105283799Y-75418679D01*
X105283799Y-75418680D01*
X105084982Y-75495701D01*
X105084980Y-75495702D01*
X104903699Y-75607947D01*
X104746127Y-75751593D01*
X104617632Y-75921746D01*
X104522596Y-76112605D01*
X104522596Y-76112607D01*
X104464244Y-76317689D01*
X104444571Y-76529999D01*
X104444571Y-76530000D01*
X104464244Y-76742310D01*
X104522596Y-76947392D01*
X104522596Y-76947394D01*
X104617632Y-77138253D01*
X104617634Y-77138255D01*
X104746128Y-77308407D01*
X104903698Y-77452052D01*
X105084981Y-77564298D01*
X105283802Y-77641321D01*
X105480613Y-77678111D01*
X105542893Y-77709779D01*
X105578166Y-77770092D01*
X105575232Y-77839900D01*
X105535023Y-77897040D01*
X105480613Y-77921888D01*
X105283802Y-77958679D01*
X105283799Y-77958679D01*
X105283799Y-77958680D01*
X105084982Y-78035701D01*
X105084980Y-78035702D01*
X104903699Y-78147947D01*
X104746127Y-78291593D01*
X104617632Y-78461746D01*
X104522596Y-78652605D01*
X104522596Y-78652607D01*
X104464244Y-78857689D01*
X104444571Y-79069999D01*
X104444571Y-79070000D01*
X104464244Y-79282310D01*
X104522596Y-79487392D01*
X104522596Y-79487394D01*
X104617632Y-79678253D01*
X104617634Y-79678255D01*
X104746128Y-79848407D01*
X104903698Y-79992052D01*
X105084981Y-80104298D01*
X105283802Y-80181321D01*
X105480613Y-80218111D01*
X105542893Y-80249779D01*
X105578166Y-80310092D01*
X105575232Y-80379900D01*
X105535023Y-80437040D01*
X105480613Y-80461888D01*
X105283802Y-80498679D01*
X105283799Y-80498679D01*
X105283799Y-80498680D01*
X105084982Y-80575701D01*
X105084980Y-80575702D01*
X104903699Y-80687947D01*
X104746127Y-80831593D01*
X104617632Y-81001746D01*
X104522596Y-81192605D01*
X104522596Y-81192607D01*
X104464244Y-81397689D01*
X104444571Y-81609999D01*
X104444571Y-81610000D01*
X104464244Y-81822310D01*
X104522596Y-82027392D01*
X104522596Y-82027394D01*
X104617632Y-82218253D01*
X104617634Y-82218255D01*
X104746128Y-82388407D01*
X104903698Y-82532052D01*
X105084981Y-82644298D01*
X105283802Y-82721321D01*
X105493390Y-82760500D01*
X105493392Y-82760500D01*
X105706608Y-82760500D01*
X105706610Y-82760500D01*
X105916198Y-82721321D01*
X106115019Y-82644298D01*
X106296302Y-82532052D01*
X106453872Y-82388407D01*
X106582366Y-82218255D01*
X106677405Y-82027389D01*
X106735756Y-81822310D01*
X106755429Y-81610000D01*
X106735756Y-81397690D01*
X106677405Y-81192611D01*
X106677403Y-81192606D01*
X106677403Y-81192605D01*
X106582367Y-81001746D01*
X106453872Y-80831593D01*
X106296302Y-80687948D01*
X106115019Y-80575702D01*
X106115017Y-80575701D01*
X106015608Y-80537190D01*
X105916198Y-80498679D01*
X105719385Y-80461888D01*
X105657106Y-80430221D01*
X105621833Y-80369908D01*
X105624767Y-80300100D01*
X105664976Y-80242960D01*
X105719384Y-80218111D01*
X105916198Y-80181321D01*
X106115019Y-80104298D01*
X106296302Y-79992052D01*
X106453872Y-79848407D01*
X106582366Y-79678255D01*
X106677405Y-79487389D01*
X106735756Y-79282310D01*
X106755429Y-79070000D01*
X106735756Y-78857690D01*
X106677405Y-78652611D01*
X106677403Y-78652606D01*
X106677403Y-78652605D01*
X106582367Y-78461746D01*
X106453872Y-78291593D01*
X106296302Y-78147948D01*
X106115019Y-78035702D01*
X106115017Y-78035701D01*
X106015608Y-77997190D01*
X105916198Y-77958679D01*
X105719385Y-77921888D01*
X105657106Y-77890221D01*
X105621833Y-77829908D01*
X105624767Y-77760100D01*
X105664976Y-77702960D01*
X105719384Y-77678111D01*
X105916198Y-77641321D01*
X106115019Y-77564298D01*
X106296302Y-77452052D01*
X106453872Y-77308407D01*
X106582366Y-77138255D01*
X106677405Y-76947389D01*
X106735756Y-76742310D01*
X106755429Y-76530000D01*
X106735756Y-76317690D01*
X106677405Y-76112611D01*
X106677403Y-76112606D01*
X106677403Y-76112605D01*
X106582367Y-75921746D01*
X106453872Y-75751593D01*
X106296302Y-75607948D01*
X106115019Y-75495702D01*
X106115017Y-75495701D01*
X106015608Y-75457190D01*
X105916198Y-75418679D01*
X105719385Y-75381888D01*
X105657106Y-75350221D01*
X105621833Y-75289908D01*
X105624767Y-75220100D01*
X105664976Y-75162960D01*
X105719384Y-75138111D01*
X105916198Y-75101321D01*
X106115019Y-75024298D01*
X106296302Y-74912052D01*
X106453872Y-74768407D01*
X106582366Y-74598255D01*
X106677405Y-74407389D01*
X106735756Y-74202310D01*
X106755429Y-73990000D01*
X106735756Y-73777690D01*
X106677405Y-73572611D01*
X106677403Y-73572606D01*
X106677403Y-73572605D01*
X106582367Y-73381746D01*
X106453872Y-73211593D01*
X106296302Y-73067948D01*
X106115019Y-72955702D01*
X106115017Y-72955701D01*
X106015608Y-72917190D01*
X105916198Y-72878679D01*
X105719385Y-72841888D01*
X105657106Y-72810221D01*
X105621833Y-72749908D01*
X105624767Y-72680100D01*
X105664976Y-72622960D01*
X105719384Y-72598111D01*
X105916198Y-72561321D01*
X106115019Y-72484298D01*
X106296302Y-72372052D01*
X106453872Y-72228407D01*
X106582366Y-72058255D01*
X106677405Y-71867389D01*
X106735756Y-71662310D01*
X106755429Y-71450000D01*
X106735756Y-71237690D01*
X106677405Y-71032611D01*
X106677403Y-71032606D01*
X106677403Y-71032605D01*
X106582367Y-70841746D01*
X106453872Y-70671593D01*
X106296302Y-70527948D01*
X106115019Y-70415702D01*
X106115017Y-70415701D01*
X106015608Y-70377190D01*
X105916198Y-70338679D01*
X105719385Y-70301888D01*
X105657106Y-70270221D01*
X105621833Y-70209908D01*
X105624767Y-70140100D01*
X105664976Y-70082960D01*
X105719384Y-70058111D01*
X105916198Y-70021321D01*
X106115019Y-69944298D01*
X106296302Y-69832052D01*
X106453872Y-69688407D01*
X106582366Y-69518255D01*
X106677405Y-69327389D01*
X106735756Y-69122310D01*
X106755429Y-68910000D01*
X106735756Y-68697690D01*
X106677405Y-68492611D01*
X106677403Y-68492606D01*
X106677403Y-68492605D01*
X106582367Y-68301746D01*
X106453872Y-68131593D01*
X106296302Y-67987948D01*
X106115019Y-67875702D01*
X106115017Y-67875701D01*
X106015608Y-67837190D01*
X105916198Y-67798679D01*
X105719385Y-67761888D01*
X105657106Y-67730221D01*
X105621833Y-67669908D01*
X105624767Y-67600100D01*
X105664976Y-67542960D01*
X105719384Y-67518111D01*
X105916198Y-67481321D01*
X106115019Y-67404298D01*
X106296302Y-67292052D01*
X106453872Y-67148407D01*
X106582366Y-66978255D01*
X106677405Y-66787389D01*
X106735756Y-66582310D01*
X106755429Y-66370000D01*
X106735756Y-66157690D01*
X106677405Y-65952611D01*
X106677403Y-65952606D01*
X106677403Y-65952605D01*
X106582367Y-65761746D01*
X106453872Y-65591593D01*
X106296302Y-65447948D01*
X106115019Y-65335702D01*
X106115017Y-65335701D01*
X106015608Y-65297190D01*
X105916198Y-65258679D01*
X105719385Y-65221888D01*
X105657106Y-65190221D01*
X105621833Y-65129908D01*
X105624767Y-65060100D01*
X105664976Y-65002960D01*
X105719384Y-64978111D01*
X105916198Y-64941321D01*
X106115019Y-64864298D01*
X106296302Y-64752052D01*
X106453872Y-64608407D01*
X106582366Y-64438255D01*
X106677405Y-64247389D01*
X106735756Y-64042310D01*
X106755429Y-63830000D01*
X106735756Y-63617690D01*
X106677405Y-63412611D01*
X106677403Y-63412606D01*
X106677403Y-63412605D01*
X106582367Y-63221746D01*
X106453872Y-63051593D01*
X106296302Y-62907948D01*
X106115019Y-62795702D01*
X106115017Y-62795701D01*
X106015608Y-62757190D01*
X105916198Y-62718679D01*
X105719385Y-62681888D01*
X105657106Y-62650221D01*
X105621833Y-62589908D01*
X105624767Y-62520100D01*
X105664976Y-62462960D01*
X105719384Y-62438111D01*
X105916198Y-62401321D01*
X106115019Y-62324298D01*
X106296302Y-62212052D01*
X106453872Y-62068407D01*
X106582366Y-61898255D01*
X106677405Y-61707389D01*
X106735756Y-61502310D01*
X106755429Y-61290000D01*
X106735756Y-61077690D01*
X106677405Y-60872611D01*
X106677403Y-60872606D01*
X106677403Y-60872605D01*
X106582367Y-60681746D01*
X106453872Y-60511593D01*
X106326133Y-60395143D01*
X106296302Y-60367948D01*
X106115019Y-60255702D01*
X106115017Y-60255701D01*
X106015608Y-60217190D01*
X105916198Y-60178679D01*
X105719385Y-60141888D01*
X105657106Y-60110221D01*
X105621833Y-60049908D01*
X105624767Y-59980100D01*
X105664976Y-59922960D01*
X105719384Y-59898111D01*
X105916198Y-59861321D01*
X106115019Y-59784298D01*
X106296302Y-59672052D01*
X106453872Y-59528407D01*
X106582366Y-59358255D01*
X106677405Y-59167389D01*
X106735756Y-58962310D01*
X106755429Y-58750000D01*
X106735756Y-58537690D01*
X106677405Y-58332611D01*
X106677403Y-58332606D01*
X106677403Y-58332605D01*
X106582367Y-58141746D01*
X106453872Y-57971593D01*
X106296302Y-57827948D01*
X106115019Y-57715702D01*
X106115017Y-57715701D01*
X106015608Y-57677190D01*
X105916198Y-57638679D01*
X105719385Y-57601888D01*
X105657106Y-57570221D01*
X105621833Y-57509908D01*
X105624767Y-57440100D01*
X105664976Y-57382960D01*
X105719384Y-57358111D01*
X105916198Y-57321321D01*
X106115019Y-57244298D01*
X106296302Y-57132052D01*
X106453872Y-56988407D01*
X106582366Y-56818255D01*
X106677405Y-56627389D01*
X106735756Y-56422310D01*
X106755429Y-56210000D01*
X106735756Y-55997690D01*
X106677405Y-55792611D01*
X106677403Y-55792606D01*
X106677403Y-55792605D01*
X106582367Y-55601746D01*
X106453872Y-55431593D01*
X106296302Y-55287948D01*
X106115019Y-55175702D01*
X106115017Y-55175701D01*
X106015608Y-55137190D01*
X105916198Y-55098679D01*
X105719385Y-55061888D01*
X105657106Y-55030221D01*
X105621833Y-54969908D01*
X105624767Y-54900100D01*
X105664976Y-54842960D01*
X105719384Y-54818111D01*
X105916198Y-54781321D01*
X106115019Y-54704298D01*
X106296302Y-54592052D01*
X106453872Y-54448407D01*
X106582366Y-54278255D01*
X106677405Y-54087389D01*
X106735756Y-53882310D01*
X106755429Y-53670000D01*
X106735756Y-53457690D01*
X106677405Y-53252611D01*
X106677403Y-53252606D01*
X106677403Y-53252605D01*
X106582367Y-53061746D01*
X106453872Y-52891593D01*
X106429637Y-52869500D01*
X106296302Y-52747948D01*
X106115019Y-52635702D01*
X106115017Y-52635701D01*
X105916201Y-52558680D01*
X105916200Y-52558679D01*
X105916198Y-52558679D01*
X105718026Y-52521634D01*
X105655746Y-52489965D01*
X105620473Y-52429653D01*
X105623407Y-52359845D01*
X105663616Y-52302705D01*
X105718027Y-52277856D01*
X105916058Y-52240837D01*
X105916063Y-52240836D01*
X106114789Y-52163850D01*
X106114798Y-52163846D01*
X106295997Y-52051653D01*
X106295999Y-52051651D01*
X106453499Y-51908071D01*
X106581938Y-51737991D01*
X106676932Y-51547218D01*
X106676937Y-51547205D01*
X106710286Y-51430000D01*
X106004144Y-51430000D01*
X106065925Y-51322993D01*
X106100000Y-51195826D01*
X106100000Y-51064174D01*
X106065925Y-50937007D01*
X106004144Y-50830000D01*
X106710286Y-50830000D01*
X106710286Y-50829999D01*
X106676937Y-50712794D01*
X106676932Y-50712781D01*
X106581938Y-50522008D01*
X106453499Y-50351928D01*
X106295999Y-50208348D01*
X106295997Y-50208346D01*
X106114798Y-50096153D01*
X106114789Y-50096149D01*
X105916063Y-50019163D01*
X105916058Y-50019162D01*
X105740739Y-49986389D01*
X105678458Y-49954721D01*
X105643185Y-49894408D01*
X105646119Y-49824600D01*
X105686328Y-49767460D01*
X105751046Y-49741129D01*
X105763524Y-49740500D01*
X159062085Y-49740500D01*
X159129124Y-49760185D01*
X159149766Y-49776819D01*
X163313181Y-53940233D01*
X163346666Y-54001556D01*
X163349500Y-54027914D01*
X163349500Y-104923085D01*
X163329815Y-104990124D01*
X163277011Y-105035879D01*
X163207853Y-105045823D01*
X163144297Y-105016798D01*
X163137819Y-105010766D01*
X160881893Y-102754840D01*
X160881884Y-102754830D01*
X160827554Y-102700500D01*
X160749501Y-102622447D01*
X160749497Y-102622444D01*
X160749493Y-102622440D01*
X160602997Y-102516006D01*
X160602996Y-102516005D01*
X160602994Y-102516004D01*
X160551300Y-102489664D01*
X160441639Y-102433788D01*
X160441636Y-102433787D01*
X160269410Y-102377829D01*
X160179977Y-102363664D01*
X160090546Y-102349499D01*
X159909454Y-102349499D01*
X159904343Y-102349499D01*
X159904319Y-102349500D01*
X112527914Y-102349500D01*
X112460875Y-102329815D01*
X112440233Y-102313181D01*
X109156819Y-99029766D01*
X109123334Y-98968443D01*
X109120500Y-98942085D01*
X109120500Y-95506053D01*
X109140185Y-95439014D01*
X109192989Y-95393259D01*
X109262147Y-95383315D01*
X109325703Y-95412340D01*
X109363477Y-95471118D01*
X109367970Y-95494611D01*
X109374244Y-95562310D01*
X109427675Y-95750099D01*
X109432596Y-95767392D01*
X109432596Y-95767394D01*
X109527632Y-95958253D01*
X109527634Y-95958255D01*
X109656128Y-96128407D01*
X109813698Y-96272052D01*
X109994981Y-96384298D01*
X110193802Y-96461321D01*
X110403390Y-96500500D01*
X110403392Y-96500500D01*
X110616608Y-96500500D01*
X110616610Y-96500500D01*
X110826198Y-96461321D01*
X111025019Y-96384298D01*
X111206302Y-96272052D01*
X111363872Y-96128407D01*
X111492366Y-95958255D01*
X111546270Y-95850000D01*
X111587403Y-95767394D01*
X111587403Y-95767393D01*
X111587405Y-95767389D01*
X111645756Y-95562310D01*
X111656529Y-95446047D01*
X111682315Y-95381111D01*
X111724622Y-95350804D01*
X111833130Y-95350804D01*
X111869503Y-95371668D01*
X111901693Y-95433681D01*
X111903470Y-95446047D01*
X111914244Y-95562310D01*
X111967675Y-95750099D01*
X111972596Y-95767392D01*
X111972596Y-95767394D01*
X112067632Y-95958253D01*
X112067634Y-95958255D01*
X112196128Y-96128407D01*
X112353698Y-96272052D01*
X112534981Y-96384298D01*
X112733802Y-96461321D01*
X112943390Y-96500500D01*
X112943392Y-96500500D01*
X113156608Y-96500500D01*
X113156610Y-96500500D01*
X113366198Y-96461321D01*
X113565019Y-96384298D01*
X113746302Y-96272052D01*
X113903872Y-96128407D01*
X114032366Y-95958255D01*
X114086270Y-95850000D01*
X114127403Y-95767394D01*
X114127403Y-95767393D01*
X114127405Y-95767389D01*
X114185756Y-95562310D01*
X114196529Y-95446047D01*
X114222315Y-95381111D01*
X114264622Y-95350804D01*
X114373130Y-95350804D01*
X114409503Y-95371668D01*
X114441693Y-95433681D01*
X114443470Y-95446047D01*
X114454244Y-95562310D01*
X114507675Y-95750099D01*
X114512596Y-95767392D01*
X114512596Y-95767394D01*
X114607632Y-95958253D01*
X114607634Y-95958255D01*
X114736128Y-96128407D01*
X114893698Y-96272052D01*
X115074981Y-96384298D01*
X115273802Y-96461321D01*
X115483390Y-96500500D01*
X115483392Y-96500500D01*
X115696608Y-96500500D01*
X115696610Y-96500500D01*
X115906198Y-96461321D01*
X116105019Y-96384298D01*
X116286302Y-96272052D01*
X116443872Y-96128407D01*
X116572366Y-95958255D01*
X116626270Y-95850000D01*
X116667403Y-95767394D01*
X116667403Y-95767393D01*
X116667405Y-95767389D01*
X116725756Y-95562310D01*
X116736529Y-95446047D01*
X116762315Y-95381111D01*
X116804622Y-95350804D01*
X116913130Y-95350804D01*
X116949503Y-95371668D01*
X116981693Y-95433681D01*
X116983470Y-95446047D01*
X116994244Y-95562310D01*
X117047675Y-95750099D01*
X117052596Y-95767392D01*
X117052596Y-95767394D01*
X117147632Y-95958253D01*
X117147634Y-95958255D01*
X117276128Y-96128407D01*
X117433698Y-96272052D01*
X117614981Y-96384298D01*
X117813802Y-96461321D01*
X118023390Y-96500500D01*
X118023392Y-96500500D01*
X118236608Y-96500500D01*
X118236610Y-96500500D01*
X118446198Y-96461321D01*
X118645019Y-96384298D01*
X118826302Y-96272052D01*
X118983872Y-96128407D01*
X119112366Y-95958255D01*
X119166270Y-95850000D01*
X119207403Y-95767394D01*
X119207403Y-95767393D01*
X119207405Y-95767389D01*
X119265756Y-95562310D01*
X119276529Y-95446047D01*
X119302315Y-95381111D01*
X119344622Y-95350804D01*
X119453130Y-95350804D01*
X119489503Y-95371668D01*
X119521693Y-95433681D01*
X119523470Y-95446047D01*
X119534244Y-95562310D01*
X119587675Y-95750099D01*
X119592596Y-95767392D01*
X119592596Y-95767394D01*
X119687632Y-95958253D01*
X119687634Y-95958255D01*
X119816128Y-96128407D01*
X119973698Y-96272052D01*
X120154981Y-96384298D01*
X120353802Y-96461321D01*
X120563390Y-96500500D01*
X120563392Y-96500500D01*
X120776608Y-96500500D01*
X120776610Y-96500500D01*
X120986198Y-96461321D01*
X121185019Y-96384298D01*
X121366302Y-96272052D01*
X121523872Y-96128407D01*
X121652366Y-95958255D01*
X121706270Y-95850000D01*
X121747403Y-95767394D01*
X121747403Y-95767393D01*
X121747405Y-95767389D01*
X121805756Y-95562310D01*
X121816529Y-95446047D01*
X121842315Y-95381111D01*
X121884622Y-95350804D01*
X121993130Y-95350804D01*
X122029503Y-95371668D01*
X122061693Y-95433681D01*
X122063470Y-95446047D01*
X122074244Y-95562310D01*
X122127675Y-95750099D01*
X122132596Y-95767392D01*
X122132596Y-95767394D01*
X122227632Y-95958253D01*
X122227634Y-95958255D01*
X122356128Y-96128407D01*
X122513698Y-96272052D01*
X122694981Y-96384298D01*
X122893802Y-96461321D01*
X123103390Y-96500500D01*
X123103392Y-96500500D01*
X123316608Y-96500500D01*
X123316610Y-96500500D01*
X123526198Y-96461321D01*
X123725019Y-96384298D01*
X123906302Y-96272052D01*
X124063872Y-96128407D01*
X124192366Y-95958255D01*
X124246270Y-95850000D01*
X124287403Y-95767394D01*
X124287403Y-95767393D01*
X124287405Y-95767389D01*
X124345756Y-95562310D01*
X124356529Y-95446047D01*
X124382315Y-95381111D01*
X124424622Y-95350804D01*
X124533130Y-95350804D01*
X124569503Y-95371668D01*
X124601693Y-95433681D01*
X124603470Y-95446047D01*
X124614244Y-95562310D01*
X124667675Y-95750099D01*
X124672596Y-95767392D01*
X124672596Y-95767394D01*
X124767632Y-95958253D01*
X124767634Y-95958255D01*
X124896128Y-96128407D01*
X125053698Y-96272052D01*
X125234981Y-96384298D01*
X125433802Y-96461321D01*
X125643390Y-96500500D01*
X125643392Y-96500500D01*
X125856608Y-96500500D01*
X125856610Y-96500500D01*
X126066198Y-96461321D01*
X126265019Y-96384298D01*
X126446302Y-96272052D01*
X126603872Y-96128407D01*
X126732366Y-95958255D01*
X126786270Y-95850000D01*
X126827403Y-95767394D01*
X126827403Y-95767393D01*
X126827405Y-95767389D01*
X126885756Y-95562310D01*
X126896529Y-95446047D01*
X126922315Y-95381111D01*
X126964622Y-95350804D01*
X127073130Y-95350804D01*
X127109503Y-95371668D01*
X127141693Y-95433681D01*
X127143470Y-95446047D01*
X127154244Y-95562310D01*
X127207675Y-95750099D01*
X127212596Y-95767392D01*
X127212596Y-95767394D01*
X127307632Y-95958253D01*
X127307634Y-95958255D01*
X127436128Y-96128407D01*
X127593698Y-96272052D01*
X127774981Y-96384298D01*
X127973802Y-96461321D01*
X128183390Y-96500500D01*
X128183392Y-96500500D01*
X128396608Y-96500500D01*
X128396610Y-96500500D01*
X128606198Y-96461321D01*
X128805019Y-96384298D01*
X128986302Y-96272052D01*
X129143872Y-96128407D01*
X129272366Y-95958255D01*
X129326270Y-95850000D01*
X129367403Y-95767394D01*
X129367403Y-95767393D01*
X129367405Y-95767389D01*
X129425756Y-95562310D01*
X129436529Y-95446047D01*
X129462315Y-95381111D01*
X129504622Y-95350804D01*
X129613130Y-95350804D01*
X129649503Y-95371668D01*
X129681693Y-95433681D01*
X129683470Y-95446047D01*
X129694244Y-95562310D01*
X129747675Y-95750099D01*
X129752596Y-95767392D01*
X129752596Y-95767394D01*
X129847632Y-95958253D01*
X129847634Y-95958255D01*
X129976128Y-96128407D01*
X130133698Y-96272052D01*
X130314981Y-96384298D01*
X130513802Y-96461321D01*
X130723390Y-96500500D01*
X130723392Y-96500500D01*
X130936608Y-96500500D01*
X130936610Y-96500500D01*
X131146198Y-96461321D01*
X131345019Y-96384298D01*
X131526302Y-96272052D01*
X131683872Y-96128407D01*
X131812366Y-95958255D01*
X131866270Y-95850000D01*
X131907403Y-95767394D01*
X131907403Y-95767393D01*
X131907405Y-95767389D01*
X131965756Y-95562310D01*
X131976529Y-95446047D01*
X132002315Y-95381111D01*
X132044622Y-95350804D01*
X132153130Y-95350804D01*
X132189503Y-95371668D01*
X132221693Y-95433681D01*
X132223470Y-95446047D01*
X132234244Y-95562310D01*
X132287675Y-95750099D01*
X132292596Y-95767392D01*
X132292596Y-95767394D01*
X132387632Y-95958253D01*
X132387634Y-95958255D01*
X132516128Y-96128407D01*
X132673698Y-96272052D01*
X132854981Y-96384298D01*
X133053802Y-96461321D01*
X133263390Y-96500500D01*
X133263392Y-96500500D01*
X133476608Y-96500500D01*
X133476610Y-96500500D01*
X133686198Y-96461321D01*
X133885019Y-96384298D01*
X134066302Y-96272052D01*
X134223872Y-96128407D01*
X134352366Y-95958255D01*
X134406270Y-95850000D01*
X134447403Y-95767394D01*
X134447403Y-95767393D01*
X134447405Y-95767389D01*
X134505756Y-95562310D01*
X134516529Y-95446047D01*
X134542315Y-95381111D01*
X134584622Y-95350804D01*
X134693130Y-95350804D01*
X134729503Y-95371668D01*
X134761693Y-95433681D01*
X134763470Y-95446047D01*
X134774244Y-95562310D01*
X134827675Y-95750099D01*
X134832596Y-95767392D01*
X134832596Y-95767394D01*
X134927632Y-95958253D01*
X134927634Y-95958255D01*
X135056128Y-96128407D01*
X135213698Y-96272052D01*
X135394981Y-96384298D01*
X135593802Y-96461321D01*
X135803390Y-96500500D01*
X135803392Y-96500500D01*
X136016608Y-96500500D01*
X136016610Y-96500500D01*
X136226198Y-96461321D01*
X136425019Y-96384298D01*
X136606302Y-96272052D01*
X136763872Y-96128407D01*
X136892366Y-95958255D01*
X136946270Y-95850000D01*
X136987403Y-95767394D01*
X136987403Y-95767393D01*
X136987405Y-95767389D01*
X137045756Y-95562310D01*
X137056529Y-95446047D01*
X137082315Y-95381111D01*
X137124622Y-95350804D01*
X137233130Y-95350804D01*
X137269503Y-95371668D01*
X137301693Y-95433681D01*
X137303470Y-95446047D01*
X137314244Y-95562310D01*
X137367675Y-95750099D01*
X137372596Y-95767392D01*
X137372596Y-95767394D01*
X137467632Y-95958253D01*
X137467634Y-95958255D01*
X137596128Y-96128407D01*
X137753698Y-96272052D01*
X137934981Y-96384298D01*
X138133802Y-96461321D01*
X138343390Y-96500500D01*
X138343392Y-96500500D01*
X138556608Y-96500500D01*
X138556610Y-96500500D01*
X138766198Y-96461321D01*
X138965019Y-96384298D01*
X139146302Y-96272052D01*
X139303872Y-96128407D01*
X139432366Y-95958255D01*
X139486270Y-95850000D01*
X139527403Y-95767394D01*
X139527403Y-95767393D01*
X139527405Y-95767389D01*
X139585756Y-95562310D01*
X139596529Y-95446047D01*
X139622315Y-95381111D01*
X139664622Y-95350804D01*
X139773130Y-95350804D01*
X139809503Y-95371668D01*
X139841693Y-95433681D01*
X139843470Y-95446047D01*
X139854244Y-95562310D01*
X139907675Y-95750099D01*
X139912596Y-95767392D01*
X139912596Y-95767394D01*
X140007632Y-95958253D01*
X140007634Y-95958255D01*
X140136128Y-96128407D01*
X140293698Y-96272052D01*
X140474981Y-96384298D01*
X140673802Y-96461321D01*
X140883390Y-96500500D01*
X140883392Y-96500500D01*
X141096608Y-96500500D01*
X141096610Y-96500500D01*
X141306198Y-96461321D01*
X141505019Y-96384298D01*
X141686302Y-96272052D01*
X141843872Y-96128407D01*
X141972366Y-95958255D01*
X142026270Y-95850000D01*
X142067403Y-95767394D01*
X142067403Y-95767393D01*
X142067405Y-95767389D01*
X142125756Y-95562310D01*
X142136529Y-95446047D01*
X142162315Y-95381111D01*
X142204622Y-95350804D01*
X142313130Y-95350804D01*
X142349503Y-95371668D01*
X142381693Y-95433681D01*
X142383470Y-95446047D01*
X142394244Y-95562310D01*
X142447675Y-95750099D01*
X142452596Y-95767392D01*
X142452596Y-95767394D01*
X142547632Y-95958253D01*
X142547634Y-95958255D01*
X142676128Y-96128407D01*
X142833698Y-96272052D01*
X143014981Y-96384298D01*
X143213802Y-96461321D01*
X143423390Y-96500500D01*
X143423392Y-96500500D01*
X143636608Y-96500500D01*
X143636610Y-96500500D01*
X143846198Y-96461321D01*
X144045019Y-96384298D01*
X144226302Y-96272052D01*
X144383872Y-96128407D01*
X144512366Y-95958255D01*
X144566270Y-95850000D01*
X144607403Y-95767394D01*
X144607403Y-95767393D01*
X144607405Y-95767389D01*
X144665756Y-95562310D01*
X144676529Y-95446047D01*
X144702315Y-95381111D01*
X144744622Y-95350804D01*
X144853130Y-95350804D01*
X144889503Y-95371668D01*
X144921693Y-95433681D01*
X144923470Y-95446047D01*
X144934244Y-95562310D01*
X144987675Y-95750099D01*
X144992596Y-95767392D01*
X144992596Y-95767394D01*
X145087632Y-95958253D01*
X145087634Y-95958255D01*
X145216128Y-96128407D01*
X145373698Y-96272052D01*
X145554981Y-96384298D01*
X145753802Y-96461321D01*
X145963390Y-96500500D01*
X145963392Y-96500500D01*
X146176608Y-96500500D01*
X146176610Y-96500500D01*
X146386198Y-96461321D01*
X146585019Y-96384298D01*
X146766302Y-96272052D01*
X146923872Y-96128407D01*
X147052366Y-95958255D01*
X147106270Y-95850000D01*
X147147403Y-95767394D01*
X147147403Y-95767393D01*
X147147405Y-95767389D01*
X147205756Y-95562310D01*
X147216529Y-95446047D01*
X147242315Y-95381111D01*
X147284622Y-95350804D01*
X147393130Y-95350804D01*
X147429503Y-95371668D01*
X147461693Y-95433681D01*
X147463470Y-95446047D01*
X147474244Y-95562310D01*
X147527675Y-95750099D01*
X147532596Y-95767392D01*
X147532596Y-95767394D01*
X147627632Y-95958253D01*
X147627634Y-95958255D01*
X147756128Y-96128407D01*
X147913698Y-96272052D01*
X148094981Y-96384298D01*
X148293802Y-96461321D01*
X148503390Y-96500500D01*
X148503392Y-96500500D01*
X148716608Y-96500500D01*
X148716610Y-96500500D01*
X148926198Y-96461321D01*
X149125019Y-96384298D01*
X149306302Y-96272052D01*
X149463872Y-96128407D01*
X149592366Y-95958255D01*
X149646270Y-95850000D01*
X149687403Y-95767394D01*
X149687403Y-95767393D01*
X149687405Y-95767389D01*
X149745756Y-95562310D01*
X149756529Y-95446047D01*
X149782315Y-95381111D01*
X149824622Y-95350804D01*
X149933130Y-95350804D01*
X149969503Y-95371668D01*
X150001693Y-95433681D01*
X150003470Y-95446047D01*
X150014244Y-95562310D01*
X150067675Y-95750099D01*
X150072596Y-95767392D01*
X150072596Y-95767394D01*
X150167632Y-95958253D01*
X150167634Y-95958255D01*
X150296128Y-96128407D01*
X150453698Y-96272052D01*
X150634981Y-96384298D01*
X150833802Y-96461321D01*
X151043390Y-96500500D01*
X151043392Y-96500500D01*
X151256608Y-96500500D01*
X151256610Y-96500500D01*
X151466198Y-96461321D01*
X151665019Y-96384298D01*
X151846302Y-96272052D01*
X152003872Y-96128407D01*
X152132366Y-95958255D01*
X152186270Y-95850000D01*
X152227403Y-95767394D01*
X152227403Y-95767393D01*
X152227405Y-95767389D01*
X152285756Y-95562310D01*
X152296529Y-95446047D01*
X152322315Y-95381111D01*
X152364622Y-95350804D01*
X152473130Y-95350804D01*
X152509503Y-95371668D01*
X152541693Y-95433681D01*
X152543470Y-95446047D01*
X152554244Y-95562310D01*
X152607675Y-95750099D01*
X152612596Y-95767392D01*
X152612596Y-95767394D01*
X152707632Y-95958253D01*
X152707634Y-95958255D01*
X152836128Y-96128407D01*
X152993698Y-96272052D01*
X153174981Y-96384298D01*
X153373802Y-96461321D01*
X153583390Y-96500500D01*
X153583392Y-96500500D01*
X153796608Y-96500500D01*
X153796610Y-96500500D01*
X154006198Y-96461321D01*
X154205019Y-96384298D01*
X154386302Y-96272052D01*
X154543872Y-96128407D01*
X154672366Y-95958255D01*
X154726270Y-95850000D01*
X154767403Y-95767394D01*
X154767403Y-95767393D01*
X154767405Y-95767389D01*
X154825756Y-95562310D01*
X154836529Y-95446047D01*
X154862315Y-95381111D01*
X154904622Y-95350804D01*
X155013130Y-95350804D01*
X155049503Y-95371668D01*
X155081693Y-95433681D01*
X155083470Y-95446047D01*
X155094244Y-95562310D01*
X155147675Y-95750099D01*
X155152596Y-95767392D01*
X155152596Y-95767394D01*
X155247632Y-95958253D01*
X155247634Y-95958255D01*
X155376128Y-96128407D01*
X155533698Y-96272052D01*
X155714981Y-96384298D01*
X155913802Y-96461321D01*
X156123390Y-96500500D01*
X156123392Y-96500500D01*
X156336608Y-96500500D01*
X156336610Y-96500500D01*
X156546198Y-96461321D01*
X156745019Y-96384298D01*
X156926302Y-96272052D01*
X157083872Y-96128407D01*
X157212366Y-95958255D01*
X157266270Y-95850000D01*
X157307403Y-95767394D01*
X157307403Y-95767393D01*
X157307405Y-95767389D01*
X157365756Y-95562310D01*
X157372029Y-95494605D01*
X157397814Y-95429669D01*
X157454614Y-95388981D01*
X157524395Y-95385461D01*
X157585002Y-95420225D01*
X157617193Y-95482238D01*
X157619500Y-95506047D01*
X157619500Y-96244856D01*
X157619502Y-96244882D01*
X157622413Y-96269987D01*
X157622415Y-96269991D01*
X157667793Y-96372764D01*
X157667794Y-96372765D01*
X157747235Y-96452206D01*
X157850009Y-96497585D01*
X157875135Y-96500500D01*
X159664864Y-96500499D01*
X159664879Y-96500497D01*
X159664882Y-96500497D01*
X159689987Y-96497586D01*
X159689988Y-96497585D01*
X159689991Y-96497585D01*
X159792765Y-96452206D01*
X159872206Y-96372765D01*
X159917585Y-96269991D01*
X159920500Y-96244865D01*
X159920499Y-94455136D01*
X159920149Y-94452114D01*
X159917586Y-94430012D01*
X159917585Y-94430010D01*
X159917585Y-94430009D01*
X159872206Y-94327235D01*
X159792765Y-94247794D01*
X159773218Y-94239163D01*
X159689992Y-94202415D01*
X159664865Y-94199500D01*
X157875143Y-94199500D01*
X157875117Y-94199502D01*
X157850012Y-94202413D01*
X157850008Y-94202415D01*
X157747235Y-94247793D01*
X157667794Y-94327234D01*
X157622415Y-94430006D01*
X157622415Y-94430008D01*
X157619500Y-94455131D01*
X157619500Y-95193951D01*
X157599815Y-95260990D01*
X157547011Y-95306745D01*
X157477853Y-95316689D01*
X157414297Y-95287664D01*
X157376523Y-95228886D01*
X157372029Y-95205391D01*
X157365756Y-95137689D01*
X157330131Y-95012484D01*
X157307405Y-94932611D01*
X157307403Y-94932606D01*
X157307403Y-94932605D01*
X157212367Y-94741746D01*
X157083872Y-94571593D01*
X156926302Y-94427948D01*
X156745019Y-94315702D01*
X156745017Y-94315701D01*
X156645608Y-94277190D01*
X156546198Y-94238679D01*
X156336610Y-94199500D01*
X156123390Y-94199500D01*
X155913802Y-94238679D01*
X155913799Y-94238679D01*
X155913799Y-94238680D01*
X155714982Y-94315701D01*
X155714980Y-94315702D01*
X155533699Y-94427947D01*
X155376127Y-94571593D01*
X155247632Y-94741746D01*
X155152596Y-94932605D01*
X155152596Y-94932607D01*
X155094244Y-95137689D01*
X155083471Y-95253951D01*
X155057685Y-95318888D01*
X155013130Y-95350804D01*
X154904622Y-95350804D01*
X154906869Y-95349194D01*
X154870497Y-95328331D01*
X154838307Y-95266318D01*
X154836529Y-95253951D01*
X154832526Y-95210754D01*
X154825756Y-95137690D01*
X154767405Y-94932611D01*
X154767403Y-94932606D01*
X154767403Y-94932605D01*
X154672367Y-94741746D01*
X154543872Y-94571593D01*
X154386302Y-94427948D01*
X154205019Y-94315702D01*
X154205017Y-94315701D01*
X154105608Y-94277190D01*
X154006198Y-94238679D01*
X153796610Y-94199500D01*
X153583390Y-94199500D01*
X153373802Y-94238679D01*
X153373799Y-94238679D01*
X153373799Y-94238680D01*
X153174982Y-94315701D01*
X153174980Y-94315702D01*
X152993699Y-94427947D01*
X152836127Y-94571593D01*
X152707632Y-94741746D01*
X152612596Y-94932605D01*
X152612596Y-94932607D01*
X152554244Y-95137689D01*
X152543471Y-95253951D01*
X152517685Y-95318888D01*
X152473130Y-95350804D01*
X152364622Y-95350804D01*
X152366869Y-95349194D01*
X152330497Y-95328331D01*
X152298307Y-95266318D01*
X152296529Y-95253951D01*
X152292526Y-95210754D01*
X152285756Y-95137690D01*
X152227405Y-94932611D01*
X152227403Y-94932606D01*
X152227403Y-94932605D01*
X152132367Y-94741746D01*
X152003872Y-94571593D01*
X151846302Y-94427948D01*
X151665019Y-94315702D01*
X151665017Y-94315701D01*
X151565608Y-94277190D01*
X151466198Y-94238679D01*
X151256610Y-94199500D01*
X151043390Y-94199500D01*
X150833802Y-94238679D01*
X150833799Y-94238679D01*
X150833799Y-94238680D01*
X150634982Y-94315701D01*
X150634980Y-94315702D01*
X150453699Y-94427947D01*
X150296127Y-94571593D01*
X150167632Y-94741746D01*
X150072596Y-94932605D01*
X150072596Y-94932607D01*
X150014244Y-95137689D01*
X150003471Y-95253951D01*
X149977685Y-95318888D01*
X149933130Y-95350804D01*
X149824622Y-95350804D01*
X149826869Y-95349194D01*
X149790497Y-95328331D01*
X149758307Y-95266318D01*
X149756529Y-95253951D01*
X149752526Y-95210754D01*
X149745756Y-95137690D01*
X149687405Y-94932611D01*
X149687403Y-94932606D01*
X149687403Y-94932605D01*
X149592367Y-94741746D01*
X149463872Y-94571593D01*
X149306302Y-94427948D01*
X149125019Y-94315702D01*
X149125017Y-94315701D01*
X149025608Y-94277190D01*
X148926198Y-94238679D01*
X148716610Y-94199500D01*
X148503390Y-94199500D01*
X148293802Y-94238679D01*
X148293799Y-94238679D01*
X148293799Y-94238680D01*
X148094982Y-94315701D01*
X148094980Y-94315702D01*
X147913699Y-94427947D01*
X147756127Y-94571593D01*
X147627632Y-94741746D01*
X147532596Y-94932605D01*
X147532596Y-94932607D01*
X147474244Y-95137689D01*
X147463471Y-95253951D01*
X147437685Y-95318888D01*
X147393130Y-95350804D01*
X147284622Y-95350804D01*
X147286869Y-95349194D01*
X147250497Y-95328331D01*
X147218307Y-95266318D01*
X147216529Y-95253951D01*
X147212526Y-95210754D01*
X147205756Y-95137690D01*
X147147405Y-94932611D01*
X147147403Y-94932606D01*
X147147403Y-94932605D01*
X147052367Y-94741746D01*
X146923872Y-94571593D01*
X146766302Y-94427948D01*
X146585019Y-94315702D01*
X146585017Y-94315701D01*
X146485608Y-94277190D01*
X146386198Y-94238679D01*
X146176610Y-94199500D01*
X145963390Y-94199500D01*
X145753802Y-94238679D01*
X145753799Y-94238679D01*
X145753799Y-94238680D01*
X145554982Y-94315701D01*
X145554980Y-94315702D01*
X145373699Y-94427947D01*
X145216127Y-94571593D01*
X145087632Y-94741746D01*
X144992596Y-94932605D01*
X144992596Y-94932607D01*
X144934244Y-95137689D01*
X144923471Y-95253951D01*
X144897685Y-95318888D01*
X144853130Y-95350804D01*
X144744622Y-95350804D01*
X144746869Y-95349194D01*
X144710497Y-95328331D01*
X144678307Y-95266318D01*
X144676529Y-95253951D01*
X144672526Y-95210754D01*
X144665756Y-95137690D01*
X144607405Y-94932611D01*
X144607403Y-94932606D01*
X144607403Y-94932605D01*
X144512367Y-94741746D01*
X144383872Y-94571593D01*
X144226302Y-94427948D01*
X144045019Y-94315702D01*
X144045017Y-94315701D01*
X143945608Y-94277190D01*
X143846198Y-94238679D01*
X143636610Y-94199500D01*
X143423390Y-94199500D01*
X143213802Y-94238679D01*
X143213799Y-94238679D01*
X143213799Y-94238680D01*
X143014982Y-94315701D01*
X143014980Y-94315702D01*
X142833699Y-94427947D01*
X142676127Y-94571593D01*
X142547632Y-94741746D01*
X142452596Y-94932605D01*
X142452596Y-94932607D01*
X142394244Y-95137689D01*
X142383471Y-95253951D01*
X142357685Y-95318888D01*
X142313130Y-95350804D01*
X142204622Y-95350804D01*
X142206869Y-95349194D01*
X142170497Y-95328331D01*
X142138307Y-95266318D01*
X142136529Y-95253951D01*
X142132526Y-95210754D01*
X142125756Y-95137690D01*
X142067405Y-94932611D01*
X142067403Y-94932606D01*
X142067403Y-94932605D01*
X141972367Y-94741746D01*
X141843872Y-94571593D01*
X141686302Y-94427948D01*
X141505019Y-94315702D01*
X141505017Y-94315701D01*
X141405608Y-94277190D01*
X141306198Y-94238679D01*
X141096610Y-94199500D01*
X140883390Y-94199500D01*
X140673802Y-94238679D01*
X140673799Y-94238679D01*
X140673799Y-94238680D01*
X140474982Y-94315701D01*
X140474980Y-94315702D01*
X140293699Y-94427947D01*
X140136127Y-94571593D01*
X140007632Y-94741746D01*
X139912596Y-94932605D01*
X139912596Y-94932607D01*
X139854244Y-95137689D01*
X139843471Y-95253951D01*
X139817685Y-95318888D01*
X139773130Y-95350804D01*
X139664622Y-95350804D01*
X139666869Y-95349194D01*
X139630497Y-95328331D01*
X139598307Y-95266318D01*
X139596529Y-95253951D01*
X139592526Y-95210754D01*
X139585756Y-95137690D01*
X139527405Y-94932611D01*
X139527403Y-94932606D01*
X139527403Y-94932605D01*
X139432367Y-94741746D01*
X139303872Y-94571593D01*
X139146302Y-94427948D01*
X138965019Y-94315702D01*
X138965017Y-94315701D01*
X138865608Y-94277190D01*
X138766198Y-94238679D01*
X138556610Y-94199500D01*
X138343390Y-94199500D01*
X138133802Y-94238679D01*
X138133799Y-94238679D01*
X138133799Y-94238680D01*
X137934982Y-94315701D01*
X137934980Y-94315702D01*
X137753699Y-94427947D01*
X137596127Y-94571593D01*
X137467632Y-94741746D01*
X137372596Y-94932605D01*
X137372596Y-94932607D01*
X137314244Y-95137689D01*
X137303471Y-95253951D01*
X137277685Y-95318888D01*
X137233130Y-95350804D01*
X137124622Y-95350804D01*
X137126869Y-95349194D01*
X137090497Y-95328331D01*
X137058307Y-95266318D01*
X137056529Y-95253951D01*
X137052526Y-95210754D01*
X137045756Y-95137690D01*
X136987405Y-94932611D01*
X136987403Y-94932606D01*
X136987403Y-94932605D01*
X136892367Y-94741746D01*
X136763872Y-94571593D01*
X136606302Y-94427948D01*
X136425019Y-94315702D01*
X136425017Y-94315701D01*
X136325608Y-94277190D01*
X136226198Y-94238679D01*
X136016610Y-94199500D01*
X135803390Y-94199500D01*
X135593802Y-94238679D01*
X135593799Y-94238679D01*
X135593799Y-94238680D01*
X135394982Y-94315701D01*
X135394980Y-94315702D01*
X135213699Y-94427947D01*
X135056127Y-94571593D01*
X134927632Y-94741746D01*
X134832596Y-94932605D01*
X134832596Y-94932607D01*
X134774244Y-95137689D01*
X134763471Y-95253951D01*
X134737685Y-95318888D01*
X134693130Y-95350804D01*
X134584622Y-95350804D01*
X134586869Y-95349194D01*
X134550497Y-95328331D01*
X134518307Y-95266318D01*
X134516529Y-95253951D01*
X134512526Y-95210754D01*
X134505756Y-95137690D01*
X134447405Y-94932611D01*
X134447403Y-94932606D01*
X134447403Y-94932605D01*
X134352367Y-94741746D01*
X134223872Y-94571593D01*
X134066302Y-94427948D01*
X133885019Y-94315702D01*
X133885017Y-94315701D01*
X133785608Y-94277190D01*
X133686198Y-94238679D01*
X133476610Y-94199500D01*
X133263390Y-94199500D01*
X133053802Y-94238679D01*
X133053799Y-94238679D01*
X133053799Y-94238680D01*
X132854982Y-94315701D01*
X132854980Y-94315702D01*
X132673699Y-94427947D01*
X132516127Y-94571593D01*
X132387632Y-94741746D01*
X132292596Y-94932605D01*
X132292596Y-94932607D01*
X132234244Y-95137689D01*
X132223471Y-95253951D01*
X132197685Y-95318888D01*
X132153130Y-95350804D01*
X132044622Y-95350804D01*
X132046869Y-95349194D01*
X132010497Y-95328331D01*
X131978307Y-95266318D01*
X131976529Y-95253951D01*
X131972526Y-95210754D01*
X131965756Y-95137690D01*
X131907405Y-94932611D01*
X131907403Y-94932606D01*
X131907403Y-94932605D01*
X131812367Y-94741746D01*
X131683872Y-94571593D01*
X131526302Y-94427948D01*
X131345019Y-94315702D01*
X131345017Y-94315701D01*
X131245608Y-94277190D01*
X131146198Y-94238679D01*
X130936610Y-94199500D01*
X130723390Y-94199500D01*
X130513802Y-94238679D01*
X130513799Y-94238679D01*
X130513799Y-94238680D01*
X130314982Y-94315701D01*
X130314980Y-94315702D01*
X130133699Y-94427947D01*
X129976127Y-94571593D01*
X129847632Y-94741746D01*
X129752596Y-94932605D01*
X129752596Y-94932607D01*
X129694244Y-95137689D01*
X129683471Y-95253951D01*
X129657685Y-95318888D01*
X129613130Y-95350804D01*
X129504622Y-95350804D01*
X129506869Y-95349194D01*
X129470497Y-95328331D01*
X129438307Y-95266318D01*
X129436529Y-95253951D01*
X129432526Y-95210754D01*
X129425756Y-95137690D01*
X129367405Y-94932611D01*
X129367403Y-94932606D01*
X129367403Y-94932605D01*
X129272367Y-94741746D01*
X129143872Y-94571593D01*
X128986302Y-94427948D01*
X128805019Y-94315702D01*
X128805017Y-94315701D01*
X128705608Y-94277190D01*
X128606198Y-94238679D01*
X128396610Y-94199500D01*
X128183390Y-94199500D01*
X127973802Y-94238679D01*
X127973799Y-94238679D01*
X127973799Y-94238680D01*
X127774982Y-94315701D01*
X127774980Y-94315702D01*
X127593699Y-94427947D01*
X127436127Y-94571593D01*
X127307632Y-94741746D01*
X127212596Y-94932605D01*
X127212596Y-94932607D01*
X127154244Y-95137689D01*
X127143471Y-95253951D01*
X127117685Y-95318888D01*
X127073130Y-95350804D01*
X126964622Y-95350804D01*
X126966869Y-95349194D01*
X126930497Y-95328331D01*
X126898307Y-95266318D01*
X126896529Y-95253951D01*
X126892526Y-95210754D01*
X126885756Y-95137690D01*
X126827405Y-94932611D01*
X126827403Y-94932606D01*
X126827403Y-94932605D01*
X126732367Y-94741746D01*
X126603872Y-94571593D01*
X126446302Y-94427948D01*
X126265019Y-94315702D01*
X126265017Y-94315701D01*
X126165608Y-94277190D01*
X126066198Y-94238679D01*
X125856610Y-94199500D01*
X125643390Y-94199500D01*
X125433802Y-94238679D01*
X125433799Y-94238679D01*
X125433799Y-94238680D01*
X125234982Y-94315701D01*
X125234980Y-94315702D01*
X125053699Y-94427947D01*
X124896127Y-94571593D01*
X124767632Y-94741746D01*
X124672596Y-94932605D01*
X124672596Y-94932607D01*
X124614244Y-95137689D01*
X124603471Y-95253951D01*
X124577685Y-95318888D01*
X124533130Y-95350804D01*
X124424622Y-95350804D01*
X124426869Y-95349194D01*
X124390497Y-95328331D01*
X124358307Y-95266318D01*
X124356529Y-95253951D01*
X124352526Y-95210754D01*
X124345756Y-95137690D01*
X124287405Y-94932611D01*
X124287403Y-94932606D01*
X124287403Y-94932605D01*
X124192367Y-94741746D01*
X124063872Y-94571593D01*
X123906302Y-94427948D01*
X123725019Y-94315702D01*
X123725017Y-94315701D01*
X123625608Y-94277190D01*
X123526198Y-94238679D01*
X123316610Y-94199500D01*
X123103390Y-94199500D01*
X122893802Y-94238679D01*
X122893799Y-94238679D01*
X122893799Y-94238680D01*
X122694982Y-94315701D01*
X122694980Y-94315702D01*
X122513699Y-94427947D01*
X122356127Y-94571593D01*
X122227632Y-94741746D01*
X122132596Y-94932605D01*
X122132596Y-94932607D01*
X122074244Y-95137689D01*
X122063471Y-95253951D01*
X122037685Y-95318888D01*
X121993130Y-95350804D01*
X121884622Y-95350804D01*
X121886869Y-95349194D01*
X121850497Y-95328331D01*
X121818307Y-95266318D01*
X121816529Y-95253951D01*
X121812526Y-95210754D01*
X121805756Y-95137690D01*
X121747405Y-94932611D01*
X121747403Y-94932606D01*
X121747403Y-94932605D01*
X121652367Y-94741746D01*
X121523872Y-94571593D01*
X121366302Y-94427948D01*
X121185019Y-94315702D01*
X121185017Y-94315701D01*
X121085608Y-94277190D01*
X120986198Y-94238679D01*
X120776610Y-94199500D01*
X120563390Y-94199500D01*
X120353802Y-94238679D01*
X120353799Y-94238679D01*
X120353799Y-94238680D01*
X120154982Y-94315701D01*
X120154980Y-94315702D01*
X119973699Y-94427947D01*
X119816127Y-94571593D01*
X119687632Y-94741746D01*
X119592596Y-94932605D01*
X119592596Y-94932607D01*
X119534244Y-95137689D01*
X119523471Y-95253951D01*
X119497685Y-95318888D01*
X119453130Y-95350804D01*
X119344622Y-95350804D01*
X119346869Y-95349194D01*
X119310497Y-95328331D01*
X119278307Y-95266318D01*
X119276529Y-95253951D01*
X119272526Y-95210754D01*
X119265756Y-95137690D01*
X119207405Y-94932611D01*
X119207403Y-94932606D01*
X119207403Y-94932605D01*
X119112367Y-94741746D01*
X118983872Y-94571593D01*
X118826302Y-94427948D01*
X118645019Y-94315702D01*
X118645017Y-94315701D01*
X118545608Y-94277190D01*
X118446198Y-94238679D01*
X118236610Y-94199500D01*
X118023390Y-94199500D01*
X117813802Y-94238679D01*
X117813799Y-94238679D01*
X117813799Y-94238680D01*
X117614982Y-94315701D01*
X117614980Y-94315702D01*
X117433699Y-94427947D01*
X117276127Y-94571593D01*
X117147632Y-94741746D01*
X117052596Y-94932605D01*
X117052596Y-94932607D01*
X116994244Y-95137689D01*
X116983471Y-95253951D01*
X116957685Y-95318888D01*
X116913130Y-95350804D01*
X116804622Y-95350804D01*
X116806869Y-95349194D01*
X116770497Y-95328331D01*
X116738307Y-95266318D01*
X116736529Y-95253951D01*
X116732526Y-95210754D01*
X116725756Y-95137690D01*
X116667405Y-94932611D01*
X116667403Y-94932606D01*
X116667403Y-94932605D01*
X116572367Y-94741746D01*
X116443872Y-94571593D01*
X116286302Y-94427948D01*
X116105019Y-94315702D01*
X116105017Y-94315701D01*
X116005608Y-94277190D01*
X115906198Y-94238679D01*
X115696610Y-94199500D01*
X115483390Y-94199500D01*
X115273802Y-94238679D01*
X115273799Y-94238679D01*
X115273799Y-94238680D01*
X115074982Y-94315701D01*
X115074980Y-94315702D01*
X114893699Y-94427947D01*
X114736127Y-94571593D01*
X114607632Y-94741746D01*
X114512596Y-94932605D01*
X114512596Y-94932607D01*
X114454244Y-95137689D01*
X114443471Y-95253951D01*
X114417685Y-95318888D01*
X114373130Y-95350804D01*
X114264622Y-95350804D01*
X114266869Y-95349194D01*
X114230497Y-95328331D01*
X114198307Y-95266318D01*
X114196529Y-95253951D01*
X114192526Y-95210754D01*
X114185756Y-95137690D01*
X114127405Y-94932611D01*
X114127403Y-94932606D01*
X114127403Y-94932605D01*
X114032367Y-94741746D01*
X113903872Y-94571593D01*
X113746302Y-94427948D01*
X113565019Y-94315702D01*
X113565017Y-94315701D01*
X113465608Y-94277190D01*
X113366198Y-94238679D01*
X113156610Y-94199500D01*
X112943390Y-94199500D01*
X112733802Y-94238679D01*
X112733799Y-94238679D01*
X112733799Y-94238680D01*
X112534982Y-94315701D01*
X112534980Y-94315702D01*
X112353699Y-94427947D01*
X112196127Y-94571593D01*
X112067632Y-94741746D01*
X111972596Y-94932605D01*
X111972596Y-94932607D01*
X111914244Y-95137689D01*
X111903471Y-95253951D01*
X111877685Y-95318888D01*
X111833130Y-95350804D01*
X111724622Y-95350804D01*
X111726869Y-95349194D01*
X111690497Y-95328331D01*
X111658307Y-95266318D01*
X111656529Y-95253951D01*
X111652526Y-95210754D01*
X111645756Y-95137690D01*
X111587405Y-94932611D01*
X111587403Y-94932606D01*
X111587403Y-94932605D01*
X111492367Y-94741746D01*
X111363872Y-94571593D01*
X111206302Y-94427948D01*
X111025019Y-94315702D01*
X111025017Y-94315701D01*
X110925608Y-94277190D01*
X110826198Y-94238679D01*
X110616610Y-94199500D01*
X110403390Y-94199500D01*
X110193802Y-94238679D01*
X110193799Y-94238679D01*
X110193799Y-94238680D01*
X109994982Y-94315701D01*
X109994980Y-94315702D01*
X109813699Y-94427947D01*
X109656127Y-94571593D01*
X109527632Y-94741746D01*
X109432596Y-94932605D01*
X109432596Y-94932607D01*
X109374244Y-95137689D01*
X109364711Y-95240561D01*
X109338924Y-95305498D01*
X109282124Y-95346185D01*
X109212343Y-95349705D01*
X109151736Y-95314939D01*
X109119547Y-95252926D01*
X109118772Y-95248548D01*
X109112784Y-95210745D01*
X109111787Y-95202790D01*
X109107545Y-95157007D01*
X109105756Y-95137690D01*
X109097550Y-95108850D01*
X109094345Y-95094318D01*
X109092172Y-95080595D01*
X109092171Y-95080590D01*
X109071466Y-95016867D01*
X109070131Y-95012484D01*
X109052324Y-94949901D01*
X109047405Y-94932611D01*
X109041956Y-94921668D01*
X109038313Y-94912758D01*
X109038073Y-94912858D01*
X109036213Y-94908367D01*
X109036211Y-94908361D01*
X108997658Y-94832697D01*
X108997310Y-94832006D01*
X108952366Y-94741745D01*
X108952365Y-94741744D01*
X108952365Y-94741743D01*
X108895256Y-94666121D01*
X108893891Y-94664278D01*
X108847556Y-94600502D01*
X108846075Y-94599021D01*
X108834802Y-94586066D01*
X108823874Y-94571595D01*
X108766852Y-94519612D01*
X108762709Y-94515655D01*
X108719505Y-94472450D01*
X108719498Y-94472445D01*
X108719492Y-94472441D01*
X108703462Y-94460793D01*
X108692823Y-94452125D01*
X108666302Y-94427948D01*
X108666303Y-94427948D01*
X108666298Y-94427944D01*
X108666296Y-94427943D01*
X108615724Y-94396630D01*
X108608125Y-94391528D01*
X108572994Y-94366004D01*
X108539555Y-94348965D01*
X108530577Y-94343910D01*
X108485022Y-94315703D01*
X108485016Y-94315700D01*
X108446057Y-94300608D01*
X108434558Y-94295467D01*
X108411639Y-94283789D01*
X108411636Y-94283788D01*
X108411634Y-94283787D01*
X108359119Y-94266723D01*
X108352646Y-94264420D01*
X108286203Y-94238680D01*
X108286194Y-94238678D01*
X108262546Y-94234257D01*
X108247025Y-94230303D01*
X108239416Y-94227831D01*
X108239413Y-94227830D01*
X108239409Y-94227829D01*
X108224590Y-94225482D01*
X108167447Y-94216431D01*
X108164062Y-94215847D01*
X108092193Y-94202413D01*
X108076610Y-94199500D01*
X107863390Y-94199500D01*
X107775935Y-94215847D01*
X107772551Y-94216431D01*
X107700590Y-94227829D01*
X107700587Y-94227829D01*
X107692975Y-94230303D01*
X107677449Y-94234258D01*
X107653806Y-94238677D01*
X107653795Y-94238680D01*
X107587358Y-94264418D01*
X107580887Y-94266721D01*
X107528365Y-94283787D01*
X107528356Y-94283791D01*
X107505436Y-94295469D01*
X107493942Y-94300607D01*
X107454984Y-94315700D01*
X107454982Y-94315701D01*
X107409415Y-94343914D01*
X107400439Y-94348968D01*
X107367007Y-94366003D01*
X107367004Y-94366005D01*
X107331874Y-94391528D01*
X107324270Y-94396634D01*
X107273697Y-94427948D01*
X107247186Y-94452115D01*
X107236542Y-94460789D01*
X107220506Y-94472441D01*
X107220495Y-94472450D01*
X107177276Y-94515668D01*
X107173137Y-94519621D01*
X107116126Y-94571594D01*
X107105188Y-94586077D01*
X107093939Y-94599005D01*
X107092450Y-94600494D01*
X107092449Y-94600494D01*
X107046119Y-94664262D01*
X107044757Y-94666101D01*
X106987634Y-94741743D01*
X106987630Y-94741750D01*
X106942753Y-94831876D01*
X106942238Y-94832898D01*
X106903790Y-94908358D01*
X106901925Y-94912860D01*
X106901688Y-94912762D01*
X106898050Y-94921652D01*
X106892599Y-94932600D01*
X106892595Y-94932610D01*
X106869868Y-95012484D01*
X106868534Y-95016863D01*
X106847829Y-95080589D01*
X106845653Y-95094327D01*
X106842448Y-95108853D01*
X106834245Y-95137689D01*
X106834244Y-95137691D01*
X106828210Y-95202800D01*
X106827213Y-95210754D01*
X106820916Y-95250514D01*
X106790987Y-95313649D01*
X106731675Y-95350581D01*
X106661813Y-95349583D01*
X106603580Y-95310974D01*
X106575465Y-95247011D01*
X106574971Y-95242558D01*
X106565262Y-95137783D01*
X106565261Y-95137781D01*
X106506938Y-94932796D01*
X106506932Y-94932781D01*
X106428664Y-94775598D01*
X105927905Y-95276357D01*
X105895925Y-95157007D01*
X105830099Y-95042993D01*
X105737007Y-94949901D01*
X105622993Y-94884075D01*
X105503642Y-94852094D01*
X106003336Y-94352399D01*
X105944793Y-94316151D01*
X105944789Y-94316149D01*
X105746063Y-94239163D01*
X105746058Y-94239162D01*
X105536561Y-94200000D01*
X105323439Y-94200000D01*
X105113941Y-94239162D01*
X105113940Y-94239162D01*
X104915206Y-94316151D01*
X104915202Y-94316153D01*
X104856662Y-94352398D01*
X104856662Y-94352399D01*
X105356358Y-94852094D01*
X105237007Y-94884075D01*
X105122993Y-94949901D01*
X105029901Y-95042993D01*
X104964075Y-95157007D01*
X104932094Y-95276357D01*
X104431335Y-94775598D01*
X104431334Y-94775598D01*
X104353066Y-94932783D01*
X104353058Y-94932803D01*
X104294738Y-95137780D01*
X104294737Y-95137783D01*
X104275073Y-95349999D01*
X101500500Y-95349999D01*
X101500500Y-89599999D01*
X103095197Y-89599999D01*
X103095197Y-89600000D01*
X103114397Y-89966353D01*
X103171784Y-90328684D01*
X103171784Y-90328686D01*
X103266736Y-90683051D01*
X103398204Y-91025535D01*
X103564754Y-91352406D01*
X103764549Y-91660064D01*
X103921658Y-91854076D01*
X105275992Y-90499742D01*
X105379588Y-90642330D01*
X105557670Y-90820412D01*
X105700256Y-90924007D01*
X104345922Y-92278341D01*
X104539924Y-92435442D01*
X104539937Y-92435451D01*
X104847593Y-92635245D01*
X105174464Y-92801795D01*
X105516948Y-92933263D01*
X105871314Y-93028215D01*
X106233646Y-93085602D01*
X106599999Y-93104803D01*
X106600001Y-93104803D01*
X106966353Y-93085602D01*
X107328684Y-93028215D01*
X107328686Y-93028215D01*
X107683051Y-92933263D01*
X108025535Y-92801795D01*
X108352406Y-92635245D01*
X108660065Y-92435450D01*
X108854077Y-92278341D01*
X107499743Y-90924007D01*
X107642330Y-90820412D01*
X107820412Y-90642330D01*
X107924007Y-90499743D01*
X109278341Y-91854077D01*
X109435450Y-91660065D01*
X109635245Y-91352406D01*
X109801795Y-91025535D01*
X109933263Y-90683051D01*
X110028215Y-90328686D01*
X110028215Y-90328684D01*
X110085602Y-89966353D01*
X110104803Y-89600000D01*
X110104803Y-89599999D01*
X110085602Y-89233646D01*
X110028215Y-88871315D01*
X110028215Y-88871313D01*
X109933263Y-88516948D01*
X109801795Y-88174464D01*
X109635245Y-87847594D01*
X109435450Y-87539935D01*
X109278340Y-87345922D01*
X107924006Y-88700255D01*
X107820412Y-88557670D01*
X107642330Y-88379588D01*
X107499743Y-88275992D01*
X108854077Y-86921658D01*
X108660064Y-86764549D01*
X108352406Y-86564754D01*
X108025535Y-86398204D01*
X107683051Y-86266736D01*
X107328685Y-86171784D01*
X106966353Y-86114397D01*
X106600001Y-86095197D01*
X106599999Y-86095197D01*
X106233646Y-86114397D01*
X105871315Y-86171784D01*
X105871313Y-86171784D01*
X105516948Y-86266736D01*
X105174464Y-86398204D01*
X104847594Y-86564754D01*
X104539929Y-86764553D01*
X104345922Y-86921658D01*
X105700256Y-88275992D01*
X105557670Y-88379588D01*
X105379588Y-88557670D01*
X105275992Y-88700256D01*
X103921658Y-87345922D01*
X103764553Y-87539929D01*
X103564754Y-87847594D01*
X103398204Y-88174464D01*
X103266736Y-88516948D01*
X103171784Y-88871313D01*
X103171784Y-88871315D01*
X103114397Y-89233646D01*
X103095197Y-89599999D01*
X101500500Y-89599999D01*
X101500500Y-40599999D01*
X103095197Y-40599999D01*
X103095197Y-40600000D01*
X103114397Y-40966353D01*
X103171784Y-41328684D01*
X103171784Y-41328686D01*
X103266736Y-41683051D01*
X103398204Y-42025535D01*
X103564754Y-42352406D01*
X103764549Y-42660064D01*
X103921658Y-42854076D01*
X105275992Y-41499742D01*
X105379588Y-41642330D01*
X105557670Y-41820412D01*
X105700256Y-41924007D01*
X104345922Y-43278341D01*
X104539924Y-43435442D01*
X104539937Y-43435451D01*
X104847593Y-43635245D01*
X105174464Y-43801795D01*
X105516948Y-43933263D01*
X105871314Y-44028215D01*
X106233646Y-44085602D01*
X106599999Y-44104803D01*
X106600001Y-44104803D01*
X106966353Y-44085602D01*
X107328684Y-44028215D01*
X107328686Y-44028215D01*
X107683051Y-43933263D01*
X108025535Y-43801795D01*
X108352406Y-43635245D01*
X108660065Y-43435450D01*
X108854077Y-43278341D01*
X107499743Y-41924007D01*
X107642330Y-41820412D01*
X107820412Y-41642330D01*
X107924007Y-41499743D01*
X109278341Y-42854077D01*
X109435450Y-42660065D01*
X109635245Y-42352406D01*
X109801795Y-42025535D01*
X109933263Y-41683051D01*
X110028215Y-41328686D01*
X110028215Y-41328684D01*
X110085602Y-40966353D01*
X110104803Y-40600000D01*
X110104803Y-40599999D01*
X186395197Y-40599999D01*
X186395197Y-40600000D01*
X186414397Y-40966353D01*
X186471784Y-41328684D01*
X186471784Y-41328686D01*
X186566736Y-41683051D01*
X186698204Y-42025535D01*
X186864754Y-42352406D01*
X187064549Y-42660064D01*
X187221658Y-42854076D01*
X188575992Y-41499742D01*
X188679588Y-41642330D01*
X188857670Y-41820412D01*
X189000256Y-41924007D01*
X187645922Y-43278341D01*
X187839924Y-43435442D01*
X187839937Y-43435451D01*
X188147593Y-43635245D01*
X188474464Y-43801795D01*
X188816948Y-43933263D01*
X189171314Y-44028215D01*
X189533646Y-44085602D01*
X189899999Y-44104803D01*
X189900001Y-44104803D01*
X190266353Y-44085602D01*
X190628684Y-44028215D01*
X190628686Y-44028215D01*
X190983051Y-43933263D01*
X191325535Y-43801795D01*
X191652406Y-43635245D01*
X191960065Y-43435450D01*
X192154077Y-43278341D01*
X190799743Y-41924007D01*
X190942330Y-41820412D01*
X191120412Y-41642330D01*
X191224007Y-41499743D01*
X192578341Y-42854077D01*
X192735450Y-42660065D01*
X192935245Y-42352406D01*
X193101795Y-42025535D01*
X193233263Y-41683051D01*
X193328215Y-41328686D01*
X193328215Y-41328684D01*
X193385602Y-40966353D01*
X193404803Y-40600000D01*
X193404803Y-40599999D01*
X193385602Y-40233646D01*
X193328215Y-39871315D01*
X193328215Y-39871313D01*
X193233263Y-39516948D01*
X193101795Y-39174464D01*
X192935245Y-38847594D01*
X192735450Y-38539935D01*
X192578340Y-38345922D01*
X191224006Y-39700255D01*
X191120412Y-39557670D01*
X190942330Y-39379588D01*
X190799743Y-39275992D01*
X192154077Y-37921658D01*
X191960064Y-37764549D01*
X191652406Y-37564754D01*
X191325535Y-37398204D01*
X190983051Y-37266736D01*
X190628685Y-37171784D01*
X190266353Y-37114397D01*
X189900001Y-37095197D01*
X189899999Y-37095197D01*
X189533646Y-37114397D01*
X189171315Y-37171784D01*
X189171313Y-37171784D01*
X188816948Y-37266736D01*
X188474464Y-37398204D01*
X188147594Y-37564754D01*
X187839929Y-37764553D01*
X187645922Y-37921658D01*
X189000256Y-39275992D01*
X188857670Y-39379588D01*
X188679588Y-39557670D01*
X188575992Y-39700256D01*
X187221658Y-38345922D01*
X187064553Y-38539929D01*
X186864754Y-38847594D01*
X186698204Y-39174464D01*
X186566736Y-39516948D01*
X186471784Y-39871313D01*
X186471784Y-39871315D01*
X186414397Y-40233646D01*
X186395197Y-40599999D01*
X110104803Y-40599999D01*
X110085602Y-40233646D01*
X110028215Y-39871315D01*
X110028215Y-39871313D01*
X109933263Y-39516948D01*
X109801795Y-39174464D01*
X109635245Y-38847594D01*
X109435450Y-38539935D01*
X109278340Y-38345922D01*
X107924006Y-39700255D01*
X107820412Y-39557670D01*
X107642330Y-39379588D01*
X107499743Y-39275992D01*
X108854077Y-37921658D01*
X108660064Y-37764549D01*
X108352406Y-37564754D01*
X108025535Y-37398204D01*
X107683051Y-37266736D01*
X107328685Y-37171784D01*
X106966353Y-37114397D01*
X106600001Y-37095197D01*
X106599999Y-37095197D01*
X106233646Y-37114397D01*
X105871315Y-37171784D01*
X105871313Y-37171784D01*
X105516948Y-37266736D01*
X105174464Y-37398204D01*
X104847594Y-37564754D01*
X104539929Y-37764553D01*
X104345922Y-37921658D01*
X105700256Y-39275992D01*
X105557670Y-39379588D01*
X105379588Y-39557670D01*
X105275992Y-39700256D01*
X103921658Y-38345922D01*
X103764553Y-38539929D01*
X103564754Y-38847594D01*
X103398204Y-39174464D01*
X103266736Y-39516948D01*
X103171784Y-39871313D01*
X103171784Y-39871315D01*
X103114397Y-40233646D01*
X103095197Y-40599999D01*
X101500500Y-40599999D01*
X101500500Y-38003750D01*
X101500726Y-37996263D01*
X101518271Y-37706205D01*
X101520076Y-37691340D01*
X101571780Y-37409201D01*
X101575364Y-37394663D01*
X101652096Y-37148422D01*
X101660696Y-37120822D01*
X101665998Y-37106841D01*
X101783731Y-36845249D01*
X101790676Y-36832016D01*
X101939080Y-36586526D01*
X101947567Y-36574230D01*
X102124480Y-36348417D01*
X102134395Y-36337226D01*
X102337226Y-36134395D01*
X102348417Y-36124480D01*
X102574230Y-35947567D01*
X102586526Y-35939080D01*
X102832016Y-35790676D01*
X102845249Y-35783731D01*
X103106841Y-35665998D01*
X103120822Y-35660696D01*
X103394668Y-35575362D01*
X103409197Y-35571780D01*
X103691344Y-35520075D01*
X103706201Y-35518271D01*
X103996264Y-35500726D01*
X104003751Y-35500500D01*
X104065892Y-35500500D01*
X192434108Y-35500500D01*
X192496249Y-35500500D01*
X192503736Y-35500726D01*
G37*
G04 #@! TD.AperFunction*
M02*
