G04 #@! TF.GenerationSoftware,KiCad,Pcbnew,8.0.5-8.0.5-0~ubuntu22.04.1*
G04 #@! TF.CreationDate,2024-09-10T18:29:42+02:00*
G04 #@! TF.ProjectId,Motherboard,4d6f7468-6572-4626-9f61-72642e6b6963,1.0*
G04 #@! TF.SameCoordinates,Original*
G04 #@! TF.FileFunction,Soldermask,Top*
G04 #@! TF.FilePolarity,Negative*
%FSLAX46Y46*%
G04 Gerber Fmt 4.6, Leading zero omitted, Abs format (unit mm)*
G04 Created by KiCad (PCBNEW 8.0.5-8.0.5-0~ubuntu22.04.1) date 2024-09-10 18:29:42*
%MOMM*%
%LPD*%
G01*
G04 APERTURE LIST*
G04 APERTURE END LIST*
G36*
X160054047Y-129750805D02*
G01*
X160105408Y-129756764D01*
X160122954Y-129764511D01*
X160145671Y-129769030D01*
X160169991Y-129785280D01*
X160190793Y-129794465D01*
X160205000Y-129808672D01*
X160226777Y-129823223D01*
X160241327Y-129844999D01*
X160255534Y-129859206D01*
X160264718Y-129880006D01*
X160280970Y-129904329D01*
X160285489Y-129927048D01*
X160293235Y-129944591D01*
X160299192Y-129995940D01*
X160300000Y-130000000D01*
X160300000Y-133000000D01*
X160299192Y-133004059D01*
X160293235Y-133055408D01*
X160285489Y-133072950D01*
X160280970Y-133095671D01*
X160264716Y-133119995D01*
X160255534Y-133140793D01*
X160241329Y-133154997D01*
X160226777Y-133176777D01*
X160204997Y-133191329D01*
X160190793Y-133205534D01*
X160169995Y-133214716D01*
X160145671Y-133230970D01*
X160122950Y-133235489D01*
X160105408Y-133243235D01*
X160054061Y-133249192D01*
X160050000Y-133250000D01*
X158950000Y-133250000D01*
X158945941Y-133249192D01*
X158894591Y-133243235D01*
X158877048Y-133235489D01*
X158854329Y-133230970D01*
X158830006Y-133214718D01*
X158809206Y-133205534D01*
X158794999Y-133191327D01*
X158773223Y-133176777D01*
X158758672Y-133155000D01*
X158744465Y-133140793D01*
X158735280Y-133119991D01*
X158719030Y-133095671D01*
X158714511Y-133072954D01*
X158706764Y-133055408D01*
X158700805Y-133004049D01*
X158700000Y-133000000D01*
X158700000Y-130000000D01*
X158700804Y-129995953D01*
X158706764Y-129944591D01*
X158714511Y-129927043D01*
X158719030Y-129904329D01*
X158735278Y-129880010D01*
X158744465Y-129859206D01*
X158758674Y-129844996D01*
X158773223Y-129823223D01*
X158794996Y-129808674D01*
X158809206Y-129794465D01*
X158830010Y-129785278D01*
X158854329Y-129769030D01*
X158877043Y-129764511D01*
X158894591Y-129756764D01*
X158945952Y-129750805D01*
X158950000Y-129750000D01*
X160050000Y-129750000D01*
X160054047Y-129750805D01*
G37*
G36*
X106684866Y-126204766D02*
G01*
X106773239Y-126204766D01*
X106867593Y-126215027D01*
X106958286Y-126220121D01*
X107036297Y-126233375D01*
X107117692Y-126242228D01*
X107216827Y-126264049D01*
X107312067Y-126280231D01*
X107382406Y-126300495D01*
X107456067Y-126316709D01*
X107558574Y-126351248D01*
X107656893Y-126379573D01*
X107719045Y-126405317D01*
X107784417Y-126427344D01*
X107888715Y-126475597D01*
X107988428Y-126516900D01*
X108042068Y-126546546D01*
X108098874Y-126572827D01*
X108203243Y-126635624D01*
X108302503Y-126690483D01*
X108347599Y-126722480D01*
X108395755Y-126751455D01*
X108498321Y-126829423D01*
X108595167Y-126898139D01*
X108631908Y-126930972D01*
X108671590Y-126961138D01*
X108770412Y-127054747D01*
X108862742Y-127137258D01*
X108891553Y-127169498D01*
X108923131Y-127199410D01*
X109016173Y-127308948D01*
X109101861Y-127404833D01*
X109123383Y-127435166D01*
X109147436Y-127463483D01*
X109232634Y-127589140D01*
X109309517Y-127697497D01*
X109324576Y-127724745D01*
X109341880Y-127750266D01*
X109417197Y-127892329D01*
X109483100Y-128011572D01*
X109492691Y-128034727D01*
X109504174Y-128056386D01*
X109567585Y-128215536D01*
X109620427Y-128343107D01*
X109625682Y-128361350D01*
X109632419Y-128378257D01*
X109682018Y-128556896D01*
X109719769Y-128687933D01*
X109721926Y-128700633D01*
X109725115Y-128712116D01*
X109759106Y-128919457D01*
X109779879Y-129041714D01*
X109780259Y-129048481D01*
X109781167Y-129054020D01*
X109797859Y-129361888D01*
X109800000Y-129400000D01*
X109797853Y-129438213D01*
X109781167Y-129745979D01*
X109780259Y-129751516D01*
X109779879Y-129758286D01*
X109759102Y-129880569D01*
X109725115Y-130087883D01*
X109721927Y-130099363D01*
X109719769Y-130112067D01*
X109682010Y-130243130D01*
X109632419Y-130421742D01*
X109625683Y-130438646D01*
X109620427Y-130456893D01*
X109567574Y-130584489D01*
X109504174Y-130743613D01*
X109492693Y-130765268D01*
X109483100Y-130788428D01*
X109417184Y-130907694D01*
X109341880Y-131049733D01*
X109324579Y-131075248D01*
X109309517Y-131102503D01*
X109232618Y-131210880D01*
X109147436Y-131336516D01*
X109123387Y-131364827D01*
X109101861Y-131395167D01*
X109016156Y-131491071D01*
X108923131Y-131600589D01*
X108891559Y-131630494D01*
X108862742Y-131662742D01*
X108770393Y-131745269D01*
X108671590Y-131838861D01*
X108631915Y-131869020D01*
X108595167Y-131901861D01*
X108498301Y-131970590D01*
X108395755Y-132048544D01*
X108347609Y-132077512D01*
X108302503Y-132109517D01*
X108203222Y-132164387D01*
X108098874Y-132227172D01*
X108042079Y-132253447D01*
X107988428Y-132283100D01*
X107888694Y-132324411D01*
X107784417Y-132372655D01*
X107719058Y-132394676D01*
X107656893Y-132420427D01*
X107558554Y-132448757D01*
X107456067Y-132483290D01*
X107382420Y-132499500D01*
X107312067Y-132519769D01*
X107216807Y-132535954D01*
X107117692Y-132557771D01*
X107036309Y-132566622D01*
X106958286Y-132579879D01*
X106867588Y-132584972D01*
X106773239Y-132595234D01*
X106684866Y-132595234D01*
X106600000Y-132600000D01*
X106515134Y-132595234D01*
X106426761Y-132595234D01*
X106332411Y-132584972D01*
X106241714Y-132579879D01*
X106163691Y-132566622D01*
X106082307Y-132557771D01*
X105983187Y-132535953D01*
X105887933Y-132519769D01*
X105817582Y-132499501D01*
X105743932Y-132483290D01*
X105641438Y-132448755D01*
X105543107Y-132420427D01*
X105480945Y-132394678D01*
X105415582Y-132372655D01*
X105311295Y-132324407D01*
X105211572Y-132283100D01*
X105157925Y-132253450D01*
X105101125Y-132227172D01*
X104996764Y-132164380D01*
X104897497Y-132109517D01*
X104852396Y-132077516D01*
X104804244Y-132048544D01*
X104701683Y-131970580D01*
X104604833Y-131901861D01*
X104568089Y-131869025D01*
X104528409Y-131838861D01*
X104429588Y-131745253D01*
X104337258Y-131662742D01*
X104308445Y-131630501D01*
X104276868Y-131600589D01*
X104183823Y-131491048D01*
X104098139Y-131395167D01*
X104076617Y-131364835D01*
X104052563Y-131336516D01*
X103967358Y-131210849D01*
X103890483Y-131102503D01*
X103875424Y-131075256D01*
X103858119Y-131049733D01*
X103782791Y-130907649D01*
X103716900Y-130788428D01*
X103707310Y-130765277D01*
X103695825Y-130743613D01*
X103632399Y-130584425D01*
X103579573Y-130456893D01*
X103574318Y-130438655D01*
X103567580Y-130421742D01*
X103517961Y-130243034D01*
X103480231Y-130112067D01*
X103478074Y-130099372D01*
X103474884Y-130087883D01*
X103440869Y-129880401D01*
X103420121Y-129758286D01*
X103419741Y-129751525D01*
X103418832Y-129745979D01*
X103402142Y-129438157D01*
X103400000Y-129400000D01*
X103402137Y-129361945D01*
X103418832Y-129054020D01*
X103419741Y-129048472D01*
X103420121Y-129041714D01*
X103440864Y-128919625D01*
X103474884Y-128712116D01*
X103478074Y-128700624D01*
X103480231Y-128687933D01*
X103517954Y-128556992D01*
X103567580Y-128378257D01*
X103574319Y-128361341D01*
X103579573Y-128343107D01*
X103632388Y-128215599D01*
X103695825Y-128056386D01*
X103707312Y-128034718D01*
X103716900Y-128011572D01*
X103782778Y-127892373D01*
X103858119Y-127750266D01*
X103875427Y-127724737D01*
X103890483Y-127697497D01*
X103967343Y-127589172D01*
X104052563Y-127463483D01*
X104076621Y-127435158D01*
X104098139Y-127404833D01*
X104183806Y-127308970D01*
X104276868Y-127199410D01*
X104308451Y-127169492D01*
X104337258Y-127137258D01*
X104429569Y-127054763D01*
X104528409Y-126961138D01*
X104568097Y-126930967D01*
X104604833Y-126898139D01*
X104701663Y-126829433D01*
X104804244Y-126751455D01*
X104852405Y-126722477D01*
X104897497Y-126690483D01*
X104996744Y-126635630D01*
X105101125Y-126572827D01*
X105157936Y-126546543D01*
X105211572Y-126516900D01*
X105311275Y-126475601D01*
X105415582Y-126427344D01*
X105480958Y-126405315D01*
X105543107Y-126379573D01*
X105641418Y-126351250D01*
X105743932Y-126316709D01*
X105817596Y-126300494D01*
X105887933Y-126280231D01*
X105983167Y-126264049D01*
X106082307Y-126242228D01*
X106163704Y-126233375D01*
X106241714Y-126220121D01*
X106332406Y-126215027D01*
X106426761Y-126204766D01*
X106515134Y-126204766D01*
X106600000Y-126200000D01*
X106684866Y-126204766D01*
G37*
G36*
X189984866Y-126204766D02*
G01*
X190073239Y-126204766D01*
X190167593Y-126215027D01*
X190258286Y-126220121D01*
X190336297Y-126233375D01*
X190417692Y-126242228D01*
X190516827Y-126264049D01*
X190612067Y-126280231D01*
X190682406Y-126300495D01*
X190756067Y-126316709D01*
X190858574Y-126351248D01*
X190956893Y-126379573D01*
X191019045Y-126405317D01*
X191084417Y-126427344D01*
X191188715Y-126475597D01*
X191288428Y-126516900D01*
X191342068Y-126546546D01*
X191398874Y-126572827D01*
X191503243Y-126635624D01*
X191602503Y-126690483D01*
X191647599Y-126722480D01*
X191695755Y-126751455D01*
X191798321Y-126829423D01*
X191895167Y-126898139D01*
X191931908Y-126930972D01*
X191971590Y-126961138D01*
X192070412Y-127054747D01*
X192162742Y-127137258D01*
X192191553Y-127169498D01*
X192223131Y-127199410D01*
X192316173Y-127308948D01*
X192401861Y-127404833D01*
X192423383Y-127435166D01*
X192447436Y-127463483D01*
X192532634Y-127589140D01*
X192609517Y-127697497D01*
X192624576Y-127724745D01*
X192641880Y-127750266D01*
X192717197Y-127892329D01*
X192783100Y-128011572D01*
X192792691Y-128034727D01*
X192804174Y-128056386D01*
X192867585Y-128215536D01*
X192920427Y-128343107D01*
X192925682Y-128361350D01*
X192932419Y-128378257D01*
X192982018Y-128556896D01*
X193019769Y-128687933D01*
X193021926Y-128700633D01*
X193025115Y-128712116D01*
X193059106Y-128919457D01*
X193079879Y-129041714D01*
X193080259Y-129048481D01*
X193081167Y-129054020D01*
X193097859Y-129361888D01*
X193100000Y-129400000D01*
X193097853Y-129438213D01*
X193081167Y-129745979D01*
X193080259Y-129751516D01*
X193079879Y-129758286D01*
X193059102Y-129880569D01*
X193025115Y-130087883D01*
X193021927Y-130099363D01*
X193019769Y-130112067D01*
X192982010Y-130243130D01*
X192932419Y-130421742D01*
X192925683Y-130438646D01*
X192920427Y-130456893D01*
X192867574Y-130584489D01*
X192804174Y-130743613D01*
X192792693Y-130765268D01*
X192783100Y-130788428D01*
X192717184Y-130907694D01*
X192641880Y-131049733D01*
X192624579Y-131075248D01*
X192609517Y-131102503D01*
X192532618Y-131210880D01*
X192447436Y-131336516D01*
X192423387Y-131364827D01*
X192401861Y-131395167D01*
X192316156Y-131491071D01*
X192223131Y-131600589D01*
X192191559Y-131630494D01*
X192162742Y-131662742D01*
X192070393Y-131745269D01*
X191971590Y-131838861D01*
X191931915Y-131869020D01*
X191895167Y-131901861D01*
X191798301Y-131970590D01*
X191695755Y-132048544D01*
X191647609Y-132077512D01*
X191602503Y-132109517D01*
X191503222Y-132164387D01*
X191398874Y-132227172D01*
X191342079Y-132253447D01*
X191288428Y-132283100D01*
X191188694Y-132324411D01*
X191084417Y-132372655D01*
X191019058Y-132394676D01*
X190956893Y-132420427D01*
X190858554Y-132448757D01*
X190756067Y-132483290D01*
X190682420Y-132499500D01*
X190612067Y-132519769D01*
X190516807Y-132535954D01*
X190417692Y-132557771D01*
X190336309Y-132566622D01*
X190258286Y-132579879D01*
X190167588Y-132584972D01*
X190073239Y-132595234D01*
X189984866Y-132595234D01*
X189900000Y-132600000D01*
X189815134Y-132595234D01*
X189726761Y-132595234D01*
X189632411Y-132584972D01*
X189541714Y-132579879D01*
X189463691Y-132566622D01*
X189382307Y-132557771D01*
X189283187Y-132535953D01*
X189187933Y-132519769D01*
X189117582Y-132499501D01*
X189043932Y-132483290D01*
X188941438Y-132448755D01*
X188843107Y-132420427D01*
X188780945Y-132394678D01*
X188715582Y-132372655D01*
X188611295Y-132324407D01*
X188511572Y-132283100D01*
X188457925Y-132253450D01*
X188401125Y-132227172D01*
X188296764Y-132164380D01*
X188197497Y-132109517D01*
X188152396Y-132077516D01*
X188104244Y-132048544D01*
X188001683Y-131970580D01*
X187904833Y-131901861D01*
X187868089Y-131869025D01*
X187828409Y-131838861D01*
X187729588Y-131745253D01*
X187637258Y-131662742D01*
X187608445Y-131630501D01*
X187576868Y-131600589D01*
X187483823Y-131491048D01*
X187398139Y-131395167D01*
X187376617Y-131364835D01*
X187352563Y-131336516D01*
X187267358Y-131210849D01*
X187190483Y-131102503D01*
X187175424Y-131075256D01*
X187158119Y-131049733D01*
X187082791Y-130907649D01*
X187016900Y-130788428D01*
X187007310Y-130765277D01*
X186995825Y-130743613D01*
X186932399Y-130584425D01*
X186879573Y-130456893D01*
X186874318Y-130438655D01*
X186867580Y-130421742D01*
X186817961Y-130243034D01*
X186780231Y-130112067D01*
X186778074Y-130099372D01*
X186774884Y-130087883D01*
X186740869Y-129880401D01*
X186720121Y-129758286D01*
X186719741Y-129751525D01*
X186718832Y-129745979D01*
X186702142Y-129438157D01*
X186700000Y-129400000D01*
X186702137Y-129361945D01*
X186718832Y-129054020D01*
X186719741Y-129048472D01*
X186720121Y-129041714D01*
X186740864Y-128919625D01*
X186774884Y-128712116D01*
X186778074Y-128700624D01*
X186780231Y-128687933D01*
X186817954Y-128556992D01*
X186867580Y-128378257D01*
X186874319Y-128361341D01*
X186879573Y-128343107D01*
X186932388Y-128215599D01*
X186995825Y-128056386D01*
X187007312Y-128034718D01*
X187016900Y-128011572D01*
X187082778Y-127892373D01*
X187158119Y-127750266D01*
X187175427Y-127724737D01*
X187190483Y-127697497D01*
X187267343Y-127589172D01*
X187352563Y-127463483D01*
X187376621Y-127435158D01*
X187398139Y-127404833D01*
X187483806Y-127308970D01*
X187576868Y-127199410D01*
X187608451Y-127169492D01*
X187637258Y-127137258D01*
X187729569Y-127054763D01*
X187828409Y-126961138D01*
X187868097Y-126930967D01*
X187904833Y-126898139D01*
X188001663Y-126829433D01*
X188104244Y-126751455D01*
X188152405Y-126722477D01*
X188197497Y-126690483D01*
X188296744Y-126635630D01*
X188401125Y-126572827D01*
X188457936Y-126546543D01*
X188511572Y-126516900D01*
X188611275Y-126475601D01*
X188715582Y-126427344D01*
X188780958Y-126405315D01*
X188843107Y-126379573D01*
X188941418Y-126351250D01*
X189043932Y-126316709D01*
X189117596Y-126300494D01*
X189187933Y-126280231D01*
X189283167Y-126264049D01*
X189382307Y-126242228D01*
X189463704Y-126233375D01*
X189541714Y-126220121D01*
X189632406Y-126215027D01*
X189726761Y-126204766D01*
X189815134Y-126204766D01*
X189900000Y-126200000D01*
X189984866Y-126204766D01*
G37*
G36*
X172850000Y-132350000D02*
G01*
X171150000Y-132350000D01*
X171150000Y-130650000D01*
X172850000Y-130650000D01*
X172850000Y-132350000D01*
G37*
G36*
X183350000Y-132350000D02*
G01*
X181650000Y-132350000D01*
X181650000Y-130650000D01*
X183350000Y-130650000D01*
X183350000Y-132350000D01*
G37*
G36*
X144692664Y-130691602D02*
G01*
X144855000Y-130763878D01*
X144998761Y-130868327D01*
X145117664Y-131000383D01*
X145206514Y-131154274D01*
X145261425Y-131323275D01*
X145280000Y-131500000D01*
X145261425Y-131676725D01*
X145206514Y-131845726D01*
X145117664Y-131999617D01*
X144998761Y-132131673D01*
X144855000Y-132236122D01*
X144692664Y-132308398D01*
X144518849Y-132345344D01*
X144341151Y-132345344D01*
X144167336Y-132308398D01*
X144005000Y-132236122D01*
X143861239Y-132131673D01*
X143742336Y-131999617D01*
X143653486Y-131845726D01*
X143598575Y-131676725D01*
X143580000Y-131500000D01*
X143598575Y-131323275D01*
X143653486Y-131154274D01*
X143742336Y-131000383D01*
X143861239Y-130868327D01*
X144005000Y-130763878D01*
X144167336Y-130691602D01*
X144341151Y-130654656D01*
X144518849Y-130654656D01*
X144692664Y-130691602D01*
G37*
G36*
X147232664Y-130691602D02*
G01*
X147395000Y-130763878D01*
X147538761Y-130868327D01*
X147657664Y-131000383D01*
X147746514Y-131154274D01*
X147801425Y-131323275D01*
X147820000Y-131500000D01*
X147801425Y-131676725D01*
X147746514Y-131845726D01*
X147657664Y-131999617D01*
X147538761Y-132131673D01*
X147395000Y-132236122D01*
X147232664Y-132308398D01*
X147058849Y-132345344D01*
X146881151Y-132345344D01*
X146707336Y-132308398D01*
X146545000Y-132236122D01*
X146401239Y-132131673D01*
X146282336Y-131999617D01*
X146193486Y-131845726D01*
X146138575Y-131676725D01*
X146120000Y-131500000D01*
X146138575Y-131323275D01*
X146193486Y-131154274D01*
X146282336Y-131000383D01*
X146401239Y-130868327D01*
X146545000Y-130763878D01*
X146707336Y-130691602D01*
X146881151Y-130654656D01*
X147058849Y-130654656D01*
X147232664Y-130691602D01*
G37*
G36*
X149772664Y-130691602D02*
G01*
X149935000Y-130763878D01*
X150078761Y-130868327D01*
X150197664Y-131000383D01*
X150286514Y-131154274D01*
X150341425Y-131323275D01*
X150360000Y-131500000D01*
X150341425Y-131676725D01*
X150286514Y-131845726D01*
X150197664Y-131999617D01*
X150078761Y-132131673D01*
X149935000Y-132236122D01*
X149772664Y-132308398D01*
X149598849Y-132345344D01*
X149421151Y-132345344D01*
X149247336Y-132308398D01*
X149085000Y-132236122D01*
X148941239Y-132131673D01*
X148822336Y-131999617D01*
X148733486Y-131845726D01*
X148678575Y-131676725D01*
X148660000Y-131500000D01*
X148678575Y-131323275D01*
X148733486Y-131154274D01*
X148822336Y-131000383D01*
X148941239Y-130868327D01*
X149085000Y-130763878D01*
X149247336Y-130691602D01*
X149421151Y-130654656D01*
X149598849Y-130654656D01*
X149772664Y-130691602D01*
G37*
G36*
X152312664Y-130691602D02*
G01*
X152475000Y-130763878D01*
X152618761Y-130868327D01*
X152737664Y-131000383D01*
X152826514Y-131154274D01*
X152881425Y-131323275D01*
X152900000Y-131500000D01*
X152881425Y-131676725D01*
X152826514Y-131845726D01*
X152737664Y-131999617D01*
X152618761Y-132131673D01*
X152475000Y-132236122D01*
X152312664Y-132308398D01*
X152138849Y-132345344D01*
X151961151Y-132345344D01*
X151787336Y-132308398D01*
X151625000Y-132236122D01*
X151481239Y-132131673D01*
X151362336Y-131999617D01*
X151273486Y-131845726D01*
X151218575Y-131676725D01*
X151200000Y-131500000D01*
X151218575Y-131323275D01*
X151273486Y-131154274D01*
X151362336Y-131000383D01*
X151481239Y-130868327D01*
X151625000Y-130763878D01*
X151787336Y-130691602D01*
X151961151Y-130654656D01*
X152138849Y-130654656D01*
X152312664Y-130691602D01*
G37*
G36*
X167182664Y-130691602D02*
G01*
X167345000Y-130763878D01*
X167488761Y-130868327D01*
X167607664Y-131000383D01*
X167696514Y-131154274D01*
X167751425Y-131323275D01*
X167770000Y-131500000D01*
X167751425Y-131676725D01*
X167696514Y-131845726D01*
X167607664Y-131999617D01*
X167488761Y-132131673D01*
X167345000Y-132236122D01*
X167182664Y-132308398D01*
X167008849Y-132345344D01*
X166831151Y-132345344D01*
X166657336Y-132308398D01*
X166495000Y-132236122D01*
X166351239Y-132131673D01*
X166232336Y-131999617D01*
X166143486Y-131845726D01*
X166088575Y-131676725D01*
X166070000Y-131500000D01*
X166088575Y-131323275D01*
X166143486Y-131154274D01*
X166232336Y-131000383D01*
X166351239Y-130868327D01*
X166495000Y-130763878D01*
X166657336Y-130691602D01*
X166831151Y-130654656D01*
X167008849Y-130654656D01*
X167182664Y-130691602D01*
G37*
G36*
X169722664Y-130691602D02*
G01*
X169885000Y-130763878D01*
X170028761Y-130868327D01*
X170147664Y-131000383D01*
X170236514Y-131154274D01*
X170291425Y-131323275D01*
X170310000Y-131500000D01*
X170291425Y-131676725D01*
X170236514Y-131845726D01*
X170147664Y-131999617D01*
X170028761Y-132131673D01*
X169885000Y-132236122D01*
X169722664Y-132308398D01*
X169548849Y-132345344D01*
X169371151Y-132345344D01*
X169197336Y-132308398D01*
X169035000Y-132236122D01*
X168891239Y-132131673D01*
X168772336Y-131999617D01*
X168683486Y-131845726D01*
X168628575Y-131676725D01*
X168610000Y-131500000D01*
X168628575Y-131323275D01*
X168683486Y-131154274D01*
X168772336Y-131000383D01*
X168891239Y-130868327D01*
X169035000Y-130763878D01*
X169197336Y-130691602D01*
X169371151Y-130654656D01*
X169548849Y-130654656D01*
X169722664Y-130691602D01*
G37*
G36*
X177682664Y-130691602D02*
G01*
X177845000Y-130763878D01*
X177988761Y-130868327D01*
X178107664Y-131000383D01*
X178196514Y-131154274D01*
X178251425Y-131323275D01*
X178270000Y-131500000D01*
X178251425Y-131676725D01*
X178196514Y-131845726D01*
X178107664Y-131999617D01*
X177988761Y-132131673D01*
X177845000Y-132236122D01*
X177682664Y-132308398D01*
X177508849Y-132345344D01*
X177331151Y-132345344D01*
X177157336Y-132308398D01*
X176995000Y-132236122D01*
X176851239Y-132131673D01*
X176732336Y-131999617D01*
X176643486Y-131845726D01*
X176588575Y-131676725D01*
X176570000Y-131500000D01*
X176588575Y-131323275D01*
X176643486Y-131154274D01*
X176732336Y-131000383D01*
X176851239Y-130868327D01*
X176995000Y-130763878D01*
X177157336Y-130691602D01*
X177331151Y-130654656D01*
X177508849Y-130654656D01*
X177682664Y-130691602D01*
G37*
G36*
X180222664Y-130691602D02*
G01*
X180385000Y-130763878D01*
X180528761Y-130868327D01*
X180647664Y-131000383D01*
X180736514Y-131154274D01*
X180791425Y-131323275D01*
X180810000Y-131500000D01*
X180791425Y-131676725D01*
X180736514Y-131845726D01*
X180647664Y-131999617D01*
X180528761Y-132131673D01*
X180385000Y-132236122D01*
X180222664Y-132308398D01*
X180048849Y-132345344D01*
X179871151Y-132345344D01*
X179697336Y-132308398D01*
X179535000Y-132236122D01*
X179391239Y-132131673D01*
X179272336Y-131999617D01*
X179183486Y-131845726D01*
X179128575Y-131676725D01*
X179110000Y-131500000D01*
X179128575Y-131323275D01*
X179183486Y-131154274D01*
X179272336Y-131000383D01*
X179391239Y-130868327D01*
X179535000Y-130763878D01*
X179697336Y-130691602D01*
X179871151Y-130654656D01*
X180048849Y-130654656D01*
X180222664Y-130691602D01*
G37*
G36*
X125326537Y-128565224D02*
G01*
X125391421Y-128608579D01*
X125434776Y-128673463D01*
X125450000Y-128750000D01*
X125450000Y-129150000D01*
X125434776Y-129226537D01*
X125391421Y-129291421D01*
X125326537Y-129334776D01*
X125250000Y-129350000D01*
X123750000Y-129350000D01*
X123673463Y-129334776D01*
X123608579Y-129291421D01*
X123565224Y-129226537D01*
X123550000Y-129150000D01*
X123550000Y-128750000D01*
X123565224Y-128673463D01*
X123608579Y-128608579D01*
X123673463Y-128565224D01*
X123750000Y-128550000D01*
X125250000Y-128550000D01*
X125326537Y-128565224D01*
G37*
G36*
X133850000Y-128850000D02*
G01*
X132150000Y-128850000D01*
X132150000Y-127150000D01*
X133850000Y-127150000D01*
X133850000Y-128850000D01*
G37*
G36*
X130722664Y-127191602D02*
G01*
X130885000Y-127263878D01*
X131028761Y-127368327D01*
X131147664Y-127500383D01*
X131236514Y-127654274D01*
X131291425Y-127823275D01*
X131310000Y-128000000D01*
X131291425Y-128176725D01*
X131236514Y-128345726D01*
X131147664Y-128499617D01*
X131028761Y-128631673D01*
X130885000Y-128736122D01*
X130722664Y-128808398D01*
X130548849Y-128845344D01*
X130371151Y-128845344D01*
X130197336Y-128808398D01*
X130035000Y-128736122D01*
X129891239Y-128631673D01*
X129772336Y-128499617D01*
X129683486Y-128345726D01*
X129628575Y-128176725D01*
X129610000Y-128000000D01*
X129628575Y-127823275D01*
X129683486Y-127654274D01*
X129772336Y-127500383D01*
X129891239Y-127368327D01*
X130035000Y-127263878D01*
X130197336Y-127191602D01*
X130371151Y-127154656D01*
X130548849Y-127154656D01*
X130722664Y-127191602D01*
G37*
G36*
X139154047Y-127338305D02*
G01*
X139205408Y-127344264D01*
X139222954Y-127352011D01*
X139245671Y-127356530D01*
X139269991Y-127372780D01*
X139290793Y-127381965D01*
X139305000Y-127396172D01*
X139326777Y-127410723D01*
X139341327Y-127432499D01*
X139355534Y-127446706D01*
X139364718Y-127467506D01*
X139380970Y-127491829D01*
X139385489Y-127514548D01*
X139393235Y-127532091D01*
X139399192Y-127583440D01*
X139400000Y-127587500D01*
X139400000Y-128412500D01*
X139399192Y-128416559D01*
X139393235Y-128467908D01*
X139385489Y-128485450D01*
X139380970Y-128508171D01*
X139364716Y-128532495D01*
X139355534Y-128553293D01*
X139341329Y-128567497D01*
X139326777Y-128589277D01*
X139304997Y-128603829D01*
X139290793Y-128618034D01*
X139269995Y-128627216D01*
X139245671Y-128643470D01*
X139222950Y-128647989D01*
X139205408Y-128655735D01*
X139154061Y-128661692D01*
X139150000Y-128662500D01*
X137850000Y-128662500D01*
X137845941Y-128661692D01*
X137794591Y-128655735D01*
X137777048Y-128647989D01*
X137754329Y-128643470D01*
X137730006Y-128627218D01*
X137709206Y-128618034D01*
X137694999Y-128603827D01*
X137673223Y-128589277D01*
X137658672Y-128567500D01*
X137644465Y-128553293D01*
X137635280Y-128532491D01*
X137619030Y-128508171D01*
X137614511Y-128485454D01*
X137606764Y-128467908D01*
X137600805Y-128416549D01*
X137600000Y-128412500D01*
X137600000Y-127587500D01*
X137600804Y-127583453D01*
X137606764Y-127532091D01*
X137614511Y-127514543D01*
X137619030Y-127491829D01*
X137635278Y-127467510D01*
X137644465Y-127446706D01*
X137658674Y-127432496D01*
X137673223Y-127410723D01*
X137694996Y-127396174D01*
X137709206Y-127381965D01*
X137730010Y-127372778D01*
X137754329Y-127356530D01*
X137777043Y-127352011D01*
X137794591Y-127344264D01*
X137845952Y-127338305D01*
X137850000Y-127337500D01*
X139150000Y-127337500D01*
X139154047Y-127338305D01*
G37*
G36*
X122629047Y-127350805D02*
G01*
X122680408Y-127356764D01*
X122697954Y-127364511D01*
X122720671Y-127369030D01*
X122744991Y-127385280D01*
X122765793Y-127394465D01*
X122780000Y-127408672D01*
X122801777Y-127423223D01*
X122816327Y-127444999D01*
X122830534Y-127459206D01*
X122839718Y-127480006D01*
X122855970Y-127504329D01*
X122860489Y-127527048D01*
X122868235Y-127544591D01*
X122874192Y-127595940D01*
X122875000Y-127600000D01*
X122875000Y-128400000D01*
X122874192Y-128404059D01*
X122868235Y-128455408D01*
X122860489Y-128472950D01*
X122855970Y-128495671D01*
X122839716Y-128519995D01*
X122830534Y-128540793D01*
X122816329Y-128554997D01*
X122801777Y-128576777D01*
X122779997Y-128591329D01*
X122765793Y-128605534D01*
X122744995Y-128614716D01*
X122720671Y-128630970D01*
X122697950Y-128635489D01*
X122680408Y-128643235D01*
X122629061Y-128649192D01*
X122625000Y-128650000D01*
X121375000Y-128650000D01*
X121370941Y-128649192D01*
X121319591Y-128643235D01*
X121302048Y-128635489D01*
X121279329Y-128630970D01*
X121255006Y-128614718D01*
X121234206Y-128605534D01*
X121219999Y-128591327D01*
X121198223Y-128576777D01*
X121183672Y-128555000D01*
X121169465Y-128540793D01*
X121160280Y-128519991D01*
X121144030Y-128495671D01*
X121139511Y-128472954D01*
X121131764Y-128455408D01*
X121125805Y-128404049D01*
X121125000Y-128400000D01*
X121125000Y-127600000D01*
X121125804Y-127595953D01*
X121131764Y-127544591D01*
X121139511Y-127527043D01*
X121144030Y-127504329D01*
X121160278Y-127480010D01*
X121169465Y-127459206D01*
X121183674Y-127444996D01*
X121198223Y-127423223D01*
X121219996Y-127408674D01*
X121234206Y-127394465D01*
X121255010Y-127385278D01*
X121279329Y-127369030D01*
X121302043Y-127364511D01*
X121319591Y-127356764D01*
X121370952Y-127350805D01*
X121375000Y-127350000D01*
X122625000Y-127350000D01*
X122629047Y-127350805D01*
G37*
G36*
X136629047Y-127350805D02*
G01*
X136680408Y-127356764D01*
X136697954Y-127364511D01*
X136720671Y-127369030D01*
X136744991Y-127385280D01*
X136765793Y-127394465D01*
X136780000Y-127408672D01*
X136801777Y-127423223D01*
X136816327Y-127444999D01*
X136830534Y-127459206D01*
X136839718Y-127480006D01*
X136855970Y-127504329D01*
X136860489Y-127527048D01*
X136868235Y-127544591D01*
X136874192Y-127595940D01*
X136875000Y-127600000D01*
X136875000Y-128400000D01*
X136874192Y-128404059D01*
X136868235Y-128455408D01*
X136860489Y-128472950D01*
X136855970Y-128495671D01*
X136839716Y-128519995D01*
X136830534Y-128540793D01*
X136816329Y-128554997D01*
X136801777Y-128576777D01*
X136779997Y-128591329D01*
X136765793Y-128605534D01*
X136744995Y-128614716D01*
X136720671Y-128630970D01*
X136697950Y-128635489D01*
X136680408Y-128643235D01*
X136629061Y-128649192D01*
X136625000Y-128650000D01*
X135375000Y-128650000D01*
X135370941Y-128649192D01*
X135319591Y-128643235D01*
X135302048Y-128635489D01*
X135279329Y-128630970D01*
X135255006Y-128614718D01*
X135234206Y-128605534D01*
X135219999Y-128591327D01*
X135198223Y-128576777D01*
X135183672Y-128555000D01*
X135169465Y-128540793D01*
X135160280Y-128519991D01*
X135144030Y-128495671D01*
X135139511Y-128472954D01*
X135131764Y-128455408D01*
X135125805Y-128404049D01*
X135125000Y-128400000D01*
X135125000Y-127600000D01*
X135125804Y-127595953D01*
X135131764Y-127544591D01*
X135139511Y-127527043D01*
X135144030Y-127504329D01*
X135160278Y-127480010D01*
X135169465Y-127459206D01*
X135183674Y-127444996D01*
X135198223Y-127423223D01*
X135219996Y-127408674D01*
X135234206Y-127394465D01*
X135255010Y-127385278D01*
X135279329Y-127369030D01*
X135302043Y-127364511D01*
X135319591Y-127356764D01*
X135370952Y-127350805D01*
X135375000Y-127350000D01*
X136625000Y-127350000D01*
X136629047Y-127350805D01*
G37*
G36*
X128326537Y-127615224D02*
G01*
X128391421Y-127658579D01*
X128434776Y-127723463D01*
X128450000Y-127800000D01*
X128450000Y-128200000D01*
X128434776Y-128276537D01*
X128391421Y-128341421D01*
X128326537Y-128384776D01*
X128250000Y-128400000D01*
X126750000Y-128400000D01*
X126673463Y-128384776D01*
X126608579Y-128341421D01*
X126565224Y-128276537D01*
X126550000Y-128200000D01*
X126550000Y-127800000D01*
X126565224Y-127723463D01*
X126608579Y-127658579D01*
X126673463Y-127615224D01*
X126750000Y-127600000D01*
X128250000Y-127600000D01*
X128326537Y-127615224D01*
G37*
G36*
X170404047Y-126125805D02*
G01*
X170455408Y-126131764D01*
X170472954Y-126139511D01*
X170495671Y-126144030D01*
X170519991Y-126160280D01*
X170540793Y-126169465D01*
X170555000Y-126183672D01*
X170576777Y-126198223D01*
X170591327Y-126219999D01*
X170605534Y-126234206D01*
X170614718Y-126255006D01*
X170630970Y-126279329D01*
X170635489Y-126302048D01*
X170643235Y-126319591D01*
X170649192Y-126370940D01*
X170650000Y-126375000D01*
X170650000Y-127625000D01*
X170649192Y-127629059D01*
X170643235Y-127680408D01*
X170635489Y-127697950D01*
X170630970Y-127720671D01*
X170614716Y-127744995D01*
X170605534Y-127765793D01*
X170591329Y-127779997D01*
X170576777Y-127801777D01*
X170554997Y-127816329D01*
X170540793Y-127830534D01*
X170519995Y-127839716D01*
X170495671Y-127855970D01*
X170472950Y-127860489D01*
X170455408Y-127868235D01*
X170404061Y-127874192D01*
X170400000Y-127875000D01*
X169600000Y-127875000D01*
X169595941Y-127874192D01*
X169544591Y-127868235D01*
X169527048Y-127860489D01*
X169504329Y-127855970D01*
X169480006Y-127839718D01*
X169459206Y-127830534D01*
X169444999Y-127816327D01*
X169423223Y-127801777D01*
X169408672Y-127780000D01*
X169394465Y-127765793D01*
X169385280Y-127744991D01*
X169369030Y-127720671D01*
X169364511Y-127697954D01*
X169356764Y-127680408D01*
X169350805Y-127629049D01*
X169350000Y-127625000D01*
X169350000Y-126375000D01*
X169350804Y-126370953D01*
X169356764Y-126319591D01*
X169364511Y-126302043D01*
X169369030Y-126279329D01*
X169385278Y-126255010D01*
X169394465Y-126234206D01*
X169408674Y-126219996D01*
X169423223Y-126198223D01*
X169444996Y-126183674D01*
X169459206Y-126169465D01*
X169480010Y-126160278D01*
X169504329Y-126144030D01*
X169527043Y-126139511D01*
X169544591Y-126131764D01*
X169595952Y-126125805D01*
X169600000Y-126125000D01*
X170400000Y-126125000D01*
X170404047Y-126125805D01*
G37*
G36*
X173504047Y-126125805D02*
G01*
X173555408Y-126131764D01*
X173572954Y-126139511D01*
X173595671Y-126144030D01*
X173619991Y-126160280D01*
X173640793Y-126169465D01*
X173655000Y-126183672D01*
X173676777Y-126198223D01*
X173691327Y-126219999D01*
X173705534Y-126234206D01*
X173714718Y-126255006D01*
X173730970Y-126279329D01*
X173735489Y-126302048D01*
X173743235Y-126319591D01*
X173749192Y-126370940D01*
X173750000Y-126375000D01*
X173750000Y-127625000D01*
X173749192Y-127629059D01*
X173743235Y-127680408D01*
X173735489Y-127697950D01*
X173730970Y-127720671D01*
X173714716Y-127744995D01*
X173705534Y-127765793D01*
X173691329Y-127779997D01*
X173676777Y-127801777D01*
X173654997Y-127816329D01*
X173640793Y-127830534D01*
X173619995Y-127839716D01*
X173595671Y-127855970D01*
X173572950Y-127860489D01*
X173555408Y-127868235D01*
X173504061Y-127874192D01*
X173500000Y-127875000D01*
X172700000Y-127875000D01*
X172695941Y-127874192D01*
X172644591Y-127868235D01*
X172627048Y-127860489D01*
X172604329Y-127855970D01*
X172580006Y-127839718D01*
X172559206Y-127830534D01*
X172544999Y-127816327D01*
X172523223Y-127801777D01*
X172508672Y-127780000D01*
X172494465Y-127765793D01*
X172485280Y-127744991D01*
X172469030Y-127720671D01*
X172464511Y-127697954D01*
X172456764Y-127680408D01*
X172450805Y-127629049D01*
X172450000Y-127625000D01*
X172450000Y-126375000D01*
X172450804Y-126370953D01*
X172456764Y-126319591D01*
X172464511Y-126302043D01*
X172469030Y-126279329D01*
X172485278Y-126255010D01*
X172494465Y-126234206D01*
X172508674Y-126219996D01*
X172523223Y-126198223D01*
X172544996Y-126183674D01*
X172559206Y-126169465D01*
X172580010Y-126160278D01*
X172604329Y-126144030D01*
X172627043Y-126139511D01*
X172644591Y-126131764D01*
X172695952Y-126125805D01*
X172700000Y-126125000D01*
X173500000Y-126125000D01*
X173504047Y-126125805D01*
G37*
G36*
X180904047Y-126125805D02*
G01*
X180955408Y-126131764D01*
X180972954Y-126139511D01*
X180995671Y-126144030D01*
X181019991Y-126160280D01*
X181040793Y-126169465D01*
X181055000Y-126183672D01*
X181076777Y-126198223D01*
X181091327Y-126219999D01*
X181105534Y-126234206D01*
X181114718Y-126255006D01*
X181130970Y-126279329D01*
X181135489Y-126302048D01*
X181143235Y-126319591D01*
X181149192Y-126370940D01*
X181150000Y-126375000D01*
X181150000Y-127625000D01*
X181149192Y-127629059D01*
X181143235Y-127680408D01*
X181135489Y-127697950D01*
X181130970Y-127720671D01*
X181114716Y-127744995D01*
X181105534Y-127765793D01*
X181091329Y-127779997D01*
X181076777Y-127801777D01*
X181054997Y-127816329D01*
X181040793Y-127830534D01*
X181019995Y-127839716D01*
X180995671Y-127855970D01*
X180972950Y-127860489D01*
X180955408Y-127868235D01*
X180904061Y-127874192D01*
X180900000Y-127875000D01*
X180100000Y-127875000D01*
X180095941Y-127874192D01*
X180044591Y-127868235D01*
X180027048Y-127860489D01*
X180004329Y-127855970D01*
X179980006Y-127839718D01*
X179959206Y-127830534D01*
X179944999Y-127816327D01*
X179923223Y-127801777D01*
X179908672Y-127780000D01*
X179894465Y-127765793D01*
X179885280Y-127744991D01*
X179869030Y-127720671D01*
X179864511Y-127697954D01*
X179856764Y-127680408D01*
X179850805Y-127629049D01*
X179850000Y-127625000D01*
X179850000Y-126375000D01*
X179850804Y-126370953D01*
X179856764Y-126319591D01*
X179864511Y-126302043D01*
X179869030Y-126279329D01*
X179885278Y-126255010D01*
X179894465Y-126234206D01*
X179908674Y-126219996D01*
X179923223Y-126198223D01*
X179944996Y-126183674D01*
X179959206Y-126169465D01*
X179980010Y-126160278D01*
X180004329Y-126144030D01*
X180027043Y-126139511D01*
X180044591Y-126131764D01*
X180095952Y-126125805D01*
X180100000Y-126125000D01*
X180900000Y-126125000D01*
X180904047Y-126125805D01*
G37*
G36*
X184004047Y-126125805D02*
G01*
X184055408Y-126131764D01*
X184072954Y-126139511D01*
X184095671Y-126144030D01*
X184119991Y-126160280D01*
X184140793Y-126169465D01*
X184155000Y-126183672D01*
X184176777Y-126198223D01*
X184191327Y-126219999D01*
X184205534Y-126234206D01*
X184214718Y-126255006D01*
X184230970Y-126279329D01*
X184235489Y-126302048D01*
X184243235Y-126319591D01*
X184249192Y-126370940D01*
X184250000Y-126375000D01*
X184250000Y-127625000D01*
X184249192Y-127629059D01*
X184243235Y-127680408D01*
X184235489Y-127697950D01*
X184230970Y-127720671D01*
X184214716Y-127744995D01*
X184205534Y-127765793D01*
X184191329Y-127779997D01*
X184176777Y-127801777D01*
X184154997Y-127816329D01*
X184140793Y-127830534D01*
X184119995Y-127839716D01*
X184095671Y-127855970D01*
X184072950Y-127860489D01*
X184055408Y-127868235D01*
X184004061Y-127874192D01*
X184000000Y-127875000D01*
X183200000Y-127875000D01*
X183195941Y-127874192D01*
X183144591Y-127868235D01*
X183127048Y-127860489D01*
X183104329Y-127855970D01*
X183080006Y-127839718D01*
X183059206Y-127830534D01*
X183044999Y-127816327D01*
X183023223Y-127801777D01*
X183008672Y-127780000D01*
X182994465Y-127765793D01*
X182985280Y-127744991D01*
X182969030Y-127720671D01*
X182964511Y-127697954D01*
X182956764Y-127680408D01*
X182950805Y-127629049D01*
X182950000Y-127625000D01*
X182950000Y-126375000D01*
X182950804Y-126370953D01*
X182956764Y-126319591D01*
X182964511Y-126302043D01*
X182969030Y-126279329D01*
X182985278Y-126255010D01*
X182994465Y-126234206D01*
X183008674Y-126219996D01*
X183023223Y-126198223D01*
X183044996Y-126183674D01*
X183059206Y-126169465D01*
X183080010Y-126160278D01*
X183104329Y-126144030D01*
X183127043Y-126139511D01*
X183144591Y-126131764D01*
X183195952Y-126125805D01*
X183200000Y-126125000D01*
X184000000Y-126125000D01*
X184004047Y-126125805D01*
G37*
G36*
X160054047Y-124150805D02*
G01*
X160105408Y-124156764D01*
X160122954Y-124164511D01*
X160145671Y-124169030D01*
X160169991Y-124185280D01*
X160190793Y-124194465D01*
X160205000Y-124208672D01*
X160226777Y-124223223D01*
X160241327Y-124244999D01*
X160255534Y-124259206D01*
X160264718Y-124280006D01*
X160280970Y-124304329D01*
X160285489Y-124327048D01*
X160293235Y-124344591D01*
X160299192Y-124395940D01*
X160300000Y-124400000D01*
X160300000Y-127400000D01*
X160299192Y-127404059D01*
X160293235Y-127455408D01*
X160285489Y-127472950D01*
X160280970Y-127495671D01*
X160264716Y-127519995D01*
X160255534Y-127540793D01*
X160241329Y-127554997D01*
X160226777Y-127576777D01*
X160204997Y-127591329D01*
X160190793Y-127605534D01*
X160169995Y-127614716D01*
X160145671Y-127630970D01*
X160122950Y-127635489D01*
X160105408Y-127643235D01*
X160054061Y-127649192D01*
X160050000Y-127650000D01*
X158950000Y-127650000D01*
X158945941Y-127649192D01*
X158894591Y-127643235D01*
X158877048Y-127635489D01*
X158854329Y-127630970D01*
X158830006Y-127614718D01*
X158809206Y-127605534D01*
X158794999Y-127591327D01*
X158773223Y-127576777D01*
X158758672Y-127555000D01*
X158744465Y-127540793D01*
X158735280Y-127519991D01*
X158719030Y-127495671D01*
X158714511Y-127472954D01*
X158706764Y-127455408D01*
X158700805Y-127404049D01*
X158700000Y-127400000D01*
X158700000Y-124400000D01*
X158700804Y-124395953D01*
X158706764Y-124344591D01*
X158714511Y-124327043D01*
X158719030Y-124304329D01*
X158735278Y-124280010D01*
X158744465Y-124259206D01*
X158758674Y-124244996D01*
X158773223Y-124223223D01*
X158794996Y-124208674D01*
X158809206Y-124194465D01*
X158830010Y-124185278D01*
X158854329Y-124169030D01*
X158877043Y-124164511D01*
X158894591Y-124156764D01*
X158945952Y-124150805D01*
X158950000Y-124150000D01*
X160050000Y-124150000D01*
X160054047Y-124150805D01*
G37*
G36*
X125326537Y-126665224D02*
G01*
X125391421Y-126708579D01*
X125434776Y-126773463D01*
X125450000Y-126850000D01*
X125450000Y-127250000D01*
X125434776Y-127326537D01*
X125391421Y-127391421D01*
X125326537Y-127434776D01*
X125250000Y-127450000D01*
X123750000Y-127450000D01*
X123673463Y-127434776D01*
X123608579Y-127391421D01*
X123565224Y-127326537D01*
X123550000Y-127250000D01*
X123550000Y-126850000D01*
X123565224Y-126773463D01*
X123608579Y-126708579D01*
X123673463Y-126665224D01*
X123750000Y-126650000D01*
X125250000Y-126650000D01*
X125326537Y-126665224D01*
G37*
G36*
X122629047Y-124250805D02*
G01*
X122680408Y-124256764D01*
X122697954Y-124264511D01*
X122720671Y-124269030D01*
X122744991Y-124285280D01*
X122765793Y-124294465D01*
X122780000Y-124308672D01*
X122801777Y-124323223D01*
X122816327Y-124344999D01*
X122830534Y-124359206D01*
X122839718Y-124380006D01*
X122855970Y-124404329D01*
X122860489Y-124427048D01*
X122868235Y-124444591D01*
X122874192Y-124495940D01*
X122875000Y-124500000D01*
X122875000Y-125300000D01*
X122874192Y-125304059D01*
X122868235Y-125355408D01*
X122860489Y-125372950D01*
X122855970Y-125395671D01*
X122839716Y-125419995D01*
X122830534Y-125440793D01*
X122816329Y-125454997D01*
X122801777Y-125476777D01*
X122779997Y-125491329D01*
X122765793Y-125505534D01*
X122744995Y-125514716D01*
X122720671Y-125530970D01*
X122697950Y-125535489D01*
X122680408Y-125543235D01*
X122629061Y-125549192D01*
X122625000Y-125550000D01*
X121375000Y-125550000D01*
X121370941Y-125549192D01*
X121319591Y-125543235D01*
X121302048Y-125535489D01*
X121279329Y-125530970D01*
X121255006Y-125514718D01*
X121234206Y-125505534D01*
X121219999Y-125491327D01*
X121198223Y-125476777D01*
X121183672Y-125455000D01*
X121169465Y-125440793D01*
X121160280Y-125419991D01*
X121144030Y-125395671D01*
X121139511Y-125372954D01*
X121131764Y-125355408D01*
X121125805Y-125304049D01*
X121125000Y-125300000D01*
X121125000Y-124500000D01*
X121125804Y-124495953D01*
X121131764Y-124444591D01*
X121139511Y-124427043D01*
X121144030Y-124404329D01*
X121160278Y-124380010D01*
X121169465Y-124359206D01*
X121183674Y-124344996D01*
X121198223Y-124323223D01*
X121219996Y-124308674D01*
X121234206Y-124294465D01*
X121255010Y-124285278D01*
X121279329Y-124269030D01*
X121302043Y-124264511D01*
X121319591Y-124256764D01*
X121370952Y-124250805D01*
X121375000Y-124250000D01*
X122625000Y-124250000D01*
X122629047Y-124250805D01*
G37*
G36*
X136629047Y-124250805D02*
G01*
X136680408Y-124256764D01*
X136697954Y-124264511D01*
X136720671Y-124269030D01*
X136744991Y-124285280D01*
X136765793Y-124294465D01*
X136780000Y-124308672D01*
X136801777Y-124323223D01*
X136816327Y-124344999D01*
X136830534Y-124359206D01*
X136839718Y-124380006D01*
X136855970Y-124404329D01*
X136860489Y-124427048D01*
X136868235Y-124444591D01*
X136874192Y-124495940D01*
X136875000Y-124500000D01*
X136875000Y-125300000D01*
X136874192Y-125304059D01*
X136868235Y-125355408D01*
X136860489Y-125372950D01*
X136855970Y-125395671D01*
X136839716Y-125419995D01*
X136830534Y-125440793D01*
X136816329Y-125454997D01*
X136801777Y-125476777D01*
X136779997Y-125491329D01*
X136765793Y-125505534D01*
X136744995Y-125514716D01*
X136720671Y-125530970D01*
X136697950Y-125535489D01*
X136680408Y-125543235D01*
X136629061Y-125549192D01*
X136625000Y-125550000D01*
X135375000Y-125550000D01*
X135370941Y-125549192D01*
X135319591Y-125543235D01*
X135302048Y-125535489D01*
X135279329Y-125530970D01*
X135255006Y-125514718D01*
X135234206Y-125505534D01*
X135219999Y-125491327D01*
X135198223Y-125476777D01*
X135183672Y-125455000D01*
X135169465Y-125440793D01*
X135160280Y-125419991D01*
X135144030Y-125395671D01*
X135139511Y-125372954D01*
X135131764Y-125355408D01*
X135125805Y-125304049D01*
X135125000Y-125300000D01*
X135125000Y-124500000D01*
X135125804Y-124495953D01*
X135131764Y-124444591D01*
X135139511Y-124427043D01*
X135144030Y-124404329D01*
X135160278Y-124380010D01*
X135169465Y-124359206D01*
X135183674Y-124344996D01*
X135198223Y-124323223D01*
X135219996Y-124308674D01*
X135234206Y-124294465D01*
X135255010Y-124285278D01*
X135279329Y-124269030D01*
X135302043Y-124264511D01*
X135319591Y-124256764D01*
X135370952Y-124250805D01*
X135375000Y-124250000D01*
X136625000Y-124250000D01*
X136629047Y-124250805D01*
G37*
G36*
X139154047Y-124213305D02*
G01*
X139205408Y-124219264D01*
X139222954Y-124227011D01*
X139245671Y-124231530D01*
X139269991Y-124247780D01*
X139290793Y-124256965D01*
X139305000Y-124271172D01*
X139326777Y-124285723D01*
X139341327Y-124307499D01*
X139355534Y-124321706D01*
X139364718Y-124342506D01*
X139380970Y-124366829D01*
X139385489Y-124389548D01*
X139393235Y-124407091D01*
X139399192Y-124458440D01*
X139400000Y-124462500D01*
X139400000Y-125287500D01*
X139399192Y-125291559D01*
X139393235Y-125342908D01*
X139385489Y-125360450D01*
X139380970Y-125383171D01*
X139364716Y-125407495D01*
X139355534Y-125428293D01*
X139341329Y-125442497D01*
X139326777Y-125464277D01*
X139304997Y-125478829D01*
X139290793Y-125493034D01*
X139269995Y-125502216D01*
X139245671Y-125518470D01*
X139222950Y-125522989D01*
X139205408Y-125530735D01*
X139154061Y-125536692D01*
X139150000Y-125537500D01*
X137850000Y-125537500D01*
X137845941Y-125536692D01*
X137794591Y-125530735D01*
X137777048Y-125522989D01*
X137754329Y-125518470D01*
X137730006Y-125502218D01*
X137709206Y-125493034D01*
X137694999Y-125478827D01*
X137673223Y-125464277D01*
X137658672Y-125442500D01*
X137644465Y-125428293D01*
X137635280Y-125407491D01*
X137619030Y-125383171D01*
X137614511Y-125360454D01*
X137606764Y-125342908D01*
X137600805Y-125291549D01*
X137600000Y-125287500D01*
X137600000Y-124462500D01*
X137600804Y-124458453D01*
X137606764Y-124407091D01*
X137614511Y-124389543D01*
X137619030Y-124366829D01*
X137635278Y-124342510D01*
X137644465Y-124321706D01*
X137658674Y-124307496D01*
X137673223Y-124285723D01*
X137694996Y-124271174D01*
X137709206Y-124256965D01*
X137730010Y-124247778D01*
X137754329Y-124231530D01*
X137777043Y-124227011D01*
X137794591Y-124219264D01*
X137845952Y-124213305D01*
X137850000Y-124212500D01*
X139150000Y-124212500D01*
X139154047Y-124213305D01*
G37*
G36*
X130754047Y-124500805D02*
G01*
X130805408Y-124506764D01*
X130822954Y-124514511D01*
X130845671Y-124519030D01*
X130869991Y-124535280D01*
X130890793Y-124544465D01*
X130905000Y-124558672D01*
X130926777Y-124573223D01*
X130941327Y-124594999D01*
X130955534Y-124609206D01*
X130964718Y-124630006D01*
X130980970Y-124654329D01*
X130985489Y-124677048D01*
X130993235Y-124694591D01*
X130999192Y-124745940D01*
X131000000Y-124750000D01*
X131000000Y-125250000D01*
X130999192Y-125254059D01*
X130993235Y-125305408D01*
X130985489Y-125322950D01*
X130980970Y-125345671D01*
X130964716Y-125369995D01*
X130955534Y-125390793D01*
X130941329Y-125404997D01*
X130926777Y-125426777D01*
X130904997Y-125441329D01*
X130890793Y-125455534D01*
X130869995Y-125464716D01*
X130845671Y-125480970D01*
X130822950Y-125485489D01*
X130805408Y-125493235D01*
X130754061Y-125499192D01*
X130750000Y-125500000D01*
X130250000Y-125500000D01*
X130245941Y-125499192D01*
X130194591Y-125493235D01*
X130177048Y-125485489D01*
X130154329Y-125480970D01*
X130130006Y-125464718D01*
X130109206Y-125455534D01*
X130094999Y-125441327D01*
X130073223Y-125426777D01*
X130058672Y-125405000D01*
X130044465Y-125390793D01*
X130035280Y-125369991D01*
X130019030Y-125345671D01*
X130014511Y-125322954D01*
X130006764Y-125305408D01*
X130000805Y-125254049D01*
X130000000Y-125250000D01*
X130000000Y-124750000D01*
X130000804Y-124745953D01*
X130006764Y-124694591D01*
X130014511Y-124677043D01*
X130019030Y-124654329D01*
X130035278Y-124630010D01*
X130044465Y-124609206D01*
X130058674Y-124594996D01*
X130073223Y-124573223D01*
X130094996Y-124558674D01*
X130109206Y-124544465D01*
X130130010Y-124535278D01*
X130154329Y-124519030D01*
X130177043Y-124514511D01*
X130194591Y-124506764D01*
X130245952Y-124500805D01*
X130250000Y-124500000D01*
X130750000Y-124500000D01*
X130754047Y-124500805D01*
G37*
G36*
X133254047Y-124500805D02*
G01*
X133305408Y-124506764D01*
X133322954Y-124514511D01*
X133345671Y-124519030D01*
X133369991Y-124535280D01*
X133390793Y-124544465D01*
X133405000Y-124558672D01*
X133426777Y-124573223D01*
X133441327Y-124594999D01*
X133455534Y-124609206D01*
X133464718Y-124630006D01*
X133480970Y-124654329D01*
X133485489Y-124677048D01*
X133493235Y-124694591D01*
X133499192Y-124745940D01*
X133500000Y-124750000D01*
X133500000Y-125250000D01*
X133499192Y-125254059D01*
X133493235Y-125305408D01*
X133485489Y-125322950D01*
X133480970Y-125345671D01*
X133464716Y-125369995D01*
X133455534Y-125390793D01*
X133441329Y-125404997D01*
X133426777Y-125426777D01*
X133404997Y-125441329D01*
X133390793Y-125455534D01*
X133369995Y-125464716D01*
X133345671Y-125480970D01*
X133322950Y-125485489D01*
X133305408Y-125493235D01*
X133254061Y-125499192D01*
X133250000Y-125500000D01*
X132750000Y-125500000D01*
X132745941Y-125499192D01*
X132694591Y-125493235D01*
X132677048Y-125485489D01*
X132654329Y-125480970D01*
X132630006Y-125464718D01*
X132609206Y-125455534D01*
X132594999Y-125441327D01*
X132573223Y-125426777D01*
X132558672Y-125405000D01*
X132544465Y-125390793D01*
X132535280Y-125369991D01*
X132519030Y-125345671D01*
X132514511Y-125322954D01*
X132506764Y-125305408D01*
X132500805Y-125254049D01*
X132500000Y-125250000D01*
X132500000Y-124750000D01*
X132500804Y-124745953D01*
X132506764Y-124694591D01*
X132514511Y-124677043D01*
X132519030Y-124654329D01*
X132535278Y-124630010D01*
X132544465Y-124609206D01*
X132558674Y-124594996D01*
X132573223Y-124573223D01*
X132594996Y-124558674D01*
X132609206Y-124544465D01*
X132630010Y-124535278D01*
X132654329Y-124519030D01*
X132677043Y-124514511D01*
X132694591Y-124506764D01*
X132745952Y-124500805D01*
X132750000Y-124500000D01*
X133250000Y-124500000D01*
X133254047Y-124500805D01*
G37*
G36*
X170629047Y-122350805D02*
G01*
X170680408Y-122356764D01*
X170697954Y-122364511D01*
X170720671Y-122369030D01*
X170744991Y-122385280D01*
X170765793Y-122394465D01*
X170780000Y-122408672D01*
X170801777Y-122423223D01*
X170816327Y-122444999D01*
X170830534Y-122459206D01*
X170839718Y-122480006D01*
X170855970Y-122504329D01*
X170860489Y-122527048D01*
X170868235Y-122544591D01*
X170874192Y-122595940D01*
X170875000Y-122600000D01*
X170875000Y-123400000D01*
X170874192Y-123404059D01*
X170868235Y-123455408D01*
X170860489Y-123472950D01*
X170855970Y-123495671D01*
X170839716Y-123519995D01*
X170830534Y-123540793D01*
X170816329Y-123554997D01*
X170801777Y-123576777D01*
X170779997Y-123591329D01*
X170765793Y-123605534D01*
X170744995Y-123614716D01*
X170720671Y-123630970D01*
X170697950Y-123635489D01*
X170680408Y-123643235D01*
X170629061Y-123649192D01*
X170625000Y-123650000D01*
X169375000Y-123650000D01*
X169370941Y-123649192D01*
X169319591Y-123643235D01*
X169302048Y-123635489D01*
X169279329Y-123630970D01*
X169255006Y-123614718D01*
X169234206Y-123605534D01*
X169219999Y-123591327D01*
X169198223Y-123576777D01*
X169183672Y-123555000D01*
X169169465Y-123540793D01*
X169160280Y-123519991D01*
X169144030Y-123495671D01*
X169139511Y-123472954D01*
X169131764Y-123455408D01*
X169125805Y-123404049D01*
X169125000Y-123400000D01*
X169125000Y-122600000D01*
X169125804Y-122595953D01*
X169131764Y-122544591D01*
X169139511Y-122527043D01*
X169144030Y-122504329D01*
X169160278Y-122480010D01*
X169169465Y-122459206D01*
X169183674Y-122444996D01*
X169198223Y-122423223D01*
X169219996Y-122408674D01*
X169234206Y-122394465D01*
X169255010Y-122385278D01*
X169279329Y-122369030D01*
X169302043Y-122364511D01*
X169319591Y-122356764D01*
X169370952Y-122350805D01*
X169375000Y-122350000D01*
X170625000Y-122350000D01*
X170629047Y-122350805D01*
G37*
G36*
X173129047Y-122350805D02*
G01*
X173180408Y-122356764D01*
X173197954Y-122364511D01*
X173220671Y-122369030D01*
X173244991Y-122385280D01*
X173265793Y-122394465D01*
X173280000Y-122408672D01*
X173301777Y-122423223D01*
X173316327Y-122444999D01*
X173330534Y-122459206D01*
X173339718Y-122480006D01*
X173355970Y-122504329D01*
X173360489Y-122527048D01*
X173368235Y-122544591D01*
X173374192Y-122595940D01*
X173375000Y-122600000D01*
X173375000Y-123400000D01*
X173374192Y-123404059D01*
X173368235Y-123455408D01*
X173360489Y-123472950D01*
X173355970Y-123495671D01*
X173339716Y-123519995D01*
X173330534Y-123540793D01*
X173316329Y-123554997D01*
X173301777Y-123576777D01*
X173279997Y-123591329D01*
X173265793Y-123605534D01*
X173244995Y-123614716D01*
X173220671Y-123630970D01*
X173197950Y-123635489D01*
X173180408Y-123643235D01*
X173129061Y-123649192D01*
X173125000Y-123650000D01*
X171875000Y-123650000D01*
X171870941Y-123649192D01*
X171819591Y-123643235D01*
X171802048Y-123635489D01*
X171779329Y-123630970D01*
X171755006Y-123614718D01*
X171734206Y-123605534D01*
X171719999Y-123591327D01*
X171698223Y-123576777D01*
X171683672Y-123555000D01*
X171669465Y-123540793D01*
X171660280Y-123519991D01*
X171644030Y-123495671D01*
X171639511Y-123472954D01*
X171631764Y-123455408D01*
X171625805Y-123404049D01*
X171625000Y-123400000D01*
X171625000Y-122600000D01*
X171625804Y-122595953D01*
X171631764Y-122544591D01*
X171639511Y-122527043D01*
X171644030Y-122504329D01*
X171660278Y-122480010D01*
X171669465Y-122459206D01*
X171683674Y-122444996D01*
X171698223Y-122423223D01*
X171719996Y-122408674D01*
X171734206Y-122394465D01*
X171755010Y-122385278D01*
X171779329Y-122369030D01*
X171802043Y-122364511D01*
X171819591Y-122356764D01*
X171870952Y-122350805D01*
X171875000Y-122350000D01*
X173125000Y-122350000D01*
X173129047Y-122350805D01*
G37*
G36*
X175629047Y-122350805D02*
G01*
X175680408Y-122356764D01*
X175697954Y-122364511D01*
X175720671Y-122369030D01*
X175744991Y-122385280D01*
X175765793Y-122394465D01*
X175780000Y-122408672D01*
X175801777Y-122423223D01*
X175816327Y-122444999D01*
X175830534Y-122459206D01*
X175839718Y-122480006D01*
X175855970Y-122504329D01*
X175860489Y-122527048D01*
X175868235Y-122544591D01*
X175874192Y-122595940D01*
X175875000Y-122600000D01*
X175875000Y-123400000D01*
X175874192Y-123404059D01*
X175868235Y-123455408D01*
X175860489Y-123472950D01*
X175855970Y-123495671D01*
X175839716Y-123519995D01*
X175830534Y-123540793D01*
X175816329Y-123554997D01*
X175801777Y-123576777D01*
X175779997Y-123591329D01*
X175765793Y-123605534D01*
X175744995Y-123614716D01*
X175720671Y-123630970D01*
X175697950Y-123635489D01*
X175680408Y-123643235D01*
X175629061Y-123649192D01*
X175625000Y-123650000D01*
X174375000Y-123650000D01*
X174370941Y-123649192D01*
X174319591Y-123643235D01*
X174302048Y-123635489D01*
X174279329Y-123630970D01*
X174255006Y-123614718D01*
X174234206Y-123605534D01*
X174219999Y-123591327D01*
X174198223Y-123576777D01*
X174183672Y-123555000D01*
X174169465Y-123540793D01*
X174160280Y-123519991D01*
X174144030Y-123495671D01*
X174139511Y-123472954D01*
X174131764Y-123455408D01*
X174125805Y-123404049D01*
X174125000Y-123400000D01*
X174125000Y-122600000D01*
X174125804Y-122595953D01*
X174131764Y-122544591D01*
X174139511Y-122527043D01*
X174144030Y-122504329D01*
X174160278Y-122480010D01*
X174169465Y-122459206D01*
X174183674Y-122444996D01*
X174198223Y-122423223D01*
X174219996Y-122408674D01*
X174234206Y-122394465D01*
X174255010Y-122385278D01*
X174279329Y-122369030D01*
X174302043Y-122364511D01*
X174319591Y-122356764D01*
X174370952Y-122350805D01*
X174375000Y-122350000D01*
X175625000Y-122350000D01*
X175629047Y-122350805D01*
G37*
G36*
X179629047Y-122350805D02*
G01*
X179680408Y-122356764D01*
X179697954Y-122364511D01*
X179720671Y-122369030D01*
X179744991Y-122385280D01*
X179765793Y-122394465D01*
X179780000Y-122408672D01*
X179801777Y-122423223D01*
X179816327Y-122444999D01*
X179830534Y-122459206D01*
X179839718Y-122480006D01*
X179855970Y-122504329D01*
X179860489Y-122527048D01*
X179868235Y-122544591D01*
X179874192Y-122595940D01*
X179875000Y-122600000D01*
X179875000Y-123400000D01*
X179874192Y-123404059D01*
X179868235Y-123455408D01*
X179860489Y-123472950D01*
X179855970Y-123495671D01*
X179839716Y-123519995D01*
X179830534Y-123540793D01*
X179816329Y-123554997D01*
X179801777Y-123576777D01*
X179779997Y-123591329D01*
X179765793Y-123605534D01*
X179744995Y-123614716D01*
X179720671Y-123630970D01*
X179697950Y-123635489D01*
X179680408Y-123643235D01*
X179629061Y-123649192D01*
X179625000Y-123650000D01*
X178375000Y-123650000D01*
X178370941Y-123649192D01*
X178319591Y-123643235D01*
X178302048Y-123635489D01*
X178279329Y-123630970D01*
X178255006Y-123614718D01*
X178234206Y-123605534D01*
X178219999Y-123591327D01*
X178198223Y-123576777D01*
X178183672Y-123555000D01*
X178169465Y-123540793D01*
X178160280Y-123519991D01*
X178144030Y-123495671D01*
X178139511Y-123472954D01*
X178131764Y-123455408D01*
X178125805Y-123404049D01*
X178125000Y-123400000D01*
X178125000Y-122600000D01*
X178125804Y-122595953D01*
X178131764Y-122544591D01*
X178139511Y-122527043D01*
X178144030Y-122504329D01*
X178160278Y-122480010D01*
X178169465Y-122459206D01*
X178183674Y-122444996D01*
X178198223Y-122423223D01*
X178219996Y-122408674D01*
X178234206Y-122394465D01*
X178255010Y-122385278D01*
X178279329Y-122369030D01*
X178302043Y-122364511D01*
X178319591Y-122356764D01*
X178370952Y-122350805D01*
X178375000Y-122350000D01*
X179625000Y-122350000D01*
X179629047Y-122350805D01*
G37*
G36*
X182129047Y-122350805D02*
G01*
X182180408Y-122356764D01*
X182197954Y-122364511D01*
X182220671Y-122369030D01*
X182244991Y-122385280D01*
X182265793Y-122394465D01*
X182280000Y-122408672D01*
X182301777Y-122423223D01*
X182316327Y-122444999D01*
X182330534Y-122459206D01*
X182339718Y-122480006D01*
X182355970Y-122504329D01*
X182360489Y-122527048D01*
X182368235Y-122544591D01*
X182374192Y-122595940D01*
X182375000Y-122600000D01*
X182375000Y-123400000D01*
X182374192Y-123404059D01*
X182368235Y-123455408D01*
X182360489Y-123472950D01*
X182355970Y-123495671D01*
X182339716Y-123519995D01*
X182330534Y-123540793D01*
X182316329Y-123554997D01*
X182301777Y-123576777D01*
X182279997Y-123591329D01*
X182265793Y-123605534D01*
X182244995Y-123614716D01*
X182220671Y-123630970D01*
X182197950Y-123635489D01*
X182180408Y-123643235D01*
X182129061Y-123649192D01*
X182125000Y-123650000D01*
X180875000Y-123650000D01*
X180870941Y-123649192D01*
X180819591Y-123643235D01*
X180802048Y-123635489D01*
X180779329Y-123630970D01*
X180755006Y-123614718D01*
X180734206Y-123605534D01*
X180719999Y-123591327D01*
X180698223Y-123576777D01*
X180683672Y-123555000D01*
X180669465Y-123540793D01*
X180660280Y-123519991D01*
X180644030Y-123495671D01*
X180639511Y-123472954D01*
X180631764Y-123455408D01*
X180625805Y-123404049D01*
X180625000Y-123400000D01*
X180625000Y-122600000D01*
X180625804Y-122595953D01*
X180631764Y-122544591D01*
X180639511Y-122527043D01*
X180644030Y-122504329D01*
X180660278Y-122480010D01*
X180669465Y-122459206D01*
X180683674Y-122444996D01*
X180698223Y-122423223D01*
X180719996Y-122408674D01*
X180734206Y-122394465D01*
X180755010Y-122385278D01*
X180779329Y-122369030D01*
X180802043Y-122364511D01*
X180819591Y-122356764D01*
X180870952Y-122350805D01*
X180875000Y-122350000D01*
X182125000Y-122350000D01*
X182129047Y-122350805D01*
G37*
G36*
X184629047Y-122350805D02*
G01*
X184680408Y-122356764D01*
X184697954Y-122364511D01*
X184720671Y-122369030D01*
X184744991Y-122385280D01*
X184765793Y-122394465D01*
X184780000Y-122408672D01*
X184801777Y-122423223D01*
X184816327Y-122444999D01*
X184830534Y-122459206D01*
X184839718Y-122480006D01*
X184855970Y-122504329D01*
X184860489Y-122527048D01*
X184868235Y-122544591D01*
X184874192Y-122595940D01*
X184875000Y-122600000D01*
X184875000Y-123400000D01*
X184874192Y-123404059D01*
X184868235Y-123455408D01*
X184860489Y-123472950D01*
X184855970Y-123495671D01*
X184839716Y-123519995D01*
X184830534Y-123540793D01*
X184816329Y-123554997D01*
X184801777Y-123576777D01*
X184779997Y-123591329D01*
X184765793Y-123605534D01*
X184744995Y-123614716D01*
X184720671Y-123630970D01*
X184697950Y-123635489D01*
X184680408Y-123643235D01*
X184629061Y-123649192D01*
X184625000Y-123650000D01*
X183375000Y-123650000D01*
X183370941Y-123649192D01*
X183319591Y-123643235D01*
X183302048Y-123635489D01*
X183279329Y-123630970D01*
X183255006Y-123614718D01*
X183234206Y-123605534D01*
X183219999Y-123591327D01*
X183198223Y-123576777D01*
X183183672Y-123555000D01*
X183169465Y-123540793D01*
X183160280Y-123519991D01*
X183144030Y-123495671D01*
X183139511Y-123472954D01*
X183131764Y-123455408D01*
X183125805Y-123404049D01*
X183125000Y-123400000D01*
X183125000Y-122600000D01*
X183125804Y-122595953D01*
X183131764Y-122544591D01*
X183139511Y-122527043D01*
X183144030Y-122504329D01*
X183160278Y-122480010D01*
X183169465Y-122459206D01*
X183183674Y-122444996D01*
X183198223Y-122423223D01*
X183219996Y-122408674D01*
X183234206Y-122394465D01*
X183255010Y-122385278D01*
X183279329Y-122369030D01*
X183302043Y-122364511D01*
X183319591Y-122356764D01*
X183370952Y-122350805D01*
X183375000Y-122350000D01*
X184625000Y-122350000D01*
X184629047Y-122350805D01*
G37*
G36*
X105692664Y-120041602D02*
G01*
X105855000Y-120113878D01*
X105998761Y-120218327D01*
X106117664Y-120350383D01*
X106206514Y-120504274D01*
X106261425Y-120673275D01*
X106280000Y-120850000D01*
X106261425Y-121026725D01*
X106206514Y-121195726D01*
X106117664Y-121349617D01*
X105998761Y-121481673D01*
X105855000Y-121586122D01*
X105692664Y-121658398D01*
X105518849Y-121695344D01*
X105341151Y-121695344D01*
X105167336Y-121658398D01*
X105005000Y-121586122D01*
X104861239Y-121481673D01*
X104742336Y-121349617D01*
X104653486Y-121195726D01*
X104598575Y-121026725D01*
X104580000Y-120850000D01*
X104598575Y-120673275D01*
X104653486Y-120504274D01*
X104742336Y-120350383D01*
X104861239Y-120218327D01*
X105005000Y-120113878D01*
X105167336Y-120041602D01*
X105341151Y-120004656D01*
X105518849Y-120004656D01*
X105692664Y-120041602D01*
G37*
G36*
X108232664Y-120041602D02*
G01*
X108395000Y-120113878D01*
X108538761Y-120218327D01*
X108657664Y-120350383D01*
X108746514Y-120504274D01*
X108801425Y-120673275D01*
X108820000Y-120850000D01*
X108801425Y-121026725D01*
X108746514Y-121195726D01*
X108657664Y-121349617D01*
X108538761Y-121481673D01*
X108395000Y-121586122D01*
X108232664Y-121658398D01*
X108058849Y-121695344D01*
X107881151Y-121695344D01*
X107707336Y-121658398D01*
X107545000Y-121586122D01*
X107401239Y-121481673D01*
X107282336Y-121349617D01*
X107193486Y-121195726D01*
X107138575Y-121026725D01*
X107120000Y-120850000D01*
X107138575Y-120673275D01*
X107193486Y-120504274D01*
X107282336Y-120350383D01*
X107401239Y-120218327D01*
X107545000Y-120113878D01*
X107707336Y-120041602D01*
X107881151Y-120004656D01*
X108058849Y-120004656D01*
X108232664Y-120041602D01*
G37*
G36*
X110772664Y-120041602D02*
G01*
X110935000Y-120113878D01*
X111078761Y-120218327D01*
X111197664Y-120350383D01*
X111286514Y-120504274D01*
X111341425Y-120673275D01*
X111360000Y-120850000D01*
X111341425Y-121026725D01*
X111286514Y-121195726D01*
X111197664Y-121349617D01*
X111078761Y-121481673D01*
X110935000Y-121586122D01*
X110772664Y-121658398D01*
X110598849Y-121695344D01*
X110421151Y-121695344D01*
X110247336Y-121658398D01*
X110085000Y-121586122D01*
X109941239Y-121481673D01*
X109822336Y-121349617D01*
X109733486Y-121195726D01*
X109678575Y-121026725D01*
X109660000Y-120850000D01*
X109678575Y-120673275D01*
X109733486Y-120504274D01*
X109822336Y-120350383D01*
X109941239Y-120218327D01*
X110085000Y-120113878D01*
X110247336Y-120041602D01*
X110421151Y-120004656D01*
X110598849Y-120004656D01*
X110772664Y-120041602D01*
G37*
G36*
X113312664Y-120041602D02*
G01*
X113475000Y-120113878D01*
X113618761Y-120218327D01*
X113737664Y-120350383D01*
X113826514Y-120504274D01*
X113881425Y-120673275D01*
X113900000Y-120850000D01*
X113881425Y-121026725D01*
X113826514Y-121195726D01*
X113737664Y-121349617D01*
X113618761Y-121481673D01*
X113475000Y-121586122D01*
X113312664Y-121658398D01*
X113138849Y-121695344D01*
X112961151Y-121695344D01*
X112787336Y-121658398D01*
X112625000Y-121586122D01*
X112481239Y-121481673D01*
X112362336Y-121349617D01*
X112273486Y-121195726D01*
X112218575Y-121026725D01*
X112200000Y-120850000D01*
X112218575Y-120673275D01*
X112273486Y-120504274D01*
X112362336Y-120350383D01*
X112481239Y-120218327D01*
X112625000Y-120113878D01*
X112787336Y-120041602D01*
X112961151Y-120004656D01*
X113138849Y-120004656D01*
X113312664Y-120041602D01*
G37*
G36*
X115852664Y-120041602D02*
G01*
X116015000Y-120113878D01*
X116158761Y-120218327D01*
X116277664Y-120350383D01*
X116366514Y-120504274D01*
X116421425Y-120673275D01*
X116440000Y-120850000D01*
X116421425Y-121026725D01*
X116366514Y-121195726D01*
X116277664Y-121349617D01*
X116158761Y-121481673D01*
X116015000Y-121586122D01*
X115852664Y-121658398D01*
X115678849Y-121695344D01*
X115501151Y-121695344D01*
X115327336Y-121658398D01*
X115165000Y-121586122D01*
X115021239Y-121481673D01*
X114902336Y-121349617D01*
X114813486Y-121195726D01*
X114758575Y-121026725D01*
X114740000Y-120850000D01*
X114758575Y-120673275D01*
X114813486Y-120504274D01*
X114902336Y-120350383D01*
X115021239Y-120218327D01*
X115165000Y-120113878D01*
X115327336Y-120041602D01*
X115501151Y-120004656D01*
X115678849Y-120004656D01*
X115852664Y-120041602D01*
G37*
G36*
X118392664Y-120041602D02*
G01*
X118555000Y-120113878D01*
X118698761Y-120218327D01*
X118817664Y-120350383D01*
X118906514Y-120504274D01*
X118961425Y-120673275D01*
X118980000Y-120850000D01*
X118961425Y-121026725D01*
X118906514Y-121195726D01*
X118817664Y-121349617D01*
X118698761Y-121481673D01*
X118555000Y-121586122D01*
X118392664Y-121658398D01*
X118218849Y-121695344D01*
X118041151Y-121695344D01*
X117867336Y-121658398D01*
X117705000Y-121586122D01*
X117561239Y-121481673D01*
X117442336Y-121349617D01*
X117353486Y-121195726D01*
X117298575Y-121026725D01*
X117280000Y-120850000D01*
X117298575Y-120673275D01*
X117353486Y-120504274D01*
X117442336Y-120350383D01*
X117561239Y-120218327D01*
X117705000Y-120113878D01*
X117867336Y-120041602D01*
X118041151Y-120004656D01*
X118218849Y-120004656D01*
X118392664Y-120041602D01*
G37*
G36*
X120932664Y-120041602D02*
G01*
X121095000Y-120113878D01*
X121238761Y-120218327D01*
X121357664Y-120350383D01*
X121446514Y-120504274D01*
X121501425Y-120673275D01*
X121520000Y-120850000D01*
X121501425Y-121026725D01*
X121446514Y-121195726D01*
X121357664Y-121349617D01*
X121238761Y-121481673D01*
X121095000Y-121586122D01*
X120932664Y-121658398D01*
X120758849Y-121695344D01*
X120581151Y-121695344D01*
X120407336Y-121658398D01*
X120245000Y-121586122D01*
X120101239Y-121481673D01*
X119982336Y-121349617D01*
X119893486Y-121195726D01*
X119838575Y-121026725D01*
X119820000Y-120850000D01*
X119838575Y-120673275D01*
X119893486Y-120504274D01*
X119982336Y-120350383D01*
X120101239Y-120218327D01*
X120245000Y-120113878D01*
X120407336Y-120041602D01*
X120581151Y-120004656D01*
X120758849Y-120004656D01*
X120932664Y-120041602D01*
G37*
G36*
X123472664Y-120041602D02*
G01*
X123635000Y-120113878D01*
X123778761Y-120218327D01*
X123897664Y-120350383D01*
X123986514Y-120504274D01*
X124041425Y-120673275D01*
X124060000Y-120850000D01*
X124041425Y-121026725D01*
X123986514Y-121195726D01*
X123897664Y-121349617D01*
X123778761Y-121481673D01*
X123635000Y-121586122D01*
X123472664Y-121658398D01*
X123298849Y-121695344D01*
X123121151Y-121695344D01*
X122947336Y-121658398D01*
X122785000Y-121586122D01*
X122641239Y-121481673D01*
X122522336Y-121349617D01*
X122433486Y-121195726D01*
X122378575Y-121026725D01*
X122360000Y-120850000D01*
X122378575Y-120673275D01*
X122433486Y-120504274D01*
X122522336Y-120350383D01*
X122641239Y-120218327D01*
X122785000Y-120113878D01*
X122947336Y-120041602D01*
X123121151Y-120004656D01*
X123298849Y-120004656D01*
X123472664Y-120041602D01*
G37*
G36*
X126012664Y-120041602D02*
G01*
X126175000Y-120113878D01*
X126318761Y-120218327D01*
X126437664Y-120350383D01*
X126526514Y-120504274D01*
X126581425Y-120673275D01*
X126600000Y-120850000D01*
X126581425Y-121026725D01*
X126526514Y-121195726D01*
X126437664Y-121349617D01*
X126318761Y-121481673D01*
X126175000Y-121586122D01*
X126012664Y-121658398D01*
X125838849Y-121695344D01*
X125661151Y-121695344D01*
X125487336Y-121658398D01*
X125325000Y-121586122D01*
X125181239Y-121481673D01*
X125062336Y-121349617D01*
X124973486Y-121195726D01*
X124918575Y-121026725D01*
X124900000Y-120850000D01*
X124918575Y-120673275D01*
X124973486Y-120504274D01*
X125062336Y-120350383D01*
X125181239Y-120218327D01*
X125325000Y-120113878D01*
X125487336Y-120041602D01*
X125661151Y-120004656D01*
X125838849Y-120004656D01*
X126012664Y-120041602D01*
G37*
G36*
X128552664Y-120041602D02*
G01*
X128715000Y-120113878D01*
X128858761Y-120218327D01*
X128977664Y-120350383D01*
X129066514Y-120504274D01*
X129121425Y-120673275D01*
X129140000Y-120850000D01*
X129121425Y-121026725D01*
X129066514Y-121195726D01*
X128977664Y-121349617D01*
X128858761Y-121481673D01*
X128715000Y-121586122D01*
X128552664Y-121658398D01*
X128378849Y-121695344D01*
X128201151Y-121695344D01*
X128027336Y-121658398D01*
X127865000Y-121586122D01*
X127721239Y-121481673D01*
X127602336Y-121349617D01*
X127513486Y-121195726D01*
X127458575Y-121026725D01*
X127440000Y-120850000D01*
X127458575Y-120673275D01*
X127513486Y-120504274D01*
X127602336Y-120350383D01*
X127721239Y-120218327D01*
X127865000Y-120113878D01*
X128027336Y-120041602D01*
X128201151Y-120004656D01*
X128378849Y-120004656D01*
X128552664Y-120041602D01*
G37*
G36*
X131092664Y-120041602D02*
G01*
X131255000Y-120113878D01*
X131398761Y-120218327D01*
X131517664Y-120350383D01*
X131606514Y-120504274D01*
X131661425Y-120673275D01*
X131680000Y-120850000D01*
X131661425Y-121026725D01*
X131606514Y-121195726D01*
X131517664Y-121349617D01*
X131398761Y-121481673D01*
X131255000Y-121586122D01*
X131092664Y-121658398D01*
X130918849Y-121695344D01*
X130741151Y-121695344D01*
X130567336Y-121658398D01*
X130405000Y-121586122D01*
X130261239Y-121481673D01*
X130142336Y-121349617D01*
X130053486Y-121195726D01*
X129998575Y-121026725D01*
X129980000Y-120850000D01*
X129998575Y-120673275D01*
X130053486Y-120504274D01*
X130142336Y-120350383D01*
X130261239Y-120218327D01*
X130405000Y-120113878D01*
X130567336Y-120041602D01*
X130741151Y-120004656D01*
X130918849Y-120004656D01*
X131092664Y-120041602D01*
G37*
G36*
X133632664Y-120041602D02*
G01*
X133795000Y-120113878D01*
X133938761Y-120218327D01*
X134057664Y-120350383D01*
X134146514Y-120504274D01*
X134201425Y-120673275D01*
X134220000Y-120850000D01*
X134201425Y-121026725D01*
X134146514Y-121195726D01*
X134057664Y-121349617D01*
X133938761Y-121481673D01*
X133795000Y-121586122D01*
X133632664Y-121658398D01*
X133458849Y-121695344D01*
X133281151Y-121695344D01*
X133107336Y-121658398D01*
X132945000Y-121586122D01*
X132801239Y-121481673D01*
X132682336Y-121349617D01*
X132593486Y-121195726D01*
X132538575Y-121026725D01*
X132520000Y-120850000D01*
X132538575Y-120673275D01*
X132593486Y-120504274D01*
X132682336Y-120350383D01*
X132801239Y-120218327D01*
X132945000Y-120113878D01*
X133107336Y-120041602D01*
X133281151Y-120004656D01*
X133458849Y-120004656D01*
X133632664Y-120041602D01*
G37*
G36*
X136172664Y-120041602D02*
G01*
X136335000Y-120113878D01*
X136478761Y-120218327D01*
X136597664Y-120350383D01*
X136686514Y-120504274D01*
X136741425Y-120673275D01*
X136760000Y-120850000D01*
X136741425Y-121026725D01*
X136686514Y-121195726D01*
X136597664Y-121349617D01*
X136478761Y-121481673D01*
X136335000Y-121586122D01*
X136172664Y-121658398D01*
X135998849Y-121695344D01*
X135821151Y-121695344D01*
X135647336Y-121658398D01*
X135485000Y-121586122D01*
X135341239Y-121481673D01*
X135222336Y-121349617D01*
X135133486Y-121195726D01*
X135078575Y-121026725D01*
X135060000Y-120850000D01*
X135078575Y-120673275D01*
X135133486Y-120504274D01*
X135222336Y-120350383D01*
X135341239Y-120218327D01*
X135485000Y-120113878D01*
X135647336Y-120041602D01*
X135821151Y-120004656D01*
X135998849Y-120004656D01*
X136172664Y-120041602D01*
G37*
G36*
X138712664Y-120041602D02*
G01*
X138875000Y-120113878D01*
X139018761Y-120218327D01*
X139137664Y-120350383D01*
X139226514Y-120504274D01*
X139281425Y-120673275D01*
X139300000Y-120850000D01*
X139281425Y-121026725D01*
X139226514Y-121195726D01*
X139137664Y-121349617D01*
X139018761Y-121481673D01*
X138875000Y-121586122D01*
X138712664Y-121658398D01*
X138538849Y-121695344D01*
X138361151Y-121695344D01*
X138187336Y-121658398D01*
X138025000Y-121586122D01*
X137881239Y-121481673D01*
X137762336Y-121349617D01*
X137673486Y-121195726D01*
X137618575Y-121026725D01*
X137600000Y-120850000D01*
X137618575Y-120673275D01*
X137673486Y-120504274D01*
X137762336Y-120350383D01*
X137881239Y-120218327D01*
X138025000Y-120113878D01*
X138187336Y-120041602D01*
X138361151Y-120004656D01*
X138538849Y-120004656D01*
X138712664Y-120041602D01*
G37*
G36*
X141252664Y-120041602D02*
G01*
X141415000Y-120113878D01*
X141558761Y-120218327D01*
X141677664Y-120350383D01*
X141766514Y-120504274D01*
X141821425Y-120673275D01*
X141840000Y-120850000D01*
X141821425Y-121026725D01*
X141766514Y-121195726D01*
X141677664Y-121349617D01*
X141558761Y-121481673D01*
X141415000Y-121586122D01*
X141252664Y-121658398D01*
X141078849Y-121695344D01*
X140901151Y-121695344D01*
X140727336Y-121658398D01*
X140565000Y-121586122D01*
X140421239Y-121481673D01*
X140302336Y-121349617D01*
X140213486Y-121195726D01*
X140158575Y-121026725D01*
X140140000Y-120850000D01*
X140158575Y-120673275D01*
X140213486Y-120504274D01*
X140302336Y-120350383D01*
X140421239Y-120218327D01*
X140565000Y-120113878D01*
X140727336Y-120041602D01*
X140901151Y-120004656D01*
X141078849Y-120004656D01*
X141252664Y-120041602D01*
G37*
G36*
X143792664Y-120041602D02*
G01*
X143955000Y-120113878D01*
X144098761Y-120218327D01*
X144217664Y-120350383D01*
X144306514Y-120504274D01*
X144361425Y-120673275D01*
X144380000Y-120850000D01*
X144361425Y-121026725D01*
X144306514Y-121195726D01*
X144217664Y-121349617D01*
X144098761Y-121481673D01*
X143955000Y-121586122D01*
X143792664Y-121658398D01*
X143618849Y-121695344D01*
X143441151Y-121695344D01*
X143267336Y-121658398D01*
X143105000Y-121586122D01*
X142961239Y-121481673D01*
X142842336Y-121349617D01*
X142753486Y-121195726D01*
X142698575Y-121026725D01*
X142680000Y-120850000D01*
X142698575Y-120673275D01*
X142753486Y-120504274D01*
X142842336Y-120350383D01*
X142961239Y-120218327D01*
X143105000Y-120113878D01*
X143267336Y-120041602D01*
X143441151Y-120004656D01*
X143618849Y-120004656D01*
X143792664Y-120041602D01*
G37*
G36*
X146332664Y-120041602D02*
G01*
X146495000Y-120113878D01*
X146638761Y-120218327D01*
X146757664Y-120350383D01*
X146846514Y-120504274D01*
X146901425Y-120673275D01*
X146920000Y-120850000D01*
X146901425Y-121026725D01*
X146846514Y-121195726D01*
X146757664Y-121349617D01*
X146638761Y-121481673D01*
X146495000Y-121586122D01*
X146332664Y-121658398D01*
X146158849Y-121695344D01*
X145981151Y-121695344D01*
X145807336Y-121658398D01*
X145645000Y-121586122D01*
X145501239Y-121481673D01*
X145382336Y-121349617D01*
X145293486Y-121195726D01*
X145238575Y-121026725D01*
X145220000Y-120850000D01*
X145238575Y-120673275D01*
X145293486Y-120504274D01*
X145382336Y-120350383D01*
X145501239Y-120218327D01*
X145645000Y-120113878D01*
X145807336Y-120041602D01*
X145981151Y-120004656D01*
X146158849Y-120004656D01*
X146332664Y-120041602D01*
G37*
G36*
X148872664Y-120041602D02*
G01*
X149035000Y-120113878D01*
X149178761Y-120218327D01*
X149297664Y-120350383D01*
X149386514Y-120504274D01*
X149441425Y-120673275D01*
X149460000Y-120850000D01*
X149441425Y-121026725D01*
X149386514Y-121195726D01*
X149297664Y-121349617D01*
X149178761Y-121481673D01*
X149035000Y-121586122D01*
X148872664Y-121658398D01*
X148698849Y-121695344D01*
X148521151Y-121695344D01*
X148347336Y-121658398D01*
X148185000Y-121586122D01*
X148041239Y-121481673D01*
X147922336Y-121349617D01*
X147833486Y-121195726D01*
X147778575Y-121026725D01*
X147760000Y-120850000D01*
X147778575Y-120673275D01*
X147833486Y-120504274D01*
X147922336Y-120350383D01*
X148041239Y-120218327D01*
X148185000Y-120113878D01*
X148347336Y-120041602D01*
X148521151Y-120004656D01*
X148698849Y-120004656D01*
X148872664Y-120041602D01*
G37*
G36*
X151412664Y-120041602D02*
G01*
X151575000Y-120113878D01*
X151718761Y-120218327D01*
X151837664Y-120350383D01*
X151926514Y-120504274D01*
X151981425Y-120673275D01*
X152000000Y-120850000D01*
X151981425Y-121026725D01*
X151926514Y-121195726D01*
X151837664Y-121349617D01*
X151718761Y-121481673D01*
X151575000Y-121586122D01*
X151412664Y-121658398D01*
X151238849Y-121695344D01*
X151061151Y-121695344D01*
X150887336Y-121658398D01*
X150725000Y-121586122D01*
X150581239Y-121481673D01*
X150462336Y-121349617D01*
X150373486Y-121195726D01*
X150318575Y-121026725D01*
X150300000Y-120850000D01*
X150318575Y-120673275D01*
X150373486Y-120504274D01*
X150462336Y-120350383D01*
X150581239Y-120218327D01*
X150725000Y-120113878D01*
X150887336Y-120041602D01*
X151061151Y-120004656D01*
X151238849Y-120004656D01*
X151412664Y-120041602D01*
G37*
G36*
X153952664Y-120041602D02*
G01*
X154115000Y-120113878D01*
X154258761Y-120218327D01*
X154377664Y-120350383D01*
X154466514Y-120504274D01*
X154521425Y-120673275D01*
X154540000Y-120850000D01*
X154521425Y-121026725D01*
X154466514Y-121195726D01*
X154377664Y-121349617D01*
X154258761Y-121481673D01*
X154115000Y-121586122D01*
X153952664Y-121658398D01*
X153778849Y-121695344D01*
X153601151Y-121695344D01*
X153427336Y-121658398D01*
X153265000Y-121586122D01*
X153121239Y-121481673D01*
X153002336Y-121349617D01*
X152913486Y-121195726D01*
X152858575Y-121026725D01*
X152840000Y-120850000D01*
X152858575Y-120673275D01*
X152913486Y-120504274D01*
X153002336Y-120350383D01*
X153121239Y-120218327D01*
X153265000Y-120113878D01*
X153427336Y-120041602D01*
X153601151Y-120004656D01*
X153778849Y-120004656D01*
X153952664Y-120041602D01*
G37*
G36*
X156492664Y-120041602D02*
G01*
X156655000Y-120113878D01*
X156798761Y-120218327D01*
X156917664Y-120350383D01*
X157006514Y-120504274D01*
X157061425Y-120673275D01*
X157080000Y-120850000D01*
X157061425Y-121026725D01*
X157006514Y-121195726D01*
X156917664Y-121349617D01*
X156798761Y-121481673D01*
X156655000Y-121586122D01*
X156492664Y-121658398D01*
X156318849Y-121695344D01*
X156141151Y-121695344D01*
X155967336Y-121658398D01*
X155805000Y-121586122D01*
X155661239Y-121481673D01*
X155542336Y-121349617D01*
X155453486Y-121195726D01*
X155398575Y-121026725D01*
X155380000Y-120850000D01*
X155398575Y-120673275D01*
X155453486Y-120504274D01*
X155542336Y-120350383D01*
X155661239Y-120218327D01*
X155805000Y-120113878D01*
X155967336Y-120041602D01*
X156141151Y-120004656D01*
X156318849Y-120004656D01*
X156492664Y-120041602D01*
G37*
G36*
X159032664Y-120041602D02*
G01*
X159195000Y-120113878D01*
X159338761Y-120218327D01*
X159457664Y-120350383D01*
X159546514Y-120504274D01*
X159601425Y-120673275D01*
X159620000Y-120850000D01*
X159601425Y-121026725D01*
X159546514Y-121195726D01*
X159457664Y-121349617D01*
X159338761Y-121481673D01*
X159195000Y-121586122D01*
X159032664Y-121658398D01*
X158858849Y-121695344D01*
X158681151Y-121695344D01*
X158507336Y-121658398D01*
X158345000Y-121586122D01*
X158201239Y-121481673D01*
X158082336Y-121349617D01*
X157993486Y-121195726D01*
X157938575Y-121026725D01*
X157920000Y-120850000D01*
X157938575Y-120673275D01*
X157993486Y-120504274D01*
X158082336Y-120350383D01*
X158201239Y-120218327D01*
X158345000Y-120113878D01*
X158507336Y-120041602D01*
X158681151Y-120004656D01*
X158858849Y-120004656D01*
X159032664Y-120041602D01*
G37*
G36*
X170629047Y-119250805D02*
G01*
X170680408Y-119256764D01*
X170697954Y-119264511D01*
X170720671Y-119269030D01*
X170744991Y-119285280D01*
X170765793Y-119294465D01*
X170780000Y-119308672D01*
X170801777Y-119323223D01*
X170816327Y-119344999D01*
X170830534Y-119359206D01*
X170839718Y-119380006D01*
X170855970Y-119404329D01*
X170860489Y-119427048D01*
X170868235Y-119444591D01*
X170874192Y-119495940D01*
X170875000Y-119500000D01*
X170875000Y-120300000D01*
X170874192Y-120304059D01*
X170868235Y-120355408D01*
X170860489Y-120372950D01*
X170855970Y-120395671D01*
X170839716Y-120419995D01*
X170830534Y-120440793D01*
X170816329Y-120454997D01*
X170801777Y-120476777D01*
X170779997Y-120491329D01*
X170765793Y-120505534D01*
X170744995Y-120514716D01*
X170720671Y-120530970D01*
X170697950Y-120535489D01*
X170680408Y-120543235D01*
X170629061Y-120549192D01*
X170625000Y-120550000D01*
X169375000Y-120550000D01*
X169370941Y-120549192D01*
X169319591Y-120543235D01*
X169302048Y-120535489D01*
X169279329Y-120530970D01*
X169255006Y-120514718D01*
X169234206Y-120505534D01*
X169219999Y-120491327D01*
X169198223Y-120476777D01*
X169183672Y-120455000D01*
X169169465Y-120440793D01*
X169160280Y-120419991D01*
X169144030Y-120395671D01*
X169139511Y-120372954D01*
X169131764Y-120355408D01*
X169125805Y-120304049D01*
X169125000Y-120300000D01*
X169125000Y-119500000D01*
X169125804Y-119495953D01*
X169131764Y-119444591D01*
X169139511Y-119427043D01*
X169144030Y-119404329D01*
X169160278Y-119380010D01*
X169169465Y-119359206D01*
X169183674Y-119344996D01*
X169198223Y-119323223D01*
X169219996Y-119308674D01*
X169234206Y-119294465D01*
X169255010Y-119285278D01*
X169279329Y-119269030D01*
X169302043Y-119264511D01*
X169319591Y-119256764D01*
X169370952Y-119250805D01*
X169375000Y-119250000D01*
X170625000Y-119250000D01*
X170629047Y-119250805D01*
G37*
G36*
X173129047Y-119250805D02*
G01*
X173180408Y-119256764D01*
X173197954Y-119264511D01*
X173220671Y-119269030D01*
X173244991Y-119285280D01*
X173265793Y-119294465D01*
X173280000Y-119308672D01*
X173301777Y-119323223D01*
X173316327Y-119344999D01*
X173330534Y-119359206D01*
X173339718Y-119380006D01*
X173355970Y-119404329D01*
X173360489Y-119427048D01*
X173368235Y-119444591D01*
X173374192Y-119495940D01*
X173375000Y-119500000D01*
X173375000Y-120300000D01*
X173374192Y-120304059D01*
X173368235Y-120355408D01*
X173360489Y-120372950D01*
X173355970Y-120395671D01*
X173339716Y-120419995D01*
X173330534Y-120440793D01*
X173316329Y-120454997D01*
X173301777Y-120476777D01*
X173279997Y-120491329D01*
X173265793Y-120505534D01*
X173244995Y-120514716D01*
X173220671Y-120530970D01*
X173197950Y-120535489D01*
X173180408Y-120543235D01*
X173129061Y-120549192D01*
X173125000Y-120550000D01*
X171875000Y-120550000D01*
X171870941Y-120549192D01*
X171819591Y-120543235D01*
X171802048Y-120535489D01*
X171779329Y-120530970D01*
X171755006Y-120514718D01*
X171734206Y-120505534D01*
X171719999Y-120491327D01*
X171698223Y-120476777D01*
X171683672Y-120455000D01*
X171669465Y-120440793D01*
X171660280Y-120419991D01*
X171644030Y-120395671D01*
X171639511Y-120372954D01*
X171631764Y-120355408D01*
X171625805Y-120304049D01*
X171625000Y-120300000D01*
X171625000Y-119500000D01*
X171625804Y-119495953D01*
X171631764Y-119444591D01*
X171639511Y-119427043D01*
X171644030Y-119404329D01*
X171660278Y-119380010D01*
X171669465Y-119359206D01*
X171683674Y-119344996D01*
X171698223Y-119323223D01*
X171719996Y-119308674D01*
X171734206Y-119294465D01*
X171755010Y-119285278D01*
X171779329Y-119269030D01*
X171802043Y-119264511D01*
X171819591Y-119256764D01*
X171870952Y-119250805D01*
X171875000Y-119250000D01*
X173125000Y-119250000D01*
X173129047Y-119250805D01*
G37*
G36*
X175629047Y-119250805D02*
G01*
X175680408Y-119256764D01*
X175697954Y-119264511D01*
X175720671Y-119269030D01*
X175744991Y-119285280D01*
X175765793Y-119294465D01*
X175780000Y-119308672D01*
X175801777Y-119323223D01*
X175816327Y-119344999D01*
X175830534Y-119359206D01*
X175839718Y-119380006D01*
X175855970Y-119404329D01*
X175860489Y-119427048D01*
X175868235Y-119444591D01*
X175874192Y-119495940D01*
X175875000Y-119500000D01*
X175875000Y-120300000D01*
X175874192Y-120304059D01*
X175868235Y-120355408D01*
X175860489Y-120372950D01*
X175855970Y-120395671D01*
X175839716Y-120419995D01*
X175830534Y-120440793D01*
X175816329Y-120454997D01*
X175801777Y-120476777D01*
X175779997Y-120491329D01*
X175765793Y-120505534D01*
X175744995Y-120514716D01*
X175720671Y-120530970D01*
X175697950Y-120535489D01*
X175680408Y-120543235D01*
X175629061Y-120549192D01*
X175625000Y-120550000D01*
X174375000Y-120550000D01*
X174370941Y-120549192D01*
X174319591Y-120543235D01*
X174302048Y-120535489D01*
X174279329Y-120530970D01*
X174255006Y-120514718D01*
X174234206Y-120505534D01*
X174219999Y-120491327D01*
X174198223Y-120476777D01*
X174183672Y-120455000D01*
X174169465Y-120440793D01*
X174160280Y-120419991D01*
X174144030Y-120395671D01*
X174139511Y-120372954D01*
X174131764Y-120355408D01*
X174125805Y-120304049D01*
X174125000Y-120300000D01*
X174125000Y-119500000D01*
X174125804Y-119495953D01*
X174131764Y-119444591D01*
X174139511Y-119427043D01*
X174144030Y-119404329D01*
X174160278Y-119380010D01*
X174169465Y-119359206D01*
X174183674Y-119344996D01*
X174198223Y-119323223D01*
X174219996Y-119308674D01*
X174234206Y-119294465D01*
X174255010Y-119285278D01*
X174279329Y-119269030D01*
X174302043Y-119264511D01*
X174319591Y-119256764D01*
X174370952Y-119250805D01*
X174375000Y-119250000D01*
X175625000Y-119250000D01*
X175629047Y-119250805D01*
G37*
G36*
X179629047Y-119250805D02*
G01*
X179680408Y-119256764D01*
X179697954Y-119264511D01*
X179720671Y-119269030D01*
X179744991Y-119285280D01*
X179765793Y-119294465D01*
X179780000Y-119308672D01*
X179801777Y-119323223D01*
X179816327Y-119344999D01*
X179830534Y-119359206D01*
X179839718Y-119380006D01*
X179855970Y-119404329D01*
X179860489Y-119427048D01*
X179868235Y-119444591D01*
X179874192Y-119495940D01*
X179875000Y-119500000D01*
X179875000Y-120300000D01*
X179874192Y-120304059D01*
X179868235Y-120355408D01*
X179860489Y-120372950D01*
X179855970Y-120395671D01*
X179839716Y-120419995D01*
X179830534Y-120440793D01*
X179816329Y-120454997D01*
X179801777Y-120476777D01*
X179779997Y-120491329D01*
X179765793Y-120505534D01*
X179744995Y-120514716D01*
X179720671Y-120530970D01*
X179697950Y-120535489D01*
X179680408Y-120543235D01*
X179629061Y-120549192D01*
X179625000Y-120550000D01*
X178375000Y-120550000D01*
X178370941Y-120549192D01*
X178319591Y-120543235D01*
X178302048Y-120535489D01*
X178279329Y-120530970D01*
X178255006Y-120514718D01*
X178234206Y-120505534D01*
X178219999Y-120491327D01*
X178198223Y-120476777D01*
X178183672Y-120455000D01*
X178169465Y-120440793D01*
X178160280Y-120419991D01*
X178144030Y-120395671D01*
X178139511Y-120372954D01*
X178131764Y-120355408D01*
X178125805Y-120304049D01*
X178125000Y-120300000D01*
X178125000Y-119500000D01*
X178125804Y-119495953D01*
X178131764Y-119444591D01*
X178139511Y-119427043D01*
X178144030Y-119404329D01*
X178160278Y-119380010D01*
X178169465Y-119359206D01*
X178183674Y-119344996D01*
X178198223Y-119323223D01*
X178219996Y-119308674D01*
X178234206Y-119294465D01*
X178255010Y-119285278D01*
X178279329Y-119269030D01*
X178302043Y-119264511D01*
X178319591Y-119256764D01*
X178370952Y-119250805D01*
X178375000Y-119250000D01*
X179625000Y-119250000D01*
X179629047Y-119250805D01*
G37*
G36*
X182129047Y-119250805D02*
G01*
X182180408Y-119256764D01*
X182197954Y-119264511D01*
X182220671Y-119269030D01*
X182244991Y-119285280D01*
X182265793Y-119294465D01*
X182280000Y-119308672D01*
X182301777Y-119323223D01*
X182316327Y-119344999D01*
X182330534Y-119359206D01*
X182339718Y-119380006D01*
X182355970Y-119404329D01*
X182360489Y-119427048D01*
X182368235Y-119444591D01*
X182374192Y-119495940D01*
X182375000Y-119500000D01*
X182375000Y-120300000D01*
X182374192Y-120304059D01*
X182368235Y-120355408D01*
X182360489Y-120372950D01*
X182355970Y-120395671D01*
X182339716Y-120419995D01*
X182330534Y-120440793D01*
X182316329Y-120454997D01*
X182301777Y-120476777D01*
X182279997Y-120491329D01*
X182265793Y-120505534D01*
X182244995Y-120514716D01*
X182220671Y-120530970D01*
X182197950Y-120535489D01*
X182180408Y-120543235D01*
X182129061Y-120549192D01*
X182125000Y-120550000D01*
X180875000Y-120550000D01*
X180870941Y-120549192D01*
X180819591Y-120543235D01*
X180802048Y-120535489D01*
X180779329Y-120530970D01*
X180755006Y-120514718D01*
X180734206Y-120505534D01*
X180719999Y-120491327D01*
X180698223Y-120476777D01*
X180683672Y-120455000D01*
X180669465Y-120440793D01*
X180660280Y-120419991D01*
X180644030Y-120395671D01*
X180639511Y-120372954D01*
X180631764Y-120355408D01*
X180625805Y-120304049D01*
X180625000Y-120300000D01*
X180625000Y-119500000D01*
X180625804Y-119495953D01*
X180631764Y-119444591D01*
X180639511Y-119427043D01*
X180644030Y-119404329D01*
X180660278Y-119380010D01*
X180669465Y-119359206D01*
X180683674Y-119344996D01*
X180698223Y-119323223D01*
X180719996Y-119308674D01*
X180734206Y-119294465D01*
X180755010Y-119285278D01*
X180779329Y-119269030D01*
X180802043Y-119264511D01*
X180819591Y-119256764D01*
X180870952Y-119250805D01*
X180875000Y-119250000D01*
X182125000Y-119250000D01*
X182129047Y-119250805D01*
G37*
G36*
X184629047Y-119250805D02*
G01*
X184680408Y-119256764D01*
X184697954Y-119264511D01*
X184720671Y-119269030D01*
X184744991Y-119285280D01*
X184765793Y-119294465D01*
X184780000Y-119308672D01*
X184801777Y-119323223D01*
X184816327Y-119344999D01*
X184830534Y-119359206D01*
X184839718Y-119380006D01*
X184855970Y-119404329D01*
X184860489Y-119427048D01*
X184868235Y-119444591D01*
X184874192Y-119495940D01*
X184875000Y-119500000D01*
X184875000Y-120300000D01*
X184874192Y-120304059D01*
X184868235Y-120355408D01*
X184860489Y-120372950D01*
X184855970Y-120395671D01*
X184839716Y-120419995D01*
X184830534Y-120440793D01*
X184816329Y-120454997D01*
X184801777Y-120476777D01*
X184779997Y-120491329D01*
X184765793Y-120505534D01*
X184744995Y-120514716D01*
X184720671Y-120530970D01*
X184697950Y-120535489D01*
X184680408Y-120543235D01*
X184629061Y-120549192D01*
X184625000Y-120550000D01*
X183375000Y-120550000D01*
X183370941Y-120549192D01*
X183319591Y-120543235D01*
X183302048Y-120535489D01*
X183279329Y-120530970D01*
X183255006Y-120514718D01*
X183234206Y-120505534D01*
X183219999Y-120491327D01*
X183198223Y-120476777D01*
X183183672Y-120455000D01*
X183169465Y-120440793D01*
X183160280Y-120419991D01*
X183144030Y-120395671D01*
X183139511Y-120372954D01*
X183131764Y-120355408D01*
X183125805Y-120304049D01*
X183125000Y-120300000D01*
X183125000Y-119500000D01*
X183125804Y-119495953D01*
X183131764Y-119444591D01*
X183139511Y-119427043D01*
X183144030Y-119404329D01*
X183160278Y-119380010D01*
X183169465Y-119359206D01*
X183183674Y-119344996D01*
X183198223Y-119323223D01*
X183219996Y-119308674D01*
X183234206Y-119294465D01*
X183255010Y-119285278D01*
X183279329Y-119269030D01*
X183302043Y-119264511D01*
X183319591Y-119256764D01*
X183370952Y-119250805D01*
X183375000Y-119250000D01*
X184625000Y-119250000D01*
X184629047Y-119250805D01*
G37*
G36*
X170276537Y-115065224D02*
G01*
X170341421Y-115108579D01*
X170384776Y-115173463D01*
X170400000Y-115250000D01*
X170400000Y-116750000D01*
X170384776Y-116826537D01*
X170341421Y-116891421D01*
X170276537Y-116934776D01*
X170200000Y-116950000D01*
X169800000Y-116950000D01*
X169723463Y-116934776D01*
X169658579Y-116891421D01*
X169615224Y-116826537D01*
X169600000Y-116750000D01*
X169600000Y-115250000D01*
X169615224Y-115173463D01*
X169658579Y-115108579D01*
X169723463Y-115065224D01*
X169800000Y-115050000D01*
X170200000Y-115050000D01*
X170276537Y-115065224D01*
G37*
G36*
X172176537Y-115065224D02*
G01*
X172241421Y-115108579D01*
X172284776Y-115173463D01*
X172300000Y-115250000D01*
X172300000Y-116750000D01*
X172284776Y-116826537D01*
X172241421Y-116891421D01*
X172176537Y-116934776D01*
X172100000Y-116950000D01*
X171700000Y-116950000D01*
X171623463Y-116934776D01*
X171558579Y-116891421D01*
X171515224Y-116826537D01*
X171500000Y-116750000D01*
X171500000Y-115250000D01*
X171515224Y-115173463D01*
X171558579Y-115108579D01*
X171623463Y-115065224D01*
X171700000Y-115050000D01*
X172100000Y-115050000D01*
X172176537Y-115065224D01*
G37*
G36*
X174276537Y-115065224D02*
G01*
X174341421Y-115108579D01*
X174384776Y-115173463D01*
X174400000Y-115250000D01*
X174400000Y-116750000D01*
X174384776Y-116826537D01*
X174341421Y-116891421D01*
X174276537Y-116934776D01*
X174200000Y-116950000D01*
X173800000Y-116950000D01*
X173723463Y-116934776D01*
X173658579Y-116891421D01*
X173615224Y-116826537D01*
X173600000Y-116750000D01*
X173600000Y-115250000D01*
X173615224Y-115173463D01*
X173658579Y-115108579D01*
X173723463Y-115065224D01*
X173800000Y-115050000D01*
X174200000Y-115050000D01*
X174276537Y-115065224D01*
G37*
G36*
X176176537Y-115065224D02*
G01*
X176241421Y-115108579D01*
X176284776Y-115173463D01*
X176300000Y-115250000D01*
X176300000Y-116750000D01*
X176284776Y-116826537D01*
X176241421Y-116891421D01*
X176176537Y-116934776D01*
X176100000Y-116950000D01*
X175700000Y-116950000D01*
X175623463Y-116934776D01*
X175558579Y-116891421D01*
X175515224Y-116826537D01*
X175500000Y-116750000D01*
X175500000Y-115250000D01*
X175515224Y-115173463D01*
X175558579Y-115108579D01*
X175623463Y-115065224D01*
X175700000Y-115050000D01*
X176100000Y-115050000D01*
X176176537Y-115065224D01*
G37*
G36*
X178276537Y-115065224D02*
G01*
X178341421Y-115108579D01*
X178384776Y-115173463D01*
X178400000Y-115250000D01*
X178400000Y-116750000D01*
X178384776Y-116826537D01*
X178341421Y-116891421D01*
X178276537Y-116934776D01*
X178200000Y-116950000D01*
X177800000Y-116950000D01*
X177723463Y-116934776D01*
X177658579Y-116891421D01*
X177615224Y-116826537D01*
X177600000Y-116750000D01*
X177600000Y-115250000D01*
X177615224Y-115173463D01*
X177658579Y-115108579D01*
X177723463Y-115065224D01*
X177800000Y-115050000D01*
X178200000Y-115050000D01*
X178276537Y-115065224D01*
G37*
G36*
X180176537Y-115065224D02*
G01*
X180241421Y-115108579D01*
X180284776Y-115173463D01*
X180300000Y-115250000D01*
X180300000Y-116750000D01*
X180284776Y-116826537D01*
X180241421Y-116891421D01*
X180176537Y-116934776D01*
X180100000Y-116950000D01*
X179700000Y-116950000D01*
X179623463Y-116934776D01*
X179558579Y-116891421D01*
X179515224Y-116826537D01*
X179500000Y-116750000D01*
X179500000Y-115250000D01*
X179515224Y-115173463D01*
X179558579Y-115108579D01*
X179623463Y-115065224D01*
X179700000Y-115050000D01*
X180100000Y-115050000D01*
X180176537Y-115065224D01*
G37*
G36*
X182276537Y-115065224D02*
G01*
X182341421Y-115108579D01*
X182384776Y-115173463D01*
X182400000Y-115250000D01*
X182400000Y-116750000D01*
X182384776Y-116826537D01*
X182341421Y-116891421D01*
X182276537Y-116934776D01*
X182200000Y-116950000D01*
X181800000Y-116950000D01*
X181723463Y-116934776D01*
X181658579Y-116891421D01*
X181615224Y-116826537D01*
X181600000Y-116750000D01*
X181600000Y-115250000D01*
X181615224Y-115173463D01*
X181658579Y-115108579D01*
X181723463Y-115065224D01*
X181800000Y-115050000D01*
X182200000Y-115050000D01*
X182276537Y-115065224D01*
G37*
G36*
X184176537Y-115065224D02*
G01*
X184241421Y-115108579D01*
X184284776Y-115173463D01*
X184300000Y-115250000D01*
X184300000Y-116750000D01*
X184284776Y-116826537D01*
X184241421Y-116891421D01*
X184176537Y-116934776D01*
X184100000Y-116950000D01*
X183700000Y-116950000D01*
X183623463Y-116934776D01*
X183558579Y-116891421D01*
X183515224Y-116826537D01*
X183500000Y-116750000D01*
X183500000Y-115250000D01*
X183515224Y-115173463D01*
X183558579Y-115108579D01*
X183623463Y-115065224D01*
X183700000Y-115050000D01*
X184100000Y-115050000D01*
X184176537Y-115065224D01*
G37*
G36*
X171226537Y-112065224D02*
G01*
X171291421Y-112108579D01*
X171334776Y-112173463D01*
X171350000Y-112250000D01*
X171350000Y-113750000D01*
X171334776Y-113826537D01*
X171291421Y-113891421D01*
X171226537Y-113934776D01*
X171150000Y-113950000D01*
X170750000Y-113950000D01*
X170673463Y-113934776D01*
X170608579Y-113891421D01*
X170565224Y-113826537D01*
X170550000Y-113750000D01*
X170550000Y-112250000D01*
X170565224Y-112173463D01*
X170608579Y-112108579D01*
X170673463Y-112065224D01*
X170750000Y-112050000D01*
X171150000Y-112050000D01*
X171226537Y-112065224D01*
G37*
G36*
X175226537Y-112065224D02*
G01*
X175291421Y-112108579D01*
X175334776Y-112173463D01*
X175350000Y-112250000D01*
X175350000Y-113750000D01*
X175334776Y-113826537D01*
X175291421Y-113891421D01*
X175226537Y-113934776D01*
X175150000Y-113950000D01*
X174750000Y-113950000D01*
X174673463Y-113934776D01*
X174608579Y-113891421D01*
X174565224Y-113826537D01*
X174550000Y-113750000D01*
X174550000Y-112250000D01*
X174565224Y-112173463D01*
X174608579Y-112108579D01*
X174673463Y-112065224D01*
X174750000Y-112050000D01*
X175150000Y-112050000D01*
X175226537Y-112065224D01*
G37*
G36*
X179226537Y-112065224D02*
G01*
X179291421Y-112108579D01*
X179334776Y-112173463D01*
X179350000Y-112250000D01*
X179350000Y-113750000D01*
X179334776Y-113826537D01*
X179291421Y-113891421D01*
X179226537Y-113934776D01*
X179150000Y-113950000D01*
X178750000Y-113950000D01*
X178673463Y-113934776D01*
X178608579Y-113891421D01*
X178565224Y-113826537D01*
X178550000Y-113750000D01*
X178550000Y-112250000D01*
X178565224Y-112173463D01*
X178608579Y-112108579D01*
X178673463Y-112065224D01*
X178750000Y-112050000D01*
X179150000Y-112050000D01*
X179226537Y-112065224D01*
G37*
G36*
X183226537Y-112065224D02*
G01*
X183291421Y-112108579D01*
X183334776Y-112173463D01*
X183350000Y-112250000D01*
X183350000Y-113750000D01*
X183334776Y-113826537D01*
X183291421Y-113891421D01*
X183226537Y-113934776D01*
X183150000Y-113950000D01*
X182750000Y-113950000D01*
X182673463Y-113934776D01*
X182608579Y-113891421D01*
X182565224Y-113826537D01*
X182550000Y-113750000D01*
X182550000Y-112250000D01*
X182565224Y-112173463D01*
X182608579Y-112108579D01*
X182673463Y-112065224D01*
X182750000Y-112050000D01*
X183150000Y-112050000D01*
X183226537Y-112065224D01*
G37*
G36*
X175226537Y-108065224D02*
G01*
X175291421Y-108108579D01*
X175334776Y-108173463D01*
X175350000Y-108250000D01*
X175350000Y-109750000D01*
X175334776Y-109826537D01*
X175291421Y-109891421D01*
X175226537Y-109934776D01*
X175150000Y-109950000D01*
X174750000Y-109950000D01*
X174673463Y-109934776D01*
X174608579Y-109891421D01*
X174565224Y-109826537D01*
X174550000Y-109750000D01*
X174550000Y-108250000D01*
X174565224Y-108173463D01*
X174608579Y-108108579D01*
X174673463Y-108065224D01*
X174750000Y-108050000D01*
X175150000Y-108050000D01*
X175226537Y-108065224D01*
G37*
G36*
X179226537Y-108065224D02*
G01*
X179291421Y-108108579D01*
X179334776Y-108173463D01*
X179350000Y-108250000D01*
X179350000Y-109750000D01*
X179334776Y-109826537D01*
X179291421Y-109891421D01*
X179226537Y-109934776D01*
X179150000Y-109950000D01*
X178750000Y-109950000D01*
X178673463Y-109934776D01*
X178608579Y-109891421D01*
X178565224Y-109826537D01*
X178550000Y-109750000D01*
X178550000Y-108250000D01*
X178565224Y-108173463D01*
X178608579Y-108108579D01*
X178673463Y-108065224D01*
X178750000Y-108050000D01*
X179150000Y-108050000D01*
X179226537Y-108065224D01*
G37*
G36*
X183226537Y-108065224D02*
G01*
X183291421Y-108108579D01*
X183334776Y-108173463D01*
X183350000Y-108250000D01*
X183350000Y-109750000D01*
X183334776Y-109826537D01*
X183291421Y-109891421D01*
X183226537Y-109934776D01*
X183150000Y-109950000D01*
X182750000Y-109950000D01*
X182673463Y-109934776D01*
X182608579Y-109891421D01*
X182565224Y-109826537D01*
X182550000Y-109750000D01*
X182550000Y-108250000D01*
X182565224Y-108173463D01*
X182608579Y-108108579D01*
X182673463Y-108065224D01*
X182750000Y-108050000D01*
X183150000Y-108050000D01*
X183226537Y-108065224D01*
G37*
G36*
X174276537Y-105065224D02*
G01*
X174341421Y-105108579D01*
X174384776Y-105173463D01*
X174400000Y-105250000D01*
X174400000Y-106750000D01*
X174384776Y-106826537D01*
X174341421Y-106891421D01*
X174276537Y-106934776D01*
X174200000Y-106950000D01*
X173800000Y-106950000D01*
X173723463Y-106934776D01*
X173658579Y-106891421D01*
X173615224Y-106826537D01*
X173600000Y-106750000D01*
X173600000Y-105250000D01*
X173615224Y-105173463D01*
X173658579Y-105108579D01*
X173723463Y-105065224D01*
X173800000Y-105050000D01*
X174200000Y-105050000D01*
X174276537Y-105065224D01*
G37*
G36*
X176176537Y-105065224D02*
G01*
X176241421Y-105108579D01*
X176284776Y-105173463D01*
X176300000Y-105250000D01*
X176300000Y-106750000D01*
X176284776Y-106826537D01*
X176241421Y-106891421D01*
X176176537Y-106934776D01*
X176100000Y-106950000D01*
X175700000Y-106950000D01*
X175623463Y-106934776D01*
X175558579Y-106891421D01*
X175515224Y-106826537D01*
X175500000Y-106750000D01*
X175500000Y-105250000D01*
X175515224Y-105173463D01*
X175558579Y-105108579D01*
X175623463Y-105065224D01*
X175700000Y-105050000D01*
X176100000Y-105050000D01*
X176176537Y-105065224D01*
G37*
G36*
X178276537Y-105065224D02*
G01*
X178341421Y-105108579D01*
X178384776Y-105173463D01*
X178400000Y-105250000D01*
X178400000Y-106750000D01*
X178384776Y-106826537D01*
X178341421Y-106891421D01*
X178276537Y-106934776D01*
X178200000Y-106950000D01*
X177800000Y-106950000D01*
X177723463Y-106934776D01*
X177658579Y-106891421D01*
X177615224Y-106826537D01*
X177600000Y-106750000D01*
X177600000Y-105250000D01*
X177615224Y-105173463D01*
X177658579Y-105108579D01*
X177723463Y-105065224D01*
X177800000Y-105050000D01*
X178200000Y-105050000D01*
X178276537Y-105065224D01*
G37*
G36*
X180176537Y-105065224D02*
G01*
X180241421Y-105108579D01*
X180284776Y-105173463D01*
X180300000Y-105250000D01*
X180300000Y-106750000D01*
X180284776Y-106826537D01*
X180241421Y-106891421D01*
X180176537Y-106934776D01*
X180100000Y-106950000D01*
X179700000Y-106950000D01*
X179623463Y-106934776D01*
X179558579Y-106891421D01*
X179515224Y-106826537D01*
X179500000Y-106750000D01*
X179500000Y-105250000D01*
X179515224Y-105173463D01*
X179558579Y-105108579D01*
X179623463Y-105065224D01*
X179700000Y-105050000D01*
X180100000Y-105050000D01*
X180176537Y-105065224D01*
G37*
G36*
X182276537Y-105065224D02*
G01*
X182341421Y-105108579D01*
X182384776Y-105173463D01*
X182400000Y-105250000D01*
X182400000Y-106750000D01*
X182384776Y-106826537D01*
X182341421Y-106891421D01*
X182276537Y-106934776D01*
X182200000Y-106950000D01*
X181800000Y-106950000D01*
X181723463Y-106934776D01*
X181658579Y-106891421D01*
X181615224Y-106826537D01*
X181600000Y-106750000D01*
X181600000Y-105250000D01*
X181615224Y-105173463D01*
X181658579Y-105108579D01*
X181723463Y-105065224D01*
X181800000Y-105050000D01*
X182200000Y-105050000D01*
X182276537Y-105065224D01*
G37*
G36*
X184176537Y-105065224D02*
G01*
X184241421Y-105108579D01*
X184284776Y-105173463D01*
X184300000Y-105250000D01*
X184300000Y-106750000D01*
X184284776Y-106826537D01*
X184241421Y-106891421D01*
X184176537Y-106934776D01*
X184100000Y-106950000D01*
X183700000Y-106950000D01*
X183623463Y-106934776D01*
X183558579Y-106891421D01*
X183515224Y-106826537D01*
X183500000Y-106750000D01*
X183500000Y-105250000D01*
X183515224Y-105173463D01*
X183558579Y-105108579D01*
X183623463Y-105065224D01*
X183700000Y-105050000D01*
X184100000Y-105050000D01*
X184176537Y-105065224D01*
G37*
G36*
X176129047Y-102850805D02*
G01*
X176180408Y-102856764D01*
X176197954Y-102864511D01*
X176220671Y-102869030D01*
X176244991Y-102885280D01*
X176265793Y-102894465D01*
X176280000Y-102908672D01*
X176301777Y-102923223D01*
X176316327Y-102944999D01*
X176330534Y-102959206D01*
X176339718Y-102980006D01*
X176355970Y-103004329D01*
X176360489Y-103027048D01*
X176368235Y-103044591D01*
X176374192Y-103095940D01*
X176375000Y-103100000D01*
X176375000Y-103900000D01*
X176374192Y-103904059D01*
X176368235Y-103955408D01*
X176360489Y-103972950D01*
X176355970Y-103995671D01*
X176339716Y-104019995D01*
X176330534Y-104040793D01*
X176316329Y-104054997D01*
X176301777Y-104076777D01*
X176279997Y-104091329D01*
X176265793Y-104105534D01*
X176244995Y-104114716D01*
X176220671Y-104130970D01*
X176197950Y-104135489D01*
X176180408Y-104143235D01*
X176129061Y-104149192D01*
X176125000Y-104150000D01*
X174875000Y-104150000D01*
X174870941Y-104149192D01*
X174819591Y-104143235D01*
X174802048Y-104135489D01*
X174779329Y-104130970D01*
X174755006Y-104114718D01*
X174734206Y-104105534D01*
X174719999Y-104091327D01*
X174698223Y-104076777D01*
X174683672Y-104055000D01*
X174669465Y-104040793D01*
X174660280Y-104019991D01*
X174644030Y-103995671D01*
X174639511Y-103972954D01*
X174631764Y-103955408D01*
X174625805Y-103904049D01*
X174625000Y-103900000D01*
X174625000Y-103100000D01*
X174625804Y-103095953D01*
X174631764Y-103044591D01*
X174639511Y-103027043D01*
X174644030Y-103004329D01*
X174660278Y-102980010D01*
X174669465Y-102959206D01*
X174683674Y-102944996D01*
X174698223Y-102923223D01*
X174719996Y-102908674D01*
X174734206Y-102894465D01*
X174755010Y-102885278D01*
X174779329Y-102869030D01*
X174802043Y-102864511D01*
X174819591Y-102856764D01*
X174870952Y-102850805D01*
X174875000Y-102850000D01*
X176125000Y-102850000D01*
X176129047Y-102850805D01*
G37*
G36*
X178629047Y-102850805D02*
G01*
X178680408Y-102856764D01*
X178697954Y-102864511D01*
X178720671Y-102869030D01*
X178744991Y-102885280D01*
X178765793Y-102894465D01*
X178780000Y-102908672D01*
X178801777Y-102923223D01*
X178816327Y-102944999D01*
X178830534Y-102959206D01*
X178839718Y-102980006D01*
X178855970Y-103004329D01*
X178860489Y-103027048D01*
X178868235Y-103044591D01*
X178874192Y-103095940D01*
X178875000Y-103100000D01*
X178875000Y-103900000D01*
X178874192Y-103904059D01*
X178868235Y-103955408D01*
X178860489Y-103972950D01*
X178855970Y-103995671D01*
X178839716Y-104019995D01*
X178830534Y-104040793D01*
X178816329Y-104054997D01*
X178801777Y-104076777D01*
X178779997Y-104091329D01*
X178765793Y-104105534D01*
X178744995Y-104114716D01*
X178720671Y-104130970D01*
X178697950Y-104135489D01*
X178680408Y-104143235D01*
X178629061Y-104149192D01*
X178625000Y-104150000D01*
X177375000Y-104150000D01*
X177370941Y-104149192D01*
X177319591Y-104143235D01*
X177302048Y-104135489D01*
X177279329Y-104130970D01*
X177255006Y-104114718D01*
X177234206Y-104105534D01*
X177219999Y-104091327D01*
X177198223Y-104076777D01*
X177183672Y-104055000D01*
X177169465Y-104040793D01*
X177160280Y-104019991D01*
X177144030Y-103995671D01*
X177139511Y-103972954D01*
X177131764Y-103955408D01*
X177125805Y-103904049D01*
X177125000Y-103900000D01*
X177125000Y-103100000D01*
X177125804Y-103095953D01*
X177131764Y-103044591D01*
X177139511Y-103027043D01*
X177144030Y-103004329D01*
X177160278Y-102980010D01*
X177169465Y-102959206D01*
X177183674Y-102944996D01*
X177198223Y-102923223D01*
X177219996Y-102908674D01*
X177234206Y-102894465D01*
X177255010Y-102885278D01*
X177279329Y-102869030D01*
X177302043Y-102864511D01*
X177319591Y-102856764D01*
X177370952Y-102850805D01*
X177375000Y-102850000D01*
X178625000Y-102850000D01*
X178629047Y-102850805D01*
G37*
G36*
X181129047Y-102850805D02*
G01*
X181180408Y-102856764D01*
X181197954Y-102864511D01*
X181220671Y-102869030D01*
X181244991Y-102885280D01*
X181265793Y-102894465D01*
X181280000Y-102908672D01*
X181301777Y-102923223D01*
X181316327Y-102944999D01*
X181330534Y-102959206D01*
X181339718Y-102980006D01*
X181355970Y-103004329D01*
X181360489Y-103027048D01*
X181368235Y-103044591D01*
X181374192Y-103095940D01*
X181375000Y-103100000D01*
X181375000Y-103900000D01*
X181374192Y-103904059D01*
X181368235Y-103955408D01*
X181360489Y-103972950D01*
X181355970Y-103995671D01*
X181339716Y-104019995D01*
X181330534Y-104040793D01*
X181316329Y-104054997D01*
X181301777Y-104076777D01*
X181279997Y-104091329D01*
X181265793Y-104105534D01*
X181244995Y-104114716D01*
X181220671Y-104130970D01*
X181197950Y-104135489D01*
X181180408Y-104143235D01*
X181129061Y-104149192D01*
X181125000Y-104150000D01*
X179875000Y-104150000D01*
X179870941Y-104149192D01*
X179819591Y-104143235D01*
X179802048Y-104135489D01*
X179779329Y-104130970D01*
X179755006Y-104114718D01*
X179734206Y-104105534D01*
X179719999Y-104091327D01*
X179698223Y-104076777D01*
X179683672Y-104055000D01*
X179669465Y-104040793D01*
X179660280Y-104019991D01*
X179644030Y-103995671D01*
X179639511Y-103972954D01*
X179631764Y-103955408D01*
X179625805Y-103904049D01*
X179625000Y-103900000D01*
X179625000Y-103100000D01*
X179625804Y-103095953D01*
X179631764Y-103044591D01*
X179639511Y-103027043D01*
X179644030Y-103004329D01*
X179660278Y-102980010D01*
X179669465Y-102959206D01*
X179683674Y-102944996D01*
X179698223Y-102923223D01*
X179719996Y-102908674D01*
X179734206Y-102894465D01*
X179755010Y-102885278D01*
X179779329Y-102869030D01*
X179802043Y-102864511D01*
X179819591Y-102856764D01*
X179870952Y-102850805D01*
X179875000Y-102850000D01*
X181125000Y-102850000D01*
X181129047Y-102850805D01*
G37*
G36*
X183629047Y-102850805D02*
G01*
X183680408Y-102856764D01*
X183697954Y-102864511D01*
X183720671Y-102869030D01*
X183744991Y-102885280D01*
X183765793Y-102894465D01*
X183780000Y-102908672D01*
X183801777Y-102923223D01*
X183816327Y-102944999D01*
X183830534Y-102959206D01*
X183839718Y-102980006D01*
X183855970Y-103004329D01*
X183860489Y-103027048D01*
X183868235Y-103044591D01*
X183874192Y-103095940D01*
X183875000Y-103100000D01*
X183875000Y-103900000D01*
X183874192Y-103904059D01*
X183868235Y-103955408D01*
X183860489Y-103972950D01*
X183855970Y-103995671D01*
X183839716Y-104019995D01*
X183830534Y-104040793D01*
X183816329Y-104054997D01*
X183801777Y-104076777D01*
X183779997Y-104091329D01*
X183765793Y-104105534D01*
X183744995Y-104114716D01*
X183720671Y-104130970D01*
X183697950Y-104135489D01*
X183680408Y-104143235D01*
X183629061Y-104149192D01*
X183625000Y-104150000D01*
X182375000Y-104150000D01*
X182370941Y-104149192D01*
X182319591Y-104143235D01*
X182302048Y-104135489D01*
X182279329Y-104130970D01*
X182255006Y-104114718D01*
X182234206Y-104105534D01*
X182219999Y-104091327D01*
X182198223Y-104076777D01*
X182183672Y-104055000D01*
X182169465Y-104040793D01*
X182160280Y-104019991D01*
X182144030Y-103995671D01*
X182139511Y-103972954D01*
X182131764Y-103955408D01*
X182125805Y-103904049D01*
X182125000Y-103900000D01*
X182125000Y-103100000D01*
X182125804Y-103095953D01*
X182131764Y-103044591D01*
X182139511Y-103027043D01*
X182144030Y-103004329D01*
X182160278Y-102980010D01*
X182169465Y-102959206D01*
X182183674Y-102944996D01*
X182198223Y-102923223D01*
X182219996Y-102908674D01*
X182234206Y-102894465D01*
X182255010Y-102885278D01*
X182279329Y-102869030D01*
X182302043Y-102864511D01*
X182319591Y-102856764D01*
X182370952Y-102850805D01*
X182375000Y-102850000D01*
X183625000Y-102850000D01*
X183629047Y-102850805D01*
G37*
G36*
X176129047Y-99750805D02*
G01*
X176180408Y-99756764D01*
X176197954Y-99764511D01*
X176220671Y-99769030D01*
X176244991Y-99785280D01*
X176265793Y-99794465D01*
X176280000Y-99808672D01*
X176301777Y-99823223D01*
X176316327Y-99844999D01*
X176330534Y-99859206D01*
X176339718Y-99880006D01*
X176355970Y-99904329D01*
X176360489Y-99927048D01*
X176368235Y-99944591D01*
X176374192Y-99995940D01*
X176375000Y-100000000D01*
X176375000Y-100800000D01*
X176374192Y-100804059D01*
X176368235Y-100855408D01*
X176360489Y-100872950D01*
X176355970Y-100895671D01*
X176339716Y-100919995D01*
X176330534Y-100940793D01*
X176316329Y-100954997D01*
X176301777Y-100976777D01*
X176279997Y-100991329D01*
X176265793Y-101005534D01*
X176244995Y-101014716D01*
X176220671Y-101030970D01*
X176197950Y-101035489D01*
X176180408Y-101043235D01*
X176129061Y-101049192D01*
X176125000Y-101050000D01*
X174875000Y-101050000D01*
X174870941Y-101049192D01*
X174819591Y-101043235D01*
X174802048Y-101035489D01*
X174779329Y-101030970D01*
X174755006Y-101014718D01*
X174734206Y-101005534D01*
X174719999Y-100991327D01*
X174698223Y-100976777D01*
X174683672Y-100955000D01*
X174669465Y-100940793D01*
X174660280Y-100919991D01*
X174644030Y-100895671D01*
X174639511Y-100872954D01*
X174631764Y-100855408D01*
X174625805Y-100804049D01*
X174625000Y-100800000D01*
X174625000Y-100000000D01*
X174625804Y-99995953D01*
X174631764Y-99944591D01*
X174639511Y-99927043D01*
X174644030Y-99904329D01*
X174660278Y-99880010D01*
X174669465Y-99859206D01*
X174683674Y-99844996D01*
X174698223Y-99823223D01*
X174719996Y-99808674D01*
X174734206Y-99794465D01*
X174755010Y-99785278D01*
X174779329Y-99769030D01*
X174802043Y-99764511D01*
X174819591Y-99756764D01*
X174870952Y-99750805D01*
X174875000Y-99750000D01*
X176125000Y-99750000D01*
X176129047Y-99750805D01*
G37*
G36*
X178629047Y-99750805D02*
G01*
X178680408Y-99756764D01*
X178697954Y-99764511D01*
X178720671Y-99769030D01*
X178744991Y-99785280D01*
X178765793Y-99794465D01*
X178780000Y-99808672D01*
X178801777Y-99823223D01*
X178816327Y-99844999D01*
X178830534Y-99859206D01*
X178839718Y-99880006D01*
X178855970Y-99904329D01*
X178860489Y-99927048D01*
X178868235Y-99944591D01*
X178874192Y-99995940D01*
X178875000Y-100000000D01*
X178875000Y-100800000D01*
X178874192Y-100804059D01*
X178868235Y-100855408D01*
X178860489Y-100872950D01*
X178855970Y-100895671D01*
X178839716Y-100919995D01*
X178830534Y-100940793D01*
X178816329Y-100954997D01*
X178801777Y-100976777D01*
X178779997Y-100991329D01*
X178765793Y-101005534D01*
X178744995Y-101014716D01*
X178720671Y-101030970D01*
X178697950Y-101035489D01*
X178680408Y-101043235D01*
X178629061Y-101049192D01*
X178625000Y-101050000D01*
X177375000Y-101050000D01*
X177370941Y-101049192D01*
X177319591Y-101043235D01*
X177302048Y-101035489D01*
X177279329Y-101030970D01*
X177255006Y-101014718D01*
X177234206Y-101005534D01*
X177219999Y-100991327D01*
X177198223Y-100976777D01*
X177183672Y-100955000D01*
X177169465Y-100940793D01*
X177160280Y-100919991D01*
X177144030Y-100895671D01*
X177139511Y-100872954D01*
X177131764Y-100855408D01*
X177125805Y-100804049D01*
X177125000Y-100800000D01*
X177125000Y-100000000D01*
X177125804Y-99995953D01*
X177131764Y-99944591D01*
X177139511Y-99927043D01*
X177144030Y-99904329D01*
X177160278Y-99880010D01*
X177169465Y-99859206D01*
X177183674Y-99844996D01*
X177198223Y-99823223D01*
X177219996Y-99808674D01*
X177234206Y-99794465D01*
X177255010Y-99785278D01*
X177279329Y-99769030D01*
X177302043Y-99764511D01*
X177319591Y-99756764D01*
X177370952Y-99750805D01*
X177375000Y-99750000D01*
X178625000Y-99750000D01*
X178629047Y-99750805D01*
G37*
G36*
X181129047Y-99750805D02*
G01*
X181180408Y-99756764D01*
X181197954Y-99764511D01*
X181220671Y-99769030D01*
X181244991Y-99785280D01*
X181265793Y-99794465D01*
X181280000Y-99808672D01*
X181301777Y-99823223D01*
X181316327Y-99844999D01*
X181330534Y-99859206D01*
X181339718Y-99880006D01*
X181355970Y-99904329D01*
X181360489Y-99927048D01*
X181368235Y-99944591D01*
X181374192Y-99995940D01*
X181375000Y-100000000D01*
X181375000Y-100800000D01*
X181374192Y-100804059D01*
X181368235Y-100855408D01*
X181360489Y-100872950D01*
X181355970Y-100895671D01*
X181339716Y-100919995D01*
X181330534Y-100940793D01*
X181316329Y-100954997D01*
X181301777Y-100976777D01*
X181279997Y-100991329D01*
X181265793Y-101005534D01*
X181244995Y-101014716D01*
X181220671Y-101030970D01*
X181197950Y-101035489D01*
X181180408Y-101043235D01*
X181129061Y-101049192D01*
X181125000Y-101050000D01*
X179875000Y-101050000D01*
X179870941Y-101049192D01*
X179819591Y-101043235D01*
X179802048Y-101035489D01*
X179779329Y-101030970D01*
X179755006Y-101014718D01*
X179734206Y-101005534D01*
X179719999Y-100991327D01*
X179698223Y-100976777D01*
X179683672Y-100955000D01*
X179669465Y-100940793D01*
X179660280Y-100919991D01*
X179644030Y-100895671D01*
X179639511Y-100872954D01*
X179631764Y-100855408D01*
X179625805Y-100804049D01*
X179625000Y-100800000D01*
X179625000Y-100000000D01*
X179625804Y-99995953D01*
X179631764Y-99944591D01*
X179639511Y-99927043D01*
X179644030Y-99904329D01*
X179660278Y-99880010D01*
X179669465Y-99859206D01*
X179683674Y-99844996D01*
X179698223Y-99823223D01*
X179719996Y-99808674D01*
X179734206Y-99794465D01*
X179755010Y-99785278D01*
X179779329Y-99769030D01*
X179802043Y-99764511D01*
X179819591Y-99756764D01*
X179870952Y-99750805D01*
X179875000Y-99750000D01*
X181125000Y-99750000D01*
X181129047Y-99750805D01*
G37*
G36*
X183629047Y-99750805D02*
G01*
X183680408Y-99756764D01*
X183697954Y-99764511D01*
X183720671Y-99769030D01*
X183744991Y-99785280D01*
X183765793Y-99794465D01*
X183780000Y-99808672D01*
X183801777Y-99823223D01*
X183816327Y-99844999D01*
X183830534Y-99859206D01*
X183839718Y-99880006D01*
X183855970Y-99904329D01*
X183860489Y-99927048D01*
X183868235Y-99944591D01*
X183874192Y-99995940D01*
X183875000Y-100000000D01*
X183875000Y-100800000D01*
X183874192Y-100804059D01*
X183868235Y-100855408D01*
X183860489Y-100872950D01*
X183855970Y-100895671D01*
X183839716Y-100919995D01*
X183830534Y-100940793D01*
X183816329Y-100954997D01*
X183801777Y-100976777D01*
X183779997Y-100991329D01*
X183765793Y-101005534D01*
X183744995Y-101014716D01*
X183720671Y-101030970D01*
X183697950Y-101035489D01*
X183680408Y-101043235D01*
X183629061Y-101049192D01*
X183625000Y-101050000D01*
X182375000Y-101050000D01*
X182370941Y-101049192D01*
X182319591Y-101043235D01*
X182302048Y-101035489D01*
X182279329Y-101030970D01*
X182255006Y-101014718D01*
X182234206Y-101005534D01*
X182219999Y-100991327D01*
X182198223Y-100976777D01*
X182183672Y-100955000D01*
X182169465Y-100940793D01*
X182160280Y-100919991D01*
X182144030Y-100895671D01*
X182139511Y-100872954D01*
X182131764Y-100855408D01*
X182125805Y-100804049D01*
X182125000Y-100800000D01*
X182125000Y-100000000D01*
X182125804Y-99995953D01*
X182131764Y-99944591D01*
X182139511Y-99927043D01*
X182144030Y-99904329D01*
X182160278Y-99880010D01*
X182169465Y-99859206D01*
X182183674Y-99844996D01*
X182198223Y-99823223D01*
X182219996Y-99808674D01*
X182234206Y-99794465D01*
X182255010Y-99785278D01*
X182279329Y-99769030D01*
X182302043Y-99764511D01*
X182319591Y-99756764D01*
X182370952Y-99750805D01*
X182375000Y-99750000D01*
X183625000Y-99750000D01*
X183629047Y-99750805D01*
G37*
G36*
X159620000Y-96200000D02*
G01*
X157920000Y-96200000D01*
X157920000Y-94500000D01*
X159620000Y-94500000D01*
X159620000Y-96200000D01*
G37*
G36*
X105692664Y-94541602D02*
G01*
X105855000Y-94613878D01*
X105998761Y-94718327D01*
X106117664Y-94850383D01*
X106206514Y-95004274D01*
X106261425Y-95173275D01*
X106280000Y-95350000D01*
X106261425Y-95526725D01*
X106206514Y-95695726D01*
X106117664Y-95849617D01*
X105998761Y-95981673D01*
X105855000Y-96086122D01*
X105692664Y-96158398D01*
X105518849Y-96195344D01*
X105341151Y-96195344D01*
X105167336Y-96158398D01*
X105005000Y-96086122D01*
X104861239Y-95981673D01*
X104742336Y-95849617D01*
X104653486Y-95695726D01*
X104598575Y-95526725D01*
X104580000Y-95350000D01*
X104598575Y-95173275D01*
X104653486Y-95004274D01*
X104742336Y-94850383D01*
X104861239Y-94718327D01*
X105005000Y-94613878D01*
X105167336Y-94541602D01*
X105341151Y-94504656D01*
X105518849Y-94504656D01*
X105692664Y-94541602D01*
G37*
G36*
X108232664Y-94541602D02*
G01*
X108395000Y-94613878D01*
X108538761Y-94718327D01*
X108657664Y-94850383D01*
X108746514Y-95004274D01*
X108801425Y-95173275D01*
X108820000Y-95350000D01*
X108801425Y-95526725D01*
X108746514Y-95695726D01*
X108657664Y-95849617D01*
X108538761Y-95981673D01*
X108395000Y-96086122D01*
X108232664Y-96158398D01*
X108058849Y-96195344D01*
X107881151Y-96195344D01*
X107707336Y-96158398D01*
X107545000Y-96086122D01*
X107401239Y-95981673D01*
X107282336Y-95849617D01*
X107193486Y-95695726D01*
X107138575Y-95526725D01*
X107120000Y-95350000D01*
X107138575Y-95173275D01*
X107193486Y-95004274D01*
X107282336Y-94850383D01*
X107401239Y-94718327D01*
X107545000Y-94613878D01*
X107707336Y-94541602D01*
X107881151Y-94504656D01*
X108058849Y-94504656D01*
X108232664Y-94541602D01*
G37*
G36*
X110772664Y-94541602D02*
G01*
X110935000Y-94613878D01*
X111078761Y-94718327D01*
X111197664Y-94850383D01*
X111286514Y-95004274D01*
X111341425Y-95173275D01*
X111360000Y-95350000D01*
X111341425Y-95526725D01*
X111286514Y-95695726D01*
X111197664Y-95849617D01*
X111078761Y-95981673D01*
X110935000Y-96086122D01*
X110772664Y-96158398D01*
X110598849Y-96195344D01*
X110421151Y-96195344D01*
X110247336Y-96158398D01*
X110085000Y-96086122D01*
X109941239Y-95981673D01*
X109822336Y-95849617D01*
X109733486Y-95695726D01*
X109678575Y-95526725D01*
X109660000Y-95350000D01*
X109678575Y-95173275D01*
X109733486Y-95004274D01*
X109822336Y-94850383D01*
X109941239Y-94718327D01*
X110085000Y-94613878D01*
X110247336Y-94541602D01*
X110421151Y-94504656D01*
X110598849Y-94504656D01*
X110772664Y-94541602D01*
G37*
G36*
X113312664Y-94541602D02*
G01*
X113475000Y-94613878D01*
X113618761Y-94718327D01*
X113737664Y-94850383D01*
X113826514Y-95004274D01*
X113881425Y-95173275D01*
X113900000Y-95350000D01*
X113881425Y-95526725D01*
X113826514Y-95695726D01*
X113737664Y-95849617D01*
X113618761Y-95981673D01*
X113475000Y-96086122D01*
X113312664Y-96158398D01*
X113138849Y-96195344D01*
X112961151Y-96195344D01*
X112787336Y-96158398D01*
X112625000Y-96086122D01*
X112481239Y-95981673D01*
X112362336Y-95849617D01*
X112273486Y-95695726D01*
X112218575Y-95526725D01*
X112200000Y-95350000D01*
X112218575Y-95173275D01*
X112273486Y-95004274D01*
X112362336Y-94850383D01*
X112481239Y-94718327D01*
X112625000Y-94613878D01*
X112787336Y-94541602D01*
X112961151Y-94504656D01*
X113138849Y-94504656D01*
X113312664Y-94541602D01*
G37*
G36*
X115852664Y-94541602D02*
G01*
X116015000Y-94613878D01*
X116158761Y-94718327D01*
X116277664Y-94850383D01*
X116366514Y-95004274D01*
X116421425Y-95173275D01*
X116440000Y-95350000D01*
X116421425Y-95526725D01*
X116366514Y-95695726D01*
X116277664Y-95849617D01*
X116158761Y-95981673D01*
X116015000Y-96086122D01*
X115852664Y-96158398D01*
X115678849Y-96195344D01*
X115501151Y-96195344D01*
X115327336Y-96158398D01*
X115165000Y-96086122D01*
X115021239Y-95981673D01*
X114902336Y-95849617D01*
X114813486Y-95695726D01*
X114758575Y-95526725D01*
X114740000Y-95350000D01*
X114758575Y-95173275D01*
X114813486Y-95004274D01*
X114902336Y-94850383D01*
X115021239Y-94718327D01*
X115165000Y-94613878D01*
X115327336Y-94541602D01*
X115501151Y-94504656D01*
X115678849Y-94504656D01*
X115852664Y-94541602D01*
G37*
G36*
X118392664Y-94541602D02*
G01*
X118555000Y-94613878D01*
X118698761Y-94718327D01*
X118817664Y-94850383D01*
X118906514Y-95004274D01*
X118961425Y-95173275D01*
X118980000Y-95350000D01*
X118961425Y-95526725D01*
X118906514Y-95695726D01*
X118817664Y-95849617D01*
X118698761Y-95981673D01*
X118555000Y-96086122D01*
X118392664Y-96158398D01*
X118218849Y-96195344D01*
X118041151Y-96195344D01*
X117867336Y-96158398D01*
X117705000Y-96086122D01*
X117561239Y-95981673D01*
X117442336Y-95849617D01*
X117353486Y-95695726D01*
X117298575Y-95526725D01*
X117280000Y-95350000D01*
X117298575Y-95173275D01*
X117353486Y-95004274D01*
X117442336Y-94850383D01*
X117561239Y-94718327D01*
X117705000Y-94613878D01*
X117867336Y-94541602D01*
X118041151Y-94504656D01*
X118218849Y-94504656D01*
X118392664Y-94541602D01*
G37*
G36*
X120932664Y-94541602D02*
G01*
X121095000Y-94613878D01*
X121238761Y-94718327D01*
X121357664Y-94850383D01*
X121446514Y-95004274D01*
X121501425Y-95173275D01*
X121520000Y-95350000D01*
X121501425Y-95526725D01*
X121446514Y-95695726D01*
X121357664Y-95849617D01*
X121238761Y-95981673D01*
X121095000Y-96086122D01*
X120932664Y-96158398D01*
X120758849Y-96195344D01*
X120581151Y-96195344D01*
X120407336Y-96158398D01*
X120245000Y-96086122D01*
X120101239Y-95981673D01*
X119982336Y-95849617D01*
X119893486Y-95695726D01*
X119838575Y-95526725D01*
X119820000Y-95350000D01*
X119838575Y-95173275D01*
X119893486Y-95004274D01*
X119982336Y-94850383D01*
X120101239Y-94718327D01*
X120245000Y-94613878D01*
X120407336Y-94541602D01*
X120581151Y-94504656D01*
X120758849Y-94504656D01*
X120932664Y-94541602D01*
G37*
G36*
X123472664Y-94541602D02*
G01*
X123635000Y-94613878D01*
X123778761Y-94718327D01*
X123897664Y-94850383D01*
X123986514Y-95004274D01*
X124041425Y-95173275D01*
X124060000Y-95350000D01*
X124041425Y-95526725D01*
X123986514Y-95695726D01*
X123897664Y-95849617D01*
X123778761Y-95981673D01*
X123635000Y-96086122D01*
X123472664Y-96158398D01*
X123298849Y-96195344D01*
X123121151Y-96195344D01*
X122947336Y-96158398D01*
X122785000Y-96086122D01*
X122641239Y-95981673D01*
X122522336Y-95849617D01*
X122433486Y-95695726D01*
X122378575Y-95526725D01*
X122360000Y-95350000D01*
X122378575Y-95173275D01*
X122433486Y-95004274D01*
X122522336Y-94850383D01*
X122641239Y-94718327D01*
X122785000Y-94613878D01*
X122947336Y-94541602D01*
X123121151Y-94504656D01*
X123298849Y-94504656D01*
X123472664Y-94541602D01*
G37*
G36*
X126012664Y-94541602D02*
G01*
X126175000Y-94613878D01*
X126318761Y-94718327D01*
X126437664Y-94850383D01*
X126526514Y-95004274D01*
X126581425Y-95173275D01*
X126600000Y-95350000D01*
X126581425Y-95526725D01*
X126526514Y-95695726D01*
X126437664Y-95849617D01*
X126318761Y-95981673D01*
X126175000Y-96086122D01*
X126012664Y-96158398D01*
X125838849Y-96195344D01*
X125661151Y-96195344D01*
X125487336Y-96158398D01*
X125325000Y-96086122D01*
X125181239Y-95981673D01*
X125062336Y-95849617D01*
X124973486Y-95695726D01*
X124918575Y-95526725D01*
X124900000Y-95350000D01*
X124918575Y-95173275D01*
X124973486Y-95004274D01*
X125062336Y-94850383D01*
X125181239Y-94718327D01*
X125325000Y-94613878D01*
X125487336Y-94541602D01*
X125661151Y-94504656D01*
X125838849Y-94504656D01*
X126012664Y-94541602D01*
G37*
G36*
X128552664Y-94541602D02*
G01*
X128715000Y-94613878D01*
X128858761Y-94718327D01*
X128977664Y-94850383D01*
X129066514Y-95004274D01*
X129121425Y-95173275D01*
X129140000Y-95350000D01*
X129121425Y-95526725D01*
X129066514Y-95695726D01*
X128977664Y-95849617D01*
X128858761Y-95981673D01*
X128715000Y-96086122D01*
X128552664Y-96158398D01*
X128378849Y-96195344D01*
X128201151Y-96195344D01*
X128027336Y-96158398D01*
X127865000Y-96086122D01*
X127721239Y-95981673D01*
X127602336Y-95849617D01*
X127513486Y-95695726D01*
X127458575Y-95526725D01*
X127440000Y-95350000D01*
X127458575Y-95173275D01*
X127513486Y-95004274D01*
X127602336Y-94850383D01*
X127721239Y-94718327D01*
X127865000Y-94613878D01*
X128027336Y-94541602D01*
X128201151Y-94504656D01*
X128378849Y-94504656D01*
X128552664Y-94541602D01*
G37*
G36*
X131092664Y-94541602D02*
G01*
X131255000Y-94613878D01*
X131398761Y-94718327D01*
X131517664Y-94850383D01*
X131606514Y-95004274D01*
X131661425Y-95173275D01*
X131680000Y-95350000D01*
X131661425Y-95526725D01*
X131606514Y-95695726D01*
X131517664Y-95849617D01*
X131398761Y-95981673D01*
X131255000Y-96086122D01*
X131092664Y-96158398D01*
X130918849Y-96195344D01*
X130741151Y-96195344D01*
X130567336Y-96158398D01*
X130405000Y-96086122D01*
X130261239Y-95981673D01*
X130142336Y-95849617D01*
X130053486Y-95695726D01*
X129998575Y-95526725D01*
X129980000Y-95350000D01*
X129998575Y-95173275D01*
X130053486Y-95004274D01*
X130142336Y-94850383D01*
X130261239Y-94718327D01*
X130405000Y-94613878D01*
X130567336Y-94541602D01*
X130741151Y-94504656D01*
X130918849Y-94504656D01*
X131092664Y-94541602D01*
G37*
G36*
X133632664Y-94541602D02*
G01*
X133795000Y-94613878D01*
X133938761Y-94718327D01*
X134057664Y-94850383D01*
X134146514Y-95004274D01*
X134201425Y-95173275D01*
X134220000Y-95350000D01*
X134201425Y-95526725D01*
X134146514Y-95695726D01*
X134057664Y-95849617D01*
X133938761Y-95981673D01*
X133795000Y-96086122D01*
X133632664Y-96158398D01*
X133458849Y-96195344D01*
X133281151Y-96195344D01*
X133107336Y-96158398D01*
X132945000Y-96086122D01*
X132801239Y-95981673D01*
X132682336Y-95849617D01*
X132593486Y-95695726D01*
X132538575Y-95526725D01*
X132520000Y-95350000D01*
X132538575Y-95173275D01*
X132593486Y-95004274D01*
X132682336Y-94850383D01*
X132801239Y-94718327D01*
X132945000Y-94613878D01*
X133107336Y-94541602D01*
X133281151Y-94504656D01*
X133458849Y-94504656D01*
X133632664Y-94541602D01*
G37*
G36*
X136172664Y-94541602D02*
G01*
X136335000Y-94613878D01*
X136478761Y-94718327D01*
X136597664Y-94850383D01*
X136686514Y-95004274D01*
X136741425Y-95173275D01*
X136760000Y-95350000D01*
X136741425Y-95526725D01*
X136686514Y-95695726D01*
X136597664Y-95849617D01*
X136478761Y-95981673D01*
X136335000Y-96086122D01*
X136172664Y-96158398D01*
X135998849Y-96195344D01*
X135821151Y-96195344D01*
X135647336Y-96158398D01*
X135485000Y-96086122D01*
X135341239Y-95981673D01*
X135222336Y-95849617D01*
X135133486Y-95695726D01*
X135078575Y-95526725D01*
X135060000Y-95350000D01*
X135078575Y-95173275D01*
X135133486Y-95004274D01*
X135222336Y-94850383D01*
X135341239Y-94718327D01*
X135485000Y-94613878D01*
X135647336Y-94541602D01*
X135821151Y-94504656D01*
X135998849Y-94504656D01*
X136172664Y-94541602D01*
G37*
G36*
X138712664Y-94541602D02*
G01*
X138875000Y-94613878D01*
X139018761Y-94718327D01*
X139137664Y-94850383D01*
X139226514Y-95004274D01*
X139281425Y-95173275D01*
X139300000Y-95350000D01*
X139281425Y-95526725D01*
X139226514Y-95695726D01*
X139137664Y-95849617D01*
X139018761Y-95981673D01*
X138875000Y-96086122D01*
X138712664Y-96158398D01*
X138538849Y-96195344D01*
X138361151Y-96195344D01*
X138187336Y-96158398D01*
X138025000Y-96086122D01*
X137881239Y-95981673D01*
X137762336Y-95849617D01*
X137673486Y-95695726D01*
X137618575Y-95526725D01*
X137600000Y-95350000D01*
X137618575Y-95173275D01*
X137673486Y-95004274D01*
X137762336Y-94850383D01*
X137881239Y-94718327D01*
X138025000Y-94613878D01*
X138187336Y-94541602D01*
X138361151Y-94504656D01*
X138538849Y-94504656D01*
X138712664Y-94541602D01*
G37*
G36*
X141252664Y-94541602D02*
G01*
X141415000Y-94613878D01*
X141558761Y-94718327D01*
X141677664Y-94850383D01*
X141766514Y-95004274D01*
X141821425Y-95173275D01*
X141840000Y-95350000D01*
X141821425Y-95526725D01*
X141766514Y-95695726D01*
X141677664Y-95849617D01*
X141558761Y-95981673D01*
X141415000Y-96086122D01*
X141252664Y-96158398D01*
X141078849Y-96195344D01*
X140901151Y-96195344D01*
X140727336Y-96158398D01*
X140565000Y-96086122D01*
X140421239Y-95981673D01*
X140302336Y-95849617D01*
X140213486Y-95695726D01*
X140158575Y-95526725D01*
X140140000Y-95350000D01*
X140158575Y-95173275D01*
X140213486Y-95004274D01*
X140302336Y-94850383D01*
X140421239Y-94718327D01*
X140565000Y-94613878D01*
X140727336Y-94541602D01*
X140901151Y-94504656D01*
X141078849Y-94504656D01*
X141252664Y-94541602D01*
G37*
G36*
X143792664Y-94541602D02*
G01*
X143955000Y-94613878D01*
X144098761Y-94718327D01*
X144217664Y-94850383D01*
X144306514Y-95004274D01*
X144361425Y-95173275D01*
X144380000Y-95350000D01*
X144361425Y-95526725D01*
X144306514Y-95695726D01*
X144217664Y-95849617D01*
X144098761Y-95981673D01*
X143955000Y-96086122D01*
X143792664Y-96158398D01*
X143618849Y-96195344D01*
X143441151Y-96195344D01*
X143267336Y-96158398D01*
X143105000Y-96086122D01*
X142961239Y-95981673D01*
X142842336Y-95849617D01*
X142753486Y-95695726D01*
X142698575Y-95526725D01*
X142680000Y-95350000D01*
X142698575Y-95173275D01*
X142753486Y-95004274D01*
X142842336Y-94850383D01*
X142961239Y-94718327D01*
X143105000Y-94613878D01*
X143267336Y-94541602D01*
X143441151Y-94504656D01*
X143618849Y-94504656D01*
X143792664Y-94541602D01*
G37*
G36*
X146332664Y-94541602D02*
G01*
X146495000Y-94613878D01*
X146638761Y-94718327D01*
X146757664Y-94850383D01*
X146846514Y-95004274D01*
X146901425Y-95173275D01*
X146920000Y-95350000D01*
X146901425Y-95526725D01*
X146846514Y-95695726D01*
X146757664Y-95849617D01*
X146638761Y-95981673D01*
X146495000Y-96086122D01*
X146332664Y-96158398D01*
X146158849Y-96195344D01*
X145981151Y-96195344D01*
X145807336Y-96158398D01*
X145645000Y-96086122D01*
X145501239Y-95981673D01*
X145382336Y-95849617D01*
X145293486Y-95695726D01*
X145238575Y-95526725D01*
X145220000Y-95350000D01*
X145238575Y-95173275D01*
X145293486Y-95004274D01*
X145382336Y-94850383D01*
X145501239Y-94718327D01*
X145645000Y-94613878D01*
X145807336Y-94541602D01*
X145981151Y-94504656D01*
X146158849Y-94504656D01*
X146332664Y-94541602D01*
G37*
G36*
X148872664Y-94541602D02*
G01*
X149035000Y-94613878D01*
X149178761Y-94718327D01*
X149297664Y-94850383D01*
X149386514Y-95004274D01*
X149441425Y-95173275D01*
X149460000Y-95350000D01*
X149441425Y-95526725D01*
X149386514Y-95695726D01*
X149297664Y-95849617D01*
X149178761Y-95981673D01*
X149035000Y-96086122D01*
X148872664Y-96158398D01*
X148698849Y-96195344D01*
X148521151Y-96195344D01*
X148347336Y-96158398D01*
X148185000Y-96086122D01*
X148041239Y-95981673D01*
X147922336Y-95849617D01*
X147833486Y-95695726D01*
X147778575Y-95526725D01*
X147760000Y-95350000D01*
X147778575Y-95173275D01*
X147833486Y-95004274D01*
X147922336Y-94850383D01*
X148041239Y-94718327D01*
X148185000Y-94613878D01*
X148347336Y-94541602D01*
X148521151Y-94504656D01*
X148698849Y-94504656D01*
X148872664Y-94541602D01*
G37*
G36*
X151412664Y-94541602D02*
G01*
X151575000Y-94613878D01*
X151718761Y-94718327D01*
X151837664Y-94850383D01*
X151926514Y-95004274D01*
X151981425Y-95173275D01*
X152000000Y-95350000D01*
X151981425Y-95526725D01*
X151926514Y-95695726D01*
X151837664Y-95849617D01*
X151718761Y-95981673D01*
X151575000Y-96086122D01*
X151412664Y-96158398D01*
X151238849Y-96195344D01*
X151061151Y-96195344D01*
X150887336Y-96158398D01*
X150725000Y-96086122D01*
X150581239Y-95981673D01*
X150462336Y-95849617D01*
X150373486Y-95695726D01*
X150318575Y-95526725D01*
X150300000Y-95350000D01*
X150318575Y-95173275D01*
X150373486Y-95004274D01*
X150462336Y-94850383D01*
X150581239Y-94718327D01*
X150725000Y-94613878D01*
X150887336Y-94541602D01*
X151061151Y-94504656D01*
X151238849Y-94504656D01*
X151412664Y-94541602D01*
G37*
G36*
X153952664Y-94541602D02*
G01*
X154115000Y-94613878D01*
X154258761Y-94718327D01*
X154377664Y-94850383D01*
X154466514Y-95004274D01*
X154521425Y-95173275D01*
X154540000Y-95350000D01*
X154521425Y-95526725D01*
X154466514Y-95695726D01*
X154377664Y-95849617D01*
X154258761Y-95981673D01*
X154115000Y-96086122D01*
X153952664Y-96158398D01*
X153778849Y-96195344D01*
X153601151Y-96195344D01*
X153427336Y-96158398D01*
X153265000Y-96086122D01*
X153121239Y-95981673D01*
X153002336Y-95849617D01*
X152913486Y-95695726D01*
X152858575Y-95526725D01*
X152840000Y-95350000D01*
X152858575Y-95173275D01*
X152913486Y-95004274D01*
X153002336Y-94850383D01*
X153121239Y-94718327D01*
X153265000Y-94613878D01*
X153427336Y-94541602D01*
X153601151Y-94504656D01*
X153778849Y-94504656D01*
X153952664Y-94541602D01*
G37*
G36*
X156492664Y-94541602D02*
G01*
X156655000Y-94613878D01*
X156798761Y-94718327D01*
X156917664Y-94850383D01*
X157006514Y-95004274D01*
X157061425Y-95173275D01*
X157080000Y-95350000D01*
X157061425Y-95526725D01*
X157006514Y-95695726D01*
X156917664Y-95849617D01*
X156798761Y-95981673D01*
X156655000Y-96086122D01*
X156492664Y-96158398D01*
X156318849Y-96195344D01*
X156141151Y-96195344D01*
X155967336Y-96158398D01*
X155805000Y-96086122D01*
X155661239Y-95981673D01*
X155542336Y-95849617D01*
X155453486Y-95695726D01*
X155398575Y-95526725D01*
X155380000Y-95350000D01*
X155398575Y-95173275D01*
X155453486Y-95004274D01*
X155542336Y-94850383D01*
X155661239Y-94718327D01*
X155805000Y-94613878D01*
X155967336Y-94541602D01*
X156141151Y-94504656D01*
X156318849Y-94504656D01*
X156492664Y-94541602D01*
G37*
G36*
X106684866Y-86404766D02*
G01*
X106773239Y-86404766D01*
X106867593Y-86415027D01*
X106958286Y-86420121D01*
X107036297Y-86433375D01*
X107117692Y-86442228D01*
X107216827Y-86464049D01*
X107312067Y-86480231D01*
X107382406Y-86500495D01*
X107456067Y-86516709D01*
X107558574Y-86551248D01*
X107656893Y-86579573D01*
X107719045Y-86605317D01*
X107784417Y-86627344D01*
X107888715Y-86675597D01*
X107988428Y-86716900D01*
X108042068Y-86746546D01*
X108098874Y-86772827D01*
X108203243Y-86835624D01*
X108302503Y-86890483D01*
X108347599Y-86922480D01*
X108395755Y-86951455D01*
X108498321Y-87029423D01*
X108595167Y-87098139D01*
X108631908Y-87130972D01*
X108671590Y-87161138D01*
X108770412Y-87254747D01*
X108862742Y-87337258D01*
X108891553Y-87369498D01*
X108923131Y-87399410D01*
X109016173Y-87508948D01*
X109101861Y-87604833D01*
X109123383Y-87635166D01*
X109147436Y-87663483D01*
X109232634Y-87789140D01*
X109309517Y-87897497D01*
X109324576Y-87924745D01*
X109341880Y-87950266D01*
X109417197Y-88092329D01*
X109483100Y-88211572D01*
X109492691Y-88234727D01*
X109504174Y-88256386D01*
X109567585Y-88415536D01*
X109620427Y-88543107D01*
X109625682Y-88561350D01*
X109632419Y-88578257D01*
X109682018Y-88756896D01*
X109719769Y-88887933D01*
X109721926Y-88900633D01*
X109725115Y-88912116D01*
X109759106Y-89119457D01*
X109779879Y-89241714D01*
X109780259Y-89248481D01*
X109781167Y-89254020D01*
X109797856Y-89561838D01*
X109800000Y-89600000D01*
X109797856Y-89638164D01*
X109781167Y-89945979D01*
X109780259Y-89951516D01*
X109779879Y-89958286D01*
X109759102Y-90080569D01*
X109725115Y-90287883D01*
X109721927Y-90299363D01*
X109719769Y-90312067D01*
X109682010Y-90443130D01*
X109632419Y-90621742D01*
X109625683Y-90638646D01*
X109620427Y-90656893D01*
X109567574Y-90784489D01*
X109504174Y-90943613D01*
X109492693Y-90965268D01*
X109483100Y-90988428D01*
X109417184Y-91107694D01*
X109341880Y-91249733D01*
X109324579Y-91275248D01*
X109309517Y-91302503D01*
X109232618Y-91410880D01*
X109147436Y-91536516D01*
X109123387Y-91564827D01*
X109101861Y-91595167D01*
X109016156Y-91691071D01*
X108923131Y-91800589D01*
X108891559Y-91830494D01*
X108862742Y-91862742D01*
X108770393Y-91945269D01*
X108671590Y-92038861D01*
X108631915Y-92069020D01*
X108595167Y-92101861D01*
X108498301Y-92170590D01*
X108395755Y-92248544D01*
X108347609Y-92277512D01*
X108302503Y-92309517D01*
X108203222Y-92364387D01*
X108098874Y-92427172D01*
X108042079Y-92453447D01*
X107988428Y-92483100D01*
X107888694Y-92524411D01*
X107784417Y-92572655D01*
X107719058Y-92594676D01*
X107656893Y-92620427D01*
X107558554Y-92648757D01*
X107456067Y-92683290D01*
X107382420Y-92699500D01*
X107312067Y-92719769D01*
X107216807Y-92735954D01*
X107117692Y-92757771D01*
X107036309Y-92766622D01*
X106958286Y-92779879D01*
X106867588Y-92784972D01*
X106773239Y-92795234D01*
X106684866Y-92795234D01*
X106600000Y-92800000D01*
X106515134Y-92795234D01*
X106426761Y-92795234D01*
X106332411Y-92784972D01*
X106241714Y-92779879D01*
X106163691Y-92766622D01*
X106082307Y-92757771D01*
X105983187Y-92735953D01*
X105887933Y-92719769D01*
X105817582Y-92699501D01*
X105743932Y-92683290D01*
X105641438Y-92648755D01*
X105543107Y-92620427D01*
X105480945Y-92594678D01*
X105415582Y-92572655D01*
X105311295Y-92524407D01*
X105211572Y-92483100D01*
X105157925Y-92453450D01*
X105101125Y-92427172D01*
X104996764Y-92364380D01*
X104897497Y-92309517D01*
X104852396Y-92277516D01*
X104804244Y-92248544D01*
X104701683Y-92170580D01*
X104604833Y-92101861D01*
X104568089Y-92069025D01*
X104528409Y-92038861D01*
X104429588Y-91945253D01*
X104337258Y-91862742D01*
X104308445Y-91830501D01*
X104276868Y-91800589D01*
X104183823Y-91691048D01*
X104098139Y-91595167D01*
X104076617Y-91564835D01*
X104052563Y-91536516D01*
X103967358Y-91410849D01*
X103890483Y-91302503D01*
X103875424Y-91275256D01*
X103858119Y-91249733D01*
X103782791Y-91107649D01*
X103716900Y-90988428D01*
X103707310Y-90965277D01*
X103695825Y-90943613D01*
X103632399Y-90784425D01*
X103579573Y-90656893D01*
X103574318Y-90638655D01*
X103567580Y-90621742D01*
X103517961Y-90443034D01*
X103480231Y-90312067D01*
X103478074Y-90299372D01*
X103474884Y-90287883D01*
X103440869Y-90080401D01*
X103420121Y-89958286D01*
X103419741Y-89951525D01*
X103418832Y-89945979D01*
X103402114Y-89637648D01*
X103400000Y-89600000D01*
X103402114Y-89562354D01*
X103418832Y-89254020D01*
X103419741Y-89248472D01*
X103420121Y-89241714D01*
X103440864Y-89119625D01*
X103474884Y-88912116D01*
X103478074Y-88900624D01*
X103480231Y-88887933D01*
X103517954Y-88756992D01*
X103567580Y-88578257D01*
X103574319Y-88561341D01*
X103579573Y-88543107D01*
X103632388Y-88415599D01*
X103695825Y-88256386D01*
X103707312Y-88234718D01*
X103716900Y-88211572D01*
X103782778Y-88092373D01*
X103858119Y-87950266D01*
X103875427Y-87924737D01*
X103890483Y-87897497D01*
X103967343Y-87789172D01*
X104052563Y-87663483D01*
X104076621Y-87635158D01*
X104098139Y-87604833D01*
X104183806Y-87508970D01*
X104276868Y-87399410D01*
X104308451Y-87369492D01*
X104337258Y-87337258D01*
X104429569Y-87254763D01*
X104528409Y-87161138D01*
X104568097Y-87130967D01*
X104604833Y-87098139D01*
X104701663Y-87029433D01*
X104804244Y-86951455D01*
X104852405Y-86922477D01*
X104897497Y-86890483D01*
X104996744Y-86835630D01*
X105101125Y-86772827D01*
X105157936Y-86746543D01*
X105211572Y-86716900D01*
X105311275Y-86675601D01*
X105415582Y-86627344D01*
X105480958Y-86605315D01*
X105543107Y-86579573D01*
X105641418Y-86551250D01*
X105743932Y-86516709D01*
X105817596Y-86500494D01*
X105887933Y-86480231D01*
X105983167Y-86464049D01*
X106082307Y-86442228D01*
X106163704Y-86433375D01*
X106241714Y-86420121D01*
X106332406Y-86415027D01*
X106426761Y-86404766D01*
X106515134Y-86404766D01*
X106600000Y-86400000D01*
X106684866Y-86404766D01*
G37*
G36*
X189984866Y-86404766D02*
G01*
X190073239Y-86404766D01*
X190167593Y-86415027D01*
X190258286Y-86420121D01*
X190336297Y-86433375D01*
X190417692Y-86442228D01*
X190516827Y-86464049D01*
X190612067Y-86480231D01*
X190682406Y-86500495D01*
X190756067Y-86516709D01*
X190858574Y-86551248D01*
X190956893Y-86579573D01*
X191019045Y-86605317D01*
X191084417Y-86627344D01*
X191188715Y-86675597D01*
X191288428Y-86716900D01*
X191342068Y-86746546D01*
X191398874Y-86772827D01*
X191503243Y-86835624D01*
X191602503Y-86890483D01*
X191647599Y-86922480D01*
X191695755Y-86951455D01*
X191798321Y-87029423D01*
X191895167Y-87098139D01*
X191931908Y-87130972D01*
X191971590Y-87161138D01*
X192070412Y-87254747D01*
X192162742Y-87337258D01*
X192191553Y-87369498D01*
X192223131Y-87399410D01*
X192316173Y-87508948D01*
X192401861Y-87604833D01*
X192423383Y-87635166D01*
X192447436Y-87663483D01*
X192532634Y-87789140D01*
X192609517Y-87897497D01*
X192624576Y-87924745D01*
X192641880Y-87950266D01*
X192717197Y-88092329D01*
X192783100Y-88211572D01*
X192792691Y-88234727D01*
X192804174Y-88256386D01*
X192867585Y-88415536D01*
X192920427Y-88543107D01*
X192925682Y-88561350D01*
X192932419Y-88578257D01*
X192982018Y-88756896D01*
X193019769Y-88887933D01*
X193021926Y-88900633D01*
X193025115Y-88912116D01*
X193059106Y-89119457D01*
X193079879Y-89241714D01*
X193080259Y-89248481D01*
X193081167Y-89254020D01*
X193097856Y-89561838D01*
X193100000Y-89600000D01*
X193097856Y-89638164D01*
X193081167Y-89945979D01*
X193080259Y-89951516D01*
X193079879Y-89958286D01*
X193059102Y-90080569D01*
X193025115Y-90287883D01*
X193021927Y-90299363D01*
X193019769Y-90312067D01*
X192982010Y-90443130D01*
X192932419Y-90621742D01*
X192925683Y-90638646D01*
X192920427Y-90656893D01*
X192867574Y-90784489D01*
X192804174Y-90943613D01*
X192792693Y-90965268D01*
X192783100Y-90988428D01*
X192717184Y-91107694D01*
X192641880Y-91249733D01*
X192624579Y-91275248D01*
X192609517Y-91302503D01*
X192532618Y-91410880D01*
X192447436Y-91536516D01*
X192423387Y-91564827D01*
X192401861Y-91595167D01*
X192316156Y-91691071D01*
X192223131Y-91800589D01*
X192191559Y-91830494D01*
X192162742Y-91862742D01*
X192070393Y-91945269D01*
X191971590Y-92038861D01*
X191931915Y-92069020D01*
X191895167Y-92101861D01*
X191798301Y-92170590D01*
X191695755Y-92248544D01*
X191647609Y-92277512D01*
X191602503Y-92309517D01*
X191503222Y-92364387D01*
X191398874Y-92427172D01*
X191342079Y-92453447D01*
X191288428Y-92483100D01*
X191188694Y-92524411D01*
X191084417Y-92572655D01*
X191019058Y-92594676D01*
X190956893Y-92620427D01*
X190858554Y-92648757D01*
X190756067Y-92683290D01*
X190682420Y-92699500D01*
X190612067Y-92719769D01*
X190516807Y-92735954D01*
X190417692Y-92757771D01*
X190336309Y-92766622D01*
X190258286Y-92779879D01*
X190167588Y-92784972D01*
X190073239Y-92795234D01*
X189984866Y-92795234D01*
X189900000Y-92800000D01*
X189815134Y-92795234D01*
X189726761Y-92795234D01*
X189632411Y-92784972D01*
X189541714Y-92779879D01*
X189463691Y-92766622D01*
X189382307Y-92757771D01*
X189283187Y-92735953D01*
X189187933Y-92719769D01*
X189117582Y-92699501D01*
X189043932Y-92683290D01*
X188941438Y-92648755D01*
X188843107Y-92620427D01*
X188780945Y-92594678D01*
X188715582Y-92572655D01*
X188611295Y-92524407D01*
X188511572Y-92483100D01*
X188457925Y-92453450D01*
X188401125Y-92427172D01*
X188296764Y-92364380D01*
X188197497Y-92309517D01*
X188152396Y-92277516D01*
X188104244Y-92248544D01*
X188001683Y-92170580D01*
X187904833Y-92101861D01*
X187868089Y-92069025D01*
X187828409Y-92038861D01*
X187729588Y-91945253D01*
X187637258Y-91862742D01*
X187608445Y-91830501D01*
X187576868Y-91800589D01*
X187483823Y-91691048D01*
X187398139Y-91595167D01*
X187376617Y-91564835D01*
X187352563Y-91536516D01*
X187267358Y-91410849D01*
X187190483Y-91302503D01*
X187175424Y-91275256D01*
X187158119Y-91249733D01*
X187082791Y-91107649D01*
X187016900Y-90988428D01*
X187007310Y-90965277D01*
X186995825Y-90943613D01*
X186932399Y-90784425D01*
X186879573Y-90656893D01*
X186874318Y-90638655D01*
X186867580Y-90621742D01*
X186817961Y-90443034D01*
X186780231Y-90312067D01*
X186778074Y-90299372D01*
X186774884Y-90287883D01*
X186740869Y-90080401D01*
X186720121Y-89958286D01*
X186719741Y-89951525D01*
X186718832Y-89945979D01*
X186702114Y-89637648D01*
X186700000Y-89600000D01*
X186702114Y-89562354D01*
X186718832Y-89254020D01*
X186719741Y-89248472D01*
X186720121Y-89241714D01*
X186740864Y-89119625D01*
X186774884Y-88912116D01*
X186778074Y-88900624D01*
X186780231Y-88887933D01*
X186817954Y-88756992D01*
X186867580Y-88578257D01*
X186874319Y-88561341D01*
X186879573Y-88543107D01*
X186932388Y-88415599D01*
X186995825Y-88256386D01*
X187007312Y-88234718D01*
X187016900Y-88211572D01*
X187082778Y-88092373D01*
X187158119Y-87950266D01*
X187175427Y-87924737D01*
X187190483Y-87897497D01*
X187267343Y-87789172D01*
X187352563Y-87663483D01*
X187376621Y-87635158D01*
X187398139Y-87604833D01*
X187483806Y-87508970D01*
X187576868Y-87399410D01*
X187608451Y-87369492D01*
X187637258Y-87337258D01*
X187729569Y-87254763D01*
X187828409Y-87161138D01*
X187868097Y-87130967D01*
X187904833Y-87098139D01*
X188001663Y-87029433D01*
X188104244Y-86951455D01*
X188152405Y-86922477D01*
X188197497Y-86890483D01*
X188296744Y-86835630D01*
X188401125Y-86772827D01*
X188457936Y-86746543D01*
X188511572Y-86716900D01*
X188611275Y-86675601D01*
X188715582Y-86627344D01*
X188780958Y-86605315D01*
X188843107Y-86579573D01*
X188941418Y-86551250D01*
X189043932Y-86516709D01*
X189117596Y-86500494D01*
X189187933Y-86480231D01*
X189283167Y-86464049D01*
X189382307Y-86442228D01*
X189463704Y-86433375D01*
X189541714Y-86420121D01*
X189632406Y-86415027D01*
X189726761Y-86404766D01*
X189815134Y-86404766D01*
X189900000Y-86400000D01*
X189984866Y-86404766D01*
G37*
G36*
X105862664Y-80801602D02*
G01*
X106025000Y-80873878D01*
X106168761Y-80978327D01*
X106287664Y-81110383D01*
X106376514Y-81264274D01*
X106431425Y-81433275D01*
X106450000Y-81610000D01*
X106431425Y-81786725D01*
X106376514Y-81955726D01*
X106287664Y-82109617D01*
X106168761Y-82241673D01*
X106025000Y-82346122D01*
X105862664Y-82418398D01*
X105688849Y-82455344D01*
X105511151Y-82455344D01*
X105337336Y-82418398D01*
X105175000Y-82346122D01*
X105031239Y-82241673D01*
X104912336Y-82109617D01*
X104823486Y-81955726D01*
X104768575Y-81786725D01*
X104750000Y-81610000D01*
X104768575Y-81433275D01*
X104823486Y-81264274D01*
X104912336Y-81110383D01*
X105031239Y-80978327D01*
X105175000Y-80873878D01*
X105337336Y-80801602D01*
X105511151Y-80764656D01*
X105688849Y-80764656D01*
X105862664Y-80801602D01*
G37*
G36*
X105862664Y-78261602D02*
G01*
X106025000Y-78333878D01*
X106168761Y-78438327D01*
X106287664Y-78570383D01*
X106376514Y-78724274D01*
X106431425Y-78893275D01*
X106450000Y-79070000D01*
X106431425Y-79246725D01*
X106376514Y-79415726D01*
X106287664Y-79569617D01*
X106168761Y-79701673D01*
X106025000Y-79806122D01*
X105862664Y-79878398D01*
X105688849Y-79915344D01*
X105511151Y-79915344D01*
X105337336Y-79878398D01*
X105175000Y-79806122D01*
X105031239Y-79701673D01*
X104912336Y-79569617D01*
X104823486Y-79415726D01*
X104768575Y-79246725D01*
X104750000Y-79070000D01*
X104768575Y-78893275D01*
X104823486Y-78724274D01*
X104912336Y-78570383D01*
X105031239Y-78438327D01*
X105175000Y-78333878D01*
X105337336Y-78261602D01*
X105511151Y-78224656D01*
X105688849Y-78224656D01*
X105862664Y-78261602D01*
G37*
G36*
X105862664Y-75721602D02*
G01*
X106025000Y-75793878D01*
X106168761Y-75898327D01*
X106287664Y-76030383D01*
X106376514Y-76184274D01*
X106431425Y-76353275D01*
X106450000Y-76530000D01*
X106431425Y-76706725D01*
X106376514Y-76875726D01*
X106287664Y-77029617D01*
X106168761Y-77161673D01*
X106025000Y-77266122D01*
X105862664Y-77338398D01*
X105688849Y-77375344D01*
X105511151Y-77375344D01*
X105337336Y-77338398D01*
X105175000Y-77266122D01*
X105031239Y-77161673D01*
X104912336Y-77029617D01*
X104823486Y-76875726D01*
X104768575Y-76706725D01*
X104750000Y-76530000D01*
X104768575Y-76353275D01*
X104823486Y-76184274D01*
X104912336Y-76030383D01*
X105031239Y-75898327D01*
X105175000Y-75793878D01*
X105337336Y-75721602D01*
X105511151Y-75684656D01*
X105688849Y-75684656D01*
X105862664Y-75721602D01*
G37*
G36*
X105862664Y-73181602D02*
G01*
X106025000Y-73253878D01*
X106168761Y-73358327D01*
X106287664Y-73490383D01*
X106376514Y-73644274D01*
X106431425Y-73813275D01*
X106450000Y-73990000D01*
X106431425Y-74166725D01*
X106376514Y-74335726D01*
X106287664Y-74489617D01*
X106168761Y-74621673D01*
X106025000Y-74726122D01*
X105862664Y-74798398D01*
X105688849Y-74835344D01*
X105511151Y-74835344D01*
X105337336Y-74798398D01*
X105175000Y-74726122D01*
X105031239Y-74621673D01*
X104912336Y-74489617D01*
X104823486Y-74335726D01*
X104768575Y-74166725D01*
X104750000Y-73990000D01*
X104768575Y-73813275D01*
X104823486Y-73644274D01*
X104912336Y-73490383D01*
X105031239Y-73358327D01*
X105175000Y-73253878D01*
X105337336Y-73181602D01*
X105511151Y-73144656D01*
X105688849Y-73144656D01*
X105862664Y-73181602D01*
G37*
G36*
X105862664Y-70641602D02*
G01*
X106025000Y-70713878D01*
X106168761Y-70818327D01*
X106287664Y-70950383D01*
X106376514Y-71104274D01*
X106431425Y-71273275D01*
X106450000Y-71450000D01*
X106431425Y-71626725D01*
X106376514Y-71795726D01*
X106287664Y-71949617D01*
X106168761Y-72081673D01*
X106025000Y-72186122D01*
X105862664Y-72258398D01*
X105688849Y-72295344D01*
X105511151Y-72295344D01*
X105337336Y-72258398D01*
X105175000Y-72186122D01*
X105031239Y-72081673D01*
X104912336Y-71949617D01*
X104823486Y-71795726D01*
X104768575Y-71626725D01*
X104750000Y-71450000D01*
X104768575Y-71273275D01*
X104823486Y-71104274D01*
X104912336Y-70950383D01*
X105031239Y-70818327D01*
X105175000Y-70713878D01*
X105337336Y-70641602D01*
X105511151Y-70604656D01*
X105688849Y-70604656D01*
X105862664Y-70641602D01*
G37*
G36*
X105862664Y-68101602D02*
G01*
X106025000Y-68173878D01*
X106168761Y-68278327D01*
X106287664Y-68410383D01*
X106376514Y-68564274D01*
X106431425Y-68733275D01*
X106450000Y-68910000D01*
X106431425Y-69086725D01*
X106376514Y-69255726D01*
X106287664Y-69409617D01*
X106168761Y-69541673D01*
X106025000Y-69646122D01*
X105862664Y-69718398D01*
X105688849Y-69755344D01*
X105511151Y-69755344D01*
X105337336Y-69718398D01*
X105175000Y-69646122D01*
X105031239Y-69541673D01*
X104912336Y-69409617D01*
X104823486Y-69255726D01*
X104768575Y-69086725D01*
X104750000Y-68910000D01*
X104768575Y-68733275D01*
X104823486Y-68564274D01*
X104912336Y-68410383D01*
X105031239Y-68278327D01*
X105175000Y-68173878D01*
X105337336Y-68101602D01*
X105511151Y-68064656D01*
X105688849Y-68064656D01*
X105862664Y-68101602D01*
G37*
G36*
X190162664Y-68101602D02*
G01*
X190325000Y-68173878D01*
X190468761Y-68278327D01*
X190587664Y-68410383D01*
X190676514Y-68564274D01*
X190731425Y-68733275D01*
X190750000Y-68910000D01*
X190731425Y-69086725D01*
X190676514Y-69255726D01*
X190587664Y-69409617D01*
X190468761Y-69541673D01*
X190325000Y-69646122D01*
X190162664Y-69718398D01*
X189988849Y-69755344D01*
X189811151Y-69755344D01*
X189637336Y-69718398D01*
X189475000Y-69646122D01*
X189331239Y-69541673D01*
X189212336Y-69409617D01*
X189123486Y-69255726D01*
X189068575Y-69086725D01*
X189050000Y-68910000D01*
X189068575Y-68733275D01*
X189123486Y-68564274D01*
X189212336Y-68410383D01*
X189331239Y-68278327D01*
X189475000Y-68173878D01*
X189637336Y-68101602D01*
X189811151Y-68064656D01*
X189988849Y-68064656D01*
X190162664Y-68101602D01*
G37*
G36*
X105862664Y-65561602D02*
G01*
X106025000Y-65633878D01*
X106168761Y-65738327D01*
X106287664Y-65870383D01*
X106376514Y-66024274D01*
X106431425Y-66193275D01*
X106450000Y-66370000D01*
X106431425Y-66546725D01*
X106376514Y-66715726D01*
X106287664Y-66869617D01*
X106168761Y-67001673D01*
X106025000Y-67106122D01*
X105862664Y-67178398D01*
X105688849Y-67215344D01*
X105511151Y-67215344D01*
X105337336Y-67178398D01*
X105175000Y-67106122D01*
X105031239Y-67001673D01*
X104912336Y-66869617D01*
X104823486Y-66715726D01*
X104768575Y-66546725D01*
X104750000Y-66370000D01*
X104768575Y-66193275D01*
X104823486Y-66024274D01*
X104912336Y-65870383D01*
X105031239Y-65738327D01*
X105175000Y-65633878D01*
X105337336Y-65561602D01*
X105511151Y-65524656D01*
X105688849Y-65524656D01*
X105862664Y-65561602D01*
G37*
G36*
X190162664Y-65561602D02*
G01*
X190325000Y-65633878D01*
X190468761Y-65738327D01*
X190587664Y-65870383D01*
X190676514Y-66024274D01*
X190731425Y-66193275D01*
X190750000Y-66370000D01*
X190731425Y-66546725D01*
X190676514Y-66715726D01*
X190587664Y-66869617D01*
X190468761Y-67001673D01*
X190325000Y-67106122D01*
X190162664Y-67178398D01*
X189988849Y-67215344D01*
X189811151Y-67215344D01*
X189637336Y-67178398D01*
X189475000Y-67106122D01*
X189331239Y-67001673D01*
X189212336Y-66869617D01*
X189123486Y-66715726D01*
X189068575Y-66546725D01*
X189050000Y-66370000D01*
X189068575Y-66193275D01*
X189123486Y-66024274D01*
X189212336Y-65870383D01*
X189331239Y-65738327D01*
X189475000Y-65633878D01*
X189637336Y-65561602D01*
X189811151Y-65524656D01*
X189988849Y-65524656D01*
X190162664Y-65561602D01*
G37*
G36*
X105862664Y-63021602D02*
G01*
X106025000Y-63093878D01*
X106168761Y-63198327D01*
X106287664Y-63330383D01*
X106376514Y-63484274D01*
X106431425Y-63653275D01*
X106450000Y-63830000D01*
X106431425Y-64006725D01*
X106376514Y-64175726D01*
X106287664Y-64329617D01*
X106168761Y-64461673D01*
X106025000Y-64566122D01*
X105862664Y-64638398D01*
X105688849Y-64675344D01*
X105511151Y-64675344D01*
X105337336Y-64638398D01*
X105175000Y-64566122D01*
X105031239Y-64461673D01*
X104912336Y-64329617D01*
X104823486Y-64175726D01*
X104768575Y-64006725D01*
X104750000Y-63830000D01*
X104768575Y-63653275D01*
X104823486Y-63484274D01*
X104912336Y-63330383D01*
X105031239Y-63198327D01*
X105175000Y-63093878D01*
X105337336Y-63021602D01*
X105511151Y-62984656D01*
X105688849Y-62984656D01*
X105862664Y-63021602D01*
G37*
G36*
X190162664Y-63021602D02*
G01*
X190325000Y-63093878D01*
X190468761Y-63198327D01*
X190587664Y-63330383D01*
X190676514Y-63484274D01*
X190731425Y-63653275D01*
X190750000Y-63830000D01*
X190731425Y-64006725D01*
X190676514Y-64175726D01*
X190587664Y-64329617D01*
X190468761Y-64461673D01*
X190325000Y-64566122D01*
X190162664Y-64638398D01*
X189988849Y-64675344D01*
X189811151Y-64675344D01*
X189637336Y-64638398D01*
X189475000Y-64566122D01*
X189331239Y-64461673D01*
X189212336Y-64329617D01*
X189123486Y-64175726D01*
X189068575Y-64006725D01*
X189050000Y-63830000D01*
X189068575Y-63653275D01*
X189123486Y-63484274D01*
X189212336Y-63330383D01*
X189331239Y-63198327D01*
X189475000Y-63093878D01*
X189637336Y-63021602D01*
X189811151Y-62984656D01*
X189988849Y-62984656D01*
X190162664Y-63021602D01*
G37*
G36*
X190750000Y-62140000D02*
G01*
X189050000Y-62140000D01*
X189050000Y-60440000D01*
X190750000Y-60440000D01*
X190750000Y-62140000D01*
G37*
G36*
X105862664Y-60481602D02*
G01*
X106025000Y-60553878D01*
X106168761Y-60658327D01*
X106287664Y-60790383D01*
X106376514Y-60944274D01*
X106431425Y-61113275D01*
X106450000Y-61290000D01*
X106431425Y-61466725D01*
X106376514Y-61635726D01*
X106287664Y-61789617D01*
X106168761Y-61921673D01*
X106025000Y-62026122D01*
X105862664Y-62098398D01*
X105688849Y-62135344D01*
X105511151Y-62135344D01*
X105337336Y-62098398D01*
X105175000Y-62026122D01*
X105031239Y-61921673D01*
X104912336Y-61789617D01*
X104823486Y-61635726D01*
X104768575Y-61466725D01*
X104750000Y-61290000D01*
X104768575Y-61113275D01*
X104823486Y-60944274D01*
X104912336Y-60790383D01*
X105031239Y-60658327D01*
X105175000Y-60553878D01*
X105337336Y-60481602D01*
X105511151Y-60444656D01*
X105688849Y-60444656D01*
X105862664Y-60481602D01*
G37*
G36*
X105862664Y-57941602D02*
G01*
X106025000Y-58013878D01*
X106168761Y-58118327D01*
X106287664Y-58250383D01*
X106376514Y-58404274D01*
X106431425Y-58573275D01*
X106450000Y-58750000D01*
X106431425Y-58926725D01*
X106376514Y-59095726D01*
X106287664Y-59249617D01*
X106168761Y-59381673D01*
X106025000Y-59486122D01*
X105862664Y-59558398D01*
X105688849Y-59595344D01*
X105511151Y-59595344D01*
X105337336Y-59558398D01*
X105175000Y-59486122D01*
X105031239Y-59381673D01*
X104912336Y-59249617D01*
X104823486Y-59095726D01*
X104768575Y-58926725D01*
X104750000Y-58750000D01*
X104768575Y-58573275D01*
X104823486Y-58404274D01*
X104912336Y-58250383D01*
X105031239Y-58118327D01*
X105175000Y-58013878D01*
X105337336Y-57941602D01*
X105511151Y-57904656D01*
X105688849Y-57904656D01*
X105862664Y-57941602D01*
G37*
G36*
X105862664Y-55401602D02*
G01*
X106025000Y-55473878D01*
X106168761Y-55578327D01*
X106287664Y-55710383D01*
X106376514Y-55864274D01*
X106431425Y-56033275D01*
X106450000Y-56210000D01*
X106431425Y-56386725D01*
X106376514Y-56555726D01*
X106287664Y-56709617D01*
X106168761Y-56841673D01*
X106025000Y-56946122D01*
X105862664Y-57018398D01*
X105688849Y-57055344D01*
X105511151Y-57055344D01*
X105337336Y-57018398D01*
X105175000Y-56946122D01*
X105031239Y-56841673D01*
X104912336Y-56709617D01*
X104823486Y-56555726D01*
X104768575Y-56386725D01*
X104750000Y-56210000D01*
X104768575Y-56033275D01*
X104823486Y-55864274D01*
X104912336Y-55710383D01*
X105031239Y-55578327D01*
X105175000Y-55473878D01*
X105337336Y-55401602D01*
X105511151Y-55364656D01*
X105688849Y-55364656D01*
X105862664Y-55401602D01*
G37*
G36*
X105862664Y-52861602D02*
G01*
X106025000Y-52933878D01*
X106168761Y-53038327D01*
X106287664Y-53170383D01*
X106376514Y-53324274D01*
X106431425Y-53493275D01*
X106450000Y-53670000D01*
X106431425Y-53846725D01*
X106376514Y-54015726D01*
X106287664Y-54169617D01*
X106168761Y-54301673D01*
X106025000Y-54406122D01*
X105862664Y-54478398D01*
X105688849Y-54515344D01*
X105511151Y-54515344D01*
X105337336Y-54478398D01*
X105175000Y-54406122D01*
X105031239Y-54301673D01*
X104912336Y-54169617D01*
X104823486Y-54015726D01*
X104768575Y-53846725D01*
X104750000Y-53670000D01*
X104768575Y-53493275D01*
X104823486Y-53324274D01*
X104912336Y-53170383D01*
X105031239Y-53038327D01*
X105175000Y-52933878D01*
X105337336Y-52861602D01*
X105511151Y-52824656D01*
X105688849Y-52824656D01*
X105862664Y-52861602D01*
G37*
G36*
X105862664Y-50321602D02*
G01*
X106025000Y-50393878D01*
X106168761Y-50498327D01*
X106287664Y-50630383D01*
X106376514Y-50784274D01*
X106431425Y-50953275D01*
X106450000Y-51130000D01*
X106431425Y-51306725D01*
X106376514Y-51475726D01*
X106287664Y-51629617D01*
X106168761Y-51761673D01*
X106025000Y-51866122D01*
X105862664Y-51938398D01*
X105688849Y-51975344D01*
X105511151Y-51975344D01*
X105337336Y-51938398D01*
X105175000Y-51866122D01*
X105031239Y-51761673D01*
X104912336Y-51629617D01*
X104823486Y-51475726D01*
X104768575Y-51306725D01*
X104750000Y-51130000D01*
X104768575Y-50953275D01*
X104823486Y-50784274D01*
X104912336Y-50630383D01*
X105031239Y-50498327D01*
X105175000Y-50393878D01*
X105337336Y-50321602D01*
X105511151Y-50284656D01*
X105688849Y-50284656D01*
X105862664Y-50321602D01*
G37*
G36*
X106450000Y-49440000D02*
G01*
X104750000Y-49440000D01*
X104750000Y-47740000D01*
X106450000Y-47740000D01*
X106450000Y-49440000D01*
G37*
G36*
X106684866Y-37404766D02*
G01*
X106773239Y-37404766D01*
X106867593Y-37415027D01*
X106958286Y-37420121D01*
X107036297Y-37433375D01*
X107117692Y-37442228D01*
X107216827Y-37464049D01*
X107312067Y-37480231D01*
X107382406Y-37500495D01*
X107456067Y-37516709D01*
X107558574Y-37551248D01*
X107656893Y-37579573D01*
X107719045Y-37605317D01*
X107784417Y-37627344D01*
X107888715Y-37675597D01*
X107988428Y-37716900D01*
X108042068Y-37746546D01*
X108098874Y-37772827D01*
X108203243Y-37835624D01*
X108302503Y-37890483D01*
X108347599Y-37922480D01*
X108395755Y-37951455D01*
X108498321Y-38029423D01*
X108595167Y-38098139D01*
X108631908Y-38130972D01*
X108671590Y-38161138D01*
X108770412Y-38254747D01*
X108862742Y-38337258D01*
X108891553Y-38369498D01*
X108923131Y-38399410D01*
X109016173Y-38508948D01*
X109101861Y-38604833D01*
X109123383Y-38635166D01*
X109147436Y-38663483D01*
X109232634Y-38789140D01*
X109309517Y-38897497D01*
X109324576Y-38924745D01*
X109341880Y-38950266D01*
X109417197Y-39092329D01*
X109483100Y-39211572D01*
X109492691Y-39234727D01*
X109504174Y-39256386D01*
X109567585Y-39415536D01*
X109620427Y-39543107D01*
X109625682Y-39561350D01*
X109632419Y-39578257D01*
X109682018Y-39756896D01*
X109719769Y-39887933D01*
X109721926Y-39900633D01*
X109725115Y-39912116D01*
X109759106Y-40119457D01*
X109779879Y-40241714D01*
X109780259Y-40248481D01*
X109781167Y-40254020D01*
X109797856Y-40561838D01*
X109800000Y-40600000D01*
X109797856Y-40638164D01*
X109781167Y-40945979D01*
X109780259Y-40951516D01*
X109779879Y-40958286D01*
X109759102Y-41080569D01*
X109725115Y-41287883D01*
X109721927Y-41299363D01*
X109719769Y-41312067D01*
X109682010Y-41443130D01*
X109632419Y-41621742D01*
X109625683Y-41638646D01*
X109620427Y-41656893D01*
X109567574Y-41784489D01*
X109504174Y-41943613D01*
X109492693Y-41965268D01*
X109483100Y-41988428D01*
X109417184Y-42107694D01*
X109341880Y-42249733D01*
X109324579Y-42275248D01*
X109309517Y-42302503D01*
X109232618Y-42410880D01*
X109147436Y-42536516D01*
X109123387Y-42564827D01*
X109101861Y-42595167D01*
X109016156Y-42691071D01*
X108923131Y-42800589D01*
X108891559Y-42830494D01*
X108862742Y-42862742D01*
X108770393Y-42945269D01*
X108671590Y-43038861D01*
X108631915Y-43069020D01*
X108595167Y-43101861D01*
X108498301Y-43170590D01*
X108395755Y-43248544D01*
X108347609Y-43277512D01*
X108302503Y-43309517D01*
X108203222Y-43364387D01*
X108098874Y-43427172D01*
X108042079Y-43453447D01*
X107988428Y-43483100D01*
X107888694Y-43524411D01*
X107784417Y-43572655D01*
X107719058Y-43594676D01*
X107656893Y-43620427D01*
X107558554Y-43648757D01*
X107456067Y-43683290D01*
X107382420Y-43699500D01*
X107312067Y-43719769D01*
X107216807Y-43735954D01*
X107117692Y-43757771D01*
X107036309Y-43766622D01*
X106958286Y-43779879D01*
X106867588Y-43784972D01*
X106773239Y-43795234D01*
X106684866Y-43795234D01*
X106600000Y-43800000D01*
X106515134Y-43795234D01*
X106426761Y-43795234D01*
X106332411Y-43784972D01*
X106241714Y-43779879D01*
X106163691Y-43766622D01*
X106082307Y-43757771D01*
X105983187Y-43735953D01*
X105887933Y-43719769D01*
X105817582Y-43699501D01*
X105743932Y-43683290D01*
X105641438Y-43648755D01*
X105543107Y-43620427D01*
X105480945Y-43594678D01*
X105415582Y-43572655D01*
X105311295Y-43524407D01*
X105211572Y-43483100D01*
X105157925Y-43453450D01*
X105101125Y-43427172D01*
X104996764Y-43364380D01*
X104897497Y-43309517D01*
X104852396Y-43277516D01*
X104804244Y-43248544D01*
X104701683Y-43170580D01*
X104604833Y-43101861D01*
X104568089Y-43069025D01*
X104528409Y-43038861D01*
X104429588Y-42945253D01*
X104337258Y-42862742D01*
X104308445Y-42830501D01*
X104276868Y-42800589D01*
X104183823Y-42691048D01*
X104098139Y-42595167D01*
X104076617Y-42564835D01*
X104052563Y-42536516D01*
X103967358Y-42410849D01*
X103890483Y-42302503D01*
X103875424Y-42275256D01*
X103858119Y-42249733D01*
X103782791Y-42107649D01*
X103716900Y-41988428D01*
X103707310Y-41965277D01*
X103695825Y-41943613D01*
X103632399Y-41784425D01*
X103579573Y-41656893D01*
X103574318Y-41638655D01*
X103567580Y-41621742D01*
X103517961Y-41443034D01*
X103480231Y-41312067D01*
X103478074Y-41299372D01*
X103474884Y-41287883D01*
X103440869Y-41080401D01*
X103420121Y-40958286D01*
X103419741Y-40951525D01*
X103418832Y-40945979D01*
X103402114Y-40637648D01*
X103400000Y-40600000D01*
X103402114Y-40562354D01*
X103418832Y-40254020D01*
X103419741Y-40248472D01*
X103420121Y-40241714D01*
X103440864Y-40119625D01*
X103474884Y-39912116D01*
X103478074Y-39900624D01*
X103480231Y-39887933D01*
X103517954Y-39756992D01*
X103567580Y-39578257D01*
X103574319Y-39561341D01*
X103579573Y-39543107D01*
X103632388Y-39415599D01*
X103695825Y-39256386D01*
X103707312Y-39234718D01*
X103716900Y-39211572D01*
X103782778Y-39092373D01*
X103858119Y-38950266D01*
X103875427Y-38924737D01*
X103890483Y-38897497D01*
X103967343Y-38789172D01*
X104052563Y-38663483D01*
X104076621Y-38635158D01*
X104098139Y-38604833D01*
X104183806Y-38508970D01*
X104276868Y-38399410D01*
X104308451Y-38369492D01*
X104337258Y-38337258D01*
X104429569Y-38254763D01*
X104528409Y-38161138D01*
X104568097Y-38130967D01*
X104604833Y-38098139D01*
X104701663Y-38029433D01*
X104804244Y-37951455D01*
X104852405Y-37922477D01*
X104897497Y-37890483D01*
X104996744Y-37835630D01*
X105101125Y-37772827D01*
X105157936Y-37746543D01*
X105211572Y-37716900D01*
X105311275Y-37675601D01*
X105415582Y-37627344D01*
X105480958Y-37605315D01*
X105543107Y-37579573D01*
X105641418Y-37551250D01*
X105743932Y-37516709D01*
X105817596Y-37500494D01*
X105887933Y-37480231D01*
X105983167Y-37464049D01*
X106082307Y-37442228D01*
X106163704Y-37433375D01*
X106241714Y-37420121D01*
X106332406Y-37415027D01*
X106426761Y-37404766D01*
X106515134Y-37404766D01*
X106600000Y-37400000D01*
X106684866Y-37404766D01*
G37*
G36*
X189984866Y-37404766D02*
G01*
X190073239Y-37404766D01*
X190167593Y-37415027D01*
X190258286Y-37420121D01*
X190336297Y-37433375D01*
X190417692Y-37442228D01*
X190516827Y-37464049D01*
X190612067Y-37480231D01*
X190682406Y-37500495D01*
X190756067Y-37516709D01*
X190858574Y-37551248D01*
X190956893Y-37579573D01*
X191019045Y-37605317D01*
X191084417Y-37627344D01*
X191188715Y-37675597D01*
X191288428Y-37716900D01*
X191342068Y-37746546D01*
X191398874Y-37772827D01*
X191503243Y-37835624D01*
X191602503Y-37890483D01*
X191647599Y-37922480D01*
X191695755Y-37951455D01*
X191798321Y-38029423D01*
X191895167Y-38098139D01*
X191931908Y-38130972D01*
X191971590Y-38161138D01*
X192070412Y-38254747D01*
X192162742Y-38337258D01*
X192191553Y-38369498D01*
X192223131Y-38399410D01*
X192316173Y-38508948D01*
X192401861Y-38604833D01*
X192423383Y-38635166D01*
X192447436Y-38663483D01*
X192532634Y-38789140D01*
X192609517Y-38897497D01*
X192624576Y-38924745D01*
X192641880Y-38950266D01*
X192717197Y-39092329D01*
X192783100Y-39211572D01*
X192792691Y-39234727D01*
X192804174Y-39256386D01*
X192867585Y-39415536D01*
X192920427Y-39543107D01*
X192925682Y-39561350D01*
X192932419Y-39578257D01*
X192982018Y-39756896D01*
X193019769Y-39887933D01*
X193021926Y-39900633D01*
X193025115Y-39912116D01*
X193059106Y-40119457D01*
X193079879Y-40241714D01*
X193080259Y-40248481D01*
X193081167Y-40254020D01*
X193097856Y-40561838D01*
X193100000Y-40600000D01*
X193097856Y-40638164D01*
X193081167Y-40945979D01*
X193080259Y-40951516D01*
X193079879Y-40958286D01*
X193059102Y-41080569D01*
X193025115Y-41287883D01*
X193021927Y-41299363D01*
X193019769Y-41312067D01*
X192982010Y-41443130D01*
X192932419Y-41621742D01*
X192925683Y-41638646D01*
X192920427Y-41656893D01*
X192867574Y-41784489D01*
X192804174Y-41943613D01*
X192792693Y-41965268D01*
X192783100Y-41988428D01*
X192717184Y-42107694D01*
X192641880Y-42249733D01*
X192624579Y-42275248D01*
X192609517Y-42302503D01*
X192532618Y-42410880D01*
X192447436Y-42536516D01*
X192423387Y-42564827D01*
X192401861Y-42595167D01*
X192316156Y-42691071D01*
X192223131Y-42800589D01*
X192191559Y-42830494D01*
X192162742Y-42862742D01*
X192070393Y-42945269D01*
X191971590Y-43038861D01*
X191931915Y-43069020D01*
X191895167Y-43101861D01*
X191798301Y-43170590D01*
X191695755Y-43248544D01*
X191647609Y-43277512D01*
X191602503Y-43309517D01*
X191503222Y-43364387D01*
X191398874Y-43427172D01*
X191342079Y-43453447D01*
X191288428Y-43483100D01*
X191188694Y-43524411D01*
X191084417Y-43572655D01*
X191019058Y-43594676D01*
X190956893Y-43620427D01*
X190858554Y-43648757D01*
X190756067Y-43683290D01*
X190682420Y-43699500D01*
X190612067Y-43719769D01*
X190516807Y-43735954D01*
X190417692Y-43757771D01*
X190336309Y-43766622D01*
X190258286Y-43779879D01*
X190167588Y-43784972D01*
X190073239Y-43795234D01*
X189984866Y-43795234D01*
X189900000Y-43800000D01*
X189815134Y-43795234D01*
X189726761Y-43795234D01*
X189632411Y-43784972D01*
X189541714Y-43779879D01*
X189463691Y-43766622D01*
X189382307Y-43757771D01*
X189283187Y-43735953D01*
X189187933Y-43719769D01*
X189117582Y-43699501D01*
X189043932Y-43683290D01*
X188941438Y-43648755D01*
X188843107Y-43620427D01*
X188780945Y-43594678D01*
X188715582Y-43572655D01*
X188611295Y-43524407D01*
X188511572Y-43483100D01*
X188457925Y-43453450D01*
X188401125Y-43427172D01*
X188296764Y-43364380D01*
X188197497Y-43309517D01*
X188152396Y-43277516D01*
X188104244Y-43248544D01*
X188001683Y-43170580D01*
X187904833Y-43101861D01*
X187868089Y-43069025D01*
X187828409Y-43038861D01*
X187729588Y-42945253D01*
X187637258Y-42862742D01*
X187608445Y-42830501D01*
X187576868Y-42800589D01*
X187483823Y-42691048D01*
X187398139Y-42595167D01*
X187376617Y-42564835D01*
X187352563Y-42536516D01*
X187267358Y-42410849D01*
X187190483Y-42302503D01*
X187175424Y-42275256D01*
X187158119Y-42249733D01*
X187082791Y-42107649D01*
X187016900Y-41988428D01*
X187007310Y-41965277D01*
X186995825Y-41943613D01*
X186932399Y-41784425D01*
X186879573Y-41656893D01*
X186874318Y-41638655D01*
X186867580Y-41621742D01*
X186817961Y-41443034D01*
X186780231Y-41312067D01*
X186778074Y-41299372D01*
X186774884Y-41287883D01*
X186740869Y-41080401D01*
X186720121Y-40958286D01*
X186719741Y-40951525D01*
X186718832Y-40945979D01*
X186702114Y-40637648D01*
X186700000Y-40600000D01*
X186702114Y-40562354D01*
X186718832Y-40254020D01*
X186719741Y-40248472D01*
X186720121Y-40241714D01*
X186740864Y-40119625D01*
X186774884Y-39912116D01*
X186778074Y-39900624D01*
X186780231Y-39887933D01*
X186817954Y-39756992D01*
X186867580Y-39578257D01*
X186874319Y-39561341D01*
X186879573Y-39543107D01*
X186932388Y-39415599D01*
X186995825Y-39256386D01*
X187007312Y-39234718D01*
X187016900Y-39211572D01*
X187082778Y-39092373D01*
X187158119Y-38950266D01*
X187175427Y-38924737D01*
X187190483Y-38897497D01*
X187267343Y-38789172D01*
X187352563Y-38663483D01*
X187376621Y-38635158D01*
X187398139Y-38604833D01*
X187483806Y-38508970D01*
X187576868Y-38399410D01*
X187608451Y-38369492D01*
X187637258Y-38337258D01*
X187729569Y-38254763D01*
X187828409Y-38161138D01*
X187868097Y-38130967D01*
X187904833Y-38098139D01*
X188001663Y-38029433D01*
X188104244Y-37951455D01*
X188152405Y-37922477D01*
X188197497Y-37890483D01*
X188296744Y-37835630D01*
X188401125Y-37772827D01*
X188457936Y-37746543D01*
X188511572Y-37716900D01*
X188611275Y-37675601D01*
X188715582Y-37627344D01*
X188780958Y-37605315D01*
X188843107Y-37579573D01*
X188941418Y-37551250D01*
X189043932Y-37516709D01*
X189117596Y-37500494D01*
X189187933Y-37480231D01*
X189283167Y-37464049D01*
X189382307Y-37442228D01*
X189463704Y-37433375D01*
X189541714Y-37420121D01*
X189632406Y-37415027D01*
X189726761Y-37404766D01*
X189815134Y-37404766D01*
X189900000Y-37400000D01*
X189984866Y-37404766D01*
G37*
M02*
