M48
; DRILL file {KiCad 8.0.5-8.0.5-0~ubuntu22.04.1} date 2024-09-10T12:42:06+0200
; FORMAT={-:-/ absolute / metric / decimal}
; #@! TF.CreationDate,2024-09-10T12:42:06+02:00
; #@! TF.GenerationSoftware,Kicad,Pcbnew,8.0.5-8.0.5-0~ubuntu22.04.1
; #@! TF.FileFunction,Plated,1,2,PTH
FMAT,2
METRIC
; #@! TA.AperFunction,Plated,PTH,ViaDrill
T1C0.300
; #@! TA.AperFunction,Plated,PTH,ComponentDrill
T2C0.500
; #@! TA.AperFunction,Plated,PTH,ComponentDrill
T3C1.000
; #@! TA.AperFunction,Plated,PTH,ComponentDrill
T4C3.200
%
G90
G05
T1
X108.5Y-52.5
X108.5Y-55.0
X108.5Y-57.5
X108.5Y-60.0
X108.5Y-62.5
X108.5Y-65.0
X108.5Y-67.5
X108.5Y-70.5
X108.5Y-73.0
X108.5Y-75.5
X108.5Y-77.5
X108.5Y-80.5
X108.5Y-83.0
X112.0Y-93.5
X112.0Y-97.5
X114.5Y-93.5
X115.5Y-99.0
X117.0Y-93.5
X117.0Y-97.5
X119.5Y-93.5
X122.0Y-93.5
X127.0Y-93.5
X129.5Y-93.5
X132.0Y-93.5
X134.5Y-93.5
X137.0Y-97.5
X138.5Y-83.5
X138.5Y-93.5
X138.5Y-99.0
X141.0Y-83.5
X141.0Y-93.5
X143.5Y-93.5
X144.0Y-119.0
X146.5Y-119.0
X157.5Y-62.5
X157.5Y-106.5
X157.5Y-108.5
X166.5Y-106.5
X166.5Y-108.5
X168.0Y-102.0
X170.0Y-102.0
X170.0Y-118.0
X172.0Y-102.0
X172.0Y-108.5
X173.0Y-116.0
X174.0Y-104.6
X175.0Y-121.5
X175.9Y-118.0
X178.5Y-102.0
X179.0Y-107.5
X179.0Y-118.0
X180.5Y-102.0
X181.0Y-116.0
X182.0Y-104.6
X183.0Y-102.0
X183.9Y-118.0
X184.0Y-121.45
X185.0Y-98.0
X185.0Y-100.5
X185.0Y-104.5
X185.0Y-112.5
X187.0Y-104.5
X187.0Y-106.0
X187.0Y-111.0
X187.0Y-112.5
X187.0Y-114.0
X187.0Y-115.5
X188.0Y-62.5
X188.0Y-67.5
T2
X104.2Y-40.6
X104.2Y-89.6
X104.2Y-129.4
X104.903Y-38.903
X104.903Y-42.297
X104.903Y-87.903
X104.903Y-91.297
X104.903Y-127.703
X104.903Y-131.097
X106.6Y-38.2
X106.6Y-43.0
X106.6Y-87.2
X106.6Y-92.0
X106.6Y-127.0
X106.6Y-131.8
X108.297Y-38.903
X108.297Y-42.297
X108.297Y-87.903
X108.297Y-91.297
X108.297Y-127.703
X108.297Y-131.097
X109.0Y-40.6
X109.0Y-89.6
X109.0Y-129.4
X187.5Y-40.6
X187.5Y-89.6
X187.5Y-129.4
X188.203Y-38.903
X188.203Y-42.297
X188.203Y-87.903
X188.203Y-91.297
X188.203Y-127.703
X188.203Y-131.097
X189.9Y-38.2
X189.9Y-43.0
X189.9Y-87.2
X189.9Y-92.0
X189.9Y-127.0
X189.9Y-131.8
X191.597Y-38.903
X191.597Y-42.297
X191.597Y-87.903
X191.597Y-91.297
X191.597Y-127.703
X191.597Y-131.097
X192.3Y-40.6
X192.3Y-89.6
X192.3Y-129.4
T3
X105.43Y-95.35
X105.43Y-120.85
X105.6Y-48.59
X105.6Y-51.13
X105.6Y-53.67
X105.6Y-56.21
X105.6Y-58.75
X105.6Y-61.29
X105.6Y-63.83
X105.6Y-66.37
X105.6Y-68.91
X105.6Y-71.45
X105.6Y-73.99
X105.6Y-76.53
X105.6Y-79.07
X105.6Y-81.61
X107.97Y-95.35
X107.97Y-120.85
X110.51Y-95.35
X110.51Y-120.85
X113.05Y-95.35
X113.05Y-120.85
X115.59Y-95.35
X115.59Y-120.85
X118.13Y-95.35
X118.13Y-120.85
X120.67Y-95.35
X120.67Y-120.85
X123.21Y-95.35
X123.21Y-120.85
X125.75Y-95.35
X125.75Y-120.85
X128.29Y-95.35
X128.29Y-120.85
X130.46Y-128.0
X130.83Y-95.35
X130.83Y-120.85
X133.0Y-128.0
X133.37Y-95.35
X133.37Y-120.85
X135.91Y-95.35
X135.91Y-120.85
X138.45Y-95.35
X138.45Y-120.85
X140.99Y-95.35
X140.99Y-120.85
X143.53Y-95.35
X143.53Y-120.85
X144.43Y-131.5
X146.07Y-95.35
X146.07Y-120.85
X146.97Y-131.5
X148.61Y-95.35
X148.61Y-120.85
X149.51Y-131.5
X151.15Y-95.35
X151.15Y-120.85
X152.05Y-131.5
X153.69Y-95.35
X153.69Y-120.85
X156.23Y-95.35
X156.23Y-120.85
X158.77Y-95.35
X158.77Y-120.85
X166.92Y-131.5
X169.46Y-131.5
X172.0Y-131.5
X177.42Y-131.5
X179.96Y-131.5
X182.5Y-131.5
X189.9Y-61.29
X189.9Y-63.83
X189.9Y-66.37
X189.9Y-68.91
T4
X106.6Y-40.6
X106.6Y-89.6
X106.6Y-129.4
X189.9Y-40.6
X189.9Y-89.6
X189.9Y-129.4
M30
