G04 #@! TF.GenerationSoftware,KiCad,Pcbnew,8.0.4-8.0.4-0~ubuntu22.04.1*
G04 #@! TF.CreationDate,2024-09-06T12:10:29+02:00*
G04 #@! TF.ProjectId,Tube Driver,54756265-2044-4726-9976-65722e6b6963,1.0*
G04 #@! TF.SameCoordinates,Original*
G04 #@! TF.FileFunction,Copper,L2,Bot*
G04 #@! TF.FilePolarity,Positive*
%FSLAX46Y46*%
G04 Gerber Fmt 4.6, Leading zero omitted, Abs format (unit mm)*
G04 Created by KiCad (PCBNEW 8.0.4-8.0.4-0~ubuntu22.04.1) date 2024-09-06 12:10:29*
%MOMM*%
%LPD*%
G01*
G04 APERTURE LIST*
G04 Aperture macros list*
%AMRoundRect*
0 Rectangle with rounded corners*
0 $1 Rounding radius*
0 $2 $3 $4 $5 $6 $7 $8 $9 X,Y pos of 4 corners*
0 Add a 4 corners polygon primitive as box body*
4,1,4,$2,$3,$4,$5,$6,$7,$8,$9,$2,$3,0*
0 Add four circle primitives for the rounded corners*
1,1,$1+$1,$2,$3*
1,1,$1+$1,$4,$5*
1,1,$1+$1,$6,$7*
1,1,$1+$1,$8,$9*
0 Add four rect primitives between the rounded corners*
20,1,$1+$1,$2,$3,$4,$5,0*
20,1,$1+$1,$4,$5,$6,$7,0*
20,1,$1+$1,$6,$7,$8,$9,0*
20,1,$1+$1,$8,$9,$2,$3,0*%
G04 Aperture macros list end*
G04 #@! TA.AperFunction,ComponentPad*
%ADD10R,1.700000X1.700000*%
G04 #@! TD*
G04 #@! TA.AperFunction,ComponentPad*
%ADD11O,1.700000X1.700000*%
G04 #@! TD*
G04 #@! TA.AperFunction,ComponentPad*
%ADD12C,0.800000*%
G04 #@! TD*
G04 #@! TA.AperFunction,ComponentPad*
%ADD13C,6.400000*%
G04 #@! TD*
G04 #@! TA.AperFunction,ComponentPad*
%ADD14R,4.000000X4.000000*%
G04 #@! TD*
G04 #@! TA.AperFunction,ComponentPad*
%ADD15C,4.000000*%
G04 #@! TD*
G04 #@! TA.AperFunction,SMDPad,CuDef*
%ADD16RoundRect,0.250001X0.462499X0.624999X-0.462499X0.624999X-0.462499X-0.624999X0.462499X-0.624999X0*%
G04 #@! TD*
G04 #@! TA.AperFunction,ViaPad*
%ADD17C,0.500000*%
G04 #@! TD*
G04 #@! TA.AperFunction,Conductor*
%ADD18C,0.600000*%
G04 #@! TD*
G04 #@! TA.AperFunction,Conductor*
%ADD19C,1.700000*%
G04 #@! TD*
G04 #@! TA.AperFunction,Conductor*
%ADD20C,4.000000*%
G04 #@! TD*
G04 APERTURE END LIST*
D10*
X85340000Y-108275000D03*
X82800000Y-108275000D03*
D11*
X85340000Y-105735000D03*
X82800000Y-105735000D03*
X85340000Y-103195000D03*
X82800000Y-103195000D03*
D12*
X72600000Y-116000000D03*
X73302944Y-114302944D03*
X73302944Y-117697056D03*
X75000000Y-113600000D03*
D13*
X75000000Y-116000000D03*
D12*
X75000000Y-118400000D03*
X76697056Y-114302944D03*
X76697056Y-117697056D03*
X77400000Y-116000000D03*
X220100000Y-95500000D03*
X220802944Y-93802944D03*
X220802944Y-97197056D03*
X222500000Y-93100000D03*
D13*
X222500000Y-95500000D03*
D12*
X222500000Y-97900000D03*
X224197056Y-93802944D03*
X224197056Y-97197056D03*
X224900000Y-95500000D03*
X220100000Y-116000000D03*
X220802944Y-114302944D03*
X220802944Y-117697056D03*
X222500000Y-113600000D03*
D13*
X222500000Y-116000000D03*
D12*
X222500000Y-118400000D03*
X224197056Y-114302944D03*
X224197056Y-117697056D03*
X224900000Y-116000000D03*
X72600000Y-95500000D03*
X73302944Y-93802944D03*
X73302944Y-97197056D03*
X75000000Y-93100000D03*
D13*
X75000000Y-95500000D03*
D12*
X75000000Y-97900000D03*
X76697056Y-93802944D03*
X76697056Y-97197056D03*
X77400000Y-95500000D03*
D14*
X204250000Y-98000000D03*
X196630000Y-98000000D03*
D15*
X118870000Y-98000000D03*
X111250000Y-98000000D03*
X100870000Y-98000000D03*
X93250000Y-98000000D03*
D16*
X85475000Y-98500000D03*
X82500000Y-98500000D03*
X85475000Y-113000000D03*
X82500000Y-113000000D03*
D17*
X110000000Y-117000000D03*
X142000000Y-106500000D03*
X128000000Y-110500000D03*
X82500000Y-118500000D03*
X153000000Y-108000000D03*
X164500000Y-106500000D03*
X156000000Y-110500000D03*
X95000000Y-110000000D03*
X110000000Y-108000000D03*
X95000000Y-107000000D03*
X85500000Y-93000000D03*
X128000000Y-116000000D03*
X196500000Y-119000000D03*
X114000000Y-109800000D03*
X97000000Y-117000000D03*
X123000000Y-110500000D03*
X163000000Y-113500000D03*
X84000000Y-93000000D03*
X120500000Y-110500000D03*
X213500000Y-119000000D03*
X137000000Y-106500000D03*
X106000000Y-117000000D03*
X146500000Y-114500000D03*
X130500000Y-110500000D03*
X84000000Y-118500000D03*
X75500000Y-105500000D03*
X73000000Y-108500000D03*
X162975000Y-108025000D03*
X73000000Y-105500000D03*
X153062500Y-110500000D03*
X82500000Y-93000000D03*
X133000000Y-116000000D03*
X130500000Y-116000000D03*
X125500000Y-110500000D03*
X153062500Y-113000000D03*
X139500000Y-106500000D03*
X133000000Y-110500000D03*
X92000000Y-107000000D03*
X75500000Y-102500000D03*
X112500000Y-117000000D03*
X85500000Y-118500000D03*
X75500000Y-108500000D03*
X125500000Y-116000000D03*
X73000000Y-102500000D03*
X172000000Y-118762897D03*
X175000000Y-118762897D03*
X168000000Y-115000000D03*
X165000000Y-115000000D03*
X163500000Y-115000000D03*
X170500000Y-118762897D03*
X166500000Y-115000000D03*
X173500000Y-118762897D03*
X80500000Y-113000000D03*
X80500000Y-98500000D03*
X156500000Y-108025000D03*
X139500000Y-109550000D03*
X87500000Y-115500000D03*
X117000000Y-115500000D03*
X106100000Y-115500000D03*
D18*
X163500000Y-115000000D02*
X168000000Y-115000000D01*
X169000000Y-115500000D02*
X168500000Y-115000000D01*
X169000000Y-118000000D02*
X169000000Y-115500000D01*
X169762897Y-118762897D02*
X169000000Y-118000000D01*
X168500000Y-115000000D02*
X168000000Y-115000000D01*
X170500000Y-118762897D02*
X169762897Y-118762897D01*
X172000000Y-118762897D02*
X170500000Y-118762897D01*
X173500000Y-118762897D02*
X172000000Y-118762897D01*
D19*
X82800000Y-108275000D02*
X85340000Y-108275000D01*
D18*
X175000000Y-118762897D02*
X173500000Y-118762897D01*
D20*
X93250000Y-98000000D02*
X100870000Y-98000000D01*
X111250000Y-98000000D02*
X100870000Y-98000000D01*
X118870000Y-98000000D02*
X111250000Y-98000000D01*
D19*
X82800000Y-105735000D02*
X85340000Y-105735000D01*
D18*
X80500000Y-113000000D02*
X82500000Y-113000000D01*
X80500000Y-98500000D02*
X82500000Y-98500000D01*
D20*
X196630000Y-98000000D02*
X204250000Y-98000000D01*
D18*
X154975000Y-109550000D02*
X156500000Y-108025000D01*
X139500000Y-109550000D02*
X154975000Y-109550000D01*
X106100000Y-115500000D02*
X87500000Y-115500000D01*
X117000000Y-115500000D02*
X106100000Y-115500000D01*
G04 #@! TA.AperFunction,Conductor*
G36*
X89267177Y-91020185D02*
G01*
X89312932Y-91072989D01*
X89322876Y-91142147D01*
X89293851Y-91205703D01*
X89287819Y-91212181D01*
X87500000Y-92999999D01*
X87500000Y-93000000D01*
X87500000Y-102500000D01*
X90000000Y-105000000D01*
X207500000Y-105000000D01*
X210000000Y-102500000D01*
X210000000Y-95499999D01*
X218995197Y-95499999D01*
X218995197Y-95500000D01*
X219014397Y-95866353D01*
X219071784Y-96228684D01*
X219071784Y-96228686D01*
X219166736Y-96583051D01*
X219298204Y-96925535D01*
X219464754Y-97252406D01*
X219664549Y-97560064D01*
X219821658Y-97754076D01*
X221175992Y-96399742D01*
X221279588Y-96542330D01*
X221457670Y-96720412D01*
X221600256Y-96824007D01*
X220245922Y-98178341D01*
X220439924Y-98335442D01*
X220439937Y-98335451D01*
X220747593Y-98535245D01*
X221074464Y-98701795D01*
X221416948Y-98833263D01*
X221771314Y-98928215D01*
X222133646Y-98985602D01*
X222499999Y-99004803D01*
X222500001Y-99004803D01*
X222866353Y-98985602D01*
X223228684Y-98928215D01*
X223228686Y-98928215D01*
X223583051Y-98833263D01*
X223925535Y-98701795D01*
X224252406Y-98535245D01*
X224560065Y-98335450D01*
X224754077Y-98178341D01*
X223399743Y-96824007D01*
X223542330Y-96720412D01*
X223720412Y-96542330D01*
X223824007Y-96399743D01*
X225178341Y-97754077D01*
X225335450Y-97560065D01*
X225535245Y-97252406D01*
X225701795Y-96925535D01*
X225833263Y-96583051D01*
X225928215Y-96228686D01*
X225928215Y-96228684D01*
X225985602Y-95866353D01*
X226004803Y-95500000D01*
X226004803Y-95499999D01*
X225985602Y-95133646D01*
X225928215Y-94771315D01*
X225928215Y-94771313D01*
X225833263Y-94416948D01*
X225701795Y-94074464D01*
X225535245Y-93747594D01*
X225335450Y-93439935D01*
X225178340Y-93245922D01*
X223824006Y-94600255D01*
X223720412Y-94457670D01*
X223542330Y-94279588D01*
X223399743Y-94175992D01*
X224754077Y-92821658D01*
X224560064Y-92664549D01*
X224252406Y-92464754D01*
X223925535Y-92298204D01*
X223583051Y-92166736D01*
X223228685Y-92071784D01*
X222866353Y-92014397D01*
X222500001Y-91995197D01*
X222499999Y-91995197D01*
X222133646Y-92014397D01*
X221771315Y-92071784D01*
X221771313Y-92071784D01*
X221416948Y-92166736D01*
X221074464Y-92298204D01*
X220747594Y-92464754D01*
X220439929Y-92664553D01*
X220245922Y-92821658D01*
X221600256Y-94175992D01*
X221457670Y-94279588D01*
X221279588Y-94457670D01*
X221175992Y-94600256D01*
X219821658Y-93245922D01*
X219664553Y-93439929D01*
X219464754Y-93747594D01*
X219298204Y-94074464D01*
X219166736Y-94416948D01*
X219071784Y-94771313D01*
X219071784Y-94771315D01*
X219014397Y-95133646D01*
X218995197Y-95499999D01*
X210000000Y-95499999D01*
X210000000Y-93000000D01*
X208212181Y-91212181D01*
X208178696Y-91150858D01*
X208183680Y-91081166D01*
X208225552Y-91025233D01*
X208291016Y-91000816D01*
X208299862Y-91000500D01*
X224434108Y-91000500D01*
X224496249Y-91000500D01*
X224503736Y-91000726D01*
X224793796Y-91018271D01*
X224808657Y-91020075D01*
X225090798Y-91071780D01*
X225105335Y-91075363D01*
X225379172Y-91160695D01*
X225393163Y-91166000D01*
X225654743Y-91283727D01*
X225667989Y-91290680D01*
X225913465Y-91439075D01*
X225925776Y-91447573D01*
X226151573Y-91624473D01*
X226162781Y-91634403D01*
X226365596Y-91837218D01*
X226375526Y-91848426D01*
X226495481Y-92001538D01*
X226552422Y-92074217D01*
X226560928Y-92086540D01*
X226709316Y-92332004D01*
X226716275Y-92345263D01*
X226833997Y-92606831D01*
X226839306Y-92620832D01*
X226924635Y-92894663D01*
X226928219Y-92909201D01*
X226979923Y-93191340D01*
X226981728Y-93206205D01*
X226999274Y-93496263D01*
X226999500Y-93503750D01*
X226999500Y-117996249D01*
X226999274Y-118003736D01*
X226981728Y-118293794D01*
X226979923Y-118308659D01*
X226928219Y-118590798D01*
X226924635Y-118605336D01*
X226839306Y-118879167D01*
X226833997Y-118893168D01*
X226716275Y-119154736D01*
X226709316Y-119167995D01*
X226560928Y-119413459D01*
X226552422Y-119425782D01*
X226375526Y-119651573D01*
X226365596Y-119662781D01*
X226162781Y-119865596D01*
X226151573Y-119875526D01*
X225925782Y-120052422D01*
X225913459Y-120060928D01*
X225667995Y-120209316D01*
X225654736Y-120216275D01*
X225393168Y-120333997D01*
X225379167Y-120339306D01*
X225105336Y-120424635D01*
X225090798Y-120428219D01*
X224808659Y-120479923D01*
X224793794Y-120481728D01*
X224503736Y-120499274D01*
X224496249Y-120499500D01*
X73003751Y-120499500D01*
X72996264Y-120499274D01*
X72706205Y-120481728D01*
X72691340Y-120479923D01*
X72409201Y-120428219D01*
X72394663Y-120424635D01*
X72120832Y-120339306D01*
X72106831Y-120333997D01*
X71845263Y-120216275D01*
X71832004Y-120209316D01*
X71586540Y-120060928D01*
X71574217Y-120052422D01*
X71348426Y-119875526D01*
X71337218Y-119865596D01*
X71134403Y-119662781D01*
X71124473Y-119651573D01*
X71009486Y-119504803D01*
X70947573Y-119425776D01*
X70939075Y-119413465D01*
X70790680Y-119167989D01*
X70783727Y-119154743D01*
X70666000Y-118893163D01*
X70660693Y-118879167D01*
X70649096Y-118841952D01*
X70575363Y-118605335D01*
X70571780Y-118590798D01*
X70552866Y-118487590D01*
X70520075Y-118308657D01*
X70518271Y-118293794D01*
X70517580Y-118282378D01*
X70500726Y-118003736D01*
X70500500Y-117996249D01*
X70500500Y-115999999D01*
X71495197Y-115999999D01*
X71495197Y-116000000D01*
X71514397Y-116366353D01*
X71571784Y-116728684D01*
X71571784Y-116728686D01*
X71666736Y-117083051D01*
X71798204Y-117425535D01*
X71964754Y-117752406D01*
X72164549Y-118060064D01*
X72321658Y-118254076D01*
X73675992Y-116899742D01*
X73779588Y-117042330D01*
X73957670Y-117220412D01*
X74100256Y-117324007D01*
X72745922Y-118678341D01*
X72939924Y-118835442D01*
X72939937Y-118835451D01*
X73247593Y-119035245D01*
X73574464Y-119201795D01*
X73916948Y-119333263D01*
X74271314Y-119428215D01*
X74633646Y-119485602D01*
X74999999Y-119504803D01*
X75000001Y-119504803D01*
X75366353Y-119485602D01*
X75728684Y-119428215D01*
X75728686Y-119428215D01*
X76083051Y-119333263D01*
X76425535Y-119201795D01*
X76752406Y-119035245D01*
X77060065Y-118835450D01*
X77254077Y-118678341D01*
X75899743Y-117324007D01*
X76042330Y-117220412D01*
X76220412Y-117042330D01*
X76324007Y-116899743D01*
X77678341Y-118254077D01*
X77835450Y-118060065D01*
X78035245Y-117752406D01*
X78201795Y-117425535D01*
X78333263Y-117083051D01*
X78428215Y-116728686D01*
X78428215Y-116728684D01*
X78485602Y-116366353D01*
X78504803Y-116000000D01*
X78504803Y-115999999D01*
X78485602Y-115633646D01*
X78451914Y-115420943D01*
X86899500Y-115420943D01*
X86899500Y-115579057D01*
X86935234Y-115712416D01*
X86940423Y-115731783D01*
X86940426Y-115731790D01*
X87019475Y-115868709D01*
X87019479Y-115868714D01*
X87019480Y-115868716D01*
X87131284Y-115980520D01*
X87131286Y-115980521D01*
X87131290Y-115980524D01*
X87268209Y-116059573D01*
X87268216Y-116059577D01*
X87420943Y-116100500D01*
X87420945Y-116100500D01*
X117079055Y-116100500D01*
X117079057Y-116100500D01*
X117231784Y-116059577D01*
X117368716Y-115980520D01*
X117480520Y-115868716D01*
X117559577Y-115731784D01*
X117600500Y-115579057D01*
X117600500Y-115420943D01*
X117559577Y-115268216D01*
X117538543Y-115231783D01*
X117480524Y-115131290D01*
X117480518Y-115131282D01*
X117368717Y-115019481D01*
X117368709Y-115019475D01*
X117231790Y-114940426D01*
X117231786Y-114940424D01*
X117231784Y-114940423D01*
X117159084Y-114920943D01*
X162899500Y-114920943D01*
X162899500Y-115079057D01*
X162921569Y-115161417D01*
X162940423Y-115231783D01*
X162940426Y-115231790D01*
X163019475Y-115368709D01*
X163019479Y-115368714D01*
X163019480Y-115368716D01*
X163131284Y-115480520D01*
X163131286Y-115480521D01*
X163131290Y-115480524D01*
X163268209Y-115559573D01*
X163268216Y-115559577D01*
X163420943Y-115600500D01*
X167920943Y-115600500D01*
X168199903Y-115600500D01*
X168266942Y-115620185D01*
X168287584Y-115636819D01*
X168363181Y-115712416D01*
X168396666Y-115773739D01*
X168399500Y-115800097D01*
X168399500Y-117913330D01*
X168399499Y-117913348D01*
X168399499Y-118079054D01*
X168399498Y-118079054D01*
X168440423Y-118231785D01*
X168469358Y-118281900D01*
X168469359Y-118281904D01*
X168469360Y-118281904D01*
X168519479Y-118368714D01*
X168519481Y-118368717D01*
X168638349Y-118487585D01*
X168638355Y-118487590D01*
X169278036Y-119127271D01*
X169278046Y-119127282D01*
X169282376Y-119131612D01*
X169282377Y-119131613D01*
X169394181Y-119243417D01*
X169480992Y-119293536D01*
X169480994Y-119293538D01*
X169531105Y-119322470D01*
X169531112Y-119322474D01*
X169683839Y-119363397D01*
X169683840Y-119363397D01*
X169683841Y-119363397D01*
X175079055Y-119363397D01*
X175079057Y-119363397D01*
X175231784Y-119322474D01*
X175368716Y-119243417D01*
X175480520Y-119131613D01*
X175559577Y-118994681D01*
X175600500Y-118841954D01*
X175600500Y-118683840D01*
X175559577Y-118531113D01*
X175534449Y-118487590D01*
X175480524Y-118394187D01*
X175480518Y-118394179D01*
X175368717Y-118282378D01*
X175368709Y-118282372D01*
X175231790Y-118203323D01*
X175231786Y-118203321D01*
X175231784Y-118203320D01*
X175079057Y-118162397D01*
X175079056Y-118162397D01*
X170062994Y-118162397D01*
X169995955Y-118142712D01*
X169975313Y-118126078D01*
X169636819Y-117787584D01*
X169603334Y-117726261D01*
X169600500Y-117699903D01*
X169600500Y-115999999D01*
X218995197Y-115999999D01*
X218995197Y-116000000D01*
X219014397Y-116366353D01*
X219071784Y-116728684D01*
X219071784Y-116728686D01*
X219166736Y-117083051D01*
X219298204Y-117425535D01*
X219464754Y-117752406D01*
X219664549Y-118060064D01*
X219821658Y-118254076D01*
X221175992Y-116899742D01*
X221279588Y-117042330D01*
X221457670Y-117220412D01*
X221600256Y-117324007D01*
X220245922Y-118678341D01*
X220439924Y-118835442D01*
X220439937Y-118835451D01*
X220747593Y-119035245D01*
X221074464Y-119201795D01*
X221416948Y-119333263D01*
X221771314Y-119428215D01*
X222133646Y-119485602D01*
X222499999Y-119504803D01*
X222500001Y-119504803D01*
X222866353Y-119485602D01*
X223228684Y-119428215D01*
X223228686Y-119428215D01*
X223583051Y-119333263D01*
X223925535Y-119201795D01*
X224252406Y-119035245D01*
X224560065Y-118835450D01*
X224754077Y-118678341D01*
X223399743Y-117324007D01*
X223542330Y-117220412D01*
X223720412Y-117042330D01*
X223824007Y-116899743D01*
X225178341Y-118254077D01*
X225335450Y-118060065D01*
X225535245Y-117752406D01*
X225701795Y-117425535D01*
X225833263Y-117083051D01*
X225928215Y-116728686D01*
X225928215Y-116728684D01*
X225985602Y-116366353D01*
X226004803Y-116000000D01*
X226004803Y-115999999D01*
X225985602Y-115633646D01*
X225928215Y-115271315D01*
X225928215Y-115271313D01*
X225833263Y-114916948D01*
X225701795Y-114574464D01*
X225535245Y-114247594D01*
X225335450Y-113939935D01*
X225178340Y-113745922D01*
X223824006Y-115100255D01*
X223720412Y-114957670D01*
X223542330Y-114779588D01*
X223399743Y-114675992D01*
X224754077Y-113321658D01*
X224560064Y-113164549D01*
X224252406Y-112964754D01*
X223925535Y-112798204D01*
X223583051Y-112666736D01*
X223228685Y-112571784D01*
X222866353Y-112514397D01*
X222500001Y-112495197D01*
X222499999Y-112495197D01*
X222133646Y-112514397D01*
X221771315Y-112571784D01*
X221771313Y-112571784D01*
X221416948Y-112666736D01*
X221074464Y-112798204D01*
X220747594Y-112964754D01*
X220439929Y-113164553D01*
X220245922Y-113321658D01*
X221600256Y-114675992D01*
X221457670Y-114779588D01*
X221279588Y-114957670D01*
X221175992Y-115100256D01*
X219821658Y-113745922D01*
X219664553Y-113939929D01*
X219464754Y-114247594D01*
X219298204Y-114574464D01*
X219166736Y-114916948D01*
X219071784Y-115271313D01*
X219071784Y-115271315D01*
X219014397Y-115633646D01*
X218995197Y-115999999D01*
X169600500Y-115999999D01*
X169600500Y-115589060D01*
X169600501Y-115589047D01*
X169600501Y-115420944D01*
X169600501Y-115420943D01*
X169559577Y-115268216D01*
X169538543Y-115231783D01*
X169480524Y-115131290D01*
X169480518Y-115131282D01*
X168868717Y-114519481D01*
X168868716Y-114519480D01*
X168781904Y-114469360D01*
X168781904Y-114469359D01*
X168781900Y-114469358D01*
X168731785Y-114440423D01*
X168579057Y-114399499D01*
X168420943Y-114399499D01*
X168413347Y-114399499D01*
X168413331Y-114399500D01*
X163420943Y-114399500D01*
X163268216Y-114440423D01*
X163268209Y-114440426D01*
X163131290Y-114519475D01*
X163131282Y-114519481D01*
X163019481Y-114631282D01*
X163019475Y-114631290D01*
X162940426Y-114768209D01*
X162940423Y-114768216D01*
X162899500Y-114920943D01*
X117159084Y-114920943D01*
X117079057Y-114899500D01*
X106179057Y-114899500D01*
X87420943Y-114899500D01*
X87268216Y-114940423D01*
X87268209Y-114940426D01*
X87131290Y-115019475D01*
X87131282Y-115019481D01*
X87019481Y-115131282D01*
X87019475Y-115131290D01*
X86940426Y-115268209D01*
X86940424Y-115268214D01*
X86940423Y-115268216D01*
X86899500Y-115420943D01*
X78451914Y-115420943D01*
X78428215Y-115271315D01*
X78428215Y-115271313D01*
X78333263Y-114916948D01*
X78201795Y-114574464D01*
X78035245Y-114247594D01*
X77835450Y-113939935D01*
X77678340Y-113745922D01*
X76324006Y-115100255D01*
X76220412Y-114957670D01*
X76042330Y-114779588D01*
X75899743Y-114675992D01*
X77254077Y-113321658D01*
X77060064Y-113164549D01*
X76752406Y-112964754D01*
X76666423Y-112920943D01*
X79899500Y-112920943D01*
X79899500Y-113079057D01*
X79922408Y-113164549D01*
X79940423Y-113231783D01*
X79940426Y-113231790D01*
X80019475Y-113368709D01*
X80019479Y-113368714D01*
X80019480Y-113368716D01*
X80131284Y-113480520D01*
X80131286Y-113480521D01*
X80131290Y-113480524D01*
X80268209Y-113559573D01*
X80268216Y-113559577D01*
X80420943Y-113600500D01*
X81368883Y-113600500D01*
X81435922Y-113620185D01*
X81481677Y-113672989D01*
X81491999Y-113709717D01*
X81497623Y-113756562D01*
X81553139Y-113897342D01*
X81553140Y-113897344D01*
X81644577Y-114017922D01*
X81765155Y-114109359D01*
X81765158Y-114109361D01*
X81905936Y-114164876D01*
X81994401Y-114175500D01*
X83005598Y-114175499D01*
X83094064Y-114164876D01*
X83234842Y-114109361D01*
X83355422Y-114017922D01*
X83446861Y-113897342D01*
X83502376Y-113756564D01*
X83513000Y-113668099D01*
X83513000Y-113668052D01*
X84462501Y-113668052D01*
X84473113Y-113756443D01*
X84473115Y-113756447D01*
X84528578Y-113897091D01*
X84528579Y-113897093D01*
X84619935Y-114017564D01*
X84740406Y-114108920D01*
X84740408Y-114108921D01*
X84881054Y-114164385D01*
X84969447Y-114174999D01*
X85174999Y-114174999D01*
X85775000Y-114174999D01*
X85980553Y-114174999D01*
X86068943Y-114164386D01*
X86068947Y-114164384D01*
X86209591Y-114108921D01*
X86209593Y-114108920D01*
X86330064Y-114017564D01*
X86421420Y-113897093D01*
X86421421Y-113897091D01*
X86476885Y-113756445D01*
X86487500Y-113668052D01*
X86487500Y-113300000D01*
X85775000Y-113300000D01*
X85775000Y-114174999D01*
X85174999Y-114174999D01*
X85175000Y-114174998D01*
X85175000Y-113300000D01*
X84462501Y-113300000D01*
X84462501Y-113668052D01*
X83513000Y-113668052D01*
X83512999Y-112331947D01*
X84462500Y-112331947D01*
X84462500Y-112700000D01*
X85175000Y-112700000D01*
X85775000Y-112700000D01*
X86487499Y-112700000D01*
X86487499Y-112331947D01*
X86476886Y-112243556D01*
X86476884Y-112243552D01*
X86421421Y-112102908D01*
X86421420Y-112102906D01*
X86330064Y-111982435D01*
X86209593Y-111891079D01*
X86209591Y-111891078D01*
X86068945Y-111835614D01*
X85980553Y-111825000D01*
X85775000Y-111825000D01*
X85775000Y-112700000D01*
X85175000Y-112700000D01*
X85175000Y-111825000D01*
X84969447Y-111825000D01*
X84881056Y-111835613D01*
X84881052Y-111835615D01*
X84740408Y-111891078D01*
X84740406Y-111891079D01*
X84619935Y-111982435D01*
X84528579Y-112102906D01*
X84528578Y-112102908D01*
X84473114Y-112243554D01*
X84462500Y-112331947D01*
X83512999Y-112331947D01*
X83512999Y-112331902D01*
X83502376Y-112243436D01*
X83446861Y-112102658D01*
X83355693Y-111982435D01*
X83355422Y-111982077D01*
X83234844Y-111890640D01*
X83234842Y-111890639D01*
X83094064Y-111835124D01*
X83094061Y-111835123D01*
X83005599Y-111824500D01*
X81994408Y-111824500D01*
X81905937Y-111835123D01*
X81765157Y-111890639D01*
X81765155Y-111890640D01*
X81644577Y-111982077D01*
X81553140Y-112102655D01*
X81497624Y-112243437D01*
X81497623Y-112243438D01*
X81491998Y-112290285D01*
X81464461Y-112354499D01*
X81406578Y-112393632D01*
X81368883Y-112399500D01*
X80420943Y-112399500D01*
X80268216Y-112440423D01*
X80268209Y-112440426D01*
X80131290Y-112519475D01*
X80131282Y-112519481D01*
X80019481Y-112631282D01*
X80019475Y-112631290D01*
X79940426Y-112768209D01*
X79940423Y-112768216D01*
X79899500Y-112920943D01*
X76666423Y-112920943D01*
X76425535Y-112798204D01*
X76083051Y-112666736D01*
X75728685Y-112571784D01*
X75366353Y-112514397D01*
X75000001Y-112495197D01*
X74999999Y-112495197D01*
X74633646Y-112514397D01*
X74271315Y-112571784D01*
X74271313Y-112571784D01*
X73916948Y-112666736D01*
X73574464Y-112798204D01*
X73247594Y-112964754D01*
X72939929Y-113164553D01*
X72745922Y-113321658D01*
X74100256Y-114675992D01*
X73957670Y-114779588D01*
X73779588Y-114957670D01*
X73675992Y-115100256D01*
X72321658Y-113745922D01*
X72164553Y-113939929D01*
X71964754Y-114247594D01*
X71798204Y-114574464D01*
X71666736Y-114916948D01*
X71571784Y-115271313D01*
X71571784Y-115271315D01*
X71514397Y-115633646D01*
X71495197Y-115999999D01*
X70500500Y-115999999D01*
X70500500Y-109470943D01*
X138899500Y-109470943D01*
X138899500Y-109629056D01*
X138940423Y-109781783D01*
X138940426Y-109781790D01*
X139019475Y-109918709D01*
X139019478Y-109918713D01*
X139019480Y-109918716D01*
X139131284Y-110030520D01*
X139131286Y-110030521D01*
X139131290Y-110030524D01*
X139268209Y-110109573D01*
X139268216Y-110109577D01*
X139420943Y-110150500D01*
X154888331Y-110150500D01*
X154888347Y-110150501D01*
X154895943Y-110150501D01*
X155054054Y-110150501D01*
X155054057Y-110150501D01*
X155206785Y-110109577D01*
X155256904Y-110080639D01*
X155343716Y-110030520D01*
X155455520Y-109918716D01*
X155455520Y-109918714D01*
X155465728Y-109908507D01*
X155465729Y-109908504D01*
X156980520Y-108393716D01*
X157059577Y-108256784D01*
X157100501Y-108104057D01*
X157100501Y-107945942D01*
X157059577Y-107793215D01*
X156980520Y-107656284D01*
X156868716Y-107544480D01*
X156731785Y-107465423D01*
X156579058Y-107424499D01*
X156420943Y-107424499D01*
X156344579Y-107444961D01*
X156268214Y-107465423D01*
X156268209Y-107465426D01*
X156131290Y-107544475D01*
X156131282Y-107544481D01*
X154762584Y-108913181D01*
X154701261Y-108946666D01*
X154674903Y-108949500D01*
X139420943Y-108949500D01*
X139268216Y-108990423D01*
X139268209Y-108990426D01*
X139131290Y-109069475D01*
X139131282Y-109069481D01*
X139019481Y-109181282D01*
X139019475Y-109181290D01*
X138940426Y-109318209D01*
X138940423Y-109318216D01*
X138899500Y-109470943D01*
X70500500Y-109470943D01*
X70500500Y-105734999D01*
X81644571Y-105734999D01*
X81644571Y-105735000D01*
X81648971Y-105782484D01*
X81649500Y-105793925D01*
X81649500Y-105825546D01*
X81657158Y-105873897D01*
X81657213Y-105874244D01*
X81658210Y-105882198D01*
X81664244Y-105947309D01*
X81672448Y-105976148D01*
X81675652Y-105990672D01*
X81677827Y-106004401D01*
X81677831Y-106004418D01*
X81698530Y-106068124D01*
X81699865Y-106072505D01*
X81722595Y-106152389D01*
X81722597Y-106152394D01*
X81722600Y-106152401D01*
X81728046Y-106163340D01*
X81731684Y-106172228D01*
X81731921Y-106172131D01*
X81733787Y-106176635D01*
X81772238Y-106252100D01*
X81772753Y-106253123D01*
X81817628Y-106343245D01*
X81817635Y-106343257D01*
X81874775Y-106418921D01*
X81876140Y-106420764D01*
X81922443Y-106484497D01*
X81923923Y-106485977D01*
X81935195Y-106498930D01*
X81946126Y-106513405D01*
X82003146Y-106565386D01*
X82007289Y-106569343D01*
X82050495Y-106612550D01*
X82050498Y-106612553D01*
X82066537Y-106624206D01*
X82077187Y-106632885D01*
X82103695Y-106657050D01*
X82154261Y-106688359D01*
X82161867Y-106693466D01*
X82197006Y-106718996D01*
X82230434Y-106736028D01*
X82239416Y-106741086D01*
X82274767Y-106762974D01*
X82284981Y-106769298D01*
X82323940Y-106784390D01*
X82335436Y-106789530D01*
X82358355Y-106801208D01*
X82358361Y-106801211D01*
X82410871Y-106818272D01*
X82417337Y-106820573D01*
X82483799Y-106846320D01*
X82483802Y-106846321D01*
X82507457Y-106850742D01*
X82522984Y-106854699D01*
X82530591Y-106857171D01*
X82530601Y-106857172D01*
X82530603Y-106857173D01*
X82602601Y-106868576D01*
X82605966Y-106869156D01*
X82644804Y-106876417D01*
X82656544Y-106878612D01*
X82718825Y-106910281D01*
X82754097Y-106970594D01*
X82751162Y-107040402D01*
X82710951Y-107097541D01*
X82646233Y-107123871D01*
X82633757Y-107124500D01*
X81905143Y-107124500D01*
X81905117Y-107124502D01*
X81880012Y-107127413D01*
X81880008Y-107127415D01*
X81777235Y-107172793D01*
X81697794Y-107252234D01*
X81652415Y-107355006D01*
X81652415Y-107355008D01*
X81649500Y-107380131D01*
X81649500Y-109169856D01*
X81649502Y-109169882D01*
X81652413Y-109194987D01*
X81652415Y-109194991D01*
X81697793Y-109297764D01*
X81697794Y-109297765D01*
X81777235Y-109377206D01*
X81880009Y-109422585D01*
X81905135Y-109425500D01*
X82699451Y-109425499D01*
X82699465Y-109425500D01*
X82709454Y-109425500D01*
X85440536Y-109425500D01*
X85440548Y-109425499D01*
X86234856Y-109425499D01*
X86234864Y-109425499D01*
X86234879Y-109425497D01*
X86234882Y-109425497D01*
X86259987Y-109422586D01*
X86259988Y-109422585D01*
X86259991Y-109422585D01*
X86362765Y-109377206D01*
X86442206Y-109297765D01*
X86487585Y-109194991D01*
X86490500Y-109169865D01*
X86490500Y-108302625D01*
X86490500Y-108184454D01*
X86490500Y-108176859D01*
X86490499Y-108176841D01*
X86490499Y-107380143D01*
X86490499Y-107380136D01*
X86490497Y-107380117D01*
X86487586Y-107355012D01*
X86487585Y-107355010D01*
X86487585Y-107355009D01*
X86442206Y-107252235D01*
X86362765Y-107172794D01*
X86362763Y-107172793D01*
X86259992Y-107127415D01*
X86234868Y-107124500D01*
X86234865Y-107124500D01*
X85506243Y-107124500D01*
X85439204Y-107104815D01*
X85393449Y-107052011D01*
X85383505Y-106982853D01*
X85412530Y-106919297D01*
X85471308Y-106881523D01*
X85483455Y-106878612D01*
X85534057Y-106869152D01*
X85537372Y-106868579D01*
X85609409Y-106857171D01*
X85617013Y-106854699D01*
X85632544Y-106850742D01*
X85656198Y-106846321D01*
X85722684Y-106820563D01*
X85729106Y-106818279D01*
X85781639Y-106801211D01*
X85804564Y-106789529D01*
X85816060Y-106784390D01*
X85821610Y-106782239D01*
X85855019Y-106769298D01*
X85900589Y-106741080D01*
X85909544Y-106736038D01*
X85942994Y-106718996D01*
X85978133Y-106693464D01*
X85985708Y-106688377D01*
X86036302Y-106657052D01*
X86062811Y-106632885D01*
X86073467Y-106624202D01*
X86089501Y-106612553D01*
X86132729Y-106569323D01*
X86136853Y-106565386D01*
X86193872Y-106513407D01*
X86204802Y-106498933D01*
X86216080Y-106485973D01*
X86217553Y-106484501D01*
X86263947Y-106420642D01*
X86265184Y-106418973D01*
X86322366Y-106343255D01*
X86367302Y-106253009D01*
X86367697Y-106252224D01*
X86406211Y-106176639D01*
X86406213Y-106176630D01*
X86408072Y-106172144D01*
X86408315Y-106172244D01*
X86411958Y-106163326D01*
X86417405Y-106152389D01*
X86440153Y-106072435D01*
X86441452Y-106068172D01*
X86462171Y-106004409D01*
X86464345Y-105990681D01*
X86467553Y-105976137D01*
X86475756Y-105947310D01*
X86481788Y-105882196D01*
X86482782Y-105874264D01*
X86490500Y-105825546D01*
X86490500Y-105793925D01*
X86491029Y-105782484D01*
X86495429Y-105735000D01*
X86495429Y-105734999D01*
X86491029Y-105687514D01*
X86490500Y-105676073D01*
X86490500Y-105644456D01*
X86490499Y-105644447D01*
X86482783Y-105595738D01*
X86481787Y-105587790D01*
X86475756Y-105522693D01*
X86475756Y-105522692D01*
X86475756Y-105522691D01*
X86475756Y-105522690D01*
X86467550Y-105493850D01*
X86464345Y-105479318D01*
X86462172Y-105465595D01*
X86462171Y-105465590D01*
X86441466Y-105401867D01*
X86440131Y-105397484D01*
X86417405Y-105317611D01*
X86411956Y-105306668D01*
X86408313Y-105297758D01*
X86408073Y-105297858D01*
X86406213Y-105293367D01*
X86406211Y-105293361D01*
X86367658Y-105217697D01*
X86367310Y-105217006D01*
X86322366Y-105126745D01*
X86322365Y-105126744D01*
X86322365Y-105126743D01*
X86265256Y-105051121D01*
X86263891Y-105049278D01*
X86217556Y-104985502D01*
X86216075Y-104984021D01*
X86204802Y-104971066D01*
X86193874Y-104956595D01*
X86136852Y-104904612D01*
X86132709Y-104900655D01*
X86089505Y-104857450D01*
X86089498Y-104857445D01*
X86089492Y-104857441D01*
X86073462Y-104845793D01*
X86062823Y-104837125D01*
X86036302Y-104812948D01*
X86036303Y-104812948D01*
X86036298Y-104812944D01*
X86036296Y-104812943D01*
X85985724Y-104781630D01*
X85978125Y-104776528D01*
X85942994Y-104751004D01*
X85909555Y-104733965D01*
X85900577Y-104728910D01*
X85855022Y-104700703D01*
X85855016Y-104700700D01*
X85816057Y-104685608D01*
X85804558Y-104680467D01*
X85781639Y-104668789D01*
X85781636Y-104668788D01*
X85781634Y-104668787D01*
X85729119Y-104651723D01*
X85722646Y-104649420D01*
X85656203Y-104623680D01*
X85656194Y-104623678D01*
X85632546Y-104619257D01*
X85617025Y-104615303D01*
X85609416Y-104612831D01*
X85609413Y-104612830D01*
X85609409Y-104612829D01*
X85594590Y-104610482D01*
X85537447Y-104601431D01*
X85534061Y-104600847D01*
X85458027Y-104586634D01*
X85395746Y-104554966D01*
X85360473Y-104494654D01*
X85363407Y-104424846D01*
X85403615Y-104367705D01*
X85458027Y-104342856D01*
X85656058Y-104305837D01*
X85656063Y-104305836D01*
X85854789Y-104228850D01*
X85854798Y-104228846D01*
X86035997Y-104116653D01*
X86035999Y-104116651D01*
X86193499Y-103973071D01*
X86321938Y-103802991D01*
X86416932Y-103612218D01*
X86416937Y-103612205D01*
X86450286Y-103495000D01*
X85744144Y-103495000D01*
X85805925Y-103387993D01*
X85840000Y-103260826D01*
X85840000Y-103129174D01*
X85805925Y-103002007D01*
X85744144Y-102895000D01*
X86450286Y-102895000D01*
X86450286Y-102894999D01*
X86416937Y-102777794D01*
X86416932Y-102777781D01*
X86321938Y-102587008D01*
X86193499Y-102416928D01*
X86035999Y-102273348D01*
X86035997Y-102273346D01*
X85854798Y-102161153D01*
X85854792Y-102161151D01*
X85656060Y-102084162D01*
X85640000Y-102081159D01*
X85640000Y-102790855D01*
X85532993Y-102729075D01*
X85405826Y-102695000D01*
X85274174Y-102695000D01*
X85147007Y-102729075D01*
X85040000Y-102790855D01*
X85040000Y-102081159D01*
X85023939Y-102084162D01*
X84825207Y-102161151D01*
X84825201Y-102161153D01*
X84644002Y-102273346D01*
X84644000Y-102273348D01*
X84486500Y-102416928D01*
X84358061Y-102587008D01*
X84263067Y-102777781D01*
X84263062Y-102777794D01*
X84229713Y-102894999D01*
X84229714Y-102895000D01*
X84935856Y-102895000D01*
X84874075Y-103002007D01*
X84840000Y-103129174D01*
X84840000Y-103260826D01*
X84874075Y-103387993D01*
X84935856Y-103495000D01*
X84229714Y-103495000D01*
X84263062Y-103612205D01*
X84263067Y-103612218D01*
X84358061Y-103802991D01*
X84486500Y-103973071D01*
X84644000Y-104116651D01*
X84644002Y-104116653D01*
X84825201Y-104228846D01*
X84825210Y-104228850D01*
X85023936Y-104305836D01*
X85023941Y-104305837D01*
X85199261Y-104338611D01*
X85261542Y-104370279D01*
X85296815Y-104430592D01*
X85293881Y-104500400D01*
X85253672Y-104557540D01*
X85188954Y-104583871D01*
X85176476Y-104584500D01*
X82963524Y-104584500D01*
X82896485Y-104564815D01*
X82850730Y-104512011D01*
X82840786Y-104442853D01*
X82869811Y-104379297D01*
X82928589Y-104341523D01*
X82940739Y-104338611D01*
X83116058Y-104305837D01*
X83116063Y-104305836D01*
X83314789Y-104228850D01*
X83314798Y-104228846D01*
X83495997Y-104116653D01*
X83495999Y-104116651D01*
X83653499Y-103973071D01*
X83781938Y-103802991D01*
X83876932Y-103612218D01*
X83876937Y-103612205D01*
X83910286Y-103495000D01*
X83204144Y-103495000D01*
X83265925Y-103387993D01*
X83300000Y-103260826D01*
X83300000Y-103129174D01*
X83265925Y-103002007D01*
X83204144Y-102895000D01*
X83910286Y-102895000D01*
X83910286Y-102894999D01*
X83876937Y-102777794D01*
X83876932Y-102777781D01*
X83781938Y-102587008D01*
X83653499Y-102416928D01*
X83495999Y-102273348D01*
X83495997Y-102273346D01*
X83314798Y-102161153D01*
X83314792Y-102161151D01*
X83116060Y-102084162D01*
X83100000Y-102081159D01*
X83100000Y-102790855D01*
X82992993Y-102729075D01*
X82865826Y-102695000D01*
X82734174Y-102695000D01*
X82607007Y-102729075D01*
X82500000Y-102790855D01*
X82500000Y-102081159D01*
X82483939Y-102084162D01*
X82285207Y-102161151D01*
X82285201Y-102161153D01*
X82104002Y-102273346D01*
X82104000Y-102273348D01*
X81946500Y-102416928D01*
X81818061Y-102587008D01*
X81723067Y-102777781D01*
X81723062Y-102777794D01*
X81689713Y-102894999D01*
X81689714Y-102895000D01*
X82395856Y-102895000D01*
X82334075Y-103002007D01*
X82300000Y-103129174D01*
X82300000Y-103260826D01*
X82334075Y-103387993D01*
X82395856Y-103495000D01*
X81689714Y-103495000D01*
X81723062Y-103612205D01*
X81723067Y-103612218D01*
X81818061Y-103802991D01*
X81946500Y-103973071D01*
X82104000Y-104116651D01*
X82104002Y-104116653D01*
X82285201Y-104228846D01*
X82285210Y-104228850D01*
X82483936Y-104305836D01*
X82483941Y-104305837D01*
X82681972Y-104342856D01*
X82744253Y-104374524D01*
X82779526Y-104434836D01*
X82776592Y-104504645D01*
X82736383Y-104561785D01*
X82681971Y-104586634D01*
X82605936Y-104600847D01*
X82602551Y-104601431D01*
X82530590Y-104612829D01*
X82530587Y-104612829D01*
X82522975Y-104615303D01*
X82507449Y-104619258D01*
X82483806Y-104623677D01*
X82483795Y-104623680D01*
X82417358Y-104649418D01*
X82410887Y-104651721D01*
X82358365Y-104668787D01*
X82358356Y-104668791D01*
X82335436Y-104680469D01*
X82323942Y-104685607D01*
X82284984Y-104700700D01*
X82284982Y-104700701D01*
X82239415Y-104728914D01*
X82230439Y-104733968D01*
X82197007Y-104751003D01*
X82197004Y-104751005D01*
X82161874Y-104776528D01*
X82154270Y-104781634D01*
X82103697Y-104812948D01*
X82077186Y-104837115D01*
X82066542Y-104845789D01*
X82050506Y-104857441D01*
X82050495Y-104857450D01*
X82007276Y-104900668D01*
X82003137Y-104904621D01*
X81946126Y-104956594D01*
X81935188Y-104971077D01*
X81923939Y-104984005D01*
X81922450Y-104985494D01*
X81922449Y-104985494D01*
X81876119Y-105049262D01*
X81874757Y-105051101D01*
X81817634Y-105126743D01*
X81817630Y-105126750D01*
X81772753Y-105216876D01*
X81772238Y-105217898D01*
X81733790Y-105293358D01*
X81731925Y-105297860D01*
X81731688Y-105297762D01*
X81728050Y-105306652D01*
X81722599Y-105317600D01*
X81722595Y-105317610D01*
X81699868Y-105397484D01*
X81698534Y-105401863D01*
X81677829Y-105465589D01*
X81675653Y-105479327D01*
X81672448Y-105493853D01*
X81664244Y-105522691D01*
X81658210Y-105587800D01*
X81657212Y-105595754D01*
X81649500Y-105644447D01*
X81649500Y-105676073D01*
X81648971Y-105687514D01*
X81644571Y-105734999D01*
X70500500Y-105734999D01*
X70500500Y-95499999D01*
X71495197Y-95499999D01*
X71495197Y-95500000D01*
X71514397Y-95866353D01*
X71571784Y-96228684D01*
X71571784Y-96228686D01*
X71666736Y-96583051D01*
X71798204Y-96925535D01*
X71964754Y-97252406D01*
X72164549Y-97560064D01*
X72321658Y-97754076D01*
X73675992Y-96399742D01*
X73779588Y-96542330D01*
X73957670Y-96720412D01*
X74100256Y-96824007D01*
X72745922Y-98178341D01*
X72939924Y-98335442D01*
X72939937Y-98335451D01*
X73247593Y-98535245D01*
X73574464Y-98701795D01*
X73916948Y-98833263D01*
X74271314Y-98928215D01*
X74633646Y-98985602D01*
X74999999Y-99004803D01*
X75000001Y-99004803D01*
X75366353Y-98985602D01*
X75728684Y-98928215D01*
X75728686Y-98928215D01*
X76083051Y-98833263D01*
X76425535Y-98701795D01*
X76752406Y-98535245D01*
X76928417Y-98420943D01*
X79899500Y-98420943D01*
X79899500Y-98579057D01*
X79932388Y-98701795D01*
X79940423Y-98731783D01*
X79940426Y-98731790D01*
X80019475Y-98868709D01*
X80019479Y-98868714D01*
X80019480Y-98868716D01*
X80131284Y-98980520D01*
X80131286Y-98980521D01*
X80131290Y-98980524D01*
X80268209Y-99059573D01*
X80268216Y-99059577D01*
X80420943Y-99100500D01*
X81368883Y-99100500D01*
X81435922Y-99120185D01*
X81481677Y-99172989D01*
X81491999Y-99209717D01*
X81497623Y-99256562D01*
X81553139Y-99397342D01*
X81553140Y-99397344D01*
X81644577Y-99517922D01*
X81765155Y-99609359D01*
X81765158Y-99609361D01*
X81905936Y-99664876D01*
X81994401Y-99675500D01*
X83005598Y-99675499D01*
X83094064Y-99664876D01*
X83234842Y-99609361D01*
X83355422Y-99517922D01*
X83446861Y-99397342D01*
X83502376Y-99256564D01*
X83513000Y-99168099D01*
X83513000Y-99168052D01*
X84462501Y-99168052D01*
X84473113Y-99256443D01*
X84473115Y-99256447D01*
X84528578Y-99397091D01*
X84528579Y-99397093D01*
X84619935Y-99517564D01*
X84740406Y-99608920D01*
X84740408Y-99608921D01*
X84881054Y-99664385D01*
X84969447Y-99674999D01*
X85174999Y-99674999D01*
X85775000Y-99674999D01*
X85980553Y-99674999D01*
X86068943Y-99664386D01*
X86068947Y-99664384D01*
X86209591Y-99608921D01*
X86209593Y-99608920D01*
X86330064Y-99517564D01*
X86421420Y-99397093D01*
X86421421Y-99397091D01*
X86476885Y-99256445D01*
X86487500Y-99168052D01*
X86487500Y-98800000D01*
X85775000Y-98800000D01*
X85775000Y-99674999D01*
X85174999Y-99674999D01*
X85175000Y-99674998D01*
X85175000Y-98800000D01*
X84462501Y-98800000D01*
X84462501Y-99168052D01*
X83513000Y-99168052D01*
X83512999Y-97831947D01*
X84462500Y-97831947D01*
X84462500Y-98200000D01*
X85175000Y-98200000D01*
X85775000Y-98200000D01*
X86487499Y-98200000D01*
X86487499Y-97831947D01*
X86476886Y-97743556D01*
X86476884Y-97743552D01*
X86421421Y-97602908D01*
X86421420Y-97602906D01*
X86330064Y-97482435D01*
X86209593Y-97391079D01*
X86209591Y-97391078D01*
X86068945Y-97335614D01*
X85980553Y-97325000D01*
X85775000Y-97325000D01*
X85775000Y-98200000D01*
X85175000Y-98200000D01*
X85175000Y-97325000D01*
X84969447Y-97325000D01*
X84881056Y-97335613D01*
X84881052Y-97335615D01*
X84740408Y-97391078D01*
X84740406Y-97391079D01*
X84619935Y-97482435D01*
X84528579Y-97602906D01*
X84528578Y-97602908D01*
X84473114Y-97743554D01*
X84462500Y-97831947D01*
X83512999Y-97831947D01*
X83512999Y-97831902D01*
X83502376Y-97743436D01*
X83446861Y-97602658D01*
X83355693Y-97482435D01*
X83355422Y-97482077D01*
X83234844Y-97390640D01*
X83234842Y-97390639D01*
X83094064Y-97335124D01*
X83094061Y-97335123D01*
X83005599Y-97324500D01*
X81994408Y-97324500D01*
X81905937Y-97335123D01*
X81765157Y-97390639D01*
X81765155Y-97390640D01*
X81644577Y-97482077D01*
X81553140Y-97602655D01*
X81497624Y-97743437D01*
X81497623Y-97743438D01*
X81491998Y-97790285D01*
X81464461Y-97854499D01*
X81406578Y-97893632D01*
X81368883Y-97899500D01*
X80420943Y-97899500D01*
X80268216Y-97940423D01*
X80268209Y-97940426D01*
X80131290Y-98019475D01*
X80131282Y-98019481D01*
X80019481Y-98131282D01*
X80019475Y-98131290D01*
X79940426Y-98268209D01*
X79940423Y-98268216D01*
X79899500Y-98420943D01*
X76928417Y-98420943D01*
X77060065Y-98335450D01*
X77254077Y-98178341D01*
X75899743Y-96824007D01*
X76042330Y-96720412D01*
X76220412Y-96542330D01*
X76324007Y-96399743D01*
X77678341Y-97754077D01*
X77835450Y-97560065D01*
X78035245Y-97252406D01*
X78201795Y-96925535D01*
X78333263Y-96583051D01*
X78428215Y-96228686D01*
X78428215Y-96228684D01*
X78485602Y-95866353D01*
X78504803Y-95500000D01*
X78504803Y-95499999D01*
X78485602Y-95133646D01*
X78428215Y-94771315D01*
X78428215Y-94771313D01*
X78333263Y-94416948D01*
X78201795Y-94074464D01*
X78035245Y-93747594D01*
X77835450Y-93439935D01*
X77678340Y-93245922D01*
X76324006Y-94600255D01*
X76220412Y-94457670D01*
X76042330Y-94279588D01*
X75899743Y-94175992D01*
X77254077Y-92821658D01*
X77060064Y-92664549D01*
X76752406Y-92464754D01*
X76425535Y-92298204D01*
X76083051Y-92166736D01*
X75728685Y-92071784D01*
X75366353Y-92014397D01*
X75000001Y-91995197D01*
X74999999Y-91995197D01*
X74633646Y-92014397D01*
X74271315Y-92071784D01*
X74271313Y-92071784D01*
X73916948Y-92166736D01*
X73574464Y-92298204D01*
X73247594Y-92464754D01*
X72939929Y-92664553D01*
X72745922Y-92821658D01*
X74100256Y-94175992D01*
X73957670Y-94279588D01*
X73779588Y-94457670D01*
X73675992Y-94600256D01*
X72321658Y-93245922D01*
X72164553Y-93439929D01*
X71964754Y-93747594D01*
X71798204Y-94074464D01*
X71666736Y-94416948D01*
X71571784Y-94771313D01*
X71571784Y-94771315D01*
X71514397Y-95133646D01*
X71495197Y-95499999D01*
X70500500Y-95499999D01*
X70500500Y-93503750D01*
X70500726Y-93496263D01*
X70518271Y-93206205D01*
X70520076Y-93191340D01*
X70555141Y-93000000D01*
X70571780Y-92909197D01*
X70575364Y-92894663D01*
X70660696Y-92620822D01*
X70665998Y-92606841D01*
X70783731Y-92345249D01*
X70790676Y-92332016D01*
X70939080Y-92086526D01*
X70947567Y-92074230D01*
X71124480Y-91848417D01*
X71134395Y-91837226D01*
X71337226Y-91634395D01*
X71348417Y-91624480D01*
X71574230Y-91447567D01*
X71586526Y-91439080D01*
X71832016Y-91290676D01*
X71845249Y-91283731D01*
X72106841Y-91165998D01*
X72120822Y-91160696D01*
X72394668Y-91075362D01*
X72409197Y-91071780D01*
X72691344Y-91020075D01*
X72706201Y-91018271D01*
X72996264Y-91000726D01*
X73003751Y-91000500D01*
X73065892Y-91000500D01*
X89200138Y-91000500D01*
X89267177Y-91020185D01*
G37*
G04 #@! TD.AperFunction*
M02*
