M48
; DRILL file {KiCad 8.0.4-8.0.4-0~ubuntu22.04.1} date 2024-09-06T14:34:19+0200
; FORMAT={-:-/ absolute / metric / decimal}
; #@! TF.CreationDate,2024-09-06T14:34:19+02:00
; #@! TF.GenerationSoftware,Kicad,Pcbnew,8.0.4-8.0.4-0~ubuntu22.04.1
; #@! TF.FileFunction,Plated,1,2,PTH
FMAT,2
METRIC
; #@! TA.AperFunction,Plated,PTH,ViaDrill
T1C0.300
; #@! TA.AperFunction,Plated,PTH,ComponentDrill
T2C0.500
; #@! TA.AperFunction,Plated,PTH,ComponentDrill
T3C1.000
; #@! TA.AperFunction,Plated,PTH,ComponentDrill
T4C1.800
; #@! TA.AperFunction,Plated,PTH,ComponentDrill
T5C3.200
%
G90
G05
T1
X73.0Y-102.5
X73.0Y-105.5
X73.0Y-108.5
X75.5Y-102.5
X75.5Y-105.5
X75.5Y-108.5
X80.5Y-98.5
X80.5Y-113.0
X82.5Y-93.0
X82.5Y-118.5
X84.0Y-93.0
X84.0Y-118.5
X85.5Y-93.0
X85.5Y-118.5
X87.5Y-115.5
X92.0Y-107.0
X95.0Y-107.0
X95.0Y-110.0
X97.0Y-117.0
X106.0Y-117.0
X106.1Y-115.5
X110.0Y-108.0
X110.0Y-117.0
X112.5Y-117.0
X114.0Y-109.8
X117.0Y-115.5
X120.5Y-110.5
X123.0Y-110.5
X125.5Y-110.5
X125.5Y-116.0
X128.0Y-110.5
X128.0Y-116.0
X130.5Y-110.5
X130.5Y-116.0
X133.0Y-110.5
X133.0Y-116.0
X137.0Y-106.5
X139.5Y-106.5
X139.5Y-109.55
X142.0Y-106.5
X146.5Y-114.5
X153.0Y-108.0
X153.062Y-110.5
X153.062Y-113.0
X156.0Y-110.5
X156.5Y-108.025
X162.975Y-108.025
X163.0Y-113.5
X163.5Y-115.0
X164.5Y-106.5
X165.0Y-115.0
X166.5Y-115.0
X168.0Y-115.0
X170.5Y-118.763
X172.0Y-118.763
X173.5Y-118.763
X175.0Y-118.763
X196.5Y-119.0
X213.5Y-119.0
T2
X72.6Y-95.5
X72.6Y-116.0
X73.303Y-93.803
X73.303Y-97.197
X73.303Y-114.303
X73.303Y-117.697
X75.0Y-93.1
X75.0Y-97.9
X75.0Y-113.6
X75.0Y-118.4
X76.697Y-93.803
X76.697Y-97.197
X76.697Y-114.303
X76.697Y-117.697
X77.4Y-95.5
X77.4Y-116.0
X220.1Y-95.5
X220.1Y-116.0
X220.803Y-93.803
X220.803Y-97.197
X220.803Y-114.303
X220.803Y-117.697
X222.5Y-93.1
X222.5Y-97.9
X222.5Y-113.6
X222.5Y-118.4
X224.197Y-93.803
X224.197Y-97.197
X224.197Y-114.303
X224.197Y-117.697
X224.9Y-95.5
X224.9Y-116.0
T3
X82.8Y-103.195
X82.8Y-105.735
X82.8Y-108.275
X85.34Y-103.195
X85.34Y-105.735
X85.34Y-108.275
T4
X93.25Y-98.0
X100.87Y-98.0
X111.25Y-98.0
X118.87Y-98.0
X196.63Y-98.0
X204.25Y-98.0
T5
X75.0Y-95.5
X75.0Y-116.0
X222.5Y-95.5
X222.5Y-116.0
M30
