G04 #@! TF.GenerationSoftware,KiCad,Pcbnew,8.0.5-8.0.5-0~ubuntu22.04.1*
G04 #@! TF.CreationDate,2024-09-10T18:26:46+02:00*
G04 #@! TF.ProjectId,Tube Driver,54756265-2044-4726-9976-65722e6b6963,1.0*
G04 #@! TF.SameCoordinates,Original*
G04 #@! TF.FileFunction,Paste,Top*
G04 #@! TF.FilePolarity,Positive*
%FSLAX46Y46*%
G04 Gerber Fmt 4.6, Leading zero omitted, Abs format (unit mm)*
G04 Created by KiCad (PCBNEW 8.0.5-8.0.5-0~ubuntu22.04.1) date 2024-09-10 18:26:46*
%MOMM*%
%LPD*%
G01*
G04 APERTURE LIST*
G04 Aperture macros list*
%AMRoundRect*
0 Rectangle with rounded corners*
0 $1 Rounding radius*
0 $2 $3 $4 $5 $6 $7 $8 $9 X,Y pos of 4 corners*
0 Add a 4 corners polygon primitive as box body*
4,1,4,$2,$3,$4,$5,$6,$7,$8,$9,$2,$3,0*
0 Add four circle primitives for the rounded corners*
1,1,$1+$1,$2,$3*
1,1,$1+$1,$4,$5*
1,1,$1+$1,$6,$7*
1,1,$1+$1,$8,$9*
0 Add four rect primitives between the rounded corners*
20,1,$1+$1,$2,$3,$4,$5,0*
20,1,$1+$1,$4,$5,$6,$7,0*
20,1,$1+$1,$6,$7,$8,$9,0*
20,1,$1+$1,$8,$9,$2,$3,0*%
G04 Aperture macros list end*
%ADD10RoundRect,0.250000X-0.400000X-0.625000X0.400000X-0.625000X0.400000X0.625000X-0.400000X0.625000X0*%
%ADD11RoundRect,0.250000X-1.100000X0.412500X-1.100000X-0.412500X1.100000X-0.412500X1.100000X0.412500X0*%
%ADD12RoundRect,0.250000X0.412500X0.650000X-0.412500X0.650000X-0.412500X-0.650000X0.412500X-0.650000X0*%
%ADD13RoundRect,0.250000X-0.412500X-0.650000X0.412500X-0.650000X0.412500X0.650000X-0.412500X0.650000X0*%
%ADD14RoundRect,0.200000X0.750000X0.200000X-0.750000X0.200000X-0.750000X-0.200000X0.750000X-0.200000X0*%
%ADD15RoundRect,0.250000X0.625000X-0.400000X0.625000X0.400000X-0.625000X0.400000X-0.625000X-0.400000X0*%
%ADD16RoundRect,0.375000X0.375000X-0.625000X0.375000X0.625000X-0.375000X0.625000X-0.375000X-0.625000X0*%
%ADD17RoundRect,0.500000X1.400000X-0.500000X1.400000X0.500000X-1.400000X0.500000X-1.400000X-0.500000X0*%
%ADD18RoundRect,0.250000X0.250000X0.250000X-0.250000X0.250000X-0.250000X-0.250000X0.250000X-0.250000X0*%
%ADD19RoundRect,0.250000X0.400000X0.625000X-0.400000X0.625000X-0.400000X-0.625000X0.400000X-0.625000X0*%
%ADD20RoundRect,0.250000X-0.250000X-0.250000X0.250000X-0.250000X0.250000X0.250000X-0.250000X0.250000X0*%
%ADD21RoundRect,0.300000X-1.350000X-0.300000X1.350000X-0.300000X1.350000X0.300000X-1.350000X0.300000X0*%
%ADD22RoundRect,0.150000X-0.150000X0.825000X-0.150000X-0.825000X0.150000X-0.825000X0.150000X0.825000X0*%
%ADD23RoundRect,0.320000X3.430000X-1.280000X3.430000X1.280000X-3.430000X1.280000X-3.430000X-1.280000X0*%
%ADD24RoundRect,0.250000X1.375000X0.650000X-1.375000X0.650000X-1.375000X-0.650000X1.375000X-0.650000X0*%
%ADD25RoundRect,0.250000X0.550000X-1.500000X0.550000X1.500000X-0.550000X1.500000X-0.550000X-1.500000X0*%
%ADD26RoundRect,0.200000X-0.750000X-0.200000X0.750000X-0.200000X0.750000X0.200000X-0.750000X0.200000X0*%
G04 APERTURE END LIST*
D10*
X103000000Y-108000000D03*
X106100000Y-108000000D03*
X108000000Y-113000000D03*
X111100000Y-113000000D03*
D11*
X196500000Y-114000000D03*
X196500000Y-117125000D03*
D12*
X101125000Y-108000000D03*
X98000000Y-108000000D03*
D13*
X151500000Y-108000000D03*
X154625000Y-108000000D03*
D14*
X144000000Y-110500000D03*
X144000000Y-108600000D03*
X141000000Y-109550000D03*
D15*
X213000000Y-104600000D03*
X213000000Y-101500000D03*
D10*
X146500000Y-113000000D03*
X149600000Y-113000000D03*
D15*
X210500000Y-101100000D03*
X210500000Y-98000000D03*
X210500000Y-108100000D03*
X210500000Y-105000000D03*
D16*
X172200000Y-114300000D03*
X174500000Y-114300000D03*
X176800000Y-114300000D03*
D17*
X174500000Y-108000000D03*
D10*
X200500000Y-114000000D03*
X203600000Y-114000000D03*
D11*
X213500000Y-114000000D03*
X213500000Y-117125000D03*
D18*
X167000000Y-108000000D03*
X164500000Y-108000000D03*
D19*
X85600000Y-115500000D03*
X82500000Y-115500000D03*
D20*
X98000000Y-113000000D03*
X100500000Y-113000000D03*
D19*
X85600000Y-96000000D03*
X82500000Y-96000000D03*
D21*
X129800000Y-108000000D03*
X136200000Y-110500000D03*
X129800000Y-113000000D03*
D13*
X151500000Y-110500000D03*
X154625000Y-110500000D03*
D22*
X161405000Y-108025000D03*
X160135000Y-108025000D03*
X158865000Y-108025000D03*
X157595000Y-108025000D03*
X157595000Y-112975000D03*
X158865000Y-112975000D03*
X160135000Y-112975000D03*
X161405000Y-112975000D03*
D19*
X106100000Y-113000000D03*
X103000000Y-113000000D03*
D15*
X213000000Y-111600000D03*
X213000000Y-108500000D03*
D10*
X204000000Y-111500000D03*
X207100000Y-111500000D03*
X108000000Y-108000000D03*
X111100000Y-108000000D03*
D19*
X144600000Y-113000000D03*
X141500000Y-113000000D03*
X111100000Y-110500000D03*
X108000000Y-110500000D03*
D23*
X184000000Y-115000000D03*
X184000000Y-108000000D03*
D19*
X149600000Y-108000000D03*
X146500000Y-108000000D03*
D24*
X197000000Y-108000000D03*
X191750000Y-108000000D03*
D10*
X207500000Y-114000000D03*
X210600000Y-114000000D03*
D25*
X123000000Y-113600000D03*
X123000000Y-108000000D03*
D19*
X149600000Y-110500000D03*
X146500000Y-110500000D03*
D10*
X164500000Y-110500000D03*
X167600000Y-110500000D03*
D26*
X114000000Y-112050000D03*
X114000000Y-113950000D03*
X117000000Y-113000000D03*
D13*
X151500000Y-113000000D03*
X154625000Y-113000000D03*
D26*
X114000000Y-107050000D03*
X114000000Y-108950000D03*
X117000000Y-108000000D03*
D10*
X197000000Y-111500000D03*
X200100000Y-111500000D03*
M02*
