G04 #@! TF.GenerationSoftware,KiCad,Pcbnew,8.0.4-8.0.4-0~ubuntu22.04.1*
G04 #@! TF.CreationDate,2024-09-06T12:10:29+02:00*
G04 #@! TF.ProjectId,Tube Driver,54756265-2044-4726-9976-65722e6b6963,1.0*
G04 #@! TF.SameCoordinates,Original*
G04 #@! TF.FileFunction,Legend,Bot*
G04 #@! TF.FilePolarity,Positive*
%FSLAX46Y46*%
G04 Gerber Fmt 4.6, Leading zero omitted, Abs format (unit mm)*
G04 Created by KiCad (PCBNEW 8.0.4-8.0.4-0~ubuntu22.04.1) date 2024-09-06 12:10:29*
%MOMM*%
%LPD*%
G01*
G04 APERTURE LIST*
G04 Aperture macros list*
%AMRoundRect*
0 Rectangle with rounded corners*
0 $1 Rounding radius*
0 $2 $3 $4 $5 $6 $7 $8 $9 X,Y pos of 4 corners*
0 Add a 4 corners polygon primitive as box body*
4,1,4,$2,$3,$4,$5,$6,$7,$8,$9,$2,$3,0*
0 Add four circle primitives for the rounded corners*
1,1,$1+$1,$2,$3*
1,1,$1+$1,$4,$5*
1,1,$1+$1,$6,$7*
1,1,$1+$1,$8,$9*
0 Add four rect primitives between the rounded corners*
20,1,$1+$1,$2,$3,$4,$5,0*
20,1,$1+$1,$4,$5,$6,$7,0*
20,1,$1+$1,$6,$7,$8,$9,0*
20,1,$1+$1,$8,$9,$2,$3,0*%
G04 Aperture macros list end*
%ADD10C,0.150000*%
%ADD11C,0.000000*%
%ADD12C,0.200000*%
%ADD13C,0.400000*%
%ADD14C,0.500000*%
%ADD15C,0.120000*%
%ADD16R,1.700000X1.700000*%
%ADD17O,1.700000X1.700000*%
%ADD18C,0.800000*%
%ADD19C,6.400000*%
%ADD20R,4.000000X4.000000*%
%ADD21C,4.000000*%
%ADD22RoundRect,0.250001X0.462499X0.624999X-0.462499X0.624999X-0.462499X-0.624999X0.462499X-0.624999X0*%
G04 APERTURE END LIST*
D10*
X71000000Y-93500000D02*
X71000000Y-118000000D01*
X209500000Y-91500000D02*
X209500000Y-120000000D01*
D11*
G36*
X211784981Y-95248615D02*
G01*
X212470706Y-95432360D01*
X215213476Y-96167308D01*
X215210128Y-96267270D01*
X215186689Y-96530806D01*
X215161159Y-96706876D01*
X215123072Y-96903393D01*
X215069918Y-97113541D01*
X214999186Y-97330504D01*
X214956443Y-97439412D01*
X214908364Y-97547467D01*
X214854635Y-97653819D01*
X214794942Y-97757615D01*
X214728972Y-97858003D01*
X214656409Y-97954132D01*
X214576940Y-98045148D01*
X214490252Y-98130201D01*
X214396031Y-98208439D01*
X214293962Y-98279009D01*
X214183732Y-98341059D01*
X214065026Y-98393738D01*
X213937532Y-98436193D01*
X213800935Y-98467574D01*
X213654921Y-98487026D01*
X213499176Y-98493700D01*
X213343431Y-98484391D01*
X213197416Y-98457256D01*
X213060819Y-98413483D01*
X212933325Y-98354261D01*
X212814619Y-98280777D01*
X212704389Y-98194222D01*
X212602320Y-98095782D01*
X212508099Y-97986647D01*
X212421411Y-97868005D01*
X212341942Y-97741044D01*
X212269380Y-97606952D01*
X212203409Y-97466918D01*
X212143716Y-97322131D01*
X212089987Y-97173778D01*
X211999166Y-96871131D01*
X211928433Y-96568484D01*
X211875280Y-96275344D01*
X211841521Y-96032369D01*
X212470706Y-96032369D01*
X212472716Y-96112348D01*
X212486779Y-96323202D01*
X212502097Y-96464074D01*
X212524949Y-96621306D01*
X212556841Y-96789444D01*
X212599280Y-96963035D01*
X212653773Y-97136625D01*
X212686010Y-97221717D01*
X212721826Y-97304763D01*
X212761408Y-97385083D01*
X212804945Y-97461995D01*
X212852626Y-97534816D01*
X212904639Y-97602867D01*
X212961171Y-97665464D01*
X213022412Y-97721927D01*
X213088550Y-97771573D01*
X213159773Y-97813721D01*
X213236269Y-97847689D01*
X213318227Y-97872796D01*
X213405835Y-97888360D01*
X213499282Y-97893700D01*
X213592729Y-97889941D01*
X213680337Y-97878986D01*
X213762295Y-97861315D01*
X213838792Y-97837405D01*
X213910015Y-97807739D01*
X213976153Y-97772795D01*
X214037394Y-97733053D01*
X214093927Y-97688993D01*
X214145939Y-97641095D01*
X214193620Y-97589839D01*
X214237157Y-97535704D01*
X214276740Y-97479169D01*
X214312555Y-97420716D01*
X214344792Y-97360824D01*
X214373639Y-97299972D01*
X214399285Y-97238640D01*
X214441724Y-97116456D01*
X214473615Y-96998110D01*
X214496467Y-96887440D01*
X214511785Y-96788286D01*
X214521076Y-96704484D01*
X214525848Y-96639874D01*
X214527857Y-96583580D01*
X212470706Y-96032369D01*
X211841521Y-96032369D01*
X211837193Y-96001218D01*
X211811662Y-95755615D01*
X211788224Y-95388001D01*
X211784875Y-95248562D01*
X211784981Y-95248615D01*
G37*
G36*
X211356406Y-92852081D02*
G01*
X212453535Y-93653483D01*
X211356406Y-93866900D01*
X211356406Y-94705292D01*
X210499255Y-94475637D01*
X210499255Y-92493753D01*
X211356406Y-92493753D01*
X211356406Y-92852081D01*
G37*
D10*
X73000000Y-120000000D02*
X224500000Y-120000000D01*
X210500000Y-92500000D02*
X216500000Y-92500000D01*
X216500000Y-98500000D01*
X210500000Y-98500000D01*
X210500000Y-92500000D01*
D11*
G36*
X154211121Y-107685107D02*
G01*
X154297309Y-107691532D01*
X154382763Y-107702158D01*
X154467341Y-107716928D01*
X154550900Y-107735782D01*
X154633295Y-107758659D01*
X154714384Y-107785501D01*
X154794023Y-107816249D01*
X154872067Y-107850842D01*
X154948376Y-107889222D01*
X155022803Y-107931328D01*
X155095207Y-107977102D01*
X155165443Y-108026484D01*
X155233369Y-108079415D01*
X155298840Y-108135835D01*
X155361714Y-108195685D01*
X155421545Y-108258576D01*
X155477945Y-108324063D01*
X155530856Y-108392004D01*
X155580217Y-108462255D01*
X155625970Y-108534671D01*
X155668055Y-108609111D01*
X155706413Y-108685430D01*
X155740983Y-108763485D01*
X155771708Y-108843133D01*
X155798527Y-108924229D01*
X155821381Y-109006632D01*
X155840210Y-109090196D01*
X155854956Y-109174779D01*
X155865559Y-109260238D01*
X155871958Y-109346428D01*
X155874096Y-109433206D01*
X155871820Y-109523222D01*
X155865065Y-109612058D01*
X155853940Y-109699603D01*
X155838556Y-109785749D01*
X155819022Y-109870384D01*
X155795448Y-109953400D01*
X155767945Y-110034685D01*
X155736622Y-110114131D01*
X155701588Y-110191627D01*
X155662955Y-110267062D01*
X155620831Y-110340329D01*
X155575327Y-110411315D01*
X155526552Y-110479912D01*
X155474617Y-110546009D01*
X155419631Y-110609496D01*
X155361704Y-110670264D01*
X155300946Y-110728202D01*
X155237467Y-110783201D01*
X155171377Y-110835151D01*
X155102785Y-110883941D01*
X155031802Y-110929461D01*
X154958537Y-110971603D01*
X154883101Y-111010255D01*
X154805602Y-111045308D01*
X154726152Y-111076652D01*
X154644860Y-111104176D01*
X154561836Y-111127772D01*
X154477189Y-111147328D01*
X154391030Y-111162736D01*
X154303468Y-111173885D01*
X154214614Y-111180664D01*
X154124577Y-111182965D01*
X154037757Y-111180828D01*
X153951531Y-111174428D01*
X153866041Y-111163826D01*
X153781432Y-111149080D01*
X153697845Y-111130251D01*
X153615424Y-111107397D01*
X153534312Y-111080579D01*
X153454652Y-111049854D01*
X153376587Y-111015283D01*
X153300261Y-110976926D01*
X153225816Y-110934840D01*
X153153396Y-110889087D01*
X153083143Y-110839725D01*
X153015201Y-110786814D01*
X152949713Y-110730413D01*
X152886822Y-110670581D01*
X152826972Y-110607707D01*
X152770551Y-110542236D01*
X152717620Y-110474310D01*
X152668238Y-110404074D01*
X152622464Y-110331670D01*
X152580357Y-110257243D01*
X152541978Y-110180935D01*
X152507385Y-110102889D01*
X152476638Y-110023251D01*
X152449796Y-109942162D01*
X152426918Y-109859766D01*
X152408065Y-109776207D01*
X152393295Y-109691628D01*
X152382668Y-109606173D01*
X152376244Y-109519984D01*
X152374081Y-109433206D01*
X152376233Y-109346365D01*
X152382648Y-109260120D01*
X152393267Y-109174612D01*
X152408031Y-109089986D01*
X152426880Y-109006384D01*
X152449754Y-108923950D01*
X152476595Y-108842827D01*
X152507343Y-108763158D01*
X152541938Y-108685085D01*
X152580320Y-108608753D01*
X152622431Y-108534304D01*
X152668211Y-108461882D01*
X152717600Y-108391629D01*
X152770539Y-108323689D01*
X152826969Y-108258205D01*
X152886830Y-108195320D01*
X152949733Y-108135477D01*
X153015233Y-108079067D01*
X153083188Y-108026148D01*
X153153453Y-107976780D01*
X153225885Y-107931022D01*
X153300341Y-107888934D01*
X153376676Y-107850574D01*
X153454748Y-107816003D01*
X153534413Y-107785280D01*
X153615527Y-107758463D01*
X153697946Y-107735614D01*
X153781528Y-107716790D01*
X153866129Y-107702052D01*
X153951605Y-107691459D01*
X154037812Y-107685070D01*
X154124480Y-107682948D01*
X154211121Y-107685107D01*
G37*
D10*
X226500000Y-118000000D02*
X226500000Y-93500000D01*
X224500000Y-91500000D02*
G75*
G02*
X226500000Y-93500000I0J-2000000D01*
G01*
D11*
G36*
X215213582Y-92953100D02*
G01*
X215213582Y-93553100D01*
X213349288Y-93053589D01*
X214865362Y-94252663D01*
X212952860Y-94533071D01*
X215213582Y-95138839D01*
X215213582Y-95738838D01*
X211785086Y-94820146D01*
X211785086Y-94220146D01*
X213499387Y-93886636D01*
X211785086Y-92634433D01*
X211784981Y-92493753D01*
X213499282Y-92493753D01*
X215213582Y-92953100D01*
G37*
D10*
X226500000Y-118000000D02*
G75*
G02*
X224500000Y-120000000I-2000000J0D01*
G01*
D11*
G36*
X144961594Y-107683935D02*
G01*
X144961597Y-107683940D01*
X144961602Y-107683951D01*
X144961603Y-107683954D01*
X144961605Y-107683957D01*
X144961607Y-107683962D01*
X144961607Y-107683965D01*
X144961608Y-107683967D01*
X144961609Y-107683970D01*
X144961609Y-107683973D01*
X144961609Y-107683975D01*
X144961609Y-107683978D01*
X144967903Y-107684205D01*
X144974216Y-107684523D01*
X144980544Y-107684937D01*
X144986883Y-107685452D01*
X144993227Y-107686074D01*
X144999573Y-107686808D01*
X145005917Y-107687657D01*
X145012253Y-107688629D01*
X145037041Y-107693225D01*
X145060967Y-107698758D01*
X145084059Y-107705204D01*
X145106346Y-107712537D01*
X145127857Y-107720732D01*
X145148619Y-107729764D01*
X145168661Y-107739607D01*
X145188013Y-107750236D01*
X145206702Y-107761626D01*
X145224756Y-107773751D01*
X145242205Y-107786587D01*
X145259077Y-107800107D01*
X145275400Y-107814287D01*
X145291203Y-107829101D01*
X145321362Y-107860532D01*
X145349783Y-107894197D01*
X145376693Y-107929893D01*
X145402320Y-107967419D01*
X145426892Y-108006571D01*
X145450638Y-108047149D01*
X145473784Y-108088949D01*
X145519192Y-108175407D01*
X145563880Y-108266152D01*
X145607662Y-108362477D01*
X145650668Y-108463882D01*
X145693032Y-108569866D01*
X145734886Y-108679931D01*
X145776361Y-108793576D01*
X145858704Y-109029609D01*
X146021701Y-109515844D01*
X146102112Y-109752791D01*
X146181679Y-109976839D01*
X146221321Y-110082003D01*
X146260924Y-110181683D01*
X146300095Y-110274966D01*
X146338441Y-110360939D01*
X146375569Y-110438689D01*
X146411085Y-110507304D01*
X146444596Y-110565870D01*
X146475708Y-110613476D01*
X146479328Y-110618499D01*
X146482563Y-110622865D01*
X146485457Y-110626640D01*
X146488049Y-110629888D01*
X146490383Y-110632676D01*
X146492498Y-110635069D01*
X146494439Y-110637133D01*
X146496244Y-110638934D01*
X146510849Y-110651716D01*
X146514235Y-110647438D01*
X146519113Y-110641668D01*
X146532996Y-110625337D01*
X146541824Y-110614619D01*
X146551793Y-110602095D01*
X146562814Y-110587687D01*
X146574800Y-110571315D01*
X146587661Y-110552902D01*
X146601310Y-110532369D01*
X146615659Y-110509637D01*
X146630620Y-110484628D01*
X146646105Y-110457264D01*
X146654015Y-110442674D01*
X146662024Y-110427465D01*
X146670120Y-110411629D01*
X146678291Y-110395154D01*
X146686527Y-110378032D01*
X146694817Y-110360252D01*
X146732667Y-110274570D01*
X146771130Y-110181542D01*
X146810121Y-110082003D01*
X146849556Y-109976789D01*
X146889351Y-109866733D01*
X146929419Y-109752670D01*
X147010041Y-109515866D01*
X147064297Y-109353084D01*
X147068508Y-109341419D01*
X147073270Y-109330026D01*
X147078568Y-109318922D01*
X147084388Y-109308124D01*
X147090716Y-109297649D01*
X147097537Y-109287513D01*
X147104836Y-109277734D01*
X147112599Y-109268327D01*
X147120812Y-109259310D01*
X147129459Y-109250700D01*
X147138527Y-109242513D01*
X147148001Y-109234765D01*
X147157866Y-109227475D01*
X147168108Y-109220658D01*
X147178712Y-109214332D01*
X147189663Y-109208512D01*
X147200890Y-109203242D01*
X147212314Y-109198555D01*
X147223913Y-109194451D01*
X147235664Y-109190933D01*
X147247547Y-109188002D01*
X147259537Y-109185659D01*
X147271615Y-109183907D01*
X147283756Y-109182746D01*
X147295940Y-109182179D01*
X147308144Y-109182207D01*
X147320345Y-109182831D01*
X147332523Y-109184053D01*
X147344654Y-109185875D01*
X147356716Y-109188298D01*
X147368688Y-109191324D01*
X147380547Y-109194954D01*
X147392213Y-109199165D01*
X147403607Y-109203928D01*
X147414711Y-109209226D01*
X147425509Y-109215047D01*
X147435984Y-109221376D01*
X147446120Y-109228197D01*
X147455900Y-109235497D01*
X147465306Y-109243260D01*
X147474323Y-109251474D01*
X147482933Y-109260121D01*
X147491120Y-109269190D01*
X147498867Y-109278664D01*
X147506158Y-109288529D01*
X147512974Y-109298771D01*
X147519301Y-109309375D01*
X147525120Y-109320327D01*
X147530391Y-109331554D01*
X147535079Y-109342978D01*
X147539183Y-109354576D01*
X147542701Y-109366328D01*
X147545632Y-109378210D01*
X147547975Y-109390201D01*
X147549727Y-109402278D01*
X147550888Y-109414419D01*
X147551455Y-109426603D01*
X147551427Y-109438806D01*
X147550802Y-109451008D01*
X147549580Y-109463185D01*
X147547758Y-109475316D01*
X147545334Y-109487378D01*
X147542308Y-109499350D01*
X147538678Y-109511208D01*
X147483902Y-109674506D01*
X147402091Y-109915656D01*
X147319603Y-110148358D01*
X147277868Y-110260027D01*
X147235677Y-110367765D01*
X147192935Y-110470968D01*
X147149548Y-110569030D01*
X147106346Y-110661994D01*
X147063184Y-110749680D01*
X147041069Y-110791393D01*
X147018306Y-110831606D01*
X146994675Y-110870258D01*
X146969955Y-110907290D01*
X146943929Y-110942641D01*
X146916375Y-110976252D01*
X146887075Y-111008061D01*
X146855809Y-111038009D01*
X146822357Y-111066036D01*
X146786500Y-111092082D01*
X146748018Y-111116085D01*
X146706692Y-111137987D01*
X146706177Y-111137987D01*
X146684222Y-111147769D01*
X146661453Y-111156202D01*
X146637991Y-111163296D01*
X146613959Y-111169058D01*
X146589477Y-111173497D01*
X146564667Y-111176622D01*
X146539652Y-111178441D01*
X146514553Y-111178963D01*
X146489491Y-111178197D01*
X146464589Y-111176150D01*
X146439967Y-111172832D01*
X146415749Y-111168251D01*
X146392055Y-111162416D01*
X146369007Y-111155335D01*
X146346727Y-111147017D01*
X146325337Y-111137471D01*
X146304833Y-111126975D01*
X146285106Y-111115816D01*
X146266117Y-111104018D01*
X146247826Y-111091604D01*
X146230194Y-111078599D01*
X146213182Y-111065026D01*
X146196751Y-111050910D01*
X146180860Y-111036275D01*
X146165472Y-111021144D01*
X146150546Y-111005542D01*
X146136044Y-110989493D01*
X146121925Y-110973020D01*
X146108151Y-110956149D01*
X146094683Y-110938902D01*
X146081480Y-110921304D01*
X146068505Y-110903379D01*
X146043111Y-110866472D01*
X146018365Y-110828048D01*
X145994218Y-110788139D01*
X145970619Y-110746777D01*
X145947521Y-110703994D01*
X145924875Y-110659824D01*
X145880740Y-110567449D01*
X145837823Y-110469909D01*
X145795731Y-110367465D01*
X145754073Y-110260375D01*
X145712456Y-110148897D01*
X145629512Y-109915740D01*
X145547399Y-109674360D01*
X145385353Y-109191349D01*
X145305186Y-108962307D01*
X145265399Y-108853740D01*
X145225990Y-108750271D01*
X145187090Y-108652748D01*
X145148835Y-108562018D01*
X145111358Y-108478927D01*
X145074791Y-108404324D01*
X145061253Y-108378748D01*
X145048216Y-108355468D01*
X145035727Y-108334376D01*
X145023835Y-108315366D01*
X145012587Y-108298330D01*
X145002032Y-108283161D01*
X144983190Y-108257994D01*
X144967692Y-108239006D01*
X144955919Y-108225340D01*
X144948256Y-108216137D01*
X144946084Y-108212941D01*
X144945084Y-108210539D01*
X144937020Y-108218720D01*
X144928341Y-108227863D01*
X144923762Y-108232887D01*
X144919020Y-108238258D01*
X144914111Y-108244015D01*
X144909032Y-108250192D01*
X144903780Y-108256825D01*
X144898351Y-108263951D01*
X144892742Y-108271605D01*
X144886950Y-108279824D01*
X144880971Y-108288642D01*
X144874803Y-108298097D01*
X144868443Y-108308224D01*
X144861885Y-108319060D01*
X144844833Y-108348720D01*
X144827391Y-108380920D01*
X144791453Y-108452503D01*
X144754294Y-108532926D01*
X144716138Y-108621311D01*
X144677211Y-108716775D01*
X144637736Y-108818439D01*
X144597936Y-108925422D01*
X144558037Y-109036844D01*
X144232995Y-109994921D01*
X144191653Y-110110938D01*
X144150238Y-110223407D01*
X144108519Y-110331942D01*
X144066266Y-110436157D01*
X144023247Y-110535667D01*
X143979232Y-110630086D01*
X143933990Y-110719028D01*
X143887291Y-110802107D01*
X143863278Y-110841466D01*
X143838699Y-110879310D01*
X143826124Y-110897654D01*
X143813319Y-110915608D01*
X143800255Y-110933168D01*
X143786901Y-110950331D01*
X143773229Y-110967092D01*
X143759209Y-110983449D01*
X143744811Y-110999397D01*
X143730006Y-111014933D01*
X143714764Y-111030053D01*
X143699056Y-111044753D01*
X143682852Y-111059030D01*
X143666123Y-111072880D01*
X143648632Y-111086283D01*
X143630203Y-111099162D01*
X143610896Y-111111433D01*
X143590772Y-111123013D01*
X143569891Y-111133819D01*
X143548312Y-111143768D01*
X143526098Y-111152777D01*
X143503307Y-111160761D01*
X143480000Y-111167638D01*
X143456238Y-111173325D01*
X143432081Y-111177738D01*
X143407589Y-111180794D01*
X143382823Y-111182410D01*
X143357842Y-111182502D01*
X143332708Y-111180987D01*
X143307480Y-111177782D01*
X143282603Y-111173049D01*
X143258590Y-111167074D01*
X143235415Y-111159929D01*
X143213053Y-111151687D01*
X143191479Y-111142419D01*
X143170668Y-111132197D01*
X143150594Y-111121093D01*
X143131234Y-111109178D01*
X143112560Y-111096524D01*
X143094549Y-111083204D01*
X143077175Y-111069288D01*
X143060412Y-111054849D01*
X143044237Y-111039959D01*
X143028622Y-111024689D01*
X143013545Y-111009111D01*
X142998978Y-110993297D01*
X142984820Y-110977208D01*
X142970976Y-110960753D01*
X142957427Y-110943932D01*
X142944155Y-110926743D01*
X142931144Y-110909182D01*
X142918374Y-110891249D01*
X142905828Y-110872941D01*
X142893488Y-110854257D01*
X142869354Y-110815750D01*
X142845828Y-110775714D01*
X142822767Y-110734131D01*
X142800026Y-110690986D01*
X142755317Y-110600226D01*
X142711525Y-110503838D01*
X142668515Y-110402340D01*
X142626154Y-110296247D01*
X142584308Y-110186076D01*
X142542841Y-110072342D01*
X142460511Y-109836254D01*
X142297510Y-109350078D01*
X142217098Y-109113132D01*
X142137536Y-108889025D01*
X142097909Y-108783872D01*
X142058333Y-108684236D01*
X142019192Y-108591012D01*
X141980871Y-108505093D01*
X141943756Y-108427377D01*
X141908233Y-108358757D01*
X141874688Y-108300129D01*
X141843506Y-108252388D01*
X141839847Y-108247313D01*
X141836569Y-108242906D01*
X141833631Y-108239102D01*
X141830993Y-108235833D01*
X141828614Y-108233033D01*
X141826453Y-108230636D01*
X141824469Y-108228574D01*
X141822622Y-108226782D01*
X141820870Y-108225192D01*
X141819173Y-108223739D01*
X141815780Y-108220974D01*
X141812116Y-108217954D01*
X141810080Y-108216182D01*
X141807854Y-108214148D01*
X141804562Y-108218390D01*
X141799765Y-108224135D01*
X141786014Y-108240441D01*
X141777237Y-108251157D01*
X141767311Y-108263685D01*
X141756325Y-108278102D01*
X141744367Y-108294485D01*
X141731527Y-108312911D01*
X141717893Y-108333459D01*
X141703555Y-108356204D01*
X141688600Y-108381226D01*
X141673118Y-108408599D01*
X141665207Y-108423193D01*
X141657198Y-108438403D01*
X141649101Y-108454241D01*
X141640928Y-108470715D01*
X141632690Y-108487835D01*
X141624398Y-108505611D01*
X141586575Y-108591260D01*
X141548128Y-108684321D01*
X141509143Y-108783941D01*
X141469707Y-108889266D01*
X141429906Y-108999440D01*
X141389826Y-109113612D01*
X141309174Y-109350527D01*
X141146274Y-109835829D01*
X141063656Y-110072190D01*
X141021971Y-110186293D01*
X140980004Y-110296724D01*
X140980004Y-110297242D01*
X140938048Y-110403193D01*
X140896146Y-110503967D01*
X140853621Y-110599455D01*
X140809796Y-110689550D01*
X140787184Y-110732541D01*
X140763994Y-110774143D01*
X140740140Y-110814342D01*
X140715538Y-110853126D01*
X140690103Y-110890480D01*
X140663751Y-110926392D01*
X140636397Y-110960847D01*
X140607956Y-110993832D01*
X140593131Y-111009873D01*
X140577770Y-111025597D01*
X140561859Y-111040939D01*
X140545388Y-111055837D01*
X140528343Y-111070226D01*
X140510712Y-111084044D01*
X140492483Y-111097226D01*
X140473644Y-111109708D01*
X140454181Y-111121428D01*
X140434083Y-111132322D01*
X140413337Y-111142326D01*
X140391930Y-111151376D01*
X140369851Y-111159408D01*
X140347087Y-111166360D01*
X140323625Y-111172168D01*
X140299454Y-111176767D01*
X140274882Y-111179914D01*
X140250276Y-111181454D01*
X140225705Y-111181457D01*
X140201238Y-111179992D01*
X140176944Y-111177130D01*
X140152891Y-111172941D01*
X140129149Y-111167494D01*
X140105786Y-111160860D01*
X140082872Y-111153107D01*
X140060475Y-111144307D01*
X140038664Y-111134529D01*
X140017509Y-111123843D01*
X139997078Y-111112319D01*
X139977440Y-111100026D01*
X139958664Y-111087036D01*
X139940819Y-111073416D01*
X139907059Y-111044800D01*
X139875151Y-111014640D01*
X139844951Y-110982949D01*
X139816313Y-110949739D01*
X139789089Y-110915023D01*
X139763136Y-110878813D01*
X139738306Y-110841122D01*
X139714455Y-110801962D01*
X139691436Y-110761345D01*
X139669103Y-110719284D01*
X139647311Y-110675791D01*
X139625913Y-110630878D01*
X139583718Y-110536844D01*
X139541352Y-110437282D01*
X139498817Y-110332635D01*
X139456719Y-110223512D01*
X139415001Y-110110581D01*
X139373604Y-109994514D01*
X139291548Y-109755649D01*
X139210091Y-109512278D01*
X139206460Y-109500419D01*
X139203434Y-109488447D01*
X139201010Y-109476385D01*
X139199188Y-109464254D01*
X139197965Y-109452077D01*
X139197341Y-109439875D01*
X139197314Y-109427672D01*
X139197881Y-109415488D01*
X139199042Y-109403347D01*
X139200795Y-109391270D01*
X139203137Y-109379279D01*
X139206069Y-109367397D01*
X139209587Y-109355645D01*
X139213691Y-109344047D01*
X139218379Y-109332623D01*
X139223649Y-109321396D01*
X139229468Y-109310444D01*
X139235795Y-109299840D01*
X139242612Y-109289598D01*
X139249902Y-109279733D01*
X139257650Y-109270259D01*
X139265837Y-109261190D01*
X139274448Y-109252542D01*
X139283465Y-109244329D01*
X139292871Y-109236566D01*
X139302651Y-109229266D01*
X139312787Y-109222444D01*
X139323261Y-109216116D01*
X139334059Y-109210295D01*
X139345162Y-109204996D01*
X139356554Y-109200234D01*
X139368218Y-109196023D01*
X139380078Y-109192392D01*
X139392050Y-109189367D01*
X139404113Y-109186943D01*
X139416244Y-109185121D01*
X139428422Y-109183899D01*
X139440624Y-109183275D01*
X139452828Y-109183247D01*
X139465012Y-109183814D01*
X139477154Y-109184974D01*
X139489231Y-109186727D01*
X139501222Y-109189069D01*
X139513104Y-109192000D01*
X139524856Y-109195518D01*
X139536455Y-109199622D01*
X139547879Y-109204309D01*
X139559105Y-109209579D01*
X139570058Y-109215399D01*
X139580663Y-109221726D01*
X139590906Y-109228543D01*
X139600772Y-109235833D01*
X139610246Y-109243580D01*
X139619314Y-109251768D01*
X139627962Y-109260378D01*
X139636175Y-109269395D01*
X139643938Y-109278802D01*
X139651237Y-109288581D01*
X139658058Y-109298717D01*
X139664386Y-109309193D01*
X139670207Y-109319991D01*
X139675506Y-109331094D01*
X139680268Y-109342488D01*
X139684479Y-109354153D01*
X139765502Y-109595901D01*
X139845825Y-109829352D01*
X139925053Y-110047796D01*
X139964134Y-110149294D01*
X140002793Y-110244524D01*
X140020838Y-110286484D01*
X140038882Y-110326391D01*
X140074583Y-110399955D01*
X140109133Y-110465025D01*
X140141770Y-110521413D01*
X140171730Y-110568930D01*
X140198251Y-110607389D01*
X140220569Y-110636599D01*
X140237923Y-110656372D01*
X140250126Y-110641690D01*
X140263376Y-110623966D01*
X140277593Y-110603307D01*
X140292696Y-110579817D01*
X140308605Y-110553604D01*
X140325240Y-110524774D01*
X140342521Y-110493432D01*
X140360368Y-110459684D01*
X140378700Y-110423637D01*
X140397438Y-110385396D01*
X140416500Y-110345068D01*
X140435807Y-110302759D01*
X140455278Y-110258575D01*
X140474834Y-110212622D01*
X140494394Y-110165005D01*
X140513878Y-110115832D01*
X140553150Y-110012436D01*
X140592762Y-109903915D01*
X140672845Y-109674797D01*
X140835297Y-109191356D01*
X140917118Y-108950224D01*
X140999614Y-108717493D01*
X141041351Y-108605809D01*
X141083540Y-108498063D01*
X141126274Y-108394866D01*
X141169648Y-108296831D01*
X141212828Y-108203928D01*
X141255954Y-108116269D01*
X141278052Y-108074559D01*
X141300802Y-108034344D01*
X141324427Y-107995685D01*
X141349148Y-107958643D01*
X141375188Y-107923279D01*
X141402769Y-107889655D01*
X141432112Y-107857832D01*
X141463440Y-107827872D01*
X141496974Y-107799834D01*
X141532937Y-107773781D01*
X141571551Y-107749774D01*
X141613038Y-107727874D01*
X141634955Y-107718150D01*
X141657695Y-107709761D01*
X141681135Y-107702699D01*
X141705154Y-107696958D01*
X141729628Y-107692531D01*
X141754435Y-107689409D01*
X141779452Y-107687585D01*
X141804558Y-107687053D01*
X141829630Y-107687805D01*
X141854544Y-107689832D01*
X141879180Y-107693129D01*
X141903413Y-107697688D01*
X141927123Y-107703500D01*
X141950186Y-107710560D01*
X141972480Y-107718859D01*
X141993882Y-107728391D01*
X142014394Y-107738873D01*
X142034126Y-107750019D01*
X142053118Y-107761804D01*
X142071409Y-107774205D01*
X142089039Y-107787198D01*
X142106048Y-107800760D01*
X142122475Y-107814867D01*
X142138360Y-107829496D01*
X142153744Y-107844623D01*
X142168665Y-107860225D01*
X142183164Y-107876278D01*
X142197280Y-107892758D01*
X142211053Y-107909643D01*
X142224522Y-107926908D01*
X142237728Y-107944530D01*
X142250710Y-107962485D01*
X142276067Y-107999379D01*
X142300785Y-108037789D01*
X142324912Y-108077684D01*
X142348497Y-108119032D01*
X142371588Y-108161802D01*
X142394234Y-108205961D01*
X142438379Y-108298320D01*
X142481318Y-108395855D01*
X142523438Y-108498311D01*
X142565123Y-108605433D01*
X142606759Y-108716967D01*
X142689679Y-108950139D01*
X142771798Y-109191524D01*
X142933861Y-109674515D01*
X143014051Y-109903598D01*
X143053848Y-110012201D01*
X143093266Y-110115702D01*
X143132169Y-110213244D01*
X143170421Y-110303969D01*
X143207887Y-110387020D01*
X143244431Y-110461541D01*
X143262319Y-110495299D01*
X143279888Y-110526625D01*
X143296994Y-110555428D01*
X143313492Y-110581618D01*
X143329238Y-110605103D01*
X143344087Y-110625793D01*
X143357894Y-110643598D01*
X143370514Y-110658427D01*
X143371033Y-110658943D01*
X143379231Y-110650707D01*
X143388140Y-110641411D01*
X143392866Y-110636273D01*
X143397774Y-110630759D01*
X143402868Y-110624832D01*
X143408148Y-110618455D01*
X143413617Y-110611591D01*
X143419277Y-110604203D01*
X143425129Y-110596255D01*
X143431175Y-110587708D01*
X143437417Y-110578527D01*
X143443857Y-110568674D01*
X143450496Y-110558113D01*
X143457337Y-110546806D01*
X143474411Y-110517087D01*
X143491869Y-110484844D01*
X143527828Y-110413218D01*
X143564991Y-110332794D01*
X143603140Y-110244439D01*
X143642054Y-110149018D01*
X143681512Y-110047397D01*
X143721293Y-109940443D01*
X143761177Y-109829021D01*
X144086220Y-108870944D01*
X144127553Y-108754965D01*
X144168954Y-108642514D01*
X144210659Y-108533981D01*
X144252901Y-108429757D01*
X144295914Y-108330233D01*
X144339933Y-108235798D01*
X144385191Y-108146843D01*
X144431923Y-108063758D01*
X144432434Y-108063758D01*
X144456419Y-108024471D01*
X144480940Y-107986713D01*
X144493479Y-107968415D01*
X144506244Y-107950506D01*
X144519266Y-107932991D01*
X144532575Y-107915871D01*
X144546203Y-107899150D01*
X144560180Y-107882830D01*
X144574537Y-107866914D01*
X144589304Y-107851404D01*
X144604513Y-107836304D01*
X144620193Y-107821616D01*
X144636376Y-107807343D01*
X144653092Y-107793487D01*
X144668338Y-107781725D01*
X144684309Y-107770357D01*
X144700965Y-107759438D01*
X144718266Y-107749025D01*
X144736172Y-107739174D01*
X144754643Y-107729940D01*
X144773638Y-107721381D01*
X144793118Y-107713551D01*
X144813042Y-107706508D01*
X144833371Y-107700307D01*
X144854065Y-107695005D01*
X144875082Y-107690657D01*
X144896384Y-107687320D01*
X144917930Y-107685050D01*
X144939680Y-107683903D01*
X144961594Y-107683935D01*
G37*
D10*
X210000000Y-92000000D02*
X217000000Y-92000000D01*
X217000000Y-99000000D01*
X210000000Y-99000000D01*
X210000000Y-92000000D01*
X88000000Y-91500000D02*
X88000000Y-120000000D01*
X80000000Y-91500000D02*
X80000000Y-120000000D01*
X88000000Y-104500000D02*
X209500000Y-104500000D01*
D11*
G36*
X144224333Y-113134193D02*
G01*
X144249551Y-113136773D01*
X144273941Y-113141073D01*
X144297504Y-113147093D01*
X144320239Y-113154833D01*
X144342147Y-113164293D01*
X144363228Y-113175473D01*
X144383482Y-113188372D01*
X144402908Y-113202992D01*
X144421507Y-113219331D01*
X144439280Y-113237391D01*
X144456225Y-113257170D01*
X144472343Y-113278669D01*
X144487634Y-113301888D01*
X144502099Y-113326826D01*
X144515736Y-113353485D01*
X144528547Y-113381863D01*
X144540530Y-113411960D01*
X144551688Y-113443778D01*
X144562018Y-113477315D01*
X144571521Y-113512572D01*
X144580199Y-113549548D01*
X144588049Y-113588244D01*
X144595073Y-113628660D01*
X144601270Y-113670795D01*
X144606641Y-113714649D01*
X144611186Y-113760224D01*
X144614904Y-113807517D01*
X144617796Y-113856530D01*
X144619861Y-113907263D01*
X144621101Y-113959715D01*
X144621514Y-114013887D01*
X144514542Y-114013887D01*
X144514300Y-113996378D01*
X144513575Y-113979129D01*
X144512367Y-113962142D01*
X144510674Y-113945416D01*
X144508498Y-113928952D01*
X144505836Y-113912751D01*
X144502691Y-113896813D01*
X144499060Y-113881139D01*
X144494944Y-113865730D01*
X144490343Y-113850586D01*
X144485257Y-113835708D01*
X144479684Y-113821096D01*
X144473625Y-113806752D01*
X144467080Y-113792675D01*
X144460049Y-113778866D01*
X144452530Y-113765326D01*
X144443817Y-113751659D01*
X144439275Y-113745158D01*
X144434610Y-113738878D01*
X144429823Y-113732820D01*
X144424913Y-113726984D01*
X144419880Y-113721369D01*
X144414725Y-113715975D01*
X144409447Y-113710802D01*
X144404047Y-113705850D01*
X144398526Y-113701119D01*
X144392882Y-113696609D01*
X144387116Y-113692320D01*
X144381229Y-113688252D01*
X144375221Y-113684405D01*
X144369091Y-113680777D01*
X144362839Y-113677371D01*
X144356467Y-113674185D01*
X144349973Y-113671219D01*
X144343359Y-113668473D01*
X144336624Y-113665948D01*
X144329768Y-113663642D01*
X144322792Y-113661557D01*
X144315696Y-113659691D01*
X144308479Y-113658045D01*
X144301143Y-113656619D01*
X144293686Y-113655413D01*
X144286110Y-113654426D01*
X144278414Y-113653659D01*
X144270598Y-113653111D01*
X144254609Y-113652672D01*
X144237274Y-113653366D01*
X144219843Y-113655449D01*
X144202314Y-113658920D01*
X144184688Y-113663779D01*
X144166964Y-113670027D01*
X144149142Y-113677663D01*
X144131222Y-113686688D01*
X144113205Y-113697101D01*
X144095089Y-113708903D01*
X144076875Y-113722094D01*
X144058562Y-113736674D01*
X144040151Y-113752642D01*
X144021642Y-113769999D01*
X144003033Y-113788746D01*
X143984326Y-113808881D01*
X143965519Y-113830405D01*
X143946614Y-113853318D01*
X143927609Y-113877620D01*
X143889301Y-113930392D01*
X143850595Y-113988722D01*
X143811488Y-114052608D01*
X143771982Y-114122052D01*
X143732073Y-114197055D01*
X143691762Y-114277616D01*
X143651047Y-114363736D01*
X143574307Y-114534467D01*
X143507779Y-114693885D01*
X143451471Y-114841999D01*
X143405387Y-114978816D01*
X143386182Y-115042991D01*
X143369534Y-115104345D01*
X143355446Y-115162878D01*
X143343918Y-115218593D01*
X143334950Y-115271489D01*
X143328544Y-115321568D01*
X143324700Y-115368831D01*
X143323418Y-115413279D01*
X143323705Y-115422122D01*
X143324565Y-115431716D01*
X143325998Y-115442061D01*
X143328004Y-115453157D01*
X143330584Y-115465004D01*
X143333737Y-115477601D01*
X143337463Y-115490948D01*
X143341763Y-115505046D01*
X143346636Y-115519892D01*
X143352082Y-115535489D01*
X143358101Y-115551834D01*
X143364694Y-115568928D01*
X143371860Y-115586771D01*
X143379599Y-115605362D01*
X143396798Y-115644788D01*
X143413816Y-115685813D01*
X143431009Y-115729859D01*
X143448378Y-115776920D01*
X143465922Y-115826988D01*
X143483643Y-115880054D01*
X143501541Y-115936111D01*
X143519618Y-115995151D01*
X143537873Y-116057166D01*
X143553747Y-116122687D01*
X143567501Y-116189431D01*
X143579137Y-116257402D01*
X143588655Y-116326602D01*
X143596056Y-116397037D01*
X143601341Y-116468708D01*
X143604512Y-116541621D01*
X143605568Y-116615778D01*
X143605304Y-116633326D01*
X143604512Y-116650693D01*
X143603191Y-116667879D01*
X143601341Y-116684886D01*
X143598963Y-116701713D01*
X143596056Y-116718363D01*
X143592620Y-116734834D01*
X143588655Y-116751129D01*
X143584161Y-116767247D01*
X143579137Y-116783190D01*
X143573584Y-116798957D01*
X143567501Y-116814550D01*
X143560889Y-116829970D01*
X143553747Y-116845216D01*
X143546075Y-116860290D01*
X143537873Y-116875192D01*
X143529165Y-116890233D01*
X143519975Y-116904312D01*
X143510303Y-116917426D01*
X143500148Y-116929576D01*
X143494890Y-116935289D01*
X143489510Y-116940760D01*
X143484010Y-116945989D01*
X143478388Y-116950977D01*
X143472646Y-116955722D01*
X143466783Y-116960226D01*
X143460798Y-116964487D01*
X143454692Y-116968505D01*
X143448465Y-116972282D01*
X143442117Y-116975815D01*
X143435647Y-116979106D01*
X143429056Y-116982154D01*
X143422343Y-116984958D01*
X143415509Y-116987520D01*
X143408553Y-116989838D01*
X143401476Y-116991913D01*
X143394277Y-116993744D01*
X143386956Y-116995331D01*
X143379513Y-116996675D01*
X143371948Y-116997775D01*
X143364262Y-116998630D01*
X143356453Y-116999241D01*
X143340470Y-116999730D01*
X143321750Y-116999264D01*
X143303692Y-116997864D01*
X143286295Y-116995533D01*
X143269560Y-116992272D01*
X143253485Y-116988080D01*
X143238072Y-116982960D01*
X143223321Y-116976911D01*
X143209231Y-116969936D01*
X143195802Y-116962035D01*
X143183035Y-116953208D01*
X143170929Y-116943458D01*
X143159485Y-116932784D01*
X143148702Y-116921188D01*
X143138581Y-116908671D01*
X143129122Y-116895233D01*
X143120324Y-116880876D01*
X143111438Y-116865883D01*
X143103125Y-116850540D01*
X143095386Y-116834844D01*
X143088220Y-116818798D01*
X143081627Y-116802399D01*
X143075608Y-116785648D01*
X143070162Y-116768544D01*
X143065289Y-116751089D01*
X143060989Y-116733280D01*
X143057263Y-116715118D01*
X143054110Y-116696604D01*
X143051530Y-116677736D01*
X143049524Y-116658514D01*
X143048091Y-116638939D01*
X143047231Y-116619009D01*
X143046944Y-116598726D01*
X143048091Y-116498023D01*
X143051530Y-116399108D01*
X143057263Y-116301973D01*
X143065289Y-116206609D01*
X143075608Y-116113009D01*
X143088220Y-116021164D01*
X143103125Y-115931067D01*
X143120324Y-115842710D01*
X143149949Y-115685671D01*
X143171103Y-115564551D01*
X143178505Y-115517481D01*
X143183791Y-115479416D01*
X143186962Y-115450364D01*
X143188019Y-115430333D01*
X143187759Y-115427142D01*
X143186979Y-115423214D01*
X143183860Y-115413147D01*
X143178662Y-115400131D01*
X143171387Y-115384165D01*
X143162035Y-115365248D01*
X143150609Y-115343380D01*
X143137107Y-115318558D01*
X143121532Y-115290784D01*
X143084165Y-115226370D01*
X143038516Y-115150132D01*
X142984592Y-115062062D01*
X142922402Y-114962155D01*
X142789817Y-114747287D01*
X142657300Y-114526045D01*
X142524786Y-114298452D01*
X142392205Y-114064534D01*
X142330015Y-113950676D01*
X142276092Y-113846172D01*
X142230444Y-113751021D01*
X142193078Y-113665220D01*
X142177504Y-113625826D01*
X142164003Y-113588769D01*
X142152577Y-113554048D01*
X142143226Y-113521664D01*
X142135951Y-113491616D01*
X142130754Y-113463905D01*
X142127635Y-113438529D01*
X142126595Y-113415489D01*
X142126842Y-113401490D01*
X142127584Y-113387714D01*
X142128818Y-113374162D01*
X142130544Y-113360833D01*
X142132760Y-113347725D01*
X142135464Y-113334840D01*
X142138657Y-113322176D01*
X142142335Y-113309732D01*
X142146499Y-113297509D01*
X142151147Y-113285507D01*
X142156276Y-113273723D01*
X142161887Y-113262160D01*
X142167978Y-113250814D01*
X142174548Y-113239687D01*
X142181595Y-113228778D01*
X142189118Y-113218087D01*
X142196391Y-113207833D01*
X142200190Y-113202954D01*
X142204098Y-113198240D01*
X142208114Y-113193690D01*
X142212239Y-113189306D01*
X142216473Y-113185087D01*
X142220816Y-113181033D01*
X142225268Y-113177144D01*
X142229830Y-113173420D01*
X142234501Y-113169861D01*
X142239282Y-113166468D01*
X142244172Y-113163240D01*
X142249172Y-113160177D01*
X142254282Y-113157279D01*
X142259502Y-113154547D01*
X142264832Y-113151980D01*
X142270273Y-113149578D01*
X142275824Y-113147342D01*
X142281486Y-113145271D01*
X142287258Y-113143366D01*
X142293142Y-113141626D01*
X142305241Y-113138644D01*
X142317786Y-113136323D01*
X142330777Y-113134666D01*
X142344215Y-113133671D01*
X142358101Y-113133339D01*
X142374152Y-113133671D01*
X142389850Y-113134666D01*
X142405194Y-113136323D01*
X142420185Y-113138644D01*
X142434823Y-113141626D01*
X142449108Y-113145271D01*
X142463039Y-113149578D01*
X142476618Y-113154547D01*
X142489844Y-113160177D01*
X142502718Y-113166468D01*
X142515238Y-113173420D01*
X142527407Y-113181033D01*
X142539222Y-113189306D01*
X142550686Y-113198240D01*
X142561797Y-113207833D01*
X142572556Y-113218087D01*
X142582922Y-113228846D01*
X142592852Y-113239957D01*
X142602347Y-113251421D01*
X142611404Y-113263237D01*
X142620024Y-113275405D01*
X142628206Y-113287926D01*
X142635948Y-113300800D01*
X142643251Y-113314026D01*
X142650112Y-113327605D01*
X142656532Y-113341537D01*
X142662510Y-113355822D01*
X142668044Y-113370460D01*
X142673134Y-113385451D01*
X142677779Y-113400795D01*
X142681978Y-113416493D01*
X142685730Y-113432544D01*
X142686427Y-113440027D01*
X142688521Y-113456837D01*
X142696917Y-113518466D01*
X142710958Y-113617488D01*
X142730683Y-113753958D01*
X142742944Y-113831828D01*
X142757149Y-113910218D01*
X142773296Y-113989131D01*
X142791384Y-114068571D01*
X142811413Y-114148541D01*
X142833381Y-114229042D01*
X142857288Y-114310079D01*
X142883133Y-114391654D01*
X142911966Y-114476510D01*
X142944846Y-114567384D01*
X142981776Y-114664270D01*
X143022759Y-114767161D01*
X143067799Y-114876049D01*
X143116900Y-114990929D01*
X143170064Y-115111793D01*
X143227295Y-115238634D01*
X143238663Y-115238634D01*
X143258361Y-115151040D01*
X143294991Y-114990072D01*
X143338779Y-114800998D01*
X143379746Y-114628865D01*
X143400941Y-114542835D01*
X143424998Y-114448395D01*
X143451878Y-114345487D01*
X143481545Y-114234056D01*
X143497239Y-114175746D01*
X143513282Y-114119352D01*
X143529674Y-114064884D01*
X143546417Y-114012347D01*
X143563513Y-113961750D01*
X143580964Y-113913101D01*
X143598771Y-113866408D01*
X143616936Y-113821678D01*
X143635549Y-113776794D01*
X143654700Y-113732449D01*
X143674387Y-113688640D01*
X143694607Y-113645363D01*
X143715356Y-113602615D01*
X143736631Y-113560392D01*
X143758429Y-113518692D01*
X143780747Y-113477510D01*
X143791417Y-113457339D01*
X143802260Y-113437746D01*
X143813275Y-113418732D01*
X143824464Y-113400294D01*
X143835827Y-113382433D01*
X143847364Y-113365148D01*
X143859076Y-113348438D01*
X143870965Y-113332301D01*
X143883029Y-113316738D01*
X143895270Y-113301747D01*
X143907689Y-113287328D01*
X143920286Y-113273480D01*
X143933062Y-113260202D01*
X143946016Y-113247493D01*
X143959151Y-113235353D01*
X143972466Y-113223781D01*
X143985916Y-113212844D01*
X143999455Y-113202610D01*
X144013084Y-113193079D01*
X144026801Y-113184252D01*
X144040607Y-113176128D01*
X144054502Y-113168710D01*
X144068485Y-113161996D01*
X144082557Y-113155987D01*
X144096717Y-113150684D01*
X144110965Y-113146086D01*
X144125301Y-113142195D01*
X144139725Y-113139011D01*
X144154237Y-113136533D01*
X144168836Y-113134763D01*
X144183522Y-113133701D01*
X144198296Y-113133347D01*
X144198296Y-113133346D01*
X144198296Y-113133345D01*
X144198295Y-113133344D01*
X144198295Y-113133343D01*
X144198294Y-113133343D01*
X144198294Y-113133342D01*
X144198292Y-113133340D01*
X144198291Y-113133338D01*
X144198290Y-113133337D01*
X144198289Y-113133335D01*
X144198288Y-113133334D01*
X144198288Y-113133333D01*
X144224333Y-113134193D01*
G37*
D10*
X73000000Y-120000000D02*
G75*
G02*
X71000000Y-118000000I0J2000000D01*
G01*
X73000000Y-91500000D02*
X224500000Y-91500000D01*
D11*
G36*
X154124608Y-107682945D02*
G01*
X154124480Y-107682948D01*
X154124344Y-107682944D01*
X154124608Y-107682945D01*
G37*
G36*
X162673645Y-108201444D02*
G01*
X162735414Y-108419801D01*
X162793826Y-108639549D01*
X162848863Y-108860641D01*
X162900506Y-109083031D01*
X183407187Y-104499415D01*
X197663123Y-104499415D01*
X197662344Y-104499760D01*
X163070912Y-109978986D01*
X163104541Y-110203050D01*
X163134709Y-110428222D01*
X163161401Y-110654472D01*
X163184601Y-110881765D01*
X209499656Y-106504259D01*
X209499656Y-110336991D01*
X163242810Y-111791159D01*
X163246110Y-111905435D01*
X163248728Y-112019906D01*
X163250454Y-112134594D01*
X163251076Y-112249522D01*
X163250436Y-112362890D01*
X163248681Y-112476026D01*
X163246057Y-112588953D01*
X163242810Y-112701692D01*
X209499656Y-114155860D01*
X209499656Y-117989122D01*
X163184601Y-113610557D01*
X163161517Y-113838112D01*
X163134981Y-114064626D01*
X163104963Y-114290058D01*
X163071431Y-114514368D01*
X197702549Y-119999151D01*
X183433121Y-119999151D01*
X162902096Y-115409713D01*
X162850484Y-115632249D01*
X162795430Y-115853470D01*
X162736995Y-116073342D01*
X162675240Y-116291829D01*
X175435757Y-119999151D01*
X170285145Y-119999151D01*
X162392666Y-117157541D01*
X162313333Y-117371624D01*
X162230662Y-117584020D01*
X162144764Y-117794790D01*
X162055748Y-118003991D01*
X166666348Y-119999203D01*
X163966820Y-119999203D01*
X161667233Y-118827714D01*
X161561893Y-119030119D01*
X161453671Y-119230715D01*
X161342415Y-119429412D01*
X161227971Y-119626116D01*
X161859452Y-119999229D01*
X159804787Y-119999229D01*
X160085965Y-119582491D01*
X160351900Y-119154943D01*
X160602194Y-118716969D01*
X160836445Y-118268954D01*
X161054253Y-117811281D01*
X161255220Y-117344334D01*
X161438945Y-116868499D01*
X161605029Y-116384158D01*
X161753070Y-115891697D01*
X161882671Y-115391499D01*
X161993429Y-114883949D01*
X162084947Y-114369431D01*
X162156823Y-113848329D01*
X162208659Y-113321028D01*
X162240053Y-112787910D01*
X162250607Y-112249362D01*
X162240053Y-111710814D01*
X162208657Y-111177697D01*
X162156821Y-110650397D01*
X162084943Y-110129296D01*
X161993423Y-109614780D01*
X161882662Y-109107231D01*
X161753061Y-108607035D01*
X161605017Y-108114576D01*
X161438933Y-107630236D01*
X161255207Y-107154401D01*
X161054240Y-106687455D01*
X160836432Y-106229781D01*
X160602182Y-105781764D01*
X160351892Y-105343788D01*
X160085960Y-104916237D01*
X159804787Y-104499495D01*
X161852200Y-104499495D01*
X161226410Y-104869486D01*
X161340576Y-105065673D01*
X161451550Y-105263867D01*
X161559504Y-105463955D01*
X161664612Y-105665824D01*
X163953854Y-104499495D01*
X166651261Y-104499495D01*
X162053093Y-106489018D01*
X162142237Y-106698219D01*
X162228277Y-106908989D01*
X162311088Y-107121385D01*
X162390545Y-107335468D01*
X170267411Y-104499415D01*
X175414849Y-104499415D01*
X162673645Y-108201444D01*
G37*
D10*
X217500000Y-91500000D02*
X217500000Y-120000000D01*
D11*
G36*
X154169302Y-112594322D02*
G01*
X154169303Y-112594324D01*
X154169306Y-112594328D01*
X154169311Y-112594336D01*
X154169312Y-112594338D01*
X154169313Y-112594340D01*
X154169316Y-112594345D01*
X154169318Y-112594347D01*
X154169319Y-112594349D01*
X154169321Y-112594351D01*
X154169323Y-112594353D01*
X154209189Y-112594904D01*
X154248356Y-112596556D01*
X154286823Y-112599311D01*
X154324589Y-112603167D01*
X154361653Y-112608125D01*
X154398015Y-112614186D01*
X154433672Y-112621348D01*
X154468625Y-112629613D01*
X154502873Y-112638981D01*
X154536414Y-112649450D01*
X154569248Y-112661023D01*
X154601374Y-112673698D01*
X154632790Y-112687476D01*
X154663496Y-112702357D01*
X154693492Y-112718340D01*
X154722775Y-112735427D01*
X154751283Y-112752780D01*
X154778952Y-112770973D01*
X154805783Y-112790006D01*
X154831774Y-112809877D01*
X154856927Y-112830588D01*
X154881241Y-112852138D01*
X154904718Y-112874525D01*
X154927356Y-112897751D01*
X154949157Y-112921815D01*
X154970120Y-112946717D01*
X154990245Y-112972455D01*
X155009533Y-112999031D01*
X155027984Y-113026444D01*
X155045598Y-113054693D01*
X155062375Y-113083779D01*
X155078316Y-113113700D01*
X155108290Y-113173314D01*
X155136128Y-113233627D01*
X155161837Y-113294640D01*
X155185423Y-113356357D01*
X155206893Y-113418781D01*
X155226253Y-113481914D01*
X155243509Y-113545759D01*
X155258667Y-113610319D01*
X155270589Y-113675840D01*
X155280949Y-113742584D01*
X155289737Y-113810555D01*
X155296947Y-113879755D01*
X155302569Y-113950190D01*
X155306595Y-114021862D01*
X155309017Y-114094775D01*
X155309826Y-114168932D01*
X155309826Y-117538646D01*
X154846810Y-117538646D01*
X154846810Y-113768355D01*
X154846540Y-113721069D01*
X154845732Y-113675171D01*
X154844390Y-113630669D01*
X154842515Y-113587571D01*
X154840111Y-113545884D01*
X154837181Y-113505617D01*
X154833728Y-113466777D01*
X154829754Y-113429372D01*
X154823580Y-113391021D01*
X154816344Y-113352162D01*
X154808048Y-113312789D01*
X154798692Y-113272894D01*
X154788277Y-113232470D01*
X154776806Y-113191511D01*
X154764278Y-113150010D01*
X154750695Y-113107958D01*
X154743355Y-113087097D01*
X154735446Y-113066847D01*
X154726969Y-113047210D01*
X154717921Y-113028185D01*
X154708304Y-113009775D01*
X154698115Y-112991979D01*
X154687354Y-112974800D01*
X154676021Y-112958236D01*
X154664114Y-112942291D01*
X154651633Y-112926963D01*
X154638578Y-112912254D01*
X154624948Y-112898166D01*
X154610742Y-112884698D01*
X154595958Y-112871852D01*
X154580598Y-112859628D01*
X154564660Y-112848028D01*
X154547481Y-112836406D01*
X154529812Y-112825531D01*
X154511653Y-112815403D01*
X154493004Y-112806022D01*
X154473866Y-112797388D01*
X154454240Y-112789504D01*
X154434128Y-112782367D01*
X154413529Y-112775980D01*
X154392446Y-112770343D01*
X154370877Y-112765455D01*
X154348826Y-112761319D01*
X154326291Y-112757933D01*
X154303275Y-112755299D01*
X154279777Y-112753417D01*
X154255800Y-112752287D01*
X154231343Y-112751911D01*
X154197279Y-112752731D01*
X154164232Y-112755193D01*
X154132201Y-112759294D01*
X154101186Y-112765033D01*
X154071187Y-112772409D01*
X154042202Y-112781420D01*
X154014233Y-112792066D01*
X153987277Y-112804344D01*
X153961336Y-112818255D01*
X153936409Y-112833795D01*
X153912496Y-112850964D01*
X153889595Y-112869761D01*
X153867707Y-112890185D01*
X153846832Y-112912233D01*
X153826969Y-112935905D01*
X153808117Y-112961200D01*
X153789662Y-112987568D01*
X153772396Y-113014461D01*
X153756321Y-113041881D01*
X153741435Y-113069827D01*
X153727739Y-113098300D01*
X153715234Y-113127300D01*
X153703918Y-113156829D01*
X153693794Y-113186887D01*
X153684860Y-113217474D01*
X153677116Y-113248590D01*
X153670564Y-113280237D01*
X153665203Y-113312414D01*
X153661033Y-113345123D01*
X153658054Y-113378364D01*
X153656266Y-113412137D01*
X153655671Y-113446443D01*
X153656210Y-113481898D01*
X153657825Y-113517706D01*
X153660509Y-113553868D01*
X153664257Y-113590383D01*
X153669063Y-113627250D01*
X153674921Y-113664471D01*
X153681827Y-113702045D01*
X153689774Y-113739971D01*
X153694271Y-113758955D01*
X153699295Y-113777806D01*
X153704848Y-113796524D01*
X153710928Y-113815110D01*
X153717537Y-113833562D01*
X153724675Y-113851882D01*
X153732341Y-113870070D01*
X153740537Y-113888125D01*
X153749261Y-113906047D01*
X153758515Y-113923837D01*
X153768298Y-113941496D01*
X153778611Y-113959022D01*
X153789455Y-113976416D01*
X153800828Y-113993678D01*
X153812731Y-114010809D01*
X153825165Y-114027809D01*
X153838044Y-114044212D01*
X153851280Y-114059555D01*
X153864872Y-114073839D01*
X153878820Y-114087063D01*
X153893123Y-114099228D01*
X153907781Y-114110334D01*
X153922793Y-114120382D01*
X153938158Y-114129370D01*
X153953876Y-114137301D01*
X153969946Y-114144173D01*
X153986367Y-114149988D01*
X154003140Y-114154745D01*
X154020263Y-114158444D01*
X154037735Y-114161086D01*
X154055557Y-114162671D01*
X154073727Y-114163200D01*
X154079654Y-114163003D01*
X154086146Y-114162413D01*
X154093205Y-114161428D01*
X154100831Y-114160049D01*
X154109026Y-114158275D01*
X154117790Y-114156106D01*
X154127126Y-114153540D01*
X154137033Y-114150578D01*
X154147514Y-114147220D01*
X154158569Y-114143463D01*
X154170200Y-114139310D01*
X154182408Y-114134757D01*
X154208557Y-114124456D01*
X154237027Y-114112557D01*
X154264553Y-114100657D01*
X154290685Y-114090356D01*
X154315419Y-114081650D01*
X154327259Y-114077894D01*
X154338746Y-114074535D01*
X154349882Y-114071573D01*
X154360664Y-114069007D01*
X154371091Y-114066838D01*
X154381164Y-114065064D01*
X154390882Y-114063684D01*
X154400243Y-114062700D01*
X154409247Y-114062110D01*
X154417893Y-114061913D01*
X154426314Y-114062109D01*
X154434643Y-114062700D01*
X154442881Y-114063684D01*
X154451029Y-114065063D01*
X154459087Y-114066837D01*
X154467056Y-114069007D01*
X154474935Y-114071572D01*
X154482726Y-114074534D01*
X154490428Y-114077893D01*
X154498043Y-114081649D01*
X154505571Y-114085803D01*
X154513012Y-114090356D01*
X154520366Y-114095307D01*
X154527635Y-114100657D01*
X154534818Y-114106407D01*
X154541916Y-114112557D01*
X154548066Y-114118287D01*
X154553816Y-114124188D01*
X154559166Y-114130262D01*
X154564116Y-114136509D01*
X154568668Y-114142929D01*
X154572822Y-114149524D01*
X154576578Y-114156294D01*
X154579937Y-114163240D01*
X154582898Y-114170361D01*
X154585463Y-114177660D01*
X154587633Y-114185137D01*
X154589406Y-114192792D01*
X154590785Y-114200626D01*
X154591770Y-114208640D01*
X154592360Y-114216835D01*
X154592556Y-114225210D01*
X154591876Y-114247769D01*
X154591026Y-114258505D01*
X154589836Y-114268878D01*
X154588305Y-114278889D01*
X154586434Y-114288538D01*
X154584222Y-114297823D01*
X154581669Y-114306746D01*
X154578776Y-114315306D01*
X154575541Y-114323502D01*
X154571966Y-114331336D01*
X154568049Y-114338806D01*
X154563791Y-114345913D01*
X154559192Y-114352656D01*
X154554251Y-114359036D01*
X154548968Y-114365052D01*
X154543344Y-114370704D01*
X154537378Y-114375993D01*
X154531070Y-114380917D01*
X154524420Y-114385477D01*
X154517427Y-114389673D01*
X154510092Y-114393505D01*
X154502415Y-114396972D01*
X154494396Y-114400075D01*
X154486033Y-114402813D01*
X154477328Y-114405187D01*
X154468280Y-114407195D01*
X154458889Y-114408839D01*
X154449155Y-114410117D01*
X154439078Y-114411031D01*
X154428657Y-114411579D01*
X154417893Y-114411762D01*
X154412006Y-114411582D01*
X154405633Y-114411042D01*
X154398773Y-114410145D01*
X154391428Y-114408889D01*
X154383598Y-114407278D01*
X154375282Y-114405310D01*
X154366480Y-114402988D01*
X154357193Y-114400313D01*
X154347422Y-114397284D01*
X154337165Y-114393904D01*
X154326423Y-114390172D01*
X154315196Y-114386091D01*
X154291290Y-114376883D01*
X154265446Y-114366286D01*
X154239154Y-114355710D01*
X154213903Y-114346560D01*
X154189699Y-114338831D01*
X154177991Y-114335497D01*
X154166547Y-114332517D01*
X154155368Y-114329889D01*
X154144454Y-114327614D01*
X154133806Y-114325691D01*
X154123424Y-114324118D01*
X154113310Y-114322896D01*
X154103464Y-114322024D01*
X154093887Y-114321501D01*
X154084580Y-114321327D01*
X154064251Y-114321726D01*
X154044187Y-114322923D01*
X154024387Y-114324917D01*
X154004851Y-114327708D01*
X153985580Y-114331296D01*
X153966573Y-114335678D01*
X153947831Y-114340856D01*
X153929353Y-114346828D01*
X153911139Y-114353594D01*
X153893190Y-114361153D01*
X153875506Y-114369504D01*
X153858086Y-114378648D01*
X153840931Y-114388582D01*
X153824041Y-114399308D01*
X153807415Y-114410823D01*
X153791054Y-114423128D01*
X153774387Y-114436069D01*
X153758251Y-114449490D01*
X153742647Y-114463394D01*
X153727573Y-114477779D01*
X153713029Y-114492648D01*
X153699016Y-114508000D01*
X153685532Y-114523836D01*
X153672578Y-114540157D01*
X153660153Y-114556963D01*
X153648257Y-114574255D01*
X153636889Y-114592033D01*
X153626050Y-114610298D01*
X153615738Y-114629050D01*
X153605954Y-114648291D01*
X153596697Y-114668020D01*
X153587967Y-114688239D01*
X153570252Y-114727847D01*
X153553790Y-114767646D01*
X153538577Y-114807631D01*
X153524604Y-114847799D01*
X153511867Y-114888142D01*
X153500358Y-114928657D01*
X153490071Y-114969339D01*
X153480999Y-115010182D01*
X153471728Y-115050823D01*
X153463671Y-115090907D01*
X153456835Y-115130445D01*
X153451228Y-115169445D01*
X153446854Y-115207916D01*
X153443722Y-115245867D01*
X153441838Y-115283307D01*
X153441208Y-115320246D01*
X153441995Y-115373865D01*
X153444359Y-115427481D01*
X153448303Y-115481095D01*
X153453830Y-115534707D01*
X153460945Y-115588318D01*
X153469652Y-115641930D01*
X153479953Y-115695544D01*
X153491852Y-115749160D01*
X153497898Y-115775157D01*
X153504743Y-115800937D01*
X153512388Y-115826499D01*
X153520832Y-115851843D01*
X153530073Y-115876969D01*
X153540111Y-115901876D01*
X153550944Y-115926564D01*
X153562572Y-115951032D01*
X153574994Y-115975279D01*
X153588208Y-115999306D01*
X153602214Y-116023112D01*
X153617011Y-116046697D01*
X153632597Y-116070059D01*
X153648973Y-116093199D01*
X153666136Y-116116116D01*
X153684086Y-116138810D01*
X153702718Y-116160684D01*
X153721923Y-116181153D01*
X153741701Y-116200215D01*
X153762053Y-116217869D01*
X153782978Y-116234115D01*
X153804477Y-116248952D01*
X153826548Y-116262380D01*
X153849193Y-116274397D01*
X153872411Y-116285003D01*
X153896202Y-116294197D01*
X153920567Y-116301979D01*
X153945504Y-116308348D01*
X153971015Y-116313302D01*
X153997098Y-116316842D01*
X154023754Y-116318967D01*
X154050984Y-116319675D01*
X154071418Y-116319253D01*
X154091803Y-116317989D01*
X154112137Y-116315882D01*
X154132424Y-116312934D01*
X154152662Y-116309145D01*
X154172854Y-116304517D01*
X154193001Y-116299049D01*
X154213102Y-116292742D01*
X154233159Y-116285598D01*
X154253173Y-116277617D01*
X154273145Y-116268799D01*
X154293075Y-116259145D01*
X154312964Y-116248657D01*
X154332814Y-116237334D01*
X154352625Y-116225177D01*
X154372399Y-116212188D01*
X154391561Y-116197925D01*
X154409535Y-116183357D01*
X154426320Y-116168484D01*
X154441917Y-116153305D01*
X154456324Y-116137819D01*
X154469542Y-116122026D01*
X154481570Y-116105925D01*
X154492407Y-116089516D01*
X154502054Y-116072798D01*
X154510510Y-116055771D01*
X154517774Y-116038434D01*
X154523846Y-116020786D01*
X154528726Y-116002827D01*
X154532414Y-115984557D01*
X154534908Y-115965974D01*
X154536210Y-115947078D01*
X154694340Y-115947078D01*
X154689466Y-115975631D01*
X154683312Y-116003435D01*
X154675877Y-116030489D01*
X154667162Y-116056794D01*
X154657167Y-116082349D01*
X154645893Y-116107155D01*
X154633339Y-116131211D01*
X154619506Y-116154517D01*
X154604395Y-116177074D01*
X154588005Y-116198881D01*
X154570337Y-116219938D01*
X154551390Y-116240245D01*
X154531166Y-116259802D01*
X154509665Y-116278609D01*
X154486886Y-116296666D01*
X154462830Y-116313973D01*
X154437253Y-116330376D01*
X154411321Y-116345719D01*
X154385034Y-116360003D01*
X154358393Y-116373227D01*
X154331398Y-116385393D01*
X154304049Y-116396499D01*
X154276347Y-116406546D01*
X154248292Y-116415535D01*
X154219884Y-116423466D01*
X154191125Y-116430338D01*
X154162013Y-116436153D01*
X154132550Y-116440910D01*
X154102735Y-116444609D01*
X154072570Y-116447251D01*
X154042055Y-116448837D01*
X154011189Y-116449365D01*
X153950603Y-116448083D01*
X153891607Y-116444239D01*
X153834202Y-116437832D01*
X153778387Y-116428864D01*
X153724161Y-116417336D01*
X153671524Y-116403248D01*
X153620475Y-116386600D01*
X153571013Y-116367394D01*
X153523139Y-116345631D01*
X153476852Y-116321310D01*
X153432151Y-116294434D01*
X153389035Y-116265002D01*
X153347505Y-116233015D01*
X153307559Y-116198474D01*
X153269197Y-116161380D01*
X153232418Y-116121733D01*
X153196876Y-116080154D01*
X153163626Y-116037259D01*
X153132669Y-115993048D01*
X153104004Y-115947520D01*
X153077633Y-115900673D01*
X153053554Y-115852506D01*
X153031768Y-115803018D01*
X153012276Y-115752209D01*
X152995076Y-115700076D01*
X152980170Y-115646619D01*
X152967556Y-115591838D01*
X152957236Y-115535729D01*
X152949209Y-115478293D01*
X152943476Y-115419529D01*
X152940036Y-115359435D01*
X152938889Y-115298010D01*
X152939991Y-115241605D01*
X152943296Y-115186689D01*
X152948804Y-115133265D01*
X152956517Y-115081333D01*
X152966434Y-115030894D01*
X152978555Y-114981951D01*
X152992880Y-114934505D01*
X153009410Y-114888557D01*
X153028145Y-114844108D01*
X153049084Y-114801160D01*
X153072229Y-114759714D01*
X153097580Y-114719772D01*
X153125136Y-114681334D01*
X153154898Y-114644404D01*
X153186865Y-114608981D01*
X153221039Y-114575067D01*
X153256385Y-114541997D01*
X153293276Y-114510518D01*
X153331714Y-114480630D01*
X153371697Y-114452332D01*
X153413225Y-114425624D01*
X153456298Y-114400504D01*
X153500916Y-114376974D01*
X153547077Y-114355031D01*
X153594782Y-114334676D01*
X153644030Y-114315907D01*
X153694820Y-114298725D01*
X153747153Y-114283128D01*
X153801027Y-114269117D01*
X153856443Y-114256690D01*
X153913400Y-114245847D01*
X153971898Y-114236587D01*
X153971898Y-114225218D01*
X153877574Y-114190893D01*
X153789340Y-114154237D01*
X153707195Y-114115250D01*
X153631137Y-114073930D01*
X153561167Y-114030278D01*
X153497284Y-113984291D01*
X153439487Y-113935968D01*
X153387777Y-113885309D01*
X153342152Y-113832313D01*
X153321621Y-113804938D01*
X153302611Y-113776978D01*
X153285123Y-113748434D01*
X153269156Y-113719305D01*
X153254710Y-113689590D01*
X153241784Y-113659290D01*
X153230380Y-113628405D01*
X153220496Y-113596934D01*
X153212133Y-113564878D01*
X153205291Y-113532236D01*
X153199969Y-113499008D01*
X153196168Y-113465194D01*
X153193127Y-113395808D01*
X153194251Y-113347852D01*
X153197624Y-113301350D01*
X153203245Y-113256302D01*
X153211115Y-113212709D01*
X153221233Y-113170570D01*
X153233600Y-113129886D01*
X153248216Y-113090657D01*
X153265080Y-113052883D01*
X153284194Y-113016564D01*
X153305557Y-112981701D01*
X153329169Y-112948293D01*
X153355030Y-112916341D01*
X153383141Y-112885844D01*
X153413501Y-112856804D01*
X153446110Y-112829219D01*
X153480969Y-112803091D01*
X153516728Y-112777803D01*
X153553452Y-112754147D01*
X153591140Y-112732124D01*
X153629795Y-112711734D01*
X153669417Y-112692976D01*
X153710006Y-112675850D01*
X153751564Y-112660357D01*
X153794091Y-112646495D01*
X153837588Y-112634264D01*
X153882057Y-112623666D01*
X153927497Y-112614698D01*
X153973909Y-112607361D01*
X154021295Y-112601655D01*
X154069655Y-112597580D01*
X154118990Y-112595135D01*
X154169300Y-112594320D01*
X154169302Y-112594322D01*
G37*
D10*
X71000000Y-93500000D02*
G75*
G02*
X73000000Y-91500000I2000000J0D01*
G01*
D11*
G36*
X137413674Y-104916498D02*
G01*
X137147730Y-105344046D01*
X136897431Y-105782020D01*
X136663176Y-106230036D01*
X136445365Y-106687709D01*
X136244398Y-107154655D01*
X136060675Y-107630491D01*
X135894594Y-108114831D01*
X135746555Y-108607292D01*
X135616959Y-109107490D01*
X135506204Y-109615040D01*
X135414690Y-110129558D01*
X135342817Y-110650660D01*
X135290985Y-111177962D01*
X135259592Y-111711079D01*
X135249039Y-112249627D01*
X135259592Y-112788176D01*
X135290984Y-113321292D01*
X135342816Y-113848592D01*
X135414688Y-114369693D01*
X135506201Y-114884209D01*
X135616955Y-115391757D01*
X135746550Y-115891953D01*
X135894588Y-116384413D01*
X136060668Y-116868753D01*
X136244392Y-117344587D01*
X136445359Y-117811534D01*
X136663170Y-118269208D01*
X136897425Y-118717225D01*
X137147725Y-119155201D01*
X137413671Y-119582752D01*
X137694863Y-119999495D01*
X135635575Y-119999495D01*
X136270150Y-119624318D01*
X136156105Y-119428131D01*
X136045272Y-119229931D01*
X135937454Y-119029839D01*
X135832451Y-118827979D01*
X133532860Y-119999468D01*
X130834389Y-119999468D01*
X135443932Y-118004759D01*
X135354978Y-117795456D01*
X135269266Y-117584534D01*
X135186782Y-117371979D01*
X135107514Y-117157780D01*
X127215043Y-119999390D01*
X122063363Y-119999390D01*
X134824150Y-116291539D01*
X134762401Y-116073052D01*
X134703963Y-115853180D01*
X134648904Y-115631959D01*
X134597290Y-115409424D01*
X114063355Y-119999390D01*
X99794457Y-119999390D01*
X134428223Y-114514608D01*
X134394703Y-114290417D01*
X134364681Y-114065107D01*
X134338136Y-113838720D01*
X134315049Y-113611299D01*
X88000000Y-117988806D01*
X88000000Y-114156073D01*
X134256852Y-112701906D01*
X134253606Y-112589166D01*
X134250980Y-112476238D01*
X134249222Y-112363100D01*
X134248581Y-112249735D01*
X134249203Y-112134680D01*
X134250928Y-112019860D01*
X134253548Y-111905254D01*
X134256852Y-111790844D01*
X88000000Y-110337205D01*
X88000000Y-106504472D01*
X134315049Y-110882508D01*
X134338253Y-110654953D01*
X134364931Y-110428439D01*
X134395092Y-110203008D01*
X134428742Y-109978697D01*
X99837311Y-104500000D01*
X114092713Y-104500000D01*
X134597809Y-109083087D01*
X134649452Y-108860693D01*
X134704487Y-108639595D01*
X134762898Y-108419845D01*
X134824669Y-108201500D01*
X122083466Y-104500000D01*
X127229844Y-104500000D01*
X135107766Y-107336582D01*
X135187128Y-107122514D01*
X135269769Y-106910102D01*
X135355639Y-106699318D01*
X135444687Y-106490132D01*
X130845986Y-104500079D01*
X133543396Y-104500079D01*
X135833672Y-105666938D01*
X135939023Y-105464668D01*
X136047243Y-105264202D01*
X136158491Y-105065635D01*
X136272927Y-104869065D01*
X135648667Y-104500106D01*
X137693497Y-104500106D01*
X137694863Y-104499760D01*
X137413674Y-104916498D01*
G37*
G36*
X216499308Y-96515867D02*
G01*
X216499308Y-98493695D01*
X214754315Y-98493700D01*
X214834753Y-98421751D01*
X214910179Y-98346010D01*
X214980755Y-98266875D01*
X215046642Y-98184743D01*
X215108001Y-98100011D01*
X215164994Y-98013078D01*
X215266523Y-97834199D01*
X215352521Y-97651287D01*
X215424275Y-97467524D01*
X215483075Y-97286091D01*
X215530212Y-97110171D01*
X215566973Y-96942944D01*
X215594650Y-96787594D01*
X215627906Y-96525248D01*
X215642131Y-96283064D01*
X216499308Y-96515867D01*
G37*
D10*
X86163220Y-115869819D02*
X86163220Y-114869819D01*
X86163220Y-114869819D02*
X85782268Y-114869819D01*
X85782268Y-114869819D02*
X85687030Y-114917438D01*
X85687030Y-114917438D02*
X85639411Y-114965057D01*
X85639411Y-114965057D02*
X85591792Y-115060295D01*
X85591792Y-115060295D02*
X85591792Y-115203152D01*
X85591792Y-115203152D02*
X85639411Y-115298390D01*
X85639411Y-115298390D02*
X85687030Y-115346009D01*
X85687030Y-115346009D02*
X85782268Y-115393628D01*
X85782268Y-115393628D02*
X86163220Y-115393628D01*
X85163220Y-114869819D02*
X85163220Y-115679342D01*
X85163220Y-115679342D02*
X85115601Y-115774580D01*
X85115601Y-115774580D02*
X85067982Y-115822200D01*
X85067982Y-115822200D02*
X84972744Y-115869819D01*
X84972744Y-115869819D02*
X84782268Y-115869819D01*
X84782268Y-115869819D02*
X84687030Y-115822200D01*
X84687030Y-115822200D02*
X84639411Y-115774580D01*
X84639411Y-115774580D02*
X84591792Y-115679342D01*
X84591792Y-115679342D02*
X84591792Y-114869819D01*
X83639411Y-115869819D02*
X84115601Y-115869819D01*
X84115601Y-115869819D02*
X84115601Y-114869819D01*
X83353696Y-115822200D02*
X83210839Y-115869819D01*
X83210839Y-115869819D02*
X82972744Y-115869819D01*
X82972744Y-115869819D02*
X82877506Y-115822200D01*
X82877506Y-115822200D02*
X82829887Y-115774580D01*
X82829887Y-115774580D02*
X82782268Y-115679342D01*
X82782268Y-115679342D02*
X82782268Y-115584104D01*
X82782268Y-115584104D02*
X82829887Y-115488866D01*
X82829887Y-115488866D02*
X82877506Y-115441247D01*
X82877506Y-115441247D02*
X82972744Y-115393628D01*
X82972744Y-115393628D02*
X83163220Y-115346009D01*
X83163220Y-115346009D02*
X83258458Y-115298390D01*
X83258458Y-115298390D02*
X83306077Y-115250771D01*
X83306077Y-115250771D02*
X83353696Y-115155533D01*
X83353696Y-115155533D02*
X83353696Y-115060295D01*
X83353696Y-115060295D02*
X83306077Y-114965057D01*
X83306077Y-114965057D02*
X83258458Y-114917438D01*
X83258458Y-114917438D02*
X83163220Y-114869819D01*
X83163220Y-114869819D02*
X82925125Y-114869819D01*
X82925125Y-114869819D02*
X82782268Y-114917438D01*
X82353696Y-115346009D02*
X82020363Y-115346009D01*
X81877506Y-115869819D02*
X82353696Y-115869819D01*
X82353696Y-115869819D02*
X82353696Y-114869819D01*
X82353696Y-114869819D02*
X81877506Y-114869819D01*
D12*
X212447331Y-100869673D02*
X211447331Y-100869673D01*
X211447331Y-100869673D02*
X211447331Y-101250625D01*
X211447331Y-101250625D02*
X211494950Y-101345863D01*
X211494950Y-101345863D02*
X211542569Y-101393482D01*
X211542569Y-101393482D02*
X211637807Y-101441101D01*
X211637807Y-101441101D02*
X211780664Y-101441101D01*
X211780664Y-101441101D02*
X211875902Y-101393482D01*
X211875902Y-101393482D02*
X211923521Y-101345863D01*
X211923521Y-101345863D02*
X211971140Y-101250625D01*
X211971140Y-101250625D02*
X211971140Y-100869673D01*
X212352092Y-102441101D02*
X212399712Y-102393482D01*
X212399712Y-102393482D02*
X212447331Y-102250625D01*
X212447331Y-102250625D02*
X212447331Y-102155387D01*
X212447331Y-102155387D02*
X212399712Y-102012530D01*
X212399712Y-102012530D02*
X212304473Y-101917292D01*
X212304473Y-101917292D02*
X212209235Y-101869673D01*
X212209235Y-101869673D02*
X212018759Y-101822054D01*
X212018759Y-101822054D02*
X211875902Y-101822054D01*
X211875902Y-101822054D02*
X211685426Y-101869673D01*
X211685426Y-101869673D02*
X211590188Y-101917292D01*
X211590188Y-101917292D02*
X211494950Y-102012530D01*
X211494950Y-102012530D02*
X211447331Y-102155387D01*
X211447331Y-102155387D02*
X211447331Y-102250625D01*
X211447331Y-102250625D02*
X211494950Y-102393482D01*
X211494950Y-102393482D02*
X211542569Y-102441101D01*
X211923521Y-103203006D02*
X211971140Y-103345863D01*
X211971140Y-103345863D02*
X212018759Y-103393482D01*
X212018759Y-103393482D02*
X212113997Y-103441101D01*
X212113997Y-103441101D02*
X212256854Y-103441101D01*
X212256854Y-103441101D02*
X212352092Y-103393482D01*
X212352092Y-103393482D02*
X212399712Y-103345863D01*
X212399712Y-103345863D02*
X212447331Y-103250625D01*
X212447331Y-103250625D02*
X212447331Y-102869673D01*
X212447331Y-102869673D02*
X211447331Y-102869673D01*
X211447331Y-102869673D02*
X211447331Y-103203006D01*
X211447331Y-103203006D02*
X211494950Y-103298244D01*
X211494950Y-103298244D02*
X211542569Y-103345863D01*
X211542569Y-103345863D02*
X211637807Y-103393482D01*
X211637807Y-103393482D02*
X211733045Y-103393482D01*
X211733045Y-103393482D02*
X211828283Y-103345863D01*
X211828283Y-103345863D02*
X211875902Y-103298244D01*
X211875902Y-103298244D02*
X211923521Y-103203006D01*
X211923521Y-103203006D02*
X211923521Y-102869673D01*
X214057275Y-101441101D02*
X213581084Y-101107768D01*
X214057275Y-100869673D02*
X213057275Y-100869673D01*
X213057275Y-100869673D02*
X213057275Y-101250625D01*
X213057275Y-101250625D02*
X213104894Y-101345863D01*
X213104894Y-101345863D02*
X213152513Y-101393482D01*
X213152513Y-101393482D02*
X213247751Y-101441101D01*
X213247751Y-101441101D02*
X213390608Y-101441101D01*
X213390608Y-101441101D02*
X213485846Y-101393482D01*
X213485846Y-101393482D02*
X213533465Y-101345863D01*
X213533465Y-101345863D02*
X213581084Y-101250625D01*
X213581084Y-101250625D02*
X213581084Y-100869673D01*
X213533465Y-101869673D02*
X213533465Y-102203006D01*
X214057275Y-102345863D02*
X214057275Y-101869673D01*
X214057275Y-101869673D02*
X213057275Y-101869673D01*
X213057275Y-101869673D02*
X213057275Y-102345863D01*
X213057275Y-102631578D02*
X214057275Y-102964911D01*
X214057275Y-102964911D02*
X213057275Y-103298244D01*
X215667219Y-100869673D02*
X214667219Y-100869673D01*
X214667219Y-100869673D02*
X214667219Y-101107768D01*
X214667219Y-101107768D02*
X214714838Y-101250625D01*
X214714838Y-101250625D02*
X214810076Y-101345863D01*
X214810076Y-101345863D02*
X214905314Y-101393482D01*
X214905314Y-101393482D02*
X215095790Y-101441101D01*
X215095790Y-101441101D02*
X215238647Y-101441101D01*
X215238647Y-101441101D02*
X215429123Y-101393482D01*
X215429123Y-101393482D02*
X215524361Y-101345863D01*
X215524361Y-101345863D02*
X215619600Y-101250625D01*
X215619600Y-101250625D02*
X215667219Y-101107768D01*
X215667219Y-101107768D02*
X215667219Y-100869673D01*
X215381504Y-101822054D02*
X215381504Y-102298244D01*
X215667219Y-101726816D02*
X214667219Y-102060149D01*
X214667219Y-102060149D02*
X215667219Y-102393482D01*
X214667219Y-102583959D02*
X214667219Y-103155387D01*
X215667219Y-102869673D02*
X214667219Y-102869673D01*
D10*
X212354692Y-104336779D02*
X212402312Y-104384398D01*
X212402312Y-104384398D02*
X212449931Y-104336779D01*
X212449931Y-104336779D02*
X212402312Y-104289160D01*
X212402312Y-104289160D02*
X212354692Y-104336779D01*
X212354692Y-104336779D02*
X212449931Y-104336779D01*
X211830883Y-104336779D02*
X211878502Y-104384398D01*
X211878502Y-104384398D02*
X211926121Y-104336779D01*
X211926121Y-104336779D02*
X211878502Y-104289160D01*
X211878502Y-104289160D02*
X211830883Y-104336779D01*
X211830883Y-104336779D02*
X211926121Y-104336779D01*
X211449931Y-105432017D02*
X211449931Y-106003445D01*
X212449931Y-105717731D02*
X211449931Y-105717731D01*
X211783264Y-106765350D02*
X212449931Y-106765350D01*
X211783264Y-106336779D02*
X212307073Y-106336779D01*
X212307073Y-106336779D02*
X212402312Y-106384398D01*
X212402312Y-106384398D02*
X212449931Y-106479636D01*
X212449931Y-106479636D02*
X212449931Y-106622493D01*
X212449931Y-106622493D02*
X212402312Y-106717731D01*
X212402312Y-106717731D02*
X212354692Y-106765350D01*
X212449931Y-107241541D02*
X211449931Y-107241541D01*
X211830883Y-107241541D02*
X211783264Y-107336779D01*
X211783264Y-107336779D02*
X211783264Y-107527255D01*
X211783264Y-107527255D02*
X211830883Y-107622493D01*
X211830883Y-107622493D02*
X211878502Y-107670112D01*
X211878502Y-107670112D02*
X211973740Y-107717731D01*
X211973740Y-107717731D02*
X212259454Y-107717731D01*
X212259454Y-107717731D02*
X212354692Y-107670112D01*
X212354692Y-107670112D02*
X212402312Y-107622493D01*
X212402312Y-107622493D02*
X212449931Y-107527255D01*
X212449931Y-107527255D02*
X212449931Y-107336779D01*
X212449931Y-107336779D02*
X212402312Y-107241541D01*
X212402312Y-108527255D02*
X212449931Y-108432017D01*
X212449931Y-108432017D02*
X212449931Y-108241541D01*
X212449931Y-108241541D02*
X212402312Y-108146303D01*
X212402312Y-108146303D02*
X212307073Y-108098684D01*
X212307073Y-108098684D02*
X211926121Y-108098684D01*
X211926121Y-108098684D02*
X211830883Y-108146303D01*
X211830883Y-108146303D02*
X211783264Y-108241541D01*
X211783264Y-108241541D02*
X211783264Y-108432017D01*
X211783264Y-108432017D02*
X211830883Y-108527255D01*
X211830883Y-108527255D02*
X211926121Y-108574874D01*
X211926121Y-108574874D02*
X212021359Y-108574874D01*
X212021359Y-108574874D02*
X212116597Y-108098684D01*
X212449931Y-109765351D02*
X211449931Y-109765351D01*
X211449931Y-109765351D02*
X211449931Y-110003446D01*
X211449931Y-110003446D02*
X211497550Y-110146303D01*
X211497550Y-110146303D02*
X211592788Y-110241541D01*
X211592788Y-110241541D02*
X211688026Y-110289160D01*
X211688026Y-110289160D02*
X211878502Y-110336779D01*
X211878502Y-110336779D02*
X212021359Y-110336779D01*
X212021359Y-110336779D02*
X212211835Y-110289160D01*
X212211835Y-110289160D02*
X212307073Y-110241541D01*
X212307073Y-110241541D02*
X212402312Y-110146303D01*
X212402312Y-110146303D02*
X212449931Y-110003446D01*
X212449931Y-110003446D02*
X212449931Y-109765351D01*
X212449931Y-110765351D02*
X211783264Y-110765351D01*
X211973740Y-110765351D02*
X211878502Y-110812970D01*
X211878502Y-110812970D02*
X211830883Y-110860589D01*
X211830883Y-110860589D02*
X211783264Y-110955827D01*
X211783264Y-110955827D02*
X211783264Y-111051065D01*
X212449931Y-111384399D02*
X211783264Y-111384399D01*
X211449931Y-111384399D02*
X211497550Y-111336780D01*
X211497550Y-111336780D02*
X211545169Y-111384399D01*
X211545169Y-111384399D02*
X211497550Y-111432018D01*
X211497550Y-111432018D02*
X211449931Y-111384399D01*
X211449931Y-111384399D02*
X211545169Y-111384399D01*
X211783264Y-111765351D02*
X212449931Y-112003446D01*
X212449931Y-112003446D02*
X211783264Y-112241541D01*
X212402312Y-113003446D02*
X212449931Y-112908208D01*
X212449931Y-112908208D02*
X212449931Y-112717732D01*
X212449931Y-112717732D02*
X212402312Y-112622494D01*
X212402312Y-112622494D02*
X212307073Y-112574875D01*
X212307073Y-112574875D02*
X211926121Y-112574875D01*
X211926121Y-112574875D02*
X211830883Y-112622494D01*
X211830883Y-112622494D02*
X211783264Y-112717732D01*
X211783264Y-112717732D02*
X211783264Y-112908208D01*
X211783264Y-112908208D02*
X211830883Y-113003446D01*
X211830883Y-113003446D02*
X211926121Y-113051065D01*
X211926121Y-113051065D02*
X212021359Y-113051065D01*
X212021359Y-113051065D02*
X212116597Y-112574875D01*
X212449931Y-113479637D02*
X211783264Y-113479637D01*
X211973740Y-113479637D02*
X211878502Y-113527256D01*
X211878502Y-113527256D02*
X211830883Y-113574875D01*
X211830883Y-113574875D02*
X211783264Y-113670113D01*
X211783264Y-113670113D02*
X211783264Y-113765351D01*
X213964636Y-104336779D02*
X214012256Y-104384398D01*
X214012256Y-104384398D02*
X214059875Y-104336779D01*
X214059875Y-104336779D02*
X214012256Y-104289160D01*
X214012256Y-104289160D02*
X213964636Y-104336779D01*
X213964636Y-104336779D02*
X214059875Y-104336779D01*
X213440827Y-104336779D02*
X213488446Y-104384398D01*
X213488446Y-104384398D02*
X213536065Y-104336779D01*
X213536065Y-104336779D02*
X213488446Y-104289160D01*
X213488446Y-104289160D02*
X213440827Y-104336779D01*
X213440827Y-104336779D02*
X213536065Y-104336779D01*
X214059875Y-106098683D02*
X214059875Y-105527255D01*
X214059875Y-105812969D02*
X213059875Y-105812969D01*
X213059875Y-105812969D02*
X213202732Y-105717731D01*
X213202732Y-105717731D02*
X213297970Y-105622493D01*
X213297970Y-105622493D02*
X213345589Y-105527255D01*
X213964636Y-106527255D02*
X214012256Y-106574874D01*
X214012256Y-106574874D02*
X214059875Y-106527255D01*
X214059875Y-106527255D02*
X214012256Y-106479636D01*
X214012256Y-106479636D02*
X213964636Y-106527255D01*
X213964636Y-106527255D02*
X214059875Y-106527255D01*
X213059875Y-107193921D02*
X213059875Y-107289159D01*
X213059875Y-107289159D02*
X213107494Y-107384397D01*
X213107494Y-107384397D02*
X213155113Y-107432016D01*
X213155113Y-107432016D02*
X213250351Y-107479635D01*
X213250351Y-107479635D02*
X213440827Y-107527254D01*
X213440827Y-107527254D02*
X213678922Y-107527254D01*
X213678922Y-107527254D02*
X213869398Y-107479635D01*
X213869398Y-107479635D02*
X213964636Y-107432016D01*
X213964636Y-107432016D02*
X214012256Y-107384397D01*
X214012256Y-107384397D02*
X214059875Y-107289159D01*
X214059875Y-107289159D02*
X214059875Y-107193921D01*
X214059875Y-107193921D02*
X214012256Y-107098683D01*
X214012256Y-107098683D02*
X213964636Y-107051064D01*
X213964636Y-107051064D02*
X213869398Y-107003445D01*
X213869398Y-107003445D02*
X213678922Y-106955826D01*
X213678922Y-106955826D02*
X213440827Y-106955826D01*
X213440827Y-106955826D02*
X213250351Y-107003445D01*
X213250351Y-107003445D02*
X213155113Y-107051064D01*
X213155113Y-107051064D02*
X213107494Y-107098683D01*
X213107494Y-107098683D02*
X213059875Y-107193921D01*
X215574580Y-104336779D02*
X215622200Y-104384398D01*
X215622200Y-104384398D02*
X215669819Y-104336779D01*
X215669819Y-104336779D02*
X215622200Y-104289160D01*
X215622200Y-104289160D02*
X215574580Y-104336779D01*
X215574580Y-104336779D02*
X215669819Y-104336779D01*
X215050771Y-104336779D02*
X215098390Y-104384398D01*
X215098390Y-104384398D02*
X215146009Y-104336779D01*
X215146009Y-104336779D02*
X215098390Y-104289160D01*
X215098390Y-104289160D02*
X215050771Y-104336779D01*
X215050771Y-104336779D02*
X215146009Y-104336779D01*
X214765057Y-105527255D02*
X214717438Y-105574874D01*
X214717438Y-105574874D02*
X214669819Y-105670112D01*
X214669819Y-105670112D02*
X214669819Y-105908207D01*
X214669819Y-105908207D02*
X214717438Y-106003445D01*
X214717438Y-106003445D02*
X214765057Y-106051064D01*
X214765057Y-106051064D02*
X214860295Y-106098683D01*
X214860295Y-106098683D02*
X214955533Y-106098683D01*
X214955533Y-106098683D02*
X215098390Y-106051064D01*
X215098390Y-106051064D02*
X215669819Y-105479636D01*
X215669819Y-105479636D02*
X215669819Y-106098683D01*
X214669819Y-106717731D02*
X214669819Y-106812969D01*
X214669819Y-106812969D02*
X214717438Y-106908207D01*
X214717438Y-106908207D02*
X214765057Y-106955826D01*
X214765057Y-106955826D02*
X214860295Y-107003445D01*
X214860295Y-107003445D02*
X215050771Y-107051064D01*
X215050771Y-107051064D02*
X215288866Y-107051064D01*
X215288866Y-107051064D02*
X215479342Y-107003445D01*
X215479342Y-107003445D02*
X215574580Y-106955826D01*
X215574580Y-106955826D02*
X215622200Y-106908207D01*
X215622200Y-106908207D02*
X215669819Y-106812969D01*
X215669819Y-106812969D02*
X215669819Y-106717731D01*
X215669819Y-106717731D02*
X215622200Y-106622493D01*
X215622200Y-106622493D02*
X215574580Y-106574874D01*
X215574580Y-106574874D02*
X215479342Y-106527255D01*
X215479342Y-106527255D02*
X215288866Y-106479636D01*
X215288866Y-106479636D02*
X215050771Y-106479636D01*
X215050771Y-106479636D02*
X214860295Y-106527255D01*
X214860295Y-106527255D02*
X214765057Y-106574874D01*
X214765057Y-106574874D02*
X214717438Y-106622493D01*
X214717438Y-106622493D02*
X214669819Y-106717731D01*
X214765057Y-107432017D02*
X214717438Y-107479636D01*
X214717438Y-107479636D02*
X214669819Y-107574874D01*
X214669819Y-107574874D02*
X214669819Y-107812969D01*
X214669819Y-107812969D02*
X214717438Y-107908207D01*
X214717438Y-107908207D02*
X214765057Y-107955826D01*
X214765057Y-107955826D02*
X214860295Y-108003445D01*
X214860295Y-108003445D02*
X214955533Y-108003445D01*
X214955533Y-108003445D02*
X215098390Y-107955826D01*
X215098390Y-107955826D02*
X215669819Y-107384398D01*
X215669819Y-107384398D02*
X215669819Y-108003445D01*
X215003152Y-108860588D02*
X215669819Y-108860588D01*
X214622200Y-108622493D02*
X215336485Y-108384398D01*
X215336485Y-108384398D02*
X215336485Y-109003445D01*
X215288866Y-109384398D02*
X215288866Y-110146303D01*
X214669819Y-110812969D02*
X214669819Y-110908207D01*
X214669819Y-110908207D02*
X214717438Y-111003445D01*
X214717438Y-111003445D02*
X214765057Y-111051064D01*
X214765057Y-111051064D02*
X214860295Y-111098683D01*
X214860295Y-111098683D02*
X215050771Y-111146302D01*
X215050771Y-111146302D02*
X215288866Y-111146302D01*
X215288866Y-111146302D02*
X215479342Y-111098683D01*
X215479342Y-111098683D02*
X215574580Y-111051064D01*
X215574580Y-111051064D02*
X215622200Y-111003445D01*
X215622200Y-111003445D02*
X215669819Y-110908207D01*
X215669819Y-110908207D02*
X215669819Y-110812969D01*
X215669819Y-110812969D02*
X215622200Y-110717731D01*
X215622200Y-110717731D02*
X215574580Y-110670112D01*
X215574580Y-110670112D02*
X215479342Y-110622493D01*
X215479342Y-110622493D02*
X215288866Y-110574874D01*
X215288866Y-110574874D02*
X215050771Y-110574874D01*
X215050771Y-110574874D02*
X214860295Y-110622493D01*
X214860295Y-110622493D02*
X214765057Y-110670112D01*
X214765057Y-110670112D02*
X214717438Y-110717731D01*
X214717438Y-110717731D02*
X214669819Y-110812969D01*
X215669819Y-111622493D02*
X215669819Y-111812969D01*
X215669819Y-111812969D02*
X215622200Y-111908207D01*
X215622200Y-111908207D02*
X215574580Y-111955826D01*
X215574580Y-111955826D02*
X215431723Y-112051064D01*
X215431723Y-112051064D02*
X215241247Y-112098683D01*
X215241247Y-112098683D02*
X214860295Y-112098683D01*
X214860295Y-112098683D02*
X214765057Y-112051064D01*
X214765057Y-112051064D02*
X214717438Y-112003445D01*
X214717438Y-112003445D02*
X214669819Y-111908207D01*
X214669819Y-111908207D02*
X214669819Y-111717731D01*
X214669819Y-111717731D02*
X214717438Y-111622493D01*
X214717438Y-111622493D02*
X214765057Y-111574874D01*
X214765057Y-111574874D02*
X214860295Y-111527255D01*
X214860295Y-111527255D02*
X215098390Y-111527255D01*
X215098390Y-111527255D02*
X215193628Y-111574874D01*
X215193628Y-111574874D02*
X215241247Y-111622493D01*
X215241247Y-111622493D02*
X215288866Y-111717731D01*
X215288866Y-111717731D02*
X215288866Y-111908207D01*
X215288866Y-111908207D02*
X215241247Y-112003445D01*
X215241247Y-112003445D02*
X215193628Y-112051064D01*
X215193628Y-112051064D02*
X215098390Y-112098683D01*
X215288866Y-112527255D02*
X215288866Y-113289160D01*
X214669819Y-113955826D02*
X214669819Y-114051064D01*
X214669819Y-114051064D02*
X214717438Y-114146302D01*
X214717438Y-114146302D02*
X214765057Y-114193921D01*
X214765057Y-114193921D02*
X214860295Y-114241540D01*
X214860295Y-114241540D02*
X215050771Y-114289159D01*
X215050771Y-114289159D02*
X215288866Y-114289159D01*
X215288866Y-114289159D02*
X215479342Y-114241540D01*
X215479342Y-114241540D02*
X215574580Y-114193921D01*
X215574580Y-114193921D02*
X215622200Y-114146302D01*
X215622200Y-114146302D02*
X215669819Y-114051064D01*
X215669819Y-114051064D02*
X215669819Y-113955826D01*
X215669819Y-113955826D02*
X215622200Y-113860588D01*
X215622200Y-113860588D02*
X215574580Y-113812969D01*
X215574580Y-113812969D02*
X215479342Y-113765350D01*
X215479342Y-113765350D02*
X215288866Y-113717731D01*
X215288866Y-113717731D02*
X215050771Y-113717731D01*
X215050771Y-113717731D02*
X214860295Y-113765350D01*
X214860295Y-113765350D02*
X214765057Y-113812969D01*
X214765057Y-113812969D02*
X214717438Y-113860588D01*
X214717438Y-113860588D02*
X214669819Y-113955826D01*
X214669819Y-115146302D02*
X214669819Y-114955826D01*
X214669819Y-114955826D02*
X214717438Y-114860588D01*
X214717438Y-114860588D02*
X214765057Y-114812969D01*
X214765057Y-114812969D02*
X214907914Y-114717731D01*
X214907914Y-114717731D02*
X215098390Y-114670112D01*
X215098390Y-114670112D02*
X215479342Y-114670112D01*
X215479342Y-114670112D02*
X215574580Y-114717731D01*
X215574580Y-114717731D02*
X215622200Y-114765350D01*
X215622200Y-114765350D02*
X215669819Y-114860588D01*
X215669819Y-114860588D02*
X215669819Y-115051064D01*
X215669819Y-115051064D02*
X215622200Y-115146302D01*
X215622200Y-115146302D02*
X215574580Y-115193921D01*
X215574580Y-115193921D02*
X215479342Y-115241540D01*
X215479342Y-115241540D02*
X215241247Y-115241540D01*
X215241247Y-115241540D02*
X215146009Y-115193921D01*
X215146009Y-115193921D02*
X215098390Y-115146302D01*
X215098390Y-115146302D02*
X215050771Y-115051064D01*
X215050771Y-115051064D02*
X215050771Y-114860588D01*
X215050771Y-114860588D02*
X215098390Y-114765350D01*
X215098390Y-114765350D02*
X215146009Y-114717731D01*
X215146009Y-114717731D02*
X215241247Y-114670112D01*
X86163220Y-96869819D02*
X86163220Y-95869819D01*
X86163220Y-95869819D02*
X85782268Y-95869819D01*
X85782268Y-95869819D02*
X85687030Y-95917438D01*
X85687030Y-95917438D02*
X85639411Y-95965057D01*
X85639411Y-95965057D02*
X85591792Y-96060295D01*
X85591792Y-96060295D02*
X85591792Y-96203152D01*
X85591792Y-96203152D02*
X85639411Y-96298390D01*
X85639411Y-96298390D02*
X85687030Y-96346009D01*
X85687030Y-96346009D02*
X85782268Y-96393628D01*
X85782268Y-96393628D02*
X86163220Y-96393628D01*
X84972744Y-95869819D02*
X84782268Y-95869819D01*
X84782268Y-95869819D02*
X84687030Y-95917438D01*
X84687030Y-95917438D02*
X84591792Y-96012676D01*
X84591792Y-96012676D02*
X84544173Y-96203152D01*
X84544173Y-96203152D02*
X84544173Y-96536485D01*
X84544173Y-96536485D02*
X84591792Y-96726961D01*
X84591792Y-96726961D02*
X84687030Y-96822200D01*
X84687030Y-96822200D02*
X84782268Y-96869819D01*
X84782268Y-96869819D02*
X84972744Y-96869819D01*
X84972744Y-96869819D02*
X85067982Y-96822200D01*
X85067982Y-96822200D02*
X85163220Y-96726961D01*
X85163220Y-96726961D02*
X85210839Y-96536485D01*
X85210839Y-96536485D02*
X85210839Y-96203152D01*
X85210839Y-96203152D02*
X85163220Y-96012676D01*
X85163220Y-96012676D02*
X85067982Y-95917438D01*
X85067982Y-95917438D02*
X84972744Y-95869819D01*
X84210839Y-95869819D02*
X83972744Y-96869819D01*
X83972744Y-96869819D02*
X83782268Y-96155533D01*
X83782268Y-96155533D02*
X83591792Y-96869819D01*
X83591792Y-96869819D02*
X83353697Y-95869819D01*
X82972744Y-96346009D02*
X82639411Y-96346009D01*
X82496554Y-96869819D02*
X82972744Y-96869819D01*
X82972744Y-96869819D02*
X82972744Y-95869819D01*
X82972744Y-95869819D02*
X82496554Y-95869819D01*
X81496554Y-96869819D02*
X81829887Y-96393628D01*
X82067982Y-96869819D02*
X82067982Y-95869819D01*
X82067982Y-95869819D02*
X81687030Y-95869819D01*
X81687030Y-95869819D02*
X81591792Y-95917438D01*
X81591792Y-95917438D02*
X81544173Y-95965057D01*
X81544173Y-95965057D02*
X81496554Y-96060295D01*
X81496554Y-96060295D02*
X81496554Y-96203152D01*
X81496554Y-96203152D02*
X81544173Y-96298390D01*
X81544173Y-96298390D02*
X81591792Y-96346009D01*
X81591792Y-96346009D02*
X81687030Y-96393628D01*
X81687030Y-96393628D02*
X82067982Y-96393628D01*
D12*
X137624999Y-99132517D02*
X137791666Y-99049184D01*
X137791666Y-99049184D02*
X138041666Y-99049184D01*
X138041666Y-99049184D02*
X138291666Y-99132517D01*
X138291666Y-99132517D02*
X138458333Y-99299184D01*
X138458333Y-99299184D02*
X138541666Y-99465851D01*
X138541666Y-99465851D02*
X138624999Y-99799184D01*
X138624999Y-99799184D02*
X138624999Y-100049184D01*
X138624999Y-100049184D02*
X138541666Y-100382517D01*
X138541666Y-100382517D02*
X138458333Y-100549184D01*
X138458333Y-100549184D02*
X138291666Y-100715851D01*
X138291666Y-100715851D02*
X138041666Y-100799184D01*
X138041666Y-100799184D02*
X137874999Y-100799184D01*
X137874999Y-100799184D02*
X137624999Y-100715851D01*
X137624999Y-100715851D02*
X137541666Y-100632517D01*
X137541666Y-100632517D02*
X137541666Y-100049184D01*
X137541666Y-100049184D02*
X137874999Y-100049184D01*
X136791666Y-100799184D02*
X136791666Y-99049184D01*
X136791666Y-99049184D02*
X136208333Y-100299184D01*
X136208333Y-100299184D02*
X135624999Y-99049184D01*
X135624999Y-99049184D02*
X135624999Y-100799184D01*
X133874999Y-100799184D02*
X134874999Y-100799184D01*
X134374999Y-100799184D02*
X134374999Y-99049184D01*
X134374999Y-99049184D02*
X134541666Y-99299184D01*
X134541666Y-99299184D02*
X134708333Y-99465851D01*
X134708333Y-99465851D02*
X134874999Y-99549184D01*
D10*
X100056077Y-94988866D02*
X100008458Y-94941247D01*
X100008458Y-94941247D02*
X99913220Y-94893628D01*
X99913220Y-94893628D02*
X99722744Y-94988866D01*
X99722744Y-94988866D02*
X99627506Y-94941247D01*
X99627506Y-94941247D02*
X99579887Y-94893628D01*
X98675125Y-95369819D02*
X99246553Y-95369819D01*
X98960839Y-95369819D02*
X98960839Y-94369819D01*
X98960839Y-94369819D02*
X99056077Y-94512676D01*
X99056077Y-94512676D02*
X99151315Y-94607914D01*
X99151315Y-94607914D02*
X99246553Y-94655533D01*
X97722744Y-95369819D02*
X98294172Y-95369819D01*
X98008458Y-95369819D02*
X98008458Y-94369819D01*
X98008458Y-94369819D02*
X98103696Y-94512676D01*
X98103696Y-94512676D02*
X98198934Y-94607914D01*
X98198934Y-94607914D02*
X98294172Y-94655533D01*
X97103696Y-94369819D02*
X97008458Y-94369819D01*
X97008458Y-94369819D02*
X96913220Y-94417438D01*
X96913220Y-94417438D02*
X96865601Y-94465057D01*
X96865601Y-94465057D02*
X96817982Y-94560295D01*
X96817982Y-94560295D02*
X96770363Y-94750771D01*
X96770363Y-94750771D02*
X96770363Y-94988866D01*
X96770363Y-94988866D02*
X96817982Y-95179342D01*
X96817982Y-95179342D02*
X96865601Y-95274580D01*
X96865601Y-95274580D02*
X96913220Y-95322200D01*
X96913220Y-95322200D02*
X97008458Y-95369819D01*
X97008458Y-95369819D02*
X97103696Y-95369819D01*
X97103696Y-95369819D02*
X97198934Y-95322200D01*
X97198934Y-95322200D02*
X97246553Y-95274580D01*
X97246553Y-95274580D02*
X97294172Y-95179342D01*
X97294172Y-95179342D02*
X97341791Y-94988866D01*
X97341791Y-94988866D02*
X97341791Y-94750771D01*
X97341791Y-94750771D02*
X97294172Y-94560295D01*
X97294172Y-94560295D02*
X97246553Y-94465057D01*
X97246553Y-94465057D02*
X97198934Y-94417438D01*
X97198934Y-94417438D02*
X97103696Y-94369819D01*
X96341791Y-95369819D02*
X96341791Y-94703152D01*
X96341791Y-94798390D02*
X96294172Y-94750771D01*
X96294172Y-94750771D02*
X96198934Y-94703152D01*
X96198934Y-94703152D02*
X96056077Y-94703152D01*
X96056077Y-94703152D02*
X95960839Y-94750771D01*
X95960839Y-94750771D02*
X95913220Y-94846009D01*
X95913220Y-94846009D02*
X95913220Y-95369819D01*
X95913220Y-94846009D02*
X95865601Y-94750771D01*
X95865601Y-94750771D02*
X95770363Y-94703152D01*
X95770363Y-94703152D02*
X95627506Y-94703152D01*
X95627506Y-94703152D02*
X95532267Y-94750771D01*
X95532267Y-94750771D02*
X95484648Y-94846009D01*
X95484648Y-94846009D02*
X95484648Y-95369819D01*
X95008458Y-95369819D02*
X95008458Y-94703152D01*
X95008458Y-94798390D02*
X94960839Y-94750771D01*
X94960839Y-94750771D02*
X94865601Y-94703152D01*
X94865601Y-94703152D02*
X94722744Y-94703152D01*
X94722744Y-94703152D02*
X94627506Y-94750771D01*
X94627506Y-94750771D02*
X94579887Y-94846009D01*
X94579887Y-94846009D02*
X94579887Y-95369819D01*
X94579887Y-94846009D02*
X94532268Y-94750771D01*
X94532268Y-94750771D02*
X94437030Y-94703152D01*
X94437030Y-94703152D02*
X94294173Y-94703152D01*
X94294173Y-94703152D02*
X94198934Y-94750771D01*
X94198934Y-94750771D02*
X94151315Y-94846009D01*
X94151315Y-94846009D02*
X94151315Y-95369819D01*
X117556077Y-94988866D02*
X117508458Y-94941247D01*
X117508458Y-94941247D02*
X117413220Y-94893628D01*
X117413220Y-94893628D02*
X117222744Y-94988866D01*
X117222744Y-94988866D02*
X117127506Y-94941247D01*
X117127506Y-94941247D02*
X117079887Y-94893628D01*
X116651315Y-95369819D02*
X116460839Y-95369819D01*
X116460839Y-95369819D02*
X116365601Y-95322200D01*
X116365601Y-95322200D02*
X116317982Y-95274580D01*
X116317982Y-95274580D02*
X116222744Y-95131723D01*
X116222744Y-95131723D02*
X116175125Y-94941247D01*
X116175125Y-94941247D02*
X116175125Y-94560295D01*
X116175125Y-94560295D02*
X116222744Y-94465057D01*
X116222744Y-94465057D02*
X116270363Y-94417438D01*
X116270363Y-94417438D02*
X116365601Y-94369819D01*
X116365601Y-94369819D02*
X116556077Y-94369819D01*
X116556077Y-94369819D02*
X116651315Y-94417438D01*
X116651315Y-94417438D02*
X116698934Y-94465057D01*
X116698934Y-94465057D02*
X116746553Y-94560295D01*
X116746553Y-94560295D02*
X116746553Y-94798390D01*
X116746553Y-94798390D02*
X116698934Y-94893628D01*
X116698934Y-94893628D02*
X116651315Y-94941247D01*
X116651315Y-94941247D02*
X116556077Y-94988866D01*
X116556077Y-94988866D02*
X116365601Y-94988866D01*
X116365601Y-94988866D02*
X116270363Y-94941247D01*
X116270363Y-94941247D02*
X116222744Y-94893628D01*
X116222744Y-94893628D02*
X116175125Y-94798390D01*
X115556077Y-94369819D02*
X115460839Y-94369819D01*
X115460839Y-94369819D02*
X115365601Y-94417438D01*
X115365601Y-94417438D02*
X115317982Y-94465057D01*
X115317982Y-94465057D02*
X115270363Y-94560295D01*
X115270363Y-94560295D02*
X115222744Y-94750771D01*
X115222744Y-94750771D02*
X115222744Y-94988866D01*
X115222744Y-94988866D02*
X115270363Y-95179342D01*
X115270363Y-95179342D02*
X115317982Y-95274580D01*
X115317982Y-95274580D02*
X115365601Y-95322200D01*
X115365601Y-95322200D02*
X115460839Y-95369819D01*
X115460839Y-95369819D02*
X115556077Y-95369819D01*
X115556077Y-95369819D02*
X115651315Y-95322200D01*
X115651315Y-95322200D02*
X115698934Y-95274580D01*
X115698934Y-95274580D02*
X115746553Y-95179342D01*
X115746553Y-95179342D02*
X115794172Y-94988866D01*
X115794172Y-94988866D02*
X115794172Y-94750771D01*
X115794172Y-94750771D02*
X115746553Y-94560295D01*
X115746553Y-94560295D02*
X115698934Y-94465057D01*
X115698934Y-94465057D02*
X115651315Y-94417438D01*
X115651315Y-94417438D02*
X115556077Y-94369819D01*
X114794172Y-95369819D02*
X114794172Y-94703152D01*
X114794172Y-94798390D02*
X114746553Y-94750771D01*
X114746553Y-94750771D02*
X114651315Y-94703152D01*
X114651315Y-94703152D02*
X114508458Y-94703152D01*
X114508458Y-94703152D02*
X114413220Y-94750771D01*
X114413220Y-94750771D02*
X114365601Y-94846009D01*
X114365601Y-94846009D02*
X114365601Y-95369819D01*
X114365601Y-94846009D02*
X114317982Y-94750771D01*
X114317982Y-94750771D02*
X114222744Y-94703152D01*
X114222744Y-94703152D02*
X114079887Y-94703152D01*
X114079887Y-94703152D02*
X113984648Y-94750771D01*
X113984648Y-94750771D02*
X113937029Y-94846009D01*
X113937029Y-94846009D02*
X113937029Y-95369819D01*
X113460839Y-95369819D02*
X113460839Y-94703152D01*
X113460839Y-94798390D02*
X113413220Y-94750771D01*
X113413220Y-94750771D02*
X113317982Y-94703152D01*
X113317982Y-94703152D02*
X113175125Y-94703152D01*
X113175125Y-94703152D02*
X113079887Y-94750771D01*
X113079887Y-94750771D02*
X113032268Y-94846009D01*
X113032268Y-94846009D02*
X113032268Y-95369819D01*
X113032268Y-94846009D02*
X112984649Y-94750771D01*
X112984649Y-94750771D02*
X112889411Y-94703152D01*
X112889411Y-94703152D02*
X112746554Y-94703152D01*
X112746554Y-94703152D02*
X112651315Y-94750771D01*
X112651315Y-94750771D02*
X112603696Y-94846009D01*
X112603696Y-94846009D02*
X112603696Y-95369819D01*
D13*
X143701128Y-95254914D02*
X143986843Y-95112057D01*
X143986843Y-95112057D02*
X144415414Y-95112057D01*
X144415414Y-95112057D02*
X144843985Y-95254914D01*
X144843985Y-95254914D02*
X145129700Y-95540628D01*
X145129700Y-95540628D02*
X145272557Y-95826342D01*
X145272557Y-95826342D02*
X145415414Y-96397771D01*
X145415414Y-96397771D02*
X145415414Y-96826342D01*
X145415414Y-96826342D02*
X145272557Y-97397771D01*
X145272557Y-97397771D02*
X145129700Y-97683485D01*
X145129700Y-97683485D02*
X144843985Y-97969200D01*
X144843985Y-97969200D02*
X144415414Y-98112057D01*
X144415414Y-98112057D02*
X144129700Y-98112057D01*
X144129700Y-98112057D02*
X143701128Y-97969200D01*
X143701128Y-97969200D02*
X143558271Y-97826342D01*
X143558271Y-97826342D02*
X143558271Y-96826342D01*
X143558271Y-96826342D02*
X144129700Y-96826342D01*
X142272557Y-98112057D02*
X142272557Y-95112057D01*
X142272557Y-95112057D02*
X141272557Y-97254914D01*
X141272557Y-97254914D02*
X140272557Y-95112057D01*
X140272557Y-95112057D02*
X140272557Y-98112057D01*
X136986843Y-95112057D02*
X135272558Y-95112057D01*
X136129700Y-98112057D02*
X136129700Y-95112057D01*
X132986844Y-96112057D02*
X132986844Y-98112057D01*
X134272558Y-96112057D02*
X134272558Y-97683485D01*
X134272558Y-97683485D02*
X134129701Y-97969200D01*
X134129701Y-97969200D02*
X133843986Y-98112057D01*
X133843986Y-98112057D02*
X133415415Y-98112057D01*
X133415415Y-98112057D02*
X133129701Y-97969200D01*
X133129701Y-97969200D02*
X132986844Y-97826342D01*
X131558272Y-98112057D02*
X131558272Y-95112057D01*
X131558272Y-96254914D02*
X131272558Y-96112057D01*
X131272558Y-96112057D02*
X130701129Y-96112057D01*
X130701129Y-96112057D02*
X130415415Y-96254914D01*
X130415415Y-96254914D02*
X130272558Y-96397771D01*
X130272558Y-96397771D02*
X130129700Y-96683485D01*
X130129700Y-96683485D02*
X130129700Y-97540628D01*
X130129700Y-97540628D02*
X130272558Y-97826342D01*
X130272558Y-97826342D02*
X130415415Y-97969200D01*
X130415415Y-97969200D02*
X130701129Y-98112057D01*
X130701129Y-98112057D02*
X131272558Y-98112057D01*
X131272558Y-98112057D02*
X131558272Y-97969200D01*
X127701129Y-97969200D02*
X127986843Y-98112057D01*
X127986843Y-98112057D02*
X128558272Y-98112057D01*
X128558272Y-98112057D02*
X128843986Y-97969200D01*
X128843986Y-97969200D02*
X128986843Y-97683485D01*
X128986843Y-97683485D02*
X128986843Y-96540628D01*
X128986843Y-96540628D02*
X128843986Y-96254914D01*
X128843986Y-96254914D02*
X128558272Y-96112057D01*
X128558272Y-96112057D02*
X127986843Y-96112057D01*
X127986843Y-96112057D02*
X127701129Y-96254914D01*
X127701129Y-96254914D02*
X127558272Y-96540628D01*
X127558272Y-96540628D02*
X127558272Y-96826342D01*
X127558272Y-96826342D02*
X128986843Y-97112057D01*
D12*
X181701755Y-100775434D02*
X181701755Y-99025434D01*
X181701755Y-99858767D02*
X180701755Y-99858767D01*
X180701755Y-100775434D02*
X180701755Y-99025434D01*
X179868422Y-100775434D02*
X179868422Y-99608767D01*
X179868422Y-99025434D02*
X179951755Y-99108767D01*
X179951755Y-99108767D02*
X179868422Y-99192101D01*
X179868422Y-99192101D02*
X179785089Y-99108767D01*
X179785089Y-99108767D02*
X179868422Y-99025434D01*
X179868422Y-99025434D02*
X179868422Y-99192101D01*
X178285089Y-99608767D02*
X178285089Y-101025434D01*
X178285089Y-101025434D02*
X178368422Y-101192101D01*
X178368422Y-101192101D02*
X178451756Y-101275434D01*
X178451756Y-101275434D02*
X178618422Y-101358767D01*
X178618422Y-101358767D02*
X178868422Y-101358767D01*
X178868422Y-101358767D02*
X179035089Y-101275434D01*
X178285089Y-100692101D02*
X178451756Y-100775434D01*
X178451756Y-100775434D02*
X178785089Y-100775434D01*
X178785089Y-100775434D02*
X178951756Y-100692101D01*
X178951756Y-100692101D02*
X179035089Y-100608767D01*
X179035089Y-100608767D02*
X179118422Y-100442101D01*
X179118422Y-100442101D02*
X179118422Y-99942101D01*
X179118422Y-99942101D02*
X179035089Y-99775434D01*
X179035089Y-99775434D02*
X178951756Y-99692101D01*
X178951756Y-99692101D02*
X178785089Y-99608767D01*
X178785089Y-99608767D02*
X178451756Y-99608767D01*
X178451756Y-99608767D02*
X178285089Y-99692101D01*
X177451756Y-100775434D02*
X177451756Y-99025434D01*
X176701756Y-100775434D02*
X176701756Y-99858767D01*
X176701756Y-99858767D02*
X176785089Y-99692101D01*
X176785089Y-99692101D02*
X176951756Y-99608767D01*
X176951756Y-99608767D02*
X177201756Y-99608767D01*
X177201756Y-99608767D02*
X177368423Y-99692101D01*
X177368423Y-99692101D02*
X177451756Y-99775434D01*
X174785090Y-99025434D02*
X174201757Y-100775434D01*
X174201757Y-100775434D02*
X173618423Y-99025434D01*
X172785090Y-100775434D02*
X172951757Y-100692101D01*
X172951757Y-100692101D02*
X173035090Y-100608767D01*
X173035090Y-100608767D02*
X173118423Y-100442101D01*
X173118423Y-100442101D02*
X173118423Y-99942101D01*
X173118423Y-99942101D02*
X173035090Y-99775434D01*
X173035090Y-99775434D02*
X172951757Y-99692101D01*
X172951757Y-99692101D02*
X172785090Y-99608767D01*
X172785090Y-99608767D02*
X172535090Y-99608767D01*
X172535090Y-99608767D02*
X172368423Y-99692101D01*
X172368423Y-99692101D02*
X172285090Y-99775434D01*
X172285090Y-99775434D02*
X172201757Y-99942101D01*
X172201757Y-99942101D02*
X172201757Y-100442101D01*
X172201757Y-100442101D02*
X172285090Y-100608767D01*
X172285090Y-100608767D02*
X172368423Y-100692101D01*
X172368423Y-100692101D02*
X172535090Y-100775434D01*
X172535090Y-100775434D02*
X172785090Y-100775434D01*
X171201757Y-100775434D02*
X171368424Y-100692101D01*
X171368424Y-100692101D02*
X171451757Y-100525434D01*
X171451757Y-100525434D02*
X171451757Y-99025434D01*
X170785090Y-99608767D02*
X170118423Y-99608767D01*
X170535090Y-99025434D02*
X170535090Y-100525434D01*
X170535090Y-100525434D02*
X170451757Y-100692101D01*
X170451757Y-100692101D02*
X170285090Y-100775434D01*
X170285090Y-100775434D02*
X170118423Y-100775434D01*
X168785090Y-100775434D02*
X168785090Y-99858767D01*
X168785090Y-99858767D02*
X168868423Y-99692101D01*
X168868423Y-99692101D02*
X169035090Y-99608767D01*
X169035090Y-99608767D02*
X169368423Y-99608767D01*
X169368423Y-99608767D02*
X169535090Y-99692101D01*
X168785090Y-100692101D02*
X168951757Y-100775434D01*
X168951757Y-100775434D02*
X169368423Y-100775434D01*
X169368423Y-100775434D02*
X169535090Y-100692101D01*
X169535090Y-100692101D02*
X169618423Y-100525434D01*
X169618423Y-100525434D02*
X169618423Y-100358767D01*
X169618423Y-100358767D02*
X169535090Y-100192101D01*
X169535090Y-100192101D02*
X169368423Y-100108767D01*
X169368423Y-100108767D02*
X168951757Y-100108767D01*
X168951757Y-100108767D02*
X168785090Y-100025434D01*
X167201757Y-99608767D02*
X167201757Y-101025434D01*
X167201757Y-101025434D02*
X167285090Y-101192101D01*
X167285090Y-101192101D02*
X167368424Y-101275434D01*
X167368424Y-101275434D02*
X167535090Y-101358767D01*
X167535090Y-101358767D02*
X167785090Y-101358767D01*
X167785090Y-101358767D02*
X167951757Y-101275434D01*
X167201757Y-100692101D02*
X167368424Y-100775434D01*
X167368424Y-100775434D02*
X167701757Y-100775434D01*
X167701757Y-100775434D02*
X167868424Y-100692101D01*
X167868424Y-100692101D02*
X167951757Y-100608767D01*
X167951757Y-100608767D02*
X168035090Y-100442101D01*
X168035090Y-100442101D02*
X168035090Y-99942101D01*
X168035090Y-99942101D02*
X167951757Y-99775434D01*
X167951757Y-99775434D02*
X167868424Y-99692101D01*
X167868424Y-99692101D02*
X167701757Y-99608767D01*
X167701757Y-99608767D02*
X167368424Y-99608767D01*
X167368424Y-99608767D02*
X167201757Y-99692101D01*
X165701757Y-100692101D02*
X165868424Y-100775434D01*
X165868424Y-100775434D02*
X166201757Y-100775434D01*
X166201757Y-100775434D02*
X166368424Y-100692101D01*
X166368424Y-100692101D02*
X166451757Y-100525434D01*
X166451757Y-100525434D02*
X166451757Y-99858767D01*
X166451757Y-99858767D02*
X166368424Y-99692101D01*
X166368424Y-99692101D02*
X166201757Y-99608767D01*
X166201757Y-99608767D02*
X165868424Y-99608767D01*
X165868424Y-99608767D02*
X165701757Y-99692101D01*
X165701757Y-99692101D02*
X165618424Y-99858767D01*
X165618424Y-99858767D02*
X165618424Y-100025434D01*
X165618424Y-100025434D02*
X166451757Y-100192101D01*
D13*
X181772557Y-98112057D02*
X181772557Y-95112057D01*
X181772557Y-95112057D02*
X181058271Y-95112057D01*
X181058271Y-95112057D02*
X180629700Y-95254914D01*
X180629700Y-95254914D02*
X180343985Y-95540628D01*
X180343985Y-95540628D02*
X180201128Y-95826342D01*
X180201128Y-95826342D02*
X180058271Y-96397771D01*
X180058271Y-96397771D02*
X180058271Y-96826342D01*
X180058271Y-96826342D02*
X180201128Y-97397771D01*
X180201128Y-97397771D02*
X180343985Y-97683485D01*
X180343985Y-97683485D02*
X180629700Y-97969200D01*
X180629700Y-97969200D02*
X181058271Y-98112057D01*
X181058271Y-98112057D02*
X181772557Y-98112057D01*
X178915414Y-97254914D02*
X177486843Y-97254914D01*
X179201128Y-98112057D02*
X178201128Y-95112057D01*
X178201128Y-95112057D02*
X177201128Y-98112057D01*
X176201128Y-98112057D02*
X176201128Y-95112057D01*
X176201128Y-95112057D02*
X174486842Y-98112057D01*
X174486842Y-98112057D02*
X174486842Y-95112057D01*
X171486842Y-95254914D02*
X171772557Y-95112057D01*
X171772557Y-95112057D02*
X172201128Y-95112057D01*
X172201128Y-95112057D02*
X172629699Y-95254914D01*
X172629699Y-95254914D02*
X172915414Y-95540628D01*
X172915414Y-95540628D02*
X173058271Y-95826342D01*
X173058271Y-95826342D02*
X173201128Y-96397771D01*
X173201128Y-96397771D02*
X173201128Y-96826342D01*
X173201128Y-96826342D02*
X173058271Y-97397771D01*
X173058271Y-97397771D02*
X172915414Y-97683485D01*
X172915414Y-97683485D02*
X172629699Y-97969200D01*
X172629699Y-97969200D02*
X172201128Y-98112057D01*
X172201128Y-98112057D02*
X171915414Y-98112057D01*
X171915414Y-98112057D02*
X171486842Y-97969200D01*
X171486842Y-97969200D02*
X171343985Y-97826342D01*
X171343985Y-97826342D02*
X171343985Y-96826342D01*
X171343985Y-96826342D02*
X171915414Y-96826342D01*
X170058271Y-96540628D02*
X169058271Y-96540628D01*
X168629699Y-98112057D02*
X170058271Y-98112057D01*
X170058271Y-98112057D02*
X170058271Y-95112057D01*
X170058271Y-95112057D02*
X168629699Y-95112057D01*
X165629699Y-98112057D02*
X166629699Y-96683485D01*
X167343985Y-98112057D02*
X167343985Y-95112057D01*
X167343985Y-95112057D02*
X166201128Y-95112057D01*
X166201128Y-95112057D02*
X165915413Y-95254914D01*
X165915413Y-95254914D02*
X165772556Y-95397771D01*
X165772556Y-95397771D02*
X165629699Y-95683485D01*
X165629699Y-95683485D02*
X165629699Y-96112057D01*
X165629699Y-96112057D02*
X165772556Y-96397771D01*
X165772556Y-96397771D02*
X165915413Y-96540628D01*
X165915413Y-96540628D02*
X166201128Y-96683485D01*
X166201128Y-96683485D02*
X167343985Y-96683485D01*
D10*
X93250000Y-94000000D02*
X100750000Y-94000000D01*
X93250000Y-95000000D02*
X93250000Y-94000000D01*
X93250000Y-101000000D02*
X93250000Y-102000000D01*
X100750000Y-95000000D02*
X100750000Y-94000000D01*
X100750000Y-101000000D02*
X100750000Y-102000000D01*
X100750000Y-102000000D02*
X93250000Y-102000000D01*
X102750000Y-93000000D02*
X154250000Y-93000000D01*
X102750000Y-95000000D02*
X102750000Y-93000000D01*
X102750000Y-101000000D02*
X102750000Y-103000000D01*
X102750000Y-103000000D02*
X154250000Y-103000000D01*
X111250000Y-94000000D02*
X118750000Y-94000000D01*
X111250000Y-95000000D02*
X111250000Y-94000000D01*
X111250000Y-101000000D02*
X111250000Y-102000000D01*
X118750000Y-95000000D02*
X118750000Y-94000000D01*
X118750000Y-101000000D02*
X118750000Y-102000000D01*
X118750000Y-102000000D02*
X111250000Y-102000000D01*
X120750000Y-95000000D02*
X120750000Y-93000000D01*
X120750000Y-101000000D02*
X120750000Y-103000000D01*
X161250000Y-93000000D02*
X194750000Y-93000000D01*
X161250000Y-103000000D02*
X194750000Y-103000000D01*
D14*
X190750000Y-98000000D02*
X192750000Y-98000000D01*
X191750000Y-99000000D02*
X191750000Y-97000000D01*
D10*
X194750000Y-95000000D02*
X194750000Y-93000000D01*
X194750000Y-101000000D02*
X194750000Y-103000000D01*
X196750000Y-94000000D02*
X204250000Y-94000000D01*
X196750000Y-95000000D02*
X196750000Y-94000000D01*
X196750000Y-101000000D02*
X196750000Y-102000000D01*
X204250000Y-95000000D02*
X204250000Y-94000000D01*
X204250000Y-101000000D02*
X204250000Y-102000000D01*
X204250000Y-102000000D02*
X196750000Y-102000000D01*
X163750000Y-98000000D02*
G75*
G02*
X151750000Y-98000000I-6000000J0D01*
G01*
X151750000Y-98000000D02*
G75*
G02*
X163750000Y-98000000I6000000J0D01*
G01*
X193750000Y-98000000D02*
G75*
G02*
X189750000Y-98000000I-2000000J0D01*
G01*
X189750000Y-98000000D02*
G75*
G02*
X193750000Y-98000000I2000000J0D01*
G01*
D11*
G36*
X157835364Y-97024148D02*
G01*
X157886652Y-97028104D01*
X157937233Y-97034617D01*
X157987040Y-97043621D01*
X158036008Y-97055049D01*
X158084070Y-97068836D01*
X158131161Y-97084915D01*
X158177213Y-97103221D01*
X158222162Y-97123688D01*
X158265941Y-97146249D01*
X158308484Y-97170838D01*
X158349725Y-97197390D01*
X158389598Y-97225838D01*
X158428037Y-97256116D01*
X158464976Y-97288159D01*
X158500349Y-97321900D01*
X158534089Y-97357273D01*
X158566132Y-97394212D01*
X158596410Y-97432651D01*
X158624858Y-97472524D01*
X158651410Y-97513765D01*
X158675999Y-97556308D01*
X158698560Y-97600087D01*
X158719027Y-97645035D01*
X158737333Y-97691088D01*
X158753412Y-97738178D01*
X158767199Y-97786240D01*
X158778628Y-97835208D01*
X158787631Y-97885015D01*
X158794144Y-97935596D01*
X158798100Y-97986885D01*
X158799434Y-98038815D01*
X158798100Y-98090745D01*
X158794144Y-98142033D01*
X158787631Y-98192614D01*
X158778628Y-98242422D01*
X158767199Y-98291389D01*
X158753412Y-98339451D01*
X158737333Y-98386542D01*
X158719027Y-98432594D01*
X158698560Y-98477543D01*
X158675999Y-98521322D01*
X158651410Y-98563865D01*
X158624858Y-98605106D01*
X158596410Y-98644979D01*
X158566132Y-98683418D01*
X158534089Y-98720357D01*
X158500349Y-98755730D01*
X158464976Y-98789470D01*
X158428037Y-98821513D01*
X158389598Y-98851791D01*
X158349725Y-98880239D01*
X158308484Y-98906791D01*
X158265941Y-98931380D01*
X158222162Y-98953941D01*
X158177213Y-98974408D01*
X158131161Y-98992714D01*
X158084070Y-99008793D01*
X158036008Y-99022580D01*
X157987040Y-99034009D01*
X157937233Y-99043012D01*
X157886652Y-99049525D01*
X157835364Y-99053481D01*
X157783434Y-99054815D01*
X157731504Y-99053481D01*
X157680215Y-99049525D01*
X157629634Y-99043012D01*
X157579827Y-99034009D01*
X157530859Y-99022580D01*
X157482797Y-99008793D01*
X157435707Y-98992714D01*
X157389654Y-98974408D01*
X157344705Y-98953941D01*
X157300927Y-98931380D01*
X157258384Y-98906791D01*
X157217143Y-98880239D01*
X157177270Y-98851791D01*
X157138830Y-98821513D01*
X157101892Y-98789470D01*
X157066519Y-98755730D01*
X157032778Y-98720357D01*
X157000735Y-98683418D01*
X156970457Y-98644979D01*
X156942009Y-98605106D01*
X156915457Y-98563865D01*
X156890868Y-98521322D01*
X156868307Y-98477543D01*
X156847841Y-98432594D01*
X156829535Y-98386542D01*
X156813455Y-98339451D01*
X156799668Y-98291389D01*
X156788240Y-98242422D01*
X156779236Y-98192614D01*
X156772723Y-98142033D01*
X156768767Y-98090745D01*
X156767434Y-98038815D01*
X156768767Y-97986885D01*
X156772723Y-97935596D01*
X156779236Y-97885015D01*
X156788240Y-97835208D01*
X156799668Y-97786240D01*
X156813455Y-97738178D01*
X156829535Y-97691088D01*
X156847841Y-97645035D01*
X156868307Y-97600087D01*
X156890868Y-97556308D01*
X156915457Y-97513765D01*
X156942009Y-97472524D01*
X156970457Y-97432651D01*
X157000735Y-97394212D01*
X157032778Y-97357273D01*
X157066519Y-97321900D01*
X157101892Y-97288159D01*
X157138830Y-97256116D01*
X157177270Y-97225838D01*
X157217143Y-97197390D01*
X157258384Y-97170838D01*
X157300927Y-97146249D01*
X157344705Y-97123688D01*
X157389654Y-97103221D01*
X157435707Y-97084915D01*
X157482797Y-97068836D01*
X157530859Y-97055049D01*
X157579827Y-97043621D01*
X157629634Y-97034617D01*
X157680215Y-97028104D01*
X157731504Y-97024148D01*
X157783434Y-97022815D01*
X157835364Y-97024148D01*
G37*
G36*
X155325590Y-94070165D02*
G01*
X155348778Y-94073017D01*
X155371583Y-94077434D01*
X155393934Y-94083377D01*
X155415758Y-94090806D01*
X155436983Y-94099682D01*
X155457537Y-94109965D01*
X155477347Y-94121616D01*
X155496342Y-94134597D01*
X155514448Y-94148867D01*
X155531594Y-94164388D01*
X155547707Y-94181120D01*
X155562716Y-94199023D01*
X155576546Y-94218060D01*
X155589128Y-94238189D01*
X156781742Y-96303886D01*
X156789148Y-96317411D01*
X156795881Y-96331142D01*
X156801947Y-96345057D01*
X156807348Y-96359135D01*
X156812089Y-96373356D01*
X156816174Y-96387699D01*
X156819606Y-96402142D01*
X156822388Y-96416664D01*
X156826023Y-96445861D01*
X156827106Y-96475121D01*
X156825670Y-96504277D01*
X156821744Y-96533159D01*
X156815359Y-96561599D01*
X156806545Y-96589427D01*
X156795333Y-96616476D01*
X156781752Y-96642577D01*
X156774083Y-96655218D01*
X156765833Y-96667560D01*
X156757006Y-96679580D01*
X156747607Y-96691257D01*
X156737638Y-96702571D01*
X156727103Y-96713500D01*
X156716007Y-96724024D01*
X156704353Y-96734120D01*
X156646888Y-96783897D01*
X156591910Y-96836006D01*
X156539474Y-96890354D01*
X156489636Y-96946842D01*
X156442452Y-97005374D01*
X156397976Y-97065855D01*
X156356265Y-97128187D01*
X156317373Y-97192275D01*
X156281357Y-97258023D01*
X156248272Y-97325333D01*
X156218173Y-97394109D01*
X156191116Y-97464256D01*
X156167157Y-97535677D01*
X156146350Y-97608275D01*
X156128751Y-97681954D01*
X156114417Y-97756618D01*
X156111505Y-97771766D01*
X156107945Y-97786644D01*
X156103751Y-97801239D01*
X156098941Y-97815536D01*
X156093531Y-97829522D01*
X156087537Y-97843183D01*
X156080975Y-97856505D01*
X156073863Y-97869474D01*
X156066216Y-97882076D01*
X156058051Y-97894298D01*
X156049385Y-97906126D01*
X156040232Y-97917546D01*
X156030611Y-97928543D01*
X156020537Y-97939105D01*
X156010027Y-97949217D01*
X155999097Y-97958865D01*
X155987763Y-97968036D01*
X155976042Y-97976715D01*
X155963950Y-97984890D01*
X155951504Y-97992546D01*
X155938720Y-97999669D01*
X155925614Y-98006245D01*
X155912203Y-98012261D01*
X155898504Y-98017702D01*
X155884531Y-98022555D01*
X155870303Y-98026807D01*
X155855834Y-98030442D01*
X155841143Y-98033448D01*
X155826244Y-98035810D01*
X155811155Y-98037515D01*
X155795892Y-98038548D01*
X155780470Y-98038897D01*
X153395199Y-98038897D01*
X153377564Y-98038436D01*
X153360061Y-98037067D01*
X153342721Y-98034803D01*
X153325578Y-98031659D01*
X153308662Y-98027648D01*
X153292005Y-98022784D01*
X153275639Y-98017081D01*
X153259596Y-98010552D01*
X153243908Y-98003213D01*
X153228605Y-97995076D01*
X153213721Y-97986156D01*
X153199287Y-97976466D01*
X153185334Y-97966021D01*
X153171895Y-97954834D01*
X153159001Y-97942919D01*
X153146684Y-97930290D01*
X153135040Y-97917037D01*
X153124153Y-97903264D01*
X153114033Y-97889004D01*
X153104693Y-97874288D01*
X153096143Y-97859151D01*
X153088394Y-97843625D01*
X153081460Y-97827741D01*
X153075350Y-97811535D01*
X153070076Y-97795037D01*
X153065649Y-97778280D01*
X153062082Y-97761298D01*
X153059384Y-97744124D01*
X153057569Y-97726789D01*
X153056646Y-97709327D01*
X153056629Y-97691771D01*
X153057527Y-97674153D01*
X153085716Y-97407485D01*
X153128650Y-97144318D01*
X153186021Y-96885189D01*
X153257518Y-96630634D01*
X153342831Y-96381191D01*
X153441649Y-96137395D01*
X153553664Y-95899783D01*
X153678564Y-95668892D01*
X153816040Y-95445258D01*
X153965781Y-95229418D01*
X154127478Y-95021909D01*
X154300821Y-94823267D01*
X154485500Y-94634029D01*
X154681204Y-94454730D01*
X154887624Y-94285909D01*
X155104449Y-94128101D01*
X155114200Y-94121662D01*
X155124147Y-94115576D01*
X155134280Y-94109845D01*
X155144588Y-94104474D01*
X155155062Y-94099465D01*
X155165693Y-94094822D01*
X155176470Y-94090548D01*
X155187384Y-94086646D01*
X155198425Y-94083120D01*
X155209584Y-94079973D01*
X155220850Y-94077208D01*
X155232214Y-94074829D01*
X155243666Y-94072838D01*
X155255196Y-94071240D01*
X155266796Y-94070037D01*
X155278454Y-94069233D01*
X155278359Y-94069311D01*
X155302093Y-94068916D01*
X155325590Y-94070165D01*
G37*
G36*
X160273645Y-94074460D02*
G01*
X160285547Y-94074877D01*
X160285547Y-94074891D01*
X160285546Y-94074905D01*
X160285545Y-94074933D01*
X160297216Y-94075750D01*
X160308828Y-94076966D01*
X160320370Y-94078578D01*
X160331834Y-94080584D01*
X160343208Y-94082979D01*
X160354484Y-94085760D01*
X160365652Y-94088924D01*
X160376702Y-94092468D01*
X160387623Y-94096389D01*
X160398407Y-94100682D01*
X160409044Y-94105346D01*
X160419523Y-94110375D01*
X160429836Y-94115768D01*
X160439972Y-94121521D01*
X160449921Y-94127630D01*
X160459674Y-94134092D01*
X160675710Y-94291876D01*
X160881375Y-94460612D01*
X161076360Y-94639766D01*
X161260359Y-94828804D01*
X161433064Y-95027194D01*
X161594167Y-95234401D01*
X161743361Y-95449891D01*
X161880339Y-95673131D01*
X162004792Y-95903587D01*
X162116413Y-96140726D01*
X162214894Y-96384013D01*
X162299928Y-96632916D01*
X162371208Y-96886900D01*
X162428425Y-97145433D01*
X162471272Y-97407979D01*
X162499443Y-97674005D01*
X162500345Y-97691626D01*
X162500331Y-97709186D01*
X162499413Y-97726650D01*
X162497601Y-97743988D01*
X162494907Y-97761166D01*
X162491342Y-97778151D01*
X162486918Y-97794911D01*
X162481646Y-97811413D01*
X162475538Y-97827623D01*
X162468605Y-97843510D01*
X162460858Y-97859041D01*
X162452309Y-97874182D01*
X162442969Y-97888901D01*
X162432850Y-97903165D01*
X162421963Y-97916942D01*
X162410319Y-97930198D01*
X162398001Y-97942831D01*
X162385106Y-97954749D01*
X162371665Y-97965939D01*
X162357711Y-97976388D01*
X162343275Y-97986080D01*
X162328389Y-97995003D01*
X162313085Y-98003142D01*
X162297394Y-98010483D01*
X162281349Y-98017013D01*
X162264981Y-98022718D01*
X162248321Y-98027583D01*
X162231403Y-98031595D01*
X162214256Y-98034740D01*
X162196914Y-98037004D01*
X162179409Y-98038373D01*
X162161771Y-98038834D01*
X159783908Y-98038834D01*
X159768495Y-98038486D01*
X159753241Y-98037454D01*
X159738160Y-98035751D01*
X159723269Y-98033391D01*
X159708585Y-98030389D01*
X159694125Y-98026757D01*
X159679903Y-98022511D01*
X159665937Y-98017663D01*
X159652243Y-98012227D01*
X159638838Y-98006218D01*
X159625738Y-97999648D01*
X159612958Y-97992533D01*
X159600516Y-97984885D01*
X159588428Y-97976718D01*
X159576711Y-97968047D01*
X159565379Y-97958885D01*
X159554451Y-97949246D01*
X159543942Y-97939144D01*
X159533869Y-97928593D01*
X159524248Y-97917605D01*
X159515095Y-97906196D01*
X159506427Y-97894379D01*
X159498259Y-97882168D01*
X159490610Y-97869576D01*
X159483494Y-97856618D01*
X159476928Y-97843307D01*
X159470929Y-97829658D01*
X159465513Y-97815683D01*
X159460696Y-97801397D01*
X159456494Y-97786813D01*
X159452925Y-97771946D01*
X159450004Y-97756809D01*
X159435638Y-97682299D01*
X159418021Y-97608772D01*
X159397207Y-97536323D01*
X159373253Y-97465048D01*
X159346212Y-97395044D01*
X159316141Y-97326406D01*
X159283095Y-97259229D01*
X159247129Y-97193609D01*
X159208299Y-97129643D01*
X159166660Y-97067426D01*
X159122267Y-97007054D01*
X159075176Y-96948622D01*
X159025442Y-96892227D01*
X158973120Y-96837963D01*
X158918266Y-96785928D01*
X158860935Y-96736216D01*
X158849294Y-96726116D01*
X158838210Y-96715590D01*
X158827688Y-96704659D01*
X158817731Y-96693344D01*
X158808343Y-96681666D01*
X158799527Y-96669646D01*
X158791289Y-96657305D01*
X158783630Y-96644665D01*
X158776556Y-96631745D01*
X158770069Y-96618568D01*
X158764175Y-96605155D01*
X158758875Y-96591525D01*
X158754175Y-96577702D01*
X158750078Y-96563705D01*
X158746588Y-96549555D01*
X158743708Y-96535275D01*
X158741442Y-96520884D01*
X158739795Y-96506403D01*
X158738770Y-96491855D01*
X158738370Y-96477260D01*
X158738599Y-96462638D01*
X158739462Y-96448012D01*
X158740962Y-96433402D01*
X158743103Y-96418829D01*
X158745888Y-96404314D01*
X158749322Y-96389878D01*
X158753408Y-96375543D01*
X158758150Y-96361330D01*
X158763551Y-96347258D01*
X158769616Y-96333351D01*
X158776348Y-96319627D01*
X158783751Y-96306110D01*
X159974461Y-94243715D01*
X159980597Y-94233508D01*
X159987055Y-94223569D01*
X159993826Y-94213905D01*
X160000900Y-94204519D01*
X160008270Y-94195418D01*
X160015925Y-94186604D01*
X160023857Y-94178085D01*
X160032056Y-94169863D01*
X160040514Y-94161945D01*
X160049221Y-94154336D01*
X160058169Y-94147039D01*
X160067348Y-94140061D01*
X160076749Y-94133406D01*
X160086363Y-94127079D01*
X160096182Y-94121084D01*
X160106195Y-94115428D01*
X160116395Y-94110114D01*
X160126771Y-94105148D01*
X160137316Y-94100534D01*
X160148019Y-94096278D01*
X160158872Y-94092384D01*
X160169866Y-94088858D01*
X160180991Y-94085703D01*
X160192239Y-94082926D01*
X160203600Y-94080531D01*
X160215066Y-94078523D01*
X160226627Y-94076907D01*
X160238275Y-94075688D01*
X160250000Y-94074870D01*
X160261793Y-94074459D01*
X160273645Y-94074460D01*
G37*
G36*
X183420797Y-93851504D02*
G01*
X183431161Y-93851936D01*
X183441549Y-93852735D01*
X183451954Y-93853904D01*
X183451961Y-93853915D01*
X183462133Y-93855420D01*
X183472225Y-93857273D01*
X183482230Y-93859469D01*
X183492138Y-93862006D01*
X183501941Y-93864880D01*
X183511631Y-93868087D01*
X183521200Y-93871623D01*
X183530638Y-93875486D01*
X183539938Y-93879671D01*
X183549091Y-93884175D01*
X183558088Y-93888994D01*
X183566922Y-93894124D01*
X183575584Y-93899563D01*
X183584066Y-93905306D01*
X183592358Y-93911349D01*
X183600454Y-93917690D01*
X188341786Y-97770023D01*
X188357234Y-97783487D01*
X188371596Y-97797858D01*
X188384850Y-97813070D01*
X188396971Y-97829059D01*
X188407936Y-97845759D01*
X188417723Y-97863105D01*
X188426306Y-97881032D01*
X188433663Y-97899475D01*
X188439770Y-97918368D01*
X188444604Y-97937647D01*
X188448142Y-97957247D01*
X188450359Y-97977102D01*
X188451232Y-97997147D01*
X188450739Y-98017316D01*
X188448854Y-98037546D01*
X188445556Y-98057771D01*
X188440872Y-98077720D01*
X188434880Y-98097134D01*
X188427626Y-98115961D01*
X188419156Y-98134149D01*
X188409517Y-98151648D01*
X188398756Y-98168407D01*
X188386919Y-98184373D01*
X188374053Y-98199497D01*
X188360204Y-98213727D01*
X188345420Y-98227011D01*
X188329746Y-98239298D01*
X188313230Y-98250538D01*
X188295917Y-98260679D01*
X188277855Y-98269669D01*
X188259090Y-98277458D01*
X188239668Y-98283994D01*
X186750000Y-98728606D01*
X188413634Y-101707867D01*
X188419835Y-101719590D01*
X188425466Y-101731481D01*
X188430531Y-101743522D01*
X188435032Y-101755696D01*
X188438974Y-101767985D01*
X188442358Y-101780371D01*
X188447469Y-101805367D01*
X188450391Y-101830541D01*
X188451151Y-101855755D01*
X188449773Y-101880867D01*
X188446284Y-101905736D01*
X188440709Y-101930223D01*
X188433075Y-101954186D01*
X188423407Y-101977485D01*
X188411731Y-101999979D01*
X188398073Y-102021527D01*
X188390508Y-102031903D01*
X188382458Y-102041990D01*
X188373925Y-102051770D01*
X188364913Y-102061226D01*
X188355424Y-102070341D01*
X188345463Y-102079095D01*
X188335124Y-102087401D01*
X188324512Y-102095179D01*
X188313646Y-102102428D01*
X188302543Y-102109150D01*
X188291220Y-102115344D01*
X188279697Y-102121009D01*
X188267991Y-102126146D01*
X188256119Y-102130753D01*
X188244100Y-102134833D01*
X188231951Y-102138383D01*
X188219690Y-102141404D01*
X188207335Y-102143895D01*
X188182416Y-102147290D01*
X188157335Y-102148566D01*
X188132237Y-102147722D01*
X188107263Y-102144756D01*
X188094867Y-102142477D01*
X188082556Y-102139667D01*
X188070348Y-102136326D01*
X188058260Y-102132454D01*
X188046311Y-102128051D01*
X188034518Y-102123116D01*
X188022899Y-102117650D01*
X188011472Y-102111652D01*
X188000255Y-102105122D01*
X187989266Y-102098060D01*
X187978522Y-102090466D01*
X187968041Y-102082339D01*
X183226708Y-98230007D01*
X183211261Y-98216542D01*
X183196899Y-98202171D01*
X183183645Y-98186959D01*
X183171524Y-98170970D01*
X183160559Y-98154270D01*
X183150772Y-98136924D01*
X183142189Y-98118997D01*
X183134832Y-98100554D01*
X183128725Y-98081661D01*
X183123890Y-98062382D01*
X183120353Y-98042782D01*
X183118136Y-98022928D01*
X183117262Y-98002883D01*
X183117756Y-97982713D01*
X183119640Y-97962483D01*
X183122939Y-97942258D01*
X183127622Y-97922309D01*
X183133614Y-97902895D01*
X183140869Y-97884069D01*
X183149339Y-97865880D01*
X183158977Y-97848381D01*
X183169739Y-97831623D01*
X183181576Y-97815656D01*
X183194442Y-97800532D01*
X183208290Y-97786302D01*
X183223075Y-97773018D01*
X183238749Y-97760731D01*
X183255265Y-97749491D01*
X183272578Y-97739350D01*
X183290640Y-97730360D01*
X183309405Y-97722571D01*
X183328827Y-97716035D01*
X184818494Y-97271424D01*
X183154861Y-94292163D01*
X183145334Y-94273576D01*
X183137204Y-94254538D01*
X183130469Y-94235121D01*
X183125125Y-94215398D01*
X183121170Y-94195443D01*
X183118599Y-94175329D01*
X183117411Y-94155128D01*
X183117601Y-94134914D01*
X183119167Y-94114760D01*
X183122105Y-94094739D01*
X183126412Y-94074924D01*
X183132086Y-94055387D01*
X183139122Y-94036203D01*
X183147517Y-94017445D01*
X183157269Y-93999184D01*
X183168375Y-93981495D01*
X183174401Y-93972934D01*
X183180694Y-93964629D01*
X183187245Y-93956586D01*
X183194045Y-93948809D01*
X183201087Y-93941300D01*
X183208362Y-93934063D01*
X183215861Y-93927104D01*
X183223577Y-93920424D01*
X183231500Y-93914028D01*
X183239623Y-93907920D01*
X183247938Y-93902103D01*
X183256435Y-93896581D01*
X183265107Y-93891358D01*
X183273945Y-93886438D01*
X183292087Y-93877521D01*
X183310793Y-93869859D01*
X183320338Y-93866508D01*
X183329998Y-93863483D01*
X183339767Y-93860786D01*
X183349635Y-93858422D01*
X183359594Y-93856395D01*
X183369636Y-93854707D01*
X183379752Y-93853364D01*
X183389935Y-93852368D01*
X183400176Y-93851723D01*
X183410466Y-93851434D01*
X183420797Y-93851504D01*
G37*
G36*
X157094148Y-99600450D02*
G01*
X157109025Y-99601507D01*
X157123910Y-99603230D01*
X157138781Y-99605628D01*
X157153618Y-99608706D01*
X157168401Y-99612474D01*
X157183108Y-99616937D01*
X157197720Y-99622104D01*
X157232950Y-99635023D01*
X157268425Y-99647147D01*
X157304134Y-99658471D01*
X157340063Y-99668995D01*
X157376198Y-99678716D01*
X157412525Y-99687631D01*
X157449032Y-99695740D01*
X157485705Y-99703039D01*
X157522530Y-99709526D01*
X157559494Y-99715199D01*
X157596583Y-99720057D01*
X157633785Y-99724096D01*
X157671085Y-99727315D01*
X157708471Y-99729712D01*
X157745928Y-99731284D01*
X157783444Y-99732030D01*
X157820958Y-99731284D01*
X157858415Y-99729712D01*
X157895799Y-99727315D01*
X157933099Y-99724096D01*
X157970300Y-99720057D01*
X158007389Y-99715199D01*
X158044352Y-99709526D01*
X158081177Y-99703038D01*
X158117850Y-99695740D01*
X158154357Y-99687631D01*
X158190684Y-99678716D01*
X158226820Y-99668995D01*
X158262749Y-99658471D01*
X158298459Y-99647146D01*
X158333937Y-99635023D01*
X158369168Y-99622103D01*
X158376187Y-99619526D01*
X158383256Y-99617107D01*
X158390371Y-99614847D01*
X158397529Y-99612744D01*
X158404729Y-99610801D01*
X158411967Y-99609017D01*
X158419241Y-99607394D01*
X158426548Y-99605931D01*
X158433885Y-99604629D01*
X158441250Y-99603489D01*
X158448641Y-99602511D01*
X158456053Y-99601695D01*
X158463486Y-99601043D01*
X158470935Y-99600554D01*
X158478399Y-99600229D01*
X158485874Y-99600069D01*
X158485871Y-99600068D01*
X158493347Y-99600075D01*
X158500815Y-99600247D01*
X158508272Y-99600583D01*
X158515715Y-99601083D01*
X158523142Y-99601747D01*
X158530550Y-99602573D01*
X158537936Y-99603563D01*
X158545298Y-99604714D01*
X158552632Y-99606027D01*
X158559937Y-99607501D01*
X158567209Y-99609136D01*
X158574447Y-99610931D01*
X158581646Y-99612886D01*
X158588805Y-99615000D01*
X158595920Y-99617274D01*
X158602990Y-99619705D01*
X158617046Y-99625072D01*
X158630801Y-99631034D01*
X158644241Y-99637580D01*
X158657347Y-99644695D01*
X158670104Y-99652366D01*
X158682494Y-99660577D01*
X158694501Y-99669316D01*
X158706109Y-99678568D01*
X158717300Y-99688320D01*
X158728058Y-99698557D01*
X158738366Y-99709267D01*
X158748208Y-99720434D01*
X158757566Y-99732045D01*
X158766425Y-99744086D01*
X158774768Y-99756543D01*
X158782577Y-99769403D01*
X159975721Y-101836010D01*
X159984126Y-101851489D01*
X159991681Y-101867306D01*
X159998382Y-101883429D01*
X160004226Y-101899821D01*
X160009207Y-101916450D01*
X160013323Y-101933280D01*
X160016570Y-101950278D01*
X160018944Y-101967409D01*
X160020440Y-101984639D01*
X160021056Y-102001933D01*
X160020786Y-102019257D01*
X160019628Y-102036577D01*
X160017577Y-102053859D01*
X160014630Y-102071068D01*
X160010783Y-102088170D01*
X160006031Y-102105131D01*
X160000405Y-102121822D01*
X159993952Y-102138121D01*
X159986695Y-102154001D01*
X159978657Y-102169436D01*
X159969859Y-102184400D01*
X159960324Y-102198867D01*
X159950076Y-102212811D01*
X159939135Y-102226205D01*
X159927526Y-102239024D01*
X159915270Y-102251241D01*
X159902390Y-102262830D01*
X159888908Y-102273765D01*
X159874847Y-102284019D01*
X159860229Y-102293567D01*
X159845078Y-102302383D01*
X159829414Y-102310439D01*
X159709081Y-102366342D01*
X159587399Y-102418786D01*
X159464444Y-102467754D01*
X159340290Y-102513228D01*
X159215014Y-102555193D01*
X159088689Y-102593629D01*
X158961392Y-102628520D01*
X158833197Y-102659848D01*
X158704181Y-102687597D01*
X158574417Y-102711748D01*
X158443981Y-102732285D01*
X158312948Y-102749191D01*
X158181394Y-102762447D01*
X158049394Y-102772037D01*
X157917022Y-102777944D01*
X157784355Y-102780149D01*
X157782539Y-102780149D01*
X157649871Y-102777944D01*
X157517499Y-102772037D01*
X157385498Y-102762446D01*
X157253944Y-102749189D01*
X157122911Y-102732283D01*
X156992475Y-102711745D01*
X156862711Y-102687593D01*
X156733694Y-102659844D01*
X156605499Y-102628515D01*
X156478202Y-102593623D01*
X156351878Y-102555187D01*
X156226601Y-102513223D01*
X156102447Y-102467749D01*
X155979492Y-102418782D01*
X155857810Y-102366340D01*
X155737477Y-102310439D01*
X155721813Y-102302383D01*
X155706662Y-102293567D01*
X155692044Y-102284019D01*
X155677983Y-102273765D01*
X155664502Y-102262830D01*
X155651621Y-102251241D01*
X155639365Y-102239024D01*
X155627756Y-102226205D01*
X155616815Y-102212811D01*
X155606567Y-102198867D01*
X155597032Y-102184400D01*
X155588234Y-102169436D01*
X155580196Y-102154001D01*
X155572939Y-102138121D01*
X155566486Y-102121822D01*
X155560860Y-102105131D01*
X155556109Y-102088170D01*
X155552261Y-102071068D01*
X155549314Y-102053859D01*
X155547263Y-102036577D01*
X155546105Y-102019257D01*
X155545835Y-102001933D01*
X155546451Y-101984639D01*
X155547947Y-101967409D01*
X155550320Y-101950278D01*
X155553567Y-101933280D01*
X155557683Y-101916450D01*
X155562665Y-101899821D01*
X155568509Y-101883429D01*
X155575210Y-101867306D01*
X155582765Y-101851489D01*
X155591170Y-101836010D01*
X156784314Y-99769402D01*
X156792367Y-99756160D01*
X156800938Y-99743402D01*
X156810008Y-99731136D01*
X156819555Y-99719369D01*
X156829560Y-99708109D01*
X156840001Y-99697362D01*
X156850859Y-99687135D01*
X156862112Y-99677437D01*
X156873741Y-99668275D01*
X156885725Y-99659655D01*
X156898043Y-99651585D01*
X156910675Y-99644073D01*
X156923601Y-99637125D01*
X156936800Y-99630749D01*
X156950251Y-99624953D01*
X156963934Y-99619743D01*
X156977829Y-99615127D01*
X156991915Y-99611112D01*
X157006171Y-99607705D01*
X157020578Y-99604914D01*
X157035114Y-99602746D01*
X157049760Y-99601208D01*
X157064494Y-99600308D01*
X157079297Y-99600053D01*
X157094148Y-99600450D01*
G37*
D15*
X82387500Y-99635000D02*
X86447500Y-99635000D01*
X86447500Y-97365000D02*
X82387500Y-97365000D01*
X86447500Y-99635000D02*
X86447500Y-97365000D01*
X82387500Y-114135000D02*
X86447500Y-114135000D01*
X86447500Y-111865000D02*
X82387500Y-111865000D01*
X86447500Y-114135000D02*
X86447500Y-111865000D01*
%LPC*%
D16*
X85340000Y-108275000D03*
X82800000Y-108275000D03*
D17*
X85340000Y-105735000D03*
X82800000Y-105735000D03*
X85340000Y-103195000D03*
X82800000Y-103195000D03*
D18*
X72600000Y-116000000D03*
X73302944Y-114302944D03*
X73302944Y-117697056D03*
X75000000Y-113600000D03*
D19*
X75000000Y-116000000D03*
D18*
X75000000Y-118400000D03*
X76697056Y-114302944D03*
X76697056Y-117697056D03*
X77400000Y-116000000D03*
X220100000Y-95500000D03*
X220802944Y-93802944D03*
X220802944Y-97197056D03*
X222500000Y-93100000D03*
D19*
X222500000Y-95500000D03*
D18*
X222500000Y-97900000D03*
X224197056Y-93802944D03*
X224197056Y-97197056D03*
X224900000Y-95500000D03*
X220100000Y-116000000D03*
X220802944Y-114302944D03*
X220802944Y-117697056D03*
X222500000Y-113600000D03*
D19*
X222500000Y-116000000D03*
D18*
X222500000Y-118400000D03*
X224197056Y-114302944D03*
X224197056Y-117697056D03*
X224900000Y-116000000D03*
X72600000Y-95500000D03*
X73302944Y-93802944D03*
X73302944Y-97197056D03*
X75000000Y-93100000D03*
D19*
X75000000Y-95500000D03*
D18*
X75000000Y-97900000D03*
X76697056Y-93802944D03*
X76697056Y-97197056D03*
X77400000Y-95500000D03*
D20*
X204250000Y-98000000D03*
X196630000Y-98000000D03*
D21*
X118870000Y-98000000D03*
X111250000Y-98000000D03*
X100870000Y-98000000D03*
X93250000Y-98000000D03*
D22*
X85475000Y-98500000D03*
X82500000Y-98500000D03*
X85475000Y-113000000D03*
X82500000Y-113000000D03*
%LPD*%
M02*
