G04 #@! TF.GenerationSoftware,KiCad,Pcbnew,8.0.4-8.0.4-0~ubuntu22.04.1*
G04 #@! TF.CreationDate,2024-09-06T12:10:29+02:00*
G04 #@! TF.ProjectId,Tube Driver,54756265-2044-4726-9976-65722e6b6963,1.0*
G04 #@! TF.SameCoordinates,Original*
G04 #@! TF.FileFunction,Legend,Top*
G04 #@! TF.FilePolarity,Positive*
%FSLAX46Y46*%
G04 Gerber Fmt 4.6, Leading zero omitted, Abs format (unit mm)*
G04 Created by KiCad (PCBNEW 8.0.4-8.0.4-0~ubuntu22.04.1) date 2024-09-06 12:10:29*
%MOMM*%
%LPD*%
G01*
G04 APERTURE LIST*
G04 Aperture macros list*
%AMRoundRect*
0 Rectangle with rounded corners*
0 $1 Rounding radius*
0 $2 $3 $4 $5 $6 $7 $8 $9 X,Y pos of 4 corners*
0 Add a 4 corners polygon primitive as box body*
4,1,4,$2,$3,$4,$5,$6,$7,$8,$9,$2,$3,0*
0 Add four circle primitives for the rounded corners*
1,1,$1+$1,$2,$3*
1,1,$1+$1,$4,$5*
1,1,$1+$1,$6,$7*
1,1,$1+$1,$8,$9*
0 Add four rect primitives between the rounded corners*
20,1,$1+$1,$2,$3,$4,$5,0*
20,1,$1+$1,$4,$5,$6,$7,0*
20,1,$1+$1,$6,$7,$8,$9,0*
20,1,$1+$1,$8,$9,$2,$3,0*%
G04 Aperture macros list end*
%ADD10C,0.000000*%
%ADD11C,0.150000*%
%ADD12C,0.120000*%
%ADD13RoundRect,0.250000X-0.400000X-0.625000X0.400000X-0.625000X0.400000X0.625000X-0.400000X0.625000X0*%
%ADD14RoundRect,0.250000X-1.100000X0.412500X-1.100000X-0.412500X1.100000X-0.412500X1.100000X0.412500X0*%
%ADD15RoundRect,0.250000X0.412500X0.650000X-0.412500X0.650000X-0.412500X-0.650000X0.412500X-0.650000X0*%
%ADD16RoundRect,0.250000X-0.412500X-0.650000X0.412500X-0.650000X0.412500X0.650000X-0.412500X0.650000X0*%
%ADD17RoundRect,0.200000X0.750000X0.200000X-0.750000X0.200000X-0.750000X-0.200000X0.750000X-0.200000X0*%
%ADD18RoundRect,0.250000X0.625000X-0.400000X0.625000X0.400000X-0.625000X0.400000X-0.625000X-0.400000X0*%
%ADD19RoundRect,0.375000X0.375000X-0.625000X0.375000X0.625000X-0.375000X0.625000X-0.375000X-0.625000X0*%
%ADD20RoundRect,0.500000X1.400000X-0.500000X1.400000X0.500000X-1.400000X0.500000X-1.400000X-0.500000X0*%
%ADD21RoundRect,0.250000X0.250000X0.250000X-0.250000X0.250000X-0.250000X-0.250000X0.250000X-0.250000X0*%
%ADD22RoundRect,0.250000X0.400000X0.625000X-0.400000X0.625000X-0.400000X-0.625000X0.400000X-0.625000X0*%
%ADD23RoundRect,0.250000X-0.250000X-0.250000X0.250000X-0.250000X0.250000X0.250000X-0.250000X0.250000X0*%
%ADD24R,1.700000X1.700000*%
%ADD25O,1.700000X1.700000*%
%ADD26RoundRect,0.300000X-1.350000X-0.300000X1.350000X-0.300000X1.350000X0.300000X-1.350000X0.300000X0*%
%ADD27RoundRect,0.150000X-0.150000X0.825000X-0.150000X-0.825000X0.150000X-0.825000X0.150000X0.825000X0*%
%ADD28C,0.800000*%
%ADD29C,6.400000*%
%ADD30RoundRect,0.320000X3.430000X-1.280000X3.430000X1.280000X-3.430000X1.280000X-3.430000X-1.280000X0*%
%ADD31RoundRect,0.250000X1.375000X0.650000X-1.375000X0.650000X-1.375000X-0.650000X1.375000X-0.650000X0*%
%ADD32RoundRect,0.250000X0.550000X-1.500000X0.550000X1.500000X-0.550000X1.500000X-0.550000X-1.500000X0*%
%ADD33RoundRect,0.200000X-0.750000X-0.200000X0.750000X-0.200000X0.750000X0.200000X-0.750000X0.200000X0*%
%ADD34R,4.000000X4.000000*%
%ADD35C,4.000000*%
G04 APERTURE END LIST*
D10*
G36*
X131850735Y-94229887D02*
G01*
X132093973Y-94229887D01*
X132093973Y-95202805D01*
X131850735Y-95202805D01*
X131850735Y-95446028D01*
X131607626Y-95446028D01*
X131607626Y-95202791D01*
X131850864Y-95202791D01*
X131850864Y-94959553D01*
X131607626Y-94959553D01*
X131607626Y-95202791D01*
X131364388Y-95202791D01*
X131364388Y-95689277D01*
X131121151Y-95689277D01*
X131121151Y-95932506D01*
X131364377Y-95932506D01*
X131364377Y-96418992D01*
X130877892Y-96418992D01*
X130877892Y-96662229D01*
X131121129Y-96662229D01*
X131121129Y-96905467D01*
X131607615Y-96905467D01*
X131607615Y-97391953D01*
X132094101Y-97391953D01*
X132094101Y-97635190D01*
X131850863Y-97635190D01*
X131850863Y-97878428D01*
X133310267Y-97878428D01*
X133310288Y-97756749D01*
X133310288Y-97635132D01*
X133553526Y-97635132D01*
X133553526Y-97391894D01*
X133310288Y-97391894D01*
X133310288Y-97148657D01*
X133067093Y-97148657D01*
X133067093Y-96905419D01*
X133310331Y-96905419D01*
X133310331Y-97148657D01*
X133553526Y-97148657D01*
X133553526Y-96419001D01*
X133796635Y-96419001D01*
X133796635Y-95932515D01*
X134039873Y-95932515D01*
X134039873Y-95446029D01*
X134526358Y-95446029D01*
X134526358Y-95689267D01*
X134283120Y-95689267D01*
X134283120Y-95932504D01*
X134526358Y-95932504D01*
X134526358Y-96175742D01*
X134039873Y-96175742D01*
X134039873Y-96662228D01*
X134283048Y-96662228D01*
X134283048Y-96905374D01*
X134526286Y-96905374D01*
X134526286Y-96662136D01*
X134283110Y-96662136D01*
X134283110Y-96662228D01*
X134283048Y-96662228D01*
X134283048Y-96662136D01*
X134283110Y-96662136D01*
X134283110Y-96418990D01*
X134526348Y-96418990D01*
X134526348Y-96662228D01*
X134769586Y-96662228D01*
X134769586Y-96418990D01*
X135012823Y-96418990D01*
X135012823Y-96905476D01*
X134769585Y-96905476D01*
X134769585Y-97148713D01*
X134039870Y-97148713D01*
X134039870Y-96662228D01*
X133796632Y-96662228D01*
X133796632Y-97391943D01*
X134039870Y-97391943D01*
X134039870Y-97635180D01*
X133553384Y-97635180D01*
X133553384Y-98121666D01*
X134039870Y-98121666D01*
X134039870Y-97878428D01*
X134283108Y-97878428D01*
X134283108Y-98121666D01*
X134526346Y-98121666D01*
X134526346Y-98364904D01*
X135012831Y-98364904D01*
X135012831Y-98121666D01*
X134769593Y-98121666D01*
X134769593Y-97878428D01*
X135499308Y-97878428D01*
X135499308Y-98121666D01*
X135256071Y-98121666D01*
X135256071Y-98364904D01*
X135499308Y-98364904D01*
X135499308Y-98608141D01*
X134283134Y-98608141D01*
X134283134Y-98851379D01*
X134039896Y-98851379D01*
X134039896Y-98608141D01*
X133553411Y-98608141D01*
X133553411Y-98364904D01*
X133310173Y-98364904D01*
X133310173Y-98608141D01*
X132823687Y-98608141D01*
X132823687Y-98121656D01*
X132337202Y-98121656D01*
X132337202Y-98364894D01*
X132580440Y-98364894D01*
X132580440Y-99094609D01*
X132337202Y-99094609D01*
X132337202Y-98851371D01*
X132093964Y-98851371D01*
X132093964Y-98608133D01*
X131850726Y-98608133D01*
X131850726Y-98364896D01*
X131364241Y-98364896D01*
X131364241Y-98608133D01*
X131607479Y-98608133D01*
X131607479Y-98851264D01*
X131364450Y-98851264D01*
X131364450Y-99337749D01*
X131121213Y-99337749D01*
X131121213Y-98608034D01*
X130877975Y-98608034D01*
X130877975Y-98851272D01*
X130634737Y-98851272D01*
X130634737Y-99094510D01*
X130148251Y-99094510D01*
X130148251Y-98851272D01*
X130391489Y-98851272D01*
X130391489Y-98364855D01*
X130391489Y-98364786D01*
X130634727Y-98364786D01*
X130634727Y-98121617D01*
X130877992Y-98121617D01*
X130877992Y-98364855D01*
X131364477Y-98364855D01*
X131364477Y-98121617D01*
X131607715Y-98121617D01*
X131607715Y-97878379D01*
X131364477Y-97878379D01*
X131364477Y-98121617D01*
X130877992Y-98121617D01*
X130634727Y-98121617D01*
X130634727Y-98121549D01*
X130391489Y-98121549D01*
X130391489Y-98364786D01*
X129905003Y-98364786D01*
X129905003Y-99094501D01*
X129661766Y-99094501D01*
X129661766Y-98608016D01*
X129418528Y-98608016D01*
X129418528Y-98364778D01*
X129175291Y-98364778D01*
X129175291Y-98121540D01*
X130148209Y-98121540D01*
X130148209Y-97878379D01*
X130148209Y-97635142D01*
X131121240Y-97635142D01*
X131121240Y-97878379D01*
X131364477Y-97878379D01*
X131364477Y-97635142D01*
X131121240Y-97635142D01*
X130148209Y-97635142D01*
X130148209Y-97635055D01*
X129904972Y-97635055D01*
X129904972Y-97391857D01*
X129904972Y-97391817D01*
X129661735Y-97391817D01*
X129661735Y-97878303D01*
X129175249Y-97878303D01*
X129175249Y-97391817D01*
X128932011Y-97391817D01*
X128932011Y-97148619D01*
X130148258Y-97148619D01*
X130148258Y-97391857D01*
X130634744Y-97391857D01*
X130634744Y-97635094D01*
X130877981Y-97635094D01*
X130877973Y-97391857D01*
X130877973Y-97148619D01*
X130148258Y-97148619D01*
X128932011Y-97148619D01*
X128932011Y-97148579D01*
X129661727Y-97148579D01*
X129661727Y-96905374D01*
X129661727Y-96905342D01*
X129418489Y-96905342D01*
X129418489Y-96662136D01*
X129418489Y-96662105D01*
X128932003Y-96662105D01*
X128932003Y-96905342D01*
X128688766Y-96905342D01*
X128688766Y-97391828D01*
X128932003Y-97391828D01*
X128932003Y-97878313D01*
X128445517Y-97878313D01*
X128445517Y-98121551D01*
X128932003Y-98121551D01*
X128932003Y-98364789D01*
X129175241Y-98364789D01*
X129175241Y-98851274D01*
X129418478Y-98851274D01*
X129418478Y-99337760D01*
X129175241Y-99337760D01*
X129175241Y-99824245D01*
X128932003Y-99824245D01*
X128932003Y-99581008D01*
X128688766Y-99581008D01*
X128688766Y-99824245D01*
X128932003Y-99824245D01*
X128932003Y-100067483D01*
X128445517Y-100067483D01*
X128445517Y-100310721D01*
X128688755Y-100310721D01*
X128688755Y-100797206D01*
X128931992Y-100797206D01*
X128931992Y-101040444D01*
X129175230Y-101040444D01*
X129175230Y-101283682D01*
X129418467Y-101283682D01*
X129418467Y-101526920D01*
X129904953Y-101526920D01*
X129904993Y-101405299D01*
X129904993Y-101283681D01*
X129661756Y-101283681D01*
X129661756Y-101040444D01*
X130148241Y-101040444D01*
X130148241Y-100553958D01*
X130391479Y-100553958D01*
X130391479Y-100067478D01*
X129904993Y-100067478D01*
X129904993Y-99824240D01*
X130391479Y-99824240D01*
X130391479Y-100067472D01*
X130877965Y-100067472D01*
X130877965Y-100067462D01*
X130877965Y-99580987D01*
X131121203Y-99580987D01*
X131121203Y-99824225D01*
X131364440Y-99824225D01*
X131364440Y-100067462D01*
X131607678Y-100067462D01*
X131607678Y-99824235D01*
X132093969Y-99824235D01*
X132093969Y-100067472D01*
X132337207Y-100067472D01*
X132337207Y-99824259D01*
X132337207Y-99824235D01*
X132093969Y-99824235D01*
X131607678Y-99824235D01*
X131607678Y-99824225D01*
X131364440Y-99824225D01*
X131364440Y-99580987D01*
X131850926Y-99580987D01*
X131850926Y-99337749D01*
X131607688Y-99337749D01*
X131607688Y-98851371D01*
X131850716Y-98851371D01*
X131850716Y-99094609D01*
X132093954Y-99094609D01*
X132093954Y-99581095D01*
X132337192Y-99581095D01*
X132337192Y-99581021D01*
X132580723Y-99581021D01*
X132580723Y-99824259D01*
X132823961Y-99824259D01*
X132823961Y-99581021D01*
X132580723Y-99581021D01*
X132337192Y-99581021D01*
X132337192Y-99337857D01*
X132823677Y-99337857D01*
X132823677Y-98851371D01*
X133310163Y-98851371D01*
X133310163Y-99094609D01*
X133066925Y-99094609D01*
X133066925Y-99824324D01*
X133310163Y-99824324D01*
X133310163Y-99824269D01*
X133553660Y-99824269D01*
X133553660Y-100067507D01*
X133796898Y-100067507D01*
X133796898Y-100310745D01*
X134040136Y-100310745D01*
X134040136Y-100067507D01*
X133796898Y-100067507D01*
X133796898Y-99824269D01*
X133553660Y-99824269D01*
X133310163Y-99824269D01*
X133310163Y-99581087D01*
X133553401Y-99581087D01*
X133553401Y-98851371D01*
X133796638Y-98851371D01*
X133796638Y-99337857D01*
X134039876Y-99337857D01*
X134039876Y-99581031D01*
X133796898Y-99581031D01*
X133796898Y-99824269D01*
X134040136Y-99824269D01*
X134040136Y-99581095D01*
X134283114Y-99581095D01*
X134283114Y-100067580D01*
X134526352Y-100067580D01*
X134526352Y-100067507D01*
X134769816Y-100067507D01*
X134769816Y-100310745D01*
X135013055Y-100310745D01*
X135013055Y-100067507D01*
X134769816Y-100067507D01*
X134526352Y-100067507D01*
X134526352Y-99824259D01*
X134526352Y-99581095D01*
X134769589Y-99581095D01*
X134769589Y-99581021D01*
X134769816Y-99581021D01*
X134769816Y-99824259D01*
X135013055Y-99824259D01*
X135013055Y-99581021D01*
X134769816Y-99581021D01*
X134769589Y-99581021D01*
X134769589Y-99337857D01*
X135012827Y-99337857D01*
X135012827Y-98851371D01*
X135499313Y-98851371D01*
X135499313Y-99094609D01*
X135256075Y-99094609D01*
X135256075Y-99337847D01*
X135499313Y-99337847D01*
X135499313Y-99581084D01*
X135256075Y-99581084D01*
X135256075Y-99824322D01*
X135499313Y-99824322D01*
X135499313Y-100067560D01*
X135256075Y-100067560D01*
X135256075Y-100310798D01*
X135012837Y-100310798D01*
X135012837Y-100554035D01*
X134526352Y-100554035D01*
X134526352Y-100797273D01*
X134769589Y-100797273D01*
X134769589Y-101040511D01*
X134526352Y-101040511D01*
X134526352Y-101770226D01*
X134283114Y-101770226D01*
X134283114Y-102013453D01*
X134039910Y-102013453D01*
X134039910Y-101770215D01*
X133796673Y-101770215D01*
X133796673Y-102256701D01*
X134039910Y-102256701D01*
X134039910Y-102499938D01*
X133553425Y-102499938D01*
X133553425Y-102256701D01*
X133066940Y-102256701D01*
X133066940Y-102499938D01*
X132823702Y-102499938D01*
X132823702Y-101770223D01*
X132580464Y-101770223D01*
X132580464Y-102256710D01*
X132093978Y-102256710D01*
X132093978Y-102499947D01*
X131850741Y-102499947D01*
X131850741Y-102256710D01*
X131364255Y-102256710D01*
X131364255Y-102499947D01*
X130877770Y-102499947D01*
X130877770Y-101770232D01*
X130391284Y-101770232D01*
X130391284Y-101526994D01*
X130877760Y-101526994D01*
X130877760Y-101770159D01*
X131364246Y-101770159D01*
X131364246Y-102013397D01*
X131607483Y-102013397D01*
X131607503Y-101891775D01*
X131607503Y-101770157D01*
X131850741Y-101770157D01*
X131850741Y-102013395D01*
X132337227Y-102013395D01*
X132337227Y-101770153D01*
X132337227Y-101526916D01*
X132823670Y-101526916D01*
X132823670Y-101770153D01*
X133066908Y-101770153D01*
X133066908Y-102013392D01*
X133310145Y-102013392D01*
X133310156Y-101770157D01*
X133310156Y-101770153D01*
X133310156Y-101526919D01*
X133553482Y-101526919D01*
X133553482Y-101770157D01*
X133796720Y-101770157D01*
X133796720Y-101526919D01*
X133553482Y-101526919D01*
X133310156Y-101526919D01*
X133310156Y-101526916D01*
X132823670Y-101526916D01*
X132337227Y-101526916D01*
X132337227Y-101526909D01*
X132093989Y-101526909D01*
X132093989Y-101283697D01*
X132093989Y-101283671D01*
X132337227Y-101283671D01*
X132337227Y-101040434D01*
X132580465Y-101040434D01*
X132580465Y-101283671D01*
X132823702Y-101283671D01*
X132823702Y-101040434D01*
X133066940Y-101040434D01*
X133066940Y-101283671D01*
X133310177Y-101283671D01*
X133310177Y-100797186D01*
X133066940Y-100797186D01*
X133066940Y-100553982D01*
X133553491Y-100553982D01*
X133553491Y-101283697D01*
X134283206Y-101283697D01*
X134283206Y-100553982D01*
X133553491Y-100553982D01*
X133066940Y-100553982D01*
X133066940Y-100553948D01*
X132580454Y-100553948D01*
X132580454Y-100310745D01*
X132580454Y-100310710D01*
X132823692Y-100310710D01*
X132823692Y-100067507D01*
X132823692Y-100067472D01*
X132337207Y-100067472D01*
X132337207Y-100797188D01*
X132093969Y-100797188D01*
X132093969Y-100553950D01*
X131850731Y-100553950D01*
X131850731Y-100310712D01*
X131364246Y-100310712D01*
X131364246Y-100797198D01*
X131607483Y-100797198D01*
X131607483Y-100553960D01*
X131850721Y-100553960D01*
X131850721Y-101040446D01*
X132093959Y-101040446D01*
X132093959Y-101283683D01*
X131850721Y-101283683D01*
X131850721Y-101526921D01*
X131607503Y-101526921D01*
X131607503Y-101770157D01*
X131364266Y-101770157D01*
X131364266Y-101526919D01*
X131607483Y-101526919D01*
X131607483Y-101283683D01*
X131364246Y-101283683D01*
X131364246Y-101526921D01*
X130877770Y-101526921D01*
X130877770Y-101526994D01*
X130877760Y-101526994D01*
X130877760Y-101526921D01*
X130877770Y-101526921D01*
X130877770Y-101283756D01*
X130634532Y-101283756D01*
X130634532Y-100797271D01*
X130877770Y-100797271D01*
X130877770Y-101040508D01*
X131121007Y-101040508D01*
X131121007Y-101283746D01*
X131364245Y-101283746D01*
X131364245Y-100797260D01*
X131121007Y-100797260D01*
X131121007Y-100067545D01*
X130877770Y-100067545D01*
X130877770Y-100554031D01*
X130391284Y-100554031D01*
X130391284Y-101283746D01*
X130148046Y-101283746D01*
X130148046Y-102013462D01*
X129904809Y-102013462D01*
X129904809Y-102256699D01*
X130148046Y-102256699D01*
X130148046Y-102499937D01*
X129418357Y-102499937D01*
X129418384Y-102378260D01*
X129418384Y-102256643D01*
X129661621Y-102256643D01*
X129661621Y-102013404D01*
X129418384Y-102013404D01*
X129418384Y-102013395D01*
X129418384Y-101770167D01*
X129175146Y-101770167D01*
X129175146Y-102013404D01*
X128931909Y-102013404D01*
X128931909Y-101770167D01*
X128688671Y-101770167D01*
X128688671Y-102256652D01*
X128445433Y-102256652D01*
X128445433Y-101770157D01*
X128445433Y-101526919D01*
X128932040Y-101526919D01*
X128932040Y-101770157D01*
X129175278Y-101770157D01*
X129661632Y-101770157D01*
X129661632Y-102013395D01*
X129904869Y-102013395D01*
X129904869Y-101770157D01*
X129661632Y-101770157D01*
X129175278Y-101770157D01*
X129175278Y-101526919D01*
X128932040Y-101526919D01*
X128445433Y-101526919D01*
X128445433Y-100310842D01*
X128202196Y-100310842D01*
X128202196Y-100554080D01*
X127229277Y-100554080D01*
X127229277Y-100310842D01*
X126986040Y-100310842D01*
X126986040Y-99581127D01*
X127472525Y-99581127D01*
X127472525Y-99824365D01*
X127229288Y-99824365D01*
X127229288Y-100067602D01*
X127472525Y-100067602D01*
X127472525Y-100310840D01*
X127715763Y-100310840D01*
X127715763Y-100310745D01*
X127715763Y-100067602D01*
X127959001Y-100067602D01*
X127959001Y-100067507D01*
X127959175Y-100067507D01*
X127959175Y-100310745D01*
X128202413Y-100310745D01*
X128202413Y-100067507D01*
X127959175Y-100067507D01*
X127959001Y-100067507D01*
X127959001Y-99824365D01*
X128202238Y-99824365D01*
X128202238Y-99581127D01*
X127715752Y-99581127D01*
X127715752Y-99337889D01*
X128445468Y-99337889D01*
X128445468Y-99094651D01*
X128688705Y-99094651D01*
X128688705Y-99337770D01*
X128445528Y-99337770D01*
X128445528Y-99581008D01*
X128688766Y-99581008D01*
X128688766Y-99337889D01*
X129175191Y-99337889D01*
X129175191Y-99094651D01*
X128931954Y-99094651D01*
X128931954Y-98364936D01*
X128445468Y-98364936D01*
X128445468Y-98608174D01*
X128688705Y-98608174D01*
X128688705Y-98851412D01*
X128202220Y-98851412D01*
X128202220Y-99094649D01*
X127472504Y-99094649D01*
X127472504Y-99337887D01*
X127229267Y-99337887D01*
X127229267Y-99094649D01*
X126742781Y-99094649D01*
X126742781Y-98851412D01*
X127472496Y-98851412D01*
X127472496Y-98851340D01*
X127472496Y-98608103D01*
X127715980Y-98608103D01*
X127715980Y-98851340D01*
X128202466Y-98851340D01*
X128202466Y-98608103D01*
X127715980Y-98608103D01*
X127472496Y-98608103D01*
X127472496Y-98364926D01*
X128202211Y-98364926D01*
X128202211Y-98121688D01*
X127958974Y-98121688D01*
X127958974Y-97878450D01*
X128445460Y-97878450D01*
X128445460Y-97635213D01*
X128688697Y-97635213D01*
X128688697Y-97391976D01*
X128445459Y-97391976D01*
X128445459Y-96905490D01*
X128688697Y-96905490D01*
X128688697Y-96662252D01*
X128445459Y-96662252D01*
X128445459Y-96419015D01*
X128688697Y-96419015D01*
X128688697Y-96418899D01*
X129661685Y-96418899D01*
X129661685Y-96662136D01*
X130148171Y-96662136D01*
X130148171Y-96905374D01*
X130391408Y-96905374D01*
X130391408Y-96662136D01*
X130148171Y-96662136D01*
X130148171Y-96418899D01*
X129661685Y-96418899D01*
X128688697Y-96418899D01*
X128688697Y-96175777D01*
X128445459Y-96175777D01*
X128445459Y-95932540D01*
X128202222Y-95932540D01*
X128202222Y-96175777D01*
X127715736Y-96175777D01*
X127715736Y-96419015D01*
X127229250Y-96419015D01*
X127229250Y-96662252D01*
X127472488Y-96662252D01*
X127472488Y-96905384D01*
X126743017Y-96905384D01*
X126743017Y-97391870D01*
X126986254Y-97391870D01*
X126986246Y-97270239D01*
X126986246Y-97148622D01*
X127472732Y-97148622D01*
X127472732Y-96905490D01*
X127715725Y-96905490D01*
X127715725Y-96662252D01*
X127958963Y-96662252D01*
X127958963Y-96905490D01*
X128202201Y-96905490D01*
X128202201Y-97148727D01*
X127715715Y-97148727D01*
X127715715Y-97878443D01*
X127472477Y-97878443D01*
X127472477Y-98121680D01*
X127229240Y-98121680D01*
X127229240Y-97635194D01*
X126742754Y-97635194D01*
X126742754Y-97391957D01*
X126499516Y-97391957D01*
X126499516Y-96905471D01*
X126742754Y-96905471D01*
X126742754Y-96175756D01*
X126985895Y-96175756D01*
X126985895Y-96418888D01*
X127229132Y-96418888D01*
X127229132Y-96175650D01*
X126985991Y-96175650D01*
X126985991Y-96175756D01*
X126985895Y-96175756D01*
X126985895Y-96175650D01*
X126985991Y-96175650D01*
X126985991Y-95932518D01*
X127229229Y-95932518D01*
X127229229Y-95932413D01*
X127472381Y-95932413D01*
X127472381Y-96175650D01*
X127715618Y-96175650D01*
X127715618Y-95932413D01*
X128202104Y-95932413D01*
X128202104Y-95689175D01*
X127715618Y-95689175D01*
X127715618Y-95932413D01*
X127472381Y-95932413D01*
X127229229Y-95932413D01*
X127229229Y-95689281D01*
X126742743Y-95689281D01*
X126742743Y-95446043D01*
X128445377Y-95446043D01*
X128445377Y-95932529D01*
X128688615Y-95932529D01*
X128688615Y-96175766D01*
X128931852Y-96175766D01*
X128931852Y-95932529D01*
X129418338Y-95932529D01*
X129418338Y-95689291D01*
X129175100Y-95689291D01*
X129175100Y-95446054D01*
X129418338Y-95446054D01*
X129418338Y-94959568D01*
X129661474Y-94959568D01*
X129661474Y-95202732D01*
X129904711Y-95202732D01*
X129904711Y-94959494D01*
X129661575Y-94959494D01*
X129661575Y-94959568D01*
X129661474Y-94959568D01*
X129661474Y-94959494D01*
X129661575Y-94959494D01*
X129661575Y-94716330D01*
X130148061Y-94716330D01*
X130148061Y-94473093D01*
X130391299Y-94473093D01*
X130391299Y-94959579D01*
X130148061Y-94959579D01*
X130148061Y-95446028D01*
X129661704Y-95446028D01*
X129661704Y-96175744D01*
X129904941Y-96175744D01*
X129904941Y-95932506D01*
X130148179Y-95932506D01*
X130148179Y-96175744D01*
X130391416Y-96175744D01*
X130391416Y-96418981D01*
X130634654Y-96418981D01*
X130634654Y-96175752D01*
X130391427Y-96175752D01*
X130391427Y-96175744D01*
X130391427Y-95932514D01*
X130634665Y-95932514D01*
X130634665Y-96175744D01*
X131121139Y-96175744D01*
X131121139Y-95932514D01*
X130634665Y-95932514D01*
X130391427Y-95932514D01*
X130391427Y-95689302D01*
X130634536Y-95689302D01*
X130634536Y-95446064D01*
X131121022Y-95446064D01*
X131121022Y-95202827D01*
X130877784Y-95202827D01*
X130877784Y-95202791D01*
X130877784Y-94959589D01*
X131121022Y-94959589D01*
X131121022Y-94959553D01*
X131121151Y-94959553D01*
X131121151Y-95202791D01*
X131364388Y-95202791D01*
X131364388Y-94959553D01*
X131121151Y-94959553D01*
X131121022Y-94959553D01*
X131121022Y-94716351D01*
X130877784Y-94716351D01*
X130877784Y-94716246D01*
X130877784Y-94473114D01*
X131121022Y-94473114D01*
X131121022Y-94473008D01*
X131364108Y-94473008D01*
X131364108Y-94716246D01*
X131607345Y-94716246D01*
X131607345Y-94473008D01*
X131850583Y-94473008D01*
X131850583Y-94229771D01*
X131607345Y-94229771D01*
X131607345Y-94473008D01*
X131364108Y-94473008D01*
X131121022Y-94473008D01*
X131121022Y-94229876D01*
X131364259Y-94229876D01*
X131364259Y-93986639D01*
X131607497Y-93986639D01*
X131607497Y-93743401D01*
X131850735Y-93743401D01*
X131850735Y-94229887D01*
G37*
G36*
X133553932Y-93743224D02*
G01*
X133310694Y-93743224D01*
X133310694Y-93499986D01*
X133553932Y-93499986D01*
X133553932Y-93743224D01*
G37*
G36*
X130148239Y-99337765D02*
G01*
X129905004Y-99337765D01*
X129905004Y-99581003D01*
X129661767Y-99581003D01*
X129661767Y-100310718D01*
X129905004Y-100310718D01*
X129905004Y-100553956D01*
X129661767Y-100553956D01*
X129661767Y-101040441D01*
X129175281Y-101040441D01*
X129175278Y-100797212D01*
X129175278Y-100553974D01*
X128932040Y-100553974D01*
X128932040Y-100310737D01*
X129418526Y-100310737D01*
X129418526Y-100553974D01*
X129661764Y-100553974D01*
X129661764Y-100310737D01*
X129418526Y-100310737D01*
X128932040Y-100310737D01*
X128932040Y-100067488D01*
X129418526Y-100067488D01*
X129418526Y-99581003D01*
X129661764Y-99581003D01*
X129661764Y-99337765D01*
X129905001Y-99337765D01*
X129905001Y-99094527D01*
X130148239Y-99094527D01*
X130148239Y-99337765D01*
G37*
G36*
X133553397Y-95932526D02*
G01*
X133310159Y-95932526D01*
X133310159Y-96175730D01*
X133067050Y-96175730D01*
X133067050Y-96662216D01*
X132823813Y-96662216D01*
X132823813Y-96905453D01*
X132580607Y-96905453D01*
X132580607Y-97148646D01*
X132337370Y-97148646D01*
X132337370Y-96905408D01*
X132580575Y-96905408D01*
X132580575Y-96662216D01*
X132337337Y-96662216D01*
X132337337Y-96905453D01*
X132094122Y-96905453D01*
X132094122Y-97148646D01*
X131850884Y-97148646D01*
X131850884Y-96905408D01*
X132094099Y-96905408D01*
X132094099Y-96662216D01*
X131850862Y-96662216D01*
X131850862Y-96418978D01*
X131607689Y-96418978D01*
X131607689Y-96662160D01*
X131364451Y-96662160D01*
X131364451Y-96418922D01*
X131607624Y-96418922D01*
X131607624Y-96175741D01*
X131850862Y-96175741D01*
X131850862Y-95932504D01*
X132094099Y-95932504D01*
X132094099Y-96418989D01*
X132823815Y-96418989D01*
X132823815Y-96175752D01*
X132580577Y-96175752D01*
X132580577Y-95689266D01*
X132337339Y-95689266D01*
X132337339Y-95932504D01*
X132094102Y-95932504D01*
X132094102Y-95689266D01*
X131850926Y-95689266D01*
X131850926Y-95932445D01*
X131607689Y-95932445D01*
X131607689Y-95689207D01*
X131850864Y-95689207D01*
X131850864Y-95446043D01*
X133066909Y-95446043D01*
X133066909Y-95689281D01*
X132823672Y-95689281D01*
X132823672Y-95932518D01*
X133310157Y-95932518D01*
X133310157Y-94959600D01*
X133066919Y-94959600D01*
X133066919Y-95202837D01*
X132823682Y-95202837D01*
X132823682Y-94716351D01*
X133553397Y-94716351D01*
X133553397Y-95932526D01*
G37*
G36*
X132093989Y-101770157D02*
G01*
X131850751Y-101770157D01*
X131850751Y-101526919D01*
X132093989Y-101526919D01*
X132093989Y-101770157D01*
G37*
G36*
X128688908Y-93743221D02*
G01*
X128445671Y-93743221D01*
X128445671Y-93499984D01*
X128688908Y-93499984D01*
X128688908Y-93743221D01*
G37*
G36*
X132824209Y-93743224D02*
G01*
X133310694Y-93743224D01*
X133310694Y-93986462D01*
X133553932Y-93986462D01*
X133553932Y-94229699D01*
X133310694Y-94229699D01*
X133310694Y-94472937D01*
X132824209Y-94472937D01*
X132824209Y-93986451D01*
X132580971Y-93986451D01*
X132580971Y-94472937D01*
X132337733Y-94472937D01*
X132337723Y-94229699D01*
X132337723Y-93986462D01*
X132580961Y-93986462D01*
X132580961Y-93743224D01*
X132337723Y-93743224D01*
X132337723Y-93499986D01*
X132824209Y-93499986D01*
X132824209Y-93743224D01*
G37*
D11*
X126000000Y-93000000D02*
X189500000Y-93000000D01*
X189500000Y-103000000D01*
X126000000Y-103000000D01*
X126000000Y-93000000D01*
D10*
G36*
X130634536Y-95202816D02*
G01*
X130391299Y-95202816D01*
X130391299Y-94959579D01*
X130634536Y-94959579D01*
X130634536Y-95202816D01*
G37*
G36*
X135499304Y-101526976D02*
G01*
X135256067Y-101526976D01*
X135256067Y-101283738D01*
X135499304Y-101283738D01*
X135499304Y-101526976D01*
G37*
G36*
X126742754Y-97878432D02*
G01*
X126499516Y-97878432D01*
X126499516Y-97635194D01*
X126742754Y-97635194D01*
X126742754Y-97878432D01*
G37*
G36*
X135256079Y-97635191D02*
G01*
X134769593Y-97635191D01*
X134769593Y-97391953D01*
X135256079Y-97391953D01*
X135256079Y-97635191D01*
G37*
G36*
X127715802Y-102013402D02*
G01*
X126986087Y-102013402D01*
X126986087Y-101648545D01*
X126986087Y-101283687D01*
X127715802Y-101283687D01*
X127715802Y-102013402D01*
G37*
G36*
X135499313Y-100554035D02*
G01*
X135256075Y-100554035D01*
X135256075Y-100310798D01*
X135499313Y-100310798D01*
X135499313Y-100554035D01*
G37*
G36*
X128202235Y-102499862D02*
G01*
X126499601Y-102499862D01*
X126499601Y-102256632D01*
X126499601Y-101648545D01*
X126499601Y-101040457D01*
X126742831Y-101040457D01*
X126742831Y-102256632D01*
X127959006Y-102256632D01*
X127959006Y-101040457D01*
X126742831Y-101040457D01*
X126499601Y-101040457D01*
X126499601Y-100797228D01*
X128202235Y-100797228D01*
X128202235Y-102499862D01*
G37*
G36*
X133553397Y-96418968D02*
G01*
X133310288Y-96418968D01*
X133310288Y-96175764D01*
X133553397Y-96175764D01*
X133553397Y-96418968D01*
G37*
G36*
X134039958Y-101040460D02*
G01*
X133796721Y-101040460D01*
X133796721Y-100797222D01*
X134039958Y-100797222D01*
X134039958Y-101040460D01*
G37*
G36*
X134526355Y-97635191D02*
G01*
X134283118Y-97635191D01*
X134283118Y-97391953D01*
X134526355Y-97391953D01*
X134526355Y-97635191D01*
G37*
G36*
X131850864Y-95446043D02*
G01*
X131850735Y-95446043D01*
X131850735Y-95446028D01*
X131850864Y-95446028D01*
X131850864Y-95446043D01*
G37*
G36*
X128202166Y-97634975D02*
G01*
X127958928Y-97634975D01*
X127958928Y-97391737D01*
X128202166Y-97391737D01*
X128202166Y-97634975D01*
G37*
G36*
X126986040Y-99581127D02*
G01*
X126742802Y-99581127D01*
X126742802Y-99337889D01*
X126986040Y-99337889D01*
X126986040Y-99581127D01*
G37*
G36*
X131607497Y-93743401D02*
G01*
X131364259Y-93743401D01*
X131364259Y-93500164D01*
X131607497Y-93500164D01*
X131607497Y-93743401D01*
G37*
G36*
X135499160Y-101040270D02*
G01*
X135255922Y-101040270D01*
X135255922Y-100797032D01*
X135499160Y-100797032D01*
X135499160Y-101040270D01*
G37*
G36*
X128202201Y-96662252D02*
G01*
X127958963Y-96662252D01*
X127958963Y-96419015D01*
X128202201Y-96419015D01*
X128202201Y-96662252D01*
G37*
G36*
X132093973Y-93743401D02*
G01*
X131850735Y-93743401D01*
X131850735Y-93500164D01*
X132093973Y-93500164D01*
X132093973Y-93743401D01*
G37*
G36*
X127472732Y-96905490D02*
G01*
X127472488Y-96905490D01*
X127472488Y-96905384D01*
X127472732Y-96905384D01*
X127472732Y-96905490D01*
G37*
G36*
X135013249Y-94716174D02*
G01*
X134283534Y-94716174D01*
X134283534Y-93986459D01*
X135013249Y-93986459D01*
X135013249Y-94716174D01*
G37*
G36*
X134283114Y-99337857D02*
G01*
X134039876Y-99337857D01*
X134039876Y-99094619D01*
X134283114Y-99094619D01*
X134283114Y-99337857D01*
G37*
G36*
X130391427Y-95689302D02*
G01*
X130391299Y-95689302D01*
X130391299Y-95689266D01*
X130391427Y-95689266D01*
X130391427Y-95689302D01*
G37*
G36*
X135499558Y-95689111D02*
G01*
X135256320Y-95689111D01*
X135256320Y-95445874D01*
X135499558Y-95445874D01*
X135499558Y-95689111D01*
G37*
G36*
X135499682Y-95202634D02*
G01*
X133797048Y-95202634D01*
X133797048Y-94959404D01*
X133797048Y-94351317D01*
X133797048Y-93743229D01*
X134040278Y-93743229D01*
X134040278Y-94959404D01*
X135256452Y-94959404D01*
X135256452Y-93743229D01*
X134040278Y-93743229D01*
X133797048Y-93743229D01*
X133797048Y-93500000D01*
X135499682Y-93500000D01*
X135499682Y-95202634D01*
G37*
G36*
X130391299Y-95689266D02*
G01*
X130148190Y-95689266D01*
X130148190Y-95446064D01*
X130391299Y-95446064D01*
X130391299Y-95689266D01*
G37*
G36*
X131607688Y-98851371D02*
G01*
X131607479Y-98851371D01*
X131607479Y-98851264D01*
X131607688Y-98851264D01*
X131607688Y-98851371D01*
G37*
G36*
X135012829Y-101526976D02*
G01*
X135256067Y-101526976D01*
X135256067Y-101770214D01*
X135499304Y-101770214D01*
X135499304Y-102499929D01*
X134526386Y-102499929D01*
X134526386Y-102256701D01*
X135256067Y-102256701D01*
X135256067Y-101770215D01*
X135012829Y-101770215D01*
X135012829Y-102013453D01*
X134769591Y-102013453D01*
X134769591Y-101283738D01*
X135012829Y-101283738D01*
X135012829Y-101526976D01*
G37*
G36*
X129175135Y-102499880D02*
G01*
X128931898Y-102499880D01*
X128931898Y-102256643D01*
X129175135Y-102256643D01*
X129175135Y-102499880D01*
G37*
G36*
X133553526Y-96419001D02*
G01*
X133553397Y-96419001D01*
X133553397Y-96418968D01*
X133553526Y-96418968D01*
X133553526Y-96419001D01*
G37*
G36*
X128688766Y-99337889D02*
G01*
X128688705Y-99337889D01*
X128688705Y-99337770D01*
X128688766Y-99337770D01*
X128688766Y-99337889D01*
G37*
G36*
X133310288Y-96175764D02*
G01*
X133310159Y-96175764D01*
X133310159Y-96175730D01*
X133310288Y-96175730D01*
X133310288Y-96175764D01*
G37*
G36*
X128202634Y-95202634D02*
G01*
X126500000Y-95202634D01*
X126500000Y-94959404D01*
X126500000Y-93743229D01*
X126743230Y-93743229D01*
X126743230Y-94959404D01*
X127959404Y-94959404D01*
X127959404Y-93743229D01*
X126743230Y-93743229D01*
X126500000Y-93743229D01*
X126500000Y-93500000D01*
X128202634Y-93500000D01*
X128202634Y-95202634D01*
G37*
G36*
X133067093Y-97635142D02*
G01*
X132337378Y-97635142D01*
X132337370Y-97513512D01*
X132337370Y-97391894D01*
X132823855Y-97391894D01*
X132823855Y-97148657D01*
X133067093Y-97148657D01*
X133067093Y-97635142D01*
G37*
G36*
X129175425Y-95202649D02*
G01*
X128932188Y-95202649D01*
X128932188Y-94959412D01*
X129175425Y-94959412D01*
X129175425Y-95202649D01*
G37*
G36*
X134283148Y-102013463D02*
G01*
X134283114Y-102013463D01*
X134283114Y-102013453D01*
X134283148Y-102013453D01*
X134283148Y-102013463D01*
G37*
G36*
X126986001Y-98364656D02*
G01*
X127229239Y-98364656D01*
X127229239Y-98607894D01*
X126742753Y-98607894D01*
X126742753Y-98364656D01*
X126499516Y-98364656D01*
X126499516Y-98121418D01*
X126986001Y-98121418D01*
X126986001Y-98364656D01*
G37*
G36*
X134040136Y-99581095D02*
G01*
X134039876Y-99581095D01*
X134039876Y-99581031D01*
X134040136Y-99581031D01*
X134040136Y-99581095D01*
G37*
G36*
X134769593Y-97878428D02*
G01*
X134526355Y-97878428D01*
X134526355Y-97635191D01*
X134769593Y-97635191D01*
X134769593Y-97878428D01*
G37*
G36*
X135499308Y-97148713D02*
G01*
X135012823Y-97148713D01*
X135012823Y-96905476D01*
X135499308Y-96905476D01*
X135499308Y-97148713D01*
G37*
G36*
X126742802Y-100554046D02*
G01*
X126499564Y-100554046D01*
X126499564Y-99581127D01*
X126742802Y-99581127D01*
X126742802Y-100554046D01*
G37*
G36*
X129418632Y-93743221D02*
G01*
X129661869Y-93743221D01*
X129661869Y-93499984D01*
X130148355Y-93499984D01*
X130148355Y-93743221D01*
X130634841Y-93743221D01*
X130634841Y-93499984D01*
X130878078Y-93499984D01*
X130878078Y-93743221D01*
X131121316Y-93743221D01*
X131121316Y-93986459D01*
X130878078Y-93986459D01*
X130878078Y-94229696D01*
X129905160Y-94229696D01*
X129905160Y-94472934D01*
X129418674Y-94472934D01*
X129418674Y-94716172D01*
X129175436Y-94716172D01*
X129175436Y-94229686D01*
X129418674Y-94229686D01*
X129418674Y-93986477D01*
X129418674Y-93986448D01*
X128932188Y-93986448D01*
X128932188Y-94472934D01*
X128688950Y-94472934D01*
X128688950Y-95202649D01*
X128932188Y-95202649D01*
X128932188Y-95689135D01*
X128688950Y-95689135D01*
X128688908Y-95445890D01*
X128688908Y-95202652D01*
X128445671Y-95202652D01*
X128445671Y-94472937D01*
X128688908Y-94472937D01*
X128688908Y-93743240D01*
X129905075Y-93743240D01*
X129905075Y-93986477D01*
X130148312Y-93986477D01*
X130148312Y-93743240D01*
X130634790Y-93743240D01*
X130634790Y-93986477D01*
X130878028Y-93986477D01*
X130878028Y-93743240D01*
X130634790Y-93743240D01*
X130148312Y-93743240D01*
X129905075Y-93743240D01*
X128688908Y-93743240D01*
X128688908Y-93743221D01*
X129175394Y-93743221D01*
X129175394Y-93499984D01*
X129418632Y-93499984D01*
X129418632Y-93743221D01*
G37*
G36*
X130877954Y-99581003D02*
G01*
X130634717Y-99581003D01*
X130634717Y-99824240D01*
X130391479Y-99824240D01*
X130391479Y-99581003D01*
X130148242Y-99581003D01*
X130148242Y-99337765D01*
X130877954Y-99337765D01*
X130877954Y-99581003D01*
G37*
G36*
X132580881Y-95202652D02*
G01*
X132337643Y-95202652D01*
X132337643Y-94959414D01*
X132580881Y-94959414D01*
X132580881Y-95202652D01*
G37*
G36*
X134526352Y-102256690D02*
G01*
X134283148Y-102256690D01*
X134283148Y-102013463D01*
X134526352Y-102013463D01*
X134526352Y-102256690D01*
G37*
G36*
X130148190Y-95446064D02*
G01*
X130148061Y-95446064D01*
X130148061Y-95446028D01*
X130148190Y-95446028D01*
X130148190Y-95446064D01*
G37*
G36*
X127716201Y-94716174D02*
G01*
X126986486Y-94716174D01*
X126986486Y-94351317D01*
X126986486Y-93986459D01*
X127716201Y-93986459D01*
X127716201Y-94716174D01*
G37*
G36*
X134526386Y-102256701D02*
G01*
X134526352Y-102256701D01*
X134526352Y-102256690D01*
X134526386Y-102256690D01*
X134526386Y-102256701D01*
G37*
G36*
X135499330Y-96662049D02*
G01*
X135256092Y-96662049D01*
X135256082Y-96418808D01*
X135256082Y-96175571D01*
X135012844Y-96175571D01*
X135012844Y-95932333D01*
X135499330Y-95932333D01*
X135499330Y-96662049D01*
G37*
G36*
X129175286Y-98121599D02*
G01*
X128932048Y-98121599D01*
X128932048Y-97878361D01*
X129175286Y-97878361D01*
X129175286Y-98121599D01*
G37*
D11*
X78472744Y-105189819D02*
X78663220Y-105189819D01*
X78663220Y-105189819D02*
X78758458Y-105237438D01*
X78758458Y-105237438D02*
X78853696Y-105332676D01*
X78853696Y-105332676D02*
X78901315Y-105523152D01*
X78901315Y-105523152D02*
X78901315Y-105856485D01*
X78901315Y-105856485D02*
X78853696Y-106046961D01*
X78853696Y-106046961D02*
X78758458Y-106142200D01*
X78758458Y-106142200D02*
X78663220Y-106189819D01*
X78663220Y-106189819D02*
X78472744Y-106189819D01*
X78472744Y-106189819D02*
X78377506Y-106142200D01*
X78377506Y-106142200D02*
X78282268Y-106046961D01*
X78282268Y-106046961D02*
X78234649Y-105856485D01*
X78234649Y-105856485D02*
X78234649Y-105523152D01*
X78234649Y-105523152D02*
X78282268Y-105332676D01*
X78282268Y-105332676D02*
X78377506Y-105237438D01*
X78377506Y-105237438D02*
X78472744Y-105189819D01*
X79329887Y-105189819D02*
X79329887Y-105999342D01*
X79329887Y-105999342D02*
X79377506Y-106094580D01*
X79377506Y-106094580D02*
X79425125Y-106142200D01*
X79425125Y-106142200D02*
X79520363Y-106189819D01*
X79520363Y-106189819D02*
X79710839Y-106189819D01*
X79710839Y-106189819D02*
X79806077Y-106142200D01*
X79806077Y-106142200D02*
X79853696Y-106094580D01*
X79853696Y-106094580D02*
X79901315Y-105999342D01*
X79901315Y-105999342D02*
X79901315Y-105189819D01*
X80234649Y-105189819D02*
X80806077Y-105189819D01*
X80520363Y-106189819D02*
X80520363Y-105189819D01*
X137360588Y-94477662D02*
X137265350Y-94430043D01*
X137265350Y-94430043D02*
X137122493Y-94430043D01*
X137122493Y-94430043D02*
X136979636Y-94477662D01*
X136979636Y-94477662D02*
X136884398Y-94572900D01*
X136884398Y-94572900D02*
X136836779Y-94668138D01*
X136836779Y-94668138D02*
X136789160Y-94858614D01*
X136789160Y-94858614D02*
X136789160Y-95001471D01*
X136789160Y-95001471D02*
X136836779Y-95191947D01*
X136836779Y-95191947D02*
X136884398Y-95287185D01*
X136884398Y-95287185D02*
X136979636Y-95382424D01*
X136979636Y-95382424D02*
X137122493Y-95430043D01*
X137122493Y-95430043D02*
X137217731Y-95430043D01*
X137217731Y-95430043D02*
X137360588Y-95382424D01*
X137360588Y-95382424D02*
X137408207Y-95334804D01*
X137408207Y-95334804D02*
X137408207Y-95001471D01*
X137408207Y-95001471D02*
X137217731Y-95001471D01*
X137836779Y-95430043D02*
X137836779Y-94430043D01*
X137836779Y-94430043D02*
X138170112Y-95144328D01*
X138170112Y-95144328D02*
X138503445Y-94430043D01*
X138503445Y-94430043D02*
X138503445Y-95430043D01*
X138836779Y-94430043D02*
X139408207Y-94430043D01*
X139122493Y-95430043D02*
X139122493Y-94430043D01*
X141027255Y-94477662D02*
X140932017Y-94430043D01*
X140932017Y-94430043D02*
X140789160Y-94430043D01*
X140789160Y-94430043D02*
X140646303Y-94477662D01*
X140646303Y-94477662D02*
X140551065Y-94572900D01*
X140551065Y-94572900D02*
X140503446Y-94668138D01*
X140503446Y-94668138D02*
X140455827Y-94858614D01*
X140455827Y-94858614D02*
X140455827Y-95001471D01*
X140455827Y-95001471D02*
X140503446Y-95191947D01*
X140503446Y-95191947D02*
X140551065Y-95287185D01*
X140551065Y-95287185D02*
X140646303Y-95382424D01*
X140646303Y-95382424D02*
X140789160Y-95430043D01*
X140789160Y-95430043D02*
X140884398Y-95430043D01*
X140884398Y-95430043D02*
X141027255Y-95382424D01*
X141027255Y-95382424D02*
X141074874Y-95334804D01*
X141074874Y-95334804D02*
X141074874Y-95001471D01*
X141074874Y-95001471D02*
X140884398Y-95001471D01*
X141884398Y-95382424D02*
X141789160Y-95430043D01*
X141789160Y-95430043D02*
X141598684Y-95430043D01*
X141598684Y-95430043D02*
X141503446Y-95382424D01*
X141503446Y-95382424D02*
X141455827Y-95287185D01*
X141455827Y-95287185D02*
X141455827Y-94906233D01*
X141455827Y-94906233D02*
X141503446Y-94810995D01*
X141503446Y-94810995D02*
X141598684Y-94763376D01*
X141598684Y-94763376D02*
X141789160Y-94763376D01*
X141789160Y-94763376D02*
X141884398Y-94810995D01*
X141884398Y-94810995D02*
X141932017Y-94906233D01*
X141932017Y-94906233D02*
X141932017Y-95001471D01*
X141932017Y-95001471D02*
X141455827Y-95096709D01*
X142360589Y-95430043D02*
X142360589Y-94763376D01*
X142360589Y-94430043D02*
X142312970Y-94477662D01*
X142312970Y-94477662D02*
X142360589Y-94525281D01*
X142360589Y-94525281D02*
X142408208Y-94477662D01*
X142408208Y-94477662D02*
X142360589Y-94430043D01*
X142360589Y-94430043D02*
X142360589Y-94525281D01*
X143265350Y-94763376D02*
X143265350Y-95572900D01*
X143265350Y-95572900D02*
X143217731Y-95668138D01*
X143217731Y-95668138D02*
X143170112Y-95715757D01*
X143170112Y-95715757D02*
X143074874Y-95763376D01*
X143074874Y-95763376D02*
X142932017Y-95763376D01*
X142932017Y-95763376D02*
X142836779Y-95715757D01*
X143265350Y-95382424D02*
X143170112Y-95430043D01*
X143170112Y-95430043D02*
X142979636Y-95430043D01*
X142979636Y-95430043D02*
X142884398Y-95382424D01*
X142884398Y-95382424D02*
X142836779Y-95334804D01*
X142836779Y-95334804D02*
X142789160Y-95239566D01*
X142789160Y-95239566D02*
X142789160Y-94953852D01*
X142789160Y-94953852D02*
X142836779Y-94858614D01*
X142836779Y-94858614D02*
X142884398Y-94810995D01*
X142884398Y-94810995D02*
X142979636Y-94763376D01*
X142979636Y-94763376D02*
X143170112Y-94763376D01*
X143170112Y-94763376D02*
X143265350Y-94810995D01*
X144122493Y-95382424D02*
X144027255Y-95430043D01*
X144027255Y-95430043D02*
X143836779Y-95430043D01*
X143836779Y-95430043D02*
X143741541Y-95382424D01*
X143741541Y-95382424D02*
X143693922Y-95287185D01*
X143693922Y-95287185D02*
X143693922Y-94906233D01*
X143693922Y-94906233D02*
X143741541Y-94810995D01*
X143741541Y-94810995D02*
X143836779Y-94763376D01*
X143836779Y-94763376D02*
X144027255Y-94763376D01*
X144027255Y-94763376D02*
X144122493Y-94810995D01*
X144122493Y-94810995D02*
X144170112Y-94906233D01*
X144170112Y-94906233D02*
X144170112Y-95001471D01*
X144170112Y-95001471D02*
X143693922Y-95096709D01*
X144598684Y-95430043D02*
X144598684Y-94763376D01*
X144598684Y-94953852D02*
X144646303Y-94858614D01*
X144646303Y-94858614D02*
X144693922Y-94810995D01*
X144693922Y-94810995D02*
X144789160Y-94763376D01*
X144789160Y-94763376D02*
X144884398Y-94763376D01*
X146551065Y-95334804D02*
X146503446Y-95382424D01*
X146503446Y-95382424D02*
X146360589Y-95430043D01*
X146360589Y-95430043D02*
X146265351Y-95430043D01*
X146265351Y-95430043D02*
X146122494Y-95382424D01*
X146122494Y-95382424D02*
X146027256Y-95287185D01*
X146027256Y-95287185D02*
X145979637Y-95191947D01*
X145979637Y-95191947D02*
X145932018Y-95001471D01*
X145932018Y-95001471D02*
X145932018Y-94858614D01*
X145932018Y-94858614D02*
X145979637Y-94668138D01*
X145979637Y-94668138D02*
X146027256Y-94572900D01*
X146027256Y-94572900D02*
X146122494Y-94477662D01*
X146122494Y-94477662D02*
X146265351Y-94430043D01*
X146265351Y-94430043D02*
X146360589Y-94430043D01*
X146360589Y-94430043D02*
X146503446Y-94477662D01*
X146503446Y-94477662D02*
X146551065Y-94525281D01*
X147122494Y-95430043D02*
X147027256Y-95382424D01*
X147027256Y-95382424D02*
X146979637Y-95334804D01*
X146979637Y-95334804D02*
X146932018Y-95239566D01*
X146932018Y-95239566D02*
X146932018Y-94953852D01*
X146932018Y-94953852D02*
X146979637Y-94858614D01*
X146979637Y-94858614D02*
X147027256Y-94810995D01*
X147027256Y-94810995D02*
X147122494Y-94763376D01*
X147122494Y-94763376D02*
X147265351Y-94763376D01*
X147265351Y-94763376D02*
X147360589Y-94810995D01*
X147360589Y-94810995D02*
X147408208Y-94858614D01*
X147408208Y-94858614D02*
X147455827Y-94953852D01*
X147455827Y-94953852D02*
X147455827Y-95239566D01*
X147455827Y-95239566D02*
X147408208Y-95334804D01*
X147408208Y-95334804D02*
X147360589Y-95382424D01*
X147360589Y-95382424D02*
X147265351Y-95430043D01*
X147265351Y-95430043D02*
X147122494Y-95430043D01*
X148312970Y-94763376D02*
X148312970Y-95430043D01*
X147884399Y-94763376D02*
X147884399Y-95287185D01*
X147884399Y-95287185D02*
X147932018Y-95382424D01*
X147932018Y-95382424D02*
X148027256Y-95430043D01*
X148027256Y-95430043D02*
X148170113Y-95430043D01*
X148170113Y-95430043D02*
X148265351Y-95382424D01*
X148265351Y-95382424D02*
X148312970Y-95334804D01*
X148789161Y-94763376D02*
X148789161Y-95430043D01*
X148789161Y-94858614D02*
X148836780Y-94810995D01*
X148836780Y-94810995D02*
X148932018Y-94763376D01*
X148932018Y-94763376D02*
X149074875Y-94763376D01*
X149074875Y-94763376D02*
X149170113Y-94810995D01*
X149170113Y-94810995D02*
X149217732Y-94906233D01*
X149217732Y-94906233D02*
X149217732Y-95430043D01*
X149551066Y-94763376D02*
X149932018Y-94763376D01*
X149693923Y-94430043D02*
X149693923Y-95287185D01*
X149693923Y-95287185D02*
X149741542Y-95382424D01*
X149741542Y-95382424D02*
X149836780Y-95430043D01*
X149836780Y-95430043D02*
X149932018Y-95430043D01*
X150646304Y-95382424D02*
X150551066Y-95430043D01*
X150551066Y-95430043D02*
X150360590Y-95430043D01*
X150360590Y-95430043D02*
X150265352Y-95382424D01*
X150265352Y-95382424D02*
X150217733Y-95287185D01*
X150217733Y-95287185D02*
X150217733Y-94906233D01*
X150217733Y-94906233D02*
X150265352Y-94810995D01*
X150265352Y-94810995D02*
X150360590Y-94763376D01*
X150360590Y-94763376D02*
X150551066Y-94763376D01*
X150551066Y-94763376D02*
X150646304Y-94810995D01*
X150646304Y-94810995D02*
X150693923Y-94906233D01*
X150693923Y-94906233D02*
X150693923Y-95001471D01*
X150693923Y-95001471D02*
X150217733Y-95096709D01*
X151122495Y-95430043D02*
X151122495Y-94763376D01*
X151122495Y-94953852D02*
X151170114Y-94858614D01*
X151170114Y-94858614D02*
X151217733Y-94810995D01*
X151217733Y-94810995D02*
X151312971Y-94763376D01*
X151312971Y-94763376D02*
X151408209Y-94763376D01*
X136693922Y-96039987D02*
X137265350Y-96039987D01*
X136979636Y-97039987D02*
X136979636Y-96039987D01*
X138027255Y-96373320D02*
X138027255Y-97039987D01*
X137598684Y-96373320D02*
X137598684Y-96897129D01*
X137598684Y-96897129D02*
X137646303Y-96992368D01*
X137646303Y-96992368D02*
X137741541Y-97039987D01*
X137741541Y-97039987D02*
X137884398Y-97039987D01*
X137884398Y-97039987D02*
X137979636Y-96992368D01*
X137979636Y-96992368D02*
X138027255Y-96944748D01*
X138503446Y-97039987D02*
X138503446Y-96039987D01*
X138503446Y-96420939D02*
X138598684Y-96373320D01*
X138598684Y-96373320D02*
X138789160Y-96373320D01*
X138789160Y-96373320D02*
X138884398Y-96420939D01*
X138884398Y-96420939D02*
X138932017Y-96468558D01*
X138932017Y-96468558D02*
X138979636Y-96563796D01*
X138979636Y-96563796D02*
X138979636Y-96849510D01*
X138979636Y-96849510D02*
X138932017Y-96944748D01*
X138932017Y-96944748D02*
X138884398Y-96992368D01*
X138884398Y-96992368D02*
X138789160Y-97039987D01*
X138789160Y-97039987D02*
X138598684Y-97039987D01*
X138598684Y-97039987D02*
X138503446Y-96992368D01*
X139789160Y-96992368D02*
X139693922Y-97039987D01*
X139693922Y-97039987D02*
X139503446Y-97039987D01*
X139503446Y-97039987D02*
X139408208Y-96992368D01*
X139408208Y-96992368D02*
X139360589Y-96897129D01*
X139360589Y-96897129D02*
X139360589Y-96516177D01*
X139360589Y-96516177D02*
X139408208Y-96420939D01*
X139408208Y-96420939D02*
X139503446Y-96373320D01*
X139503446Y-96373320D02*
X139693922Y-96373320D01*
X139693922Y-96373320D02*
X139789160Y-96420939D01*
X139789160Y-96420939D02*
X139836779Y-96516177D01*
X139836779Y-96516177D02*
X139836779Y-96611415D01*
X139836779Y-96611415D02*
X139360589Y-96706653D01*
X141027256Y-97039987D02*
X141027256Y-96039987D01*
X141027256Y-96039987D02*
X141265351Y-96039987D01*
X141265351Y-96039987D02*
X141408208Y-96087606D01*
X141408208Y-96087606D02*
X141503446Y-96182844D01*
X141503446Y-96182844D02*
X141551065Y-96278082D01*
X141551065Y-96278082D02*
X141598684Y-96468558D01*
X141598684Y-96468558D02*
X141598684Y-96611415D01*
X141598684Y-96611415D02*
X141551065Y-96801891D01*
X141551065Y-96801891D02*
X141503446Y-96897129D01*
X141503446Y-96897129D02*
X141408208Y-96992368D01*
X141408208Y-96992368D02*
X141265351Y-97039987D01*
X141265351Y-97039987D02*
X141027256Y-97039987D01*
X142027256Y-97039987D02*
X142027256Y-96373320D01*
X142027256Y-96563796D02*
X142074875Y-96468558D01*
X142074875Y-96468558D02*
X142122494Y-96420939D01*
X142122494Y-96420939D02*
X142217732Y-96373320D01*
X142217732Y-96373320D02*
X142312970Y-96373320D01*
X142646304Y-97039987D02*
X142646304Y-96373320D01*
X142646304Y-96039987D02*
X142598685Y-96087606D01*
X142598685Y-96087606D02*
X142646304Y-96135225D01*
X142646304Y-96135225D02*
X142693923Y-96087606D01*
X142693923Y-96087606D02*
X142646304Y-96039987D01*
X142646304Y-96039987D02*
X142646304Y-96135225D01*
X143027256Y-96373320D02*
X143265351Y-97039987D01*
X143265351Y-97039987D02*
X143503446Y-96373320D01*
X144265351Y-96992368D02*
X144170113Y-97039987D01*
X144170113Y-97039987D02*
X143979637Y-97039987D01*
X143979637Y-97039987D02*
X143884399Y-96992368D01*
X143884399Y-96992368D02*
X143836780Y-96897129D01*
X143836780Y-96897129D02*
X143836780Y-96516177D01*
X143836780Y-96516177D02*
X143884399Y-96420939D01*
X143884399Y-96420939D02*
X143979637Y-96373320D01*
X143979637Y-96373320D02*
X144170113Y-96373320D01*
X144170113Y-96373320D02*
X144265351Y-96420939D01*
X144265351Y-96420939D02*
X144312970Y-96516177D01*
X144312970Y-96516177D02*
X144312970Y-96611415D01*
X144312970Y-96611415D02*
X143836780Y-96706653D01*
X144741542Y-97039987D02*
X144741542Y-96373320D01*
X144741542Y-96563796D02*
X144789161Y-96468558D01*
X144789161Y-96468558D02*
X144836780Y-96420939D01*
X144836780Y-96420939D02*
X144932018Y-96373320D01*
X144932018Y-96373320D02*
X145027256Y-96373320D01*
X146693923Y-97039987D02*
X146360590Y-96563796D01*
X146122495Y-97039987D02*
X146122495Y-96039987D01*
X146122495Y-96039987D02*
X146503447Y-96039987D01*
X146503447Y-96039987D02*
X146598685Y-96087606D01*
X146598685Y-96087606D02*
X146646304Y-96135225D01*
X146646304Y-96135225D02*
X146693923Y-96230463D01*
X146693923Y-96230463D02*
X146693923Y-96373320D01*
X146693923Y-96373320D02*
X146646304Y-96468558D01*
X146646304Y-96468558D02*
X146598685Y-96516177D01*
X146598685Y-96516177D02*
X146503447Y-96563796D01*
X146503447Y-96563796D02*
X146122495Y-96563796D01*
X147503447Y-96992368D02*
X147408209Y-97039987D01*
X147408209Y-97039987D02*
X147217733Y-97039987D01*
X147217733Y-97039987D02*
X147122495Y-96992368D01*
X147122495Y-96992368D02*
X147074876Y-96897129D01*
X147074876Y-96897129D02*
X147074876Y-96516177D01*
X147074876Y-96516177D02*
X147122495Y-96420939D01*
X147122495Y-96420939D02*
X147217733Y-96373320D01*
X147217733Y-96373320D02*
X147408209Y-96373320D01*
X147408209Y-96373320D02*
X147503447Y-96420939D01*
X147503447Y-96420939D02*
X147551066Y-96516177D01*
X147551066Y-96516177D02*
X147551066Y-96611415D01*
X147551066Y-96611415D02*
X147074876Y-96706653D01*
X147884400Y-96373320D02*
X148122495Y-97039987D01*
X148122495Y-97039987D02*
X148360590Y-96373320D01*
X148741543Y-96944748D02*
X148789162Y-96992368D01*
X148789162Y-96992368D02*
X148741543Y-97039987D01*
X148741543Y-97039987D02*
X148693924Y-96992368D01*
X148693924Y-96992368D02*
X148741543Y-96944748D01*
X148741543Y-96944748D02*
X148741543Y-97039987D01*
X150503447Y-97039987D02*
X149932019Y-97039987D01*
X150217733Y-97039987D02*
X150217733Y-96039987D01*
X150217733Y-96039987D02*
X150122495Y-96182844D01*
X150122495Y-96182844D02*
X150027257Y-96278082D01*
X150027257Y-96278082D02*
X149932019Y-96325701D01*
X150932019Y-96944748D02*
X150979638Y-96992368D01*
X150979638Y-96992368D02*
X150932019Y-97039987D01*
X150932019Y-97039987D02*
X150884400Y-96992368D01*
X150884400Y-96992368D02*
X150932019Y-96944748D01*
X150932019Y-96944748D02*
X150932019Y-97039987D01*
X151598685Y-96039987D02*
X151693923Y-96039987D01*
X151693923Y-96039987D02*
X151789161Y-96087606D01*
X151789161Y-96087606D02*
X151836780Y-96135225D01*
X151836780Y-96135225D02*
X151884399Y-96230463D01*
X151884399Y-96230463D02*
X151932018Y-96420939D01*
X151932018Y-96420939D02*
X151932018Y-96659034D01*
X151932018Y-96659034D02*
X151884399Y-96849510D01*
X151884399Y-96849510D02*
X151836780Y-96944748D01*
X151836780Y-96944748D02*
X151789161Y-96992368D01*
X151789161Y-96992368D02*
X151693923Y-97039987D01*
X151693923Y-97039987D02*
X151598685Y-97039987D01*
X151598685Y-97039987D02*
X151503447Y-96992368D01*
X151503447Y-96992368D02*
X151455828Y-96944748D01*
X151455828Y-96944748D02*
X151408209Y-96849510D01*
X151408209Y-96849510D02*
X151360590Y-96659034D01*
X151360590Y-96659034D02*
X151360590Y-96420939D01*
X151360590Y-96420939D02*
X151408209Y-96230463D01*
X151408209Y-96230463D02*
X151455828Y-96135225D01*
X151455828Y-96135225D02*
X151503447Y-96087606D01*
X151503447Y-96087606D02*
X151598685Y-96039987D01*
X136836779Y-98649931D02*
X136836779Y-97649931D01*
X136836779Y-97649931D02*
X137170112Y-98364216D01*
X137170112Y-98364216D02*
X137503445Y-97649931D01*
X137503445Y-97649931D02*
X137503445Y-98649931D01*
X138360588Y-98602312D02*
X138265350Y-98649931D01*
X138265350Y-98649931D02*
X138074874Y-98649931D01*
X138074874Y-98649931D02*
X137979636Y-98602312D01*
X137979636Y-98602312D02*
X137932017Y-98507073D01*
X137932017Y-98507073D02*
X137932017Y-98126121D01*
X137932017Y-98126121D02*
X137979636Y-98030883D01*
X137979636Y-98030883D02*
X138074874Y-97983264D01*
X138074874Y-97983264D02*
X138265350Y-97983264D01*
X138265350Y-97983264D02*
X138360588Y-98030883D01*
X138360588Y-98030883D02*
X138408207Y-98126121D01*
X138408207Y-98126121D02*
X138408207Y-98221359D01*
X138408207Y-98221359D02*
X137932017Y-98316597D01*
X139265350Y-98649931D02*
X139265350Y-97649931D01*
X139265350Y-98602312D02*
X139170112Y-98649931D01*
X139170112Y-98649931D02*
X138979636Y-98649931D01*
X138979636Y-98649931D02*
X138884398Y-98602312D01*
X138884398Y-98602312D02*
X138836779Y-98554692D01*
X138836779Y-98554692D02*
X138789160Y-98459454D01*
X138789160Y-98459454D02*
X138789160Y-98173740D01*
X138789160Y-98173740D02*
X138836779Y-98078502D01*
X138836779Y-98078502D02*
X138884398Y-98030883D01*
X138884398Y-98030883D02*
X138979636Y-97983264D01*
X138979636Y-97983264D02*
X139170112Y-97983264D01*
X139170112Y-97983264D02*
X139265350Y-98030883D01*
X139741541Y-98649931D02*
X139741541Y-97983264D01*
X139741541Y-97649931D02*
X139693922Y-97697550D01*
X139693922Y-97697550D02*
X139741541Y-97745169D01*
X139741541Y-97745169D02*
X139789160Y-97697550D01*
X139789160Y-97697550D02*
X139741541Y-97649931D01*
X139741541Y-97649931D02*
X139741541Y-97745169D01*
X140646302Y-98649931D02*
X140646302Y-98126121D01*
X140646302Y-98126121D02*
X140598683Y-98030883D01*
X140598683Y-98030883D02*
X140503445Y-97983264D01*
X140503445Y-97983264D02*
X140312969Y-97983264D01*
X140312969Y-97983264D02*
X140217731Y-98030883D01*
X140646302Y-98602312D02*
X140551064Y-98649931D01*
X140551064Y-98649931D02*
X140312969Y-98649931D01*
X140312969Y-98649931D02*
X140217731Y-98602312D01*
X140217731Y-98602312D02*
X140170112Y-98507073D01*
X140170112Y-98507073D02*
X140170112Y-98411835D01*
X140170112Y-98411835D02*
X140217731Y-98316597D01*
X140217731Y-98316597D02*
X140312969Y-98268978D01*
X140312969Y-98268978D02*
X140551064Y-98268978D01*
X140551064Y-98268978D02*
X140646302Y-98221359D01*
X141122493Y-97983264D02*
X141122493Y-98649931D01*
X141122493Y-98078502D02*
X141170112Y-98030883D01*
X141170112Y-98030883D02*
X141265350Y-97983264D01*
X141265350Y-97983264D02*
X141408207Y-97983264D01*
X141408207Y-97983264D02*
X141503445Y-98030883D01*
X141503445Y-98030883D02*
X141551064Y-98126121D01*
X141551064Y-98126121D02*
X141551064Y-98649931D01*
X142789160Y-98649931D02*
X142789160Y-97649931D01*
X142789160Y-97649931D02*
X143027255Y-97649931D01*
X143027255Y-97649931D02*
X143170112Y-97697550D01*
X143170112Y-97697550D02*
X143265350Y-97792788D01*
X143265350Y-97792788D02*
X143312969Y-97888026D01*
X143312969Y-97888026D02*
X143360588Y-98078502D01*
X143360588Y-98078502D02*
X143360588Y-98221359D01*
X143360588Y-98221359D02*
X143312969Y-98411835D01*
X143312969Y-98411835D02*
X143265350Y-98507073D01*
X143265350Y-98507073D02*
X143170112Y-98602312D01*
X143170112Y-98602312D02*
X143027255Y-98649931D01*
X143027255Y-98649931D02*
X142789160Y-98649931D01*
X143789160Y-98649931D02*
X143789160Y-97983264D01*
X143789160Y-97649931D02*
X143741541Y-97697550D01*
X143741541Y-97697550D02*
X143789160Y-97745169D01*
X143789160Y-97745169D02*
X143836779Y-97697550D01*
X143836779Y-97697550D02*
X143789160Y-97649931D01*
X143789160Y-97649931D02*
X143789160Y-97745169D01*
X144217731Y-98602312D02*
X144312969Y-98649931D01*
X144312969Y-98649931D02*
X144503445Y-98649931D01*
X144503445Y-98649931D02*
X144598683Y-98602312D01*
X144598683Y-98602312D02*
X144646302Y-98507073D01*
X144646302Y-98507073D02*
X144646302Y-98459454D01*
X144646302Y-98459454D02*
X144598683Y-98364216D01*
X144598683Y-98364216D02*
X144503445Y-98316597D01*
X144503445Y-98316597D02*
X144360588Y-98316597D01*
X144360588Y-98316597D02*
X144265350Y-98268978D01*
X144265350Y-98268978D02*
X144217731Y-98173740D01*
X144217731Y-98173740D02*
X144217731Y-98126121D01*
X144217731Y-98126121D02*
X144265350Y-98030883D01*
X144265350Y-98030883D02*
X144360588Y-97983264D01*
X144360588Y-97983264D02*
X144503445Y-97983264D01*
X144503445Y-97983264D02*
X144598683Y-98030883D01*
X145074874Y-97983264D02*
X145074874Y-98983264D01*
X145074874Y-98030883D02*
X145170112Y-97983264D01*
X145170112Y-97983264D02*
X145360588Y-97983264D01*
X145360588Y-97983264D02*
X145455826Y-98030883D01*
X145455826Y-98030883D02*
X145503445Y-98078502D01*
X145503445Y-98078502D02*
X145551064Y-98173740D01*
X145551064Y-98173740D02*
X145551064Y-98459454D01*
X145551064Y-98459454D02*
X145503445Y-98554692D01*
X145503445Y-98554692D02*
X145455826Y-98602312D01*
X145455826Y-98602312D02*
X145360588Y-98649931D01*
X145360588Y-98649931D02*
X145170112Y-98649931D01*
X145170112Y-98649931D02*
X145074874Y-98602312D01*
X146360588Y-98602312D02*
X146265350Y-98649931D01*
X146265350Y-98649931D02*
X146074874Y-98649931D01*
X146074874Y-98649931D02*
X145979636Y-98602312D01*
X145979636Y-98602312D02*
X145932017Y-98507073D01*
X145932017Y-98507073D02*
X145932017Y-98126121D01*
X145932017Y-98126121D02*
X145979636Y-98030883D01*
X145979636Y-98030883D02*
X146074874Y-97983264D01*
X146074874Y-97983264D02*
X146265350Y-97983264D01*
X146265350Y-97983264D02*
X146360588Y-98030883D01*
X146360588Y-98030883D02*
X146408207Y-98126121D01*
X146408207Y-98126121D02*
X146408207Y-98221359D01*
X146408207Y-98221359D02*
X145932017Y-98316597D01*
X146836779Y-98649931D02*
X146836779Y-97983264D01*
X146836779Y-98173740D02*
X146884398Y-98078502D01*
X146884398Y-98078502D02*
X146932017Y-98030883D01*
X146932017Y-98030883D02*
X147027255Y-97983264D01*
X147027255Y-97983264D02*
X147122493Y-97983264D01*
X147408208Y-98602312D02*
X147503446Y-98649931D01*
X147503446Y-98649931D02*
X147693922Y-98649931D01*
X147693922Y-98649931D02*
X147789160Y-98602312D01*
X147789160Y-98602312D02*
X147836779Y-98507073D01*
X147836779Y-98507073D02*
X147836779Y-98459454D01*
X147836779Y-98459454D02*
X147789160Y-98364216D01*
X147789160Y-98364216D02*
X147693922Y-98316597D01*
X147693922Y-98316597D02*
X147551065Y-98316597D01*
X147551065Y-98316597D02*
X147455827Y-98268978D01*
X147455827Y-98268978D02*
X147408208Y-98173740D01*
X147408208Y-98173740D02*
X147408208Y-98126121D01*
X147408208Y-98126121D02*
X147455827Y-98030883D01*
X147455827Y-98030883D02*
X147551065Y-97983264D01*
X147551065Y-97983264D02*
X147693922Y-97983264D01*
X147693922Y-97983264D02*
X147789160Y-98030883D01*
X148265351Y-98649931D02*
X148265351Y-97983264D01*
X148265351Y-97649931D02*
X148217732Y-97697550D01*
X148217732Y-97697550D02*
X148265351Y-97745169D01*
X148265351Y-97745169D02*
X148312970Y-97697550D01*
X148312970Y-97697550D02*
X148265351Y-97649931D01*
X148265351Y-97649931D02*
X148265351Y-97745169D01*
X148884398Y-98649931D02*
X148789160Y-98602312D01*
X148789160Y-98602312D02*
X148741541Y-98554692D01*
X148741541Y-98554692D02*
X148693922Y-98459454D01*
X148693922Y-98459454D02*
X148693922Y-98173740D01*
X148693922Y-98173740D02*
X148741541Y-98078502D01*
X148741541Y-98078502D02*
X148789160Y-98030883D01*
X148789160Y-98030883D02*
X148884398Y-97983264D01*
X148884398Y-97983264D02*
X149027255Y-97983264D01*
X149027255Y-97983264D02*
X149122493Y-98030883D01*
X149122493Y-98030883D02*
X149170112Y-98078502D01*
X149170112Y-98078502D02*
X149217731Y-98173740D01*
X149217731Y-98173740D02*
X149217731Y-98459454D01*
X149217731Y-98459454D02*
X149170112Y-98554692D01*
X149170112Y-98554692D02*
X149122493Y-98602312D01*
X149122493Y-98602312D02*
X149027255Y-98649931D01*
X149027255Y-98649931D02*
X148884398Y-98649931D01*
X149646303Y-97983264D02*
X149646303Y-98649931D01*
X149646303Y-98078502D02*
X149693922Y-98030883D01*
X149693922Y-98030883D02*
X149789160Y-97983264D01*
X149789160Y-97983264D02*
X149932017Y-97983264D01*
X149932017Y-97983264D02*
X150027255Y-98030883D01*
X150027255Y-98030883D02*
X150074874Y-98126121D01*
X150074874Y-98126121D02*
X150074874Y-98649931D01*
X151265351Y-97745169D02*
X151312970Y-97697550D01*
X151312970Y-97697550D02*
X151408208Y-97649931D01*
X151408208Y-97649931D02*
X151646303Y-97649931D01*
X151646303Y-97649931D02*
X151741541Y-97697550D01*
X151741541Y-97697550D02*
X151789160Y-97745169D01*
X151789160Y-97745169D02*
X151836779Y-97840407D01*
X151836779Y-97840407D02*
X151836779Y-97935645D01*
X151836779Y-97935645D02*
X151789160Y-98078502D01*
X151789160Y-98078502D02*
X151217732Y-98649931D01*
X151217732Y-98649931D02*
X151836779Y-98649931D01*
X152455827Y-97649931D02*
X152551065Y-97649931D01*
X152551065Y-97649931D02*
X152646303Y-97697550D01*
X152646303Y-97697550D02*
X152693922Y-97745169D01*
X152693922Y-97745169D02*
X152741541Y-97840407D01*
X152741541Y-97840407D02*
X152789160Y-98030883D01*
X152789160Y-98030883D02*
X152789160Y-98268978D01*
X152789160Y-98268978D02*
X152741541Y-98459454D01*
X152741541Y-98459454D02*
X152693922Y-98554692D01*
X152693922Y-98554692D02*
X152646303Y-98602312D01*
X152646303Y-98602312D02*
X152551065Y-98649931D01*
X152551065Y-98649931D02*
X152455827Y-98649931D01*
X152455827Y-98649931D02*
X152360589Y-98602312D01*
X152360589Y-98602312D02*
X152312970Y-98554692D01*
X152312970Y-98554692D02*
X152265351Y-98459454D01*
X152265351Y-98459454D02*
X152217732Y-98268978D01*
X152217732Y-98268978D02*
X152217732Y-98030883D01*
X152217732Y-98030883D02*
X152265351Y-97840407D01*
X152265351Y-97840407D02*
X152312970Y-97745169D01*
X152312970Y-97745169D02*
X152360589Y-97697550D01*
X152360589Y-97697550D02*
X152455827Y-97649931D01*
X153170113Y-97745169D02*
X153217732Y-97697550D01*
X153217732Y-97697550D02*
X153312970Y-97649931D01*
X153312970Y-97649931D02*
X153551065Y-97649931D01*
X153551065Y-97649931D02*
X153646303Y-97697550D01*
X153646303Y-97697550D02*
X153693922Y-97745169D01*
X153693922Y-97745169D02*
X153741541Y-97840407D01*
X153741541Y-97840407D02*
X153741541Y-97935645D01*
X153741541Y-97935645D02*
X153693922Y-98078502D01*
X153693922Y-98078502D02*
X153122494Y-98649931D01*
X153122494Y-98649931D02*
X153741541Y-98649931D01*
X154598684Y-97983264D02*
X154598684Y-98649931D01*
X154360589Y-97602312D02*
X154122494Y-98316597D01*
X154122494Y-98316597D02*
X154741541Y-98316597D01*
X136836779Y-101869819D02*
X136836779Y-100869819D01*
X137265350Y-101869819D02*
X137265350Y-101346009D01*
X137265350Y-101346009D02*
X137217731Y-101250771D01*
X137217731Y-101250771D02*
X137122493Y-101203152D01*
X137122493Y-101203152D02*
X136979636Y-101203152D01*
X136979636Y-101203152D02*
X136884398Y-101250771D01*
X136884398Y-101250771D02*
X136836779Y-101298390D01*
X137598684Y-101203152D02*
X137979636Y-101203152D01*
X137741541Y-100869819D02*
X137741541Y-101726961D01*
X137741541Y-101726961D02*
X137789160Y-101822200D01*
X137789160Y-101822200D02*
X137884398Y-101869819D01*
X137884398Y-101869819D02*
X137979636Y-101869819D01*
X138170113Y-101203152D02*
X138551065Y-101203152D01*
X138312970Y-100869819D02*
X138312970Y-101726961D01*
X138312970Y-101726961D02*
X138360589Y-101822200D01*
X138360589Y-101822200D02*
X138455827Y-101869819D01*
X138455827Y-101869819D02*
X138551065Y-101869819D01*
X138884399Y-101203152D02*
X138884399Y-102203152D01*
X138884399Y-101250771D02*
X138979637Y-101203152D01*
X138979637Y-101203152D02*
X139170113Y-101203152D01*
X139170113Y-101203152D02*
X139265351Y-101250771D01*
X139265351Y-101250771D02*
X139312970Y-101298390D01*
X139312970Y-101298390D02*
X139360589Y-101393628D01*
X139360589Y-101393628D02*
X139360589Y-101679342D01*
X139360589Y-101679342D02*
X139312970Y-101774580D01*
X139312970Y-101774580D02*
X139265351Y-101822200D01*
X139265351Y-101822200D02*
X139170113Y-101869819D01*
X139170113Y-101869819D02*
X138979637Y-101869819D01*
X138979637Y-101869819D02*
X138884399Y-101822200D01*
X139741542Y-101822200D02*
X139836780Y-101869819D01*
X139836780Y-101869819D02*
X140027256Y-101869819D01*
X140027256Y-101869819D02*
X140122494Y-101822200D01*
X140122494Y-101822200D02*
X140170113Y-101726961D01*
X140170113Y-101726961D02*
X140170113Y-101679342D01*
X140170113Y-101679342D02*
X140122494Y-101584104D01*
X140122494Y-101584104D02*
X140027256Y-101536485D01*
X140027256Y-101536485D02*
X139884399Y-101536485D01*
X139884399Y-101536485D02*
X139789161Y-101488866D01*
X139789161Y-101488866D02*
X139741542Y-101393628D01*
X139741542Y-101393628D02*
X139741542Y-101346009D01*
X139741542Y-101346009D02*
X139789161Y-101250771D01*
X139789161Y-101250771D02*
X139884399Y-101203152D01*
X139884399Y-101203152D02*
X140027256Y-101203152D01*
X140027256Y-101203152D02*
X140122494Y-101250771D01*
X140598685Y-101774580D02*
X140646304Y-101822200D01*
X140646304Y-101822200D02*
X140598685Y-101869819D01*
X140598685Y-101869819D02*
X140551066Y-101822200D01*
X140551066Y-101822200D02*
X140598685Y-101774580D01*
X140598685Y-101774580D02*
X140598685Y-101869819D01*
X140598685Y-101250771D02*
X140646304Y-101298390D01*
X140646304Y-101298390D02*
X140598685Y-101346009D01*
X140598685Y-101346009D02*
X140551066Y-101298390D01*
X140551066Y-101298390D02*
X140598685Y-101250771D01*
X140598685Y-101250771D02*
X140598685Y-101346009D01*
X141789160Y-100822200D02*
X140932018Y-102107914D01*
X142836779Y-100822200D02*
X141979637Y-102107914D01*
X143598684Y-101203152D02*
X143598684Y-102012676D01*
X143598684Y-102012676D02*
X143551065Y-102107914D01*
X143551065Y-102107914D02*
X143503446Y-102155533D01*
X143503446Y-102155533D02*
X143408208Y-102203152D01*
X143408208Y-102203152D02*
X143265351Y-102203152D01*
X143265351Y-102203152D02*
X143170113Y-102155533D01*
X143598684Y-101822200D02*
X143503446Y-101869819D01*
X143503446Y-101869819D02*
X143312970Y-101869819D01*
X143312970Y-101869819D02*
X143217732Y-101822200D01*
X143217732Y-101822200D02*
X143170113Y-101774580D01*
X143170113Y-101774580D02*
X143122494Y-101679342D01*
X143122494Y-101679342D02*
X143122494Y-101393628D01*
X143122494Y-101393628D02*
X143170113Y-101298390D01*
X143170113Y-101298390D02*
X143217732Y-101250771D01*
X143217732Y-101250771D02*
X143312970Y-101203152D01*
X143312970Y-101203152D02*
X143503446Y-101203152D01*
X143503446Y-101203152D02*
X143598684Y-101250771D01*
X144074875Y-101869819D02*
X144074875Y-101203152D01*
X144074875Y-100869819D02*
X144027256Y-100917438D01*
X144027256Y-100917438D02*
X144074875Y-100965057D01*
X144074875Y-100965057D02*
X144122494Y-100917438D01*
X144122494Y-100917438D02*
X144074875Y-100869819D01*
X144074875Y-100869819D02*
X144074875Y-100965057D01*
X144408208Y-101203152D02*
X144789160Y-101203152D01*
X144551065Y-100869819D02*
X144551065Y-101726961D01*
X144551065Y-101726961D02*
X144598684Y-101822200D01*
X144598684Y-101822200D02*
X144693922Y-101869819D01*
X144693922Y-101869819D02*
X144789160Y-101869819D01*
X145122494Y-101869819D02*
X145122494Y-100869819D01*
X145551065Y-101869819D02*
X145551065Y-101346009D01*
X145551065Y-101346009D02*
X145503446Y-101250771D01*
X145503446Y-101250771D02*
X145408208Y-101203152D01*
X145408208Y-101203152D02*
X145265351Y-101203152D01*
X145265351Y-101203152D02*
X145170113Y-101250771D01*
X145170113Y-101250771D02*
X145122494Y-101298390D01*
X146455827Y-101203152D02*
X146455827Y-101869819D01*
X146027256Y-101203152D02*
X146027256Y-101726961D01*
X146027256Y-101726961D02*
X146074875Y-101822200D01*
X146074875Y-101822200D02*
X146170113Y-101869819D01*
X146170113Y-101869819D02*
X146312970Y-101869819D01*
X146312970Y-101869819D02*
X146408208Y-101822200D01*
X146408208Y-101822200D02*
X146455827Y-101774580D01*
X146932018Y-101869819D02*
X146932018Y-100869819D01*
X146932018Y-101250771D02*
X147027256Y-101203152D01*
X147027256Y-101203152D02*
X147217732Y-101203152D01*
X147217732Y-101203152D02*
X147312970Y-101250771D01*
X147312970Y-101250771D02*
X147360589Y-101298390D01*
X147360589Y-101298390D02*
X147408208Y-101393628D01*
X147408208Y-101393628D02*
X147408208Y-101679342D01*
X147408208Y-101679342D02*
X147360589Y-101774580D01*
X147360589Y-101774580D02*
X147312970Y-101822200D01*
X147312970Y-101822200D02*
X147217732Y-101869819D01*
X147217732Y-101869819D02*
X147027256Y-101869819D01*
X147027256Y-101869819D02*
X146932018Y-101822200D01*
X147836780Y-101774580D02*
X147884399Y-101822200D01*
X147884399Y-101822200D02*
X147836780Y-101869819D01*
X147836780Y-101869819D02*
X147789161Y-101822200D01*
X147789161Y-101822200D02*
X147836780Y-101774580D01*
X147836780Y-101774580D02*
X147836780Y-101869819D01*
X148741541Y-101822200D02*
X148646303Y-101869819D01*
X148646303Y-101869819D02*
X148455827Y-101869819D01*
X148455827Y-101869819D02*
X148360589Y-101822200D01*
X148360589Y-101822200D02*
X148312970Y-101774580D01*
X148312970Y-101774580D02*
X148265351Y-101679342D01*
X148265351Y-101679342D02*
X148265351Y-101393628D01*
X148265351Y-101393628D02*
X148312970Y-101298390D01*
X148312970Y-101298390D02*
X148360589Y-101250771D01*
X148360589Y-101250771D02*
X148455827Y-101203152D01*
X148455827Y-101203152D02*
X148646303Y-101203152D01*
X148646303Y-101203152D02*
X148741541Y-101250771D01*
X149312970Y-101869819D02*
X149217732Y-101822200D01*
X149217732Y-101822200D02*
X149170113Y-101774580D01*
X149170113Y-101774580D02*
X149122494Y-101679342D01*
X149122494Y-101679342D02*
X149122494Y-101393628D01*
X149122494Y-101393628D02*
X149170113Y-101298390D01*
X149170113Y-101298390D02*
X149217732Y-101250771D01*
X149217732Y-101250771D02*
X149312970Y-101203152D01*
X149312970Y-101203152D02*
X149455827Y-101203152D01*
X149455827Y-101203152D02*
X149551065Y-101250771D01*
X149551065Y-101250771D02*
X149598684Y-101298390D01*
X149598684Y-101298390D02*
X149646303Y-101393628D01*
X149646303Y-101393628D02*
X149646303Y-101679342D01*
X149646303Y-101679342D02*
X149598684Y-101774580D01*
X149598684Y-101774580D02*
X149551065Y-101822200D01*
X149551065Y-101822200D02*
X149455827Y-101869819D01*
X149455827Y-101869819D02*
X149312970Y-101869819D01*
X150074875Y-101869819D02*
X150074875Y-101203152D01*
X150074875Y-101298390D02*
X150122494Y-101250771D01*
X150122494Y-101250771D02*
X150217732Y-101203152D01*
X150217732Y-101203152D02*
X150360589Y-101203152D01*
X150360589Y-101203152D02*
X150455827Y-101250771D01*
X150455827Y-101250771D02*
X150503446Y-101346009D01*
X150503446Y-101346009D02*
X150503446Y-101869819D01*
X150503446Y-101346009D02*
X150551065Y-101250771D01*
X150551065Y-101250771D02*
X150646303Y-101203152D01*
X150646303Y-101203152D02*
X150789160Y-101203152D01*
X150789160Y-101203152D02*
X150884399Y-101250771D01*
X150884399Y-101250771D02*
X150932018Y-101346009D01*
X150932018Y-101346009D02*
X150932018Y-101869819D01*
X152122493Y-100822200D02*
X151265351Y-102107914D01*
X152455827Y-101869819D02*
X152455827Y-101203152D01*
X152455827Y-101298390D02*
X152503446Y-101250771D01*
X152503446Y-101250771D02*
X152598684Y-101203152D01*
X152598684Y-101203152D02*
X152741541Y-101203152D01*
X152741541Y-101203152D02*
X152836779Y-101250771D01*
X152836779Y-101250771D02*
X152884398Y-101346009D01*
X152884398Y-101346009D02*
X152884398Y-101869819D01*
X152884398Y-101346009D02*
X152932017Y-101250771D01*
X152932017Y-101250771D02*
X153027255Y-101203152D01*
X153027255Y-101203152D02*
X153170112Y-101203152D01*
X153170112Y-101203152D02*
X153265351Y-101250771D01*
X153265351Y-101250771D02*
X153312970Y-101346009D01*
X153312970Y-101346009D02*
X153312970Y-101869819D01*
X154170112Y-101822200D02*
X154074874Y-101869819D01*
X154074874Y-101869819D02*
X153884398Y-101869819D01*
X153884398Y-101869819D02*
X153789160Y-101822200D01*
X153789160Y-101822200D02*
X153741541Y-101726961D01*
X153741541Y-101726961D02*
X153741541Y-101346009D01*
X153741541Y-101346009D02*
X153789160Y-101250771D01*
X153789160Y-101250771D02*
X153884398Y-101203152D01*
X153884398Y-101203152D02*
X154074874Y-101203152D01*
X154074874Y-101203152D02*
X154170112Y-101250771D01*
X154170112Y-101250771D02*
X154217731Y-101346009D01*
X154217731Y-101346009D02*
X154217731Y-101441247D01*
X154217731Y-101441247D02*
X153741541Y-101536485D01*
X155074874Y-101869819D02*
X155074874Y-100869819D01*
X155074874Y-101822200D02*
X154979636Y-101869819D01*
X154979636Y-101869819D02*
X154789160Y-101869819D01*
X154789160Y-101869819D02*
X154693922Y-101822200D01*
X154693922Y-101822200D02*
X154646303Y-101774580D01*
X154646303Y-101774580D02*
X154598684Y-101679342D01*
X154598684Y-101679342D02*
X154598684Y-101393628D01*
X154598684Y-101393628D02*
X154646303Y-101298390D01*
X154646303Y-101298390D02*
X154693922Y-101250771D01*
X154693922Y-101250771D02*
X154789160Y-101203152D01*
X154789160Y-101203152D02*
X154979636Y-101203152D01*
X154979636Y-101203152D02*
X155074874Y-101250771D01*
X155551065Y-101869819D02*
X155551065Y-101203152D01*
X155551065Y-100869819D02*
X155503446Y-100917438D01*
X155503446Y-100917438D02*
X155551065Y-100965057D01*
X155551065Y-100965057D02*
X155598684Y-100917438D01*
X155598684Y-100917438D02*
X155551065Y-100869819D01*
X155551065Y-100869819D02*
X155551065Y-100965057D01*
X156455826Y-101869819D02*
X156455826Y-101346009D01*
X156455826Y-101346009D02*
X156408207Y-101250771D01*
X156408207Y-101250771D02*
X156312969Y-101203152D01*
X156312969Y-101203152D02*
X156122493Y-101203152D01*
X156122493Y-101203152D02*
X156027255Y-101250771D01*
X156455826Y-101822200D02*
X156360588Y-101869819D01*
X156360588Y-101869819D02*
X156122493Y-101869819D01*
X156122493Y-101869819D02*
X156027255Y-101822200D01*
X156027255Y-101822200D02*
X155979636Y-101726961D01*
X155979636Y-101726961D02*
X155979636Y-101631723D01*
X155979636Y-101631723D02*
X156027255Y-101536485D01*
X156027255Y-101536485D02*
X156122493Y-101488866D01*
X156122493Y-101488866D02*
X156360588Y-101488866D01*
X156360588Y-101488866D02*
X156455826Y-101441247D01*
X156932017Y-101203152D02*
X156932017Y-101869819D01*
X156932017Y-101298390D02*
X156979636Y-101250771D01*
X156979636Y-101250771D02*
X157074874Y-101203152D01*
X157074874Y-101203152D02*
X157217731Y-101203152D01*
X157217731Y-101203152D02*
X157312969Y-101250771D01*
X157312969Y-101250771D02*
X157360588Y-101346009D01*
X157360588Y-101346009D02*
X157360588Y-101869819D01*
X157836779Y-101488866D02*
X158598684Y-101488866D01*
X159503445Y-101869819D02*
X159503445Y-100869819D01*
X159503445Y-101822200D02*
X159408207Y-101869819D01*
X159408207Y-101869819D02*
X159217731Y-101869819D01*
X159217731Y-101869819D02*
X159122493Y-101822200D01*
X159122493Y-101822200D02*
X159074874Y-101774580D01*
X159074874Y-101774580D02*
X159027255Y-101679342D01*
X159027255Y-101679342D02*
X159027255Y-101393628D01*
X159027255Y-101393628D02*
X159074874Y-101298390D01*
X159074874Y-101298390D02*
X159122493Y-101250771D01*
X159122493Y-101250771D02*
X159217731Y-101203152D01*
X159217731Y-101203152D02*
X159408207Y-101203152D01*
X159408207Y-101203152D02*
X159503445Y-101250771D01*
X159979636Y-101869819D02*
X159979636Y-101203152D01*
X159979636Y-100869819D02*
X159932017Y-100917438D01*
X159932017Y-100917438D02*
X159979636Y-100965057D01*
X159979636Y-100965057D02*
X160027255Y-100917438D01*
X160027255Y-100917438D02*
X159979636Y-100869819D01*
X159979636Y-100869819D02*
X159979636Y-100965057D01*
X160408207Y-101822200D02*
X160503445Y-101869819D01*
X160503445Y-101869819D02*
X160693921Y-101869819D01*
X160693921Y-101869819D02*
X160789159Y-101822200D01*
X160789159Y-101822200D02*
X160836778Y-101726961D01*
X160836778Y-101726961D02*
X160836778Y-101679342D01*
X160836778Y-101679342D02*
X160789159Y-101584104D01*
X160789159Y-101584104D02*
X160693921Y-101536485D01*
X160693921Y-101536485D02*
X160551064Y-101536485D01*
X160551064Y-101536485D02*
X160455826Y-101488866D01*
X160455826Y-101488866D02*
X160408207Y-101393628D01*
X160408207Y-101393628D02*
X160408207Y-101346009D01*
X160408207Y-101346009D02*
X160455826Y-101250771D01*
X160455826Y-101250771D02*
X160551064Y-101203152D01*
X160551064Y-101203152D02*
X160693921Y-101203152D01*
X160693921Y-101203152D02*
X160789159Y-101250771D01*
X161265350Y-101203152D02*
X161265350Y-102203152D01*
X161265350Y-101250771D02*
X161360588Y-101203152D01*
X161360588Y-101203152D02*
X161551064Y-101203152D01*
X161551064Y-101203152D02*
X161646302Y-101250771D01*
X161646302Y-101250771D02*
X161693921Y-101298390D01*
X161693921Y-101298390D02*
X161741540Y-101393628D01*
X161741540Y-101393628D02*
X161741540Y-101679342D01*
X161741540Y-101679342D02*
X161693921Y-101774580D01*
X161693921Y-101774580D02*
X161646302Y-101822200D01*
X161646302Y-101822200D02*
X161551064Y-101869819D01*
X161551064Y-101869819D02*
X161360588Y-101869819D01*
X161360588Y-101869819D02*
X161265350Y-101822200D01*
X162551064Y-101822200D02*
X162455826Y-101869819D01*
X162455826Y-101869819D02*
X162265350Y-101869819D01*
X162265350Y-101869819D02*
X162170112Y-101822200D01*
X162170112Y-101822200D02*
X162122493Y-101726961D01*
X162122493Y-101726961D02*
X162122493Y-101346009D01*
X162122493Y-101346009D02*
X162170112Y-101250771D01*
X162170112Y-101250771D02*
X162265350Y-101203152D01*
X162265350Y-101203152D02*
X162455826Y-101203152D01*
X162455826Y-101203152D02*
X162551064Y-101250771D01*
X162551064Y-101250771D02*
X162598683Y-101346009D01*
X162598683Y-101346009D02*
X162598683Y-101441247D01*
X162598683Y-101441247D02*
X162122493Y-101536485D01*
X163027255Y-101869819D02*
X163027255Y-101203152D01*
X163027255Y-101393628D02*
X163074874Y-101298390D01*
X163074874Y-101298390D02*
X163122493Y-101250771D01*
X163122493Y-101250771D02*
X163217731Y-101203152D01*
X163217731Y-101203152D02*
X163312969Y-101203152D01*
X163598684Y-101822200D02*
X163693922Y-101869819D01*
X163693922Y-101869819D02*
X163884398Y-101869819D01*
X163884398Y-101869819D02*
X163979636Y-101822200D01*
X163979636Y-101822200D02*
X164027255Y-101726961D01*
X164027255Y-101726961D02*
X164027255Y-101679342D01*
X164027255Y-101679342D02*
X163979636Y-101584104D01*
X163979636Y-101584104D02*
X163884398Y-101536485D01*
X163884398Y-101536485D02*
X163741541Y-101536485D01*
X163741541Y-101536485D02*
X163646303Y-101488866D01*
X163646303Y-101488866D02*
X163598684Y-101393628D01*
X163598684Y-101393628D02*
X163598684Y-101346009D01*
X163598684Y-101346009D02*
X163646303Y-101250771D01*
X163646303Y-101250771D02*
X163741541Y-101203152D01*
X163741541Y-101203152D02*
X163884398Y-101203152D01*
X163884398Y-101203152D02*
X163979636Y-101250771D01*
X164455827Y-101869819D02*
X164455827Y-101203152D01*
X164455827Y-100869819D02*
X164408208Y-100917438D01*
X164408208Y-100917438D02*
X164455827Y-100965057D01*
X164455827Y-100965057D02*
X164503446Y-100917438D01*
X164503446Y-100917438D02*
X164455827Y-100869819D01*
X164455827Y-100869819D02*
X164455827Y-100965057D01*
X165074874Y-101869819D02*
X164979636Y-101822200D01*
X164979636Y-101822200D02*
X164932017Y-101774580D01*
X164932017Y-101774580D02*
X164884398Y-101679342D01*
X164884398Y-101679342D02*
X164884398Y-101393628D01*
X164884398Y-101393628D02*
X164932017Y-101298390D01*
X164932017Y-101298390D02*
X164979636Y-101250771D01*
X164979636Y-101250771D02*
X165074874Y-101203152D01*
X165074874Y-101203152D02*
X165217731Y-101203152D01*
X165217731Y-101203152D02*
X165312969Y-101250771D01*
X165312969Y-101250771D02*
X165360588Y-101298390D01*
X165360588Y-101298390D02*
X165408207Y-101393628D01*
X165408207Y-101393628D02*
X165408207Y-101679342D01*
X165408207Y-101679342D02*
X165360588Y-101774580D01*
X165360588Y-101774580D02*
X165312969Y-101822200D01*
X165312969Y-101822200D02*
X165217731Y-101869819D01*
X165217731Y-101869819D02*
X165074874Y-101869819D01*
X165836779Y-101203152D02*
X165836779Y-101869819D01*
X165836779Y-101298390D02*
X165884398Y-101250771D01*
X165884398Y-101250771D02*
X165979636Y-101203152D01*
X165979636Y-101203152D02*
X166122493Y-101203152D01*
X166122493Y-101203152D02*
X166217731Y-101250771D01*
X166217731Y-101250771D02*
X166265350Y-101346009D01*
X166265350Y-101346009D02*
X166265350Y-101869819D01*
X167455826Y-100822200D02*
X166598684Y-102107914D01*
X168312969Y-100917438D02*
X168217731Y-100869819D01*
X168217731Y-100869819D02*
X168074874Y-100869819D01*
X168074874Y-100869819D02*
X167932017Y-100917438D01*
X167932017Y-100917438D02*
X167836779Y-101012676D01*
X167836779Y-101012676D02*
X167789160Y-101107914D01*
X167789160Y-101107914D02*
X167741541Y-101298390D01*
X167741541Y-101298390D02*
X167741541Y-101441247D01*
X167741541Y-101441247D02*
X167789160Y-101631723D01*
X167789160Y-101631723D02*
X167836779Y-101726961D01*
X167836779Y-101726961D02*
X167932017Y-101822200D01*
X167932017Y-101822200D02*
X168074874Y-101869819D01*
X168074874Y-101869819D02*
X168170112Y-101869819D01*
X168170112Y-101869819D02*
X168312969Y-101822200D01*
X168312969Y-101822200D02*
X168360588Y-101774580D01*
X168360588Y-101774580D02*
X168360588Y-101441247D01*
X168360588Y-101441247D02*
X168170112Y-101441247D01*
X168789160Y-101869819D02*
X168789160Y-100869819D01*
X168789160Y-100869819D02*
X169122493Y-101584104D01*
X169122493Y-101584104D02*
X169455826Y-100869819D01*
X169455826Y-100869819D02*
X169455826Y-101869819D01*
X169789160Y-100869819D02*
X170360588Y-100869819D01*
X170074874Y-101869819D02*
X170074874Y-100869819D01*
X170693922Y-101488866D02*
X171455827Y-101488866D01*
X172455826Y-100917438D02*
X172360588Y-100869819D01*
X172360588Y-100869819D02*
X172217731Y-100869819D01*
X172217731Y-100869819D02*
X172074874Y-100917438D01*
X172074874Y-100917438D02*
X171979636Y-101012676D01*
X171979636Y-101012676D02*
X171932017Y-101107914D01*
X171932017Y-101107914D02*
X171884398Y-101298390D01*
X171884398Y-101298390D02*
X171884398Y-101441247D01*
X171884398Y-101441247D02*
X171932017Y-101631723D01*
X171932017Y-101631723D02*
X171979636Y-101726961D01*
X171979636Y-101726961D02*
X172074874Y-101822200D01*
X172074874Y-101822200D02*
X172217731Y-101869819D01*
X172217731Y-101869819D02*
X172312969Y-101869819D01*
X172312969Y-101869819D02*
X172455826Y-101822200D01*
X172455826Y-101822200D02*
X172503445Y-101774580D01*
X172503445Y-101774580D02*
X172503445Y-101441247D01*
X172503445Y-101441247D02*
X172312969Y-101441247D01*
X173312969Y-101822200D02*
X173217731Y-101869819D01*
X173217731Y-101869819D02*
X173027255Y-101869819D01*
X173027255Y-101869819D02*
X172932017Y-101822200D01*
X172932017Y-101822200D02*
X172884398Y-101726961D01*
X172884398Y-101726961D02*
X172884398Y-101346009D01*
X172884398Y-101346009D02*
X172932017Y-101250771D01*
X172932017Y-101250771D02*
X173027255Y-101203152D01*
X173027255Y-101203152D02*
X173217731Y-101203152D01*
X173217731Y-101203152D02*
X173312969Y-101250771D01*
X173312969Y-101250771D02*
X173360588Y-101346009D01*
X173360588Y-101346009D02*
X173360588Y-101441247D01*
X173360588Y-101441247D02*
X172884398Y-101536485D01*
X173789160Y-101869819D02*
X173789160Y-101203152D01*
X173789160Y-100869819D02*
X173741541Y-100917438D01*
X173741541Y-100917438D02*
X173789160Y-100965057D01*
X173789160Y-100965057D02*
X173836779Y-100917438D01*
X173836779Y-100917438D02*
X173789160Y-100869819D01*
X173789160Y-100869819D02*
X173789160Y-100965057D01*
X174693921Y-101203152D02*
X174693921Y-102012676D01*
X174693921Y-102012676D02*
X174646302Y-102107914D01*
X174646302Y-102107914D02*
X174598683Y-102155533D01*
X174598683Y-102155533D02*
X174503445Y-102203152D01*
X174503445Y-102203152D02*
X174360588Y-102203152D01*
X174360588Y-102203152D02*
X174265350Y-102155533D01*
X174693921Y-101822200D02*
X174598683Y-101869819D01*
X174598683Y-101869819D02*
X174408207Y-101869819D01*
X174408207Y-101869819D02*
X174312969Y-101822200D01*
X174312969Y-101822200D02*
X174265350Y-101774580D01*
X174265350Y-101774580D02*
X174217731Y-101679342D01*
X174217731Y-101679342D02*
X174217731Y-101393628D01*
X174217731Y-101393628D02*
X174265350Y-101298390D01*
X174265350Y-101298390D02*
X174312969Y-101250771D01*
X174312969Y-101250771D02*
X174408207Y-101203152D01*
X174408207Y-101203152D02*
X174598683Y-101203152D01*
X174598683Y-101203152D02*
X174693921Y-101250771D01*
X175551064Y-101822200D02*
X175455826Y-101869819D01*
X175455826Y-101869819D02*
X175265350Y-101869819D01*
X175265350Y-101869819D02*
X175170112Y-101822200D01*
X175170112Y-101822200D02*
X175122493Y-101726961D01*
X175122493Y-101726961D02*
X175122493Y-101346009D01*
X175122493Y-101346009D02*
X175170112Y-101250771D01*
X175170112Y-101250771D02*
X175265350Y-101203152D01*
X175265350Y-101203152D02*
X175455826Y-101203152D01*
X175455826Y-101203152D02*
X175551064Y-101250771D01*
X175551064Y-101250771D02*
X175598683Y-101346009D01*
X175598683Y-101346009D02*
X175598683Y-101441247D01*
X175598683Y-101441247D02*
X175122493Y-101536485D01*
X176027255Y-101869819D02*
X176027255Y-101203152D01*
X176027255Y-101393628D02*
X176074874Y-101298390D01*
X176074874Y-101298390D02*
X176122493Y-101250771D01*
X176122493Y-101250771D02*
X176217731Y-101203152D01*
X176217731Y-101203152D02*
X176312969Y-101203152D01*
X176646303Y-101488866D02*
X177408208Y-101488866D01*
X178455826Y-101774580D02*
X178408207Y-101822200D01*
X178408207Y-101822200D02*
X178265350Y-101869819D01*
X178265350Y-101869819D02*
X178170112Y-101869819D01*
X178170112Y-101869819D02*
X178027255Y-101822200D01*
X178027255Y-101822200D02*
X177932017Y-101726961D01*
X177932017Y-101726961D02*
X177884398Y-101631723D01*
X177884398Y-101631723D02*
X177836779Y-101441247D01*
X177836779Y-101441247D02*
X177836779Y-101298390D01*
X177836779Y-101298390D02*
X177884398Y-101107914D01*
X177884398Y-101107914D02*
X177932017Y-101012676D01*
X177932017Y-101012676D02*
X178027255Y-100917438D01*
X178027255Y-100917438D02*
X178170112Y-100869819D01*
X178170112Y-100869819D02*
X178265350Y-100869819D01*
X178265350Y-100869819D02*
X178408207Y-100917438D01*
X178408207Y-100917438D02*
X178455826Y-100965057D01*
X179027255Y-101869819D02*
X178932017Y-101822200D01*
X178932017Y-101822200D02*
X178884398Y-101774580D01*
X178884398Y-101774580D02*
X178836779Y-101679342D01*
X178836779Y-101679342D02*
X178836779Y-101393628D01*
X178836779Y-101393628D02*
X178884398Y-101298390D01*
X178884398Y-101298390D02*
X178932017Y-101250771D01*
X178932017Y-101250771D02*
X179027255Y-101203152D01*
X179027255Y-101203152D02*
X179170112Y-101203152D01*
X179170112Y-101203152D02*
X179265350Y-101250771D01*
X179265350Y-101250771D02*
X179312969Y-101298390D01*
X179312969Y-101298390D02*
X179360588Y-101393628D01*
X179360588Y-101393628D02*
X179360588Y-101679342D01*
X179360588Y-101679342D02*
X179312969Y-101774580D01*
X179312969Y-101774580D02*
X179265350Y-101822200D01*
X179265350Y-101822200D02*
X179170112Y-101869819D01*
X179170112Y-101869819D02*
X179027255Y-101869819D01*
X180217731Y-101203152D02*
X180217731Y-101869819D01*
X179789160Y-101203152D02*
X179789160Y-101726961D01*
X179789160Y-101726961D02*
X179836779Y-101822200D01*
X179836779Y-101822200D02*
X179932017Y-101869819D01*
X179932017Y-101869819D02*
X180074874Y-101869819D01*
X180074874Y-101869819D02*
X180170112Y-101822200D01*
X180170112Y-101822200D02*
X180217731Y-101774580D01*
X180693922Y-101203152D02*
X180693922Y-101869819D01*
X180693922Y-101298390D02*
X180741541Y-101250771D01*
X180741541Y-101250771D02*
X180836779Y-101203152D01*
X180836779Y-101203152D02*
X180979636Y-101203152D01*
X180979636Y-101203152D02*
X181074874Y-101250771D01*
X181074874Y-101250771D02*
X181122493Y-101346009D01*
X181122493Y-101346009D02*
X181122493Y-101869819D01*
X181455827Y-101203152D02*
X181836779Y-101203152D01*
X181598684Y-100869819D02*
X181598684Y-101726961D01*
X181598684Y-101726961D02*
X181646303Y-101822200D01*
X181646303Y-101822200D02*
X181741541Y-101869819D01*
X181741541Y-101869819D02*
X181836779Y-101869819D01*
X182551065Y-101822200D02*
X182455827Y-101869819D01*
X182455827Y-101869819D02*
X182265351Y-101869819D01*
X182265351Y-101869819D02*
X182170113Y-101822200D01*
X182170113Y-101822200D02*
X182122494Y-101726961D01*
X182122494Y-101726961D02*
X182122494Y-101346009D01*
X182122494Y-101346009D02*
X182170113Y-101250771D01*
X182170113Y-101250771D02*
X182265351Y-101203152D01*
X182265351Y-101203152D02*
X182455827Y-101203152D01*
X182455827Y-101203152D02*
X182551065Y-101250771D01*
X182551065Y-101250771D02*
X182598684Y-101346009D01*
X182598684Y-101346009D02*
X182598684Y-101441247D01*
X182598684Y-101441247D02*
X182122494Y-101536485D01*
X183027256Y-101869819D02*
X183027256Y-101203152D01*
X183027256Y-101393628D02*
X183074875Y-101298390D01*
X183074875Y-101298390D02*
X183122494Y-101250771D01*
X183122494Y-101250771D02*
X183217732Y-101203152D01*
X183217732Y-101203152D02*
X183312970Y-101203152D01*
X78615601Y-102697438D02*
X78520363Y-102649819D01*
X78520363Y-102649819D02*
X78377506Y-102649819D01*
X78377506Y-102649819D02*
X78234649Y-102697438D01*
X78234649Y-102697438D02*
X78139411Y-102792676D01*
X78139411Y-102792676D02*
X78091792Y-102887914D01*
X78091792Y-102887914D02*
X78044173Y-103078390D01*
X78044173Y-103078390D02*
X78044173Y-103221247D01*
X78044173Y-103221247D02*
X78091792Y-103411723D01*
X78091792Y-103411723D02*
X78139411Y-103506961D01*
X78139411Y-103506961D02*
X78234649Y-103602200D01*
X78234649Y-103602200D02*
X78377506Y-103649819D01*
X78377506Y-103649819D02*
X78472744Y-103649819D01*
X78472744Y-103649819D02*
X78615601Y-103602200D01*
X78615601Y-103602200D02*
X78663220Y-103554580D01*
X78663220Y-103554580D02*
X78663220Y-103221247D01*
X78663220Y-103221247D02*
X78472744Y-103221247D01*
X79091792Y-103649819D02*
X79091792Y-102649819D01*
X79091792Y-102649819D02*
X79663220Y-103649819D01*
X79663220Y-103649819D02*
X79663220Y-102649819D01*
X80139411Y-103649819D02*
X80139411Y-102649819D01*
X80139411Y-102649819D02*
X80377506Y-102649819D01*
X80377506Y-102649819D02*
X80520363Y-102697438D01*
X80520363Y-102697438D02*
X80615601Y-102792676D01*
X80615601Y-102792676D02*
X80663220Y-102887914D01*
X80663220Y-102887914D02*
X80710839Y-103078390D01*
X80710839Y-103078390D02*
X80710839Y-103221247D01*
X80710839Y-103221247D02*
X80663220Y-103411723D01*
X80663220Y-103411723D02*
X80615601Y-103506961D01*
X80615601Y-103506961D02*
X80520363Y-103602200D01*
X80520363Y-103602200D02*
X80377506Y-103649819D01*
X80377506Y-103649819D02*
X80139411Y-103649819D01*
X78091792Y-108348866D02*
X78853697Y-108348866D01*
X78472744Y-108729819D02*
X78472744Y-107967914D01*
X79806077Y-107729819D02*
X79329887Y-107729819D01*
X79329887Y-107729819D02*
X79282268Y-108206009D01*
X79282268Y-108206009D02*
X79329887Y-108158390D01*
X79329887Y-108158390D02*
X79425125Y-108110771D01*
X79425125Y-108110771D02*
X79663220Y-108110771D01*
X79663220Y-108110771D02*
X79758458Y-108158390D01*
X79758458Y-108158390D02*
X79806077Y-108206009D01*
X79806077Y-108206009D02*
X79853696Y-108301247D01*
X79853696Y-108301247D02*
X79853696Y-108539342D01*
X79853696Y-108539342D02*
X79806077Y-108634580D01*
X79806077Y-108634580D02*
X79758458Y-108682200D01*
X79758458Y-108682200D02*
X79663220Y-108729819D01*
X79663220Y-108729819D02*
X79425125Y-108729819D01*
X79425125Y-108729819D02*
X79329887Y-108682200D01*
X79329887Y-108682200D02*
X79282268Y-108634580D01*
X80139411Y-107729819D02*
X80472744Y-108729819D01*
X80472744Y-108729819D02*
X80806077Y-107729819D01*
X103907142Y-106454819D02*
X103573809Y-105978628D01*
X103335714Y-106454819D02*
X103335714Y-105454819D01*
X103335714Y-105454819D02*
X103716666Y-105454819D01*
X103716666Y-105454819D02*
X103811904Y-105502438D01*
X103811904Y-105502438D02*
X103859523Y-105550057D01*
X103859523Y-105550057D02*
X103907142Y-105645295D01*
X103907142Y-105645295D02*
X103907142Y-105788152D01*
X103907142Y-105788152D02*
X103859523Y-105883390D01*
X103859523Y-105883390D02*
X103811904Y-105931009D01*
X103811904Y-105931009D02*
X103716666Y-105978628D01*
X103716666Y-105978628D02*
X103335714Y-105978628D01*
X104859523Y-106454819D02*
X104288095Y-106454819D01*
X104573809Y-106454819D02*
X104573809Y-105454819D01*
X104573809Y-105454819D02*
X104478571Y-105597676D01*
X104478571Y-105597676D02*
X104383333Y-105692914D01*
X104383333Y-105692914D02*
X104288095Y-105740533D01*
X105716666Y-105788152D02*
X105716666Y-106454819D01*
X105478571Y-105407200D02*
X105240476Y-106121485D01*
X105240476Y-106121485D02*
X105859523Y-106121485D01*
X108857142Y-115454819D02*
X108523809Y-114978628D01*
X108285714Y-115454819D02*
X108285714Y-114454819D01*
X108285714Y-114454819D02*
X108666666Y-114454819D01*
X108666666Y-114454819D02*
X108761904Y-114502438D01*
X108761904Y-114502438D02*
X108809523Y-114550057D01*
X108809523Y-114550057D02*
X108857142Y-114645295D01*
X108857142Y-114645295D02*
X108857142Y-114788152D01*
X108857142Y-114788152D02*
X108809523Y-114883390D01*
X108809523Y-114883390D02*
X108761904Y-114931009D01*
X108761904Y-114931009D02*
X108666666Y-114978628D01*
X108666666Y-114978628D02*
X108285714Y-114978628D01*
X109809523Y-115454819D02*
X109238095Y-115454819D01*
X109523809Y-115454819D02*
X109523809Y-114454819D01*
X109523809Y-114454819D02*
X109428571Y-114597676D01*
X109428571Y-114597676D02*
X109333333Y-114692914D01*
X109333333Y-114692914D02*
X109238095Y-114740533D01*
X110666666Y-114454819D02*
X110476190Y-114454819D01*
X110476190Y-114454819D02*
X110380952Y-114502438D01*
X110380952Y-114502438D02*
X110333333Y-114550057D01*
X110333333Y-114550057D02*
X110238095Y-114692914D01*
X110238095Y-114692914D02*
X110190476Y-114883390D01*
X110190476Y-114883390D02*
X110190476Y-115264342D01*
X110190476Y-115264342D02*
X110238095Y-115359580D01*
X110238095Y-115359580D02*
X110285714Y-115407200D01*
X110285714Y-115407200D02*
X110380952Y-115454819D01*
X110380952Y-115454819D02*
X110571428Y-115454819D01*
X110571428Y-115454819D02*
X110666666Y-115407200D01*
X110666666Y-115407200D02*
X110714285Y-115359580D01*
X110714285Y-115359580D02*
X110761904Y-115264342D01*
X110761904Y-115264342D02*
X110761904Y-115026247D01*
X110761904Y-115026247D02*
X110714285Y-114931009D01*
X110714285Y-114931009D02*
X110666666Y-114883390D01*
X110666666Y-114883390D02*
X110571428Y-114835771D01*
X110571428Y-114835771D02*
X110380952Y-114835771D01*
X110380952Y-114835771D02*
X110285714Y-114883390D01*
X110285714Y-114883390D02*
X110238095Y-114931009D01*
X110238095Y-114931009D02*
X110190476Y-115026247D01*
X199359580Y-115729166D02*
X199407200Y-115776785D01*
X199407200Y-115776785D02*
X199454819Y-115919642D01*
X199454819Y-115919642D02*
X199454819Y-116014880D01*
X199454819Y-116014880D02*
X199407200Y-116157737D01*
X199407200Y-116157737D02*
X199311961Y-116252975D01*
X199311961Y-116252975D02*
X199216723Y-116300594D01*
X199216723Y-116300594D02*
X199026247Y-116348213D01*
X199026247Y-116348213D02*
X198883390Y-116348213D01*
X198883390Y-116348213D02*
X198692914Y-116300594D01*
X198692914Y-116300594D02*
X198597676Y-116252975D01*
X198597676Y-116252975D02*
X198502438Y-116157737D01*
X198502438Y-116157737D02*
X198454819Y-116014880D01*
X198454819Y-116014880D02*
X198454819Y-115919642D01*
X198454819Y-115919642D02*
X198502438Y-115776785D01*
X198502438Y-115776785D02*
X198550057Y-115729166D01*
X198454819Y-114824404D02*
X198454819Y-115300594D01*
X198454819Y-115300594D02*
X198931009Y-115348213D01*
X198931009Y-115348213D02*
X198883390Y-115300594D01*
X198883390Y-115300594D02*
X198835771Y-115205356D01*
X198835771Y-115205356D02*
X198835771Y-114967261D01*
X198835771Y-114967261D02*
X198883390Y-114872023D01*
X198883390Y-114872023D02*
X198931009Y-114824404D01*
X198931009Y-114824404D02*
X199026247Y-114776785D01*
X199026247Y-114776785D02*
X199264342Y-114776785D01*
X199264342Y-114776785D02*
X199359580Y-114824404D01*
X199359580Y-114824404D02*
X199407200Y-114872023D01*
X199407200Y-114872023D02*
X199454819Y-114967261D01*
X199454819Y-114967261D02*
X199454819Y-115205356D01*
X199454819Y-115205356D02*
X199407200Y-115300594D01*
X199407200Y-115300594D02*
X199359580Y-115348213D01*
X99395833Y-106359580D02*
X99348214Y-106407200D01*
X99348214Y-106407200D02*
X99205357Y-106454819D01*
X99205357Y-106454819D02*
X99110119Y-106454819D01*
X99110119Y-106454819D02*
X98967262Y-106407200D01*
X98967262Y-106407200D02*
X98872024Y-106311961D01*
X98872024Y-106311961D02*
X98824405Y-106216723D01*
X98824405Y-106216723D02*
X98776786Y-106026247D01*
X98776786Y-106026247D02*
X98776786Y-105883390D01*
X98776786Y-105883390D02*
X98824405Y-105692914D01*
X98824405Y-105692914D02*
X98872024Y-105597676D01*
X98872024Y-105597676D02*
X98967262Y-105502438D01*
X98967262Y-105502438D02*
X99110119Y-105454819D01*
X99110119Y-105454819D02*
X99205357Y-105454819D01*
X99205357Y-105454819D02*
X99348214Y-105502438D01*
X99348214Y-105502438D02*
X99395833Y-105550057D01*
X99729167Y-105454819D02*
X100395833Y-105454819D01*
X100395833Y-105454819D02*
X99967262Y-106454819D01*
X152895833Y-106359580D02*
X152848214Y-106407200D01*
X152848214Y-106407200D02*
X152705357Y-106454819D01*
X152705357Y-106454819D02*
X152610119Y-106454819D01*
X152610119Y-106454819D02*
X152467262Y-106407200D01*
X152467262Y-106407200D02*
X152372024Y-106311961D01*
X152372024Y-106311961D02*
X152324405Y-106216723D01*
X152324405Y-106216723D02*
X152276786Y-106026247D01*
X152276786Y-106026247D02*
X152276786Y-105883390D01*
X152276786Y-105883390D02*
X152324405Y-105692914D01*
X152324405Y-105692914D02*
X152372024Y-105597676D01*
X152372024Y-105597676D02*
X152467262Y-105502438D01*
X152467262Y-105502438D02*
X152610119Y-105454819D01*
X152610119Y-105454819D02*
X152705357Y-105454819D01*
X152705357Y-105454819D02*
X152848214Y-105502438D01*
X152848214Y-105502438D02*
X152895833Y-105550057D01*
X153848214Y-106454819D02*
X153276786Y-106454819D01*
X153562500Y-106454819D02*
X153562500Y-105454819D01*
X153562500Y-105454819D02*
X153467262Y-105597676D01*
X153467262Y-105597676D02*
X153372024Y-105692914D01*
X153372024Y-105692914D02*
X153276786Y-105740533D01*
X140404761Y-108550057D02*
X140309523Y-108502438D01*
X140309523Y-108502438D02*
X140214285Y-108407200D01*
X140214285Y-108407200D02*
X140071428Y-108264342D01*
X140071428Y-108264342D02*
X139976190Y-108216723D01*
X139976190Y-108216723D02*
X139880952Y-108216723D01*
X139928571Y-108454819D02*
X139833333Y-108407200D01*
X139833333Y-108407200D02*
X139738095Y-108311961D01*
X139738095Y-108311961D02*
X139690476Y-108121485D01*
X139690476Y-108121485D02*
X139690476Y-107788152D01*
X139690476Y-107788152D02*
X139738095Y-107597676D01*
X139738095Y-107597676D02*
X139833333Y-107502438D01*
X139833333Y-107502438D02*
X139928571Y-107454819D01*
X139928571Y-107454819D02*
X140119047Y-107454819D01*
X140119047Y-107454819D02*
X140214285Y-107502438D01*
X140214285Y-107502438D02*
X140309523Y-107597676D01*
X140309523Y-107597676D02*
X140357142Y-107788152D01*
X140357142Y-107788152D02*
X140357142Y-108121485D01*
X140357142Y-108121485D02*
X140309523Y-108311961D01*
X140309523Y-108311961D02*
X140214285Y-108407200D01*
X140214285Y-108407200D02*
X140119047Y-108454819D01*
X140119047Y-108454819D02*
X139928571Y-108454819D01*
X141309523Y-108454819D02*
X140738095Y-108454819D01*
X141023809Y-108454819D02*
X141023809Y-107454819D01*
X141023809Y-107454819D02*
X140928571Y-107597676D01*
X140928571Y-107597676D02*
X140833333Y-107692914D01*
X140833333Y-107692914D02*
X140738095Y-107740533D01*
X215357142Y-103454819D02*
X215023809Y-102978628D01*
X214785714Y-103454819D02*
X214785714Y-102454819D01*
X214785714Y-102454819D02*
X215166666Y-102454819D01*
X215166666Y-102454819D02*
X215261904Y-102502438D01*
X215261904Y-102502438D02*
X215309523Y-102550057D01*
X215309523Y-102550057D02*
X215357142Y-102645295D01*
X215357142Y-102645295D02*
X215357142Y-102788152D01*
X215357142Y-102788152D02*
X215309523Y-102883390D01*
X215309523Y-102883390D02*
X215261904Y-102931009D01*
X215261904Y-102931009D02*
X215166666Y-102978628D01*
X215166666Y-102978628D02*
X214785714Y-102978628D01*
X216309523Y-103454819D02*
X215738095Y-103454819D01*
X216023809Y-103454819D02*
X216023809Y-102454819D01*
X216023809Y-102454819D02*
X215928571Y-102597676D01*
X215928571Y-102597676D02*
X215833333Y-102692914D01*
X215833333Y-102692914D02*
X215738095Y-102740533D01*
X216690476Y-102550057D02*
X216738095Y-102502438D01*
X216738095Y-102502438D02*
X216833333Y-102454819D01*
X216833333Y-102454819D02*
X217071428Y-102454819D01*
X217071428Y-102454819D02*
X217166666Y-102502438D01*
X217166666Y-102502438D02*
X217214285Y-102550057D01*
X217214285Y-102550057D02*
X217261904Y-102645295D01*
X217261904Y-102645295D02*
X217261904Y-102740533D01*
X217261904Y-102740533D02*
X217214285Y-102883390D01*
X217214285Y-102883390D02*
X216642857Y-103454819D01*
X216642857Y-103454819D02*
X217261904Y-103454819D01*
X147883333Y-115454819D02*
X147550000Y-114978628D01*
X147311905Y-115454819D02*
X147311905Y-114454819D01*
X147311905Y-114454819D02*
X147692857Y-114454819D01*
X147692857Y-114454819D02*
X147788095Y-114502438D01*
X147788095Y-114502438D02*
X147835714Y-114550057D01*
X147835714Y-114550057D02*
X147883333Y-114645295D01*
X147883333Y-114645295D02*
X147883333Y-114788152D01*
X147883333Y-114788152D02*
X147835714Y-114883390D01*
X147835714Y-114883390D02*
X147788095Y-114931009D01*
X147788095Y-114931009D02*
X147692857Y-114978628D01*
X147692857Y-114978628D02*
X147311905Y-114978628D01*
X148740476Y-114788152D02*
X148740476Y-115454819D01*
X148502381Y-114407200D02*
X148264286Y-115121485D01*
X148264286Y-115121485D02*
X148883333Y-115121485D01*
X215357142Y-100004819D02*
X215023809Y-99528628D01*
X214785714Y-100004819D02*
X214785714Y-99004819D01*
X214785714Y-99004819D02*
X215166666Y-99004819D01*
X215166666Y-99004819D02*
X215261904Y-99052438D01*
X215261904Y-99052438D02*
X215309523Y-99100057D01*
X215309523Y-99100057D02*
X215357142Y-99195295D01*
X215357142Y-99195295D02*
X215357142Y-99338152D01*
X215357142Y-99338152D02*
X215309523Y-99433390D01*
X215309523Y-99433390D02*
X215261904Y-99481009D01*
X215261904Y-99481009D02*
X215166666Y-99528628D01*
X215166666Y-99528628D02*
X214785714Y-99528628D01*
X216309523Y-100004819D02*
X215738095Y-100004819D01*
X216023809Y-100004819D02*
X216023809Y-99004819D01*
X216023809Y-99004819D02*
X215928571Y-99147676D01*
X215928571Y-99147676D02*
X215833333Y-99242914D01*
X215833333Y-99242914D02*
X215738095Y-99290533D01*
X216642857Y-99004819D02*
X217261904Y-99004819D01*
X217261904Y-99004819D02*
X216928571Y-99385771D01*
X216928571Y-99385771D02*
X217071428Y-99385771D01*
X217071428Y-99385771D02*
X217166666Y-99433390D01*
X217166666Y-99433390D02*
X217214285Y-99481009D01*
X217214285Y-99481009D02*
X217261904Y-99576247D01*
X217261904Y-99576247D02*
X217261904Y-99814342D01*
X217261904Y-99814342D02*
X217214285Y-99909580D01*
X217214285Y-99909580D02*
X217166666Y-99957200D01*
X217166666Y-99957200D02*
X217071428Y-100004819D01*
X217071428Y-100004819D02*
X216785714Y-100004819D01*
X216785714Y-100004819D02*
X216690476Y-99957200D01*
X216690476Y-99957200D02*
X216642857Y-99909580D01*
X215357142Y-107054819D02*
X215023809Y-106578628D01*
X214785714Y-107054819D02*
X214785714Y-106054819D01*
X214785714Y-106054819D02*
X215166666Y-106054819D01*
X215166666Y-106054819D02*
X215261904Y-106102438D01*
X215261904Y-106102438D02*
X215309523Y-106150057D01*
X215309523Y-106150057D02*
X215357142Y-106245295D01*
X215357142Y-106245295D02*
X215357142Y-106388152D01*
X215357142Y-106388152D02*
X215309523Y-106483390D01*
X215309523Y-106483390D02*
X215261904Y-106531009D01*
X215261904Y-106531009D02*
X215166666Y-106578628D01*
X215166666Y-106578628D02*
X214785714Y-106578628D01*
X216309523Y-107054819D02*
X215738095Y-107054819D01*
X216023809Y-107054819D02*
X216023809Y-106054819D01*
X216023809Y-106054819D02*
X215928571Y-106197676D01*
X215928571Y-106197676D02*
X215833333Y-106292914D01*
X215833333Y-106292914D02*
X215738095Y-106340533D01*
X217261904Y-107054819D02*
X216690476Y-107054819D01*
X216976190Y-107054819D02*
X216976190Y-106054819D01*
X216976190Y-106054819D02*
X216880952Y-106197676D01*
X216880952Y-106197676D02*
X216785714Y-106292914D01*
X216785714Y-106292914D02*
X216690476Y-106340533D01*
X174404761Y-112050057D02*
X174309523Y-112002438D01*
X174309523Y-112002438D02*
X174214285Y-111907200D01*
X174214285Y-111907200D02*
X174071428Y-111764342D01*
X174071428Y-111764342D02*
X173976190Y-111716723D01*
X173976190Y-111716723D02*
X173880952Y-111716723D01*
X173928571Y-111954819D02*
X173833333Y-111907200D01*
X173833333Y-111907200D02*
X173738095Y-111811961D01*
X173738095Y-111811961D02*
X173690476Y-111621485D01*
X173690476Y-111621485D02*
X173690476Y-111288152D01*
X173690476Y-111288152D02*
X173738095Y-111097676D01*
X173738095Y-111097676D02*
X173833333Y-111002438D01*
X173833333Y-111002438D02*
X173928571Y-110954819D01*
X173928571Y-110954819D02*
X174119047Y-110954819D01*
X174119047Y-110954819D02*
X174214285Y-111002438D01*
X174214285Y-111002438D02*
X174309523Y-111097676D01*
X174309523Y-111097676D02*
X174357142Y-111288152D01*
X174357142Y-111288152D02*
X174357142Y-111621485D01*
X174357142Y-111621485D02*
X174309523Y-111811961D01*
X174309523Y-111811961D02*
X174214285Y-111907200D01*
X174214285Y-111907200D02*
X174119047Y-111954819D01*
X174119047Y-111954819D02*
X173928571Y-111954819D01*
X174738095Y-111050057D02*
X174785714Y-111002438D01*
X174785714Y-111002438D02*
X174880952Y-110954819D01*
X174880952Y-110954819D02*
X175119047Y-110954819D01*
X175119047Y-110954819D02*
X175214285Y-111002438D01*
X175214285Y-111002438D02*
X175261904Y-111050057D01*
X175261904Y-111050057D02*
X175309523Y-111145295D01*
X175309523Y-111145295D02*
X175309523Y-111240533D01*
X175309523Y-111240533D02*
X175261904Y-111383390D01*
X175261904Y-111383390D02*
X174690476Y-111954819D01*
X174690476Y-111954819D02*
X175309523Y-111954819D01*
X201833333Y-116454819D02*
X201500000Y-115978628D01*
X201261905Y-116454819D02*
X201261905Y-115454819D01*
X201261905Y-115454819D02*
X201642857Y-115454819D01*
X201642857Y-115454819D02*
X201738095Y-115502438D01*
X201738095Y-115502438D02*
X201785714Y-115550057D01*
X201785714Y-115550057D02*
X201833333Y-115645295D01*
X201833333Y-115645295D02*
X201833333Y-115788152D01*
X201833333Y-115788152D02*
X201785714Y-115883390D01*
X201785714Y-115883390D02*
X201738095Y-115931009D01*
X201738095Y-115931009D02*
X201642857Y-115978628D01*
X201642857Y-115978628D02*
X201261905Y-115978628D01*
X202166667Y-115454819D02*
X202833333Y-115454819D01*
X202833333Y-115454819D02*
X202404762Y-116454819D01*
X216359580Y-115729166D02*
X216407200Y-115776785D01*
X216407200Y-115776785D02*
X216454819Y-115919642D01*
X216454819Y-115919642D02*
X216454819Y-116014880D01*
X216454819Y-116014880D02*
X216407200Y-116157737D01*
X216407200Y-116157737D02*
X216311961Y-116252975D01*
X216311961Y-116252975D02*
X216216723Y-116300594D01*
X216216723Y-116300594D02*
X216026247Y-116348213D01*
X216026247Y-116348213D02*
X215883390Y-116348213D01*
X215883390Y-116348213D02*
X215692914Y-116300594D01*
X215692914Y-116300594D02*
X215597676Y-116252975D01*
X215597676Y-116252975D02*
X215502438Y-116157737D01*
X215502438Y-116157737D02*
X215454819Y-116014880D01*
X215454819Y-116014880D02*
X215454819Y-115919642D01*
X215454819Y-115919642D02*
X215502438Y-115776785D01*
X215502438Y-115776785D02*
X215550057Y-115729166D01*
X215454819Y-114872023D02*
X215454819Y-115062499D01*
X215454819Y-115062499D02*
X215502438Y-115157737D01*
X215502438Y-115157737D02*
X215550057Y-115205356D01*
X215550057Y-115205356D02*
X215692914Y-115300594D01*
X215692914Y-115300594D02*
X215883390Y-115348213D01*
X215883390Y-115348213D02*
X216264342Y-115348213D01*
X216264342Y-115348213D02*
X216359580Y-115300594D01*
X216359580Y-115300594D02*
X216407200Y-115252975D01*
X216407200Y-115252975D02*
X216454819Y-115157737D01*
X216454819Y-115157737D02*
X216454819Y-114967261D01*
X216454819Y-114967261D02*
X216407200Y-114872023D01*
X216407200Y-114872023D02*
X216359580Y-114824404D01*
X216359580Y-114824404D02*
X216264342Y-114776785D01*
X216264342Y-114776785D02*
X216026247Y-114776785D01*
X216026247Y-114776785D02*
X215931009Y-114824404D01*
X215931009Y-114824404D02*
X215883390Y-114872023D01*
X215883390Y-114872023D02*
X215835771Y-114967261D01*
X215835771Y-114967261D02*
X215835771Y-115157737D01*
X215835771Y-115157737D02*
X215883390Y-115252975D01*
X215883390Y-115252975D02*
X215931009Y-115300594D01*
X215931009Y-115300594D02*
X216026247Y-115348213D01*
X165261905Y-106454819D02*
X165261905Y-105454819D01*
X165261905Y-105454819D02*
X165500000Y-105454819D01*
X165500000Y-105454819D02*
X165642857Y-105502438D01*
X165642857Y-105502438D02*
X165738095Y-105597676D01*
X165738095Y-105597676D02*
X165785714Y-105692914D01*
X165785714Y-105692914D02*
X165833333Y-105883390D01*
X165833333Y-105883390D02*
X165833333Y-106026247D01*
X165833333Y-106026247D02*
X165785714Y-106216723D01*
X165785714Y-106216723D02*
X165738095Y-106311961D01*
X165738095Y-106311961D02*
X165642857Y-106407200D01*
X165642857Y-106407200D02*
X165500000Y-106454819D01*
X165500000Y-106454819D02*
X165261905Y-106454819D01*
X166214286Y-105550057D02*
X166261905Y-105502438D01*
X166261905Y-105502438D02*
X166357143Y-105454819D01*
X166357143Y-105454819D02*
X166595238Y-105454819D01*
X166595238Y-105454819D02*
X166690476Y-105502438D01*
X166690476Y-105502438D02*
X166738095Y-105550057D01*
X166738095Y-105550057D02*
X166785714Y-105645295D01*
X166785714Y-105645295D02*
X166785714Y-105740533D01*
X166785714Y-105740533D02*
X166738095Y-105883390D01*
X166738095Y-105883390D02*
X166166667Y-106454819D01*
X166166667Y-106454819D02*
X166785714Y-106454819D01*
X83357142Y-117954819D02*
X83023809Y-117478628D01*
X82785714Y-117954819D02*
X82785714Y-116954819D01*
X82785714Y-116954819D02*
X83166666Y-116954819D01*
X83166666Y-116954819D02*
X83261904Y-117002438D01*
X83261904Y-117002438D02*
X83309523Y-117050057D01*
X83309523Y-117050057D02*
X83357142Y-117145295D01*
X83357142Y-117145295D02*
X83357142Y-117288152D01*
X83357142Y-117288152D02*
X83309523Y-117383390D01*
X83309523Y-117383390D02*
X83261904Y-117431009D01*
X83261904Y-117431009D02*
X83166666Y-117478628D01*
X83166666Y-117478628D02*
X82785714Y-117478628D01*
X84309523Y-117954819D02*
X83738095Y-117954819D01*
X84023809Y-117954819D02*
X84023809Y-116954819D01*
X84023809Y-116954819D02*
X83928571Y-117097676D01*
X83928571Y-117097676D02*
X83833333Y-117192914D01*
X83833333Y-117192914D02*
X83738095Y-117240533D01*
X84880952Y-117383390D02*
X84785714Y-117335771D01*
X84785714Y-117335771D02*
X84738095Y-117288152D01*
X84738095Y-117288152D02*
X84690476Y-117192914D01*
X84690476Y-117192914D02*
X84690476Y-117145295D01*
X84690476Y-117145295D02*
X84738095Y-117050057D01*
X84738095Y-117050057D02*
X84785714Y-117002438D01*
X84785714Y-117002438D02*
X84880952Y-116954819D01*
X84880952Y-116954819D02*
X85071428Y-116954819D01*
X85071428Y-116954819D02*
X85166666Y-117002438D01*
X85166666Y-117002438D02*
X85214285Y-117050057D01*
X85214285Y-117050057D02*
X85261904Y-117145295D01*
X85261904Y-117145295D02*
X85261904Y-117192914D01*
X85261904Y-117192914D02*
X85214285Y-117288152D01*
X85214285Y-117288152D02*
X85166666Y-117335771D01*
X85166666Y-117335771D02*
X85071428Y-117383390D01*
X85071428Y-117383390D02*
X84880952Y-117383390D01*
X84880952Y-117383390D02*
X84785714Y-117431009D01*
X84785714Y-117431009D02*
X84738095Y-117478628D01*
X84738095Y-117478628D02*
X84690476Y-117573866D01*
X84690476Y-117573866D02*
X84690476Y-117764342D01*
X84690476Y-117764342D02*
X84738095Y-117859580D01*
X84738095Y-117859580D02*
X84785714Y-117907200D01*
X84785714Y-117907200D02*
X84880952Y-117954819D01*
X84880952Y-117954819D02*
X85071428Y-117954819D01*
X85071428Y-117954819D02*
X85166666Y-117907200D01*
X85166666Y-117907200D02*
X85214285Y-117859580D01*
X85214285Y-117859580D02*
X85261904Y-117764342D01*
X85261904Y-117764342D02*
X85261904Y-117573866D01*
X85261904Y-117573866D02*
X85214285Y-117478628D01*
X85214285Y-117478628D02*
X85166666Y-117431009D01*
X85166666Y-117431009D02*
X85071428Y-117383390D01*
X98511905Y-115454819D02*
X98511905Y-114454819D01*
X98511905Y-114454819D02*
X98750000Y-114454819D01*
X98750000Y-114454819D02*
X98892857Y-114502438D01*
X98892857Y-114502438D02*
X98988095Y-114597676D01*
X98988095Y-114597676D02*
X99035714Y-114692914D01*
X99035714Y-114692914D02*
X99083333Y-114883390D01*
X99083333Y-114883390D02*
X99083333Y-115026247D01*
X99083333Y-115026247D02*
X99035714Y-115216723D01*
X99035714Y-115216723D02*
X98988095Y-115311961D01*
X98988095Y-115311961D02*
X98892857Y-115407200D01*
X98892857Y-115407200D02*
X98750000Y-115454819D01*
X98750000Y-115454819D02*
X98511905Y-115454819D01*
X99416667Y-114454819D02*
X100035714Y-114454819D01*
X100035714Y-114454819D02*
X99702381Y-114835771D01*
X99702381Y-114835771D02*
X99845238Y-114835771D01*
X99845238Y-114835771D02*
X99940476Y-114883390D01*
X99940476Y-114883390D02*
X99988095Y-114931009D01*
X99988095Y-114931009D02*
X100035714Y-115026247D01*
X100035714Y-115026247D02*
X100035714Y-115264342D01*
X100035714Y-115264342D02*
X99988095Y-115359580D01*
X99988095Y-115359580D02*
X99940476Y-115407200D01*
X99940476Y-115407200D02*
X99845238Y-115454819D01*
X99845238Y-115454819D02*
X99559524Y-115454819D01*
X99559524Y-115454819D02*
X99464286Y-115407200D01*
X99464286Y-115407200D02*
X99416667Y-115359580D01*
X83357142Y-94454819D02*
X83023809Y-93978628D01*
X82785714Y-94454819D02*
X82785714Y-93454819D01*
X82785714Y-93454819D02*
X83166666Y-93454819D01*
X83166666Y-93454819D02*
X83261904Y-93502438D01*
X83261904Y-93502438D02*
X83309523Y-93550057D01*
X83309523Y-93550057D02*
X83357142Y-93645295D01*
X83357142Y-93645295D02*
X83357142Y-93788152D01*
X83357142Y-93788152D02*
X83309523Y-93883390D01*
X83309523Y-93883390D02*
X83261904Y-93931009D01*
X83261904Y-93931009D02*
X83166666Y-93978628D01*
X83166666Y-93978628D02*
X82785714Y-93978628D01*
X83738095Y-93550057D02*
X83785714Y-93502438D01*
X83785714Y-93502438D02*
X83880952Y-93454819D01*
X83880952Y-93454819D02*
X84119047Y-93454819D01*
X84119047Y-93454819D02*
X84214285Y-93502438D01*
X84214285Y-93502438D02*
X84261904Y-93550057D01*
X84261904Y-93550057D02*
X84309523Y-93645295D01*
X84309523Y-93645295D02*
X84309523Y-93740533D01*
X84309523Y-93740533D02*
X84261904Y-93883390D01*
X84261904Y-93883390D02*
X83690476Y-94454819D01*
X83690476Y-94454819D02*
X84309523Y-94454819D01*
X84928571Y-93454819D02*
X85023809Y-93454819D01*
X85023809Y-93454819D02*
X85119047Y-93502438D01*
X85119047Y-93502438D02*
X85166666Y-93550057D01*
X85166666Y-93550057D02*
X85214285Y-93645295D01*
X85214285Y-93645295D02*
X85261904Y-93835771D01*
X85261904Y-93835771D02*
X85261904Y-94073866D01*
X85261904Y-94073866D02*
X85214285Y-94264342D01*
X85214285Y-94264342D02*
X85166666Y-94359580D01*
X85166666Y-94359580D02*
X85119047Y-94407200D01*
X85119047Y-94407200D02*
X85023809Y-94454819D01*
X85023809Y-94454819D02*
X84928571Y-94454819D01*
X84928571Y-94454819D02*
X84833333Y-94407200D01*
X84833333Y-94407200D02*
X84785714Y-94359580D01*
X84785714Y-94359580D02*
X84738095Y-94264342D01*
X84738095Y-94264342D02*
X84690476Y-94073866D01*
X84690476Y-94073866D02*
X84690476Y-93835771D01*
X84690476Y-93835771D02*
X84738095Y-93645295D01*
X84738095Y-93645295D02*
X84785714Y-93550057D01*
X84785714Y-93550057D02*
X84833333Y-93502438D01*
X84833333Y-93502438D02*
X84928571Y-93454819D01*
X87622493Y-105189819D02*
X87622493Y-105904104D01*
X87622493Y-105904104D02*
X87574874Y-106046961D01*
X87574874Y-106046961D02*
X87479636Y-106142200D01*
X87479636Y-106142200D02*
X87336779Y-106189819D01*
X87336779Y-106189819D02*
X87241541Y-106189819D01*
X88622493Y-106189819D02*
X88051065Y-106189819D01*
X88336779Y-106189819D02*
X88336779Y-105189819D01*
X88336779Y-105189819D02*
X88241541Y-105332676D01*
X88241541Y-105332676D02*
X88146303Y-105427914D01*
X88146303Y-105427914D02*
X88051065Y-105475533D01*
X131904761Y-110954819D02*
X131571428Y-110478628D01*
X131333333Y-110954819D02*
X131333333Y-109954819D01*
X131333333Y-109954819D02*
X131714285Y-109954819D01*
X131714285Y-109954819D02*
X131809523Y-110002438D01*
X131809523Y-110002438D02*
X131857142Y-110050057D01*
X131857142Y-110050057D02*
X131904761Y-110145295D01*
X131904761Y-110145295D02*
X131904761Y-110288152D01*
X131904761Y-110288152D02*
X131857142Y-110383390D01*
X131857142Y-110383390D02*
X131809523Y-110431009D01*
X131809523Y-110431009D02*
X131714285Y-110478628D01*
X131714285Y-110478628D02*
X131333333Y-110478628D01*
X132190476Y-109954819D02*
X132523809Y-110954819D01*
X132523809Y-110954819D02*
X132857142Y-109954819D01*
X133714285Y-110954819D02*
X133142857Y-110954819D01*
X133428571Y-110954819D02*
X133428571Y-109954819D01*
X133428571Y-109954819D02*
X133333333Y-110097676D01*
X133333333Y-110097676D02*
X133238095Y-110192914D01*
X133238095Y-110192914D02*
X133142857Y-110240533D01*
X153422080Y-110666666D02*
X153469700Y-110714285D01*
X153469700Y-110714285D02*
X153517319Y-110857142D01*
X153517319Y-110857142D02*
X153517319Y-110952380D01*
X153517319Y-110952380D02*
X153469700Y-111095237D01*
X153469700Y-111095237D02*
X153374461Y-111190475D01*
X153374461Y-111190475D02*
X153279223Y-111238094D01*
X153279223Y-111238094D02*
X153088747Y-111285713D01*
X153088747Y-111285713D02*
X152945890Y-111285713D01*
X152945890Y-111285713D02*
X152755414Y-111238094D01*
X152755414Y-111238094D02*
X152660176Y-111190475D01*
X152660176Y-111190475D02*
X152564938Y-111095237D01*
X152564938Y-111095237D02*
X152517319Y-110952380D01*
X152517319Y-110952380D02*
X152517319Y-110857142D01*
X152517319Y-110857142D02*
X152564938Y-110714285D01*
X152564938Y-110714285D02*
X152612557Y-110666666D01*
X152612557Y-110285713D02*
X152564938Y-110238094D01*
X152564938Y-110238094D02*
X152517319Y-110142856D01*
X152517319Y-110142856D02*
X152517319Y-109904761D01*
X152517319Y-109904761D02*
X152564938Y-109809523D01*
X152564938Y-109809523D02*
X152612557Y-109761904D01*
X152612557Y-109761904D02*
X152707795Y-109714285D01*
X152707795Y-109714285D02*
X152803033Y-109714285D01*
X152803033Y-109714285D02*
X152945890Y-109761904D01*
X152945890Y-109761904D02*
X153517319Y-110333332D01*
X153517319Y-110333332D02*
X153517319Y-109714285D01*
X158738095Y-109954819D02*
X158738095Y-110764342D01*
X158738095Y-110764342D02*
X158785714Y-110859580D01*
X158785714Y-110859580D02*
X158833333Y-110907200D01*
X158833333Y-110907200D02*
X158928571Y-110954819D01*
X158928571Y-110954819D02*
X159119047Y-110954819D01*
X159119047Y-110954819D02*
X159214285Y-110907200D01*
X159214285Y-110907200D02*
X159261904Y-110859580D01*
X159261904Y-110859580D02*
X159309523Y-110764342D01*
X159309523Y-110764342D02*
X159309523Y-109954819D01*
X160309523Y-110954819D02*
X159738095Y-110954819D01*
X160023809Y-110954819D02*
X160023809Y-109954819D01*
X160023809Y-109954819D02*
X159928571Y-110097676D01*
X159928571Y-110097676D02*
X159833333Y-110192914D01*
X159833333Y-110192914D02*
X159738095Y-110240533D01*
X103907142Y-115454819D02*
X103573809Y-114978628D01*
X103335714Y-115454819D02*
X103335714Y-114454819D01*
X103335714Y-114454819D02*
X103716666Y-114454819D01*
X103716666Y-114454819D02*
X103811904Y-114502438D01*
X103811904Y-114502438D02*
X103859523Y-114550057D01*
X103859523Y-114550057D02*
X103907142Y-114645295D01*
X103907142Y-114645295D02*
X103907142Y-114788152D01*
X103907142Y-114788152D02*
X103859523Y-114883390D01*
X103859523Y-114883390D02*
X103811904Y-114931009D01*
X103811904Y-114931009D02*
X103716666Y-114978628D01*
X103716666Y-114978628D02*
X103335714Y-114978628D01*
X104859523Y-115454819D02*
X104288095Y-115454819D01*
X104573809Y-115454819D02*
X104573809Y-114454819D01*
X104573809Y-114454819D02*
X104478571Y-114597676D01*
X104478571Y-114597676D02*
X104383333Y-114692914D01*
X104383333Y-114692914D02*
X104288095Y-114740533D01*
X105335714Y-115454819D02*
X105526190Y-115454819D01*
X105526190Y-115454819D02*
X105621428Y-115407200D01*
X105621428Y-115407200D02*
X105669047Y-115359580D01*
X105669047Y-115359580D02*
X105764285Y-115216723D01*
X105764285Y-115216723D02*
X105811904Y-115026247D01*
X105811904Y-115026247D02*
X105811904Y-114645295D01*
X105811904Y-114645295D02*
X105764285Y-114550057D01*
X105764285Y-114550057D02*
X105716666Y-114502438D01*
X105716666Y-114502438D02*
X105621428Y-114454819D01*
X105621428Y-114454819D02*
X105430952Y-114454819D01*
X105430952Y-114454819D02*
X105335714Y-114502438D01*
X105335714Y-114502438D02*
X105288095Y-114550057D01*
X105288095Y-114550057D02*
X105240476Y-114645295D01*
X105240476Y-114645295D02*
X105240476Y-114883390D01*
X105240476Y-114883390D02*
X105288095Y-114978628D01*
X105288095Y-114978628D02*
X105335714Y-115026247D01*
X105335714Y-115026247D02*
X105430952Y-115073866D01*
X105430952Y-115073866D02*
X105621428Y-115073866D01*
X105621428Y-115073866D02*
X105716666Y-115026247D01*
X105716666Y-115026247D02*
X105764285Y-114978628D01*
X105764285Y-114978628D02*
X105811904Y-114883390D01*
X215357142Y-110504819D02*
X215023809Y-110028628D01*
X214785714Y-110504819D02*
X214785714Y-109504819D01*
X214785714Y-109504819D02*
X215166666Y-109504819D01*
X215166666Y-109504819D02*
X215261904Y-109552438D01*
X215261904Y-109552438D02*
X215309523Y-109600057D01*
X215309523Y-109600057D02*
X215357142Y-109695295D01*
X215357142Y-109695295D02*
X215357142Y-109838152D01*
X215357142Y-109838152D02*
X215309523Y-109933390D01*
X215309523Y-109933390D02*
X215261904Y-109981009D01*
X215261904Y-109981009D02*
X215166666Y-110028628D01*
X215166666Y-110028628D02*
X214785714Y-110028628D01*
X216309523Y-110504819D02*
X215738095Y-110504819D01*
X216023809Y-110504819D02*
X216023809Y-109504819D01*
X216023809Y-109504819D02*
X215928571Y-109647676D01*
X215928571Y-109647676D02*
X215833333Y-109742914D01*
X215833333Y-109742914D02*
X215738095Y-109790533D01*
X216928571Y-109504819D02*
X217023809Y-109504819D01*
X217023809Y-109504819D02*
X217119047Y-109552438D01*
X217119047Y-109552438D02*
X217166666Y-109600057D01*
X217166666Y-109600057D02*
X217214285Y-109695295D01*
X217214285Y-109695295D02*
X217261904Y-109885771D01*
X217261904Y-109885771D02*
X217261904Y-110123866D01*
X217261904Y-110123866D02*
X217214285Y-110314342D01*
X217214285Y-110314342D02*
X217166666Y-110409580D01*
X217166666Y-110409580D02*
X217119047Y-110457200D01*
X217119047Y-110457200D02*
X217023809Y-110504819D01*
X217023809Y-110504819D02*
X216928571Y-110504819D01*
X216928571Y-110504819D02*
X216833333Y-110457200D01*
X216833333Y-110457200D02*
X216785714Y-110409580D01*
X216785714Y-110409580D02*
X216738095Y-110314342D01*
X216738095Y-110314342D02*
X216690476Y-110123866D01*
X216690476Y-110123866D02*
X216690476Y-109885771D01*
X216690476Y-109885771D02*
X216738095Y-109695295D01*
X216738095Y-109695295D02*
X216785714Y-109600057D01*
X216785714Y-109600057D02*
X216833333Y-109552438D01*
X216833333Y-109552438D02*
X216928571Y-109504819D01*
X205333333Y-116454819D02*
X205000000Y-115978628D01*
X204761905Y-116454819D02*
X204761905Y-115454819D01*
X204761905Y-115454819D02*
X205142857Y-115454819D01*
X205142857Y-115454819D02*
X205238095Y-115502438D01*
X205238095Y-115502438D02*
X205285714Y-115550057D01*
X205285714Y-115550057D02*
X205333333Y-115645295D01*
X205333333Y-115645295D02*
X205333333Y-115788152D01*
X205333333Y-115788152D02*
X205285714Y-115883390D01*
X205285714Y-115883390D02*
X205238095Y-115931009D01*
X205238095Y-115931009D02*
X205142857Y-115978628D01*
X205142857Y-115978628D02*
X204761905Y-115978628D01*
X205904762Y-115883390D02*
X205809524Y-115835771D01*
X205809524Y-115835771D02*
X205761905Y-115788152D01*
X205761905Y-115788152D02*
X205714286Y-115692914D01*
X205714286Y-115692914D02*
X205714286Y-115645295D01*
X205714286Y-115645295D02*
X205761905Y-115550057D01*
X205761905Y-115550057D02*
X205809524Y-115502438D01*
X205809524Y-115502438D02*
X205904762Y-115454819D01*
X205904762Y-115454819D02*
X206095238Y-115454819D01*
X206095238Y-115454819D02*
X206190476Y-115502438D01*
X206190476Y-115502438D02*
X206238095Y-115550057D01*
X206238095Y-115550057D02*
X206285714Y-115645295D01*
X206285714Y-115645295D02*
X206285714Y-115692914D01*
X206285714Y-115692914D02*
X206238095Y-115788152D01*
X206238095Y-115788152D02*
X206190476Y-115835771D01*
X206190476Y-115835771D02*
X206095238Y-115883390D01*
X206095238Y-115883390D02*
X205904762Y-115883390D01*
X205904762Y-115883390D02*
X205809524Y-115931009D01*
X205809524Y-115931009D02*
X205761905Y-115978628D01*
X205761905Y-115978628D02*
X205714286Y-116073866D01*
X205714286Y-116073866D02*
X205714286Y-116264342D01*
X205714286Y-116264342D02*
X205761905Y-116359580D01*
X205761905Y-116359580D02*
X205809524Y-116407200D01*
X205809524Y-116407200D02*
X205904762Y-116454819D01*
X205904762Y-116454819D02*
X206095238Y-116454819D01*
X206095238Y-116454819D02*
X206190476Y-116407200D01*
X206190476Y-116407200D02*
X206238095Y-116359580D01*
X206238095Y-116359580D02*
X206285714Y-116264342D01*
X206285714Y-116264342D02*
X206285714Y-116073866D01*
X206285714Y-116073866D02*
X206238095Y-115978628D01*
X206238095Y-115978628D02*
X206190476Y-115931009D01*
X206190476Y-115931009D02*
X206095238Y-115883390D01*
X74238095Y-111954819D02*
X74238095Y-110954819D01*
X74238095Y-111431009D02*
X74809523Y-111431009D01*
X74809523Y-111954819D02*
X74809523Y-110954819D01*
X75714285Y-111288152D02*
X75714285Y-111954819D01*
X75476190Y-110907200D02*
X75238095Y-111621485D01*
X75238095Y-111621485D02*
X75857142Y-111621485D01*
X108907142Y-106454819D02*
X108573809Y-105978628D01*
X108335714Y-106454819D02*
X108335714Y-105454819D01*
X108335714Y-105454819D02*
X108716666Y-105454819D01*
X108716666Y-105454819D02*
X108811904Y-105502438D01*
X108811904Y-105502438D02*
X108859523Y-105550057D01*
X108859523Y-105550057D02*
X108907142Y-105645295D01*
X108907142Y-105645295D02*
X108907142Y-105788152D01*
X108907142Y-105788152D02*
X108859523Y-105883390D01*
X108859523Y-105883390D02*
X108811904Y-105931009D01*
X108811904Y-105931009D02*
X108716666Y-105978628D01*
X108716666Y-105978628D02*
X108335714Y-105978628D01*
X109859523Y-106454819D02*
X109288095Y-106454819D01*
X109573809Y-106454819D02*
X109573809Y-105454819D01*
X109573809Y-105454819D02*
X109478571Y-105597676D01*
X109478571Y-105597676D02*
X109383333Y-105692914D01*
X109383333Y-105692914D02*
X109288095Y-105740533D01*
X110764285Y-105454819D02*
X110288095Y-105454819D01*
X110288095Y-105454819D02*
X110240476Y-105931009D01*
X110240476Y-105931009D02*
X110288095Y-105883390D01*
X110288095Y-105883390D02*
X110383333Y-105835771D01*
X110383333Y-105835771D02*
X110621428Y-105835771D01*
X110621428Y-105835771D02*
X110716666Y-105883390D01*
X110716666Y-105883390D02*
X110764285Y-105931009D01*
X110764285Y-105931009D02*
X110811904Y-106026247D01*
X110811904Y-106026247D02*
X110811904Y-106264342D01*
X110811904Y-106264342D02*
X110764285Y-106359580D01*
X110764285Y-106359580D02*
X110716666Y-106407200D01*
X110716666Y-106407200D02*
X110621428Y-106454819D01*
X110621428Y-106454819D02*
X110383333Y-106454819D01*
X110383333Y-106454819D02*
X110288095Y-106407200D01*
X110288095Y-106407200D02*
X110240476Y-106359580D01*
X221738095Y-100454819D02*
X221738095Y-99454819D01*
X221738095Y-99931009D02*
X222309523Y-99931009D01*
X222309523Y-100454819D02*
X222309523Y-99454819D01*
X222738095Y-99550057D02*
X222785714Y-99502438D01*
X222785714Y-99502438D02*
X222880952Y-99454819D01*
X222880952Y-99454819D02*
X223119047Y-99454819D01*
X223119047Y-99454819D02*
X223214285Y-99502438D01*
X223214285Y-99502438D02*
X223261904Y-99550057D01*
X223261904Y-99550057D02*
X223309523Y-99645295D01*
X223309523Y-99645295D02*
X223309523Y-99740533D01*
X223309523Y-99740533D02*
X223261904Y-99883390D01*
X223261904Y-99883390D02*
X222690476Y-100454819D01*
X222690476Y-100454819D02*
X223309523Y-100454819D01*
X221738095Y-111954819D02*
X221738095Y-110954819D01*
X221738095Y-111431009D02*
X222309523Y-111431009D01*
X222309523Y-111954819D02*
X222309523Y-110954819D01*
X222690476Y-110954819D02*
X223309523Y-110954819D01*
X223309523Y-110954819D02*
X222976190Y-111335771D01*
X222976190Y-111335771D02*
X223119047Y-111335771D01*
X223119047Y-111335771D02*
X223214285Y-111383390D01*
X223214285Y-111383390D02*
X223261904Y-111431009D01*
X223261904Y-111431009D02*
X223309523Y-111526247D01*
X223309523Y-111526247D02*
X223309523Y-111764342D01*
X223309523Y-111764342D02*
X223261904Y-111859580D01*
X223261904Y-111859580D02*
X223214285Y-111907200D01*
X223214285Y-111907200D02*
X223119047Y-111954819D01*
X223119047Y-111954819D02*
X222833333Y-111954819D01*
X222833333Y-111954819D02*
X222738095Y-111907200D01*
X222738095Y-111907200D02*
X222690476Y-111859580D01*
X142883333Y-115454819D02*
X142550000Y-114978628D01*
X142311905Y-115454819D02*
X142311905Y-114454819D01*
X142311905Y-114454819D02*
X142692857Y-114454819D01*
X142692857Y-114454819D02*
X142788095Y-114502438D01*
X142788095Y-114502438D02*
X142835714Y-114550057D01*
X142835714Y-114550057D02*
X142883333Y-114645295D01*
X142883333Y-114645295D02*
X142883333Y-114788152D01*
X142883333Y-114788152D02*
X142835714Y-114883390D01*
X142835714Y-114883390D02*
X142788095Y-114931009D01*
X142788095Y-114931009D02*
X142692857Y-114978628D01*
X142692857Y-114978628D02*
X142311905Y-114978628D01*
X143788095Y-114454819D02*
X143311905Y-114454819D01*
X143311905Y-114454819D02*
X143264286Y-114931009D01*
X143264286Y-114931009D02*
X143311905Y-114883390D01*
X143311905Y-114883390D02*
X143407143Y-114835771D01*
X143407143Y-114835771D02*
X143645238Y-114835771D01*
X143645238Y-114835771D02*
X143740476Y-114883390D01*
X143740476Y-114883390D02*
X143788095Y-114931009D01*
X143788095Y-114931009D02*
X143835714Y-115026247D01*
X143835714Y-115026247D02*
X143835714Y-115264342D01*
X143835714Y-115264342D02*
X143788095Y-115359580D01*
X143788095Y-115359580D02*
X143740476Y-115407200D01*
X143740476Y-115407200D02*
X143645238Y-115454819D01*
X143645238Y-115454819D02*
X143407143Y-115454819D01*
X143407143Y-115454819D02*
X143311905Y-115407200D01*
X143311905Y-115407200D02*
X143264286Y-115359580D01*
X103857142Y-110954819D02*
X103523809Y-110478628D01*
X103285714Y-110954819D02*
X103285714Y-109954819D01*
X103285714Y-109954819D02*
X103666666Y-109954819D01*
X103666666Y-109954819D02*
X103761904Y-110002438D01*
X103761904Y-110002438D02*
X103809523Y-110050057D01*
X103809523Y-110050057D02*
X103857142Y-110145295D01*
X103857142Y-110145295D02*
X103857142Y-110288152D01*
X103857142Y-110288152D02*
X103809523Y-110383390D01*
X103809523Y-110383390D02*
X103761904Y-110431009D01*
X103761904Y-110431009D02*
X103666666Y-110478628D01*
X103666666Y-110478628D02*
X103285714Y-110478628D01*
X104809523Y-110954819D02*
X104238095Y-110954819D01*
X104523809Y-110954819D02*
X104523809Y-109954819D01*
X104523809Y-109954819D02*
X104428571Y-110097676D01*
X104428571Y-110097676D02*
X104333333Y-110192914D01*
X104333333Y-110192914D02*
X104238095Y-110240533D01*
X105142857Y-109954819D02*
X105809523Y-109954819D01*
X105809523Y-109954819D02*
X105380952Y-110954819D01*
X183833333Y-111954819D02*
X183357143Y-111954819D01*
X183357143Y-111954819D02*
X183357143Y-110954819D01*
X184690476Y-111954819D02*
X184119048Y-111954819D01*
X184404762Y-111954819D02*
X184404762Y-110954819D01*
X184404762Y-110954819D02*
X184309524Y-111097676D01*
X184309524Y-111097676D02*
X184214286Y-111192914D01*
X184214286Y-111192914D02*
X184119048Y-111240533D01*
X147883333Y-106454819D02*
X147550000Y-105978628D01*
X147311905Y-106454819D02*
X147311905Y-105454819D01*
X147311905Y-105454819D02*
X147692857Y-105454819D01*
X147692857Y-105454819D02*
X147788095Y-105502438D01*
X147788095Y-105502438D02*
X147835714Y-105550057D01*
X147835714Y-105550057D02*
X147883333Y-105645295D01*
X147883333Y-105645295D02*
X147883333Y-105788152D01*
X147883333Y-105788152D02*
X147835714Y-105883390D01*
X147835714Y-105883390D02*
X147788095Y-105931009D01*
X147788095Y-105931009D02*
X147692857Y-105978628D01*
X147692857Y-105978628D02*
X147311905Y-105978628D01*
X148216667Y-105454819D02*
X148835714Y-105454819D01*
X148835714Y-105454819D02*
X148502381Y-105835771D01*
X148502381Y-105835771D02*
X148645238Y-105835771D01*
X148645238Y-105835771D02*
X148740476Y-105883390D01*
X148740476Y-105883390D02*
X148788095Y-105931009D01*
X148788095Y-105931009D02*
X148835714Y-106026247D01*
X148835714Y-106026247D02*
X148835714Y-106264342D01*
X148835714Y-106264342D02*
X148788095Y-106359580D01*
X148788095Y-106359580D02*
X148740476Y-106407200D01*
X148740476Y-106407200D02*
X148645238Y-106454819D01*
X148645238Y-106454819D02*
X148359524Y-106454819D01*
X148359524Y-106454819D02*
X148264286Y-106407200D01*
X148264286Y-106407200D02*
X148216667Y-106359580D01*
X194829819Y-108738094D02*
X193829819Y-108738094D01*
X193829819Y-108738094D02*
X193829819Y-108499999D01*
X193829819Y-108499999D02*
X193877438Y-108357142D01*
X193877438Y-108357142D02*
X193972676Y-108261904D01*
X193972676Y-108261904D02*
X194067914Y-108214285D01*
X194067914Y-108214285D02*
X194258390Y-108166666D01*
X194258390Y-108166666D02*
X194401247Y-108166666D01*
X194401247Y-108166666D02*
X194591723Y-108214285D01*
X194591723Y-108214285D02*
X194686961Y-108261904D01*
X194686961Y-108261904D02*
X194782200Y-108357142D01*
X194782200Y-108357142D02*
X194829819Y-108499999D01*
X194829819Y-108499999D02*
X194829819Y-108738094D01*
X194829819Y-107214285D02*
X194829819Y-107785713D01*
X194829819Y-107499999D02*
X193829819Y-107499999D01*
X193829819Y-107499999D02*
X193972676Y-107595237D01*
X193972676Y-107595237D02*
X194067914Y-107690475D01*
X194067914Y-107690475D02*
X194115533Y-107785713D01*
X208833333Y-116454819D02*
X208500000Y-115978628D01*
X208261905Y-116454819D02*
X208261905Y-115454819D01*
X208261905Y-115454819D02*
X208642857Y-115454819D01*
X208642857Y-115454819D02*
X208738095Y-115502438D01*
X208738095Y-115502438D02*
X208785714Y-115550057D01*
X208785714Y-115550057D02*
X208833333Y-115645295D01*
X208833333Y-115645295D02*
X208833333Y-115788152D01*
X208833333Y-115788152D02*
X208785714Y-115883390D01*
X208785714Y-115883390D02*
X208738095Y-115931009D01*
X208738095Y-115931009D02*
X208642857Y-115978628D01*
X208642857Y-115978628D02*
X208261905Y-115978628D01*
X209309524Y-116454819D02*
X209500000Y-116454819D01*
X209500000Y-116454819D02*
X209595238Y-116407200D01*
X209595238Y-116407200D02*
X209642857Y-116359580D01*
X209642857Y-116359580D02*
X209738095Y-116216723D01*
X209738095Y-116216723D02*
X209785714Y-116026247D01*
X209785714Y-116026247D02*
X209785714Y-115645295D01*
X209785714Y-115645295D02*
X209738095Y-115550057D01*
X209738095Y-115550057D02*
X209690476Y-115502438D01*
X209690476Y-115502438D02*
X209595238Y-115454819D01*
X209595238Y-115454819D02*
X209404762Y-115454819D01*
X209404762Y-115454819D02*
X209309524Y-115502438D01*
X209309524Y-115502438D02*
X209261905Y-115550057D01*
X209261905Y-115550057D02*
X209214286Y-115645295D01*
X209214286Y-115645295D02*
X209214286Y-115883390D01*
X209214286Y-115883390D02*
X209261905Y-115978628D01*
X209261905Y-115978628D02*
X209309524Y-116026247D01*
X209309524Y-116026247D02*
X209404762Y-116073866D01*
X209404762Y-116073866D02*
X209595238Y-116073866D01*
X209595238Y-116073866D02*
X209690476Y-116026247D01*
X209690476Y-116026247D02*
X209738095Y-115978628D01*
X209738095Y-115978628D02*
X209785714Y-115883390D01*
X74238095Y-100454819D02*
X74238095Y-99454819D01*
X74238095Y-99931009D02*
X74809523Y-99931009D01*
X74809523Y-100454819D02*
X74809523Y-99454819D01*
X75809523Y-100454819D02*
X75238095Y-100454819D01*
X75523809Y-100454819D02*
X75523809Y-99454819D01*
X75523809Y-99454819D02*
X75428571Y-99597676D01*
X75428571Y-99597676D02*
X75333333Y-99692914D01*
X75333333Y-99692914D02*
X75238095Y-99740533D01*
X122833333Y-111159580D02*
X122785714Y-111207200D01*
X122785714Y-111207200D02*
X122642857Y-111254819D01*
X122642857Y-111254819D02*
X122547619Y-111254819D01*
X122547619Y-111254819D02*
X122404762Y-111207200D01*
X122404762Y-111207200D02*
X122309524Y-111111961D01*
X122309524Y-111111961D02*
X122261905Y-111016723D01*
X122261905Y-111016723D02*
X122214286Y-110826247D01*
X122214286Y-110826247D02*
X122214286Y-110683390D01*
X122214286Y-110683390D02*
X122261905Y-110492914D01*
X122261905Y-110492914D02*
X122309524Y-110397676D01*
X122309524Y-110397676D02*
X122404762Y-110302438D01*
X122404762Y-110302438D02*
X122547619Y-110254819D01*
X122547619Y-110254819D02*
X122642857Y-110254819D01*
X122642857Y-110254819D02*
X122785714Y-110302438D01*
X122785714Y-110302438D02*
X122833333Y-110350057D01*
X123690476Y-110588152D02*
X123690476Y-111254819D01*
X123452381Y-110207200D02*
X123214286Y-110921485D01*
X123214286Y-110921485D02*
X123833333Y-110921485D01*
X148504819Y-110666666D02*
X148028628Y-110999999D01*
X148504819Y-111238094D02*
X147504819Y-111238094D01*
X147504819Y-111238094D02*
X147504819Y-110857142D01*
X147504819Y-110857142D02*
X147552438Y-110761904D01*
X147552438Y-110761904D02*
X147600057Y-110714285D01*
X147600057Y-110714285D02*
X147695295Y-110666666D01*
X147695295Y-110666666D02*
X147838152Y-110666666D01*
X147838152Y-110666666D02*
X147933390Y-110714285D01*
X147933390Y-110714285D02*
X147981009Y-110761904D01*
X147981009Y-110761904D02*
X148028628Y-110857142D01*
X148028628Y-110857142D02*
X148028628Y-111238094D01*
X147600057Y-110285713D02*
X147552438Y-110238094D01*
X147552438Y-110238094D02*
X147504819Y-110142856D01*
X147504819Y-110142856D02*
X147504819Y-109904761D01*
X147504819Y-109904761D02*
X147552438Y-109809523D01*
X147552438Y-109809523D02*
X147600057Y-109761904D01*
X147600057Y-109761904D02*
X147695295Y-109714285D01*
X147695295Y-109714285D02*
X147790533Y-109714285D01*
X147790533Y-109714285D02*
X147933390Y-109761904D01*
X147933390Y-109761904D02*
X148504819Y-110333332D01*
X148504819Y-110333332D02*
X148504819Y-109714285D01*
X165883333Y-113454819D02*
X165550000Y-112978628D01*
X165311905Y-113454819D02*
X165311905Y-112454819D01*
X165311905Y-112454819D02*
X165692857Y-112454819D01*
X165692857Y-112454819D02*
X165788095Y-112502438D01*
X165788095Y-112502438D02*
X165835714Y-112550057D01*
X165835714Y-112550057D02*
X165883333Y-112645295D01*
X165883333Y-112645295D02*
X165883333Y-112788152D01*
X165883333Y-112788152D02*
X165835714Y-112883390D01*
X165835714Y-112883390D02*
X165788095Y-112931009D01*
X165788095Y-112931009D02*
X165692857Y-112978628D01*
X165692857Y-112978628D02*
X165311905Y-112978628D01*
X166835714Y-113454819D02*
X166264286Y-113454819D01*
X166550000Y-113454819D02*
X166550000Y-112454819D01*
X166550000Y-112454819D02*
X166454762Y-112597676D01*
X166454762Y-112597676D02*
X166359524Y-112692914D01*
X166359524Y-112692914D02*
X166264286Y-112740533D01*
X117404761Y-112050057D02*
X117309523Y-112002438D01*
X117309523Y-112002438D02*
X117214285Y-111907200D01*
X117214285Y-111907200D02*
X117071428Y-111764342D01*
X117071428Y-111764342D02*
X116976190Y-111716723D01*
X116976190Y-111716723D02*
X116880952Y-111716723D01*
X116928571Y-111954819D02*
X116833333Y-111907200D01*
X116833333Y-111907200D02*
X116738095Y-111811961D01*
X116738095Y-111811961D02*
X116690476Y-111621485D01*
X116690476Y-111621485D02*
X116690476Y-111288152D01*
X116690476Y-111288152D02*
X116738095Y-111097676D01*
X116738095Y-111097676D02*
X116833333Y-111002438D01*
X116833333Y-111002438D02*
X116928571Y-110954819D01*
X116928571Y-110954819D02*
X117119047Y-110954819D01*
X117119047Y-110954819D02*
X117214285Y-111002438D01*
X117214285Y-111002438D02*
X117309523Y-111097676D01*
X117309523Y-111097676D02*
X117357142Y-111288152D01*
X117357142Y-111288152D02*
X117357142Y-111621485D01*
X117357142Y-111621485D02*
X117309523Y-111811961D01*
X117309523Y-111811961D02*
X117214285Y-111907200D01*
X117214285Y-111907200D02*
X117119047Y-111954819D01*
X117119047Y-111954819D02*
X116928571Y-111954819D01*
X118214285Y-111288152D02*
X118214285Y-111954819D01*
X117976190Y-110907200D02*
X117738095Y-111621485D01*
X117738095Y-111621485D02*
X118357142Y-111621485D01*
X152895833Y-115359580D02*
X152848214Y-115407200D01*
X152848214Y-115407200D02*
X152705357Y-115454819D01*
X152705357Y-115454819D02*
X152610119Y-115454819D01*
X152610119Y-115454819D02*
X152467262Y-115407200D01*
X152467262Y-115407200D02*
X152372024Y-115311961D01*
X152372024Y-115311961D02*
X152324405Y-115216723D01*
X152324405Y-115216723D02*
X152276786Y-115026247D01*
X152276786Y-115026247D02*
X152276786Y-114883390D01*
X152276786Y-114883390D02*
X152324405Y-114692914D01*
X152324405Y-114692914D02*
X152372024Y-114597676D01*
X152372024Y-114597676D02*
X152467262Y-114502438D01*
X152467262Y-114502438D02*
X152610119Y-114454819D01*
X152610119Y-114454819D02*
X152705357Y-114454819D01*
X152705357Y-114454819D02*
X152848214Y-114502438D01*
X152848214Y-114502438D02*
X152895833Y-114550057D01*
X153229167Y-114454819D02*
X153848214Y-114454819D01*
X153848214Y-114454819D02*
X153514881Y-114835771D01*
X153514881Y-114835771D02*
X153657738Y-114835771D01*
X153657738Y-114835771D02*
X153752976Y-114883390D01*
X153752976Y-114883390D02*
X153800595Y-114931009D01*
X153800595Y-114931009D02*
X153848214Y-115026247D01*
X153848214Y-115026247D02*
X153848214Y-115264342D01*
X153848214Y-115264342D02*
X153800595Y-115359580D01*
X153800595Y-115359580D02*
X153752976Y-115407200D01*
X153752976Y-115407200D02*
X153657738Y-115454819D01*
X153657738Y-115454819D02*
X153372024Y-115454819D01*
X153372024Y-115454819D02*
X153276786Y-115407200D01*
X153276786Y-115407200D02*
X153229167Y-115359580D01*
X117404761Y-107050057D02*
X117309523Y-107002438D01*
X117309523Y-107002438D02*
X117214285Y-106907200D01*
X117214285Y-106907200D02*
X117071428Y-106764342D01*
X117071428Y-106764342D02*
X116976190Y-106716723D01*
X116976190Y-106716723D02*
X116880952Y-106716723D01*
X116928571Y-106954819D02*
X116833333Y-106907200D01*
X116833333Y-106907200D02*
X116738095Y-106811961D01*
X116738095Y-106811961D02*
X116690476Y-106621485D01*
X116690476Y-106621485D02*
X116690476Y-106288152D01*
X116690476Y-106288152D02*
X116738095Y-106097676D01*
X116738095Y-106097676D02*
X116833333Y-106002438D01*
X116833333Y-106002438D02*
X116928571Y-105954819D01*
X116928571Y-105954819D02*
X117119047Y-105954819D01*
X117119047Y-105954819D02*
X117214285Y-106002438D01*
X117214285Y-106002438D02*
X117309523Y-106097676D01*
X117309523Y-106097676D02*
X117357142Y-106288152D01*
X117357142Y-106288152D02*
X117357142Y-106621485D01*
X117357142Y-106621485D02*
X117309523Y-106811961D01*
X117309523Y-106811961D02*
X117214285Y-106907200D01*
X117214285Y-106907200D02*
X117119047Y-106954819D01*
X117119047Y-106954819D02*
X116928571Y-106954819D01*
X117690476Y-105954819D02*
X118309523Y-105954819D01*
X118309523Y-105954819D02*
X117976190Y-106335771D01*
X117976190Y-106335771D02*
X118119047Y-106335771D01*
X118119047Y-106335771D02*
X118214285Y-106383390D01*
X118214285Y-106383390D02*
X118261904Y-106431009D01*
X118261904Y-106431009D02*
X118309523Y-106526247D01*
X118309523Y-106526247D02*
X118309523Y-106764342D01*
X118309523Y-106764342D02*
X118261904Y-106859580D01*
X118261904Y-106859580D02*
X118214285Y-106907200D01*
X118214285Y-106907200D02*
X118119047Y-106954819D01*
X118119047Y-106954819D02*
X117833333Y-106954819D01*
X117833333Y-106954819D02*
X117738095Y-106907200D01*
X117738095Y-106907200D02*
X117690476Y-106859580D01*
X194333333Y-111954819D02*
X194000000Y-111478628D01*
X193761905Y-111954819D02*
X193761905Y-110954819D01*
X193761905Y-110954819D02*
X194142857Y-110954819D01*
X194142857Y-110954819D02*
X194238095Y-111002438D01*
X194238095Y-111002438D02*
X194285714Y-111050057D01*
X194285714Y-111050057D02*
X194333333Y-111145295D01*
X194333333Y-111145295D02*
X194333333Y-111288152D01*
X194333333Y-111288152D02*
X194285714Y-111383390D01*
X194285714Y-111383390D02*
X194238095Y-111431009D01*
X194238095Y-111431009D02*
X194142857Y-111478628D01*
X194142857Y-111478628D02*
X193761905Y-111478628D01*
X195190476Y-110954819D02*
X195000000Y-110954819D01*
X195000000Y-110954819D02*
X194904762Y-111002438D01*
X194904762Y-111002438D02*
X194857143Y-111050057D01*
X194857143Y-111050057D02*
X194761905Y-111192914D01*
X194761905Y-111192914D02*
X194714286Y-111383390D01*
X194714286Y-111383390D02*
X194714286Y-111764342D01*
X194714286Y-111764342D02*
X194761905Y-111859580D01*
X194761905Y-111859580D02*
X194809524Y-111907200D01*
X194809524Y-111907200D02*
X194904762Y-111954819D01*
X194904762Y-111954819D02*
X195095238Y-111954819D01*
X195095238Y-111954819D02*
X195190476Y-111907200D01*
X195190476Y-111907200D02*
X195238095Y-111859580D01*
X195238095Y-111859580D02*
X195285714Y-111764342D01*
X195285714Y-111764342D02*
X195285714Y-111526247D01*
X195285714Y-111526247D02*
X195238095Y-111431009D01*
X195238095Y-111431009D02*
X195190476Y-111383390D01*
X195190476Y-111383390D02*
X195095238Y-111335771D01*
X195095238Y-111335771D02*
X194904762Y-111335771D01*
X194904762Y-111335771D02*
X194809524Y-111383390D01*
X194809524Y-111383390D02*
X194761905Y-111431009D01*
X194761905Y-111431009D02*
X194714286Y-111526247D01*
X83261905Y-98954819D02*
X83261905Y-97954819D01*
X83261905Y-97954819D02*
X83500000Y-97954819D01*
X83500000Y-97954819D02*
X83642857Y-98002438D01*
X83642857Y-98002438D02*
X83738095Y-98097676D01*
X83738095Y-98097676D02*
X83785714Y-98192914D01*
X83785714Y-98192914D02*
X83833333Y-98383390D01*
X83833333Y-98383390D02*
X83833333Y-98526247D01*
X83833333Y-98526247D02*
X83785714Y-98716723D01*
X83785714Y-98716723D02*
X83738095Y-98811961D01*
X83738095Y-98811961D02*
X83642857Y-98907200D01*
X83642857Y-98907200D02*
X83500000Y-98954819D01*
X83500000Y-98954819D02*
X83261905Y-98954819D01*
X84738095Y-97954819D02*
X84261905Y-97954819D01*
X84261905Y-97954819D02*
X84214286Y-98431009D01*
X84214286Y-98431009D02*
X84261905Y-98383390D01*
X84261905Y-98383390D02*
X84357143Y-98335771D01*
X84357143Y-98335771D02*
X84595238Y-98335771D01*
X84595238Y-98335771D02*
X84690476Y-98383390D01*
X84690476Y-98383390D02*
X84738095Y-98431009D01*
X84738095Y-98431009D02*
X84785714Y-98526247D01*
X84785714Y-98526247D02*
X84785714Y-98764342D01*
X84785714Y-98764342D02*
X84738095Y-98859580D01*
X84738095Y-98859580D02*
X84690476Y-98907200D01*
X84690476Y-98907200D02*
X84595238Y-98954819D01*
X84595238Y-98954819D02*
X84357143Y-98954819D01*
X84357143Y-98954819D02*
X84261905Y-98907200D01*
X84261905Y-98907200D02*
X84214286Y-98859580D01*
X83261905Y-113454819D02*
X83261905Y-112454819D01*
X83261905Y-112454819D02*
X83500000Y-112454819D01*
X83500000Y-112454819D02*
X83642857Y-112502438D01*
X83642857Y-112502438D02*
X83738095Y-112597676D01*
X83738095Y-112597676D02*
X83785714Y-112692914D01*
X83785714Y-112692914D02*
X83833333Y-112883390D01*
X83833333Y-112883390D02*
X83833333Y-113026247D01*
X83833333Y-113026247D02*
X83785714Y-113216723D01*
X83785714Y-113216723D02*
X83738095Y-113311961D01*
X83738095Y-113311961D02*
X83642857Y-113407200D01*
X83642857Y-113407200D02*
X83500000Y-113454819D01*
X83500000Y-113454819D02*
X83261905Y-113454819D01*
X84690476Y-112788152D02*
X84690476Y-113454819D01*
X84452381Y-112407200D02*
X84214286Y-113121485D01*
X84214286Y-113121485D02*
X84833333Y-113121485D01*
D12*
X103822936Y-107090000D02*
X105277064Y-107090000D01*
X103822936Y-108910000D02*
X105277064Y-108910000D01*
X108822936Y-112090000D02*
X110277064Y-112090000D01*
X108822936Y-113910000D02*
X110277064Y-113910000D01*
X195140000Y-114851248D02*
X195140000Y-116273752D01*
X197860000Y-114851248D02*
X197860000Y-116273752D01*
X100273752Y-107090000D02*
X98851248Y-107090000D01*
X100273752Y-108910000D02*
X98851248Y-108910000D01*
X152351248Y-107090000D02*
X153773752Y-107090000D01*
X152351248Y-108910000D02*
X153773752Y-108910000D01*
X141740000Y-107970000D02*
X141740000Y-108900000D01*
X141740000Y-107970000D02*
X143200000Y-107970000D01*
X141740000Y-111130000D02*
X141740000Y-110200000D01*
X142540000Y-111130000D02*
X141740000Y-111130000D01*
X142540000Y-111130000D02*
X143340000Y-111130000D01*
X144080000Y-111490000D02*
X143600000Y-111490000D01*
X143840000Y-111160000D01*
X144080000Y-111490000D01*
G36*
X144080000Y-111490000D02*
G01*
X143600000Y-111490000D01*
X143840000Y-111160000D01*
X144080000Y-111490000D01*
G37*
X212090000Y-103777064D02*
X212090000Y-102322936D01*
X213910000Y-103777064D02*
X213910000Y-102322936D01*
X147322936Y-112090000D02*
X148777064Y-112090000D01*
X147322936Y-113910000D02*
X148777064Y-113910000D01*
X209590000Y-100277064D02*
X209590000Y-98822936D01*
X211410000Y-100277064D02*
X211410000Y-98822936D01*
X209590000Y-107277064D02*
X209590000Y-105822936D01*
X211410000Y-107277064D02*
X211410000Y-105822936D01*
X171090000Y-109240000D02*
X172350000Y-109240000D01*
X171090000Y-113000000D02*
X171090000Y-109240000D01*
X177910000Y-109240000D02*
X176650000Y-109240000D01*
X177910000Y-113000000D02*
X177910000Y-109240000D01*
X171190000Y-114280000D02*
X170860000Y-114520000D01*
X170860000Y-114040000D01*
X171190000Y-114280000D01*
G36*
X171190000Y-114280000D02*
G01*
X170860000Y-114520000D01*
X170860000Y-114040000D01*
X171190000Y-114280000D01*
G37*
X201322936Y-113090000D02*
X202777064Y-113090000D01*
X201322936Y-114910000D02*
X202777064Y-114910000D01*
X212140000Y-114851248D02*
X212140000Y-116273752D01*
X214860000Y-114851248D02*
X214860000Y-116273752D01*
X167760000Y-107150000D02*
X164500000Y-107150000D01*
X167760000Y-108850000D02*
X164500000Y-108850000D01*
X167760000Y-108850000D02*
X167760000Y-107150000D01*
X84777064Y-114590000D02*
X83322936Y-114590000D01*
X84777064Y-116410000D02*
X83322936Y-116410000D01*
X97240000Y-112150000D02*
X97240000Y-113850000D01*
X97240000Y-112150000D02*
X100500000Y-112150000D01*
X97240000Y-113850000D02*
X100500000Y-113850000D01*
X84777064Y-95090000D02*
X83322936Y-95090000D01*
X84777064Y-96910000D02*
X83322936Y-96910000D01*
X81470000Y-109605000D02*
X81470000Y-101865000D01*
X84070000Y-107005000D02*
X84070000Y-109605000D01*
X84070000Y-109605000D02*
X81470000Y-109605000D01*
X86670000Y-101865000D02*
X81470000Y-101865000D01*
X86670000Y-107005000D02*
X84070000Y-107005000D01*
X86670000Y-107005000D02*
X86670000Y-101865000D01*
X86670000Y-108275000D02*
X86670000Y-109605000D01*
X86670000Y-109605000D02*
X85340000Y-109605000D01*
D11*
X129500000Y-109000000D02*
X129500000Y-112000000D01*
X136500000Y-107100000D02*
X132000000Y-107100000D01*
X136500000Y-107100000D02*
X136500000Y-109100000D01*
X136500000Y-113900000D02*
X132500000Y-113900000D01*
X136500000Y-113900000D02*
X136500000Y-111900000D01*
D12*
X130640000Y-109430000D02*
X130160000Y-109430000D01*
X130400000Y-109100000D01*
X130640000Y-109430000D01*
G36*
X130640000Y-109430000D02*
G01*
X130160000Y-109430000D01*
X130400000Y-109100000D01*
X130640000Y-109430000D01*
G37*
X152351248Y-109590000D02*
X153773752Y-109590000D01*
X152351248Y-111410000D02*
X153773752Y-111410000D01*
X156940000Y-110500000D02*
X156940000Y-108550000D01*
X156940000Y-110500000D02*
X156940000Y-112450000D01*
X162060000Y-110500000D02*
X162060000Y-108550000D01*
X162060000Y-110500000D02*
X162060000Y-112450000D01*
X162295000Y-108040000D02*
X161965000Y-107800000D01*
X162295000Y-107560000D01*
X162295000Y-108040000D01*
G36*
X162295000Y-108040000D02*
G01*
X161965000Y-107800000D01*
X162295000Y-107560000D01*
X162295000Y-108040000D01*
G37*
X105277064Y-112090000D02*
X103822936Y-112090000D01*
X105277064Y-113910000D02*
X103822936Y-113910000D01*
X212090000Y-110777064D02*
X212090000Y-109322936D01*
X213910000Y-110777064D02*
X213910000Y-109322936D01*
X204822936Y-110590000D02*
X206277064Y-110590000D01*
X204822936Y-112410000D02*
X206277064Y-112410000D01*
X108822936Y-107090000D02*
X110277064Y-107090000D01*
X108822936Y-108910000D02*
X110277064Y-108910000D01*
X143777064Y-112090000D02*
X142322936Y-112090000D01*
X143777064Y-113910000D02*
X142322936Y-113910000D01*
X110277064Y-109590000D02*
X108822936Y-109590000D01*
X110277064Y-111410000D02*
X108822936Y-111410000D01*
D11*
X179740000Y-107240000D02*
X179990000Y-107240000D01*
X179740000Y-115760000D02*
X179740000Y-107240000D01*
X179740000Y-115760000D02*
X179990000Y-115760000D01*
X188260000Y-107240000D02*
X188010000Y-107240000D01*
X188260000Y-115760000D02*
X188010000Y-115760000D01*
X188260000Y-115760000D02*
X188260000Y-107240000D01*
D12*
X148777064Y-107090000D02*
X147322936Y-107090000D01*
X148777064Y-108910000D02*
X147322936Y-108910000D01*
D11*
X198885000Y-106350000D02*
X191875000Y-106350000D01*
X198885000Y-109650000D02*
X191875000Y-109650000D01*
X198885000Y-109650000D02*
X198885000Y-106350000D01*
D12*
X208322936Y-113090000D02*
X209777064Y-113090000D01*
X208322936Y-114910000D02*
X209777064Y-114910000D01*
X119590000Y-107390000D02*
X121940000Y-107390000D01*
X119590000Y-113145563D02*
X119590000Y-107390000D01*
X120654437Y-114210000D02*
X119590000Y-113145563D01*
X120654437Y-114210000D02*
X121940000Y-114210000D01*
X120758750Y-114843750D02*
X121546250Y-114843750D01*
X121152500Y-115237500D02*
X121152500Y-114450000D01*
X125345563Y-114210000D02*
X124060000Y-114210000D01*
X125345563Y-114210000D02*
X126410000Y-113145563D01*
X126410000Y-107390000D02*
X124060000Y-107390000D01*
X126410000Y-113145563D02*
X126410000Y-107390000D01*
X148777064Y-109590000D02*
X147322936Y-109590000D01*
X148777064Y-111410000D02*
X147322936Y-111410000D01*
X165322936Y-109590000D02*
X166777064Y-109590000D01*
X165322936Y-111410000D02*
X166777064Y-111410000D01*
X115460000Y-111420000D02*
X114660000Y-111420000D01*
X115460000Y-111420000D02*
X116260000Y-111420000D01*
X116260000Y-111420000D02*
X116260000Y-112350000D01*
X116260000Y-114580000D02*
X114800000Y-114580000D01*
X116260000Y-114580000D02*
X116260000Y-113650000D01*
X114160000Y-111390000D02*
X113920000Y-111060000D01*
X114400000Y-111060000D01*
X114160000Y-111390000D01*
G36*
X114160000Y-111390000D02*
G01*
X113920000Y-111060000D01*
X114400000Y-111060000D01*
X114160000Y-111390000D01*
G37*
X152351248Y-112090000D02*
X153773752Y-112090000D01*
X152351248Y-113910000D02*
X153773752Y-113910000D01*
X115460000Y-106420000D02*
X114660000Y-106420000D01*
X115460000Y-106420000D02*
X116260000Y-106420000D01*
X116260000Y-106420000D02*
X116260000Y-107350000D01*
X116260000Y-109580000D02*
X114800000Y-109580000D01*
X116260000Y-109580000D02*
X116260000Y-108650000D01*
X114160000Y-106390000D02*
X113920000Y-106060000D01*
X114400000Y-106060000D01*
X114160000Y-106390000D01*
G36*
X114160000Y-106390000D02*
G01*
X113920000Y-106060000D01*
X114400000Y-106060000D01*
X114160000Y-106390000D01*
G37*
X197822936Y-110590000D02*
X199277064Y-110590000D01*
X197822936Y-112410000D02*
X199277064Y-112410000D01*
%LPC*%
D13*
X103000000Y-108000000D03*
X106100000Y-108000000D03*
X108000000Y-113000000D03*
X111100000Y-113000000D03*
D14*
X196500000Y-114000000D03*
X196500000Y-117125000D03*
D15*
X101125000Y-108000000D03*
X98000000Y-108000000D03*
D16*
X151500000Y-108000000D03*
X154625000Y-108000000D03*
D17*
X144000000Y-110500000D03*
X144000000Y-108600000D03*
X141000000Y-109550000D03*
D18*
X213000000Y-104600000D03*
X213000000Y-101500000D03*
D13*
X146500000Y-113000000D03*
X149600000Y-113000000D03*
D18*
X210500000Y-101100000D03*
X210500000Y-98000000D03*
X210500000Y-108100000D03*
X210500000Y-105000000D03*
D19*
X172200000Y-114300000D03*
X174500000Y-114300000D03*
X176800000Y-114300000D03*
D20*
X174500000Y-108000000D03*
D13*
X200500000Y-114000000D03*
X203600000Y-114000000D03*
D14*
X213500000Y-114000000D03*
X213500000Y-117125000D03*
D21*
X167000000Y-108000000D03*
X164500000Y-108000000D03*
D22*
X85600000Y-115500000D03*
X82500000Y-115500000D03*
D23*
X98000000Y-113000000D03*
X100500000Y-113000000D03*
D22*
X85600000Y-96000000D03*
X82500000Y-96000000D03*
D24*
X85340000Y-108275000D03*
X82800000Y-108275000D03*
D25*
X85340000Y-105735000D03*
X82800000Y-105735000D03*
X85340000Y-103195000D03*
X82800000Y-103195000D03*
D26*
X129800000Y-108000000D03*
X136200000Y-110500000D03*
X129800000Y-113000000D03*
D16*
X151500000Y-110500000D03*
X154625000Y-110500000D03*
D27*
X161405000Y-108025000D03*
X160135000Y-108025000D03*
X158865000Y-108025000D03*
X157595000Y-108025000D03*
X157595000Y-112975000D03*
X158865000Y-112975000D03*
X160135000Y-112975000D03*
X161405000Y-112975000D03*
D22*
X106100000Y-113000000D03*
X103000000Y-113000000D03*
D18*
X213000000Y-111600000D03*
X213000000Y-108500000D03*
D13*
X204000000Y-111500000D03*
X207100000Y-111500000D03*
D28*
X72600000Y-116000000D03*
X73302944Y-114302944D03*
X73302944Y-117697056D03*
X75000000Y-113600000D03*
D29*
X75000000Y-116000000D03*
D28*
X75000000Y-118400000D03*
X76697056Y-114302944D03*
X76697056Y-117697056D03*
X77400000Y-116000000D03*
D13*
X108000000Y-108000000D03*
X111100000Y-108000000D03*
D28*
X220100000Y-95500000D03*
X220802944Y-93802944D03*
X220802944Y-97197056D03*
X222500000Y-93100000D03*
D29*
X222500000Y-95500000D03*
D28*
X222500000Y-97900000D03*
X224197056Y-93802944D03*
X224197056Y-97197056D03*
X224900000Y-95500000D03*
X220100000Y-116000000D03*
X220802944Y-114302944D03*
X220802944Y-117697056D03*
X222500000Y-113600000D03*
D29*
X222500000Y-116000000D03*
D28*
X222500000Y-118400000D03*
X224197056Y-114302944D03*
X224197056Y-117697056D03*
X224900000Y-116000000D03*
D22*
X144600000Y-113000000D03*
X141500000Y-113000000D03*
X111100000Y-110500000D03*
X108000000Y-110500000D03*
D30*
X184000000Y-115000000D03*
X184000000Y-108000000D03*
D22*
X149600000Y-108000000D03*
X146500000Y-108000000D03*
D31*
X197000000Y-108000000D03*
X191750000Y-108000000D03*
D13*
X207500000Y-114000000D03*
X210600000Y-114000000D03*
D28*
X72600000Y-95500000D03*
X73302944Y-93802944D03*
X73302944Y-97197056D03*
X75000000Y-93100000D03*
D29*
X75000000Y-95500000D03*
D28*
X75000000Y-97900000D03*
X76697056Y-93802944D03*
X76697056Y-97197056D03*
X77400000Y-95500000D03*
D32*
X123000000Y-113600000D03*
X123000000Y-108000000D03*
D22*
X149600000Y-110500000D03*
X146500000Y-110500000D03*
D13*
X164500000Y-110500000D03*
X167600000Y-110500000D03*
D33*
X114000000Y-112050000D03*
X114000000Y-113950000D03*
X117000000Y-113000000D03*
D16*
X151500000Y-113000000D03*
X154625000Y-113000000D03*
D33*
X114000000Y-107050000D03*
X114000000Y-108950000D03*
X117000000Y-108000000D03*
D13*
X197000000Y-111500000D03*
X200100000Y-111500000D03*
D34*
X204250000Y-98000000D03*
X196630000Y-98000000D03*
D35*
X118870000Y-98000000D03*
X111250000Y-98000000D03*
X100870000Y-98000000D03*
X93250000Y-98000000D03*
%LPD*%
M02*
