<svg width="65mm" height="17.5mm" version="1.1" viewBox="0 0 245.67 66.142" xmlns="http://www.w3.org/2000/svg"><path fill="#fff" d="m0.94488 0.94488h243.78v64.252h-243.78z"/><path fill="#000" d="m0 0v66.143h245.67v-66.143zm1.8906 1.8906h241.89v62.361h-241.89z"/><path fill="#000" d="m5.6696 55.288v-5.184h10.367v10.368h-10.367zm8.8863 0v-3.7029h-7.4053v7.4057h7.4053zm-5.9239 0v-2.2218h4.4431v4.4435h-4.4431zm11.848 4.4435v-0.74057h1.4811v1.4811h-1.4811zm2.9621 0v-0.74057h1.4811v-1.4811h-1.4811v-1.4811h-1.4811v1.4811h-1.4811v-1.4811h-1.4811v2.9624h-1.4811v-11.849h-1.4811v1.4811h-5.9239v-1.4811h-1.4811v-4.4435h-1.4811v5.9245h-1.4811v-5.9245h1.4811v-1.4811h1.4811v1.4811h2.9621v1.4811h-1.4811v1.4811h1.4811v1.4811h1.4811v-1.4811h1.4811v-1.4811h1.4811v-1.4811h-2.9621v-1.4811h4.4431v-1.4811h1.4811v1.4811h2.9621v-1.4811h-1.4811v-4.4435h-2.9621v1.4811h1.4811v1.4811h-2.9621v1.4811h-4.4431v1.4811h-1.4811v-1.4811h-2.9621v-1.4811h4.4431v-2.9624h4.4431v-1.4811h-1.4811v-1.4811h2.9621v-1.4811h1.4811v-1.4811h-1.4811v-2.9624h1.4811v-1.4811h-1.4811v-1.4811h1.4811v-1.4811h-1.4811v-1.4811h-1.4811v1.4811h-2.9621v1.4811h-2.9621v1.4811h1.4811v1.4811h1.4811v-1.4811h1.4811v-1.4811h1.4811v1.4811h-1.4811v1.4811h1.4811v1.4811h-2.9621v4.4435h-1.4811v1.4811h-1.4811v-2.9624h-2.9621v1.4811h-1.4811v-1.4811h1.4811v-1.4811h-1.4811v-2.9624h1.4811v-4.4435h1.4811v-1.4811h1.4811v-1.4811h-2.9621v-1.4811h10.367v2.9624h1.4811v1.4811h1.4811v-1.4811h2.9621v-1.4811h-1.4811v-1.4811h1.4811v-2.9624h1.4811v-1.4811h2.9621v-1.4811h1.4811v2.9624h1.4811v1.4811h-1.4811v-1.4811h-1.4811v2.9624h1.4811v1.4811h1.4811v-1.4811h2.9621v-1.4811h-1.4811v-1.4811h1.4811v-1.4811h-1.4811v-1.4811h1.4811v-1.4811h1.4811v-1.4811h1.4811v-1.4812h-1.4811v-1.4811h1.4811v1.4811h1.4811v-1.4811h1.4811v1.4811h-1.4811v2.9624h1.4811v5.9245h-1.4811v1.4812h7.4053v1.4811h-1.4811v1.4811h2.9621v-5.9245h-1.4811v1.4811h-1.4811v-2.9624h4.4431v7.4057h-1.4811v1.4811h1.4811v1.4811h1.4811v-2.9624h1.4811v-2.9624h2.9621v1.4811h-1.4811v1.4811h1.4811v1.4811h-2.9621v2.9624h1.4811v-1.4812h1.4811v1.4812h1.4811v-1.4812h1.4811v2.9624h2.9621v1.4811h-2.9621v-1.4811h-1.4811v1.4811h-4.4431v-2.9624h-1.4811v4.4435h1.4811v1.4811h-2.9621v2.9624h2.9621v-1.4811h1.4811v1.4811h1.4811v1.4811h2.9621v-1.4811h-1.4811v-1.4811h-1.4811v-1.4811h-1.4811v-1.4811h1.4811v1.4811h1.4811v-1.4811h2.9621v1.4811h-2.9621v1.4811h4.4431v1.4811h-1.4811v1.4811h1.4811v1.4811h-7.4053v1.4811h-1.4811v-1.4811h-2.9621v-1.4811h-1.4811v1.4811h-2.9621v-2.9624h-2.9621v1.4811h1.4811v4.4435h-1.4811v-1.4811h-1.4811v-1.4811h-1.4811v-1.4811h-2.9621v1.4811h1.4811v1.4811h1.4811v1.4811h1.4811v2.9624h1.4811v-1.4811h2.9621v-2.9624h2.9621v1.4811h-1.4811v4.4435h1.4811v-1.4811h1.4811v-4.4435h1.4811v2.9624h1.4811v-1.4811h1.4811v1.4811h-1.4811v1.4811h1.4811v2.9624h1.4811v-2.9624h1.4811v-1.4811h1.4811v-2.9624h2.9621v1.4811h-1.4811v1.4811h1.4811v1.4811h-1.4811v1.4812h1.4811v1.4811h-1.4811v1.4811h1.4811v1.4811h-1.4811v-1.4811h-1.4811v1.4811h-2.9621v1.4811h1.4811v1.4811h-1.4811v4.4435h-1.4811v1.4811h1.4811v1.4811h4.4431v-2.9624h-1.4811v1.4811h-1.4811v-4.4435h1.4811v1.4811h1.4811v-1.4811h1.4811v1.4811h-1.4811v1.4811h1.4811v4.4435h-5.9239v-1.4811h-1.4811v-1.4811h-1.4811v-1.4811h-1.4811v2.9624h1.4811v1.4811h-2.9621v-1.4811h-2.9621v1.4811h-1.4811v-4.4435h-1.4811v2.9624h-2.9621v1.4811h-1.4811v-1.4811h-2.9621v1.4811h-2.9621v-4.4435h-2.9621v-1.4811h2.9621v-1.4812h-1.4811v-2.9624h1.4811v1.4811h1.4811v1.4811h1.4811v-2.9624h-1.4811v-4.4435h-1.4811v2.9624h-2.9621v4.4435h-1.4811v4.4435h-1.4811v1.4811h1.4811v1.4811h-4.443zm2.9621-2.9624v-0.74058h-1.4811v1.4811h1.4811zm10.367 0v-0.74058h1.4811v1.4811h2.9621v-2.9624h-1.4811v-1.4811h1.4811v-1.4811h1.4811v1.4811h1.4811v-1.4811h1.4811v1.4811h1.4811v-2.9624h-1.4811v-1.4811h-2.9621v-1.4811h1.4811v-1.4811h-2.9621v-1.4811h-1.4811v1.4811h1.4811v4.4435h-1.4811v-1.4811h-1.4811v-1.4811h-2.9621v2.9624h1.4811v-1.4811h1.4811v2.9624h1.4811v1.4811h-1.4811v1.4811h-1.4811v-1.4811h-1.4811v1.4811h-2.9621v1.4811h2.9621v1.4811h1.4811zm-1.4811-1.4811v-0.74058h1.4811v1.4811h-1.4811zm2.9621 0v-0.74058h1.4811v1.4811h-1.4811zm8.8863 0.74057v-1.4811h-2.9621v1.4811h1.4811v1.4811h1.4811zm-25.177-0.74057v-0.74058h-1.4811v1.4811h1.4811zm28.139 0v-0.74058h-1.4811v1.4811h1.4811zm-23.696-1.4811v-0.74058h-1.4811v-1.4811h2.9621v-2.9624h1.4811v-2.9624h2.9621v-2.9624h1.4811v1.4811h1.4811v1.4811h1.4811v-1.4811h-1.4811v-1.4811h2.9621v-1.4811h-1.4811v-2.9624h-1.4811v2.9624h-1.4811v-4.4435h-1.4811v1.4811h-1.4811v1.4811h-2.9621v-1.4811h1.4811v-2.9624h1.4811v-1.4811h-1.4811v1.4811h-2.9621v4.4435h-1.4811v-2.9624h-1.4811v-1.4811h-1.4811v-1.4811h5.9239v-2.9624h-1.4811v-1.4811h-1.4811v2.9624h-2.9621v-2.9624h-1.4811v-1.4811h4.4431v-1.4811h-1.4811v-1.4811h-2.9621v1.4811h-1.4811v2.9624h1.4811v2.9624h-2.9621v1.4811h2.9621v1.4811h1.4811v2.9624h1.4811v2.9624h-1.4811v2.9624h-1.4811v-1.4812h-1.4811v-1.4811h-1.4811v1.4811h1.4811v1.4812h1.4811v1.4811h-2.9621v1.4811h1.4811v2.9624h1.4811v1.4811h1.4811v1.4811h1.4811v1.4811h2.9621zm-4.4431-3.7029v-1.4811h-1.4811v-2.9624h2.9621v-2.9624h1.4811v-1.4811h1.4811v-1.4811h1.4811v1.4811h4.4431v1.4811h-1.4811v1.4811h-1.4811v1.4811h-2.9621v-1.4811h2.9621v-1.4811h-1.4811v-1.4811h-1.4811v1.4811h-1.4811v4.4435h1.4811v1.4811h-1.4811v2.9624h-2.9621zm2.9621-2.2218v-0.74058h-1.4811v1.4811h1.4811zm-4.4431-14.811v-0.74057h1.4811v1.4811h-1.4811zm32.583 17.774v-2.2218h-4.4431v4.4435h4.4431zm-2.9621 0v-0.74057h1.4811v1.4811h-1.4811zm-34.063-4.4435v-0.74057h-1.4811v1.4811h1.4811zm35.545 0v-0.74057h-1.4811v-1.4811h1.4811v-1.4811h-1.4811v1.4811h-1.4811v1.4811h1.4811v1.4811h1.4811zm5.9239 0v-0.74057h-1.4811v1.4811h1.4811zm-13.329-2.9624v-0.74058h-1.4811v1.4811h1.4811zm13.329 0v-0.74058h-1.4811v1.4811h1.4811zm-41.469-5.9245v-0.74057h-2.9621v1.4811h2.9621zm19.253-2.9624v-0.74058h1.4811v-1.4811h-1.4811v-1.4811h-1.4811v1.4811h1.4811v1.4811h-2.9621v1.4811h2.9621zm11.848-2.9624v-0.74057h1.4811v-1.4811h-1.4811v-1.4811h1.4811v-4.4434h-1.4811v-1.4811h-1.4811v2.9624h-1.4811v1.4811h-1.4811v-1.4811h-1.4811v1.4811h-1.4811v-1.4811h-1.4811v-1.4811h-1.4811v-1.4811h1.4811v-1.4811h1.4811v2.9624h4.4431v-1.4811h-1.4811v-2.9624h-1.4811v1.4811h-1.4811v-1.4811h-1.4811v-1.4811h-1.4811v-1.4811h1.4811v-1.4811h-1.4811v1.4811h-1.4811v-1.4811h-1.4811v1.4811h1.4811v2.9624h-1.4811v1.4811h-2.9621v1.4811h-1.4811v-2.9624h-1.4811v-1.4811h-2.9621v4.4435h1.4811v-1.4812h1.4811v1.4812h1.4811v1.4811h1.4811v-1.4811h2.9621v-1.4812h1.4811v2.9624h-2.9621v1.4811h1.4811v1.4811h2.9621v2.9624h2.9621v1.4811h-1.4811v1.4811h8.8863zm-5.9239-1.4811v-0.74057h2.9621v-1.4811h1.4811v-1.4811h1.4811v1.4811h-1.4811v2.9624h-4.4431zm-2.9621-2.9624v-0.74058h1.4811v1.4811h-1.4811zm2.9621 0v-0.74058h1.4811v1.4811h-1.4811zm-5.9239-2.9624v-0.74057h1.4811v1.4811h-1.4811zm1.4811-4.4435v-0.74057h1.4811v1.4811h-1.4811zm-4.4431 9.6275v-1.4811h-4.4431v1.4811h2.9621v1.4811h1.4811zm-23.696-0.74057v-0.74058h2.9621v-1.4811h-4.4431v2.9624h1.4811zm20.733-2.9624v-0.74057h-1.4811v-1.4812h-2.9621v1.4812h2.9621v1.4811h1.4811zm25.177 0v-0.74057h-1.4811v1.4811h1.4811zm-44.431-2.9624v-0.74057h-1.4811v1.4811h1.4811zm2.9621-1.4811v-0.74057h2.9621v-1.4811h-2.9621v1.4811h-1.4811v1.4811h1.4811zm13.329-5.9245v-0.74057h-1.4811v1.4811h1.4811zm10.367-2.9624v-0.74057h1.4811v-1.4811h-1.4811v1.4811h-1.4811v1.4811h1.4811zm22.216 38.51v-0.74058h1.4811v1.4811h-1.4811zm-51.836-14.811v-0.74057h-1.4811v-1.4811h2.9621v1.4811h1.4811v1.4811h-2.9621zm7.4053-5.9245v-0.74058h1.4811v1.4811h-1.4811zm44.431-6.6652v-1.4811h-1.4811v-1.4811h2.9621v4.4435h-1.4811zm-39.986-5.9245v-1.4811h-1.4811v-4.4435h1.4811v-4.4435h-1.4811v-1.4811h1.4811v1.4811h2.9621v-1.4811h1.4811v1.4811h1.4811v-1.4811h2.9621v1.4811h2.9621v-1.4811h1.4811v1.4811h1.4811v1.4811h-1.4811v1.4811h-5.9239v1.4811h-2.9621v1.4811h-1.4811v-2.9624h1.4811v-1.4811h-2.9621v2.9624h-1.4811v4.4435h1.4811v-1.4811h1.4811v1.4811h-1.4811v2.9624h-1.4811zm8.8863-9.6275v-0.74058h-1.4811v1.4811h1.4811zm4.4431 0v-0.74058h-1.4811v1.4811h1.4811zm26.659 10.368v-0.74057h1.4811v1.4811h-1.4811zm-53.316-7.4057v-5.184h10.367v10.368h-10.367zm8.8863 0v-3.7029h-7.4053v7.4057h7.4053zm-5.9239 0v-2.2218h4.4431v4.4435h-4.4431zm32.583 4.4435v-0.74058h1.4811v1.4811h-1.4811zm8.8863-4.4435v-5.184h10.367v10.368h-10.367zm8.8863 0v-3.7029h-7.4053v7.4057h7.4053zm-5.9239 0v-2.2218h4.4431v4.4435h-4.4431zm-11.848-0.74058v-1.4811h1.4811v-1.4811h-1.4811v-1.4811h2.9621v1.4811h2.9621v-1.4811h1.4811v1.4811h-1.4811v1.4811h1.4811v1.4811h-1.4811v1.4811h-2.9621v-2.9624h-1.4811v2.9624h-1.4811z"/><path fill="#000" d="m70.439 5.6693c-1.256 0-2.2765 0.41682-3.0605 1.2515-0.784 0.83465-1.1758 1.9218-1.1758 3.2604 0 1.3071 0.38434 2.385 1.1523 3.2354 0.776 0.8504 1.7555 1.2765 2.9395 1.2765 0.592 0 1.0957-0.11018 1.5117-0.33065 0.416-0.22047 0.79095-0.57122 1.127-1.0515l0.2168 1.1342h1.0801v-4.6541h-3.5039v1.4764h1.9922c-0.032 0.30709-0.11595 0.58253-0.25195 0.82662-0.136 0.23622-0.29275 0.42171-0.46875 0.55557s-0.36817 0.24404-0.57617 0.33065c-0.208 0.07874-0.38706 0.13383-0.53906 0.16532-0.144 0.02362-0.27276 0.03461-0.38476 0.03461-0.728 0-1.3268-0.28276-1.7988-0.84969-0.464-0.56693-0.69727-1.2923-0.69727-2.1742 0-0.92914 0.21644-1.6563 0.64844-2.1838 0.44-0.52756 1.0408-0.79202 1.8008-0.79202 1.072 0 1.7679 0.46092 2.0879 1.3822h1.6914c-0.112-0.88977-0.5075-1.5949-1.1875-2.1146-0.68-0.51969-1.5475-0.77856-2.6035-0.77856zm30.131 0c-1.256 0-2.2765 0.41682-3.0605 1.2515-0.784 0.83465-1.1758 1.9218-1.1758 3.2604 0 1.3071 0.38435 2.385 1.1524 3.2354 0.776 0.8504 1.7554 1.2765 2.9394 1.2765 0.592 0 1.0957-0.11018 1.5117-0.33065 0.416-0.22047 0.7929-0.57122 1.1289-1.0515l0.2168 1.1342h1.0801v-4.6541h-3.5039v1.4764h1.9902c-0.032 0.30709-0.11596 0.58253-0.25196 0.82662-0.136 0.23622-0.29079 0.42171-0.46679 0.55557s-0.36817 0.24404-0.57617 0.33065c-0.208 0.07874-0.38902 0.13383-0.54102 0.16532-0.144 0.02362-0.27081 0.03461-0.38281 0.03461-0.728 0-1.3288-0.28276-1.8008-0.84969-0.464-0.56693-0.69532-1.2923-0.69532-2.1742 0-0.92914 0.21644-1.6563 0.64844-2.1838 0.44-0.52756 1.0388-0.79202 1.7988-0.79202 1.072 0 1.7679 0.46092 2.0879 1.3822h1.6934c-0.112-0.88977-0.50945-1.5949-1.1894-2.1146-0.68-0.51969-1.5475-0.77856-2.6035-0.77856zm41.137 0.023068c-1.232 0-2.2077 0.40584-2.9277 1.2169-0.72 0.81103-1.0801 1.9128-1.0801 3.3065 0 1.3858 0.3544 2.4839 1.0664 3.295 0.712 0.80315 1.6766 1.2053 2.8926 1.2053 1.088 0 1.9686-0.28834 2.6406-0.86315 0.672-0.58268 1.0358-1.3649 1.0918-2.3491h-1.752c-0.056 0.55118-0.25189 0.97532-0.58789 1.2745-0.336 0.29921-0.78375 0.44984-1.3438 0.44984-0.696 0-1.2408-0.26446-1.6328-0.79202-0.384-0.52756-0.57617-1.2603-0.57617-2.1973 0-0.95276 0.19961-1.6964 0.59961-2.2319 0.4-0.53544 0.95596-0.80355 1.668-0.80355 1.024 0 1.649 0.51601 1.873 1.5475h1.7148c-0.08-0.95276-0.45123-1.7001-1.1152-2.2434-0.656-0.54331-1.4992-0.81509-2.5312-0.81509zm-66.156 0.14226v8.6103h1.7988v-6.7091l1.5723 6.7091h1.8008l1.5469-6.7091v6.7091h1.8008v-8.6103h-2.7109l-1.5371 6.8494-1.584-6.8494zm9.5996 0v1.4764h2.6523v7.1339h1.7988v-7.1339h2.5566v-1.4764zm27.768 0v1.4764h1.6797v-1.4764zm55.873 0.64784v1.7128h-0.82813v1.0996h0.82813v3.9217c0 1 0.54657 1.4995 1.6426 1.4995 0.376 0 0.70066-0.0441 0.97266-0.13072v-1.1573c-0.168 0.02362-0.29481 0.03653-0.38281 0.03653-0.224 0-0.37332-0.04411-0.44532-0.13072-0.072-0.09449-0.10742-0.28364-0.10742-0.5671v-3.4718h0.93555v-1.0996h-0.93555v-1.7128zm-60.109 1.4764c-0.928 0-1.6593 0.31222-2.1953 0.93428-0.536 0.61418-0.80469 1.4571-0.80469 2.5279 0 1.0236 0.26497 1.8297 0.79297 2.4203 0.528 0.58268 1.2519 0.87468 2.1719 0.87468 0.728 0 1.3642-0.18549 1.9082-0.55557 0.544-0.37796 0.90779-0.88106 1.0918-1.511h-1.6562c-0.216 0.53544-0.6432 0.80163-1.2832 0.80163-0.272 0-0.49959-0.04218-0.68359-0.1288-0.176-0.09449-0.31221-0.22489-0.40821-0.39024-0.088-0.17323-0.15336-0.34581-0.19336-0.51904-0.032-0.1811-0.0506-0.39413-0.0586-0.63823h4.3438c8e-3 -0.09449 0.0117-0.1881 0.0117-0.28259 0-0.54331-0.0634-1.0245-0.19141-1.4418-0.128-0.4252-0.2959-0.76304-0.5039-1.015-0.2-0.25984-0.44071-0.47287-0.72071-0.63823-0.272-0.16536-0.54068-0.27919-0.80468-0.34218-0.264-0.062993-0.53641-0.096119-0.81641-0.096119zm9.625 0c-0.768 0-1.4079 0.33245-1.9199 0.99387-0.512 0.65355-0.76758 1.4725-0.76758 2.4568 0 0.99213 0.23875 1.7909 0.71875 2.3972 0.488 0.6063 1.1316 0.90928 1.9316 0.90928 0.376 0 0.69694-0.06799 0.96094-0.20185 0.272-0.13386 0.56495-0.37251 0.87695-0.71897v0.86122c0 0.38583-0.13248 0.69613-0.39648 0.93235-0.264 0.2441-0.60921 0.36717-1.0332 0.36717-0.656 0-1.0515-0.24789-1.1875-0.74396h-1.7402c8e-3 0.55118 0.27297 0.98822 0.79297 1.3111 0.52 0.33071 1.2122 0.49597 2.0762 0.49597 0.976 0 1.7316-0.20937 2.2676-0.62669 0.544-0.40945 0.8164-0.98787 0.8164-1.7359v-6.5899h-1.5957v0.98041c-0.48-0.72441-1.0808-1.0881-1.8008-1.0881zm7.416 0c-0.928 0-1.6593 0.31222-2.1953 0.93428-0.536 0.61418-0.80468 1.4571-0.80468 2.5279 0 1.0236 0.26301 1.8297 0.79101 2.4203 0.528 0.58268 1.2519 0.87468 2.1719 0.87468 0.728 0 1.3642-0.18549 1.9082-0.55557 0.544-0.37796 0.9078-0.88106 1.0918-1.511h-1.6543c-0.216 0.53544-0.64516 0.80163-1.2852 0.80163-0.272 0-0.49959-0.04218-0.68359-0.1288-0.176-0.09449-0.3122-0.22489-0.4082-0.39024-0.088-0.17323-0.15141-0.34581-0.19141-0.51904-0.032-0.1811-0.0525-0.39413-0.0606-0.63823h4.3438c8e-3 -0.09449 0.0117-0.1881 0.0117-0.28259 0-0.54331-0.0634-1.0245-0.1914-1.4418-0.128-0.4252-0.29591-0.76304-0.50391-1.015-0.2-0.25984-0.4407-0.47287-0.7207-0.63823-0.272-0.16536-0.53874-0.27919-0.80274-0.34218-0.264-0.062993-0.5364-0.096119-0.8164-0.096119zm7.7148 0c-0.384 0-0.73469 0.11942-1.0547 0.35564s-0.56814 0.57041-0.74414 1.0035v-1.2515h-1.6797v6.3785h1.6797v-3.3911c0-0.96851 0.49256-1.4533 1.4766-1.4533 0.152 0 0.32735 0.016563 0.52735 0.048059v-1.6763c-0.064-0.00787-0.13308-0.013457-0.20508-0.013457zm16.105 0c-0.992 0-1.7718 0.3049-2.3398 0.91121-0.568 0.59843-0.85351 1.4211-0.85351 2.4683s0.28551 1.8736 0.85351 2.4799c0.568 0.59843 1.3516 0.89775 2.3516 0.89775 0.984 0 1.7638-0.29932 2.3398-0.89775 0.576-0.59843 0.86328-1.4101 0.86328-2.4337 0-1.0787-0.28356-1.916-0.85156-2.5145-0.56-0.6063-1.3473-0.91121-2.3633-0.91121zm15.336 0c-0.832 0-1.4813 0.34343-1.9453 1.0285v-0.92082h-1.6797v6.3785h1.6797v-3.8275c0-0.37796 0.12505-0.68094 0.37305-0.90928s0.57638-0.34218 0.98438-0.34218c0.72 0 1.0801 0.38195 1.0801 1.1457v3.9332h1.6797v-4.2773c0-0.70079-0.19217-1.2424-0.57617-1.6283-0.376-0.38583-0.9077-0.58056-1.5957-0.58056zm10.127 0c-0.928 0-1.6593 0.31222-2.1953 0.93428-0.536 0.61418-0.80469 1.4571-0.80469 2.5279 0 1.0236 0.26497 1.8297 0.79297 2.4203 0.528 0.58268 1.2519 0.87468 2.1719 0.87468 0.728 0 1.3642-0.18549 1.9082-0.55557 0.544-0.37796 0.90779-0.88106 1.0918-1.511h-1.6562c-0.216 0.53544-0.6432 0.80163-1.2832 0.80163-0.272 0-0.50155-0.04218-0.68555-0.1288-0.176-0.09449-0.31025-0.22489-0.40625-0.39024-0.088-0.17323-0.15336-0.34581-0.19336-0.51904-0.032-0.1811-0.0525-0.39413-0.0605-0.63823h4.3457c8e-3 -0.09449 0.0117-0.1881 0.0117-0.28259 0-0.54331-0.0654-1.0245-0.19336-1.4418-0.128-0.4252-0.29591-0.76304-0.50391-1.015-0.2-0.25984-0.43875-0.47287-0.71875-0.63823-0.272-0.16536-0.54068-0.27919-0.80468-0.34218-0.264-0.062993-0.53641-0.096119-0.81641-0.096119zm7.7168 0c-0.384 0-0.73664 0.11942-1.0566 0.35564s-0.56814 0.57041-0.74414 1.0035v-1.2515h-1.6797v6.3785h1.6797v-3.3911c0-0.96851 0.49256-1.4533 1.4766-1.4533 0.152 0 0.32734 0.016563 0.52734 0.048059v-1.6763c-0.064-0.00787-0.13112-0.013457-0.20312-0.013457zm-69.805 0.10765v6.3785h1.6797v-6.3785zm40.98 0v4.4407c0 0.70079 0.18845 1.2443 0.56445 1.6302 0.384 0.38583 0.91942 0.57864 1.6074 0.57864 0.832 0 1.4794-0.34343 1.9434-1.0285v0.75742h1.6816v-6.3785h-1.6816v3.9909c0 0.37796-0.12309 0.68286-0.37109 0.91121-0.248 0.22835-0.57638 0.34218-0.98438 0.34218-0.72 0-1.0801-0.38195-1.0801-1.1457v-4.0985zm-45.24 1.1573c0.392 0 0.69611 0.12482 0.91211 0.37679 0.224 0.25197 0.35649 0.61196 0.39649 1.0765h-2.5801c0.112-0.96851 0.53548-1.4533 1.2715-1.4533zm17.041 0c0.392 0 0.69611 0.12482 0.91211 0.37679 0.224 0.25197 0.35453 0.61196 0.39453 1.0765h-2.5801c0.112-0.96851 0.53744-1.4533 1.2734-1.4533zm49.283 0c0.392 0 0.69611 0.12482 0.91211 0.37679 0.224 0.25197 0.35649 0.61196 0.39649 1.0765h-2.5801c0.112-0.96851 0.53548-1.4533 1.2715-1.4533zm-25.428 0.071128c0.464 0 0.83151 0.18915 1.1035 0.5671 0.28 0.37008 0.41992 0.86953 0.41992 1.4995 0 0.59843-0.14364 1.0869-0.43164 1.4649-0.28 0.37008-0.64379 0.55557-1.0918 0.55557-0.456 0-0.82352-0.18915-1.1035-0.5671s-0.41992-0.87008-0.41992-1.4764c0-0.6063 0.13992-1.0984 0.41992-1.4764 0.28-0.37796 0.64752-0.5671 1.1035-0.5671zm-30.889 0.046137c0.424 0 0.77293 0.19281 1.0449 0.57864 0.28 0.38583 0.41992 0.8743 0.41992 1.4649 0 0.57481-0.13992 1.0431-0.41992 1.4053-0.272 0.36221-0.62836 0.54403-1.0684 0.54403-0.4 0-0.72466-0.18183-0.97266-0.54403s-0.37109-0.83045-0.37109-1.4053c0-0.6063 0.12309-1.0984 0.37109-1.4764 0.256-0.37796 0.58809-0.5671 0.99609-0.5671zm-10.104 11.115c-0.64 0-1.2165 0.10652-1.7285 0.31912-0.504 0.20473-0.90693 0.4636-1.2109 0.77856-0.296 0.31496-0.54415 0.68228-0.74415 1.0996-0.2 0.41733-0.3362 0.81758-0.4082 1.2034-0.072 0.37796-0.10742 0.75625-0.10742 1.1342 0 1.3228 0.37123 2.4026 1.1152 3.2373 0.74401 0.83465 1.7086 1.2515 2.8926 1.2515 1.16 0 2.1563-0.45726 2.9883-1.3707l0.27539 1.1457h0.70704v-4.5945h-3.6465v0.96888h2.6641v0.23645c0 0.77166-0.26125 1.4052-0.78125 1.9012-0.512 0.49607-1.1668 0.74396-1.9668 0.74396-0.48 0-0.90916-0.07897-1.2852-0.23645-0.376-0.16536-0.68011-0.36914-0.91211-0.61324-0.224-0.25197-0.40678-0.54397-0.55078-0.87468-0.144-0.33071-0.24479-0.6466-0.30079-0.94581-0.056-0.30709-0.084-0.61007-0.084-0.90928 0-1.0551 0.27986-1.9017 0.83986-2.5395 0.56-0.64567 1.3044-0.96696 2.2324-0.96696 0.664 0 1.22 0.1616 1.668 0.48444 0.456 0.31496 0.74328 0.74642 0.86328 1.2976h1.1406c-0.152-0.87402-0.55121-1.5497-1.1992-2.03-0.64-0.48032-1.4609-0.72089-2.4609-0.72089zm-41.881 0.14226v8.6103h3.9492c0.776 0 1.3991-0.22593 1.8711-0.67476 0.472-0.44882 0.70898-1.0419 0.70898-1.782 0-0.51969-0.12876-0.94575-0.38476-1.2765-0.248-0.33071-0.65094-0.60249-1.2109-0.81509 0.808-0.37008 1.2109-0.99627 1.2109-1.8782 0-0.2441-0.03914-0.47909-0.11914-0.70744-0.08-0.23622-0.21248-0.46948-0.39648-0.69782-0.176-0.23622-0.44469-0.42537-0.80469-0.5671s-0.78348-0.21146-1.2715-0.21146zm96.854 0v3.2008c-0.424-0.6378-1.0696-0.95734-1.9336-0.95734-0.816 0-1.4708 0.29932-1.9668 0.89775-0.488 0.59056-0.73243 1.3783-0.73243 2.3626 0 1.0472 0.24443 1.8736 0.73243 2.4799 0.488 0.59843 1.1559 0.89775 2.0039 0.89775 0.432 0 0.80324-0.08629 1.1152-0.25952 0.32-0.16536 0.61667-0.44079 0.88867-0.82662v0.81509h0.88867v-8.6103zm2.3867 0v1.2399h1.0078v-1.2399zm12.18 0v1.2399h1.0098v-1.2399zm22.477 0v3.2008c-0.424-0.6378-1.0676-0.95734-1.9316-0.95734-0.816 0-1.4728 0.29932-1.9688 0.89775-0.488 0.59056-0.73046 1.3783-0.73046 2.3626 0 1.0472 0.24246 1.8736 0.73046 2.4799 0.488 0.59843 1.1559 0.89775 2.0039 0.89775 0.432 0 0.80519-0.08629 1.1172-0.25952 0.32-0.16536 0.61472-0.44079 0.88672-0.82662v0.81509h0.88867v-8.6103zm-104.05 0.23453c-0.568 0-1.0531 0.18183-1.4531 0.54403-0.4 0.35433-0.59961 0.79137-0.59961 1.3111 0 0.27559 0.0671 0.55103 0.20312 0.82662 0.136 0.26772 0.39354 0.63503 0.76954 1.0996-0.744 0.4252-1.2571 0.81813-1.5371 1.1803-0.272 0.35433-0.40821 0.79869-0.40821 1.3341 0 0.70867 0.22388 1.2798 0.67188 1.7128 0.456 0.4252 1.0531 0.63823 1.7891 0.63823 0.544 0 1.0514-0.13406 1.5234-0.40178 0.256-0.14173 0.58437-0.40619 0.98437-0.79202l0.74414 0.92274h1.3086l-1.4648-1.784c0.464-0.70079 0.69531-1.4225 0.69531-2.1627h-0.95898v0.04806c0 0.47244-0.12505 0.92605-0.37305 1.3591l-1.5957-1.9262c0.624-0.34646 1.0569-0.66966 1.2969-0.96888s0.35937-0.66094 0.35937-1.0861c0-0.54331-0.18473-0.98767-0.55273-1.3341s-0.83435-0.52096-1.4023-0.52096zm-15.373 0.48444v1.7013h-0.85156v0.80355h0.85156v4.6771c0 0.31496 0.1045 0.55554 0.3125 0.72089 0.208 0.17323 0.50839 0.25952 0.90039 0.25952 0.232 0 0.50245-0.02754 0.81445-0.08266v-0.82662c-0.12 0.0315-0.27852 0.04613-0.47852 0.04613-0.216 0-0.36531-0.03486-0.44531-0.10573-0.072-0.07874-0.10742-0.22744-0.10742-0.44791v-4.2408h1.0312v-0.80355h-1.0312v-1.7013zm93.984 0v1.7013h-0.85156v0.80355h0.85156v4.6771c0 0.31496 0.1045 0.55554 0.3125 0.72089 0.208 0.17323 0.50644 0.25952 0.89844 0.25952 0.232 0 0.50441-0.02754 0.81641-0.08266v-0.82662c-0.12 0.0315-0.28047 0.04613-0.48047 0.04613-0.216 0-0.36336-0.03486-0.44336-0.10573-0.072-0.07874-0.10742-0.22744-0.10742-0.44791v-4.2408h1.0312v-0.80355h-1.0312v-1.7013zm34.5 0v1.7013h-0.85156v0.80355h0.85156v4.6771c0 0.31496 0.1045 0.55554 0.3125 0.72089 0.208 0.17323 0.50644 0.25952 0.89844 0.25952 0.232 0 0.50441-0.02754 0.81641-0.08266v-0.82662c-0.12 0.0315-0.27852 0.04613-0.47852 0.04613-0.216 0-0.36531-0.03486-0.44531-0.10573-0.072-0.07874-0.10742-0.22744-0.10742-0.44791v-4.2408h1.0312v-0.80355h-1.0312v-1.7013zm15.611 0v1.7013h-0.85156v0.80355h0.85156v4.6771c0 0.31496 0.1045 0.55554 0.3125 0.72089 0.208 0.17323 0.50839 0.25952 0.90039 0.25952 0.232 0 0.50441-0.02754 0.81641-0.08266v-0.82662c-0.12 0.0315-0.28047 0.04613-0.48047 0.04613-0.216 0-0.36336-0.03486-0.44336-0.10573-0.072-0.07874-0.10938-0.22744-0.10938-0.44791v-4.2408h1.0332v-0.80355h-1.0332v-1.7013zm-157.45 0.24799h2.1602c1.168 0 1.752 0.45726 1.752 1.3707s-0.58395 1.3707-1.752 1.3707h-2.1602zm28.691 0.09612c0.304 0 0.55214 0.09361 0.74414 0.28259 0.2 0.18898 0.30078 0.42955 0.30078 0.72089 0 0.26772-0.0896 0.50271-0.26562 0.70744-0.176 0.20473-0.4987 0.45262-0.9707 0.74396-0.36-0.40945-0.59327-0.69587-0.69727-0.86122-0.096-0.17323-0.14258-0.36604-0.14258-0.57864 0-0.30709 0.0914-0.55132 0.27539-0.73242 0.192-0.18898 0.44386-0.28259 0.75586-0.28259zm-19.561 1.1803c-0.872 0-1.5716 0.30664-2.0996 0.92082-0.52 0.6063-0.7793 1.418-0.7793 2.4337 0 1.0158 0.25558 1.8182 0.76758 2.4087 0.512 0.58268 1.2079 0.87468 2.0879 0.87468 0.72 0 1.3171-0.18915 1.7891-0.5671s0.77044-0.90495 0.89844-1.5821h-1.0078c-0.28 0.82678-0.82658 1.2399-1.6426 1.2399-0.568 0-1.0177-0.19281-1.3457-0.57864-0.32-0.38583-0.48791-0.90184-0.50391-1.5475h4.6328c0-2.4016-0.93288-3.6025-2.7969-3.6025zm9.5879 0c-1.632 0-2.4715 0.66837-2.5195 2.007h1.0078c0.04-0.37796 0.17992-0.65339 0.41992-0.82662 0.24-0.1811 0.59264-0.27106 1.0566-0.27106 0.448 0 0.79125 0.07898 1.0312 0.23645 0.248 0.15748 0.37305 0.38515 0.37305 0.68437v0.25952c0 0.20473-0.07652 0.35901-0.22852 0.46137-0.152 0.10236-0.42441 0.17767-0.81641 0.22492-0.288 0.03937-0.48761 0.06691-0.59961 0.08266s-0.28734 0.04329-0.52734 0.08267c-0.24 0.03937-0.40791 0.07423-0.50391 0.10573-0.096 0.02362-0.23592 0.06773-0.41992 0.13072-0.176 0.05512-0.30477 0.11387-0.38477 0.17686-0.072 0.06299-0.16339 0.14562-0.27539 0.24799-0.112 0.09449-0.19223 0.201-0.24023 0.31911-0.04 0.11024-0.07914 0.23871-0.11914 0.38832-0.032 0.14961-0.04883 0.31679-0.04883 0.4979 0 0.55906 0.18474 1.0034 0.55274 1.3341 0.376 0.33071 0.87972 0.49597 1.5117 0.49597 0.752 0 1.4628-0.30298 2.1348-0.90928 0.04 0.31496 0.14078 0.54263 0.30078 0.68437 0.168 0.14961 0.41242 0.22492 0.73242 0.22492 0.176 0 0.40359-0.03486 0.68359-0.10573v-0.74588c-0.072 0.01575-0.1448 0.02499-0.2168 0.02499-0.36 0-0.53906-0.1616-0.53906-0.48444v-3.6371c0-0.55118-0.19961-0.96992-0.59961-1.2534-0.4-0.29134-0.98962-0.43638-1.7656-0.43638zm29.58 0c-1.632 0-2.4715 0.66837-2.5195 2.007h1.0078c0.04-0.37796 0.17992-0.65339 0.41992-0.82662 0.24-0.1811 0.59264-0.27106 1.0566-0.27106 0.448 0 0.79125 0.07898 1.0312 0.23645 0.248 0.15748 0.37305 0.38515 0.37305 0.68437v0.25952c0 0.20473-0.0765 0.35901-0.22852 0.46137-0.152 0.10236-0.42441 0.17767-0.81641 0.22492-0.288 0.03937-0.48761 0.06691-0.59961 0.08266s-0.28734 0.04329-0.52734 0.08267c-0.24 0.03937-0.40791 0.07423-0.50391 0.10573-0.096 0.02362-0.23592 0.06773-0.41992 0.13072-0.176 0.05512-0.30476 0.11387-0.38476 0.17686-0.072 0.06299-0.16339 0.14562-0.27539 0.24799-0.112 0.09449-0.19224 0.201-0.24024 0.31911-0.04 0.11024-0.0811 0.23871-0.12109 0.38832-0.032 0.14961-0.0469 0.31679-0.0469 0.4979 0 0.55906 0.18278 1.0034 0.55078 1.3341 0.376 0.33071 0.88168 0.49597 1.5137 0.49597 0.752 0 1.4628-0.30298 2.1348-0.90928 0.04 0.31496 0.14078 0.54263 0.30078 0.68437 0.168 0.14961 0.41243 0.22492 0.73243 0.22492 0.176 0 0.40359-0.03486 0.68359-0.10573v-0.74588c-0.072 0.01575-0.1448 0.02499-0.2168 0.02499-0.36 0-0.53906-0.1616-0.53906-0.48444v-3.6371c0-0.55118-0.19961-0.96992-0.59961-1.2534-0.4-0.29134-0.98962-0.43638-1.7656-0.43638zm6.877 0c-0.416 0-0.77608 0.08263-1.0801 0.24799-0.296 0.16536-0.57956 0.43347-0.85156 0.80356v-0.87468h-0.92383v6.1901h1.0078v-3.887c0-0.44882 0.14364-0.83078 0.43164-1.1457 0.288-0.31496 0.63497-0.47291 1.043-0.47291 0.368 0 0.65352 0.11018 0.85352 0.33065 0.208 0.2126 0.31054 0.5175 0.31054 0.91121v4.2638h1.0098v-3.887c0-0.44882 0.14364-0.83078 0.43164-1.1457 0.288-0.31496 0.63497-0.47291 1.043-0.47291 0.368 0 0.65156 0.11018 0.85156 0.33065 0.208 0.2126 0.3125 0.5175 0.3125 0.91121v4.2638h1.0078v-4.6425c0-0.55906-0.15851-0.98512-0.47851-1.2765-0.312-0.29921-0.7617-0.44791-1.3457-0.44791-0.416 0-0.76669 0.07165-1.0547 0.21338-0.288 0.14173-0.58096 0.38405-0.87696 0.7305-0.352-0.62992-0.9154-0.94389-1.6914-0.94389zm9.623 0c-0.416 0-0.77608 0.08263-1.0801 0.24799-0.296 0.16536-0.57957 0.43347-0.85157 0.80356v-0.87468h-0.92382v6.1901h1.0078v-3.887c0-0.44882 0.14364-0.83078 0.43164-1.1457 0.288-0.31496 0.63692-0.47291 1.0449-0.47291 0.368 0 0.65156 0.11018 0.85156 0.33065 0.208 0.2126 0.3125 0.5175 0.3125 0.91121v4.2638h1.0078v-3.887c0-0.44882 0.14364-0.83078 0.43164-1.1457 0.288-0.31496 0.63692-0.47291 1.0449-0.47291 0.368 0 0.65156 0.11018 0.85156 0.33065 0.208 0.2126 0.3125 0.5175 0.3125 0.91121v4.2638h1.0078v-4.6425c0-0.55906-0.16046-0.98512-0.48046-1.2765-0.312-0.29921-0.75975-0.44791-1.3438-0.44791-0.416 0-0.76865 0.07165-1.0566 0.21338-0.288 0.14173-0.579 0.38405-0.875 0.7305-0.352-0.62992-0.91735-0.94389-1.6934-0.94389zm9.2656 0c-1.632 0-2.4735 0.66837-2.5215 2.007h1.0078c0.04-0.37796 0.17992-0.65339 0.41992-0.82662 0.24-0.1811 0.59264-0.27106 1.0566-0.27106 0.448 0 0.7932 0.07898 1.0332 0.23645 0.248 0.15748 0.3711 0.38515 0.3711 0.68437v0.25952c0 0.20473-0.0765 0.35901-0.22852 0.46137-0.152 0.10236-0.4244 0.17767-0.8164 0.22492-0.288 0.03937-0.48761 0.06691-0.59961 0.08266s-0.28735 0.04329-0.52735 0.08267c-0.24 0.03937-0.4079 0.07423-0.5039 0.10573-0.096 0.02362-0.23593 0.06773-0.41993 0.13072-0.176 0.05512-0.30476 0.11387-0.38476 0.17686-0.072 0.06299-0.16339 0.14562-0.27539 0.24799-0.112 0.09449-0.19224 0.201-0.24024 0.31911-0.04 0.11024-0.0791 0.23871-0.11914 0.38832-0.032 0.14961-0.0488 0.31679-0.0488 0.4979 0 0.55906 0.18473 1.0034 0.55273 1.3341 0.376 0.33071 0.87972 0.49597 1.5117 0.49597 0.752 0 1.4628-0.30298 2.1348-0.90928 0.04 0.31496 0.14079 0.54263 0.30079 0.68437 0.168 0.14961 0.41242 0.22492 0.73242 0.22492 0.176 0 0.40359-0.03486 0.68359-0.10573v-0.74588c-0.072 0.01575-0.1448 0.02499-0.2168 0.02499-0.36 0-0.53906-0.1616-0.53906-0.48444v-3.6371c0-0.55118-0.19961-0.96992-0.59961-1.2534-0.4-0.29134-0.98767-0.43638-1.7637-0.43638zm9.7188 0c-0.32 0-0.61472 0.10286-0.88672 0.30758-0.264 0.19685-0.54012 0.52738-0.82812 0.99195v-1.1227h-0.92383v6.1901h1.0078v-3.2142c0-0.81103 0.16791-1.3619 0.50391-1.6532 0.336-0.29134 0.83972-0.4437 1.5117-0.45945v-1.0054c-0.168-0.02362-0.29677-0.03461-0.38477-0.03461zm3.6602 0c-1.632 0-2.4715 0.66837-2.5195 2.007h1.0078c0.04-0.37796 0.17992-0.65339 0.41992-0.82662 0.24-0.1811 0.59264-0.27106 1.0566-0.27106 0.448 0 0.79125 0.07898 1.0312 0.23645 0.248 0.15748 0.37305 0.38515 0.37305 0.68437v0.25952c0 0.20473-0.0765 0.35901-0.22852 0.46137-0.152 0.10236-0.4244 0.17767-0.8164 0.22492-0.288 0.03937-0.48761 0.06691-0.59961 0.08266s-0.28735 0.04329-0.52735 0.08267c-0.24 0.03937-0.40986 0.07423-0.50586 0.10573-0.096 0.02362-0.23592 0.06773-0.41992 0.13072-0.176 0.05512-0.30281 0.11387-0.38281 0.17686-0.072 0.06299-0.16339 0.14562-0.27539 0.24799-0.112 0.09449-0.19224 0.201-0.24024 0.31911-0.04 0.11024-0.0811 0.23871-0.12109 0.38832-0.032 0.14961-0.0469 0.31679-0.0469 0.4979 0 0.55906 0.18278 1.0034 0.55078 1.3341 0.376 0.33071 0.87972 0.49597 1.5117 0.49597 0.752 0 1.4647-0.30298 2.1367-0.90928 0.04 0.31496 0.14079 0.54263 0.30079 0.68437 0.168 0.14961 0.41046 0.22492 0.73046 0.22492 0.176 0 0.40555-0.03486 0.68555-0.10573v-0.74588c-0.072 0.01575-0.1448 0.02499-0.2168 0.02499-0.36 0-0.53906-0.1616-0.53906-0.48444v-3.6371c0-0.55118-0.20156-0.96992-0.60156-1.2534-0.4-0.29134-0.98767-0.43638-1.7637-0.43638zm15.588 0c-1.632 0-2.4715 0.66837-2.5195 2.007h1.0078c0.04-0.37796 0.17992-0.65339 0.41992-0.82662 0.24-0.1811 0.59264-0.27106 1.0566-0.27106 0.448 0 0.79125 0.07898 1.0312 0.23645 0.248 0.15748 0.37305 0.38515 0.37305 0.68437v0.25952c0 0.20473-0.0765 0.35901-0.22852 0.46137-0.152 0.10236-0.4244 0.17767-0.8164 0.22492-0.288 0.03937-0.48761 0.06691-0.59961 0.08266s-0.28735 0.04329-0.52735 0.08267c-0.24 0.03937-0.4079 0.07423-0.5039 0.10573-0.096 0.02362-0.23788 0.06773-0.42188 0.13072-0.176 0.05512-0.30281 0.11387-0.38281 0.17686-0.072 0.06299-0.16339 0.14562-0.27539 0.24799-0.112 0.09449-0.19224 0.201-0.24024 0.31911-0.04 0.11024-0.0811 0.23871-0.12109 0.38832-0.032 0.14961-0.0469 0.31679-0.0469 0.4979 0 0.55906 0.18278 1.0034 0.55078 1.3341 0.376 0.33071 0.87972 0.49597 1.5117 0.49597 0.752 0 1.4647-0.30298 2.1367-0.90928 0.04 0.31496 0.14079 0.54263 0.30079 0.68437 0.168 0.14961 0.41046 0.22492 0.73046 0.22492 0.176 0 0.40555-0.03486 0.68555-0.10573v-0.74588c-0.072 0.01575-0.1448 0.02499-0.2168 0.02499-0.36 0-0.53906-0.1616-0.53906-0.48444v-3.6371c0-0.55118-0.20156-0.96992-0.60156-1.2534-0.4-0.29134-0.98767-0.43638-1.7637-0.43638zm12.217 0c-0.88 0-1.5722 0.29566-2.0762 0.88622-0.504 0.58268-0.75586 1.3924-0.75586 2.4318s0.24814 1.8547 0.74414 2.4453c0.504 0.58268 1.2036 0.87468 2.0996 0.87468 0.88 0 1.5722-0.292 2.0762-0.87468 0.512-0.58268 0.76757-1.3815 0.76757-2.3972 0-1.0709-0.25186-1.8972-0.75586-2.4799-0.496-0.59056-1.1956-0.88622-2.0996-0.88622zm6.8281 0c-0.464 0-0.86145 0.09361-1.1894 0.28259-0.32 0.18898-0.61844 0.5012-0.89844 0.93428v-1.04h-0.92383v6.1901h1.0078v-3.4141c0-0.62992 0.1548-1.135 0.4668-1.5129 0.312-0.38583 0.72433-0.57864 1.2363-0.57864 0.4 0 0.71722 0.11018 0.94922 0.33065s0.34765 0.51614 0.34765 0.88622v4.2888h0.9961v-4.6771c0-0.51181-0.18102-0.92131-0.54102-1.2284s-0.84317-0.46137-1.4512-0.46137zm15.539 0c-0.872 0-1.5716 0.30664-2.0996 0.92082-0.52 0.6063-0.77929 1.418-0.77929 2.4337 0 1.0158 0.25557 1.8182 0.76757 2.4087 0.512 0.58268 1.2079 0.87468 2.0879 0.87468 0.72 0 1.3151-0.18915 1.7871-0.5671s0.77239-0.90495 0.90039-1.5821h-1.0078c-0.28 0.82678-0.82853 1.2399-1.6445 1.2399-0.568 0-1.0158-0.19281-1.3438-0.57864-0.32-0.38583-0.4879-0.90184-0.5039-1.5475h4.6328c0-2.4016-0.93288-3.6025-2.7969-3.6025zm9.6133 0c-0.872 0-1.5736 0.30664-2.1016 0.92082-0.52 0.6063-0.77929 1.418-0.77929 2.4337 0 1.0158 0.25557 1.8182 0.76757 2.4087 0.512 0.58268 1.2079 0.87468 2.0879 0.87468 0.72 0 1.3171-0.18915 1.7891-0.5671s0.77239-0.90495 0.90039-1.5821h-1.0098c-0.28 0.82678-0.82658 1.2399-1.6426 1.2399-0.568 0-1.0158-0.19281-1.3438-0.57864-0.32-0.38583-0.4879-0.90184-0.5039-1.5475h4.6309c0-2.4016-0.93093-3.6025-2.7949-3.6025zm6.3106 0c-0.848 0-1.5271 0.30664-2.0391 0.92082-0.504 0.61418-0.75586 1.4332-0.75586 2.4568 0 1 0.24814 1.7951 0.74414 2.3857 0.504 0.58268 1.1831 0.87468 2.0391 0.87468 0.752 0 1.3528-0.20937 1.8008-0.6267 0.448-0.4252 0.70358-1.0146 0.76758-1.7705h-1.0078c-0.168 0.99213-0.68111 1.4879-1.5371 1.4879-0.552 0-0.98292-0.20937-1.2949-0.6267-0.312-0.41732-0.46875-0.99208-0.46875-1.7244 0-0.77166 0.15303-1.374 0.45703-1.807 0.312-0.44095 0.7392-0.6613 1.2832-0.6613 0.416 0 0.75182 0.1175 1.0078 0.35372 0.256 0.22835 0.41646 0.55888 0.48046 0.99195h1.0078c-0.056-0.73229-0.30414-1.2905-0.74414-1.6763-0.432-0.38583-1.0122-0.57864-1.7402-0.57864zm9.252 0c-0.88 0-1.5722 0.29566-2.0762 0.88622-0.504 0.58268-0.75586 1.3924-0.75586 2.4318s0.24814 1.8547 0.74414 2.4453c0.504 0.58268 1.2056 0.87468 2.1016 0.87468 0.88 0 1.5702-0.292 2.0742-0.87468 0.512-0.58268 0.76953-1.3815 0.76953-2.3972 0-1.0709-0.25186-1.8972-0.75586-2.4799-0.496-0.59056-1.1976-0.88622-2.1016-0.88622zm6.5176 0c-0.32 0-0.61667 0.10286-0.88867 0.30758-0.264 0.19685-0.54012 0.52738-0.82812 0.99195v-1.1227h-0.92383v6.1901h1.0078v-3.2142c0-0.81103 0.16791-1.3619 0.50391-1.6532 0.336-0.29134 0.83972-0.4437 1.5117-0.45945v-1.0054c-0.168-0.02362-0.29482-0.03461-0.38282-0.03461zm-71.174 0.17686v6.1901h0.9961v-6.1901zm12.182 0v6.1901h0.9961v-6.1901zm-101.2 0.73243c0.504 0 0.92005 0.18183 1.248 0.54403 0.328 0.36221 0.49219 0.81023 0.49219 1.3457h-3.5391c0.04-0.57481 0.22278-1.0321 0.55078-1.3707 0.328-0.34646 0.74405-0.51904 1.248-0.51904zm106.14 0c0.568 0 1.0083 0.21669 1.3203 0.64976 0.32 0.43307 0.48047 1.0317 0.48047 1.7955 0 0.72441-0.16419 1.3028-0.49219 1.7359-0.32 0.4252-0.7566 0.63823-1.3086 0.63823-0.56 0-1.0003-0.21303-1.3203-0.63823-0.32-0.43307-0.48047-1.0244-0.48047-1.7724 0-0.74804 0.16047-1.3338 0.48047-1.759 0.32-0.43307 0.76031-0.64976 1.3203-0.64976zm22.344 0c0.504 0 0.92005 0.18183 1.248 0.54403 0.328 0.36221 0.49219 0.81023 0.49219 1.3457h-3.541c0.04-0.57481 0.22474-1.0321 0.55274-1.3707 0.328-0.34646 0.74404-0.51904 1.248-0.51904zm9.6113 0c0.504 0 0.92005 0.18183 1.248 0.54403 0.328 0.36221 0.49219 0.81023 0.49219 1.3457h-3.5391c0.04-0.57481 0.22279-1.0321 0.55079-1.3707 0.328-0.34646 0.74404-0.51904 1.248-0.51904zm15.59 0c0.568 0 1.0064 0.21669 1.3184 0.64976 0.32 0.43307 0.48046 1.0317 0.48046 1.7955 0 0.72441-0.16418 1.3028-0.49218 1.7359-0.32 0.4252-0.75464 0.63823-1.3066 0.63823-0.56 0-1.0003-0.21303-1.3203-0.63823-0.32-0.43307-0.48046-1.0244-0.48046-1.7724 0-0.74804 0.16046-1.3338 0.48046-1.759 0.32-0.43307 0.76032-0.64976 1.3203-0.64976zm-68.834 0.01154c0.536 0 0.96516 0.22035 1.2852 0.6613 0.32 0.43307 0.48047 1.0207 0.48047 1.7609 0 0.71654-0.16047 1.2913-0.48047 1.7244s-0.74349 0.64976-1.2715 0.64976c-0.552 0-0.99603-0.21669-1.332-0.64976-0.336-0.44095-0.5039-1.025-0.5039-1.7494 0-0.71654 0.1679-1.295 0.5039-1.7359 0.336-0.44095 0.77436-0.6613 1.3184-0.6613zm37.045 0c0.536 0 0.96321 0.22035 1.2832 0.6613 0.32 0.43307 0.48047 1.0207 0.48047 1.7609 0 0.71654-0.16047 1.2913-0.48047 1.7244s-0.74349 0.64976-1.2715 0.64976c-0.552 0-0.99603-0.21669-1.332-0.64976-0.336-0.44095-0.50391-1.025-0.50391-1.7494 0-0.71654 0.16791-1.295 0.50391-1.7359 0.336-0.44095 0.77631-0.6613 1.3203-0.6613zm-102.84 1.4649 1.9199 2.3626c-0.624 0.64567-1.2285 0.96888-1.8125 0.96888-0.432 0-0.80323-0.14696-1.1152-0.4383-0.304-0.29922-0.45703-0.65728-0.45703-1.0746 0-0.33071 0.10821-0.63003 0.32421-0.89775 0.216-0.27559 0.59663-0.58223 1.1406-0.92082zm-28.176 0.04806h2.7246c0.504 0 0.89011 0.13772 1.1621 0.41331 0.272 0.26772 0.4082 0.62579 0.4082 1.0746 0 0.23622-0.03914 0.45657-0.11914 0.6613-0.08 0.20473-0.24419 0.39387-0.49219 0.5671-0.248 0.16536-0.56698 0.24799-0.95898 0.24799h-2.7246zm20.088 0.87276v1.1111c0 0.33071-0.17534 0.64101-0.52734 0.93235-0.352 0.28347-0.80542 0.42485-1.3574 0.42485-0.392 0-0.69611-0.08629-0.91211-0.25952-0.216-0.17323-0.32422-0.41746-0.32422-0.73243 0-0.31496 0.12133-0.5592 0.36133-0.73242 0.24-0.1811 0.50674-0.29494 0.80274-0.34218 0.296-0.04724 0.64492-0.10233 1.0449-0.16532 0.408-0.06299 0.71211-0.14196 0.91211-0.23645zm29.58 0v1.1111c0 0.33071-0.17535 0.64101-0.52735 0.93235-0.352 0.28347-0.80542 0.42485-1.3574 0.42485-0.392 0-0.69611-0.08629-0.91211-0.25952-0.216-0.17323-0.32422-0.41746-0.32422-0.73243 0-0.31496 0.12133-0.5592 0.36133-0.73242 0.24-0.1811 0.50673-0.29494 0.80273-0.34218 0.296-0.04724 0.64493-0.10233 1.0449-0.16532 0.408-0.06299 0.71211-0.14196 0.91211-0.23645zm25.764 0v1.1111c0 0.33071-0.17535 0.64101-0.52735 0.93235-0.352 0.28347-0.80542 0.42485-1.3574 0.42485-0.392 0-0.69611-0.08629-0.91211-0.25952-0.216-0.17323-0.32226-0.41746-0.32226-0.73243 0-0.31496 0.11937-0.5592 0.35937-0.73242 0.24-0.1811 0.50869-0.29494 0.80469-0.34218 0.296-0.04724 0.64297-0.10233 1.043-0.16532 0.408-0.06299 0.71211-0.14196 0.91211-0.23645zm13.381 0v1.1111c0 0.33071-0.1773 0.64101-0.5293 0.93235-0.352 0.28347-0.80347 0.42485-1.3555 0.42485-0.392 0-0.69611-0.08629-0.91211-0.25952-0.216-0.17323-0.32422-0.41746-0.32422-0.73243 0-0.31496 0.11938-0.5592 0.35938-0.73242 0.24-0.1811 0.50869-0.29494 0.80469-0.34218 0.296-0.04724 0.64492-0.10233 1.0449-0.16532 0.408-0.06299 0.71211-0.14196 0.91211-0.23645zm15.588 0v1.1111c0 0.33071-0.1773 0.64101-0.5293 0.93235-0.352 0.28347-0.80347 0.42485-1.3555 0.42485-0.392 0-0.69611-0.08629-0.91211-0.25952-0.216-0.17323-0.32422-0.41746-0.32422-0.73243 0-0.31496 0.12133-0.5592 0.36133-0.73242 0.24-0.1811 0.50674-0.29494 0.80274-0.34218 0.296-0.04724 0.64492-0.10233 1.0449-0.16532 0.408-0.06299 0.71211-0.14196 0.91211-0.23645zm-93.889 9.0717c-0.96 0-1.7193 0.22767-2.2793 0.68437-0.552 0.44882-0.82812 1.064-0.82812 1.8436 0 1.0472 0.57084 1.7156 1.7148 2.007l2.1719 0.5671c1.072 0.27559 1.6094 0.74018 1.6094 1.3937 0 0.1811-0.03366 0.35369-0.09766 0.51904-0.056 0.15748-0.15855 0.31908-0.31055 0.48444-0.144 0.16536-0.37159 0.29941-0.68359 0.40178s-0.69262 0.15379-1.1406 0.15379c-0.472 0-0.88061-0.05875-1.2246-0.17686-0.336-0.12598-0.59158-0.29125-0.76758-0.49597-0.168-0.20473-0.29305-0.4141-0.37305-0.6267-0.072-0.2126-0.10742-0.44027-0.10742-0.68437v-0.0596h-1.0547c8e-3 0.47244 0.08256 0.88926 0.22656 1.2515 0.152 0.36221 0.34045 0.65421 0.56445 0.87468 0.224 0.2126 0.49269 0.39076 0.80469 0.5325 0.312 0.13386 0.61611 0.22381 0.91211 0.27106 0.304 0.05512 0.61926 0.08266 0.94726 0.08266 0.52 0 0.98458-0.05875 1.3926-0.17686 0.416-0.11811 0.74809-0.26873 0.99609-0.44984 0.248-0.1811 0.45133-0.38855 0.61133-0.62477 0.16-0.2441 0.26822-0.47735 0.32422-0.69782 0.064-0.22835 0.0957-0.45602 0.0957-0.68437 0-0.52756-0.16419-0.98117-0.49219-1.3591-0.32-0.37796-0.77519-0.64607-1.3672-0.80356l-2.1973-0.57864c-0.528-0.14173-0.89923-0.307-1.1152-0.49597-0.216-0.18898-0.32422-0.44785-0.32422-0.77856 0-0.43307 0.17534-0.78382 0.52734-1.0515 0.36-0.26772 0.83769-0.40178 1.4297-0.40178 0.696 0 1.2314 0.15428 1.6074 0.46137 0.376 0.29921 0.56817 0.72701 0.57617 1.2861h1.0547c-8e-3 -0.84252-0.29156-1.4963-0.85156-1.9608-0.56-0.47244-1.3436-0.70744-2.3516-0.70744zm72.359 0c-0.608 0-1.1546 0.10286-1.6426 0.30758-0.48 0.20473-0.86434 0.4636-1.1523 0.77856-0.28 0.30709-0.51698 0.66882-0.70898 1.0861-0.192 0.41733-0.32449 0.8195-0.39649 1.2053-0.064 0.38583-0.0957 0.7751-0.0957 1.1688 0 0.38583 0.0317 0.76778 0.0957 1.1457 0.072 0.37796 0.20077 0.77647 0.38477 1.1938 0.192 0.40945 0.42898 0.76752 0.70898 1.0746 0.288 0.30709 0.66667 0.5623 1.1387 0.76703 0.48 0.19685 1.0211 0.29605 1.6211 0.29605 2.136 0 3.3356-1.1385 3.5996-3.4141h-1.1524c-0.136 0.83465-0.39529 1.4535-0.77929 1.8551-0.384 0.3937-0.93625 0.59017-1.6562 0.59017-0.872 0-1.5642-0.31396-2.0762-0.94389-0.512-0.6378-0.76757-1.4972-0.76757-2.576 0-1.1024 0.24442-1.9728 0.73242-2.6106 0.496-0.6378 1.1676-0.95542 2.0156-0.95542 0.696 0 1.2314 0.15236 1.6074 0.45945 0.376 0.30709 0.62786 0.76801 0.75586 1.3822h1.1406c-0.344-1.874-1.469-2.8105-3.373-2.8105zm-83.988 0.14226v6.0459c0 0.87402 0.29667 1.5682 0.88867 2.08 0.6 0.50394 1.4209 0.7555 2.4609 0.7555 1.024 0 1.8393-0.25714 2.4473-0.76895 0.616-0.51181 0.92383-1.2004 0.92383-2.0666v-6.0459h-1.1152v6.0459c0 0.58268-0.20156 1.0399-0.60156 1.3707-0.4 0.33071-0.9503 0.49597-1.6543 0.49597-0.68 0-1.2248-0.15428-1.6328-0.46137-0.4-0.31496-0.59961-0.78321-0.59961-1.4053v-6.0459zm16.645 0v8.6103h3.9492c0.776 0 1.3991-0.22593 1.8711-0.67476 0.472-0.44882 0.70703-1.0419 0.70703-1.782 0-0.51969-0.12681-0.94575-0.38281-1.2765-0.248-0.33071-0.65289-0.60249-1.2129-0.81509 0.808-0.37008 1.2129-0.99627 1.2129-1.8782 0-0.2441-0.04109-0.47909-0.12109-0.70744-0.08-0.23622-0.21053-0.46948-0.39453-0.69782-0.176-0.23622-0.44469-0.42537-0.80469-0.5671s-0.78348-0.21146-1.2715-0.21146zm33.049 0v0.96696h2.8789v7.6434h1.1172v-7.6434h2.8672v-0.96696zm88.656 0v8.6103h3.9473c0.776 0 1.3991-0.22593 1.8711-0.67476 0.472-0.44882 0.70898-1.0419 0.70898-1.782 0-0.51969-0.12876-0.94575-0.38476-1.2765-0.248-0.33071-0.65094-0.60249-1.2109-0.81509 0.808-0.37008 1.2109-0.99627 1.2109-1.8782 0-0.2441-0.0391-0.47909-0.11914-0.70744-0.08-0.23622-0.21249-0.46948-0.39649-0.69782-0.176-0.23622-0.44468-0.42537-0.80468-0.5671s-0.78349-0.21146-1.2715-0.21146zm24.719 0v3.2008c-0.424-0.6378-1.0676-0.95734-1.9316-0.95734-0.816 0-1.4728 0.29932-1.9688 0.89775-0.488 0.59055-0.73047 1.3783-0.73047 2.3626 0 1.0472 0.24247 1.8736 0.73047 2.4799 0.488 0.59843 1.1559 0.89775 2.0039 0.89775 0.432 0 0.80518-0.08629 1.1172-0.25952 0.32-0.16536 0.61668-0.44079 0.88868-0.82662v0.81509h0.88671v-8.6103zm-133.01 0.23453c-1.816 0-2.7526 0.96962-2.8086 2.9066h1.0566c0.08-1.3307 0.6528-1.9954 1.7168-1.9954 0.48 0 0.87922 0.1487 1.1992 0.44791s0.48047 0.67385 0.48047 1.1227c0 0.6693-0.38435 1.2202-1.1523 1.6532l-1.1035 0.61324c-0.888 0.49607-1.4962 0.99744-1.8242 1.5014-0.328 0.49607-0.51645 1.2049-0.56445 2.1262h5.6641v-1.0285h-4.4766c0.056-0.35433 0.19592-0.66098 0.41992-0.92082s0.59719-0.52796 1.1172-0.80355l1.1992-0.63823c1.2-0.64567 1.8008-1.4886 1.8008-2.5279 0-0.72441-0.25186-1.3138-0.75586-1.7705-0.504-0.4567-1.1608-0.68629-1.9687-0.68629zm9.5645 0c-0.264 0-0.51586 0.03313-0.75587 0.09612-0.232 0.06299-0.47642 0.18781-0.73242 0.37679-0.256 0.18898-0.47616 0.43687-0.66016 0.74396-0.184 0.29922-0.33508 0.71796-0.45508 1.2534s-0.17968 1.1524-0.17968 1.8532c0 1.4095 0.23503 2.4837 0.70703 3.2238 0.472 0.73229 1.1642 1.0996 2.0762 1.0996 0.904 0 1.5924-0.36173 2.0644-1.0861 0.48-0.73229 0.71875-1.7882 0.71875-3.1662 0-2.9292-0.9272-4.3946-2.7832-4.3946zm58.199 0c-0.184 0.64567-0.39849 1.0608-0.64649 1.2419-0.248 0.1811-0.78165 0.32248-1.5976 0.42484v0.74396h1.8848v5.9651h1.0566v-8.3758zm6.6719 0c-0.184 0.64567-0.39848 1.0608-0.64648 1.2419-0.248 0.1811-0.78166 0.32248-1.5977 0.42484v0.74396h1.8848v5.9651h1.0566v-8.3758zm4.5254 0-0.63671 4.5599h0.97265c0.248-0.29134 0.48675-0.49147 0.71875-0.6017 0.232-0.11811 0.51185-0.17686 0.83985-0.17686 0.568 0 1.0214 0.1799 1.3574 0.54211 0.336 0.35433 0.5039 0.8428 0.5039 1.4649 0 0.59843-0.1679 1.0703-0.5039 1.4168-0.328 0.34646-0.78142 0.52096-1.3574 0.52096-0.912 0-1.4903-0.47017-1.7383-1.4072h-1.0566c0.024 0.13386 0.0446 0.23671 0.0606 0.30758 0.016 0.07087 0.0551 0.20126 0.11914 0.39024 0.072 0.1811 0.1448 0.33539 0.2168 0.46137 0.08 0.11811 0.19194 0.25949 0.33594 0.42485 0.152 0.15748 0.31618 0.28788 0.49218 0.39024 0.184 0.09449 0.4116 0.17712 0.6836 0.24799 0.28 0.07087 0.58411 0.10573 0.91211 0.10573 0.856 0 1.5556-0.2791 2.0996-0.83816 0.544-0.55906 0.8164-1.2808 0.8164-2.1627 0-0.82678-0.25753-1.4951-0.76953-2.007-0.504-0.51969-1.1625-0.78049-1.9785-0.78049-0.576 0-1.1003 0.16892-1.5723 0.50751l0.33594-2.3376h3.5391v-1.0285zm8.7598 0c-1.816 0-2.7526 0.96962-2.8086 2.9066h1.0566c0.08-1.3307 0.65084-1.9954 1.7148-1.9954 0.48 0 0.88117 0.1487 1.2012 0.44791s0.48047 0.67385 0.48047 1.1227c0 0.6693-0.38434 1.2202-1.1523 1.6532l-1.1055 0.61324c-0.888 0.49607-1.4943 0.99744-1.8223 1.5014-0.328 0.49607-0.51645 1.2049-0.56445 2.1262h5.6641v-1.0285h-4.4766c0.056-0.35433 0.19592-0.66098 0.41992-0.92082s0.59524-0.52796 1.1152-0.80355l1.2012-0.63823c1.2-0.64567 1.7988-1.4886 1.7988-2.5279 0-0.72441-0.25186-1.3138-0.75586-1.7705-0.504-0.4567-1.1588-0.68629-1.9668-0.68629zm6.5644 0c-0.264 0-0.51781 0.03313-0.75781 0.09612-0.232 0.06299-0.47447 0.18781-0.73047 0.37679-0.256 0.18898-0.47615 0.43687-0.66015 0.74396-0.184 0.29922-0.33703 0.71796-0.45703 1.2534s-0.17969 1.1524-0.17969 1.8532c0 1.4095 0.23698 2.4837 0.70898 3.2238 0.472 0.73229 1.1642 1.0996 2.0762 1.0996 0.904 0 1.5905-0.36173 2.0625-1.0861 0.48-0.73229 0.72071-1.7882 0.72071-3.1662 0-2.9292-0.92721-4.3946-2.7832-4.3946zm6.6719 0c-0.264 0-0.51586 0.03313-0.75586 0.09612-0.232 0.06299-0.47642 0.18781-0.73242 0.37679-0.256 0.18898-0.47616 0.43687-0.66016 0.74396-0.184 0.29922-0.33703 0.71796-0.45703 1.2534s-0.17969 1.1524-0.17969 1.8532c0 1.4095 0.23699 2.4837 0.70899 3.2238 0.472 0.73229 1.1642 1.0996 2.0762 1.0996 0.904 0 1.5905-0.36173 2.0625-1.0861 0.48-0.73229 0.7207-1.7882 0.7207-3.1662 0-2.9292-0.9272-4.3946-2.7832-4.3946zm-113.26 0.73242h2.1582c1.168 0 1.752 0.45726 1.752 1.3707s-0.58395 1.3707-1.752 1.3707h-2.1582zm121.7 0h2.1602c1.168 0 1.752 0.45726 1.752 1.3707s-0.58395 1.3707-1.752 1.3707h-2.1602zm-99.84 0.19032c1.136 0 1.7031 1.1256 1.7031 3.3776 0 1.189-0.13992 2.0667-0.41992 2.6337-0.28 0.56693-0.71464 0.84969-1.3066 0.84969-1.12 0-1.6816-1.1495-1.6816-3.4487 0-2.2756 0.56908-3.4122 1.7051-3.4122zm84.721 0c1.136 0 1.7031 1.1256 1.7031 3.3776 0 1.189-0.13992 2.0667-0.41992 2.6337-0.28 0.56693-0.7166 0.84969-1.3086 0.84969-1.12 0-1.6797-1.1495-1.6797-3.4487 0-2.2756 0.56907-3.4122 1.7051-3.4122zm6.6719 0c1.136 0 1.7031 1.1256 1.7031 3.3776 0 1.189-0.13992 2.0667-0.41992 2.6337-0.28 0.56693-0.71659 0.84969-1.3086 0.84969-1.12 0-1.6797-1.1495-1.6797-3.4487 0-2.2756 0.56908-3.4122 1.7051-3.4122zm-64.957 1.0861c-0.864 0-1.5319 0.36905-2.0039 1.1092v-0.93235h-0.92383v8.7641h1.0078v-3.2238c0.512 0.61418 1.1556 0.92082 1.9316 0.92082 0.808 0 1.4573-0.29566 1.9453-0.88622 0.496-0.59843 0.74414-1.3899 0.74414-2.3741 0-1.0394-0.24442-1.862-0.73242-2.4683-0.48-0.6063-1.1368-0.90928-1.9688-0.90928zm6.3008 0c-0.872 0-1.5716 0.30664-2.0996 0.92082-0.52 0.6063-0.78125 1.418-0.78125 2.4337s0.25558 1.8182 0.76758 2.4087c0.512 0.58268 1.2079 0.87468 2.0879 0.87468 0.72 0 1.3171-0.18915 1.7891-0.5671s0.77239-0.90495 0.90039-1.5821h-1.0078c-0.28 0.82678-0.82853 1.2399-1.6445 1.2399-0.568 0-1.0158-0.19281-1.3438-0.57864-0.32-0.38583-0.48791-0.90184-0.50391-1.5475h4.6309c0-2.4016-0.93092-3.6025-2.7949-3.6025zm76.092 0c-1.632 0-2.4715 0.66837-2.5195 2.007h1.0078c0.04-0.37796 0.17992-0.65339 0.41992-0.82662 0.24-0.1811 0.59069-0.27106 1.0547-0.27106 0.448 0 0.7932 0.07897 1.0332 0.23645 0.248 0.15748 0.37109 0.38515 0.37109 0.68437v0.25952c0 0.20472-0.0746 0.35901-0.22656 0.46137-0.152 0.10236-0.4244 0.17767-0.8164 0.22492-0.288 0.03937-0.48761 0.06691-0.59961 0.08266s-0.2893 0.04329-0.5293 0.08266-0.40791 0.07423-0.50391 0.10573c-0.096 0.02362-0.23592 0.06773-0.41992 0.13072-0.176 0.05512-0.30281 0.11387-0.38281 0.17686-0.072 0.06299-0.16535 0.14562-0.27735 0.24799-0.112 0.09449-0.19223 0.201-0.24023 0.31912-0.04 0.11024-0.0791 0.23871-0.11914 0.38832-0.032 0.14961-0.0488 0.31679-0.0488 0.4979 0 0.55906 0.18474 1.0034 0.55274 1.3341 0.376 0.33071 0.87971 0.49597 1.5117 0.49597 0.752 0 1.4647-0.30298 2.1367-0.90928 0.04 0.31496 0.13883 0.54263 0.29883 0.68437 0.168 0.14961 0.41242 0.22492 0.73242 0.22492 0.176 0 0.4036-0.03486 0.6836-0.10573v-0.74588c-0.072 0.01575-0.14285 0.02499-0.21485 0.02499-0.36 0-0.54101-0.1616-0.54101-0.48444v-3.6371c0-0.55118-0.19961-0.96992-0.59961-1.2534-0.4-0.29134-0.98767-0.43638-1.7637-0.43638zm-91.537 0.17686 2.125 6.2131-0.38477 0.98041c-0.088 0.22047-0.19055 0.37283-0.31055 0.45945-0.12 0.09449-0.28418 0.14226-0.49218 0.14226-0.136 0-0.3133-0.02389-0.5293-0.07113v0.88622c0.2 0.10236 0.42387 0.15379 0.67187 0.15379 0.752 0 1.2931-0.42606 1.6211-1.2765l2.7949-7.4877h-1.0801l-1.7383 4.8194-1.6094-4.8194zm95.557 0v4.7713c0 0.51181 0.18101 0.92131 0.54101 1.2284 0.368 0.30709 0.85489 0.46137 1.4629 0.46137 0.464 0 0.85579-0.08629 1.1758-0.25952 0.32-0.17323 0.62782-0.46523 0.92382-0.87468v0.86315h0.90039v-6.1901h-0.99609v3.5083c0 0.62992-0.1548 1.1367-0.4668 1.5225-0.312 0.37796-0.72804 0.5671-1.248 0.5671-0.4 0-0.71722-0.11018-0.94922-0.33065-0.232-0.22047-0.34766-0.51614-0.34766-0.88622v-4.3811zm-80.123 0.73243c0.504 0 0.92005 0.18183 1.248 0.54403s0.49023 0.81023 0.49023 1.3457h-3.5391c0.04-0.57481 0.22473-1.0321 0.55273-1.3707 0.328-0.34646 0.74405-0.51904 1.248-0.51904zm-6.457 0.01154c0.552 0 0.99231 0.22035 1.3203 0.6613 0.336 0.44095 0.50391 1.0323 0.50391 1.7724 0 0.70079-0.16791 1.2719-0.50391 1.7128-0.336 0.43307-0.77631 0.64976-1.3203 0.64976-0.528 0-0.95149-0.21669-1.2715-0.64976-0.32-0.44095-0.48047-1.025-0.48047-1.7494 0-0.72441 0.16047-1.3028 0.48047-1.7359 0.32-0.44095 0.74349-0.6613 1.2715-0.6613zm95.412 0c0.536 0 0.9632 0.22035 1.2832 0.6613 0.32 0.43307 0.48047 1.0207 0.48047 1.7609 0 0.71654-0.16047 1.2913-0.48047 1.7244-0.32 0.43307-0.74348 0.64976-1.2715 0.64976-0.552 0-0.99603-0.21669-1.332-0.64976-0.336-0.44095-0.50391-1.025-0.50391-1.7494 0-0.71654 0.16791-1.295 0.50391-1.7359 0.336-0.44095 0.77631-0.6613 1.3203-0.6613zm-143.54 1.5129h2.7227c0.504 0 0.89206 0.13772 1.1641 0.41331 0.272 0.26772 0.4082 0.62579 0.4082 1.0746 0 0.23622-0.03914 0.45657-0.11914 0.6613-0.08 0.20473-0.24419 0.39387-0.49219 0.5671-0.248 0.16536-0.56894 0.24799-0.96094 0.24799h-2.7227zm121.7 0h2.7246c0.504 0 0.89207 0.13772 1.1641 0.41331 0.272 0.26772 0.4082 0.62579 0.4082 1.0746 0 0.23622-0.0411 0.45657-0.12109 0.6613-0.08 0.20473-0.24419 0.39387-0.49219 0.5671-0.248 0.16536-0.56699 0.24799-0.95899 0.24799h-2.7246zm-63.396 0.24799v0.84969h2.8926v-0.84969zm73.752 0.62477v1.1111c0 0.33071-0.17534 0.64101-0.52734 0.93235-0.352 0.28347-0.80347 0.42484-1.3555 0.42484-0.392 0-0.69611-0.08629-0.91211-0.25952-0.216-0.17323-0.32422-0.41746-0.32422-0.73242 0-0.31496 0.11938-0.5592 0.35938-0.73243 0.24-0.1811 0.50869-0.29494 0.80469-0.34218 0.296-0.04724 0.64296-0.10233 1.043-0.16532 0.408-0.06299 0.71211-0.14196 0.91211-0.23645zm-115.54 1.832v1.2284h1.248v-1.2284zm9.7559 0v1.2284h0.63672v0.21146c0 0.40158-0.0485 0.67702-0.14453 0.82662-0.096 0.14961-0.26019 0.23224-0.49219 0.24799v0.44984c0.84 0 1.2598-0.51601 1.2598-1.5475v-1.4168zm45.023 0v1.2284h0.63672v0.21146c0 0.40158-0.0485 0.67702-0.14453 0.82662-0.096 0.14961-0.26019 0.23224-0.49219 0.24799v0.44984c0.84 0 1.2598-0.51601 1.2598-1.5475v-1.4168zm-83.172 7.3819 3.1445 8.6103h1.1992l3.0371-8.6103h-1.1895l-2.4238 7.2858-2.5664-7.2858zm46.957 0-3.1211 8.6103h1.1875l0.92578-2.5875h3.3711l0.90039 2.5875h1.248l-3.0723-8.6103zm-52.488 0.23453-0.63672 4.5599h0.97266c0.248-0.29134 0.48675-0.49147 0.71875-0.6017 0.232-0.11811 0.5138-0.17686 0.8418-0.17686 0.568 0 1.0195 0.1799 1.3555 0.54211 0.336 0.35433 0.50391 0.8428 0.50391 1.4649 0 0.59843-0.16791 1.0703-0.50391 1.4168-0.328 0.34646-0.77947 0.52096-1.3555 0.52096-0.912 0-1.4922-0.47017-1.7402-1.4072h-1.0566c0.024 0.13386 0.04455 0.23671 0.06055 0.30758 0.016 0.07087 0.05514 0.20127 0.11914 0.39024 0.072 0.1811 0.1448 0.33538 0.2168 0.46137 0.08 0.11811 0.19194 0.25949 0.33594 0.42484 0.152 0.15748 0.31619 0.28788 0.49219 0.39024 0.184 0.09449 0.41159 0.17712 0.68359 0.24799 0.28 0.07087 0.58411 0.10573 0.91211 0.10573 0.856 0 1.5556-0.2791 2.0996-0.83816s0.81641-1.2808 0.81641-2.1627c0-0.82678-0.25558-1.4951-0.76758-2.007-0.504-0.51969-1.1645-0.78048-1.9805-0.78048-0.576 0-1.1003 0.16892-1.5723 0.50751l0.33594-2.3376h3.5391v-1.0285zm20.748 0-0.63672 4.5599h0.97266c0.248-0.29134 0.48675-0.49147 0.71875-0.6017 0.232-0.11811 0.51184-0.17686 0.83984-0.17686 0.568 0 1.0214 0.1799 1.3574 0.54211 0.336 0.35433 0.50391 0.8428 0.50391 1.4649 0 0.59843-0.16791 1.0703-0.50391 1.4168-0.328 0.34646-0.78142 0.52096-1.3574 0.52096-0.912 0-1.4903-0.47017-1.7383-1.4072h-1.0566c0.024 0.13386 0.04455 0.23671 0.06055 0.30758 0.016 0.07087 0.05514 0.20127 0.11914 0.39024 0.072 0.1811 0.1448 0.33538 0.2168 0.46137 0.08 0.11811 0.19194 0.25949 0.33594 0.42484 0.152 0.15748 0.31619 0.28788 0.49219 0.39024 0.184 0.09449 0.41159 0.17712 0.68359 0.24799 0.28 0.07087 0.58411 0.10573 0.91211 0.10573 0.856 0 1.5556-0.2791 2.0996-0.83816s0.81641-1.2808 0.81641-2.1627c0-0.82678-0.25558-1.4951-0.76758-2.007-0.504-0.51969-1.1645-0.78048-1.9805-0.78048-0.576 0-1.1003 0.16892-1.5723 0.50751l0.33594-2.3376h3.5391v-1.0285zm8.6523 0c-0.264 0-0.51781 0.03313-0.75781 0.09612-0.232 0.06299-0.47447 0.18781-0.73047 0.37679-0.256 0.18898-0.47616 0.43687-0.66016 0.74396-0.184 0.29921-0.33703 0.71795-0.45703 1.2534-0.12 0.53544-0.17969 1.1524-0.17969 1.8532 0 1.4095 0.23699 2.4837 0.70899 3.2238 0.472 0.73229 1.1642 1.0996 2.0762 1.0996 0.904 0 1.5905-0.36173 2.0625-1.0861 0.48-0.73229 0.7207-1.7882 0.7207-3.1662 0-2.9292-0.9272-4.3946-2.7832-4.3946zm6.6719 0c-0.264 0-0.51586 0.03313-0.75586 0.09612-0.232 0.06299-0.47642 0.18781-0.73242 0.37679-0.256 0.18898-0.47615 0.43687-0.66015 0.74396-0.184 0.29921-0.33704 0.71795-0.45704 1.2534-0.12 0.53544-0.17968 1.1524-0.17968 1.8532 0 1.4095 0.23698 2.4837 0.70898 3.2238 0.472 0.73229 1.1642 1.0996 2.0762 1.0996 0.904 0 1.5905-0.36173 2.0625-1.0861 0.48-0.73229 0.72072-1.7882 0.72072-3.1662 0-2.9292-0.92722-4.3946-2.7832-4.3946zm-6.6719 0.92274c1.136 0 1.7031 1.1256 1.7031 3.3776 0 1.189-0.13992 2.0667-0.41992 2.6337-0.28 0.56693-0.71659 0.84969-1.3086 0.84969-1.12 0-1.6797-1.1495-1.6797-3.4487 0-2.2756 0.56908-3.4122 1.7051-3.4122zm6.6719 0c1.136 0 1.7031 1.1256 1.7031 3.3776 0 1.189-0.13992 2.0667-0.41992 2.6337s-0.7166 0.84969-1.3086 0.84969c-1.12 0-1.6797-1.1495-1.6797-3.4487 0-2.2756 0.56908-3.4122 1.7051-3.4122zm17.123 0.02307 1.3438 3.9217h-2.7832zm-10.176 1.0631c-0.416 0-0.77608 0.08263-1.0801 0.24799-0.296 0.16536-0.57956 0.43347-0.85156 0.80355v-0.87468h-0.92383v6.1901h1.0078v-3.887c0-0.44882 0.14364-0.83077 0.43164-1.1457 0.288-0.31496 0.63692-0.4729 1.0449-0.4729 0.368 0 0.65157 0.11018 0.85157 0.33065 0.208 0.2126 0.31054 0.5175 0.31054 0.91121v4.2638h1.0098v-3.887c0-0.44882 0.14364-0.83077 0.43164-1.1457 0.288-0.31496 0.63497-0.4729 1.043-0.4729 0.368 0 0.65351 0.11018 0.85351 0.33065 0.208 0.2126 0.31055 0.5175 0.31055 0.91121v4.2638h1.0078v-4.6425c0-0.55906-0.15851-0.98512-0.47851-1.2765-0.312-0.29921-0.7617-0.44791-1.3457-0.44791-0.416 0-0.76669 0.07165-1.0547 0.21338-0.288 0.14173-0.58096 0.38404-0.87696 0.7305-0.352-0.62992-0.9154-0.94389-1.6914-0.94389zm-28.885 5.1385v1.2284h0.63672v0.21146c0 0.40158-0.04853 0.67702-0.14453 0.82662-0.096 0.14961-0.26019 0.23224-0.49219 0.24799v0.44984c0.84 0 1.2617-0.51601 1.2617-1.5475v-1.4168z"/></svg>