<svg width="40mm" height="60mm" version="1.1" viewBox="0 0 151.18 226.77" xmlns="http://www.w3.org/2000/svg"><path fill="#ffd500" d="m0.94488 0.94488h149.29v224.88h-149.29z"/><path fill="#000" d="m0 0v226.77h151.18v-226.77zm1.8906 1.8906h147.4v222.99h-147.4z"/><path fill="#000" d="m74.596 59.137c-1.3278 0.09295-2.6359 0.3709-3.8867 0.82617-3.1545 1.1472-5.8055 3.3707-7.4844 6.2773l-23.096 40.008-23.098 40.004c-5.4038 9.3618 1.5558 21.417 12.365 21.418h92.391c10.808-3e-3 17.766-12.057 12.363-21.418l-23.098-40.004-23.096-40.008c-2.7255-4.7198-7.9244-7.4833-13.361-7.1035zm0.52734 7.541c2.571-0.17959 4.9983 1.1099 6.2871 3.3418l46.193 80.012c2.6765 4.6368-0.46452 10.079-5.8184 10.08h-92.389c-5.3545-3.4e-4 -8.4952-5.4426-5.8184-10.08h-2e-3l23.1-40.004 23.094-40.006 2e-3 -2e-3c0.79079-1.3678 2.0366-2.4131 3.5215-2.9531 0.58866-0.21427 1.2052-0.34493 1.8301-0.38867z"/><path fill="#000" d="m78.24 176.93c-1.7597 0-3.2438 0.61186-4.3574 1.8164-1.1137 1.2046-1.668 2.7859-1.668 4.6719 0 1.8435 0.54298 3.4128 1.6309 4.6367h2e-3c1.0985 1.2231 2.5306 1.8535 4.2012 1.8535 0.837 0 1.5748-0.15804 2.1953-0.49219 0.40741-0.21937 0.73396-0.64062 1.0781-1.0176l0.2207 1.1738h2.1309v-7.0586h-5.4277v2.7559h2.5332c-0.05034 0.18765-0.07651 0.39405-0.16406 0.55469-0.16195 0.2858-0.33857 0.49431-0.52539 0.63867-0.20658 0.15963-0.43075 0.29202-0.67578 0.39648-0.26144 0.10034-0.483 0.16849-0.65625 0.20508h-2e-3c-0.16851 0.0273-0.31746 0.041-0.43555 0.041-0.87099 0-1.5385-0.31936-2.1074-1.0137-0.55752-0.69314-0.8418-1.5768-0.8418-2.7051 0-1.201 0.27133-2.0924 0.7793-2.7227 0.51868-0.63063 1.1821-0.93164 2.1055-0.93164 1.3193 0 2.0429 0.49143 2.4277 1.6172l0.08789 0.25586h2.9531l-0.05273-0.42578c-0.1597-1.289-0.74531-2.3533-1.7266-3.1152-0.98152-0.76213-2.2341-1.1348-3.7051-1.1348zm-21.449 0.22265v12.42h3.1563v-5.2949h3.8672v5.2949h3.1562v-12.42h-3.1719v4.3691h-3.8516v-4.3691zm11.824 0v12.42h3.1562v-12.42zm16.064 0v12.42h3.1543v-5.2949h3.8691v5.2949h3.1562v-12.42h-3.1719v4.3691h-3.8535v-4.3691zm11.801 19.777c-1.7597 0-3.2438 0.61186-4.3574 1.8164-1.1137 1.2046-1.668 2.7859-1.668 4.6719 0 1.8435 0.54298 3.4128 1.6309 4.6367h2e-3c1.0985 1.2231 2.5306 1.8535 4.2012 1.8535 0.837 0 1.5748-0.15804 2.1953-0.49219 0.40766-0.21951 0.73378-0.64029 1.0781-1.0176l0.2207 1.1738h2.1309v-7.0586h-5.4277v2.7559h2.5332c-0.05034 0.18765-0.07651 0.39405-0.16406 0.55469-0.16195 0.2858-0.33857 0.49431-0.52539 0.63867-0.20658 0.15963-0.4327 0.29202-0.67773 0.39648-0.26144 0.10034-0.483 0.16849-0.65625 0.20508h-2e-3c-0.16848 0.0273-0.31552 0.041-0.43359 0.041-0.87099 0-1.5385-0.31935-2.1074-1.0137-0.55752-0.69314-0.8418-1.5768-0.8418-2.7051 0-1.201 0.27133-2.0924 0.7793-2.7227 0.51868-0.63063 1.1821-0.93164 2.1055-0.93164 1.3193 0 2.0429 0.49143 2.4277 1.6172l0.08594 0.25586h2.9551l-0.0527-0.42578c-0.1597-1.289-0.74726-2.3533-1.7285-3.1152-0.98153-0.76213-2.2321-1.1348-3.7031-1.1348zm-41.359 0.0312c-1.7605 0-3.2409 0.61942-4.3438 1.8359h-2e-3v2e-3c-1.0897 1.2145-1.6328 2.7884-1.6328 4.6523 0 1.864 0.54315 3.4378 1.6328 4.6523 1.0933 1.2185 2.5805 1.8379 4.3613 1.8379 1.7909 0 3.28-0.61972 4.3633-1.8398 1.0863-1.2221 1.6309-2.7676 1.6309-4.5703 0-1.9256-0.54696-3.5279-1.6504-4.7344-1.1032-1.217-2.5887-1.8359-4.3594-1.8359zm-16.254 0.1914 4.1895 12.42h2.5742l4.2598-12.42h-3.2305l-2.2637 7.8125-2.3047-7.8125zm22.947 0v12.42h8.7402v-2.7559h-5.584v-9.6641zm8.4648 0v2.7559h3.5352v9.6641h3.1563v-9.6641h3.4082v-2.7559zm13.439 0-4.4141 12.42h3.2559l0.78516-2.3516h3.8203l0.76953 2.3516h3.2676l-4.293-12.42zm19.119 0v12.42h9.4766v-2.7559h-6.3203v-2.2676h5.584v-2.7559h-5.584v-1.8848h6.0332v-2.7559zm-47.701 2.6133c0.88548 0 1.5245 0.30819 2.0371 0.97266l2e-3 2e-3c0.52292 0.66554 0.79883 1.5754 0.79883 2.7754 0 1.1317-0.27627 1.9979-0.81055 2.6562l-2e-3 2e-3v2e-3c-0.52404 0.65743-1.162 0.96094-2.0254 0.96094-0.87409 0-1.5161-0.30407-2.0391-0.95899-0.52454-0.66761-0.79883-1.5601-0.79883-2.7266 0-1.1664 0.274-2.053 0.79688-2.709h2e-3v-2e-3c0.5241-0.66704 1.1653-0.97461 2.0391-0.97461zm30.129 1.7129 0.99414 2.9863h-1.9902z"/><path fill="#000" d="m45.527 35.315v3.808h-5.824v5.824h-3.808v-5.824h-5.824v-3.808h5.824v-5.824h3.808v5.824zm18.336 0.576v3.712h-2.368v5.024h-4.48v-5.024h-9.088v-3.776l8.288-13.888h5.28v13.952zm-6.848 0v-9.696l-5.92 9.696zm20.512 8.576q-1.568 0.896-3.84 0.896t-3.84-0.896q-1.568-0.928-2.432-2.624-0.832-1.696-1.184-3.712-0.352-2.048-0.352-4.704 0-5.792 1.76-8.864 1.76-3.104 6.048-3.104 2.24 0 3.776 0.864 1.568 0.832 2.432 2.496t1.216 3.776q0.384 2.112 0.384 4.96 0 2.56-0.352 4.576-0.352 1.984-1.184 3.712-0.832 1.696-2.432 2.624zm-0.512-11.008q0-4.64-0.864-6.496-0.832-1.888-2.464-1.888-1.792 0-2.56 1.824-0.768 1.792-0.768 6.496 0 3.264 0.416 5.12 0.416 1.824 1.088 2.432 0.704 0.576 1.824 0.576 1.088 0 1.76-0.576 0.704-0.576 1.12-2.4 0.448-1.856 0.448-5.088zm18.304 11.008q-1.568 0.896-3.84 0.896t-3.84-0.896q-1.568-0.928-2.432-2.624-0.832-1.696-1.184-3.712-0.352-2.048-0.352-4.704 0-5.792 1.76-8.864 1.76-3.104 6.048-3.104 2.24 0 3.776 0.864 1.568 0.832 2.432 2.496t1.216 3.776q0.384 2.112 0.384 4.96 0 2.56-0.352 4.576-0.352 1.984-1.184 3.712-0.832 1.696-2.432 2.624zm-0.512-11.008q0-4.64-0.864-6.496-0.832-1.888-2.464-1.888-1.792 0-2.56 1.824-0.768 1.792-0.768 6.496 0 3.264 0.416 5.12 0.416 1.824 1.088 2.432 0.704 0.576 1.824 0.576 1.088 0 1.76-0.576 0.704-0.576 1.12-2.4 0.448-1.856 0.448-5.088zm18.304 11.168h-4.064l-7.872-23.328h4.832l5.184 17.568 5.088-17.568h4.832z"/><path fill="#000" d="m88.339 102.06a1.62 1.62 0 0 0-0.8117 0.3486l-25.917 21.058a1.62 1.62 0 0 0 0.5582 2.8095l8.1429 2.4304-9.0938 16.285a1.62 1.62 0 0 0 2.4357 2.047l25.917-21.058a1.62 1.62 0 0 0-0.5582-2.8095l-8.1429-2.4304 9.0938-16.285a1.62 1.62 0 0 0-1.624-2.3956z"/></svg>