<svg width="240" height="320" version="1.1" viewBox="0 0 240 320" xmlns="http://www.w3.org/2000/svg" xmlns:xlink="http://www.w3.org/1999/xlink"><defs><linearGradient id="c" x1="77" x2="77" y1="154" y2="151" gradientTransform="translate(-19.5,106)" gradientUnits="userSpaceOnUse" xlink:href="#a"/><linearGradient id="a"><stop stop-color="#fff" offset="0"/><stop stop-color="#fff" stop-opacity="0" offset="1"/></linearGradient><linearGradient id="b" x1="77" x2="77" y1="154" y2="151" gradientTransform="translate(-13.5,106)" gradientUnits="userSpaceOnUse" xlink:href="#a"/><filter id="k" x="-.108" y="-.108" width="1.216" height="1.216" color-interpolation-filters="sRGB"><feGaussianBlur stdDeviation="0.9"/></filter><filter id="j" x="-.108" y="-.108" width="1.216" height="1.216" color-interpolation-filters="sRGB"><feGaussianBlur stdDeviation="0.9"/></filter><filter id="i" x="-.108" y="-.108" width="1.216" height="1.216" color-interpolation-filters="sRGB"><feGaussianBlur stdDeviation="0.9"/></filter><filter id="h" x="-.108" y="-.108" width="1.216" height="1.216" color-interpolation-filters="sRGB"><feGaussianBlur stdDeviation="0.9"/></filter><filter id="g" x="-.108" y="-.108" width="1.216" height="1.216" color-interpolation-filters="sRGB"><feGaussianBlur stdDeviation="0.9"/></filter><filter id="f" x="-.108" y="-.108" width="1.216" height="1.216" color-interpolation-filters="sRGB"><feGaussianBlur stdDeviation="0.9"/></filter><filter id="e" x="-.108" y="-.108" width="1.216" height="1.216" color-interpolation-filters="sRGB"><feGaussianBlur stdDeviation="0.9"/></filter><filter id="d" x="-.108" y="-.108" width="1.216" height="1.216" color-interpolation-filters="sRGB"><feGaussianBlur stdDeviation="0.9"/></filter></defs><rect x=".5" y=".5" width="239" height="319" stroke="#fff" stroke-linecap="round"/><rect x=".5" y=".5" width="239" height="29" fill="#282830" stroke="#fff" stroke-linecap="round"/><rect x="2" y="2" width="51" height="26" fill="#585860"/><path d="m31.088 10.227a0.53132 0.53132 0 0 0-0.17341 0.0631l-7.3611 4.25a0.53132 0.53132 0 0 0 0 0.92009l7.3611 4.25a0.53132 0.53132 0 0 0 0.79688-0.46006v-8.5a0.53132 0.53132 0 0 0-0.43898-0.52315 0.53132 0.53132 0 0 0-0.1845 0z" fill="#fff"/><rect x="2" y="215" width="117" height="51" fill="#282830"/><rect x="2" y="267" width="117" height="51" fill="#282830"/><rect x="120" y="215" width="118" height="51" fill="#282830"/><rect x="120" y="267" width="118" height="51" fill="#282830"/><rect x="45" y="262.5" width="31" height="8" fill="#282830"/><path d="m23.5 234.5c-1.3764 0-2.5 1.1236-2.5 2.5v0.5h-5.5c-1.3764 0-2.5 1.1236-2.5 2.5v3c0 1.3764 1.1236 2.5 2.5 2.5h5.5v0.5c0 1.3764 1.1236 2.5 2.5 2.5h76c1.3764 0 2.5-1.1236 2.5-2.5v-0.5h5.5c1.3764 0 2.5-1.1236 2.5-2.5v-3c0-1.3764-1.1236-2.5-2.5-2.5h-5.5v-0.5c0-1.3764-1.1236-2.5-2.5-2.5z" fill="#1a1a20" stop-color="#000000"/><rect x="12.5" y="236" width="96" height="7" ry="2" fill="#585860" stroke="#fff"/><rect x="20.5" y="233" width="80" height="13" ry="2" fill="#585860" stroke="#fff"/><path d="m52.905 243.14h-0.98l-2.07-6.11v6.11h-0.88v-7.29h1.29l2.16 6.35 2.12-6.35h1.29v7.29h-0.88v-6.11zm8.25-2.19h-2.81l-0.77 2.19h-0.99l2.6-7.29h1.2l2.56 7.29h-1.04zm-0.26-0.78-1.12-3.32-1.2 3.32zm3.99-4.32v7.29h-0.94v-7.29zm7.14 0v7.29h-1.05l-3.77-5.91v5.91h-0.88v-7.29h1.01l3.81 5.96v-5.96z" fill="#fff" aria-label="MAIN"/><path d="m23.5 286.5c-1.3764 0-2.5 1.1236-2.5 2.5v0.5h-5.5c-1.3764 0-2.5 1.1236-2.5 2.5v3c0 1.3764 1.1236 2.5 2.5 2.5h5.5v0.5c0 1.3764 1.1236 2.5 2.5 2.5h76c1.3764 0 2.5-1.1236 2.5-2.5v-0.5h5.5c1.3764 0 2.5-1.1236 2.5-2.5v-3c0-1.3764-1.1236-2.5-2.5-2.5h-5.5v-0.5c0-1.3764-1.1236-2.5-2.5-2.5z" fill="#1a1a20" stop-color="#000000"/><rect x="12.5" y="288" width="96" height="7" ry="2" fill="#585860" stroke="#fff"/><rect x="20.5" y="285" width="80" height="13" ry="2" fill="#585860" stroke="#fff"/><path d="m34.8 291.77v3.32h-0.93v-7.29h4.89v0.82h-3.96v2.33h3.48v0.82zm11.55-0.21q0 1.62-0.96 2.69t-2.56 1.07q-1.58 0-2.55-1.05-0.97-1.06-0.97-2.77t0.97-2.76q0.97-1.06 2.54-1.06 1.6 0 2.56 1.06 0.97 1.06 0.97 2.82zm-3.53-3.06q-1.16 0-1.87 0.83-0.71 0.82-0.71 2.17t0.71 2.18q0.72 0.82 1.88 0.82t1.87-0.82q0.72-0.82 0.72-2.14 0-1.38-0.71-2.21t-1.89-0.83zm5.51-0.7v6.47h3.6v0.82h-4.53v-7.29zm5.38 0v6.47h3.6v0.82h-4.53v-7.29zm11.14 3.76q0 1.62-0.96 2.69t-2.56 1.07q-1.58 0-2.55-1.05-0.97-1.06-0.97-2.77t0.97-2.76q0.97-1.06 2.54-1.06 1.6 0 2.56 1.06 0.97 1.06 0.97 2.82zm-3.53-3.06q-1.16 0-1.87 0.83-0.71 0.82-0.71 2.17t0.71 2.18q0.72 0.82 1.88 0.82t1.87-0.82q0.72-0.82 0.72-2.14 0-1.38-0.71-2.21t-1.89-0.83zm11.1 6.59h-1.02l-1.68-5.99-1.63 5.99h-1.02l-1.87-7.29h1.04l1.37 5.92 1.62-5.92h1l1.66 5.92 1.34-5.92h1.04zm3.45-3.32v2.5h4.3v0.82h-5.23v-7.29h5.05v0.82h-4.12v2.33h3.97v0.82zm9.83-0.28q0.32 0.14 0.53 0.33 0.22 0.19 0.31 0.43 0.1 0.24 0.13 0.45t0.03 0.5q0 0.09-0.01 0.26 0 0.17 0 0.25 0 0.41 0.09 0.69t0.35 0.46v0.23h-1.13q-0.2-0.46-0.2-1.19v-0.65q0-0.67-0.29-0.98-0.29-0.32-0.91-0.32h-2.4v3.14h-0.93v-7.29h3.36q1.07 0 1.64 0.51 0.58 0.5 0.58 1.44 0 0.62-0.27 1.03t-0.88 0.71zm0.18-1.61q0-0.72-0.38-0.99t-1.05-0.27h-2.25v2.51h2.25q0.74 0 1.08-0.3 0.35-0.3 0.35-0.95z" fill="#fff" aria-label="FOLLOWER"/><path d="m60.5 264c-2.4793 0-4.5 2.0207-4.5 4.5s2.0207 4.5 4.5 4.5 4.5-2.0207 4.5-4.5-2.0207-4.5-4.5-4.5z" fill="#1a1a20" stroke-width=".03125"/><path d="m60.5 262c-2.4793 0-4.5 2.0207-4.5 4.5s2.0207 4.5 4.5 4.5 4.5-2.0207 4.5-4.5-2.0207-4.5-4.5-4.5z" fill="#fff" stroke-width=".03125"/><path d="m60.5 230.5v-13.5" fill="none" stroke="#fff"/><path d="m60.5 314v-13.5" fill="none" stroke="#fff"/><path d="m60.5 260v-11.5" fill="none" stroke="#fff"/><path d="m57.5 261v-4" fill="none" stroke="url(#c)" stroke-linecap="round"/><path d="m63.5 261v-4" fill="none" stroke="url(#b)" stroke-linecap="round"/><path d="m57.977 311a0.31538 0.31538 0 0 0-0.27308 0.47301l2.5227 4.3694a0.31538 0.31538 0 0 0 0.54614 0l2.5227-4.3694a0.31538 0.31538 0 0 0-0.27308-0.47301z" fill="#fff" stroke-width=".019709"/><path d="m60.5 282.5v-9.5" fill="none" stroke="#fff"/><rect x="2" y="189" width="25" height="25" fill="#282830"/><rect x="2" y="163" width="25" height="25" fill="#282830"/><rect x="28" y="189" width="158" height="25" fill="#282830"/><rect x="28" y="163" width="158" height="25" fill="#282830"/><rect x="187" y="163" width="51" height="25" fill="#585860"/><rect x="187" y="189" width="51" height="25" fill="#585860"/><rect x="2.5" y="31.5" width="235" height="130" fill="#180030" stroke="#8000ff" stroke-linecap="round"/><path d="m14.5 168.06c-4.1012 0-7.4375 3.3362-7.4375 7.4375s3.3362 7.4375 7.4375 7.4375 7.4375-3.3362 7.4375-7.4375-3.3362-7.4375-7.4375-7.4375zm-2.125 3.7188c0.29431 0 0.53125 0.23694 0.53125 0.53125v2.6562c0 0.59311 0.46939 1.0625 1.0625 1.0625s1.0625-0.46939 1.0625-1.0625v-2.6562c0-0.29431 0.23694-0.53125 0.53125-0.53125 0.29431 0 0.53125 0.23694 0.53125 0.53125v3.1875c0 0.29969 0.23156 0.53125 0.53125 0.53125a0.53125 0.53125 0 0 1 0.53125 0.53125 0.53125 0.53125 0 0 1-0.53125 0.53125c-0.4848 0-0.92198-0.22175-1.2154-0.56821-0.37968 0.35189-0.88652 0.56821-1.4409 0.56821-0.38625 0-0.74923-0.10537-1.0625-0.288v1.8818c0 0.29432-0.23694 0.53125-0.53125 0.53125-0.29431 0-0.53125-0.23693-0.53125-0.53125v-6.375c0-0.29432 0.23694-0.53125 0.53125-0.53125zm5.3125 1.0625h1.0625c0.29431 0 0.53125 0.23694 0.53125 0.53125s-0.23694 0.53125-0.53125 0.53125h-1.0625c-0.29431 0-0.53125-0.23694-0.53125-0.53125s0.23694-0.53125 0.53125-0.53125z" fill="#fff"/><path d="m9.7188 194.06a0.53132 0.53132 0 0 0-0.43675 0.83363l4.5717 6.6038-4.5717 6.6038a0.53132 0.53132 0 0 0 0.43675 0.83363h9.5625a0.53132 0.53132 0 0 0 0.53125-0.53125v-2.6562a0.53125 0.53125 0 0 0-0.53125-0.53125 0.53125 0.53125 0 0 0-0.53125 0.53125v1.0625h-7.2818l3.4684-5.01 0.64617-0.93331a0.53132 0.53132 0 0 0 0-0.60479l-3.558-5.1392h6.725v1.0625a0.53125 0.53125 0 0 0 0.53125 0.53125 0.53125 0.53125 0 0 0 0.53125-0.53125v-1.5938a0.53132 0.53132 0 0 0-0.53125-0.53125z" fill="#fff"/><path d="m205.46 168.08c-0.0901 0.0241-0.17225 0.0715-0.2382 0.13748-0.2075 0.20747-0.2075 0.54386 0 0.75135l13.812 13.812c0.20747 0.2075 0.54387 0.2075 0.75135 0 0.2075-0.20748 0.2075-0.54387 0-0.75136l-13.812-13.812c-0.13422-0.13421-0.32983-0.18662-0.51316-0.13748zm6.9889 2.641c-0.0989 0.0102-0.19297 0.048-0.27146 0.10908l-1.1752 0.91405 2.0326 2.0326v-2.5273c-7e-5 -0.315-0.27259-0.56077-0.5859-0.5284zm2.2447 0.31206c-0.0461-6e-3 -0.0927-5e-3 -0.13871 1e-3 -0.18795 0.0264-0.34757 0.15096-0.41872 0.32691-0.11002 0.27198 0.0213 0.58165 0.29325 0.69169 1.4058 0.56867 2.3236 1.9296 2.3242 3.4462-1e-3 0.57434-0.13504 1.1258-0.3762 1.6205l0.78313 0.78312c0.418-0.71433 0.65357-1.5387 0.65557-2.4018v-2e-3c-3.8e-4 -1.9463-1.184-3.7015-2.9883-4.4313-0.043-0.0174-0.0882-0.0291-0.13424-0.0348zm-7.2648 1.6453c-0.14478 0.096-0.23349 0.25673-0.23754 0.43041v4.7812c3e-5 0.29339 0.23786 0.53121 0.53125 0.53125h2.2083l2.2468 1.7474c0.34897 0.27126 0.85724 0.0227 0.85738-0.41932v-1.4648zm7.2087 0.88512c-0.29678-5e-3 -0.54001 0.23431-0.54008 0.53112v0.74461l1.4654 1.4654c0.0825-0.25846 0.1281-0.52919 0.12834-0.80477v-6.7e-4c-2.4e-4 -0.6465-0.23644-1.271-0.66407-1.7559-0.0714-0.0809-0.1657-0.1382-0.27042-0.1642-0.039-0.01-0.079-0.0149-0.11919-0.0156z" fill="#fff"/><path d="m216.22 197.25a0.53125 0.53125 0 0 0-0.53125 0.53125 0.53125 0.53125 0 0 0 0.53125 0.53125h1.9049l-2.2806 2.2806a0.53132 0.53132 0 0 0 0.37566 0.90691h3.1875a0.53125 0.53125 0 0 0 0.53125-0.53125 0.53125 0.53125 0 0 0-0.53125-0.53125h-1.9049l2.2806-2.2806a0.53132 0.53132 0 0 0-0.37566-0.90691zm-5.3125 2.125a0.53125 0.53125 0 0 0-0.53125 0.53125 0.53125 0.53125 0 0 0 0.53125 0.53125h1.9049l-2.2806 2.2806a0.53132 0.53132 0 0 0 0.37566 0.90691h3.1875a0.53125 0.53125 0 0 0 0.53125-0.53125 0.53125 0.53125 0 0 0-0.53125-0.53125h-1.9049l2.2806-2.2806a0.53132 0.53132 0 0 0-0.37566-0.90691zm-5.3125 2.125a0.53125 0.53125 0 0 0-0.53125 0.53125 0.53125 0.53125 0 0 0 0.53125 0.53125h1.9049l-2.2806 2.2806a0.53132 0.53132 0 0 0 0.37566 0.90691h3.1875a0.53125 0.53125 0 0 0 0.53125-0.53125 0.53125 0.53125 0 0 0-0.53125-0.53125h-1.9049l2.2806-2.2806a0.53132 0.53132 0 0 0-0.37566-0.90691z" fill="#fff"/><path d="m36.512 173.16h-2.512v-1.008q1.632-0.208 2.128-0.576t0.864-1.68h0.928v11.344h-1.408zm9.984 5.36h-4.784v-1.488l5.152-7.136h1.04v7.36h1.68v1.264h-1.68v2.72h-1.408zm0-1.264v-4.96l-3.552 4.96zm8.304-1.712q0-0.8 0.128-1.584 0.144-0.784 0.528-1.632t0.944-1.472q0.576-0.64 1.536-1.056 0.976-0.416 2.192-0.416 3.808 0 4.496 3.808h-1.52q-0.256-1.248-1.008-1.872t-2.144-0.624q-1.696 0-2.688 1.296-0.976 1.296-0.976 3.536 0 2.192 1.024 3.488 1.024 1.28 2.768 1.28 1.44 0 2.208-0.8 0.768-0.816 1.04-2.512h1.536q-0.528 4.624-4.8 4.624-1.2 0-2.16-0.4-0.944-0.416-1.52-1.04-0.56-0.624-0.944-1.456-0.368-0.848-0.512-1.616-0.128-0.768-0.128-1.552zm20.4-2.544q0 1.488-0.912 2.4-0.896 0.896-2.352 0.896h-3.664v4.944h-1.488v-11.664h4.816q1.728 0 2.656 0.896 0.944 0.88 0.944 2.528zm-6.928 1.984h3.104q1.072 0 1.664-0.544 0.608-0.544 0.608-1.504t-0.608-1.504q-0.592-0.544-1.664-0.544h-3.104zm16.176 0.944h-6v5.312h-1.488v-11.664h1.488v5.04h6v-5.04h1.488v11.664h-1.488z" fill="#fff" stroke-linecap="round" aria-label="14 CPH"/><path d="m130.16 230.55q0-0.8 0.128-1.584 0.144-0.784 0.528-1.632t0.944-1.472q0.576-0.64 1.536-1.056 0.976-0.416 2.192-0.416 3.808 0 4.496 3.808h-1.52q-0.256-1.248-1.008-1.872t-2.144-0.624q-1.696 0-2.688 1.296-0.976 1.296-0.976 3.536 0 2.192 1.024 3.488 1.024 1.28 2.768 1.28 1.44 0 2.208-0.8 0.768-0.816 1.04-2.512h1.536q-0.528 4.624-4.8 4.624-1.2 0-2.16-0.4-0.944-0.416-1.52-1.04-0.56-0.624-0.944-1.456-0.368-0.848-0.512-1.616-0.128-0.768-0.128-1.552zm14.96-2.928q1.808 0 2.8 1.2 1.008 1.184 1.008 3.36 0 2.064-1.024 3.248-1.008 1.184-2.768 1.184-1.792 0-2.8-1.184-0.992-1.2-0.992-3.312t1.008-3.296q1.008-1.2 2.768-1.2zm0.016 1.232q-1.12 0-1.76 0.88-0.64 0.864-0.64 2.384t0.64 2.4q0.64 0.864 1.76 0.864 1.104 0 1.744-0.864 0.656-0.88 0.656-2.352 0-1.552-0.64-2.432-0.624-0.88-1.76-0.88zm11.824 7.392h-1.2v-1.168q-0.592 0.832-1.232 1.184t-1.568 0.352q-1.216 0-1.952-0.624-0.72-0.624-0.72-1.664v-6.464h1.328v5.936q0 0.752 0.464 1.2t1.264 0.448q1.04 0 1.664-0.768 0.624-0.784 0.624-2.064v-4.752h1.328zm1.792-8.384h1.232v1.408q0.56-0.88 1.2-1.264 0.656-0.384 1.584-0.384 1.216 0 1.936 0.624t0.72 1.664v6.336h-1.328v-5.808q0-0.752-0.464-1.2t-1.264-0.448q-1.024 0-1.648 0.784-0.624 0.768-0.624 2.048v4.624h-1.344zm11.712 0v1.088h-1.376v5.744q0 0.448 0.144 0.608 0.16 0.144 0.592 0.144 0.4 0 0.64-0.064v1.12q-0.624 0.112-1.088 0.112-0.784 0-1.2-0.352-0.416-0.336-0.416-0.976v-6.336h-1.136v-1.088h1.136v-2.304h1.328v2.304zm2.192 5.888q0.096 0.752 0.512 1.2 0.432 0.432 1.536 0.432 0.88 0 1.408-0.352 0.544-0.368 0.544-0.96 0-0.464-0.304-0.736t-0.992-0.432l-1.248-0.304q-1.488-0.352-2.08-0.88-0.576-0.544-0.576-1.536 0-1.168 0.88-1.856 0.88-0.704 2.336-0.704t2.24 0.672 0.8 1.904h-1.408q-0.048-1.344-1.68-1.344-0.816 0-1.296 0.352-0.48 0.336-0.48 0.912 0 0.448 0.368 0.736 0.368 0.272 1.184 0.464l1.28 0.304q1.248 0.304 1.808 0.864 0.56 0.544 0.56 1.472 0 1.216-0.944 1.936-0.928 0.72-2.512 0.72-3.248 0-3.344-2.864z" fill="#888890" stroke-linecap="round"/><path d="m137.76 248.26q0 0.944-0.416 1.712-0.4 0.768-1.024 1.296-0.624 0.512-1.28 0.96-0.656 0.432-1.264 0.96-0.608 0.512-0.864 1.056h4.8v2h-7.712q0.08-1.568 0.624-2.48 0.56-0.928 2-1.936 1.872-1.312 2.384-1.936 0.512-0.64 0.512-1.584 0-0.848-0.432-1.328-0.416-0.496-1.168-0.496-0.768 0-1.2 0.528-0.416 0.528-0.416 1.472v0.368h-2.144q-0.016-0.176-0.016-0.4 0-1.792 0.976-2.784 0.992-1.008 2.752-1.008 1.792 0 2.832 0.976 1.056 0.976 1.056 2.624zm1.264 0.016q0-0.88 0.24-1.552 0.256-0.672 0.624-1.056 0.384-0.384 0.896-0.608 0.512-0.24 0.96-0.32 0.464-0.08 0.96-0.08 1.648 0 2.624 0.848 0.976 0.832 0.976 2.24 0 0.784-0.352 1.36-0.352 0.56-1.136 1.056 0.96 0.464 1.408 1.152 0.448 0.672 0.448 1.664 0 1.664-1.088 2.656-1.072 0.976-2.88 0.976-1.744 0-2.784-0.992-1.024-1.008-1.04-2.704h2.176q0.096 1.776 1.696 1.776 0.736 0 1.2-0.48 0.48-0.48 0.48-1.232 0-0.624-0.336-1.072-0.336-0.464-0.896-0.624-0.448-0.112-1.312-0.112v-1.504h0.192q1.984 0 1.984-1.712 0-0.704-0.368-1.088-0.368-0.4-1.04-0.4-0.88 0-1.2 0.496t-0.352 1.504h-2.08zm8.8 2.576q0-6.192 4.192-6.192 0.304 0 0.592 0.032t0.768 0.192q0.496 0.16 0.864 0.432 0.384 0.272 0.72 0.832 0.352 0.56 0.464 1.328h-2.08q-0.224-0.544-0.544-0.768-0.304-0.24-0.848-0.24-0.56 0-0.944 0.24-0.368 0.224-0.56 0.72t-0.272 1.024-0.112 1.328q0.528-0.544 1.04-0.768 0.512-0.24 1.216-0.24 1.456 0 2.368 1.024 0.928 1.024 0.928 2.656 0 1.856-1.056 3.008-1.04 1.152-2.736 1.152-0.848 0-1.52-0.256t-1.264-0.864q-0.576-0.608-0.896-1.776-0.32-1.184-0.32-2.864zm5.2 0.24q-0.464-0.56-1.248-0.56t-1.264 0.592q-0.48 0.576-0.48 1.52 0 0.896 0.48 1.472t1.248 0.576q0.752 0 1.232-0.592 0.496-0.592 0.496-1.504 0-0.944-0.464-1.504z" fill="#fff" stroke-linecap="round"/><path d="m130.16 282.55q0-0.8 0.128-1.584 0.144-0.784 0.528-1.632t0.944-1.472q0.576-0.64 1.536-1.056 0.976-0.416 2.192-0.416 3.808 0 4.496 3.808h-1.52q-0.256-1.248-1.008-1.872t-2.144-0.624q-1.696 0-2.688 1.296-0.976 1.296-0.976 3.536 0 2.192 1.024 3.488 1.024 1.28 2.768 1.28 1.44 0 2.208-0.8 0.768-0.816 1.04-2.512h1.536q-0.528 4.624-4.8 4.624-1.2 0-2.16-0.4-0.944-0.416-1.52-1.04-0.56-0.624-0.944-1.456-0.368-0.848-0.512-1.616-0.128-0.768-0.128-1.552zm14.96-2.928q1.808 0 2.8 1.2 1.008 1.184 1.008 3.36 0 2.064-1.024 3.248-1.008 1.184-2.768 1.184-1.792 0-2.8-1.184-0.992-1.2-0.992-3.312t1.008-3.296q1.008-1.2 2.768-1.2zm0.016 1.232q-1.12 0-1.76 0.88-0.64 0.864-0.64 2.384t0.64 2.4q0.64 0.864 1.76 0.864 1.104 0 1.744-0.864 0.656-0.88 0.656-2.352 0-1.552-0.64-2.432-0.624-0.88-1.76-0.88zm11.824 7.392h-1.2v-1.168q-0.592 0.832-1.232 1.184t-1.568 0.352q-1.216 0-1.952-0.624-0.72-0.624-0.72-1.664v-6.464h1.328v5.936q0 0.752 0.464 1.2t1.264 0.448q1.04 0 1.664-0.768 0.624-0.784 0.624-2.064v-4.752h1.328zm1.792-8.384h1.232v1.408q0.56-0.88 1.2-1.264 0.656-0.384 1.584-0.384 1.216 0 1.936 0.624t0.72 1.664v6.336h-1.328v-5.808q0-0.752-0.464-1.2t-1.264-0.448q-1.024 0-1.648 0.784-0.624 0.768-0.624 2.048v4.624h-1.344zm11.712 0v1.088h-1.376v5.744q0 0.448 0.144 0.608 0.16 0.144 0.592 0.144 0.4 0 0.64-0.064v1.12q-0.624 0.112-1.088 0.112-0.784 0-1.2-0.352-0.416-0.336-0.416-0.976v-6.336h-1.136v-1.088h1.136v-2.304h1.328v2.304zm2.192 5.888q0.096 0.752 0.512 1.2 0.432 0.432 1.536 0.432 0.88 0 1.408-0.352 0.544-0.368 0.544-0.96 0-0.464-0.304-0.736t-0.992-0.432l-1.248-0.304q-1.488-0.352-2.08-0.88-0.576-0.544-0.576-1.536 0-1.168 0.88-1.856 0.88-0.704 2.336-0.704t2.24 0.672 0.8 1.904h-1.408q-0.048-1.344-1.68-1.344-0.816 0-1.296 0.352-0.48 0.336-0.48 0.912 0 0.448 0.368 0.736 0.368 0.272 1.184 0.464l1.28 0.304q1.248 0.304 1.808 0.864 0.56 0.544 0.56 1.472 0 1.216-0.944 1.936-0.928 0.72-2.512 0.72-3.248 0-3.344-2.864z" fill="#888890" stroke-linecap="round"/><path d="m137.76 300.26q0 0.944-0.416 1.712-0.4 0.768-1.024 1.296-0.624 0.512-1.28 0.96-0.656 0.432-1.264 0.96-0.608 0.512-0.864 1.056h4.8v2h-7.712q0.08-1.568 0.624-2.48 0.56-0.928 2-1.936 1.872-1.312 2.384-1.936 0.512-0.64 0.512-1.584 0-0.848-0.432-1.328-0.416-0.496-1.168-0.496-0.768 0-1.2 0.528-0.416 0.528-0.416 1.472v0.368h-2.144q-0.016-0.176-0.016-0.4 0-1.792 0.976-2.784 0.992-1.008 2.752-1.008 1.792 0 2.832 0.976 1.056 0.976 1.056 2.624zm8.896 0q0 0.944-0.416 1.712-0.4 0.768-1.024 1.296-0.624 0.512-1.28 0.96-0.656 0.432-1.264 0.96-0.608 0.512-0.864 1.056h4.8v2h-7.712q0.08-1.568 0.624-2.48 0.56-0.928 2-1.936 1.872-1.312 2.384-1.936 0.512-0.64 0.512-1.584 0-0.848-0.432-1.328-0.416-0.496-1.168-0.496-0.768 0-1.2 0.528-0.416 0.528-0.416 1.472v0.368h-2.144q-0.016-0.176-0.016-0.4 0-1.792 0.976-2.784 0.992-1.008 2.752-1.008 1.792 0 2.832 0.976 1.056 0.976 1.056 2.624zm1.264 0.016q0-0.88 0.24-1.552 0.256-0.672 0.624-1.056 0.384-0.384 0.896-0.608 0.512-0.24 0.96-0.32 0.464-0.08 0.96-0.08 1.648 0 2.624 0.848 0.976 0.832 0.976 2.24 0 0.784-0.352 1.36-0.352 0.56-1.136 1.056 0.96 0.464 1.408 1.152 0.448 0.672 0.448 1.664 0 1.664-1.088 2.656-1.072 0.976-2.88 0.976-1.744 0-2.784-0.992-1.024-1.008-1.04-2.704h2.176q0.096 1.776 1.696 1.776 0.736 0 1.2-0.48 0.48-0.48 0.48-1.232 0-0.624-0.336-1.072-0.336-0.464-0.896-0.624-0.448-0.112-1.312-0.112v-1.504h0.192q1.984 0 1.984-1.712 0-0.704-0.368-1.088-0.368-0.4-1.04-0.4-0.88 0-1.2 0.496t-0.352 1.504h-2.08z" fill="#fff" stroke-linecap="round"/><path d="m117.98 78.54q0 2.832-1.248 5.136-1.2 2.304-3.072 3.888-1.872 1.536-3.84 2.88-1.968 1.296-3.792 2.88-1.824 1.536-2.592 3.168h14.4v6h-23.136q0.24-4.704 1.872-7.44 1.68-2.784 6-5.808 5.616-3.936 7.152-5.808 1.536-1.92 1.536-4.752 0-2.544-1.296-3.984-1.248-1.488-3.504-1.488-2.304 0-3.6 1.584-1.248 1.584-1.248 4.416v1.104h-6.432q-0.048-0.528-0.048-1.2 0-5.376 2.928-8.352 2.976-3.024 8.256-3.024 5.376 0 8.496 2.928 3.168 2.928 3.168 7.872zm27.024 10.848v5.568h-3.552v7.536h-6.72v-7.536h-13.632v-5.664l12.432-20.832h7.92v20.928zm-10.272 0v-14.544l-8.88 14.544z" fill="#fff" stroke-linecap="round"/><path d="m53.248 119.2q0-0.8 0.128-1.584 0.144-0.784 0.528-1.632t0.944-1.472q0.576-0.64 1.536-1.056 0.976-0.416 2.192-0.416 3.808 0 4.496 3.808h-1.52q-0.256-1.248-1.008-1.872t-2.144-0.624q-1.696 0-2.688 1.296-0.976 1.296-0.976 3.536 0 2.192 1.024 3.488 1.024 1.28 2.768 1.28 1.44 0 2.208-0.8 0.768-0.816 1.04-2.512h1.536q-0.528 4.624-4.8 4.624-1.2 0-2.16-0.4-0.944-0.416-1.52-1.04-0.56-0.624-0.944-1.456-0.368-0.848-0.512-1.616-0.128-0.768-0.128-1.552zm14.96-2.928q1.808 0 2.8 1.2 1.008 1.184 1.008 3.36 0 2.064-1.024 3.248-1.008 1.184-2.768 1.184-1.792 0-2.8-1.184-0.992-1.2-0.992-3.312t1.008-3.296q1.008-1.2 2.768-1.2zm0.016 1.232q-1.12 0-1.76 0.88-0.64 0.864-0.64 2.384t0.64 2.4q0.64 0.864 1.76 0.864 1.104 0 1.744-0.864 0.656-0.88 0.656-2.352 0-1.552-0.64-2.432-0.624-0.88-1.76-0.88zm6.544-0.992v8.384h-1.328v-8.384zm0-3.28v1.68h-1.344v-1.68zm2.112 3.28h1.232v1.408q0.56-0.88 1.2-1.264 0.656-0.384 1.584-0.384 1.216 0 1.936 0.624t0.72 1.664v6.336h-1.328v-5.808q0-0.752-0.464-1.2t-1.264-0.448q-1.024 0-1.648 0.784-0.624 0.768-0.624 2.048v4.624h-1.344zm14.992 2.816h-1.344q-0.128-0.88-0.64-1.344-0.512-0.48-1.344-0.48-1.088 0-1.712 0.896-0.608 0.88-0.608 2.448 0 1.488 0.624 2.336t1.728 0.848q1.712 0 2.048-2.016h1.344q-0.128 1.536-1.024 2.4-0.896 0.848-2.4 0.848-1.712 0-2.72-1.184-0.992-1.2-0.992-3.232 0-2.08 1.008-3.328 1.024-1.248 2.72-1.248 1.456 0 2.32 0.784 0.88 0.784 0.992 2.272zm2.848-2.816v8.384h-1.328v-8.384zm0-3.28v1.68h-1.344v-1.68zm8.976 0v11.664h-1.184v-1.104q-0.544 0.784-1.184 1.12-0.624 0.352-1.488 0.352-1.696 0-2.672-1.216-0.976-1.232-0.976-3.36 0-2 0.976-3.2 0.992-1.216 2.624-1.216 1.728 0 2.576 1.296v-4.336zm-3.68 4.288q-1.088 0-1.76 0.896t-0.672 2.352q0 1.472 0.672 2.368 0.672 0.88 1.776 0.88 1.056 0 1.696-0.88t0.64-2.336q0-1.504-0.64-2.384-0.64-0.896-1.712-0.896zm12.528 3.632h-6.176q0.032 1.312 0.672 2.096 0.656 0.784 1.792 0.784 1.632 0 2.192-1.68h1.344q-0.256 1.376-1.2 2.144t-2.384 0.768q-1.76 0-2.784-1.184-1.024-1.2-1.024-3.264t1.04-3.296q1.056-1.248 2.8-1.248 3.728 0 3.728 4.88zm-6.144-1.088h4.72q0-1.088-0.656-1.824t-1.664-0.736-1.664 0.704q-0.656 0.688-0.736 1.856zm7.456-3.552h1.232v1.408q0.56-0.88 1.2-1.264 0.656-0.384 1.584-0.384 1.216 0 1.936 0.624t0.72 1.664v6.336h-1.328v-5.808q0-0.752-0.464-1.2t-1.264-0.448q-1.024 0-1.648 0.784-0.624 0.768-0.624 2.048v4.624h-1.344zm14.992 2.816h-1.344q-0.128-0.88-0.64-1.344-0.512-0.48-1.344-0.48-1.088 0-1.712 0.896-0.608 0.88-0.608 2.448 0 1.488 0.624 2.336t1.728 0.848q1.712 0 2.048-2.016h1.344q-0.128 1.536-1.024 2.4-0.896 0.848-2.4 0.848-1.712 0-2.72-1.184-0.992-1.2-0.992-3.232 0-2.08 1.008-3.328 1.024-1.248 2.72-1.248 1.456 0 2.32 0.784 0.88 0.784 0.992 2.272zm8.624 1.824h-6.176q0.032 1.312 0.672 2.096 0.656 0.784 1.792 0.784 1.632 0 2.192-1.68h1.344q-0.256 1.376-1.2 2.144t-2.384 0.768q-1.76 0-2.784-1.184-1.024-1.2-1.024-3.264t1.04-3.296q1.056-1.248 2.8-1.248 3.728 0 3.728 4.88zm-6.144-1.088h4.72q0-1.088-0.656-1.824t-1.664-0.736-1.664 0.704q-0.656 0.688-0.736 1.856zm18.672 1.088h-6.176q0.032 1.312 0.672 2.096 0.656 0.784 1.792 0.784 1.632 0 2.192-1.68h1.344q-0.256 1.376-1.2 2.144t-2.384 0.768q-1.76 0-2.784-1.184-1.024-1.2-1.024-3.264t1.04-3.296q1.056-1.248 2.8-1.248 3.728 0 3.728 4.88zm-6.144-1.088h4.72q0-1.088-0.656-1.824t-1.664-0.736-1.664 0.704q-0.656 0.688-0.736 1.856zm11.024 4.832h-1.456l-2.944-8.384h1.504l2.24 6.8 2.368-6.8h1.504zm11.264-3.744h-6.176q0.032 1.312 0.672 2.096 0.656 0.784 1.792 0.784 1.632 0 2.192-1.68h1.344q-0.256 1.376-1.2 2.144t-2.384 0.768q-1.76 0-2.784-1.184-1.024-1.2-1.024-3.264t1.04-3.296q1.056-1.248 2.8-1.248 3.728 0 3.728 4.88zm-6.144-1.088h4.72q0-1.088-0.656-1.824t-1.664-0.736-1.664 0.704q-0.656 0.688-0.736 1.856zm7.456-3.552h1.232v1.408q0.56-0.88 1.2-1.264 0.656-0.384 1.584-0.384 1.216 0 1.936 0.624t0.72 1.664v6.336h-1.328v-5.808q0-0.752-0.464-1.2t-1.264-0.448q-1.024 0-1.648 0.784-0.624 0.768-0.624 2.048v4.624h-1.344zm11.712 0v1.088h-1.376v5.744q0 0.448 0.144 0.608 0.16 0.144 0.592 0.144 0.4 0 0.64-0.064v1.12q-0.624 0.112-1.088 0.112-0.784 0-1.2-0.352-0.416-0.336-0.416-0.976v-6.336h-1.136v-1.088h1.136v-2.304h1.328v2.304zm2.192 5.888q0.096 0.752 0.512 1.2 0.432 0.432 1.536 0.432 0.88 0 1.408-0.352 0.544-0.368 0.544-0.96 0-0.464-0.304-0.736t-0.992-0.432l-1.248-0.304q-1.488-0.352-2.08-0.88-0.576-0.544-0.576-1.536 0-1.168 0.88-1.856 0.88-0.704 2.336-0.704t2.24 0.672 0.8 1.904h-1.408q-0.048-1.344-1.68-1.344-0.816 0-1.296 0.352-0.48 0.336-0.48 0.912 0 0.448 0.368 0.736 0.368 0.272 1.184 0.464l1.28 0.304q1.248 0.304 1.808 0.864 0.56 0.544 0.56 1.472 0 1.216-0.944 1.936-0.928 0.72-2.512 0.72-3.248 0-3.344-2.864z" fill="#fff" stroke-linecap="round"/><path d="m34.256 199.76q0.112-3.936 3.744-3.936 1.616 0 2.624 0.928t1.008 2.4q0 2.112-2.4 3.424l-1.6 0.864q-1.04 0.56-1.488 1.088t-0.56 1.248h5.968v1.392h-7.552q0.096-1.872 0.752-2.88 0.656-1.024 2.432-2.032l1.472-0.832q1.536-0.88 1.536-2.24 0-0.912-0.64-1.52t-1.6-0.608q-2.128 0-2.288 2.704zm13.328 4.688h-4.784v-1.488l5.152-7.136h1.04v7.36h1.68v1.264h-1.68v2.72h-1.408zm0-1.264v-4.96l-3.552 4.96z" fill="#fff" stroke-linecap="round" aria-label="24"/><path d="m59 13.488q0-0.8 0.128-1.584 0.144-0.784 0.528-1.632 0.384-0.848 0.944-1.472 0.576-0.64 1.536-1.056 0.976-0.416 2.192-0.416 3.808 0 4.496 3.808h-1.52q-0.256-1.248-1.008-1.872t-2.144-0.624q-1.696 0-2.688 1.296-0.976 1.296-0.976 3.536 0 2.192 1.024 3.488 1.024 1.28 2.768 1.28 1.44 0 2.208-0.8 0.768-0.816 1.04-2.512h1.536q-0.528 4.624-4.8 4.624-1.2 0-2.16-0.4-0.944-0.416-1.52-1.04-0.56-0.624-0.944-1.456-0.368-0.848-0.512-1.616-0.128-0.768-0.128-1.552zm14.96-2.928q1.808 0 2.8 1.2 1.008 1.184 1.008 3.36 0 2.064-1.024 3.248-1.008 1.184-2.768 1.184-1.792 0-2.8-1.184-0.992-1.2-0.992-3.312t1.008-3.296q1.008-1.2 2.768-1.2zm0.016 1.232q-1.12 0-1.76 0.88-0.64 0.864-0.64 2.384t0.64 2.4q0.64 0.864 1.76 0.864 1.104 0 1.744-0.864 0.656-0.88 0.656-2.352 0-1.552-0.64-2.432-0.624-0.88-1.76-0.88zm6.096 4.896q0.096 0.752 0.512 1.2 0.432 0.432 1.536 0.432 0.88 0 1.408-0.352 0.544-0.368 0.544-0.96 0-0.464-0.304-0.736t-0.992-0.432l-1.248-0.304q-1.488-0.352-2.08-0.88-0.576-0.544-0.576-1.536 0-1.168 0.88-1.856 0.88-0.704 2.336-0.704t2.24 0.672 0.8 1.904h-1.408q-0.048-1.344-1.68-1.344-0.816 0-1.296 0.352-0.48 0.336-0.48 0.912 0 0.448 0.368 0.736 0.368 0.272 1.184 0.464l1.28 0.304q1.248 0.304 1.808 0.864 0.56 0.544 0.56 1.472 0 1.216-0.944 1.936-0.928 0.72-2.512 0.72-3.248 0-3.344-2.864zm6.736-5.888h1.232v1.184q0.544-0.752 1.136-1.088 0.608-0.336 1.44-0.336 1.552 0 2.256 1.28 0.592-0.704 1.168-0.992t1.408-0.288q1.168 0 1.792 0.608 0.64 0.592 0.64 1.728v6.288h-1.344v-5.776q0-0.8-0.416-1.232-0.4-0.448-1.136-0.448-0.816 0-1.392 0.64t-0.576 1.552v5.264h-1.344v-5.776q0-0.8-0.416-1.232-0.4-0.448-1.136-0.448-0.816 0-1.392 0.64t-0.576 1.552v5.264h-1.344zm14.304 0v8.384h-1.328v-8.384zm0-3.28v1.68h-1.344v-1.68zm8.512 6.096h-1.344q-0.128-0.88-0.64-1.344-0.512-0.48-1.344-0.48-1.088 0-1.712 0.896-0.608 0.88-0.608 2.448 0 1.488 0.624 2.336t1.728 0.848q1.712 0 2.048-2.016h1.344q-0.128 1.536-1.024 2.4-0.896 0.848-2.4 0.848-1.712 0-2.72-1.184-0.992-1.2-0.992-3.232 0-2.08 1.008-3.328 1.024-1.248 2.72-1.248 1.456 0 2.32 0.784 0.88 0.784 0.992 2.272zm9.568-1.648q-1.344 0.032-2.016 0.624t-0.672 2.24v4.352h-1.344v-8.384h1.232v1.52q0.576-0.944 1.104-1.344 0.544-0.416 1.184-0.416 0.176 0 0.512 0.048zm1.008 1.312q0.096-2.72 3.36-2.72 1.552 0 2.352 0.592 0.8 0.576 0.8 1.696v4.928q0 0.656 0.72 0.656 0.144 0 0.288-0.032v1.008q-0.56 0.144-0.912 0.144-0.64 0-0.976-0.304-0.32-0.288-0.4-0.928-1.344 1.232-2.848 1.232-1.264 0-2.016-0.672-0.736-0.672-0.736-1.808 0-0.368 0.064-0.672 0.08-0.304 0.16-0.528 0.096-0.24 0.32-0.432 0.224-0.208 0.368-0.336 0.16-0.128 0.512-0.24 0.368-0.128 0.56-0.176 0.192-0.064 0.672-0.144t0.704-0.112 0.8-0.112q0.784-0.096 1.088-0.304t0.304-0.624v-0.352q0-0.608-0.496-0.928-0.48-0.32-1.376-0.32-0.928 0-1.408 0.368-0.48 0.352-0.56 1.12zm2.672 5.104q1.104 0 1.808-0.576 0.704-0.592 0.704-1.264v-1.504q-0.4 0.192-1.216 0.32-0.8 0.128-1.392 0.224t-1.072 0.464q-0.48 0.352-0.48 0.992t0.432 0.992 1.216 0.352zm11.056-7.584h1.44l-3.728 10.144q-0.656 1.728-2.16 1.728-0.496 0-0.896-0.208v-1.2q0.432 0.096 0.704 0.096 0.416 0 0.656-0.192 0.24-0.176 0.416-0.624l0.512-1.328-2.832-8.416h1.424l2.144 6.528zm13.584-3.28v11.664h-1.184v-1.104q-0.544 0.784-1.184 1.12-0.624 0.352-1.488 0.352-1.696 0-2.672-1.216-0.976-1.232-0.976-3.36 0-2 0.976-3.2 0.992-1.216 2.624-1.216 1.728 0 2.576 1.296v-4.336zm-3.68 4.288q-1.088 0-1.76 0.896t-0.672 2.352q0 1.472 0.672 2.368 0.672 0.88 1.776 0.88 1.056 0 1.696-0.88t0.64-2.336q0-1.504-0.64-2.384-0.64-0.896-1.712-0.896zm12.528 3.632h-6.176q0.032 1.312 0.672 2.096 0.656 0.784 1.792 0.784 1.632 0 2.192-1.68h1.344q-0.256 1.376-1.2 2.144t-2.384 0.768q-1.76 0-2.784-1.184-1.024-1.2-1.024-3.264t1.04-3.296q1.056-1.248 2.8-1.248 3.728 0 3.728 4.88zm-6.144-1.088h4.72q0-1.088-0.656-1.824t-1.664-0.736-1.664 0.704q-0.656 0.688-0.736 1.856zm10.752-3.552v1.088h-1.376v5.744q0 0.448 0.144 0.608 0.16 0.144 0.592 0.144 0.4 0 0.64-0.064v1.12q-0.624 0.112-1.088 0.112-0.784 0-1.2-0.352-0.416-0.336-0.416-0.976v-6.336h-1.136v-1.088h1.136v-2.304h1.328v2.304zm8.208 4.64h-6.176q0.032 1.312 0.672 2.096 0.656 0.784 1.792 0.784 1.632 0 2.192-1.68h1.344q-0.256 1.376-1.2 2.144t-2.384 0.768q-1.76 0-2.784-1.184-1.024-1.2-1.024-3.264t1.04-3.296q1.056-1.248 2.8-1.248 3.728 0 3.728 4.88zm-6.144-1.088h4.72q0-1.088-0.656-1.824t-1.664-0.736-1.664 0.704q-0.656 0.688-0.736 1.856zm14.144-0.736h-1.344q-0.128-0.88-0.64-1.344-0.512-0.48-1.344-0.48-1.088 0-1.712 0.896-0.608 0.88-0.608 2.448 0 1.488 0.624 2.336t1.728 0.848q1.712 0 2.048-2.016h1.344q-0.128 1.536-1.024 2.4-0.896 0.848-2.4 0.848-1.712 0-2.72-1.184-0.992-1.2-0.992-3.232 0-2.08 1.008-3.328 1.024-1.248 2.72-1.248 1.456 0 2.32 0.784 0.88 0.784 0.992 2.272zm4.608-2.816v1.088h-1.376v5.744q0 0.448 0.144 0.608 0.16 0.144 0.592 0.144 0.4 0 0.64-0.064v1.12q-0.624 0.112-1.088 0.112-0.784 0-1.2-0.352-0.416-0.336-0.416-0.976v-6.336h-1.136v-1.088h1.136v-2.304h1.328v2.304zm4.416-0.24q1.808 0 2.8 1.2 1.008 1.184 1.008 3.36 0 2.064-1.024 3.248-1.008 1.184-2.768 1.184-1.792 0-2.8-1.184-0.992-1.2-0.992-3.312t1.008-3.296q1.008-1.2 2.768-1.2zm0.016 1.232q-1.12 0-1.76 0.88-0.64 0.864-0.64 2.384t0.64 2.4q0.64 0.864 1.76 0.864 1.104 0 1.744-0.864 0.656-0.88 0.656-2.352 0-1.552-0.64-2.432-0.624-0.88-1.76-0.88zm9.184 0.176q-1.344 0.032-2.016 0.624t-0.672 2.24v4.352h-1.344v-8.384h1.232v1.52q0.576-0.944 1.104-1.344 0.544-0.416 1.184-0.416 0.176 0 0.512 0.048z" fill="#fff" stroke-linecap="round" aria-label="Cosmic ray detector"/><circle cx="16" cy="45" r="10" filter="url(#k)"/><circle cx="16" cy="45" r="9.5" fill="#0080ff" stroke="#fff" stroke-linecap="round"/><path d="m16.483 42.893h-2.198v-0.882q1.428-0.182 1.862-0.504t0.756-1.47h0.812v9.926h-1.232z" fill="#fff" stroke-linecap="round" aria-label="1"/><circle cx="173" cy="175.5" r="10" filter="url(#j)"/><circle cx="173" cy="175.5" r="9.5" fill="#0080ff" stroke="#fff" stroke-linecap="round"/><path d="m169.88 173.98q0.098-3.444 3.276-3.444 1.414 0 2.296 0.812t0.882 2.1q0 1.848-2.1 2.996l-1.4 0.756q-0.91 0.49-1.302 0.952t-0.49 1.092h5.222v1.218h-6.608q0.084-1.638 0.658-2.52 0.574-0.896 2.128-1.778l1.288-0.728q1.344-0.77 1.344-1.96 0-0.798-0.56-1.33t-1.4-0.532q-1.862 0-2.002 2.366z" fill="#fff" stroke-linecap="round" aria-label="2"/><circle cx="173" cy="201.5" r="10" filter="url(#i)"/><circle cx="173" cy="201.5" r="9.5" fill="#0080ff" stroke="#fff" stroke-linecap="round"/><path d="m173.01 197.45q-1.064 0-1.47 0.588-0.392 0.574-0.42 1.54h-1.232q0.07-3.206 3.108-3.206 1.414 0 2.212 0.728 0.812 0.728 0.812 2.002 0 1.512-1.386 2.058 0.896 0.308 1.288 0.868 0.392 0.546 0.392 1.498 0 1.414-0.924 2.254-0.91 0.84-2.436 0.84-3.052 0-3.276-3.206h1.232q0.07 1.078 0.574 1.596t1.512 0.518q0.966 0 1.512-0.518 0.546-0.532 0.546-1.47 0-1.806-2.058-1.806l-0.518 0.014h-0.154v-1.05q1.33-0.028 1.876-0.336 0.56-0.308 0.56-1.218 0-0.784-0.476-1.232-0.462-0.462-1.274-0.462z" fill="#fff" stroke-linecap="round" aria-label="3"/><circle cx="225" cy="175.5" r="10" filter="url(#h)"/><circle cx="225" cy="175.5" r="9.5" fill="#0080ff" stroke="#fff" stroke-linecap="round"/><path d="m225.74 178.08h-4.186v-1.302l4.508-6.244h0.91v6.44h1.47v1.106h-1.47v2.38h-1.232zm0-1.106v-4.34l-3.108 4.34z" fill="#fff" stroke-linecap="round" aria-label="4"/><circle cx="225" cy="201.5" r="10" filter="url(#g)"/><circle cx="225" cy="201.5" r="9.5" fill="#0080ff" stroke="#fff" stroke-linecap="round"/><path d="m227.83 196.38v1.218h-4.13l-0.392 2.772q0.826-0.602 1.834-0.602 1.428 0 2.31 0.924 0.896 0.91 0.896 2.38 0 1.568-0.952 2.562t-2.45 0.994q-0.574 0-1.064-0.126-0.476-0.126-0.798-0.294-0.308-0.182-0.574-0.462-0.252-0.294-0.392-0.504-0.126-0.224-0.252-0.546-0.112-0.336-0.14-0.462t-0.07-0.364h1.232q0.434 1.666 2.03 1.666 1.008 0 1.582-0.616 0.588-0.616 0.588-1.68 0-1.106-0.588-1.736-0.588-0.644-1.582-0.644-0.574 0-0.98 0.21-0.406 0.196-0.84 0.714h-1.134l0.742-5.404z" fill="#fff" stroke-linecap="round" aria-label="5"/><circle cx="225" cy="228" r="10" filter="url(#f)"/><circle cx="225" cy="228" r="9.5" fill="#0080ff" stroke="#fff" stroke-linecap="round"/><path d="m221.71 228.28q0-1.316 0.238-2.31 0.238-1.008 0.588-1.582 0.364-0.574 0.854-0.924 0.504-0.364 0.938-0.476 0.448-0.112 0.938-0.112 1.134 0 1.876 0.686 0.756 0.686 0.938 1.904h-1.232q-0.154-0.714-0.588-1.106t-1.078-0.392q-1.064 0-1.638 0.98-0.56 0.966-0.574 2.786 0.812-1.106 2.282-1.106 1.33 0 2.184 0.882t0.854 2.268q0 1.456-0.924 2.408-0.91 0.938-2.324 0.938-3.332 0-3.332-4.844zm3.388-0.56q-0.91 0-1.484 0.588-0.574 0.574-0.574 1.498 0 0.952 0.574 1.596 0.574 0.63 1.442 0.63 0.854 0 1.414-0.602 0.56-0.616 0.56-1.554 0-0.994-0.518-1.568-0.518-0.588-1.414-0.588z" fill="#fff" stroke-linecap="round" aria-label="6"/><circle cx="225" cy="280" r="10" filter="url(#e)"/><circle cx="225" cy="280" r="9.5" fill="#0080ff" stroke="#fff" stroke-linecap="round"/><path d="m228.32 275.04v1.036q-1.68 2.24-2.66 4.382-0.966 2.128-1.372 4.508h-1.316q0.56-2.45 1.428-4.312t2.646-4.396h-5.362v-1.218z" fill="#fff" stroke-linecap="round" aria-label="7"/><circle cx="16" cy="15" r="10" filter="url(#d)"/><circle cx="16" cy="15" r="9.5" fill="#0080ff" stroke="#fff" stroke-linecap="round"/><path d="m17.624 14.58q1.708 0.812 1.708 2.478 0 1.358-0.938 2.212-0.924 0.854-2.394 0.854t-2.408-0.854q-0.924-0.868-0.924-2.226 0-1.652 1.694-2.464-0.756-0.476-1.05-0.924t-0.294-1.134q0-1.162 0.826-1.904 0.84-0.742 2.156-0.742t2.142 0.742q0.84 0.742 0.84 1.904 0 0.7-0.294 1.148t-1.064 0.91zm-0.378-3.178q-0.462-0.434-1.246-0.434t-1.26 0.434q-0.462 0.42-0.462 1.134 0 0.7 0.462 1.134 0.476 0.42 1.26 0.42 0.77 0 1.246-0.42t0.476-1.12q0-0.728-0.476-1.148zm0.252 4.27q-0.574-0.546-1.498-0.546t-1.498 0.546q-0.574 0.532-0.574 1.4t0.56 1.414q0.574 0.546 1.484 0.546 0.938 0 1.512-0.532 0.588-0.546 0.588-1.428 0-0.868-0.574-1.4z" fill="#fff" stroke-linecap="round" aria-label="8"/></svg>
