<svg width="320" height="240" version="1.1" viewBox="0 0 320 240" xmlns="http://www.w3.org/2000/svg"><defs><filter id="q" x="-.108" y="-.108" width="1.216" height="1.216" color-interpolation-filters="sRGB"><feGaussianBlur stdDeviation="0.9"/></filter><filter id="p" x="-.108" y="-.108" width="1.216" height="1.216" color-interpolation-filters="sRGB"><feGaussianBlur stdDeviation="0.9"/></filter><filter id="o" x="-.108" y="-.108" width="1.216" height="1.216" color-interpolation-filters="sRGB"><feGaussianBlur stdDeviation="0.9"/></filter><filter id="b" x="-.108" y="-.108" width="1.216" height="1.216" color-interpolation-filters="sRGB"><feGaussianBlur stdDeviation="0.9"/></filter><filter id="n" x="-.108" y="-.108" width="1.216" height="1.216" color-interpolation-filters="sRGB"><feGaussianBlur stdDeviation="0.9"/></filter><filter id="m" x="-.108" y="-.108" width="1.216" height="1.216" color-interpolation-filters="sRGB"><feGaussianBlur stdDeviation="0.9"/></filter><filter id="i" x="-.108" y="-.108" width="1.216" height="1.216" color-interpolation-filters="sRGB"><feGaussianBlur stdDeviation="0.9"/></filter><filter id="h" x="-.108" y="-.108" width="1.216" height="1.216" color-interpolation-filters="sRGB"><feGaussianBlur stdDeviation="0.9"/></filter><filter id="l" x="-.108" y="-.108" width="1.216" height="1.216" color-interpolation-filters="sRGB"><feGaussianBlur stdDeviation="0.9"/></filter><filter id="e" x="-.108" y="-.108" width="1.216" height="1.216" color-interpolation-filters="sRGB"><feGaussianBlur stdDeviation="0.9"/></filter><filter id="g" x="-.108" y="-.108" width="1.216" height="1.216" color-interpolation-filters="sRGB"><feGaussianBlur stdDeviation="0.9"/></filter><filter id="k" x="-.108" y="-.108" width="1.216" height="1.216" color-interpolation-filters="sRGB"><feGaussianBlur stdDeviation="0.9"/></filter><filter id="d" x="-.108" y="-.108" width="1.216" height="1.216" color-interpolation-filters="sRGB"><feGaussianBlur stdDeviation="0.9"/></filter><filter id="f" x="-.108" y="-.108" width="1.216" height="1.216" color-interpolation-filters="sRGB"><feGaussianBlur stdDeviation="0.9"/></filter><filter id="j" x="-.108" y="-.108" width="1.216" height="1.216" color-interpolation-filters="sRGB"><feGaussianBlur stdDeviation="0.9"/></filter><filter id="c" x="-.108" y="-.108" width="1.216" height="1.216" color-interpolation-filters="sRGB"><feGaussianBlur stdDeviation="0.9"/></filter><filter id="a" x="-.108" y="-.108" width="1.216" height="1.216" color-interpolation-filters="sRGB"><feGaussianBlur stdDeviation="0.9"/></filter></defs><rect width="320" height="240"/><rect x=".5" y=".5" width="319" height="239" fill="none" stroke="#fff"/><rect x=".5" y=".5" width="319" height="29" fill="#282830" stroke="#fff"/><rect x="2.5" y="31.5" width="159" height="128" fill="#002008" stroke="#00a040"/><rect x="2" y="161" width="25" height="25" fill="#282830"/><rect x="28" y="161" width="134" height="25" fill="#282830"/><rect x="28" y="187" width="134" height="25" fill="#282830"/><rect x="28" y="213" width="134" height="25" fill="#282830"/><rect x="2" y="187" width="25" height="25" fill="#282830"/><rect x="2" y="213" width="25" height="25" fill="#282830"/><path d="m18.43 167.27a0.53132 0.53132 0 0 0-0.48749 0.26491l-1.8708 3.2404a0.53132 0.53132 0 0 0 0.1214 0.67489c0.49101 0.4064 0.81929 0.97544 0.9254 1.6039a0.53132 0.53132 0 0 0 0.52384 0.4428h3.7417a0.53132 0.53132 0 0 0 0.52969-0.57216c-0.17328-2.2441-1.3543-4.2898-3.2109-5.5625a0.53132 0.53132 0 0 0-0.27295-0.09234zm-7.8545 9e-3a0.53132 0.53132 0 0 0-0.27315 0.0928c-1.8499 1.2727-3.0263 3.3142-3.1997 5.5529a0.53132 0.53132 0 0 0 0.52969 0.57229h3.73a0.53132 0.53132 0 0 0 0.52378-0.4424c0.10643-0.62721 0.4342-1.195 0.92404-1.601a0.53132 0.53132 0 0 0 0.12108-0.67468l-1.8678-3.2352a0.53132 0.53132 0 0 0-0.48799-0.26485zm3.9249 4.624c-0.87391 0-1.5938 0.71984-1.5938 1.5938 0 0.8739 0.71984 1.5938 1.5938 1.5938s1.5938-0.71985 1.5938-1.5938c0-0.87391-0.71984-1.5938-1.5938-1.5938zm-1.1019 4.0428a0.53132 0.53132 0 0 0-0.18372 0.0308 0.53132 0.53132 0 0 0-0.28171 0.23482l-1.8716 3.2418a0.53132 0.53132 0 0 0 0.2295 0.74422c1.0009 0.48211 2.097 0.73388 3.208 0.73681a0.53132 0.53132 0 0 0 0.0029 0c1.1109-3e-3 2.2071-0.25472 3.208-0.73681a0.53132 0.53132 0 0 0 0.2295-0.74422l-1.8716-3.2418a0.53132 0.53132 0 0 0-0.64849-0.23106c-0.29366 0.11142-0.60473 0.16967-0.9188 0.17244-0.31406-3e-3 -0.62512-0.061-0.9188-0.17244a0.53132 0.53132 0 0 0-0.18307-0.0346z" fill="#fff"/><path d="m14.5 194.72c-2.6343 0-4.7812 2.147-4.7812 4.7812s2.1469 4.7812 4.7812 4.7812 4.7812-2.147 4.7812-4.7812-2.1469-4.7812-4.7812-4.7812z" fill="#fff"/><path d="m14.5 218.06a7.4375 7.4375 0 0 0-7.4375 7.4375 7.4375 7.4375 0 0 0 7.4375 7.4375 7.4375 7.4375 0 0 0 7.4375-7.4375 7.4375 7.4375 0 0 0-7.4375-7.4375zm0 3.7188a0.53125 0.53125 0 0 1 0.53125 0.53125v2.9674l2.0983 2.0983a0.53125 0.53125 0 0 1 0 0.75129 0.53125 0.53125 0 0 1-0.75129 0l-2.2539-2.2539a0.53125 0.53125 0 0 1-0.04585-0.0523 0.53125 0.53125 0 0 1-0.02652-0.0397 0.53125 0.53125 0 0 1-0.01226-0.0185 0.53125 0.53125 0 0 1-0.01868-0.038 0.53125 0.53125 0 0 1-0.01219-0.0251 0.53125 0.53125 0 0 1-0.01161-0.034 0.53125 0.53125 0 0 1-0.01083-0.0328 0.53125 0.53125 0 0 1-0.0065-0.0327 0.53125 0.53125 0 0 1-0.0068-0.036 0.53125 0.53125 0 0 1-0.0023-0.0349 0.53125 0.53125 0 0 1-0.0021-0.0317v-3.1875a0.53125 0.53125 0 0 1 0.53125-0.53125z" fill="#fff"/><rect x="163" y="31" width="51" height="51" fill="#585860"/><rect x="215" y="31" width="51" height="51" fill="#585860"/><rect x="267" y="31" width="51" height="51" fill="#585860"/><rect x="163" y="83" width="51" height="51" fill="#585860"/><rect x="215" y="83" width="51" height="51" fill="#585860"/><rect x="267" y="83" width="51" height="51" fill="#585860"/><rect x="163" y="135" width="51" height="51" fill="#585860"/><rect x="215" y="135" width="51" height="51" fill="#585860"/><rect x="267" y="135" width="51" height="51" fill="#585860"/><rect x="163" y="187" width="51" height="51" fill="#585860"/><rect x="215" y="187" width="51" height="51" fill="#585860"/><rect x="267" y="187" width="51" height="51" fill="#585860"/><path d="m188.39 46.662a1.0939 1.0939 0 0 0-0.5589 0.22457l-4.6257 3.5977h-4.5466a1.0939 1.0939 0 0 0-1.0938 1.0938v9.8437a1.0939 1.0939 0 0 0 1.0938 1.0938h4.5466l4.6257 3.5977a1.0939 1.0939 0 0 0 1.7652-0.86331v-17.5a1.0939 1.0939 0 0 0-1.2063-1.0879zm4.6214 0.64247a1.0937 1.0937 0 0 0-0.28558 0.0024 1.0937 1.0937 0 0 0-0.86208 0.67305 1.0937 1.0937 0 0 0 0.60375 1.4241c2.8942 1.1708 4.784 3.9728 4.7852 7.095-8e-3 3.116-1.8964 5.91-4.7852 7.0786a1.0937 1.0937 0 0 0-0.60375 1.4241 1.0937 1.0937 0 0 0 1.4241 0.60375c3.7078-1.4999 6.1431-5.103 6.1523-9.1027a1.0939 1.0939 0 0 0 0-1.36e-4 1.0939 1.0939 0 0 0 0-1.37e-4 1.0939 1.0939 0 0 0 0-1.37e-4 1.0939 1.0939 0 0 0 0-1.36e-4 1.0939 1.0939 0 0 0 0-1.37e-4 1.0939 1.0939 0 0 0 0-1.37e-4 1.0939 1.0939 0 0 0 0-1.37e-4 1.0939 1.0939 0 0 0 0-1.36e-4 1.0939 1.0939 0 0 0 0-1.37e-4 1.0939 1.0939 0 0 0 0-1.37e-4 1.0939 1.0939 0 0 0 0-1.37e-4 1.0939 1.0939 0 0 0 0-1.36e-4 1.0939 1.0939 0 0 0 0-1.37e-4 1.0939 1.0939 0 0 0 0-1.37e-4 1.0939 1.0939 0 0 0 0-1.36e-4 1.0939 1.0939 0 0 0 0-1.37e-4 1.0939 1.0939 0 0 0 0-1.37e-4 1.0939 1.0939 0 0 0 0-1.37e-4 1.0939 1.0939 0 0 0 0-1.36e-4 1.0939 1.0939 0 0 0 0-1.37e-4 1.0939 1.0939 0 0 0 0-1.37e-4 1.0939 1.0939 0 0 0 0-1.36e-4c-7.6e-4 -4.0071-2.4376-7.6207-6.1523-9.1232a1.0937 1.0937 0 0 0-0.27638-0.07169zm-0.11562 5.2097a1.0939 1.0939 0 0 0-1.1119 1.0935v5.7822a1.0939 1.0939 0 0 0 1.9141 0.72352c0.87978-0.99757 1.366-2.2825 1.3672-3.6127a1.0939 1.0939 0 0 0 0-1.37e-4 1.0939 1.0939 0 0 0 0-1.36e-4 1.0939 1.0939 0 0 0 0-1.37e-4 1.0939 1.0939 0 0 0 0-1.37e-4 1.0939 1.0939 0 0 0 0-1.36e-4 1.0939 1.0939 0 0 0 0-1.37e-4 1.0939 1.0939 0 0 0 0-1.37e-4 1.0939 1.0939 0 0 0 0-1.37e-4 1.0939 1.0939 0 0 0 0-1.36e-4 1.0939 1.0939 0 0 0 0-1.37e-4c-4.8e-4 -1.331-0.48679-2.6169-1.3672-3.6152a1.0939 1.0939 0 0 0-0.55675-0.33806 1.0939 1.0939 0 0 0-0.2454-0.03204z" fill="#fff"/><path d="m240.22 41.225a1.0939 1.0939 0 0 0-0.4904 0.28305l-3.8441 3.8443h-5.4366a1.0939 1.0939 0 0 0-1.0938 1.0938v5.4366l-3.8443 3.8441a1.0939 1.0939 0 0 0 0 1.5469l3.8443 3.8441v5.4366a1.0939 1.0939 0 0 0 1.0938 1.0938h5.4366l3.8441 3.8443a1.0939 1.0939 0 0 0 1.5469 0l3.8441-3.8443h5.4366a1.0939 1.0939 0 0 0 1.0938-1.0938v-5.4366l3.8443-3.8441a1.0939 1.0939 0 0 0 0-1.5469l-3.8443-3.8441v-5.4366a1.0939 1.0939 0 0 0-1.0938-1.0938h-5.4366l-3.8441-3.8443a1.0939 1.0939 0 0 0-1.0565-0.28305zm0.28305 7.6187a7.6562 7.6562 0 0 1 7.6562 7.6562 7.6562 7.6562 0 0 1-7.6562 7.6562 7.6562 7.6562 0 0 1-7.6562-7.6562 7.6562 7.6562 0 0 1 7.6562-7.6562zm0 2.1875a5.4687 5.4687 0 0 0-5.4688 5.4688 5.4687 5.4687 0 0 0 5.4688 5.4688 5.4687 5.4687 0 0 0 5.4688-5.4688 5.4687 5.4687 0 0 0-5.4688-5.4688z" fill="#fff"/><path d="m241.59 93.188a1.0939 1.0939 0 0 0-1.0938 1.0936v2.1876c-6.6317 0-12.031 5.3996-12.031 12.031s5.3996 12.031 12.031 12.031 12.031-5.3996 12.031-12.031a1.0937 1.0937 0 0 0-1.0938-1.0938 1.0937 1.0937 0 0 0-1.0938 1.0938c0 5.4495-4.3943 9.8438-9.8438 9.8438s-9.8438-4.3943-9.8438-9.8438 4.3943-9.8438 9.8438-9.8438v2.1875a1.0939 1.0939 0 0 0 1.6406 0.94726l5.6835-3.2814a1.0939 1.0939 0 0 0 0-1.8944l-5.6835-3.2812a1.0939 1.0939 0 0 0-0.54687-0.14647zm-1.0938 10.937a1.0939 1.0939 0 0 0-0.97829 0.60442l-3.2812 6.5625a1.0937 1.0937 0 0 0 0.48906 1.4675 1.0937 1.0937 0 0 0 1.4675-0.48906l0.51804-1.0361h3.5699l0.51803 1.0361a1.0937 1.0937 0 0 0 1.4675 0.48906 1.0937 1.0937 0 0 0 0.48907-1.4675l-3.2812-6.5625a1.0939 1.0939 0 0 0-0.97829-0.60442zm0 3.5393 0.69118 1.3824h-1.3824l0.69118-1.3824z" fill="#fff"/><path d="m278.4 98.662a1.0939 1.0939 0 0 0-1.2082 1.0876v17.5a1.0939 1.0939 0 0 0 1.6406 0.94719l11.642-6.7213v5.7742a1.0939 1.0939 0 0 0 1.6406 0.94718l15.155-8.75a1.0939 1.0939 0 0 0 0-1.8944l-15.155-8.75a1.0939 1.0939 0 0 0-0.43246-0.14046 1.0939 1.0939 0 0 0-1.2082 1.0876v5.7741l-11.642-6.7213a1.0939 1.0939 0 0 0-0.43245-0.14046z" fill="#fff"/><path d="m202.6 98.662a1.0939 1.0939 0 0 1 1.2082 1.0876v17.5a1.0939 1.0939 0 0 1-1.6406 0.94719l-11.642-6.7213v5.7742a1.0939 1.0939 0 0 1-1.6406 0.94718l-15.155-8.75a1.0939 1.0939 0 0 1 0-1.8944l15.155-8.75a1.0939 1.0939 0 0 1 0.43246-0.14046 1.0939 1.0939 0 0 1 1.2082 1.0876v5.7741l11.642-6.7213a1.0939 1.0939 0 0 1 0.43245-0.14046z" fill="#fff"/><path d="m300.16 47.75a1.0937 1.0937 0 0 0-1.0938 1.0938 1.0937 1.0937 0 0 0 1.0938 1.0938h3.9218l-4.6953 4.6953a1.0939 1.0939 0 0 0 0.77342 1.8672h6.5625a1.0937 1.0937 0 0 0 1.0938-1.0938 1.0937 1.0937 0 0 0-1.0938-1.0938h-3.9218l4.6953-4.6953a1.0939 1.0939 0 0 0-0.77342-1.8672zm-10.938 4.375a1.0937 1.0937 0 0 0-1.0938 1.0938 1.0937 1.0937 0 0 0 1.0938 1.0938h3.9218l-4.6953 4.6953a1.0939 1.0939 0 0 0 0.77342 1.8672h6.5625a1.0937 1.0937 0 0 0 1.0938-1.0938 1.0937 1.0937 0 0 0-1.0938-1.0937h-3.9218l4.6953-4.6953a1.0939 1.0939 0 0 0-0.77342-1.8672zm-10.938 4.375a1.0937 1.0937 0 0 0-1.0938 1.0938 1.0937 1.0937 0 0 0 1.0938 1.0938h3.9218l-4.6953 4.6953a1.0939 1.0939 0 0 0 0.77342 1.8672h6.5625a1.0937 1.0937 0 0 0 1.0938-1.0938 1.0937 1.0937 0 0 0-1.0938-1.0938h-3.9218l4.6953-4.6953a1.0939 1.0939 0 0 0-0.77342-1.8672z" fill="#fff"/><path d="m228.47 145.19c-1.7989 0-3.2812 1.4824-3.2812 3.2812v24.062c0 1.7989 1.4824 3.2812 3.2812 3.2812h24.062c1.7989 0 3.2812-1.4824 3.2812-3.2812v-24.062c0-1.7989-1.4824-3.2812-3.2812-3.2812zm21.97 7.6604a1.0937 1.0937 0 0 1 0.67812 0.31616 1.0937 1.0937 0 0 1 0.31335 0.65102 1.0937 1.0937 0 0 1-0.0545 0.48372 1.0937 1.0937 0 0 1-0.25888 0.41216l-8.2031 8.2031a1.0939 1.0939 0 0 1-1.5469 0l-2.5078-2.5078-7.43 7.43a1.0937 1.0937 0 0 1-1.5469 0 1.0937 1.0937 0 0 1-0.28305-0.49039 1.0937 1.0937 0 0 1 0-0.5661 1.0937 1.0937 0 0 1 0.28305-0.4904l8.2031-8.2031a1.0939 1.0939 0 0 1 1.5469 0l2.5078 2.5078 7.43-7.43a1.0937 1.0937 0 0 1 0.4904-0.28305 1.0937 1.0937 0 0 1 0.37838-0.0331z" fill="#fff"/><path d="m280.47 145.19c-1.7989 0-3.2812 1.4824-3.2812 3.2812v24.062c0 1.7989 1.4824 3.2812 3.2812 3.2812h24.062c1.7989 0 3.2812-1.4824 3.2812-3.2812v-24.062c0-1.7989-1.4824-3.2812-3.2812-3.2812zm5.4688 6.5625a2.1875 2.1875 0 0 1 2.1875 2.1875 2.1875 2.1875 0 0 1-2.1875 2.1875 2.1875 2.1875 0 0 1-2.1875-2.1875 2.1875 2.1875 0 0 1 2.1875-2.1875zm13.125 0a2.1875 2.1875 0 0 1 2.1875 2.1875 2.1875 2.1875 0 0 1-2.1875 2.1875 2.1875 2.1875 0 0 1-2.1875-2.1875 2.1875 2.1875 0 0 1 2.1875-2.1875zm-6.5625 6.5625a2.1875 2.1875 0 0 1 2.1875 2.1875 2.1875 2.1875 0 0 1-2.1875 2.1875 2.1875 2.1875 0 0 1-2.1875-2.1875 2.1875 2.1875 0 0 1 2.1875-2.1875zm-6.5625 6.5625a2.1875 2.1875 0 0 1 2.1875 2.1875 2.1875 2.1875 0 0 1-2.1875 2.1875 2.1875 2.1875 0 0 1-2.1875-2.1875 2.1875 2.1875 0 0 1 2.1875-2.1875zm13.125 0a2.1875 2.1875 0 0 1 2.1875 2.1875 2.1875 2.1875 0 0 1-2.1875 2.1875 2.1875 2.1875 0 0 1-2.1875-2.1875 2.1875 2.1875 0 0 1 2.1875-2.1875z" fill="#fff"/><path d="m188.5 197.19c-8.4438 0-15.312 6.8688-15.312 15.312a1.0939 1.0939 0 0 0 0 4e-3c0.0146 4.0551 1.6378 7.94 4.5125 10.8a1.0937 1.0937 0 0 0 1.5468-4e-3 1.0937 1.0937 0 0 0-4e-3 -1.5468c-2.4643-2.4517-3.8549-5.7798-3.8678-9.2558 1e-3 -7.2604 5.8641-13.122 13.125-13.122 7.2609 0 13.124 5.8619 13.125 13.122-0.0129 3.4761-1.4035 6.8042-3.8678 9.2558a1.0937 1.0937 0 0 0-4e-3 1.5468 1.0937 1.0937 0 0 0 1.5468 4e-3c2.8747-2.8601 4.4979-6.7447 4.5125-10.8a1.0939 1.0939 0 0 0 0-4e-3c0-8.4438-6.8688-15.312-15.312-15.312zm0 6.5625c-4.8195 0-8.75 3.9305-8.75 8.75a1.0939 1.0939 0 0 0 0 4e-3c8e-3 2.317 0.93598 4.5371 2.5786 6.1713a1.0937 1.0937 0 0 0 1.5468-4e-3 1.0937 1.0937 0 0 0-4e-3 -1.5468c-1.232-1.2257-1.927-2.8889-1.9338-4.6267 1e-3 -3.6364 2.9257-6.5605 6.5624-6.5605s6.5613 2.9241 6.5624 6.5605c-7e-3 1.7378-0.70185 3.401-1.9338 4.6267a1.0937 1.0937 0 0 0-4e-3 1.5468 1.0937 1.0937 0 0 0 1.5468 4e-3c1.6425-1.6342 2.5702-3.8543 2.5786-6.1713a1.0939 1.0939 0 0 0 0-1e-3 1.0939 1.0939 0 0 0 0-2e-3 1.0939 1.0939 0 0 0 0-8e-4c0-4.8195-3.9305-8.75-8.75-8.75zm0 6.5625a2.1875 2.1875 0 0 0-2.1875 2.1875 2.1875 2.1875 0 0 0 2.1875 2.1875 2.1875 2.1875 0 0 0 2.1875-2.1875 2.1875 2.1875 0 0 0-2.1875-2.1875z" fill="#fff"/><path d="m240.49 201.45c-5.5603 7e-3 -10.856 2.3831-14.558 6.5311a1.0939 1.0939 0 0 0 0.0425 1.5018l13.744 13.744a1.0939 1.0939 0 0 0 1.5469 0l13.755-13.755a1.0939 1.0939 0 0 0 0.0419-1.5025c-3.7077-4.1467-9.0077-6.5182-14.571-6.5192a1.0939 1.0939 0 0 0-2e-3 0zm1e-3 2.1875h2e-3c4.595 1e-3 8.9845 1.8244 12.225 5.0422l-4.6413 4.6413c-2.0128-1.9891-4.7351-3.1199-7.5852-3.1209a1.0939 1.0939 0 0 0-9.4e-4 0c-2.8503 1e-3 -5.5723 1.1321-7.5852 3.1213l-4.6311-4.6311c3.2372-3.2194 7.6228-5.0461 12.216-5.0527z" fill="#fff"/><path d="m289.77 197.19a1.0939 1.0939 0 0 0-1.081 0.92736l-0.63553 4.1308c-0.78484 0.3372-1.527 0.76214-2.2151 1.2683l-3.8839-1.5107a1.0939 1.0939 0 0 0-1.3437 0.47251l-2.7344 4.736a1.0939 1.0939 0 0 0 0.26262 1.3999l3.2486 2.607c-0.0524 0.42171-0.0899 0.84506-0.0941 1.2704a1.0939 1.0939 0 0 0 0 0.0219c4e-3 0.4253 0.0417 0.84869 0.0941 1.2704l-3.2486 2.607a1.0939 1.0939 0 0 0-0.26262 1.3999l2.7344 4.736a1.0939 1.0939 0 0 0 1.3437 0.47251l3.8839-1.5107c0.68811 0.5061 1.4304 0.93105 2.2151 1.2683l0.63553 4.1308a1.0939 1.0939 0 0 0 1.081 0.92736h5.4688a1.0939 1.0939 0 0 0 1.081-0.92736l0.63553-4.1308c0.78483-0.3372 1.527-0.76214 2.2151-1.2683l3.8839 1.5107a1.0939 1.0939 0 0 0 1.3437-0.47251l2.7344-4.736a1.0939 1.0939 0 0 0-0.26262-1.3999l-3.2486-2.607c0.0524-0.42171 0.0899-0.84506 0.0941-1.2704a1.0939 1.0939 0 0 0 0-0.0128c-7.4e-4 -0.43041-0.0355-0.85914-0.0856-1.2862l3.2401-2.6002a1.0939 1.0939 0 0 0 0.26262-1.3999l-2.7344-4.736a1.0939 1.0939 0 0 0-1.3437-0.47251l-3.8719 1.5059c-0.69207-0.51424-1.4398-0.94603-2.231-1.2886l-0.63165-4.1057a1.0939 1.0939 0 0 0-1.081-0.92736zm2.7344 10.391c2.7053 0 4.9219 2.2166 4.9219 4.9219s-2.2166 4.9219-4.9219 4.9219-4.9219-2.2166-4.9219-4.9219 2.2166-4.9219 4.9219-4.9219z" fill="#fff"/><path d="m188.5 145.19c-8.4438 0-15.312 6.8688-15.312 15.312s6.8688 15.312 15.312 15.312 15.312-6.8688 15.312-15.312-6.8688-15.312-15.312-15.312zm-4.375 7.6562c0.60594 0 1.0938 0.48781 1.0938 1.0938v5.4688c0 1.2211 0.9664 2.1875 2.1875 2.1875s2.1875-0.9664 2.1875-2.1875v-5.4688c0-0.60594 0.48781-1.0938 1.0938-1.0938s1.0938 0.48781 1.0938 1.0938v6.5625c0 0.61701 0.47674 1.0938 1.0938 1.0938a1.0937 1.0937 0 0 1 1.0938 1.0938 1.0937 1.0937 0 0 1-1.0938 1.0938c-0.99812 0-1.8982-0.45655-2.5022-1.1698-0.78169 0.72448-1.8252 1.1698-2.9665 1.1698-0.79523 0-1.5425-0.21695-2.1875-0.59294v3.8742c0 0.60594-0.48781 1.0938-1.0938 1.0938s-1.0938-0.48781-1.0938-1.0938v-13.125c0-0.60593 0.48781-1.0938 1.0938-1.0938zm10.938 2.1875h2.1875c0.60594 0 1.0938 0.48781 1.0938 1.0938s-0.48781 1.0938-1.0938 1.0938h-2.1875c-0.60594 0-1.0938-0.48781-1.0938-1.0938s0.48781-1.0938 1.0938-1.0938z" fill="#fff"/><path d="m43.12 167.48v11.664h-1.68l-6.032-9.456v9.456h-1.408v-11.664h1.616l6.096 9.536v-9.536zm5.376 3.04q1.808 0 2.8 1.2 1.008 1.184 1.008 3.36 0 2.064-1.024 3.248-1.008 1.184-2.768 1.184-1.792 0-2.8-1.184-0.992-1.2-0.992-3.312t1.008-3.296q1.008-1.2 2.768-1.2zm0.016 1.232q-1.12 0-1.76 0.88-0.64 0.864-0.64 2.384t0.64 2.4q0.64 0.864 1.76 0.864 1.104 0 1.744-0.864 0.656-0.88 0.656-2.352 0-1.552-0.64-2.432-0.624-0.88-1.76-0.88zm9.184 0.176q-1.344 0.032-2.016 0.624t-0.672 2.24v4.352h-1.344v-8.384h1.232v1.52q0.576-0.944 1.104-1.344 0.544-0.416 1.184-0.416 0.176 0 0.512 0.048zm1.248-1.168h1.232v1.184q0.544-0.752 1.136-1.088 0.608-0.336 1.44-0.336 1.552 0 2.256 1.28 0.592-0.704 1.168-0.992t1.408-0.288q1.168 0 1.792 0.608 0.64 0.592 0.64 1.728v6.288h-1.344v-5.776q0-0.8-0.416-1.232-0.4-0.448-1.136-0.448-0.816 0-1.392 0.64t-0.576 1.552v5.264h-1.344v-5.776q0-0.8-0.416-1.232-0.4-0.448-1.136-0.448-0.816 0-1.392 0.64t-0.576 1.552v5.264h-1.344zm12.8 2.48q0.096-2.72 3.36-2.72 1.552 0 2.352 0.592 0.8 0.576 0.8 1.696v4.928q0 0.656 0.72 0.656 0.144 0 0.288-0.032v1.008q-0.56 0.144-0.912 0.144-0.64 0-0.976-0.304-0.32-0.288-0.4-0.928-1.344 1.232-2.848 1.232-1.264 0-2.016-0.672-0.736-0.672-0.736-1.808 0-0.368 0.064-0.672 0.08-0.304 0.16-0.528 0.096-0.24 0.32-0.432 0.224-0.208 0.368-0.336 0.16-0.128 0.512-0.24 0.368-0.128 0.56-0.176 0.192-0.064 0.672-0.144t0.704-0.112 0.8-0.112q0.784-0.096 1.088-0.304t0.304-0.624v-0.352q0-0.608-0.496-0.928-0.48-0.32-1.376-0.32-0.928 0-1.408 0.368-0.48 0.352-0.56 1.12zm2.672 5.104q1.104 0 1.808-0.576 0.704-0.592 0.704-1.264v-1.504q-0.4 0.192-1.216 0.32-0.8 0.128-1.392 0.224t-1.072 0.464q-0.48 0.352-0.48 0.992t0.432 0.992 1.216 0.352zm7.344-10.864v11.664h-1.344v-11.664z" fill="#fff" stroke-width=".068" aria-label="Normal"/><path d="m34.256 197.84q0.112-3.936 3.744-3.936 1.616 0 2.624 0.928t1.008 2.4q0 2.112-2.4 3.424l-1.6 0.864q-1.04 0.56-1.488 1.088t-0.56 1.248h5.968v1.392h-7.552q0.096-1.872 0.752-2.88 0.656-1.024 2.432-2.032l1.472-0.832q1.536-0.88 1.536-2.24 0-0.912-0.64-1.52t-1.6-0.608q-2.128 0-2.288 2.704zm8.784 2.24q0-1.504 0.272-2.64 0.272-1.152 0.672-1.808 0.416-0.656 0.976-1.056 0.576-0.416 1.072-0.544 0.512-0.128 1.072-0.128 1.296 0 2.144 0.784 0.864 0.784 1.072 2.176h-1.408q-0.176-0.816-0.672-1.264t-1.232-0.448q-1.216 0-1.872 1.12-0.64 1.104-0.656 3.184 0.928-1.264 2.608-1.264 1.52 0 2.496 1.008t0.976 2.592q0 1.664-1.056 2.752-1.04 1.072-2.656 1.072-3.808 0-3.808-5.536zm3.872-0.64q-1.04 0-1.696 0.672-0.656 0.656-0.656 1.712 0 1.088 0.656 1.824 0.656 0.72 1.648 0.72 0.976 0 1.616-0.688 0.64-0.704 0.64-1.776 0-1.136-0.592-1.792-0.592-0.672-1.616-0.672zm8.976 0.112q0-0.8 0.128-1.584 0.144-0.784 0.528-1.632t0.944-1.472q0.576-0.64 1.536-1.056 0.976-0.416 2.192-0.416 3.808 0 4.496 3.808h-1.52q-0.256-1.248-1.008-1.872t-2.144-0.624q-1.696 0-2.688 1.296-0.976 1.296-0.976 3.536 0 2.192 1.024 3.488 1.024 1.28 2.768 1.28 1.44 0 2.208-0.8 0.768-0.816 1.04-2.512h1.536q-0.528 4.624-4.8 4.624-1.2 0-2.16-0.4-0.944-0.416-1.52-1.04-0.56-0.624-0.944-1.456-0.368-0.848-0.512-1.616-0.128-0.768-0.128-1.552zm20.4-2.544q0 1.488-0.912 2.4-0.896 0.896-2.352 0.896h-3.664v4.944h-1.488v-11.664h4.816q1.728 0 2.656 0.896 0.944 0.88 0.944 2.528zm-6.928 1.984h3.104q1.072 0 1.664-0.544 0.608-0.544 0.608-1.504t-0.608-1.504q-0.592-0.544-1.664-0.544h-3.104zm14.976 6.256h-1.568l-3.312-9.776v9.776h-1.408v-11.664h2.064l3.456 10.16 3.392-10.16h2.064v11.664h-1.408v-9.776z" fill="#fff" stroke-width=".068" aria-label="26 CPM"/><path d="m37.808 220.88q-1.216 0-1.68 0.672-0.448 0.656-0.48 1.76h-1.408q0.08-3.664 3.552-3.664 1.616 0 2.528 0.832 0.928 0.832 0.928 2.288 0 1.728-1.584 2.352 1.024 0.352 1.472 0.992 0.448 0.624 0.448 1.712 0 1.616-1.056 2.576-1.04 0.96-2.784 0.96-3.488 0-3.744-3.664h1.408q0.08 1.232 0.656 1.824t1.728 0.592q1.104 0 1.728-0.592 0.624-0.608 0.624-1.68 0-2.064-2.352-2.064l-0.592 0.016h-0.176v-1.2q1.52-0.032 2.144-0.384 0.64-0.352 0.64-1.392 0-0.896-0.544-1.408-0.528-0.528-1.456-0.528zm5.264 4.624q0-1.424 0.24-2.512t0.608-1.696q0.368-0.624 0.88-1.008t0.976-0.512q0.48-0.128 1.008-0.128 3.712 0 3.712 5.952 0 2.8-0.96 4.288-0.944 1.472-2.752 1.472-1.824 0-2.768-1.488-0.944-1.504-0.944-4.368zm5.984-0.032q0-4.576-2.272-4.576t-2.272 4.624q0 4.672 2.24 4.672 1.184 0 1.744-1.152t0.56-3.568zm8.176 3.024q0.096 0.752 0.512 1.2 0.432 0.432 1.536 0.432 0.88 0 1.408-0.352 0.544-0.368 0.544-0.96 0-0.464-0.304-0.736t-0.992-0.432l-1.248-0.304q-1.488-0.352-2.08-0.88-0.576-0.544-0.576-1.536 0-1.168 0.88-1.856 0.88-0.704 2.336-0.704t2.24 0.672 0.8 1.904h-1.408q-0.048-1.344-1.68-1.344-0.816 0-1.296 0.352-0.48 0.336-0.48 0.912 0 0.448 0.368 0.736 0.368 0.272 1.184 0.464l1.28 0.304q1.248 0.304 1.808 0.864 0.56 0.544 0.56 1.472 0 1.216-0.944 1.936-0.928 0.72-2.512 0.72-3.248 0-3.344-2.864z" fill="#fff" stroke-width=".068" aria-label="30 s"/><path d="m55.096 101.25q-2.352 1.344-5.76 1.344t-5.76-1.344q-2.352-1.392-3.648-3.936-1.248-2.544-1.776-5.568-0.528-3.072-0.528-7.056 0-8.688 2.64-13.296 2.64-4.656 9.072-4.656 3.36 0 5.664 1.296 2.352 1.248 3.648 3.744t1.824 5.664q0.576 3.168 0.576 7.44 0 3.84-0.528 6.864-0.528 2.976-1.776 5.568-1.248 2.544-3.648 3.936zm-0.768-16.512q0-6.96-1.296-9.744-1.248-2.832-3.696-2.832-2.688 0-3.84 2.736-1.152 2.688-1.152 9.744 0 4.896 0.624 7.68 0.624 2.736 1.632 3.648 1.056 0.864 2.736 0.864 1.632 0 2.64-0.864 1.056-0.864 1.68-3.6 0.672-2.784 0.672-7.632zm18.192 9.744v7.008h-7.2v-7.008zm13.824-16.464h-8.16v-4.464q8.832 0 10.416-6.096h4.464v34.032h-6.72zm17.088-0.432q0-2.64 0.72-4.656 0.768-2.016 1.872-3.168 1.152-1.152 2.688-1.824 1.536-0.72 2.88-0.96 1.392-0.24 2.88-0.24 4.944 0 7.872 2.544 2.928 2.496 2.928 6.72 0 2.352-1.056 4.08-1.056 1.68-3.408 3.168 2.88 1.392 4.224 3.456 1.344 2.016 1.344 4.992 0 4.992-3.264 7.968-3.216 2.928-8.64 2.928-5.232 0-8.352-2.976-3.072-3.024-3.12-8.112h6.528q0.288 5.328 5.088 5.328 2.208 0 3.6-1.44 1.44-1.44 1.44-3.696 0-1.872-1.008-3.216-1.008-1.392-2.688-1.872-1.344-0.336-3.936-0.336v-4.512h0.576q5.952 0 5.952-5.136 0-2.112-1.104-3.264-1.104-1.2-3.12-1.2-2.64 0-3.6 1.488t-1.056 4.512h-6.24z" fill="#fff" stroke-width=".068"/><path d="m69.864 123.89h-1.2v-1.168q-0.592 0.832-1.232 1.184t-1.568 0.352q-1.216 0-1.952-0.624-0.72-0.624-0.72-1.664v-6.464h1.328v5.936q0 0.752 0.464 1.2t1.264 0.448q1.04 0 1.664-0.768 0.624-0.784 0.624-2.064v-4.752h1.328zm6.432-0.944q0.896 0 1.52-0.208t0.912-0.544q0.304-0.336 0.416-0.656 0.128-0.336 0.128-0.704 0-1.328-2.144-1.888l-2.896-0.768q-2.288-0.592-2.288-2.72 0-1.584 1.104-2.496 1.12-0.928 3.04-0.928 2.016 0 3.136 0.96 1.12 0.944 1.136 2.656h-1.408q-0.016-1.136-0.768-1.744-0.752-0.624-2.144-0.624-1.184 0-1.904 0.544-0.704 0.544-0.704 1.424 0 0.672 0.432 1.056t1.488 0.672l2.928 0.784q1.184 0.32 1.824 1.088 0.656 0.768 0.656 1.84 0 0.464-0.128 0.928-0.112 0.448-0.432 0.944-0.32 0.48-0.816 0.848t-1.328 0.608q-0.816 0.24-1.856 0.24-0.656 0-1.264-0.112-0.592-0.096-1.216-0.368-0.624-0.288-1.072-0.72-0.448-0.448-0.752-1.184-0.288-0.736-0.304-1.696h1.408v0.08q0 0.496 0.144 0.928 0.16 0.432 0.496 0.848 0.352 0.416 1.024 0.672 0.688 0.24 1.632 0.24zm9.6 0.944h-1.456l-2.944-8.384h1.504l2.24 6.8 2.368-6.8h1.504zm7.04-11.664h0.88l-3.792 11.984h-0.88zm7.072 5.856q0-0.88-0.544-1.264-0.528-0.384-1.184-0.384-1.024 0-1.648 0.784-0.624 0.768-0.624 2.048v4.624h-1.328v-11.664h1.328v4.432q0.592-0.768 1.184-1.072 0.608-0.32 1.504-0.32 1.216 0 1.92 0.624 0.72 0.608 0.72 1.664v6.336h-1.328z" fill="#fff" stroke-width=".068"/><path d="m15.704 17.416q0 1.504-0.944 2.416t-2.496 0.912h-5.264v-11.664h4.736q0.976 0 1.696 0.288t1.072 0.768q0.368 0.464 0.528 0.944 0.16 0.464 0.16 0.96 0 1.792-1.616 2.544 1.12 0.432 1.616 1.104 0.512 0.672 0.512 1.728zm-4.336-3.312q2.336 0 2.336-1.856t-2.336-1.856h-2.88v3.712zm0.752 5.328q0.784 0 1.28-0.336 0.496-0.352 0.656-0.768t0.16-0.896q0-0.912-0.544-1.456-0.544-0.56-1.552-0.56h-3.632v4.016zm12.272-2.432h-6.176q0.032 1.312 0.672 2.096 0.656 0.784 1.792 0.784 1.632 0 2.192-1.68h1.344q-0.256 1.376-1.2 2.144t-2.384 0.768q-1.76 0-2.784-1.184-1.024-1.2-1.024-3.264t1.04-3.296q1.056-1.248 2.8-1.248 3.728 0 3.728 4.88zm-6.144-1.088h4.72q0-1.088-0.656-1.824t-1.664-0.736-1.664 0.704q-0.656 0.688-0.736 1.856zm10.752-3.552v1.088h-1.376v5.744q0 0.448 0.144 0.608 0.16 0.144 0.592 0.144 0.4 0 0.64-0.064v1.12q-0.624 0.112-1.088 0.112-0.784 0-1.2-0.352-0.416-0.336-0.416-0.976v-6.336h-1.136v-1.088h1.136v-2.304h1.328v2.304zm1.088 2.48q0.096-2.72 3.36-2.72 1.552 0 2.352 0.592 0.8 0.576 0.8 1.696v4.928q0 0.656 0.72 0.656 0.144 0 0.288-0.032v1.008q-0.56 0.144-0.912 0.144-0.64 0-0.976-0.304-0.32-0.288-0.4-0.928-1.344 1.232-2.848 1.232-1.264 0-2.016-0.672-0.736-0.672-0.736-1.808 0-0.368 0.064-0.672 0.08-0.304 0.16-0.528 0.096-0.24 0.32-0.432 0.224-0.208 0.368-0.336 0.16-0.128 0.512-0.24 0.368-0.128 0.56-0.176 0.192-0.064 0.672-0.144t0.704-0.112 0.8-0.112q0.784-0.096 1.088-0.304t0.304-0.624v-0.352q0-0.608-0.496-0.928-0.48-0.32-1.376-0.32-0.928 0-1.408 0.368-0.48 0.352-0.56 1.12zm2.672 5.104q1.104 0 1.808-0.576 0.704-0.592 0.704-1.264v-1.504q-0.4 0.192-1.216 0.32-0.8 0.128-1.392 0.224t-1.072 0.464q-0.48 0.352-0.48 0.992t0.432 0.992 1.216 0.352zm16.624-0.448q-0.8 0.784-1.312 1.072-0.944 0.544-2.032 0.544-1.472 0-2.384-0.864-0.896-0.88-0.896-2.32 0-1.088 0.544-1.808 0.56-0.736 2.048-1.6-0.752-0.944-1.024-1.488-0.272-0.56-0.272-1.12 0-1.056 0.8-1.776 0.8-0.736 1.936-0.736t1.872 0.704q0.736 0.704 0.736 1.808 0 0.864-0.48 1.472t-1.728 1.312l2.128 2.608q0.496-0.88 0.496-1.84v-0.064h1.28q0 1.504-0.928 2.928l1.952 2.416h-1.744zm-2.896-5.648q0.944-0.592 1.296-1.008t0.352-0.96q0-0.592-0.4-0.976-0.384-0.384-0.992-0.384-0.624 0-1.008 0.384-0.368 0.368-0.368 0.992 0 0.432 0.192 0.784 0.208 0.336 0.928 1.168zm2.128 4.704-2.56-3.2q-1.088 0.688-1.52 1.248-0.432 0.544-0.432 1.216 0 0.848 0.608 1.456 0.624 0.592 1.488 0.592 1.168 0 2.416-1.312zm10.112-3.6q0 0.608 0.112 1.232 0.112 0.608 0.4 1.28t0.736 1.184q0.464 0.496 1.216 0.832 0.752 0.32 1.712 0.32 1.6 0 2.624-1.008 1.04-1.008 1.04-2.576v-0.32h-3.552v-1.312h4.864v6.224h-0.944l-0.368-1.552q-1.664 1.856-3.984 1.856-2.368 0-3.856-1.696t-1.488-4.384q0-0.768 0.144-1.536 0.144-0.784 0.544-1.632t0.992-1.488q0.608-0.64 1.616-1.056 1.024-0.432 2.304-0.432 2 0 3.28 0.976 1.296 0.976 1.6 2.752h-1.52q-0.24-1.12-1.152-1.76-0.896-0.656-2.224-0.656-1.856 0-2.976 1.312-1.12 1.296-1.12 3.44zm10.8-0.112q0.096-2.72 3.36-2.72 1.552 0 2.352 0.592 0.8 0.576 0.8 1.696v4.928q0 0.656 0.72 0.656 0.144 0 0.288-0.032v1.008q-0.56 0.144-0.912 0.144-0.64 0-0.976-0.304-0.32-0.288-0.4-0.928-1.344 1.232-2.848 1.232-1.264 0-2.016-0.672-0.736-0.672-0.736-1.808 0-0.368 0.064-0.672 0.08-0.304 0.16-0.528 0.096-0.24 0.32-0.432 0.224-0.208 0.368-0.336 0.16-0.128 0.512-0.24 0.368-0.128 0.56-0.176 0.192-0.064 0.672-0.144t0.704-0.112 0.8-0.112q0.784-0.096 1.088-0.304t0.304-0.624v-0.352q0-0.608-0.496-0.928-0.48-0.32-1.376-0.32-0.928 0-1.408 0.368-0.48 0.352-0.56 1.12zm2.672 5.104q1.104 0 1.808-0.576 0.704-0.592 0.704-1.264v-1.504q-0.4 0.192-1.216 0.32-0.8 0.128-1.392 0.224t-1.072 0.464q-0.48 0.352-0.48 0.992t0.432 0.992 1.216 0.352zm6.048-7.584h1.232v1.184q0.544-0.752 1.136-1.088 0.608-0.336 1.44-0.336 1.552 0 2.256 1.28 0.592-0.704 1.168-0.992t1.408-0.288q1.168 0 1.792 0.608 0.64 0.592 0.64 1.728v6.288h-1.344v-5.776q0-0.8-0.416-1.232-0.4-0.448-1.136-0.448-0.816 0-1.392 0.64t-0.576 1.552v5.264h-1.344v-5.776q0-0.8-0.416-1.232-0.4-0.448-1.136-0.448-0.816 0-1.392 0.64t-0.576 1.552v5.264h-1.344zm12.832 0h1.232v1.184q0.544-0.752 1.136-1.088 0.608-0.336 1.44-0.336 1.552 0 2.256 1.28 0.592-0.704 1.168-0.992t1.408-0.288q1.168 0 1.792 0.608 0.64 0.592 0.64 1.728v6.288h-1.344v-5.776q0-0.8-0.416-1.232-0.4-0.448-1.136-0.448-0.816 0-1.392 0.64t-0.576 1.552v5.264h-1.344v-5.776q0-0.8-0.416-1.232-0.4-0.448-1.136-0.448-0.816 0-1.392 0.64t-0.576 1.552v5.264h-1.344zm12.8 2.48q0.096-2.72 3.36-2.72 1.552 0 2.352 0.592 0.8 0.576 0.8 1.696v4.928q0 0.656 0.72 0.656 0.144 0 0.288-0.032v1.008q-0.56 0.144-0.912 0.144-0.64 0-0.976-0.304-0.32-0.288-0.4-0.928-1.344 1.232-2.848 1.232-1.264 0-2.016-0.672-0.736-0.672-0.736-1.808 0-0.368 0.064-0.672 0.08-0.304 0.16-0.528 0.096-0.24 0.32-0.432 0.224-0.208 0.368-0.336 0.16-0.128 0.512-0.24 0.368-0.128 0.56-0.176 0.192-0.064 0.672-0.144t0.704-0.112 0.8-0.112q0.784-0.096 1.088-0.304t0.304-0.624v-0.352q0-0.608-0.496-0.928-0.48-0.32-1.376-0.32-0.928 0-1.408 0.368-0.48 0.352-0.56 1.12zm2.672 5.104q1.104 0 1.808-0.576 0.704-0.592 0.704-1.264v-1.504q-0.4 0.192-1.216 0.32-0.8 0.128-1.392 0.224t-1.072 0.464q-0.48 0.352-0.48 0.992t0.432 0.992 1.216 0.352zm13.76-4.192v1.152h-3.856v-1.152zm6.864-0.8q0 0.608 0.112 1.232 0.112 0.608 0.4 1.28t0.736 1.184q0.464 0.496 1.216 0.832 0.752 0.32 1.712 0.32 1.6 0 2.624-1.008 1.04-1.008 1.04-2.576v-0.32h-3.552v-1.312h4.864v6.224h-0.944l-0.368-1.552q-1.664 1.856-3.984 1.856-2.368 0-3.856-1.696t-1.488-4.384q0-0.768 0.144-1.536 0.144-0.784 0.544-1.632t0.992-1.488q0.608-0.64 1.616-1.056 1.024-0.432 2.304-0.432 2 0 3.28 0.976 1.296 0.976 1.6 2.752h-1.52q-0.24-1.12-1.152-1.76-0.896-0.656-2.224-0.656-1.856 0-2.976 1.312-1.12 1.296-1.12 3.44zm17.36 5.792h-1.568l-3.312-9.776v9.776h-1.408v-11.664h2.064l3.456 10.16 3.392-10.16h2.064v11.664h-1.408v-9.776zm11.616-10.352v10.352h-1.488v-10.352h-3.84v-1.312h9.152v1.312zm10.432 4.56q0 0.608 0.112 1.232 0.112 0.608 0.4 1.28t0.736 1.184q0.464 0.496 1.216 0.832 0.752 0.32 1.712 0.32 1.6 0 2.624-1.008 1.04-1.008 1.04-2.576v-0.32h-3.552v-1.312h4.864v6.224h-0.944l-0.368-1.552q-1.664 1.856-3.984 1.856-2.368 0-3.856-1.696t-1.488-4.384q0-0.768 0.144-1.536 0.144-0.784 0.544-1.632t0.992-1.488q0.608-0.64 1.616-1.056 1.024-0.432 2.304-0.432 2 0 3.28 0.976 1.296 0.976 1.6 2.752h-1.52q-0.24-1.12-1.152-1.76-0.896-0.656-2.224-0.656-1.856 0-2.976 1.312-1.12 1.296-1.12 3.44zm18.16 2.048h-6.176q0.032 1.312 0.672 2.096 0.656 0.784 1.792 0.784 1.632 0 2.192-1.68h1.344q-0.256 1.376-1.2 2.144t-2.384 0.768q-1.76 0-2.784-1.184-1.024-1.2-1.024-3.264t1.04-3.296q1.056-1.248 2.8-1.248 3.728 0 3.728 4.88zm-6.144-1.088h4.72q0-1.088-0.656-1.824t-1.664-0.736-1.664 0.704q-0.656 0.688-0.736 1.856zm8.944-3.552v8.384h-1.328v-8.384zm0-3.28v1.68h-1.344v-1.68zm4.928 12.032q-1.472 0-2.464-1.2-0.992-1.216-0.992-3.216 0-2.048 0.976-3.312 0.992-1.264 2.592-1.264 1.568 0 2.56 1.456l-0.16-1.216h1.392v7.008q0 1.2-0.144 2-0.144 0.816-0.528 1.504t-1.152 1.024q-0.752 0.336-1.92 0.336-1.472 0-2.352-0.672t-0.992-1.856h1.36q0.224 1.408 2.032 1.408 1.344 0 1.84-0.768 0.496-0.752 0.496-2.304v-0.432q-0.56 0.8-1.168 1.152-0.592 0.352-1.376 0.352zm0.256-7.76q-1.072 0-1.696 0.88t-0.624 2.384q0 1.52 0.624 2.4 0.624 0.864 1.712 0.864 1.056 0 1.664-0.848 0.608-0.864 0.608-2.368 0-1.568-0.608-2.432-0.592-0.88-1.68-0.88zm12.496 3.648h-6.176q0.032 1.312 0.672 2.096 0.656 0.784 1.792 0.784 1.632 0 2.192-1.68h1.344q-0.256 1.376-1.2 2.144t-2.384 0.768q-1.76 0-2.784-1.184-1.024-1.2-1.024-3.264t1.04-3.296q1.056-1.248 2.8-1.248 3.728 0 3.728 4.88zm-6.144-1.088h4.72q0-1.088-0.656-1.824t-1.664-0.736-1.664 0.704q-0.656 0.688-0.736 1.856zm11.584-2.384q-1.344 0.032-2.016 0.624t-0.672 2.24v4.352h-1.344v-8.384h1.232v1.52q0.576-0.944 1.104-1.344 0.544-0.416 1.184-0.416 0.176 0 0.512 0.048zm4.96 1.52q0-0.8 0.128-1.584 0.144-0.784 0.528-1.632t0.944-1.472q0.576-0.64 1.536-1.056 0.976-0.416 2.192-0.416 3.808 0 4.496 3.808h-1.52q-0.256-1.248-1.008-1.872t-2.144-0.624q-1.696 0-2.688 1.296-0.976 1.296-0.976 3.536 0 2.192 1.024 3.488 1.024 1.28 2.768 1.28 1.44 0 2.208-0.8 0.768-0.816 1.04-2.512h1.536q-0.528 4.624-4.8 4.624-1.2 0-2.16-0.4-0.944-0.416-1.52-1.04-0.56-0.624-0.944-1.456-0.368-0.848-0.512-1.616-0.128-0.768-0.128-1.552zm14.96-2.928q1.808 0 2.8 1.2 1.008 1.184 1.008 3.36 0 2.064-1.024 3.248-1.008 1.184-2.768 1.184-1.792 0-2.8-1.184-0.992-1.2-0.992-3.312t1.008-3.296q1.008-1.2 2.768-1.2zm0.016 1.232q-1.12 0-1.76 0.88-0.64 0.864-0.64 2.384t0.64 2.4q0.64 0.864 1.76 0.864 1.104 0 1.744-0.864 0.656-0.88 0.656-2.352 0-1.552-0.64-2.432-0.624-0.88-1.76-0.88zm11.824 7.392h-1.2v-1.168q-0.592 0.832-1.232 1.184t-1.568 0.352q-1.216 0-1.952-0.624-0.72-0.624-0.72-1.664v-6.464h1.328v5.936q0 0.752 0.464 1.2t1.264 0.448q1.04 0 1.664-0.768 0.624-0.784 0.624-2.064v-4.752h1.328zm1.792-8.384h1.232v1.408q0.56-0.88 1.2-1.264 0.656-0.384 1.584-0.384 1.216 0 1.936 0.624t0.72 1.664v6.336h-1.328v-5.808q0-0.752-0.464-1.2t-1.264-0.448q-1.024 0-1.648 0.784-0.624 0.768-0.624 2.048v4.624h-1.344zm11.712 0v1.088h-1.376v5.744q0 0.448 0.144 0.608 0.16 0.144 0.592 0.144 0.4 0 0.64-0.064v1.12q-0.624 0.112-1.088 0.112-0.784 0-1.2-0.352-0.416-0.336-0.416-0.976v-6.336h-1.136v-1.088h1.136v-2.304h1.328v2.304zm8.208 4.64h-6.176q0.032 1.312 0.672 2.096 0.656 0.784 1.792 0.784 1.632 0 2.192-1.68h1.344q-0.256 1.376-1.2 2.144t-2.384 0.768q-1.76 0-2.784-1.184-1.024-1.2-1.024-3.264t1.04-3.296q1.056-1.248 2.8-1.248 3.728 0 3.728 4.88zm-6.144-1.088h4.72q0-1.088-0.656-1.824t-1.664-0.736-1.664 0.704q-0.656 0.688-0.736 1.856zm11.584-2.384q-1.344 0.032-2.016 0.624t-0.672 2.24v4.352h-1.344v-8.384h1.232v1.52q0.576-0.944 1.104-1.344 0.544-0.416 1.184-0.416 0.176 0 0.512 0.048z" fill="#fff" stroke-width=".068" aria-label="Beta &amp; Gamma - GMT Geiger Counter"/><circle cx="16" cy="45" r="10" filter="url(#q)"/><circle cx="16" cy="45" r="9.5" fill="#0080ff" stroke="#fff" stroke-linecap="round"/><path d="m16.483 42.893h-2.198v-0.882q1.428-0.182 1.862-0.504t0.756-1.47h0.812v9.926h-1.232z" fill="#fff" stroke-linecap="round" aria-label="1"/><circle cx="16" cy="68" r="10" filter="url(#a)"/><circle cx="16" cy="68" r="9.5" fill="#0080ff" stroke="#fff" stroke-linecap="round"/><path d="m12.885 66.481q0.098-3.444 3.276-3.444 1.414 0 2.296 0.812t0.882 2.1q0 1.848-2.1 2.996l-1.4 0.756q-0.91 0.49-1.302 0.952t-0.49 1.092h5.222v1.218h-6.608q0.084-1.638 0.658-2.52 0.574-0.896 2.128-1.778l1.288-0.728q1.344-0.77 1.344-1.96 0-0.798-0.56-1.33t-1.4-0.532q-1.862 0-2.002 2.366z" fill="#fff" stroke-linecap="round" aria-label="2"/><circle cx="149" cy="173.5" r="10" filter="url(#p)"/><circle cx="149" cy="173.5" r="9.5" fill="#0080ff" stroke="#fff" stroke-linecap="round"/><path d="m149.01 169.45q-1.064 0-1.47 0.588-0.392 0.574-0.42 1.54h-1.232q0.07-3.206 3.108-3.206 1.414 0 2.212 0.728 0.812 0.728 0.812 2.002 0 1.512-1.386 2.058 0.896 0.308 1.288 0.868 0.392 0.546 0.392 1.498 0 1.414-0.924 2.254-0.91 0.84-2.436 0.84-3.052 0-3.276-3.206h1.232q0.07 1.078 0.574 1.596t1.512 0.518q0.966 0 1.512-0.518 0.546-0.532 0.546-1.47 0-1.806-2.058-1.806l-0.518 0.014h-0.154v-1.05q1.33-0.028 1.876-0.336 0.56-0.308 0.56-1.218 0-0.784-0.476-1.232-0.462-0.462-1.274-0.462z" fill="#fff" stroke-linecap="round" aria-label="3"/><circle cx="149" cy="199.5" r="10" filter="url(#o)"/><circle cx="149" cy="199.5" r="9.5" fill="#0080ff" stroke="#fff" stroke-linecap="round"/><path d="m149.74 202.08h-4.186v-1.302l4.508-6.244h0.91v6.44h1.47v1.106h-1.47v2.38h-1.232zm0-1.106v-4.34l-3.108 4.34z" fill="#fff" stroke-linecap="round" aria-label="4"/><circle cx="149" cy="225.5" r="10" filter="url(#b)"/><circle cx="149" cy="225.5" r="9.5" fill="#0080ff" stroke="#fff" stroke-linecap="round"/><path d="m151.83 220.38v1.218h-4.13l-0.392 2.772q0.826-0.602 1.834-0.602 1.428 0 2.31 0.924 0.896 0.91 0.896 2.38 0 1.568-0.952 2.562t-2.45 0.994q-0.574 0-1.064-0.126-0.476-0.126-0.798-0.294-0.308-0.182-0.574-0.462-0.252-0.294-0.392-0.504-0.126-0.224-0.252-0.546-0.112-0.336-0.14-0.462t-0.07-0.364h1.232q0.434 1.666 2.03 1.666 1.008 0 1.582-0.616 0.588-0.616 0.588-1.68 0-1.106-0.588-1.736-0.588-0.644-1.582-0.644-0.574 0-0.98 0.21-0.406 0.196-0.84 0.714h-1.134l0.742-5.404z" fill="#fff" stroke-linecap="round" aria-label="5"/><circle cx="176" cy="44" r="10" filter="url(#n)"/><circle cx="176" cy="44" r="9.5" fill="#0080ff" stroke="#fff" stroke-linecap="round"/><path d="m172.71 44.28q0-1.316 0.238-2.31 0.238-1.008 0.588-1.582 0.364-0.574 0.854-0.924 0.504-0.364 0.938-0.476 0.448-0.112 0.938-0.112 1.134 0 1.876 0.686 0.756 0.686 0.938 1.904h-1.232q-0.154-0.714-0.588-1.106t-1.078-0.392q-1.064 0-1.638 0.98-0.56 0.966-0.574 2.786 0.812-1.106 2.282-1.106 1.33 0 2.184 0.882t0.854 2.268q0 1.456-0.924 2.408-0.91 0.938-2.324 0.938-3.332 0-3.332-4.844zm3.388-0.56q-0.91 0-1.484 0.588-0.574 0.574-0.574 1.498 0 0.952 0.574 1.596 0.574 0.63 1.442 0.63 0.854 0 1.414-0.602 0.56-0.616 0.56-1.554 0-0.994-0.518-1.568-0.518-0.588-1.414-0.588z" fill="#fff" stroke-linecap="round" aria-label="6"/><circle cx="228" cy="44" r="10" filter="url(#m)"/><circle cx="228" cy="44" r="9.5" fill="#0080ff" stroke="#fff" stroke-linecap="round"/><path d="m231.32 39.037v1.036q-1.68 2.24-2.66 4.382-0.966 2.128-1.372 4.508h-1.316q0.56-2.45 1.428-4.312t2.646-4.396h-5.362v-1.218z" fill="#fff" stroke-linecap="round" aria-label="7"/><circle cx="280" cy="44" r="10" filter="url(#i)"/><circle cx="280" cy="44" r="9.5" fill="#0080ff" stroke="#fff" stroke-linecap="round"/><path d="m281.62 43.58q1.708 0.812 1.708 2.478 0 1.358-0.938 2.212-0.924 0.854-2.394 0.854t-2.408-0.854q-0.924-0.868-0.924-2.226 0-1.652 1.694-2.464-0.756-0.476-1.05-0.924t-0.294-1.134q0-1.162 0.826-1.904 0.84-0.742 2.156-0.742t2.142 0.742q0.84 0.742 0.84 1.904 0 0.7-0.294 1.148t-1.064 0.91zm-0.378-3.178q-0.462-0.434-1.246-0.434t-1.26 0.434q-0.462 0.42-0.462 1.134 0 0.7 0.462 1.134 0.476 0.42 1.26 0.42 0.77 0 1.246-0.42t0.476-1.12q0-0.728-0.476-1.148zm0.252 4.27q-0.574-0.546-1.498-0.546t-1.498 0.546q-0.574 0.532-0.574 1.4t0.56 1.414q0.574 0.546 1.484 0.546 0.938 0 1.512-0.532 0.588-0.546 0.588-1.428 0-0.868-0.574-1.4z" fill="#fff" stroke-linecap="round" aria-label="8"/><circle cx="176" cy="96" r="10" filter="url(#e)"/><circle cx="176" cy="96" r="9.5" fill="#0080ff" stroke="#fff" stroke-linecap="round"/><path d="m179.3 95.72q0 1.316-0.238 2.324-0.238 0.994-0.602 1.568-0.35 0.574-0.854 0.938-0.49 0.35-0.938 0.462t-0.938 0.112q-1.134 0-1.89-0.686-0.742-0.686-0.924-1.904h1.232q0.154 0.714 0.588 1.106 0.434 0.392 1.078 0.392 1.064 0 1.624-0.966 0.574-0.98 0.588-2.8-0.924 1.106-2.268 1.106t-2.198-0.882-0.854-2.268q0-1.456 0.91-2.394 0.924-0.952 2.338-0.952 3.346 0 3.346 4.844zm-3.36-3.766q-0.854 0-1.414 0.616t-0.56 1.554q0 0.994 0.518 1.582 0.518 0.574 1.414 0.574t1.47-0.588q0.588-0.588 0.588-1.498 0-0.966-0.574-1.596-0.574-0.644-1.442-0.644z" fill="#fff" stroke-linecap="round" aria-label="9"/><circle cx="228" cy="96" r="10" filter="url(#l)"/><circle cx="228" cy="96" r="9.5" fill="#0080ff" stroke="#fff" stroke-linecap="round"/><path d="m223.47 93.732h-2.198v-0.882q1.428-0.182 1.862-0.504t0.756-1.47h0.812v9.926h-1.232zm4.76 2.268q0-1.246 0.21-2.198t0.532-1.484q0.322-0.546 0.77-0.882t0.854-0.448q0.42-0.112 0.882-0.112 3.248 0 3.248 5.208 0 2.45-0.84 3.752-0.826 1.288-2.408 1.288-1.596 0-2.422-1.302-0.826-1.316-0.826-3.822zm5.236-0.028q0-4.004-1.988-4.004t-1.988 4.046q0 4.088 1.96 4.088 1.036 0 1.526-1.008 0.49-1.008 0.49-3.122z" fill="#fff" stroke-linecap="round" aria-label="10"/><circle cx="280" cy="96" r="10" filter="url(#h)"/><circle cx="280" cy="96" r="9.5" fill="#0080ff" stroke="#fff" stroke-linecap="round"/><path d="m276.59 93.893h-2.198v-0.882q1.428-0.182 1.862-0.504t0.756-1.47h0.812v9.926h-1.232zm7.784 0h-2.198v-0.882q1.428-0.182 1.862-0.504t0.756-1.47h0.812v9.926h-1.232z" fill="#fff" stroke-linecap="round" aria-label="11"/><circle cx="176" cy="148" r="10" filter="url(#d)"/><circle cx="176" cy="148" r="9.5" fill="#0080ff" stroke="#fff" stroke-linecap="round"/><path d="m171.44 145.89h-2.198v-0.882q1.428-0.182 1.862-0.504t0.756-1.47h0.812v9.926h-1.232zm4.858 0.588q0.098-3.444 3.276-3.444 1.414 0 2.296 0.812t0.882 2.1q0 1.848-2.1 2.996l-1.4 0.756q-0.91 0.49-1.302 0.952t-0.49 1.092h5.222v1.218h-6.608q0.084-1.638 0.658-2.52 0.574-0.896 2.128-1.778l1.288-0.728q1.344-0.77 1.344-1.96 0-0.798-0.56-1.33t-1.4-0.532q-1.862 0-2.002 2.366z" fill="#fff" stroke-linecap="round" aria-label="12"/><circle cx="228" cy="148" r="10" filter="url(#k)"/><circle cx="228" cy="148" r="9.5" fill="#0080ff" stroke="#fff" stroke-linecap="round"/><path d="m223.48 145.73h-2.198v-0.882q1.428-0.182 1.862-0.504t0.756-1.47h0.812v9.926h-1.232zm7.938-1.778q-1.064 0-1.47 0.588-0.392 0.574-0.42 1.54h-1.232q0.07-3.206 3.108-3.206 1.414 0 2.212 0.728 0.812 0.728 0.812 2.002 0 1.512-1.386 2.058 0.896 0.308 1.288 0.868 0.392 0.546 0.392 1.498 0 1.414-0.924 2.254-0.91 0.84-2.436 0.84-3.052 0-3.276-3.206h1.232q0.07 1.078 0.574 1.596t1.512 0.518q0.966 0 1.512-0.518 0.546-0.532 0.546-1.47 0-1.806-2.058-1.806l-0.518 0.014h-0.154v-1.05q1.33-0.028 1.876-0.336 0.56-0.308 0.56-1.218 0-0.784-0.476-1.232-0.462-0.462-1.274-0.462z" fill="#fff" stroke-linecap="round" aria-label="13"/><circle cx="280" cy="148" r="10" filter="url(#g)"/><circle cx="280" cy="148" r="9.5" fill="#0080ff" stroke="#fff" stroke-linecap="round"/><path d="m275.38 145.89h-2.198v-0.882q1.428-0.182 1.862-0.504t0.756-1.47h0.812v9.926h-1.232zm8.736 4.69h-4.186v-1.302l4.508-6.244h0.91v6.44h1.47v1.106h-1.47v2.38h-1.232zm0-1.106v-4.34l-3.108 4.34z" fill="#fff" stroke-linecap="round" aria-label="14"/><circle cx="176" cy="200" r="10" filter="url(#c)"/><circle cx="176" cy="200" r="9.5" fill="#0080ff" stroke="#fff" stroke-linecap="round"/><path d="m171.43 197.73h-2.198v-0.882q1.428-0.182 1.862-0.504t0.756-1.47h0.812v9.926h-1.232zm10.822-2.856v1.218h-4.13l-0.392 2.772q0.826-0.602 1.834-0.602 1.428 0 2.31 0.924 0.896 0.91 0.896 2.38 0 1.568-0.952 2.562t-2.45 0.994q-0.574 0-1.064-0.126-0.476-0.126-0.798-0.294-0.308-0.182-0.574-0.462-0.252-0.294-0.392-0.504-0.126-0.224-0.252-0.546-0.112-0.336-0.14-0.462t-0.07-0.364h1.232q0.434 1.666 2.03 1.666 1.008 0 1.582-0.616 0.588-0.616 0.588-1.68 0-1.106-0.588-1.736-0.588-0.644-1.582-0.644-0.574 0-0.98 0.21-0.406 0.196-0.84 0.714h-1.134l0.742-5.404z" fill="#fff" stroke-linecap="round" aria-label="15"/><circle cx="228" cy="200" r="10" filter="url(#j)"/><circle cx="228" cy="200" r="9.5" fill="#0080ff" stroke="#fff" stroke-linecap="round"/><path d="m223.43 197.73h-2.198v-0.882q1.428-0.182 1.862-0.504t0.756-1.47h0.812v9.926h-1.232zm4.76 2.548q0-1.316 0.238-2.31 0.238-1.008 0.588-1.582 0.364-0.574 0.854-0.924 0.504-0.364 0.938-0.476 0.448-0.112 0.938-0.112 1.134 0 1.876 0.686 0.756 0.686 0.938 1.904h-1.232q-0.154-0.714-0.588-1.106t-1.078-0.392q-1.064 0-1.638 0.98-0.56 0.966-0.574 2.786 0.812-1.106 2.282-1.106 1.33 0 2.184 0.882t0.854 2.268q0 1.456-0.924 2.408-0.91 0.938-2.324 0.938-3.332 0-3.332-4.844zm3.388-0.56q-0.91 0-1.484 0.588-0.574 0.574-0.574 1.498 0 0.952 0.574 1.596 0.574 0.63 1.442 0.63 0.854 0 1.414-0.602 0.56-0.616 0.56-1.554 0-0.994-0.518-1.568-0.518-0.588-1.414-0.588z" fill="#fff" stroke-linecap="round" aria-label="16"/><circle cx="280" cy="200" r="10" filter="url(#f)"/><circle cx="280" cy="200" r="9.5" fill="#0080ff" stroke="#fff" stroke-linecap="round"/><path d="m275.38 197.89h-2.198v-0.882q1.428-0.182 1.862-0.504t0.756-1.47h0.812v9.926h-1.232zm11.438-2.856v1.036q-1.68 2.24-2.66 4.382-0.966 2.128-1.372 4.508h-1.316q0.56-2.45 1.428-4.312t2.646-4.396h-5.362v-1.218z" fill="#fff" stroke-linecap="round" aria-label="17"/></svg>
