<svg width="320" height="240" version="1.1" viewBox="0 0 320 240" xmlns="http://www.w3.org/2000/svg" xmlns:xlink="http://www.w3.org/1999/xlink"><defs><linearGradient id="a"><stop stop-color="#fff" offset="0"/><stop stop-color="#fff" stop-opacity="0" offset="1"/></linearGradient><linearGradient id="c" x1="77" x2="77" y1="154" y2="151" gradientUnits="userSpaceOnUse" xlink:href="#a"/><linearGradient id="b" x1="77" x2="77" y1="154" y2="151" gradientTransform="translate(6)" gradientUnits="userSpaceOnUse" xlink:href="#a"/><filter id="i" x="-.108" y="-.108" width="1.216" height="1.216" color-interpolation-filters="sRGB"><feGaussianBlur stdDeviation="0.9"/></filter><filter id="h" x="-.108" y="-.108" width="1.216" height="1.216" color-interpolation-filters="sRGB"><feGaussianBlur stdDeviation="0.9"/></filter><filter id="d" x="-.108" y="-.108" width="1.216" height="1.216" color-interpolation-filters="sRGB"><feGaussianBlur stdDeviation="0.9"/></filter><filter id="e" x="-.108" y="-.108" width="1.216" height="1.216" color-interpolation-filters="sRGB"><feGaussianBlur stdDeviation="0.9"/></filter><filter id="f" x="-.108" y="-.108" width="1.216" height="1.216" color-interpolation-filters="sRGB"><feGaussianBlur stdDeviation="0.9"/></filter><filter id="g" x="-.108" y="-.108" width="1.216" height="1.216" color-interpolation-filters="sRGB"><feGaussianBlur stdDeviation="0.9"/></filter></defs><rect width="320" height="240"/><rect x=".5" y=".5" width="319" height="239" fill="none" stroke="#fff"/><rect x=".5" y=".5" width="319" height="29" fill="#282830" stroke="#fff"/><rect x="2" y="2" width="51" height="26" fill="#585860"/><path d="m31.088 10.227a0.53132 0.53132 0 0 0-0.17341 0.0631l-7.3611 4.25a0.53132 0.53132 0 0 0 0 0.92009l7.3611 4.25a0.53132 0.53132 0 0 0 0.79688-0.46006v-8.5a0.53132 0.53132 0 0 0-0.43898-0.52315 0.53132 0.53132 0 0 0-0.1845 0z" fill="#fff"/><rect x="2.5" y="31.5" width="315" height="76" fill="#001838" stroke="#0080ff"/><rect x="2" y="109" width="157" height="51" fill="#282830"/><rect x="2" y="161" width="157" height="51" fill="#282830"/><rect x="160" y="109" width="158" height="51" fill="#282830"/><rect x="160" y="161" width="158" height="51" fill="#282830"/><rect x="64.5" y="156.5" width="31" height="8" fill="#282830"/><rect x="2" y="213" width="157" height="25" fill="#585860"/><rect x="160" y="213" width="158" height="25" fill="#585860"/><path d="m84.088 220.73a0.53132 0.53132 0 0 0-0.17341 0.0631l-7.3611 4.25a0.53132 0.53132 0 0 0 0 0.92009l7.3611 4.25a0.53132 0.53132 0 0 0 0.79687-0.46006v-8.5a0.53132 0.53132 0 0 0-0.43897-0.52315 0.53132 0.53132 0 0 0-0.1845 0z" fill="#fff"/><path d="m235.41 220.73a0.53132 0.53132 0 0 1 0.17341 0.0631l7.3611 4.25a0.53132 0.53132 0 0 1 0 0.92009l-7.3611 4.25a0.53132 0.53132 0 0 1-0.79687-0.46006v-8.5a0.53132 0.53132 0 0 1 0.43897-0.52315 0.53132 0.53132 0 0 1 0.1845 0z" fill="#fff"/><path d="m43 128.5c-1.3764 0-2.5 1.1236-2.5 2.5v0.5h-5.5c-1.3764 0-2.5 1.1236-2.5 2.5v3c0 1.3764 1.1236 2.5 2.5 2.5h5.5v0.5c0 1.3764 1.1236 2.5 2.5 2.5h76c1.3764 0 2.5-1.1236 2.5-2.5v-0.5h5.5c1.3764 0 2.5-1.1236 2.5-2.5v-3c0-1.3764-1.1236-2.5-2.5-2.5h-5.5v-0.5c0-1.3764-1.1236-2.5-2.5-2.5z" fill="#1a1a20" stop-color="#000000"/><rect x="32" y="130" width="96" height="7" ry="2" fill="#585860" stroke="#fff"/><rect x="40" y="127" width="80" height="13" ry="2" fill="#585860" stroke="#fff"/><path d="m72.405 137.14h-0.98l-2.07-6.11v6.11h-0.88v-7.29h1.29l2.16 6.35 2.12-6.35h1.29v7.29h-0.88v-6.11zm8.25-2.19h-2.81l-0.77 2.19h-0.99l2.6-7.29h1.2l2.56 7.29h-1.04zm-0.26-0.78-1.12-3.32-1.2 3.32zm3.99-4.32v7.29h-0.94v-7.29zm7.14 0v7.29h-1.05l-3.77-5.91v5.91h-0.88v-7.29h1.01l3.81 5.96v-5.96z" fill="#fff" aria-label="MAIN"/><path d="m43 180.5c-1.3764 0-2.5 1.1236-2.5 2.5v0.5h-5.5c-1.3764 0-2.5 1.1236-2.5 2.5v3c0 1.3764 1.1236 2.5 2.5 2.5h5.5v0.5c0 1.3764 1.1236 2.5 2.5 2.5h76c1.3764 0 2.5-1.1236 2.5-2.5v-0.5h5.5c1.3764 0 2.5-1.1236 2.5-2.5v-3c0-1.3764-1.1236-2.5-2.5-2.5h-5.5v-0.5c0-1.3764-1.1236-2.5-2.5-2.5z" fill="#1a1a20" stop-color="#000000"/><rect x="32" y="182" width="96" height="7" ry="2" fill="#585860" stroke="#fff"/><rect x="40" y="179" width="80" height="13" ry="2" fill="#585860" stroke="#fff"/><path d="m54.3 185.77v3.32h-0.93v-7.29h4.89v0.82h-3.96v2.33h3.48v0.82zm11.55-0.21q0 1.62-0.96 2.69t-2.56 1.07q-1.58 0-2.55-1.05-0.97-1.06-0.97-2.77t0.97-2.76q0.97-1.06 2.54-1.06 1.6 0 2.56 1.06 0.97 1.06 0.97 2.82zm-3.53-3.06q-1.16 0-1.87 0.83-0.71 0.82-0.71 2.17t0.71 2.18q0.72 0.82 1.88 0.82t1.87-0.82q0.72-0.82 0.72-2.14 0-1.38-0.71-2.21t-1.89-0.83zm5.51-0.7v6.47h3.6v0.82h-4.53v-7.29zm5.38 0v6.47h3.6v0.82h-4.53v-7.29zm11.14 3.76q0 1.62-0.96 2.69t-2.56 1.07q-1.58 0-2.55-1.05-0.97-1.06-0.97-2.77t0.97-2.76q0.97-1.06 2.54-1.06 1.6 0 2.56 1.06 0.97 1.06 0.97 2.82zm-3.53-3.06q-1.16 0-1.87 0.83-0.71 0.82-0.71 2.17t0.71 2.18q0.72 0.82 1.88 0.82t1.87-0.82q0.72-0.82 0.72-2.14 0-1.38-0.71-2.21t-1.89-0.83zm11.1 6.59h-1.02l-1.68-5.99-1.63 5.99h-1.02l-1.87-7.29h1.04l1.37 5.92 1.62-5.92h1l1.66 5.92 1.34-5.92h1.04zm3.45-3.32v2.5h4.3v0.82h-5.23v-7.29h5.05v0.82h-4.12v2.33h3.97v0.82zm9.83-0.28q0.32 0.14 0.53 0.33 0.22 0.19 0.31 0.43 0.1 0.24 0.13 0.45t0.03 0.5q0 0.09-0.01 0.26 0 0.17 0 0.25 0 0.41 0.09 0.69t0.35 0.46v0.23h-1.13q-0.2-0.46-0.2-1.19v-0.65q0-0.67-0.29-0.98-0.29-0.32-0.91-0.32h-2.4v3.14h-0.93v-7.29h3.36q1.07 0 1.64 0.51 0.58 0.5 0.58 1.44 0 0.62-0.27 1.03t-0.88 0.71zm0.18-1.61q0-0.72-0.38-0.99t-1.05-0.27h-2.25v2.51h2.25q0.74 0 1.08-0.3 0.35-0.3 0.35-0.95z" fill="#fff" aria-label="FOLLOWER"/><path d="m80 158c-2.4793 0-4.5 2.0207-4.5 4.5s2.0207 4.5 4.5 4.5 4.5-2.0207 4.5-4.5-2.0207-4.5-4.5-4.5z" fill="#1a1a20" stroke-width=".03125"/><path d="m80 156c-2.4793 0-4.5 2.0207-4.5 4.5s2.0207 4.5 4.5 4.5 4.5-2.0207 4.5-4.5-2.0207-4.5-4.5-4.5z" fill="#fff" stroke-width=".03125"/><path d="m80 124.5v-13.5" fill="none" stroke="#fff"/><path d="m80 208v-13.5" fill="none" stroke="#fff"/><path d="m80 154v-11.5" fill="none" stroke="#fff"/><path d="m77 155v-4" fill="none" stroke="url(#c)" stroke-linecap="round"/><path d="m83 155v-4" fill="none" stroke="url(#b)" stroke-linecap="round"/><path d="m77.477 205a0.31538 0.31538 0 0 0-0.27308 0.47301l2.5227 4.3694a0.31538 0.31538 0 0 0 0.54614 0l2.5227-4.3694a0.31538 0.31538 0 0 0-0.27308-0.47301z" fill="#fff" stroke-width=".019709"/><path d="m80 176.5v-9.5" fill="none" stroke="#fff"/><path d="m60.648 14.88q0 0.608 0.112 1.232 0.112 0.608 0.4 1.28t0.736 1.184q0.464 0.496 1.216 0.832 0.752 0.32 1.712 0.32 1.6 0 2.624-1.008 1.04-1.008 1.04-2.576v-0.32h-3.552v-1.312h4.864v6.224h-0.944l-0.368-1.552q-1.664 1.856-3.984 1.856-2.368 0-3.856-1.696t-1.488-4.384q0-0.768 0.144-1.536 0.144-0.784 0.544-1.632t0.992-1.488q0.608-0.64 1.616-1.056 1.024-0.432 2.304-0.432 2 0 3.28 0.976 1.296 0.976 1.6 2.752h-1.52q-0.24-1.12-1.152-1.76-0.896-0.656-2.224-0.656-1.856 0-2.976 1.312-1.12 1.296-1.12 3.44zm18.16 2.048h-6.176q0.032 1.312 0.672 2.096 0.656 0.784 1.792 0.784 1.632 0 2.192-1.68h1.344q-0.256 1.376-1.2 2.144t-2.384 0.768q-1.76 0-2.784-1.184-1.024-1.2-1.024-3.264t1.04-3.296q1.056-1.248 2.8-1.248 3.728 0 3.728 4.88zm-6.144-1.088h4.72q0-1.088-0.656-1.824t-1.664-0.736-1.664 0.704q-0.656 0.688-0.736 1.856zm8.944-3.552v8.384h-1.328v-8.384zm0-3.28v1.68h-1.344v-1.68zm4.928 12.032q-1.472 0-2.464-1.2-0.992-1.216-0.992-3.216 0-2.048 0.976-3.312 0.992-1.264 2.592-1.264 1.568 0 2.56 1.456l-0.16-1.216h1.392v7.008q0 1.2-0.144 2-0.144 0.816-0.528 1.504t-1.152 1.024q-0.752 0.336-1.92 0.336-1.472 0-2.352-0.672t-0.992-1.856h1.36q0.224 1.408 2.032 1.408 1.344 0 1.84-0.768 0.496-0.752 0.496-2.304v-0.432q-0.56 0.8-1.168 1.152-0.592 0.352-1.376 0.352zm0.256-7.76q-1.072 0-1.696 0.88t-0.624 2.384q0 1.52 0.624 2.4 0.624 0.864 1.712 0.864 1.056 0 1.664-0.848 0.608-0.864 0.608-2.368 0-1.568-0.608-2.432-0.592-0.88-1.68-0.88zm12.496 3.648h-6.176q0.032 1.312 0.672 2.096 0.656 0.784 1.792 0.784 1.632 0 2.192-1.68h1.344q-0.256 1.376-1.2 2.144t-2.384 0.768q-1.76 0-2.784-1.184-1.024-1.2-1.024-3.264t1.04-3.296q1.056-1.248 2.8-1.248 3.728 0 3.728 4.88zm-6.144-1.088h4.72q0-1.088-0.656-1.824t-1.664-0.736-1.664 0.704q-0.656 0.688-0.736 1.856zm11.584-2.384q-1.344 0.032-2.016 0.624t-0.672 2.24v4.352h-1.344v-8.384h1.232v1.52q0.576-0.944 1.104-1.344 0.544-0.416 1.184-0.416 0.176 0 0.512 0.048zm11.84 1.648h-1.344q-0.128-0.88-0.64-1.344-0.512-0.48-1.344-0.48-1.088 0-1.712 0.896-0.608 0.88-0.608 2.448 0 1.488 0.624 2.336t1.728 0.848q1.712 0 2.048-2.016h1.344q-0.128 1.536-1.024 2.4-0.896 0.848-2.4 0.848-1.712 0-2.72-1.184-0.992-1.2-0.992-3.232 0-2.08 1.008-3.328 1.024-1.248 2.72-1.248 1.456 0 2.32 0.784 0.88 0.784 0.992 2.272zm4.832-3.056q1.808 0 2.8 1.2 1.008 1.184 1.008 3.36 0 2.064-1.024 3.248-1.008 1.184-2.768 1.184-1.792 0-2.8-1.184-0.992-1.2-0.992-3.312t1.008-3.296q1.008-1.2 2.768-1.2zm0.016 1.232q-1.12 0-1.76 0.88-0.64 0.864-0.64 2.384t0.64 2.4q0.64 0.864 1.76 0.864 1.104 0 1.744-0.864 0.656-0.88 0.656-2.352 0-1.552-0.64-2.432-0.624-0.88-1.76-0.88zm11.824 7.392h-1.2v-1.168q-0.592 0.832-1.232 1.184t-1.568 0.352q-1.216 0-1.952-0.624-0.72-0.624-0.72-1.664v-6.464h1.328v5.936q0 0.752 0.464 1.2t1.264 0.448q1.04 0 1.664-0.768 0.624-0.784 0.624-2.064v-4.752h1.328zm1.792-8.384h1.232v1.408q0.56-0.88 1.2-1.264 0.656-0.384 1.584-0.384 1.216 0 1.936 0.624t0.72 1.664v6.336h-1.328v-5.808q0-0.752-0.464-1.2t-1.264-0.448q-1.024 0-1.648 0.784-0.624 0.768-0.624 2.048v4.624h-1.344zm11.712 0v1.088h-1.376v5.744q0 0.448 0.144 0.608 0.16 0.144 0.592 0.144 0.4 0 0.64-0.064v1.12q-0.624 0.112-1.088 0.112-0.784 0-1.2-0.352-0.416-0.336-0.416-0.976v-6.336h-1.136v-1.088h1.136v-2.304h1.328v2.304zm8.208 4.64h-6.176q0.032 1.312 0.672 2.096 0.656 0.784 1.792 0.784 1.632 0 2.192-1.68h1.344q-0.256 1.376-1.2 2.144t-2.384 0.768q-1.76 0-2.784-1.184-1.024-1.2-1.024-3.264t1.04-3.296q1.056-1.248 2.8-1.248 3.728 0 3.728 4.88zm-6.144-1.088h4.72q0-1.088-0.656-1.824t-1.664-0.736-1.664 0.704q-0.656 0.688-0.736 1.856zm11.584-2.384q-1.344 0.032-2.016 0.624t-0.672 2.24v4.352h-1.344v-8.384h1.232v1.52q0.576-0.944 1.104-1.344 0.544-0.416 1.184-0.416 0.176 0 0.512 0.048zm6.72-1.168v8.384h-1.328v-8.384zm0-3.28v1.68h-1.344v-1.68zm2.112 3.28h1.232v1.408q0.56-0.88 1.2-1.264 0.656-0.384 1.584-0.384 1.216 0 1.936 0.624t0.72 1.664v6.336h-1.328v-5.808q0-0.752-0.464-1.2t-1.264-0.448q-1.024 0-1.648 0.784-0.624 0.768-0.624 2.048v4.624h-1.344zm11.712 0v1.088h-1.392v7.296h-1.328v-7.296h-1.12v-1.088h1.12v-1.424q0-0.896 0.512-1.392 0.528-0.512 1.456-0.512 0.368 0 0.752 0.08v1.104q-0.304-0.016-0.464-0.016-0.928 0-0.928 0.848v1.312zm4.416-0.24q1.808 0 2.8 1.2 1.008 1.184 1.008 3.36 0 2.064-1.024 3.248-1.008 1.184-2.768 1.184-1.792 0-2.8-1.184-0.992-1.2-0.992-3.312t1.008-3.296q1.008-1.2 2.768-1.2zm0.016 1.232q-1.12 0-1.76 0.88-0.64 0.864-0.64 2.384t0.64 2.4q0.64 0.864 1.76 0.864 1.104 0 1.744-0.864 0.656-0.88 0.656-2.352 0-1.552-0.64-2.432-0.624-0.88-1.76-0.88z" fill="#fff" stroke-linecap="round" stroke-width=".068" aria-label="Geiger counter info"/><path d="m177.17 130.24h-1.2v-1.168q-0.592 0.832-1.232 1.184t-1.568 0.352q-1.216 0-1.952-0.624-0.72-0.624-0.72-1.664v-6.464h1.328v5.936q0 0.752 0.464 1.2t1.264 0.448q1.04 0 1.664-0.768 0.624-0.784 0.624-2.064v-4.752h1.328zm6.432-0.944q0.896 0 1.52-0.208t0.912-0.544q0.304-0.336 0.416-0.656 0.128-0.336 0.128-0.704 0-1.328-2.144-1.888l-2.896-0.768q-2.288-0.592-2.288-2.72 0-1.584 1.104-2.496 1.12-0.928 3.04-0.928 2.016 0 3.136 0.96 1.12 0.944 1.136 2.656h-1.408q-0.016-1.136-0.768-1.744-0.752-0.624-2.144-0.624-1.184 0-1.904 0.544-0.704 0.544-0.704 1.424 0 0.672 0.432 1.056t1.488 0.672l2.928 0.784q1.184 0.32 1.824 1.088 0.656 0.768 0.656 1.84 0 0.464-0.128 0.928-0.112 0.448-0.432 0.944-0.32 0.48-0.816 0.848t-1.328 0.608q-0.816 0.24-1.856 0.24-0.656 0-1.264-0.112-0.592-0.096-1.216-0.368-0.624-0.288-1.072-0.72-0.448-0.448-0.752-1.184-0.288-0.736-0.304-1.696h1.408v0.08q0 0.496 0.144 0.928 0.16 0.432 0.496 0.848 0.352 0.416 1.024 0.672 0.688 0.24 1.632 0.24zm9.6 0.944h-1.456l-2.944-8.384h1.504l2.24 6.8 2.368-6.8h1.504z" fill="#888890" stroke-linecap="round" stroke-width=".068"/><path d="m175.82 150.16q-0.784 0.448-1.92 0.448t-1.92-0.448q-0.784-0.464-1.216-1.312-0.416-0.848-0.592-1.856-0.176-1.024-0.176-2.352 0-2.896 0.88-4.432 0.88-1.552 3.024-1.552 1.12 0 1.888 0.432 0.784 0.416 1.216 1.248t0.608 1.888q0.192 1.056 0.192 2.48 0 1.28-0.176 2.288-0.176 0.992-0.592 1.856-0.416 0.848-1.216 1.312zm-0.256-5.504q0-2.32-0.432-3.248-0.416-0.944-1.232-0.944-0.896 0-1.28 0.912-0.384 0.896-0.384 3.248 0 1.632 0.208 2.56 0.208 0.912 0.544 1.216 0.352 0.288 0.912 0.288 0.544 0 0.88-0.288 0.352-0.288 0.56-1.2 0.224-0.928 0.224-2.544zm6.064 3.248v2.336h-2.4v-2.336zm7.088 2.256q-0.784 0.448-1.92 0.448t-1.92-0.448q-0.784-0.464-1.216-1.312-0.416-0.848-0.592-1.856-0.176-1.024-0.176-2.352 0-2.896 0.88-4.432 0.88-1.552 3.024-1.552 1.12 0 1.888 0.432 0.784 0.416 1.216 1.248t0.608 1.888q0.192 1.056 0.192 2.48 0 1.28-0.176 2.288-0.176 0.992-0.592 1.856-0.416 0.848-1.216 1.312zm-0.256-5.504q0-2.32-0.432-3.248-0.416-0.944-1.232-0.944-0.896 0-1.28 0.912-0.384 0.896-0.384 3.248 0 1.632 0.208 2.56 0.208 0.912 0.544 1.216 0.352 0.288 0.912 0.288 0.544 0 0.88-0.288 0.352-0.288 0.56-1.2 0.224-0.928 0.224-2.544zm3.472-2.384q0-0.88 0.24-1.552 0.256-0.672 0.624-1.056 0.384-0.384 0.896-0.608 0.512-0.24 0.96-0.32 0.464-0.08 0.96-0.08 1.648 0 2.624 0.848 0.976 0.832 0.976 2.24 0 0.784-0.352 1.36-0.352 0.56-1.136 1.056 0.96 0.464 1.408 1.152 0.448 0.672 0.448 1.664 0 1.664-1.088 2.656-1.072 0.976-2.88 0.976-1.744 0-2.784-0.992-1.024-1.008-1.04-2.704h2.176q0.096 1.776 1.696 1.776 0.736 0 1.2-0.48 0.48-0.48 0.48-1.232 0-0.624-0.336-1.072-0.336-0.464-0.896-0.624-0.448-0.112-1.312-0.112v-1.504h0.192q1.984 0 1.984-1.712 0-0.704-0.368-1.088-0.368-0.4-1.04-0.4-0.88 0-1.2 0.496t-0.352 1.504h-2.08z" fill="#fff" stroke-linecap="round" stroke-width=".068"/><path d="m177.17 182.24h-1.2v-1.168q-0.592 0.832-1.232 1.184t-1.568 0.352q-1.216 0-1.952-0.624-0.72-0.624-0.72-1.664v-6.464h1.328v5.936q0 0.752 0.464 1.2t1.264 0.448q1.04 0 1.664-0.768 0.624-0.784 0.624-2.064v-4.752h1.328zm6.432-0.944q0.896 0 1.52-0.208t0.912-0.544q0.304-0.336 0.416-0.656 0.128-0.336 0.128-0.704 0-1.328-2.144-1.888l-2.896-0.768q-2.288-0.592-2.288-2.72 0-1.584 1.104-2.496 1.12-0.928 3.04-0.928 2.016 0 3.136 0.96 1.12 0.944 1.136 2.656h-1.408q-0.016-1.136-0.768-1.744-0.752-0.624-2.144-0.624-1.184 0-1.904 0.544-0.704 0.544-0.704 1.424 0 0.672 0.432 1.056t1.488 0.672l2.928 0.784q1.184 0.32 1.824 1.088 0.656 0.768 0.656 1.84 0 0.464-0.128 0.928-0.112 0.448-0.432 0.944-0.32 0.48-0.816 0.848t-1.328 0.608q-0.816 0.24-1.856 0.24-0.656 0-1.264-0.112-0.592-0.096-1.216-0.368-0.624-0.288-1.072-0.72-0.448-0.448-0.752-1.184-0.288-0.736-0.304-1.696h1.408v0.08q0 0.496 0.144 0.928 0.16 0.432 0.496 0.848 0.352 0.416 1.024 0.672 0.688 0.24 1.632 0.24zm9.6 0.944h-1.456l-2.944-8.384h1.504l2.24 6.8 2.368-6.8h1.504z" fill="#888890" stroke-linecap="round" stroke-width=".068"/><path d="m175.82 202.16q-0.784 0.448-1.92 0.448t-1.92-0.448q-0.784-0.464-1.216-1.312-0.416-0.848-0.592-1.856-0.176-1.024-0.176-2.352 0-2.896 0.88-4.432 0.88-1.552 3.024-1.552 1.12 0 1.888 0.432 0.784 0.416 1.216 1.248t0.608 1.888q0.192 1.056 0.192 2.48 0 1.28-0.176 2.288-0.176 0.992-0.592 1.856-0.416 0.848-1.216 1.312zm-0.256-5.504q0-2.32-0.432-3.248-0.416-0.944-1.232-0.944-0.896 0-1.28 0.912-0.384 0.896-0.384 3.248 0 1.632 0.208 2.56 0.208 0.912 0.544 1.216 0.352 0.288 0.912 0.288 0.544 0 0.88-0.288 0.352-0.288 0.56-1.2 0.224-0.928 0.224-2.544zm6.064 3.248v2.336h-2.4v-2.336zm7.088 2.256q-0.784 0.448-1.92 0.448t-1.92-0.448q-0.784-0.464-1.216-1.312-0.416-0.848-0.592-1.856-0.176-1.024-0.176-2.352 0-2.896 0.88-4.432 0.88-1.552 3.024-1.552 1.12 0 1.888 0.432 0.784 0.416 1.216 1.248t0.608 1.888q0.192 1.056 0.192 2.48 0 1.28-0.176 2.288-0.176 0.992-0.592 1.856-0.416 0.848-1.216 1.312zm-0.256-5.504q0-2.32-0.432-3.248-0.416-0.944-1.232-0.944-0.896 0-1.28 0.912-0.384 0.896-0.384 3.248 0 1.632 0.208 2.56 0.208 0.912 0.544 1.216 0.352 0.288 0.912 0.288 0.544 0 0.88-0.288 0.352-0.288 0.56-1.2 0.224-0.928 0.224-2.544zm6.672-2.24h-2.72v-1.488q2.944 0 3.472-2.032h1.488v11.344h-2.24z" fill="#fff" stroke-linecap="round" stroke-width=".068"/><path d="m133.33 73.74q-2.352 1.344-5.76 1.344t-5.76-1.344q-2.352-1.392-3.648-3.936-1.248-2.544-1.776-5.568-0.528-3.072-0.528-7.056 0-8.688 2.64-13.296 2.64-4.656 9.072-4.656 3.36 0 5.664 1.296 2.352 1.248 3.648 3.744t1.824 5.664q0.576 3.168 0.576 7.44 0 3.84-0.528 6.864-0.528 2.976-1.776 5.568-1.248 2.544-3.648 3.936zm-0.768-16.512q0-6.96-1.296-9.744-1.248-2.832-3.696-2.832-2.688 0-3.84 2.736-1.152 2.688-1.152 9.744 0 4.896 0.624 7.68 0.624 2.736 1.632 3.648 1.056 0.864 2.736 0.864 1.632 0 2.64-0.864 1.056-0.864 1.68-3.6 0.672-2.784 0.672-7.632zm18.192 9.744v7.008h-7.2v-7.008zm21.264 6.768q-2.352 1.344-5.76 1.344t-5.76-1.344q-2.352-1.392-3.648-3.936-1.248-2.544-1.776-5.568-0.528-3.072-0.528-7.056 0-8.688 2.64-13.296 2.64-4.656 9.072-4.656 3.36 0 5.664 1.296 2.352 1.248 3.648 3.744t1.824 5.664q0.576 3.168 0.576 7.44 0 3.84-0.528 6.864-0.528 2.976-1.776 5.568-1.248 2.544-3.648 3.936zm-0.768-16.512q0-6.96-1.296-9.744-1.248-2.832-3.696-2.832-2.688 0-3.84 2.736-1.152 2.688-1.152 9.744 0 4.896 0.624 7.68 0.624 2.736 1.632 3.648 1.056 0.864 2.736 0.864 1.632 0 2.64-0.864 1.056-0.864 1.68-3.6 0.672-2.784 0.672-7.632zm33.648 3.648v5.568h-3.552v7.536h-6.72v-7.536h-13.632v-5.664l12.432-20.832h7.92v20.928zm-10.272 0v-14.544l-8.88 14.544z" fill="#fff" stroke-linecap="round" stroke-width=".068"/><path d="m94.696 92.876h-4.496l-1.232 3.504h-1.584l4.16-11.664h1.92l4.096 11.664h-1.664zm-0.416-1.248-1.792-5.312-1.92 5.312zm4.48-6.912h1.328v4.416q0.912-1.376 2.592-1.376 1.664 0 2.624 1.184t0.96 3.216q0 2.08-0.992 3.344-0.992 1.248-2.656 1.248-1.712 0-2.656-1.44v1.072h-1.2zm3.664 4.288q-1.056 0-1.696 0.896-0.64 0.88-0.64 2.352t0.64 2.368q0.64 0.88 1.696 0.88 1.088 0 1.76-0.88 0.688-0.896 0.688-2.32 0-1.504-0.672-2.4-0.656-0.896-1.776-0.896zm6.144 4.88q0.096 0.752 0.512 1.2 0.432 0.432 1.536 0.432 0.88 0 1.408-0.352 0.544-0.368 0.544-0.96 0-0.464-0.304-0.736t-0.992-0.432l-1.248-0.304q-1.488-0.352-2.08-0.88-0.576-0.544-0.576-1.536 0-1.168 0.88-1.856 0.88-0.704 2.336-0.704t2.24 0.672 0.8 1.904h-1.408q-0.048-1.344-1.68-1.344-0.816 0-1.296 0.352-0.48 0.336-0.48 0.912 0 0.448 0.368 0.736 0.368 0.272 1.184 0.464l1.28 0.304q1.248 0.304 1.808 0.864 0.56 0.544 0.56 1.472 0 1.216-0.944 1.936-0.928 0.72-2.512 0.72-3.248 0-3.344-2.864zm10.112-6.128q1.808 0 2.8 1.2 1.008 1.184 1.008 3.36 0 2.064-1.024 3.248-1.008 1.184-2.768 1.184-1.792 0-2.8-1.184-0.992-1.2-0.992-3.312t1.008-3.296q1.008-1.2 2.768-1.2zm0.016 1.232q-1.12 0-1.76 0.88-0.64 0.864-0.64 2.384t0.64 2.4q0.64 0.864 1.76 0.864 1.104 0 1.744-0.864 0.656-0.88 0.656-2.352 0-1.552-0.64-2.432-0.624-0.88-1.76-0.88zm9.184 0.176q-1.344 0.032-2.016 0.624t-0.672 2.24v4.352h-1.344v-8.384h1.232v1.52q0.576-0.944 1.104-1.344 0.544-0.416 1.184-0.416 0.176 0 0.512 0.048zm1.28-4.448h1.328v4.416q0.912-1.376 2.592-1.376 1.664 0 2.624 1.184t0.96 3.216q0 2.08-0.992 3.344-0.992 1.248-2.656 1.248-1.712 0-2.656-1.44v1.072h-1.2zm3.664 4.288q-1.056 0-1.696 0.896-0.64 0.88-0.64 2.352t0.64 2.368q0.64 0.88 1.696 0.88 1.088 0 1.76-0.88 0.688-0.896 0.688-2.32 0-1.504-0.672-2.4-0.656-0.896-1.776-0.896zm12.368 3.632h-6.176q0.032 1.312 0.672 2.096 0.656 0.784 1.792 0.784 1.632 0 2.192-1.68h1.344q-0.256 1.376-1.2 2.144t-2.384 0.768q-1.76 0-2.784-1.184-1.024-1.2-1.024-3.264t1.04-3.296q1.056-1.248 2.8-1.248 3.728 0 3.728 4.88zm-6.144-1.088h4.72q0-1.088-0.656-1.824t-1.664-0.736-1.664 0.704q-0.656 0.688-0.736 1.856zm14.608-6.832v11.664h-1.184v-1.104q-0.544 0.784-1.184 1.12-0.624 0.352-1.488 0.352-1.696 0-2.672-1.216-0.976-1.232-0.976-3.36 0-2 0.976-3.2 0.992-1.216 2.624-1.216 1.728 0 2.576 1.296v-4.336zm-3.68 4.288q-1.088 0-1.76 0.896t-0.672 2.352q0 1.472 0.672 2.368 0.672 0.88 1.776 0.88 1.056 0 1.696-0.88t0.64-2.336q0-1.504-0.64-2.384-0.64-0.896-1.712-0.896zm16.624-4.288v11.664h-1.184v-1.104q-0.544 0.784-1.184 1.12-0.624 0.352-1.488 0.352-1.696 0-2.672-1.216-0.976-1.232-0.976-3.36 0-2 0.976-3.2 0.992-1.216 2.624-1.216 1.728 0 2.576 1.296v-4.336zm-3.68 4.288q-1.088 0-1.76 0.896t-0.672 2.352q0 1.472 0.672 2.368 0.672 0.88 1.776 0.88 1.056 0 1.696-0.88t0.64-2.336q0-1.504-0.64-2.384-0.64-0.896-1.712-0.896zm8.736-1.248q1.808 0 2.8 1.2 1.008 1.184 1.008 3.36 0 2.064-1.024 3.248-1.008 1.184-2.768 1.184-1.792 0-2.8-1.184-0.992-1.2-0.992-3.312t1.008-3.296q1.008-1.2 2.768-1.2zm0.016 1.232q-1.12 0-1.76 0.88-0.64 0.864-0.64 2.384t0.64 2.4q0.64 0.864 1.76 0.864 1.104 0 1.744-0.864 0.656-0.88 0.656-2.352 0-1.552-0.64-2.432-0.624-0.88-1.76-0.88zm6.096 4.896q0.096 0.752 0.512 1.2 0.432 0.432 1.536 0.432 0.88 0 1.408-0.352 0.544-0.368 0.544-0.96 0-0.464-0.304-0.736t-0.992-0.432l-1.248-0.304q-1.488-0.352-2.08-0.88-0.576-0.544-0.576-1.536 0-1.168 0.88-1.856 0.88-0.704 2.336-0.704t2.24 0.672 0.8 1.904h-1.408q-0.048-1.344-1.68-1.344-0.816 0-1.296 0.352-0.48 0.336-0.48 0.912 0 0.448 0.368 0.736 0.368 0.272 1.184 0.464l1.28 0.304q1.248 0.304 1.808 0.864 0.56 0.544 0.56 1.472 0 1.216-0.944 1.936-0.928 0.72-2.512 0.72-3.248 0-3.344-2.864zm13.904-1.248h-6.176q0.032 1.312 0.672 2.096 0.656 0.784 1.792 0.784 1.632 0 2.192-1.68h1.344q-0.256 1.376-1.2 2.144t-2.384 0.768q-1.76 0-2.784-1.184-1.024-1.2-1.024-3.264t1.04-3.296q1.056-1.248 2.8-1.248 3.728 0 3.728 4.88zm-6.144-1.088h4.72q0-1.088-0.656-1.824t-1.664-0.736-1.664 0.704q-0.656 0.688-0.736 1.856zm14.4-6.832h0.88q-2.192 3.536-2.192 7.52 0 3.968 2.192 7.536h-0.88q-1.2-1.568-1.904-3.6-0.704-2.048-0.704-3.936t0.704-3.92 1.904-3.6zm9.184 11.664h-1.2v-1.168q-0.592 0.832-1.232 1.184t-1.568 0.352q-1.216 0-1.952-0.624-0.72-0.624-0.72-1.664v-6.464h1.328v5.936q0 0.752 0.464 1.2t1.264 0.448q1.04 0 1.664-0.768 0.624-0.784 0.624-2.064v-4.752h1.328zm6.432-0.944q0.896 0 1.52-0.208t0.912-0.544q0.304-0.336 0.416-0.656 0.128-0.336 0.128-0.704 0-1.328-2.144-1.888l-2.896-0.768q-2.288-0.592-2.288-2.72 0-1.584 1.104-2.496 1.12-0.928 3.04-0.928 2.016 0 3.136 0.96 1.12 0.944 1.136 2.656h-1.408q-0.016-1.136-0.768-1.744-0.752-0.624-2.144-0.624-1.184 0-1.904 0.544-0.704 0.544-0.704 1.424 0 0.672 0.432 1.056t1.488 0.672l2.928 0.784q1.184 0.32 1.824 1.088 0.656 0.768 0.656 1.84 0 0.464-0.128 0.928-0.112 0.448-0.432 0.944-0.32 0.48-0.816 0.848t-1.328 0.608q-0.816 0.24-1.856 0.24-0.656 0-1.264-0.112-0.592-0.096-1.216-0.368-0.624-0.288-1.072-0.72-0.448-0.448-0.752-1.184-0.288-0.736-0.304-1.696h1.408v0.08q0 0.496 0.144 0.928 0.16 0.432 0.496 0.848 0.352 0.416 1.024 0.672 0.688 0.24 1.632 0.24zm9.6 0.944h-1.456l-2.944-8.384h1.504l2.24 6.8 2.368-6.8h1.504zm4.864 3.392h-0.88q2.192-3.536 2.192-7.52 0-3.968-2.192-7.536h0.88q1.2 1.568 1.904 3.616 0.704 2.032 0.704 3.92t-0.704 3.92-1.904 3.6z" fill="#fff" stroke-linecap="round" stroke-width=".068"/><circle cx="16" cy="45" r="10" filter="url(#i)"/><circle cx="16" cy="45" r="9.5" fill="#0080ff" stroke="#fff" stroke-linecap="round"/><path d="m16.483 42.893h-2.198v-0.882q1.428-0.182 1.862-0.504t0.756-1.47h0.812v9.926h-1.232z" fill="#fff" stroke-linecap="round" aria-label="1"/><circle cx="305" cy="122" r="10" filter="url(#g)"/><circle cx="305" cy="122" r="9.5" fill="#0080ff" stroke="#fff" stroke-linecap="round"/><path d="m301.88 120.48q0.098-3.444 3.276-3.444 1.414 0 2.296 0.812t0.882 2.1q0 1.848-2.1 2.996l-1.4 0.756q-0.91 0.49-1.302 0.952t-0.49 1.092h5.222v1.218h-6.608q0.084-1.638 0.658-2.52 0.574-0.896 2.128-1.778l1.288-0.728q1.344-0.77 1.344-1.96 0-0.798-0.56-1.33t-1.4-0.532q-1.862 0-2.002 2.366z" fill="#fff" stroke-linecap="round" aria-label="2"/><circle cx="305" cy="174" r="10" filter="url(#f)"/><circle cx="305" cy="174" r="9.5" fill="#0080ff" stroke="#fff" stroke-linecap="round"/><path d="m305.01 169.95q-1.064 0-1.47 0.588-0.392 0.574-0.42 1.54h-1.232q0.07-3.206 3.108-3.206 1.414 0 2.212 0.728 0.812 0.728 0.812 2.002 0 1.512-1.386 2.058 0.896 0.308 1.288 0.868 0.392 0.546 0.392 1.498 0 1.414-0.924 2.254-0.91 0.84-2.436 0.84-3.052 0-3.276-3.206h1.232q0.07 1.078 0.574 1.596t1.512 0.518q0.966 0 1.512-0.518 0.546-0.532 0.546-1.47 0-1.806-2.058-1.806l-0.518 0.014h-0.154v-1.05q1.33-0.028 1.876-0.336 0.56-0.308 0.56-1.218 0-0.784-0.476-1.232-0.462-0.462-1.274-0.462z" fill="#fff" stroke-linecap="round" aria-label="3"/><circle cx="173" cy="225.5" r="10" filter="url(#e)"/><circle cx="173" cy="225.5" r="9.5" fill="#0080ff" stroke="#fff" stroke-linecap="round"/><path d="m175.83 220.38v1.218h-4.13l-0.392 2.772q0.826-0.602 1.834-0.602 1.428 0 2.31 0.924 0.896 0.91 0.896 2.38 0 1.568-0.952 2.562t-2.45 0.994q-0.574 0-1.064-0.126-0.476-0.126-0.798-0.294-0.308-0.182-0.574-0.462-0.252-0.294-0.392-0.504-0.126-0.224-0.252-0.546-0.112-0.336-0.14-0.462t-0.07-0.364h1.232q0.434 1.666 2.03 1.666 1.008 0 1.582-0.616 0.588-0.616 0.588-1.68 0-1.106-0.588-1.736-0.588-0.644-1.582-0.644-0.574 0-0.98 0.21-0.406 0.196-0.84 0.714h-1.134l0.742-5.404z" fill="#fff" stroke-linecap="round" aria-label="5"/><circle cx="15" cy="225.5" r="10" filter="url(#d)"/><circle cx="15" cy="225.5" r="9.5" fill="#0080ff" stroke="#fff" stroke-linecap="round"/><path d="m15.742 228.08h-4.186v-1.302l4.508-6.244h0.91v6.44h1.47v1.106h-1.47v2.38h-1.232zm0-1.106v-4.34l-3.108 4.34z" fill="#fff" stroke-linecap="round" aria-label="4"/><circle cx="16" cy="15" r="10" filter="url(#h)"/><circle cx="16" cy="15" r="9.5" fill="#0080ff" stroke="#fff" stroke-linecap="round"/><path d="m12.71 15.28q0-1.316 0.238-2.31 0.238-1.008 0.588-1.582 0.364-0.574 0.854-0.924 0.504-0.364 0.938-0.476 0.448-0.112 0.938-0.112 1.134 0 1.876 0.686 0.756 0.686 0.938 1.904h-1.232q-0.154-0.714-0.588-1.106t-1.078-0.392q-1.064 0-1.638 0.98-0.56 0.966-0.574 2.786 0.812-1.106 2.282-1.106 1.33 0 2.184 0.882t0.854 2.268q0 1.456-0.924 2.408-0.91 0.938-2.324 0.938-3.332 0-3.332-4.844zm3.388-0.56q-0.91 0-1.484 0.588-0.574 0.574-0.574 1.498 0 0.952 0.574 1.596 0.574 0.63 1.442 0.63 0.854 0 1.414-0.602 0.56-0.616 0.56-1.554 0-0.994-0.518-1.568-0.518-0.588-1.414-0.588z" fill="#fff" stroke-linecap="round" aria-label="6"/></svg>
