<svg width="320" height="240" version="1.1" viewBox="0 0 320 240" xmlns="http://www.w3.org/2000/svg"><defs><filter id="k" x="-.108" y="-.108" width="1.216" height="1.216" color-interpolation-filters="sRGB"><feGaussianBlur stdDeviation="0.9"/></filter><filter id="j" x="-.108" y="-.108" width="1.216" height="1.216" color-interpolation-filters="sRGB"><feGaussianBlur stdDeviation="0.9"/></filter><filter id="e" x="-.108" y="-.108" width="1.216" height="1.216" color-interpolation-filters="sRGB"><feGaussianBlur stdDeviation="0.9"/></filter><filter id="c" x="-.108" y="-.108" width="1.216" height="1.216" color-interpolation-filters="sRGB"><feGaussianBlur stdDeviation="0.9"/></filter><filter id="b" x="-.108" y="-.108" width="1.216" height="1.216" color-interpolation-filters="sRGB"><feGaussianBlur stdDeviation="0.9"/></filter><filter id="i" x="-.108" y="-.108" width="1.216" height="1.216" color-interpolation-filters="sRGB"><feGaussianBlur stdDeviation="0.9"/></filter><filter id="d" x="-.108" y="-.108" width="1.216" height="1.216" color-interpolation-filters="sRGB"><feGaussianBlur stdDeviation="0.9"/></filter><filter id="h" x="-.108" y="-.108" width="1.216" height="1.216" color-interpolation-filters="sRGB"><feGaussianBlur stdDeviation="0.9"/></filter><filter id="g" x="-.108" y="-.108" width="1.216" height="1.216" color-interpolation-filters="sRGB"><feGaussianBlur stdDeviation="0.9"/></filter><filter id="f" x="-.108" y="-.108" width="1.216" height="1.216" color-interpolation-filters="sRGB"><feGaussianBlur stdDeviation="0.9"/></filter><filter id="a" x="-.108" y="-.108" width="1.216" height="1.216" color-interpolation-filters="sRGB"><feGaussianBlur stdDeviation="0.9"/></filter></defs><rect width="320" height="240"/><rect x=".5" y=".5" width="319" height="239" fill="none" stroke="#fff"/><rect x=".5" y=".5" width="319" height="29" fill="#282830" stroke="#fff"/><rect x="2" y="2" width="51" height="26" fill="#585860"/><path d="m31.088 10.227a0.53132 0.53132 0 0 0-0.17341 0.0631l-7.3611 4.25a0.53132 0.53132 0 0 0 0 0.92009l7.3611 4.25a0.53132 0.53132 0 0 0 0.79688-0.46006v-8.5a0.53132 0.53132 0 0 0-0.43898-0.52315 0.53132 0.53132 0 0 0-0.1845 0z" fill="#fff"/><rect x="2" y="31" width="157" height="207" fill="#282830"/><rect x="160" y="31" width="158" height="207" fill="#282830"/><rect x="12.5" y="41.5" width="136" height="150" fill="#382800" stroke="#e0a000" stroke-linecap="round"/><rect x="12" y="202" width="64" height="26" fill="#585860"/><rect x="86" y="202" width="63" height="26" fill="#585860"/><rect x="170" y="41" width="64" height="26" fill="#585860"/><rect x="244" y="41" width="64" height="26" fill="#585860"/><rect x="170" y="141" width="64" height="26" fill="#585860"/><rect x="170" y="177" width="138" height="51" fill="#585860"/><rect x="244" y="141" width="64" height="26" fill="#585860"/><path d="m36.956 207.58c-0.09009 0.0241-0.17224 0.0715-0.23819 0.13748-0.2075 0.20747-0.2075 0.54386 0 0.75135l13.812 13.812c0.20747 0.2075 0.54387 0.2075 0.75135 0 0.2075-0.20748 0.2075-0.54387 0-0.75136l-13.812-13.812c-0.13421-0.13421-0.32983-0.18662-0.51316-0.13748zm6.9889 2.641c-0.09891 0.0102-0.19297 0.048-0.27146 0.10908l-1.1752 0.91405 2.0326 2.0326v-2.5273c-6.6e-5 -0.315-0.27259-0.56077-0.5859-0.5284zm2.2447 0.31206c-0.04609-6e-3 -0.09273-5e-3 -0.13871 1e-3 -0.18795 0.0264-0.34757 0.15096-0.41872 0.32691-0.11002 0.27198 0.02127 0.58165 0.29325 0.69169 1.4058 0.56867 2.3237 1.9296 2.3242 3.4462-0.0014 0.57434-0.13503 1.1258-0.37619 1.6205l0.78313 0.78312c0.41799-0.71433 0.65357-1.5387 0.65556-2.4018v-2e-3c-3.72e-4 -1.9463-1.184-3.7015-2.9883-4.4313-0.04303-0.0174-0.08816-0.0291-0.13424-0.0348zm-7.2648 1.6453c-0.14478 0.096-0.23349 0.25673-0.23754 0.43041v4.7812c3e-5 0.29339 0.23786 0.53121 0.53125 0.53125h2.2083l2.2468 1.7474c0.34896 0.27126 0.85724 0.0227 0.85737-0.41932v-1.4648zm7.2087 0.88512c-0.29678-5e-3 -0.54002 0.23431-0.54008 0.53112v0.74461l1.4654 1.4654c0.08253-0.25846 0.1281-0.52919 0.12834-0.80477v-6.7e-4c-2.32e-4 -0.6465-0.23644-1.271-0.66406-1.7559-0.07138-0.0809-0.1657-0.1382-0.27042-0.1642-0.03901-0.01-0.079-0.0149-0.11919-0.0156z" fill="#fff"/><path d="m121.22 210.75a0.53125 0.53125 0 0 0-0.53125 0.53125 0.53125 0.53125 0 0 0 0.53125 0.53125h1.9049l-2.2806 2.2806a0.53132 0.53132 0 0 0 0.37566 0.90691h3.1875a0.53125 0.53125 0 0 0 0.53125-0.53125 0.53125 0.53125 0 0 0-0.53125-0.53125h-1.9049l2.2806-2.2806a0.53132 0.53132 0 0 0-0.37566-0.90691zm-5.3125 2.125a0.53125 0.53125 0 0 0-0.53125 0.53125 0.53125 0.53125 0 0 0 0.53125 0.53125h1.9049l-2.2806 2.2806a0.53132 0.53132 0 0 0 0.37566 0.90691h3.1875a0.53125 0.53125 0 0 0 0.53125-0.53125 0.53125 0.53125 0 0 0-0.53125-0.53125h-1.9049l2.2806-2.2806a0.53132 0.53132 0 0 0-0.37566-0.90691zm-5.3125 2.125a0.53125 0.53125 0 0 0-0.53125 0.53125 0.53125 0.53125 0 0 0 0.53125 0.53125h1.9049l-2.2806 2.2806a0.53132 0.53132 0 0 0 0.37566 0.90691h3.1875a0.53125 0.53125 0 0 0 0.53125-0.53125 0.53125 0.53125 0 0 0-0.53125-0.53125h-1.9049l2.2806-2.2806a0.53132 0.53132 0 0 0-0.37566-0.90691z" fill="#fff"/><path d="m202.05 51.346a0.53132 0.53132 0 0 0-0.18378 0.01608 0.53132 0.53132 0 0 0-0.2382 0.13748l-4.25 4.25a0.53132 0.53132 0 0 0 0.37569 0.90691h8.5a0.53132 0.53132 0 0 0 0.3757-0.90691l-4.25-4.25a0.53132 0.53132 0 0 0-0.32938-0.15356z" fill="#fff"/><path d="m276.05 51.346a0.53132 0.53132 0 0 0-0.18378 0.01608 0.53132 0.53132 0 0 0-0.2382 0.13748l-4.25 4.25a0.53132 0.53132 0 0 0 0.37569 0.90691h8.5a0.53132 0.53132 0 0 0 0.3757-0.90691l-4.25-4.25a0.53132 0.53132 0 0 0-0.32938-0.15356z" fill="#fff"/><path d="m202.05 156.65a0.53132 0.53132 0 0 1-0.18378-0.0161 0.53132 0.53132 0 0 1-0.2382-0.13748l-4.25-4.25a0.53132 0.53132 0 0 1 0.37569-0.90691h8.5a0.53132 0.53132 0 0 1 0.3757 0.90691l-4.25 4.25a0.53132 0.53132 0 0 1-0.32938 0.15356z" fill="#fff"/><path d="m276.05 156.65a0.53132 0.53132 0 0 1-0.18378-0.0161 0.53132 0.53132 0 0 1-0.2382-0.13748l-4.25-4.25a0.53132 0.53132 0 0 1 0.37569-0.90691h8.5a0.53132 0.53132 0 0 1 0.3757 0.90691l-4.25 4.25a0.53132 0.53132 0 0 1-0.32938 0.15356z" fill="#fff"/><path d="m228.34 188.94c-1.5933 0-2.9062 1.313-2.9062 2.9062v21.312c0 1.5933 1.313 2.9062 2.9062 2.9062h21.312c1.5933 0 2.9062-1.313 2.9062-2.9062v-21.312c0-1.5933-1.313-2.9062-2.9062-2.9062zm4.8438 5.8125a1.9375 1.9375 0 0 1 1.9375 1.9375 1.9375 1.9375 0 0 1-1.9375 1.9375 1.9375 1.9375 0 0 1-1.9375-1.9375 1.9375 1.9375 0 0 1 1.9375-1.9375zm11.625 0a1.9375 1.9375 0 0 1 1.9375 1.9375 1.9375 1.9375 0 0 1-1.9375 1.9375 1.9375 1.9375 0 0 1-1.9375-1.9375 1.9375 1.9375 0 0 1 1.9375-1.9375zm-5.8125 5.8125a1.9375 1.9375 0 0 1 1.9375 1.9375 1.9375 1.9375 0 0 1-1.9375 1.9375 1.9375 1.9375 0 0 1-1.9375-1.9375 1.9375 1.9375 0 0 1 1.9375-1.9375zm-5.8125 5.8125a1.9375 1.9375 0 0 1 1.9375 1.9375 1.9375 1.9375 0 0 1-1.9375 1.9375 1.9375 1.9375 0 0 1-1.9375-1.9375 1.9375 1.9375 0 0 1 1.9375-1.9375zm11.625 0a1.9375 1.9375 0 0 1 1.9375 1.9375 1.9375 1.9375 0 0 1-1.9375 1.9375 1.9375 1.9375 0 0 1-1.9375-1.9375 1.9375 1.9375 0 0 1 1.9375-1.9375z" fill="#fff"/><path d="m64.328 10.296v10.352h-1.488v-10.352h-3.84v-1.312h9.152v1.312zm8.976 3.136q-1.344 0.032-2.016 0.624t-0.672 2.24v4.352h-1.344v-8.384h1.232v1.52q0.576-0.944 1.104-1.344 0.544-0.416 1.184-0.416 0.176 0 0.512 0.048zm7.92 7.216h-1.2v-1.168q-0.592 0.832-1.232 1.184t-1.568 0.352q-1.216 0-1.952-0.624-0.72-0.624-0.72-1.664v-6.464h1.328v5.936q0 0.752 0.464 1.2t1.264 0.448q1.04 0 1.664-0.768 0.624-0.784 0.624-2.064v-4.752h1.328zm8.848-3.744h-6.176q0.032 1.312 0.672 2.096 0.656 0.784 1.792 0.784 1.632 0 2.192-1.68h1.344q-0.256 1.376-1.2 2.144t-2.384 0.768q-1.76 0-2.784-1.184-1.024-1.2-1.024-3.264t1.04-3.296q1.056-1.248 2.8-1.248 3.728 0 3.728 4.88zm-6.144-1.088h4.72q0-1.088-0.656-1.824t-1.664-0.736-1.664 0.704q-0.656 0.688-0.736 1.856zm15.616-2.384q-1.344 0.032-2.016 0.624t-0.672 2.24v4.352h-1.344v-8.384h1.232v1.52q0.576-0.944 1.104-1.344 0.544-0.416 1.184-0.416 0.176 0 0.512 0.048zm1.008 1.312q0.096-2.72 3.36-2.72 1.552 0 2.352 0.592 0.8 0.576 0.8 1.696v4.928q0 0.656 0.72 0.656 0.144 0 0.288-0.032v1.008q-0.56 0.144-0.912 0.144-0.64 0-0.976-0.304-0.32-0.288-0.4-0.928-1.344 1.232-2.848 1.232-1.264 0-2.016-0.672-0.736-0.672-0.736-1.808 0-0.368 0.064-0.672 0.08-0.304 0.16-0.528 0.096-0.24 0.32-0.432 0.224-0.208 0.368-0.336 0.16-0.128 0.512-0.24 0.368-0.128 0.56-0.176 0.192-0.064 0.672-0.144t0.704-0.112 0.8-0.112q0.784-0.096 1.088-0.304t0.304-0.624v-0.352q0-0.608-0.496-0.928-0.48-0.32-1.376-0.32-0.928 0-1.408 0.368-0.48 0.352-0.56 1.12zm2.672 5.104q1.104 0 1.808-0.576 0.704-0.592 0.704-1.264v-1.504q-0.4 0.192-1.216 0.32-0.8 0.128-1.392 0.224t-1.072 0.464q-0.48 0.352-0.48 0.992t0.432 0.992 1.216 0.352zm6.048-7.584h1.232v1.408q0.56-0.88 1.2-1.264 0.656-0.384 1.584-0.384 1.216 0 1.936 0.624t0.72 1.664v6.336h-1.328v-5.808q0-0.752-0.464-1.2t-1.264-0.448q-1.024 0-1.648 0.784-0.624 0.768-0.624 2.048v4.624h-1.344zm15.456-3.28v11.664h-1.184v-1.104q-0.544 0.784-1.184 1.12-0.624 0.352-1.488 0.352-1.696 0-2.672-1.216-0.976-1.232-0.976-3.36 0-2 0.976-3.2 0.992-1.216 2.624-1.216 1.728 0 2.576 1.296v-4.336zm-3.68 4.288q-1.088 0-1.76 0.896t-0.672 2.352q0 1.472 0.672 2.368 0.672 0.88 1.776 0.88 1.056 0 1.696-0.88t0.64-2.336q0-1.504-0.64-2.384-0.64-0.896-1.712-0.896zm8.736-1.248q1.808 0 2.8 1.2 1.008 1.184 1.008 3.36 0 2.064-1.024 3.248-1.008 1.184-2.768 1.184-1.792 0-2.8-1.184-0.992-1.2-0.992-3.312t1.008-3.296q1.008-1.2 2.768-1.2zm0.016 1.232q-1.12 0-1.76 0.88-0.64 0.864-0.64 2.384t0.64 2.4q0.64 0.864 1.76 0.864 1.104 0 1.744-0.864 0.656-0.88 0.656-2.352 0-1.552-0.64-2.432-0.624-0.88-1.76-0.88zm5.072-0.992h1.232v1.184q0.544-0.752 1.136-1.088 0.608-0.336 1.44-0.336 1.552 0 2.256 1.28 0.592-0.704 1.168-0.992t1.408-0.288q1.168 0 1.792 0.608 0.64 0.592 0.64 1.728v6.288h-1.344v-5.776q0-0.8-0.416-1.232-0.4-0.448-1.136-0.448-0.816 0-1.392 0.64t-0.576 1.552v5.264h-1.344v-5.776q0-0.8-0.416-1.232-0.4-0.448-1.136-0.448-0.816 0-1.392 0.64t-0.576 1.552v5.264h-1.344zm16.992 0h1.232v1.408q0.56-0.88 1.2-1.264 0.656-0.384 1.584-0.384 1.216 0 1.936 0.624t0.72 1.664v6.336h-1.328v-5.808q0-0.752-0.464-1.2t-1.264-0.448q-1.024 0-1.648 0.784-0.624 0.768-0.624 2.048v4.624h-1.344zm15.136 8.384h-1.2v-1.168q-0.592 0.832-1.232 1.184t-1.568 0.352q-1.216 0-1.952-0.624-0.72-0.624-0.72-1.664v-6.464h1.328v5.936q0 0.752 0.464 1.2t1.264 0.448q1.04 0 1.664-0.768 0.624-0.784 0.624-2.064v-4.752h1.328zm1.792-8.384h1.232v1.184q0.544-0.752 1.136-1.088 0.608-0.336 1.44-0.336 1.552 0 2.256 1.28 0.592-0.704 1.168-0.992t1.408-0.288q1.168 0 1.792 0.608 0.64 0.592 0.64 1.728v6.288h-1.344v-5.776q0-0.8-0.416-1.232-0.4-0.448-1.136-0.448-0.816 0-1.392 0.64t-0.576 1.552v5.264h-1.344v-5.776q0-0.8-0.416-1.232-0.4-0.448-1.136-0.448-0.816 0-1.392 0.64t-0.576 1.552v5.264h-1.344zm12.992-3.28h1.328v4.416q0.912-1.376 2.592-1.376 1.664 0 2.624 1.184t0.96 3.216q0 2.08-0.992 3.344-0.992 1.248-2.656 1.248-1.712 0-2.656-1.44v1.072h-1.2zm3.664 4.288q-1.056 0-1.696 0.896-0.64 0.88-0.64 2.352t0.64 2.368q0.64 0.88 1.696 0.88 1.088 0 1.76-0.88 0.688-0.896 0.688-2.32 0-1.504-0.672-2.4-0.656-0.896-1.776-0.896zm12.368 3.632h-6.176q0.032 1.312 0.672 2.096 0.656 0.784 1.792 0.784 1.632 0 2.192-1.68h1.344q-0.256 1.376-1.2 2.144t-2.384 0.768q-1.76 0-2.784-1.184-1.024-1.2-1.024-3.264t1.04-3.296q1.056-1.248 2.8-1.248 3.728 0 3.728 4.88zm-6.144-1.088h4.72q0-1.088-0.656-1.824t-1.664-0.736-1.664 0.704q-0.656 0.688-0.736 1.856zm11.584-2.384q-1.344 0.032-2.016 0.624t-0.672 2.24v4.352h-1.344v-8.384h1.232v1.52q0.576-0.944 1.104-1.344 0.544-0.416 1.184-0.416 0.176 0 0.512 0.048zm2.192 4.72q0.096 0.752 0.512 1.2 0.432 0.432 1.536 0.432 0.88 0 1.408-0.352 0.544-0.368 0.544-0.96 0-0.464-0.304-0.736t-0.992-0.432l-1.248-0.304q-1.488-0.352-2.08-0.88-0.576-0.544-0.576-1.536 0-1.168 0.88-1.856 0.88-0.704 2.336-0.704t2.24 0.672 0.8 1.904h-1.408q-0.048-1.344-1.68-1.344-0.816 0-1.296 0.352-0.48 0.336-0.48 0.912 0 0.448 0.368 0.736 0.368 0.272 1.184 0.464l1.28 0.304q1.248 0.304 1.808 0.864 0.56 0.544 0.56 1.472 0 1.216-0.944 1.936-0.928 0.72-2.512 0.72-3.248 0-3.344-2.864z" fill="#fff" stroke-linecap="round" aria-label="True random numbers"/><path d="m188.5 128.62h1.232v1.184q0.544-0.752 1.136-1.088 0.608-0.336 1.44-0.336 1.552 0 2.256 1.28 0.592-0.704 1.168-0.992t1.408-0.288q1.168 0 1.792 0.608 0.64 0.592 0.64 1.728v6.288h-1.344v-5.776q0-0.8-0.416-1.232-0.4-0.448-1.136-0.448-0.816 0-1.392 0.64t-0.576 1.552v5.264h-1.344v-5.776q0-0.8-0.416-1.232-0.4-0.448-1.136-0.448-0.816 0-1.392 0.64t-0.576 1.552v5.264h-1.344zm14.304 0v8.384h-1.328v-8.384zm0-3.28v1.68h-1.344v-1.68zm2.112 3.28h1.232v1.408q0.56-0.88 1.2-1.264 0.656-0.384 1.584-0.384 1.216 0 1.936 0.624t0.72 1.664v6.336h-1.328v-5.808q0-0.752-0.464-1.2t-1.264-0.448q-1.024 0-1.648 0.784-0.624 0.768-0.624 2.048v4.624h-1.344zm10.576 6.72v1.664h-1.664v-1.664z" fill="#888890" stroke-linecap="round" aria-label="min."/><path d="m260.46 128.25h1.232v1.184q0.544-0.752 1.136-1.088 0.608-0.336 1.44-0.336 1.552 0 2.256 1.28 0.592-0.704 1.168-0.992t1.408-0.288q1.168 0 1.792 0.608 0.64 0.592 0.64 1.728v6.288h-1.344v-5.776q0-0.8-0.416-1.232-0.4-0.448-1.136-0.448-0.816 0-1.392 0.64t-0.576 1.552v5.264h-1.344v-5.776q0-0.8-0.416-1.232-0.4-0.448-1.136-0.448-0.816 0-1.392 0.64t-0.576 1.552v5.264h-1.344zm12.8 2.48q0.096-2.72 3.36-2.72 1.552 0 2.352 0.592 0.8 0.576 0.8 1.696v4.928q0 0.656 0.72 0.656 0.144 0 0.288-0.032v1.008q-0.56 0.144-0.912 0.144-0.64 0-0.976-0.304-0.32-0.288-0.4-0.928-1.344 1.232-2.848 1.232-1.264 0-2.016-0.672-0.736-0.672-0.736-1.808 0-0.368 0.064-0.672 0.08-0.304 0.16-0.528 0.096-0.24 0.32-0.432 0.224-0.208 0.368-0.336 0.16-0.128 0.512-0.24 0.368-0.128 0.56-0.176 0.192-0.064 0.672-0.144t0.704-0.112 0.8-0.112q0.784-0.096 1.088-0.304t0.304-0.624v-0.352q0-0.608-0.496-0.928-0.48-0.32-1.376-0.32-0.928 0-1.408 0.368-0.48 0.352-0.56 1.12zm2.672 5.104q1.104 0 1.808-0.576 0.704-0.592 0.704-1.264v-1.504q-0.4 0.192-1.216 0.32-0.8 0.128-1.392 0.224t-1.072 0.464q-0.48 0.352-0.48 0.992t0.432 0.992 1.216 0.352zm9.6-3.536 2.896 4.336h-1.552l-2.096-3.216-2.128 3.216h-1.52l2.96-4.272-2.8-4.112h1.52l2.016 3.04 2.016-3.04h1.504zm6 2.672v1.664h-1.664v-1.664z" fill="#888890" stroke-linecap="round" aria-label="max."/><path d="m202.72 92.56h-8.16v-4.464q8.832 0 10.416-6.096h4.464v34.032h-6.72z" fill="#fff" stroke-linecap="round" aria-label="1"/><path d="m91.732 109.03v5.568h-3.552v7.536h-6.72v-7.536h-13.632v-5.664l12.432-20.832h7.92v20.928zm-10.272 0v-14.544l-8.88 14.544z" fill="#fff" stroke-linecap="round"/><path d="m66.524 138.77q0.512 0.224 0.848 0.528 0.352 0.304 0.496 0.688 0.16 0.384 0.208 0.72t0.048 0.8q0 0.144-0.016 0.416 0 0.272 0 0.4 0 0.656 0.144 1.104t0.56 0.736v0.368h-1.808q-0.32-0.736-0.32-1.904v-1.04q0-1.072-0.464-1.568-0.464-0.512-1.456-0.512h-3.84v5.024h-1.488v-11.664h5.376q1.712 0 2.624 0.816 0.928 0.8 0.928 2.304 0 0.992-0.432 1.648t-1.408 1.136zm0.288-2.576q0-1.152-0.608-1.584t-1.68-0.432h-3.6v4.016h3.6q1.184 0 1.728-0.48 0.56-0.48 0.56-1.52zm10.736 4.592h-6.176q0.032 1.312 0.672 2.096 0.656 0.784 1.792 0.784 1.632 0 2.192-1.68h1.344q-0.256 1.376-1.2 2.144t-2.384 0.768q-1.76 0-2.784-1.184-1.024-1.2-1.024-3.264t1.04-3.296q1.056-1.248 2.8-1.248 3.728 0 3.728 4.88zm-6.144-1.088h4.72q0-1.088-0.656-1.824t-1.664-0.736-1.664 0.704q-0.656 0.688-0.736 1.856zm8.496 2.336q0.096 0.752 0.512 1.2 0.432 0.432 1.536 0.432 0.88 0 1.408-0.352 0.544-0.368 0.544-0.96 0-0.464-0.304-0.736t-0.992-0.432l-1.248-0.304q-1.488-0.352-2.08-0.88-0.576-0.544-0.576-1.536 0-1.168 0.88-1.856 0.88-0.704 2.336-0.704t2.24 0.672 0.8 1.904h-1.408q-0.048-1.344-1.68-1.344-0.816 0-1.296 0.352-0.48 0.336-0.48 0.912 0 0.448 0.368 0.736 0.368 0.272 1.184 0.464l1.28 0.304q1.248 0.304 1.808 0.864 0.56 0.544 0.56 1.472 0 1.216-0.944 1.936-0.928 0.72-2.512 0.72-3.248 0-3.344-2.864zm13.44 2.496h-1.2v-1.168q-0.592 0.832-1.232 1.184t-1.568 0.352q-1.216 0-1.952-0.624-0.72-0.624-0.72-1.664v-6.464h1.328v5.936q0 0.752 0.464 1.2t1.264 0.448q1.04 0 1.664-0.768 0.624-0.784 0.624-2.064v-4.752h1.328zm3.136-11.664v11.664h-1.344v-11.664zm5.088 3.28v1.088h-1.376v5.744q0 0.448 0.144 0.608 0.16 0.144 0.592 0.144 0.4 0 0.64-0.064v1.12q-0.624 0.112-1.088 0.112-0.784 0-1.2-0.352-0.416-0.336-0.416-0.976v-6.336h-1.136v-1.088h1.136v-2.304h1.328v2.304z" fill="#fff" stroke-linecap="round"/><path d="m264.31 100.58q0-18.576 12.576-18.576 0.912 0 1.776 0.096t2.304 0.576q1.488 0.48 2.592 1.296 1.152 0.816 2.16 2.496 1.056 1.68 1.392 3.984h-6.24q-0.672-1.632-1.632-2.304-0.912-0.72-2.544-0.72-1.68 0-2.832 0.72-1.104 0.672-1.68 2.16t-0.816 3.072-0.336 3.984q1.584-1.632 3.12-2.304 1.536-0.72 3.648-0.72 4.368 0 7.104 3.072 2.784 3.072 2.784 7.968 0 5.568-3.168 9.024-3.12 3.456-8.208 3.456-2.544 0-4.56-0.768t-3.792-2.592q-1.728-1.824-2.688-5.328-0.96-3.552-0.96-8.592zm15.6 0.72q-1.392-1.68-3.744-1.68t-3.792 1.776q-1.44 1.728-1.44 4.56 0 2.688 1.44 4.416t3.744 1.728q2.256 0 3.696-1.776 1.488-1.776 1.488-4.512 0-2.832-1.392-4.512z" fill="#fff" stroke-linecap="round" aria-label="6"/><circle cx="26" cy="55" r="10" filter="url(#k)"/><circle cx="26" cy="55" r="9.5" fill="#0080ff" stroke="#fff" stroke-linecap="round"/><path d="m26.483 52.893h-2.198v-0.882q1.428-0.182 1.862-0.504t0.756-1.47h0.812v9.926h-1.232z" fill="#fff" stroke-linecap="round" aria-label="1"/><circle cx="15" cy="15" r="10" filter="url(#a)"/><circle cx="15" cy="15" r="9.5" fill="#0080ff" stroke="#fff" stroke-linecap="round"/><path d="m11.591 12.893h-2.198v-0.882q1.428-0.182 1.862-0.504t0.756-1.47h0.812v9.926h-1.232zm7.784 0h-2.198v-0.882q1.428-0.182 1.862-0.504t0.756-1.47h0.812v9.926h-1.232z" fill="#fff" stroke-linecap="round" aria-label="11"/><circle cx="183" cy="54" r="10" filter="url(#j)"/><circle cx="183" cy="54" r="9.5" fill="#0080ff" stroke="#fff" stroke-linecap="round"/><path d="m179.88 52.481q0.098-3.444 3.276-3.444 1.414 0 2.296 0.812t0.882 2.1q0 1.848-2.1 2.996l-1.4 0.756q-0.91 0.49-1.302 0.952t-0.49 1.092h5.222v1.218h-6.608q0.084-1.638 0.658-2.52 0.574-0.896 2.128-1.778l1.288-0.728q1.344-0.77 1.344-1.96 0-0.798-0.56-1.33t-1.4-0.532q-1.862 0-2.002 2.366z" fill="#fff" stroke-linecap="round" aria-label="2"/><circle cx="257" cy="54" r="10" filter="url(#e)"/><circle cx="257" cy="54" r="9.5" fill="#0080ff" stroke="#fff" stroke-linecap="round"/><path d="m257.01 49.954q-1.064 0-1.47 0.588-0.392 0.574-0.42 1.54h-1.232q0.07-3.206 3.108-3.206 1.414 0 2.212 0.728 0.812 0.728 0.812 2.002 0 1.512-1.386 2.058 0.896 0.308 1.288 0.868 0.392 0.546 0.392 1.498 0 1.414-0.924 2.254-0.91 0.84-2.436 0.84-3.052 0-3.276-3.206h1.232q0.07 1.078 0.574 1.596t1.512 0.518q0.966 0 1.512-0.518 0.546-0.532 0.546-1.47 0-1.806-2.058-1.806l-0.518 0.014h-0.154v-1.05q1.33-0.028 1.876-0.336 0.56-0.308 0.56-1.218 0-0.784-0.476-1.232-0.462-0.462-1.274-0.462z" fill="#fff" stroke-linecap="round" aria-label="3"/><circle cx="183" cy="154" r="10" filter="url(#i)"/><circle cx="183" cy="154" r="9.5" fill="#0080ff" stroke="#fff" stroke-linecap="round"/><path d="m179.71 154.28q0-1.316 0.238-2.31 0.238-1.008 0.588-1.582 0.364-0.574 0.854-0.924 0.504-0.364 0.938-0.476 0.448-0.112 0.938-0.112 1.134 0 1.876 0.686 0.756 0.686 0.938 1.904h-1.232q-0.154-0.714-0.588-1.106t-1.078-0.392q-1.064 0-1.638 0.98-0.56 0.966-0.574 2.786 0.812-1.106 2.282-1.106 1.33 0 2.184 0.882t0.854 2.268q0 1.456-0.924 2.408-0.91 0.938-2.324 0.938-3.332 0-3.332-4.844zm3.388-0.56q-0.91 0-1.484 0.588-0.574 0.574-0.574 1.498 0 0.952 0.574 1.596 0.574 0.63 1.442 0.63 0.854 0 1.414-0.602 0.56-0.616 0.56-1.554 0-0.994-0.518-1.568-0.518-0.588-1.414-0.588z" fill="#fff" stroke-linecap="round" aria-label="6"/><circle cx="183" cy="190" r="10" filter="url(#h)"/><circle cx="183" cy="190" r="9.5" fill="#0080ff" stroke="#fff" stroke-linecap="round"/><path d="m184.62 189.58q1.708 0.812 1.708 2.478 0 1.358-0.938 2.212-0.924 0.854-2.394 0.854t-2.408-0.854q-0.924-0.868-0.924-2.226 0-1.652 1.694-2.464-0.756-0.476-1.05-0.924t-0.294-1.134q0-1.162 0.826-1.904 0.84-0.742 2.156-0.742t2.142 0.742q0.84 0.742 0.84 1.904 0 0.7-0.294 1.148t-1.064 0.91zm-0.378-3.178q-0.462-0.434-1.246-0.434t-1.26 0.434q-0.462 0.42-0.462 1.134 0 0.7 0.462 1.134 0.476 0.42 1.26 0.42 0.77 0 1.246-0.42t0.476-1.12q0-0.728-0.476-1.148zm0.252 4.27q-0.574-0.546-1.498-0.546t-1.498 0.546q-0.574 0.532-0.574 1.4t0.56 1.414q0.574 0.546 1.484 0.546 0.938 0 1.512-0.532 0.588-0.546 0.588-1.428 0-0.868-0.574-1.4z" fill="#fff" stroke-linecap="round" aria-label="8"/><circle cx="25" cy="215" r="10" filter="url(#g)"/><circle cx="25" cy="215" r="9.5" fill="#0080ff" stroke="#fff" stroke-linecap="round"/><path d="m28.297 214.72q0 1.316-0.238 2.324-0.238 0.994-0.602 1.568-0.35 0.574-0.854 0.938-0.49 0.35-0.938 0.462t-0.938 0.112q-1.134 0-1.89-0.686-0.742-0.686-0.924-1.904h1.232q0.154 0.714 0.588 1.106t1.078 0.392q1.064 0 1.624-0.966 0.574-0.98 0.588-2.8-0.924 1.106-2.268 1.106t-2.198-0.882-0.854-2.268q0-1.456 0.91-2.394 0.924-0.952 2.338-0.952 3.346 0 3.346 4.844zm-3.36-3.766q-0.854 0-1.414 0.616t-0.56 1.554q0 0.994 0.518 1.582 0.518 0.574 1.414 0.574t1.47-0.588q0.588-0.588 0.588-1.498 0-0.966-0.574-1.596-0.574-0.644-1.442-0.644z" fill="#fff" stroke-linecap="round" aria-label="9"/><circle cx="99" cy="215" r="10" filter="url(#f)"/><circle cx="99" cy="215" r="9.5" fill="#0080ff" stroke="#fff" stroke-linecap="round"/><path d="m94.471 212.73h-2.198v-0.882q1.428-0.182 1.862-0.504t0.756-1.47h0.812v9.926h-1.232zm4.76 2.268q0-1.246 0.21-2.198t0.532-1.484q0.322-0.546 0.77-0.882t0.854-0.448q0.42-0.112 0.882-0.112 3.248 0 3.248 5.208 0 2.45-0.84 3.752-0.826 1.288-2.408 1.288-1.596 0-2.422-1.302-0.826-1.316-0.826-3.822zm5.236-0.028q0-4.004-1.988-4.004t-1.988 4.046q0 4.088 1.96 4.088 1.036 0 1.526-1.008t0.49-3.122z" fill="#fff" stroke-linecap="round" aria-label="10"/><circle cx="257" cy="154" r="10" filter="url(#d)"/><circle cx="257" cy="154" r="9.5" fill="#0080ff" stroke="#fff" stroke-linecap="round"/><path d="m260.32 149.04v1.036q-1.68 2.24-2.66 4.382-0.966 2.128-1.372 4.508h-1.316q0.56-2.45 1.428-4.312t2.646-4.396h-5.362v-1.218z" fill="#fff" stroke-linecap="round" aria-label="7"/><circle cx="183" cy="99.016" r="10" filter="url(#b)"/><circle cx="183" cy="99.016" r="9.5" fill="#0080ff" stroke="#fff" stroke-linecap="round"/><path d="m183.74 101.6h-4.186v-1.302l4.508-6.244h0.91v6.44h1.47v1.106h-1.47v2.38h-1.232zm0-1.106v-4.34l-3.108 4.34z" fill="#fff" stroke-linecap="round" aria-label="4"/><circle cx="257" cy="99.016" r="10" filter="url(#c)"/><circle cx="257" cy="99.016" r="9.5" fill="#0080ff" stroke="#fff" stroke-linecap="round"/><path d="m259.83 93.892v1.218h-4.13l-0.392 2.772q0.826-0.602 1.834-0.602 1.428 0 2.31 0.924 0.896 0.91 0.896 2.38 0 1.568-0.952 2.562t-2.45 0.994q-0.574 0-1.064-0.126-0.476-0.126-0.798-0.294-0.308-0.182-0.574-0.462-0.252-0.294-0.392-0.504-0.126-0.224-0.252-0.546-0.112-0.336-0.14-0.462t-0.07-0.364h1.232q0.434 1.666 2.03 1.666 1.008 0 1.582-0.616 0.588-0.616 0.588-1.68 0-1.106-0.588-1.736-0.588-0.644-1.582-0.644-0.574 0-0.98 0.21-0.406 0.196-0.84 0.714h-1.134l0.742-5.404z" fill="#fff" stroke-linecap="round" aria-label="5"/></svg>
