<svg xmlns="http://www.w3.org/2000/svg" width="100mm" height="100mm" viewBox="0 0 377.95 377.95" fill="#fff"><path d="m183.04 0 5.9394 188.98 5.9395-188.98h-11.879zm5.9394 188.98 29.576-186.74-11.783-1.4883-17.793 188.23zm0 0 52.748-181.56-11.504-2.9531-41.244 184.52zm0 0 75.088-173.52-11.043-4.373-64.045 177.89zm0 0 96.244-162.74-10.408-5.7227-85.836 168.46zm0 0 115.88-149.39-9.6094-6.9824-106.27 156.38zm0 0 133.69-133.69-8.6582-8.1309-125.03 141.82zm0 0 149.39-115.88-7.5723-9.1523-141.82 125.04zm0 0 162.74-96.244-6.3652-10.029-156.38 106.27zm0 0 173.52-75.088-5.0566-10.748-168.46 85.836zm0 0 181.56-52.748-3.6699-11.297-177.89 64.045zm0 0 186.74-29.578-2.2266-11.666-184.52 41.244zm0 0 188.98-5.9394-0.7461-11.854-188.23 17.793zm0 0 188.23 17.793 0.7461-11.854-188.98-5.9395zm0 0 184.52 41.244 2.2266-11.668-186.74-29.576zm0 0 177.89 64.045 3.6699-11.297-181.56-52.748zm0 0 168.46 85.836 5.0566-10.748-173.52-75.088zm0 0 156.38 106.27 6.3652-10.029-162.74-96.244zm0 0 141.82 125.03 7.5723-9.1504-149.39-115.88zm0 0 125.03 141.82 8.6582-8.1309-133.69-133.69zm0 0 106.27 156.38 9.6094-6.9805-115.88-149.39zm0 0 85.836 168.46 10.408-5.7226-96.244-162.74zm0 0 64.045 177.89 11.043-4.373-75.088-173.52zm0 0 41.244 184.52 11.504-2.9531-52.748-181.56zm0 0 17.793 188.23 11.783-1.4883-29.576-186.74zm0 0-5.9394 188.98h11.879l-5.9395-188.98zm0 0-29.578 186.74 11.785 1.4883 17.793-188.23zm0 0-52.748 181.56 11.504 2.9531 41.244-184.52zm0 0-75.088 173.52 11.043 4.373 64.045-177.89zm0 0-96.244 162.74 10.408 5.7226 85.836-168.46zm0 0-115.88 149.39 9.6094 6.9805 106.27-156.38zm0 0-133.69 133.69 8.6582 8.1309 125.04-141.82zm0 0-149.39 115.88 7.5703 9.1504 141.82-125.03zm0 0-162.74 96.244 6.3633 10.029 156.38-106.27zm0 0-173.52 75.088 5.0566 10.748 168.46-85.836zm0 0-181.56 52.748 3.6699 11.297 177.89-64.045zm0 0-186.74 29.576 2.2266 11.668 184.52-41.244zm0 0-188.98 5.9395 0.74609 11.854 188.23-17.793zm0 0-188.23-17.793-0.74609 11.854 188.98 5.9394zm0 0-184.52-41.244-2.2266 11.666 186.74 29.578zm0 0-177.89-64.045-3.6699 11.297 181.56 52.748zm0 0-168.46-85.836-5.0566 10.748 173.52 75.088zm0 0-156.38-106.27-6.3633 10.029 162.74 96.244zm0 0-141.82-125.04-7.5703 9.1523 149.39 115.88zm0 0-125.04-141.82-8.6582 8.1309 133.69 133.69zm0 0-106.27-156.38-9.6094 6.9824 115.88 149.39zm0 0-85.836-168.46-10.408 5.7227 96.244 162.74zm0 0-64.045-177.89-11.043 4.373 75.088 173.52zm0 0-41.244-184.52-11.504 2.9531 52.748 181.56zm0 0-17.793-188.23-11.785 1.4883 29.578 186.74z"/></svg>