<svg xmlns="http://www.w3.org/2000/svg" width="9mm" height="9mm" fill="#fff" viewBox="0 0 34.016 34.016"><path d="m9.3008e-4 30.798v-3.2176h6.4352v6.4352h-6.4352zm5.5159 0v-2.2983h-4.5966v4.5966h4.5966zm-3.6772 0v-1.379h2.758v2.758h-2.758zm7.3543 2.758v-0.45966h0.91933v0.91933h-0.91933zm1.8387 0v-0.45966h0.91933v-0.91933h-0.91933v-0.91933h-0.91933v0.91933h-0.91933v-0.91933h-0.91933v1.8387h-0.91933v-7.3543h-0.91933v0.91933h-3.6772v-0.91933h-0.91933v-2.758h-0.91933v3.6772h-0.91933v-3.6772h0.91933v-0.91933h0.91933v0.91933h1.8387v0.91933h-0.91933v0.91933h0.91933v0.91933h0.91933v-0.91933h0.91933v-0.91933h0.91933v-0.91933h-1.8387v-0.91933h2.758v-0.91933h0.91933v0.91933h1.8387v-0.91933h-0.91933v-2.758h-1.8387v0.91933h0.91933v0.91933h-1.8387v0.91933h-2.758v0.91933h-0.91933v-0.91933h-1.8387v-0.91933h2.758v-1.8387h2.758v-0.91933h-0.91933v-0.91933h1.8387v-0.91933h0.91933v-0.91933h-0.91933v-1.8387h0.91933v-0.91933h-0.91933v-0.91933h0.91933v-0.91933h-0.91933v-0.91933h-0.91933v0.91933h-1.8387v0.91933h-1.8387v0.91933h0.91933v0.91933h0.91933v-0.91933h0.91933v-0.91933h0.91933v0.91933h-0.91933v0.91933h0.91933v0.91933h-1.8387v2.758h-0.91933v0.91933h-0.91933v-1.8387h-1.8387v0.91933h-0.91933v-0.91933h0.91933v-0.91933h-0.91933v-1.8387h0.91933v-2.758h0.91933v-0.91933h0.91933v-0.91933h-1.8387v-0.91933h6.4352v1.8387h0.91933v0.91933h0.91933v-0.91933h1.8387v-0.91933h-0.91933v-0.91933h0.91933v-1.8387h0.91933v-0.91933h1.8387v-0.91933h0.91933v1.8387h0.91933v0.91933h-0.91933v-0.91933h-0.91933v1.8387h0.91933v0.91933h0.91933v-0.91933h1.8387v-0.91933h-0.91933v-0.91933h0.91933v-0.91933h-0.91933v-0.91933h0.91933v-0.91933h0.91933v-0.91933h0.91933v-0.91933h-0.91933v-0.91933h0.91933v0.91933h0.91933v-0.91933h0.91933v0.91933h-0.91933v1.8387h0.91933v3.6772h-0.91933v0.91933h4.5966v0.91933h-0.91933v0.91933h1.8387v-3.6772h-0.91933v0.91933h-0.91933v-1.8387h2.758v4.5966h-0.91933v0.91933h0.91933v0.91933h0.91933v-1.8387h0.91933v-1.8387h1.8387v0.91933h-0.91933v0.91933h0.91933v0.91933h-1.8387v1.8387h0.91933v-0.91933h0.91933v0.91933h0.91933v-0.91933h0.91933v1.8387h1.8387v0.91933h-1.8387v-0.91933h-0.91933v0.91933h-2.758v-1.8387h-0.91933v2.758h0.91933v0.91933h-1.8387v1.8387h1.8387v-0.91933h0.91933v0.91933h0.91933v0.91933h1.8387v-0.91933h-0.91933v-0.91933h-0.91933v-0.91933h-0.91933v-0.91933h0.91933v0.91933h0.91933v-0.91933h1.8387v0.91933h-1.8387v0.91933h2.758v0.91933h-0.91933v0.91933h0.91933v0.91933h-4.5966v0.91933h-0.91933v-0.91933h-1.8387v-0.91933h-0.91933v0.91933h-1.8387v-1.8387h-1.8387v0.91933h0.91933v2.758h-0.91933v-0.91933h-0.91933v-0.91933h-0.91933v-0.91933h-1.8387v0.91933h0.91933v0.91933h0.91933v0.91933h0.91933v1.8387h0.91933v-0.91933h1.8387v-1.8387h1.8387v0.91933h-0.91933v2.758h0.91933v-0.91933h0.91933v-2.758h0.91933v1.8387h0.91933v-0.91933h0.91933v0.91933h-0.91933v0.91933h0.91933v1.8387h0.91933v-1.8387h0.91933v-0.91933h0.91933v-1.8387h1.8387v0.91933h-0.91933v0.91933h0.91933v0.91933h-0.91933v0.91933h0.91933v0.91933h-0.91933v0.91933h0.91933v0.91933h-0.91933v-0.91933h-0.91933v0.91933h-1.8387v0.91933h0.91933v0.91933h-0.91933v2.758h-0.91933v0.91933h0.91933v0.91933h2.758v-1.8387h-0.91933v0.91933h-0.91933v-2.758h0.91933v0.91933h0.91933v-0.91933h0.91933v0.91933h-0.91933v0.91933h0.91933v2.758h-3.6772v-0.91933h-0.91933v-0.91933h-0.91933v-0.91933h-0.91933v1.8387h0.91933v0.91933h-1.8387v-0.91933h-1.8387v0.91933h-0.91933v-2.758h-0.91933v1.8387h-1.8387v0.91933h-0.91933v-0.91933h-1.8387v0.91933h-1.8387v-2.758h-1.8387v-0.91933h1.8387v-0.91933h-0.91933v-1.8387h0.91933v0.91933h0.91933v0.91933h0.91933v-1.8387h-0.91933v-2.758h-0.91933v1.8387h-1.8387v2.758h-0.91933v2.758h-0.91933v0.91933h0.91933v0.91933h-2.7579zm1.8387-1.8387v-0.45966h-0.91933v0.91933h0.91933zm6.4352 0v-0.45966h0.91933v0.91933h1.8387v-1.8387h-0.91933v-0.91933h0.91933v-0.91933h0.91933v0.91933h0.91933v-0.91933h0.91933v0.91933h0.91933v-1.8387h-0.91933v-0.91933h-1.8387v-0.91933h0.91933v-0.91933h-1.8387v-0.91933h-0.91933v0.91933h0.91933v2.758h-0.91933v-0.91933h-0.91933v-0.91933h-1.8387v1.8387h0.91933v-0.91933h0.91933v1.8387h0.91933v0.91933h-0.91933v0.91933h-0.91933v-0.91933h-0.91933v0.91933h-1.8387v0.91933h1.8387v0.91933h0.91933zm-0.91933-0.91933v-0.45966h0.91933v0.91933h-0.91933zm1.8387 0v-0.45966h0.91933v0.91933h-0.91933zm5.5159 0.45966v-0.91933h-1.8387v0.91933h0.91933v0.91933h0.91933zm-15.628-0.45966v-0.45966h-0.91933v0.91933h0.91933zm17.467 0v-0.45966h-0.91933v0.91933h0.91933zm-14.709-0.91933v-0.45966h-0.91933v-0.91933h1.8387v-1.8387h0.91933v-1.8387h1.8387v-1.8387h0.91933v0.91933h0.91933v0.91933h0.91933v-0.91933h-0.91933v-0.91933h1.8387v-0.91933h-0.91933v-1.8387h-0.91933v1.8387h-0.91933v-2.758h-0.91933v0.91933h-0.91933v0.91933h-1.8387v-0.91933h0.91933v-1.8387h0.91933v-0.91933h-0.91933v0.91933h-1.8387v2.758h-0.91933v-1.8387h-0.91933v-0.91933h-0.91933v-0.91933h3.6772v-1.8387h-0.91933v-0.91933h-0.91933v1.8387h-1.8387v-1.8387h-0.91933v-0.91933h2.758v-0.91933h-0.91933v-0.91933h-1.8387v0.91933h-0.91933v1.8387h0.91933v1.8387h-1.8387v0.91933h1.8387v0.91933h0.91933v1.8387h0.91933v1.8387h-0.91933v1.8387h-0.91933v-0.91933h-0.91933v-0.91933h-0.91933v0.91933h0.91933v0.91933h0.91933v0.91933h-1.8387v0.91933h0.91933v1.8387h0.91933v0.91933h0.91933v0.91933h0.91933v0.91933h1.8387zm-2.758-2.2983v-0.91933h-0.91933v-1.8387h1.8387v-1.8387h0.91933v-0.91933h0.91933v-0.91933h0.91933v0.91933h2.758v0.91933h-0.91933v0.91933h-0.91933v0.91933h-1.8387v-0.91933h1.8387v-0.91933h-0.91933v-0.91933h-0.91933v0.91933h-0.91933v2.758h0.91933v0.91933h-0.91933v1.8387h-1.8387zm1.8387-1.379v-0.45966h-0.91933v0.91933h0.91933zm-2.758-9.1933v-0.45966h0.91933v0.91933h-0.91933zm20.225 11.032v-1.379h-2.758v2.758h2.758zm-1.8387 0v-0.45966h0.91933v0.91933h-0.91933zm-21.144-2.758v-0.45966h-0.91933v0.91933h0.91933zm22.064 0v-0.45966h-0.91933v-0.91933h0.91933v-0.91933h-0.91933v0.91933h-0.91933v0.91933h0.91933v0.91933h0.91933zm3.6772 0v-0.45966h-0.91933v0.91933h0.91933zm-8.2738-1.8387v-0.45966h-0.91933v0.91933h0.91933zm8.2738 0v-0.45966h-0.91933v0.91933h0.91933zm-25.741-3.6772v-0.45966h-1.8387v0.91933h1.8387zm11.951-1.8387v-0.45966h0.91933v-0.91933h-0.91933v-0.91933h-0.91933v0.91933h0.91933v0.91933h-1.8387v0.91933h1.8387zm7.3543-1.8387v-0.45966h0.91933v-0.91933h-0.91933v-0.91933h0.91933v-2.7579h-0.91933v-0.91933h-0.91933v1.8387h-0.91933v0.91933h-0.91933v-0.91933h-0.91933v0.91933h-0.91933v-0.91933h-0.91933v-0.91933h-0.91933v-0.91933h0.91933v-0.91933h0.91933v1.8387h2.758v-0.91933h-0.91933v-1.8387h-0.91933v0.91933h-0.91933v-0.91933h-0.91933v-0.91933h-0.91933v-0.91933h0.91933v-0.91933h-0.91933v0.91933h-0.91933v-0.91933h-0.91933v0.91933h0.91933v1.8387h-0.91933v0.91933h-1.8387v0.91933h-0.91933v-1.8387h-0.91933v-0.91933h-1.8387v2.758h0.91933v-0.91933h0.91933v0.91933h0.91933v0.91933h0.91933v-0.91933h1.8387v-0.91933h0.91933v1.8387h-1.8387v0.91933h0.91933v0.91933h1.8387v1.8387h1.8387v0.91933h-0.91933v0.91933h5.5159zm-3.6772-0.91933v-0.45966h1.8387v-0.91933h0.91933v-0.91933h0.91933v0.91933h-0.91933v1.8387h-2.758zm-1.8387-1.8387v-0.45966h0.91933v0.91933h-0.91933zm1.8387 0v-0.45966h0.91933v0.91933h-0.91933zm-3.6772-1.8387v-0.45966h0.91933v0.91933h-0.91933zm0.91933-2.758v-0.45966h0.91933v0.91933h-0.91933zm-2.758 5.9756v-0.91933h-2.758v0.91933h1.8387v0.91933h0.91933zm-14.709-0.45966v-0.45966h1.8387v-0.91933h-2.758v1.8387h0.91933zm12.87-1.8387v-0.45966h-0.91933v-0.91933h-1.8387v0.91933h1.8387v0.91933h0.91933zm15.628 0v-0.45966h-0.91933v0.91933h0.91933zm-27.58-1.8387v-0.45966h-0.91933v0.91933h0.91933zm1.8387-0.91933v-0.45966h1.8387v-0.91933h-1.8387v0.91933h-0.91933v0.91933h0.91933zm8.2738-3.6772v-0.45966h-0.91933v0.91933h0.91933zm6.4352-1.8387v-0.45966h0.91933v-0.91933h-0.91933v0.91933h-0.91933v0.91933h0.91933zm13.79 23.902v-0.45966h0.91933v0.91933h-0.91933zm-32.176-9.1933v-0.45966h-0.91933v-0.91933h1.8387v0.91933h0.91933v0.91933h-1.8387zm4.5966-3.6772v-0.45966h0.91933v0.91933h-0.91933zm27.58-4.1369v-0.91933h-0.91933v-0.91933h1.8387v2.758h-0.91933zm-24.821-3.6772v-0.91933h-0.91933v-2.758h0.91933v-2.758h-0.91933v-0.91933h0.91933v0.91933h1.8387v-0.91933h0.91933v0.91933h0.91933v-0.91933h1.8387v0.91933h1.8387v-0.91933h0.91933v0.91933h0.91933v0.91933h-0.91933v0.91933h-3.6772v0.91933h-1.8387v0.91933h-0.91933v-1.8387h0.91933v-0.91933h-1.8387v1.8387h-0.91933v2.758h0.91933v-0.91933h0.91933v0.91933h-0.91933v1.8387h-0.91933zm5.5159-5.9756v-0.45966h-0.91933v0.91933h0.91933zm2.758 0v-0.45966h-0.91933v0.91933h0.91933zm16.548 6.4352v-0.45966h0.91933v0.91933h-0.91933zm-33.095-4.5966v-3.2176h6.4352v6.4352h-6.4352zm5.5159 0v-2.2983h-4.5966v4.5966h4.5966zm-3.6772 0v-1.379h2.758v2.758h-2.758zm20.225 2.758v-0.45966h0.91933v0.91933h-0.91933zm5.5159-2.758v-3.2176h6.4352v6.4352h-6.4352zm5.5159 0v-2.2983h-4.5966v4.5966h4.5966zm-3.6772 0v-1.379h2.758v2.758h-2.758zm-7.3543-0.45966v-0.91933h0.91933v-0.91933h-0.91933v-0.91933h1.8387v0.91933h1.8387v-0.91933h0.91933v0.91933h-0.91933v0.91933h0.91933v0.91933h-0.91933v0.91933h-1.8387v-1.8387h-0.91933v1.8387h-0.91933z"/></svg>