<svg xmlns="http://www.w3.org/2000/svg" width="121.5mm" height="15.5mm" viewBox="0 0 459.21 58.583" fill="#fff"><path d="m44.738 0 130.74 20.709c-0.17816 1.1263-0.32159 2.2641-0.42969 3.4121l-175.05-16.545v14.486l174.83 5.4961c-0.01799 0.57542-0.03125 1.1526-0.03125 1.7324 0 0.57193 0.01374 1.1413 0.03125 1.709l-174.83 5.4961v14.488l175.05-16.549c0.10768 1.1493 0.24984 2.2885 0.42773 3.416l-130.89 20.73h53.932l77.598-17.346c0.25133 1.1247 0.53795 2.2365 0.85742 3.334l-48.229 14.012h19.467l29.83-10.74c0.3912 1.0832 0.81715 2.1488 1.2734 3.1992l-17.426 7.541h10.203l8.6914-4.4277c0.52383 1.0244 1.0752 2.0315 1.6602 3.0176l-2.3867 1.4102h5.543 2.2227c-5.8188-8.2889-9.2441-18.383-9.2441-29.291s3.4254-21.002 9.2441-29.291h-2.2227-5.5156l2.3652 1.3984c-0.58366 0.98342-1.1334 1.9882-1.6562 3.0098l-8.6523-4.4082h-10.195l17.379 7.5195c-0.45684 1.0504-0.88365 2.116-1.2754 3.1992l-29.771-10.719h-19.455l48.156 13.992c-0.3197 1.0968-0.60578 2.2081-0.85743 3.332l-77.506-17.324h-53.881zm226.65 0c5.8191 8.2889 9.2441 18.383 9.2441 29.291s-3.425 21.002-9.2441 29.291h4.5176 3.2656l-2.3984-1.418c0.58312-0.98338 1.1319-1.9883 1.6543-3.0098l8.6914 4.4277h10.199l-17.422-7.5391c0.45647-1.0507 0.88014-2.1176 1.2715-3.2012l29.83 10.74h19.471l-48.23-14.014c0.31942-1.0975 0.60614-2.2093 0.85742-3.334l77.609 17.348h53.93l-130.9-20.73c0.17778-1.1269 0.32008-2.2655 0.42774-3.4141l175.05 16.545v-14.486l-174.83-5.4961c0.01751-0.56769 0.03125-1.1371 0.03125-1.709 0-0.58043-0.01322-1.1583-0.03125-1.7344l174.83-5.4941v-14.486l-175.05 16.547c-0.10818-1.1493-0.2513-2.2885-0.42968-3.416l130.74-20.707h-53.879l-77.5 17.322c-0.25168-1.1239-0.5377-2.2353-0.85742-3.332l48.156-13.99h-19.451l-29.775 10.721c-0.39161-1.083-0.81674-2.149-1.2734-3.1992l17.381-7.5215h-10.195l-8.6562 4.4102c-0.52396-1.0237-1.0752-2.0302-1.6602-3.0156l2.3594-1.3945h-3.2109-4.5176zm-62.096 12.031a6.6142 6.6142 0 0 0-6.6133 6.6152 6.6142 6.6142 0 0 0 6.6133 6.6133 6.6142 6.6142 0 0 0 6.6152-6.6133 6.6142 6.6142 0 0 0-6.6152-6.6152zm34.631 0.003907c-0.06331 0.001843-0.12761 0.007154-0.19141 0.017578-1.0171 0.16603-1.4597 0.95328-1.916 1.8398-0.45541 0.88481-0.86895 2.0147-1.2832 3.2285-0.41391 1.2127-0.822 2.4946-1.2207 3.5801-0.3984 1.0845-0.81113 1.9847-1.1113 2.4062-0.0771 0.10832-0.0856 0.10009-0.13281 0.14453-0.0526-0.07172-0.36017-0.37142-0.69531-1.1016-0.37812-0.82375-0.78435-1.9773-1.1914-3.1914-0.0682-0.20348-0.13663-0.40986-0.20507-0.61524a0.94488 0.94488 0 0 0-1.1953-0.59766 0.94488 0.94488 0 0 0-0.59765 1.1953c0.0686 0.20571 0.13818 0.41184 0.20703 0.61719 0.41186 1.2284 0.82284 2.4205 1.2637 3.3809 0.44155 0.96195 0.81063 1.7305 1.6738 2.1504a0.94497 0.94497 0 0 0 0.00195 0c0.43353 0.21083 1.018 0.20281 1.4394-0.001953 0.4214-0.20471 0.71117-0.5203 0.97071-0.88476 0.51872-0.72844 0.92515-1.7068 1.3457-2.8516 0.42021-1.144 0.83128-2.4324 1.2363-3.6191 0.40465-1.1857 0.81029-2.2683 1.1738-2.9746 0.27763-0.53941 0.4822-0.69128 0.49023-0.73242 0.07825 0.078564 0.18026 0.18437 0.31445 0.41016 0.33963 0.57153 0.74652 1.5705 1.1484 2.7129 0.40222 1.1434 0.81182 2.4364 1.2285 3.6211 0.41708 1.1859 0.82782 2.2443 1.3066 3.0508 0.23999 0.40423 0.49323 0.74855 0.83594 1.0234 0.34271 0.27489 0.84644 0.47868 1.3555 0.39648 0.51035-0.08242 0.87735-0.3766 1.166-0.69727 0.28868-0.32066 0.52388-0.69983 0.75195-1.1426 0.45567-0.88466 0.86899-2.017 1.2832-3.2305 0.41391-1.2126 0.82207-2.4941 1.2207-3.5801 0.39835-1.0846 0.81022-1.9829 1.1113-2.4062 0.0779-0.10949 0.08769-0.10041 0.13476-0.14453 0.0506 0.07089 0.35811 0.37161 0.69336 1.1016 0.37779 0.82301 0.78421 1.9793 1.1914 3.1934 0.40751 1.2151 0.81963 2.4841 1.2441 3.5762a0.94497 0.94497 0 0 0 0 0.001953c0.42541 1.0936 0.82139 1.9828 1.4062 2.6328 0.29351 0.32612 0.67151 0.6113 1.166 0.69141 0.4945 0.0801 1.0056-0.11022 1.3555-0.39062 0.70016-0.5612 1.078-1.3733 1.5098-2.4043 0.4311-1.0299 0.84224-2.2673 1.252-3.4961a0.94488 0.94488 0 0 0-0.59765-1.1953 0.94488 0.94488 0 0 0-1.1953 0.59766c-0.40941 1.2279-0.81575 2.4398-1.2031 3.3652-0.36314 0.86634-0.74136 1.4055-0.88867 1.5566-0.23489-0.26458-0.65155-1.0368-1.043-2.043-0.39396-1.0135-0.80328-2.2669-1.2148-3.4941-0.41189-1.2281-0.82301-2.4209-1.2637-3.3809-0.44143-0.96113-0.80908-1.7306-1.6758-2.1504-0.43269-0.20953-1.0178-0.20255-1.4394 0.001953-0.42161 0.20446-0.711 0.51963-0.9707 0.88477-0.51787 0.72818-0.92502 1.7061-1.3457 2.8516-0.41999 1.1441-0.83128 2.4325-1.2363 3.6191-0.40472 1.1857-0.8106 2.2694-1.1738 2.9746-0.18143 0.3522-0.3558 0.60999-0.47657 0.74414l-0.00195 0.001953c-0.0791-0.078659-0.18624-0.18814-0.32617-0.42383-0.34013-0.57289-0.74662-1.5703-1.1484-2.7129-0.40225-1.1436-0.81183-2.4366-1.2285-3.6211-0.41703-1.1854-0.82738-2.2443-1.3066-3.0508a0.94497 0.94497 0 0 0-0.00195 0c-0.23986-0.40359-0.49143-0.74643-0.83398-1.0215-0.29973-0.24068-0.72285-0.42696-1.166-0.41406zm-34.801 18.559c-0.81066 0-1.5087 0.17765-2.0918 0.5332-0.58311 0.34133-1.0309 0.81813-1.3438 1.4297-0.31288 0.59733-0.53942 1.2227-0.68164 1.877-0.128 0.65422-0.19336 1.3576-0.19336 2.1113v12.736h1.75v-14.25c0-0.48355 0.02179-0.91147 0.06446-1.2812 0.05688-0.384 0.1566-0.78818 0.29882-1.2148 0.14223-0.42667 0.37602-0.75487 0.70313-0.98242 0.34133-0.24178 0.76198-0.36328 1.2598-0.36328 0.69689 0 1.2298 0.2648 1.5996 0.79102 0.384 0.52622 0.57618 1.1371 0.57618 1.834 0 0.35556-0.04358 0.72538-0.12891 1.1094s-0.25572 0.74656-0.51172 1.0879c-0.25599 0.34133-0.56967 0.51172-0.93945 0.51172-0.11378 0-0.31852-0.063406-0.61719-0.19141-0.28444-0.128-0.51293-0.19141-0.68359-0.19141-0.17067 0-0.32653 0.063407-0.46875 0.19141-0.128 0.11378-0.19141 0.25512-0.19141 0.42578 0 0.46933 0.21927 0.70508 0.66016 0.70508 0.11377 0 0.30594-0.058098 0.57617-0.17188 0.27022-0.11378 0.4987-0.16992 0.68359-0.16992 0.41245 0 0.78227 0.12877 1.1094 0.38476 0.34133 0.256 0.59691 0.58951 0.76757 1.002 0.1849 0.39822 0.31897 0.80435 0.4043 1.2168 0.09955 0.41244 0.15039 0.8021 0.15039 1.1719 0 0.54044-0.0634 1.0807-0.1914 1.6211-0.11378 0.52622-0.35679 1.0175-0.72657 1.4727-0.36978 0.45511-0.83205 0.68359-1.3867 0.68359-0.41243 0-0.81661-0.13603-1.2148-0.40625-0.39824-0.28444-0.60494-0.61795-0.61914-1.002h-0.59766c0.08534 0.58311 0.37723 1.0454 0.875 1.3867 0.512 0.34133 1.0813 0.51172 1.707 0.51172 1.2373 0 2.218-0.4134 2.9434-1.2383 0.73956-0.82489 1.1094-1.8617 1.1094-3.1133 0-1.152-0.3553-2.064-1.0664-2.7324-0.69688-0.68266-1.6432-1.1086-2.8379-1.2793v-0.042969c1.9627-0.66844 2.9434-1.7125 2.9434-3.1348 0-0.98133-0.36256-1.7282-1.0879-2.2402-0.71111-0.52622-1.5776-0.78906-2.6016-0.78906zm37.686 2.0371c-1.0667 0-1.5996 1.1095-1.5996 3.3281h0.40429c0-0.35556 0.07793-0.66923 0.23438-0.93945 0.17067-0.28444 0.42094-0.42578 0.74805-0.42578 0.69688 0 1.4564 0.8955 2.2812 2.6875 0.82489 1.7778 1.2383 3.0992 1.2383 3.9668 0 0.17067-0.09245 0.46256-0.27735 0.875-0.17066 0.39822-0.34831 0.9186-0.5332 1.5586-0.17067 0.65422-0.25586 1.3576-0.25586 2.1113 0 0.35555 0.08519 0.6818 0.25586 0.98047 0.17067 0.31289 0.41898 0.4707 0.74609 0.4707 0.384 0 0.66138-0.15055 0.83204-0.44922 0.18489-0.29867 0.27734-0.65396 0.27734-1.0664 0-1.024-0.09245-1.9756-0.27734-2.8574-0.17066-0.88178-0.25586-1.4022-0.25586-1.5586 0-0.11378 0.33546-0.70287 1.0039-1.7695 0.66845-1.0667 1.3355-2.1979 2.0039-3.3926 0.66844-1.1947 1.0039-2.0122 1.0039-2.4531 0-0.28444-0.07989-0.53276-0.23633-0.74609-0.14222-0.21333-0.35423-0.32031-0.63867-0.32031-0.32712 0-0.59722 0.10698-0.81055 0.32031s-0.35662 0.48344-0.42774 0.81055c0 0.028444-0.05614 0.43262-0.16992 1.2148-0.11377 0.78222-0.30594 1.5853-0.57617 2.4102-0.27022 0.82489-0.70345 1.8927-1.3008 3.2012h-0.04297c-0.02845-0.128-0.09911-0.44168-0.21289-0.93945-0.11377-0.49778-0.22075-0.95279-0.32031-1.3652-0.09956-0.41244-0.22832-0.90908-0.38477-1.4922-0.15644-0.59733-0.32682-1.1177-0.51172-1.5586-0.18488-0.45511-0.39159-0.88834-0.61914-1.3008-0.21333-0.41244-0.45439-0.73143-0.72461-0.95898s-0.55485-0.3418-0.85351-0.3418z"/></svg>