<svg xmlns="http://www.w3.org/2000/svg" width="100mm" height="100mm" viewBox="0 0 377.95 377.95"><path d="m3.7795 188.95c0.85511 2.5645 1.7102 5.1292 2.5653 7.6796 5.1087 15.237 10.217 29.868 15.326 40.998 5.1087 11.13 10.217 18.675 15.326 21.16 5.1087 2.4844 10.217-0.13366 15.326-7.3083 5.1087-7.1742 10.217-18.888 15.326-32.795 5.1087-13.908 10.217-29.94 15.326-44.909 5.1087-14.969 10.217-28.781 15.326-38.707 5.1087-9.9258 10.217-15.886 15.326-16.72 5.1088-0.83471 10.217 3.4884 15.326 12.085 5.1087 8.5967 10.217 21.44 15.326 35.962 5.1087 14.522 10.217 30.648 15.326 45.173 5.1087 14.526 10.217 27.357 15.326 35.962 5.1087 8.6049 10.217 12.91 15.326 12.085 5.1087-0.825 10.217-6.8026 15.326-16.721 5.1087-9.918 10.217-23.74 15.326-38.707 5.1088-14.967 10.217-30.997 15.324-44.909 5.1095-13.912 10.219-25.612 15.328-32.796 5.1095-7.1833 10.215-9.7828 15.325-7.3083 5.1095 2.4746 10.219 10.036 15.328 21.16 5.1057 11.123 10.215 25.763 15.325 40.998 5.1095 15.236 10.219 30.983 15.325 44.118 5.1095 13.135 10.219 23.567 15.328 29.245 5.1095 5.6773 10.215 6.5409 15.325 2.4458 5.1095-4.0954 10.219-13.153 15.328-25.351 5.1057-12.198 10.215-27.483 15.325-42.809" fill="none" stroke="#fff" stroke-linecap="round" stroke-linejoin="round" stroke-miterlimit="5" stroke-width="7.5591"/></svg>